<svg width="959" height="212" viewBox="0 0 959 212" fill="none" xmlns="http://www.w3.org/2000/svg">
<path fill-rule="evenodd" clip-rule="evenodd" d="M125.388 54.4C122.412 54.4 119.715 52.6845 118.446 50.0034C116.156 45.1519 113.243 38.952 111.52 35.5767C108.974 30.5576 104.849 27.6372 99.1357 27.5973C99.0399 27.5893 61.7603 27.5893 61.6645 27.5973C55.9513 27.6372 51.8339 30.5576 49.2805 35.5767C47.565 38.952 44.6525 45.1519 42.3624 50.0034C41.0937 52.6845 38.3887 54.4 35.4203 54.4C19.4935 54.4 6.59082 67.3027 6.59082 83.2216V130.587C6.59082 146.498 19.4935 159.409 35.4203 159.409H125.388C141.307 159.409 154.209 146.498 154.209 130.587V83.2216C154.209 67.3027 141.307 54.4 125.388 54.4Z" stroke="white" stroke-width="13.1817" stroke-linecap="round" stroke-linejoin="round"/>
<path fill-rule="evenodd" clip-rule="evenodd" d="M76.194 125.899C69.6989 121.901 63.6567 117.197 58.1754 111.869C54.3218 108.032 51.3881 103.355 49.5989 98.195C46.3794 88.1857 50.14 76.7268 60.6644 73.3357C66.1956 71.555 72.2365 72.5727 76.8974 76.0705C81.5601 72.577 87.5989 71.5596 93.1304 73.3357C103.655 76.7268 107.442 88.1857 104.223 98.195C102.434 103.355 99.5001 108.032 95.6465 111.869C90.1652 117.197 84.1229 121.901 77.6279 125.899L76.9245 126.336L76.194 125.899Z" stroke="white" stroke-width="13.1817" stroke-linecap="round" stroke-linejoin="round"/>
<path d="M88.0981 84.603C91.2858 85.6213 93.5507 88.4831 93.8338 91.8503" stroke="white" stroke-width="2.47158" stroke-linecap="round" stroke-linejoin="round"/>
<path d="M119.521 85.4013C118.75 85.3221 117.988 85.121 117.136 84.7777C116.187 84.3563 115.366 83.8202 114.572 83.0136C113.145 81.4963 112.319 79.512 112.319 77.4649C112.319 76.3776 112.542 75.2999 112.976 74.3237C113.411 73.3346 113.926 72.5002 114.858 71.5927C115.567 70.9753 116.293 70.4786 117.286 70.0413C120.229 68.8749 123.731 69.5718 125.919 71.7591C126.575 72.4052 127.127 73.185 127.433 73.8425L127.615 74.3088C128.056 75.2999 128.278 76.3776 128.278 77.4649C128.278 79.5534 127.463 81.4849 125.949 83.0927C124.641 84.4096 122.923 85.2194 121.09 85.4013L120.299 85.4405L119.521 85.4013Z" fill="white"/>
<path d="M579.209 42C580.02 42.2475 580.831 42.495 581.666 42.75C585.111 44.4433 586.787 46.9995 588.834 50.125C589.227 50.7183 589.619 51.3115 590.024 51.9228C596.636 62.1294 597.891 72.019 595.867 84.0341C591.658 103.169 579.461 120.077 568.994 136.231C560.212 149.855 551.785 163.667 544.209 178C543.613 179.114 543.016 180.227 542.401 181.375C538.536 189.084 536.637 196.824 534.971 205.227C534.209 209 534.209 209 533.209 212C527.407 206.355 527.407 206.355 525.209 203C525.209 202.34 525.209 201.68 525.209 201C524.549 201 523.889 201 523.209 201C521.503 199.374 519.833 197.709 518.209 196C519.697 191.823 521.775 188.386 524.209 184.687C525.009 183.452 525.809 182.216 526.608 180.98C527.935 178.941 529.271 176.908 530.624 174.885C532.042 172.766 533.439 170.634 534.834 168.5C535.284 167.842 535.734 167.184 536.198 166.507C538.182 163.442 539.212 161.699 539.198 157.984C538.013 154.407 536.507 151.085 534.772 147.75C534.459 147.126 534.147 146.502 533.825 145.859C532.484 143.23 531.309 141.1 529.209 139C527.953 136.681 526.752 134.363 525.584 132C525.097 131.037 525.097 131.037 524.6 130.055C522.209 125.253 522.209 125.253 522.209 123C521.219 123 520.229 123 519.209 123C519.209 121.02 519.209 119.04 519.209 117C518.549 116.67 517.889 116.34 517.209 116C515.961 113.621 514.79 111.241 513.647 108.812C510.524 102.337 507.031 96.2971 503.004 90.343C500.209 86.1839 500.209 86.1839 500.209 84C499.219 83.67 498.229 83.34 497.209 83C492.437 80.614 492.437 80.614 491.397 77.8125C491.304 76.9153 491.304 76.9153 491.209 76C494.264 72.9851 496.875 72.6006 501.098 72.5315C502.205 72.5468 502.205 72.5468 503.334 72.5625C504.475 72.5749 504.475 72.5749 505.639 72.5876C517.516 72.9429 524.521 78.032 532.51 86.414C536.579 91.3745 539.204 97.3053 542.084 103C542.707 104.217 543.33 105.435 543.954 106.652C545.716 110.096 547.465 113.547 549.209 117C549.648 117.867 550.086 118.733 550.537 119.626C552.446 123.409 554.34 127.198 556.209 131C567.791 117.68 576.96 96.7005 576.209 79C575.631 74.8862 574.765 71.5474 571.764 68.5625C567.286 65.5629 562.451 65.08 557.209 66C548.779 69.8911 545.575 78.8772 542.209 87C541.219 87 540.229 87 539.209 87C536.859 82.0856 535.576 77.503 534.639 72.1367C534.298 69.9595 534.298 69.9595 533.209 68C533.917 58.9794 535.711 50.8936 542.584 44.6875C553.481 36.1009 567.137 35.4239 579.209 42Z" fill="white"/>
<path d="M599.86 37.4687C606.668 38.2883 613.515 38.1101 620.36 38.0751C622.903 38.0623 625.445 38.0558 627.988 38.051C633.374 38.0396 638.761 38.0204 644.147 38C650.415 37.9764 656.684 37.956 662.952 37.944C665.459 37.9375 667.966 37.925 670.474 37.9123C672.001 37.9087 673.529 37.9053 675.057 37.9023C675.755 37.8972 676.454 37.892 677.174 37.8867C681.982 37.8861 681.982 37.8861 684.209 39C685.4 42.8771 686.057 46.8969 686.834 50.875C687.064 51.9707 687.293 53.0664 687.53 54.1953C688.928 61.2196 689.517 67.8429 689.209 75C688.879 74.34 688.549 73.68 688.209 73C686.724 72.505 686.724 72.505 685.209 72C683.885 70.0312 683.885 70.0312 682.522 67.5C677.899 59.4854 672.416 52.0689 663.362 49.0508C652.347 46.5212 644.275 47 632.209 47C631.879 63.83 631.549 80.66 631.209 98C649.476 97.897 649.476 97.897 665.209 90C667.193 87.1297 668.77 84.1752 670.209 81C671.199 81 672.189 81 673.209 81C674.502 83.5856 674.306 85.4205 674.272 88.3125C674.264 89.3888 674.256 90.4652 674.248 91.5742C674.223 93.8268 674.197 96.0794 674.17 98.332C674.128 104.287 674.291 110.058 675.082 115.964C675.253 118.692 674.545 120.642 673.209 123C669.718 121.836 669.357 121.11 667.522 118.062C667.085 117.352 666.648 116.642 666.198 115.91C665.209 114 665.209 114 665.209 112C657.248 108.622 650.365 107.643 641.772 107.375C640.754 107.336 639.736 107.298 638.688 107.258C636.195 107.164 633.703 107.078 631.209 107C631.278 112.445 631.366 117.889 631.472 123.333C631.505 125.183 631.533 127.034 631.556 128.885C631.589 131.551 631.642 134.217 631.698 136.883C631.704 137.705 631.71 138.527 631.717 139.374C631.842 144.293 632.507 147.731 635.209 152C637.183 153.523 637.183 153.523 639.397 154.375C640.47 154.851 640.47 154.851 641.565 155.336C642.108 155.555 642.65 155.774 643.209 156C643.209 156.99 643.209 157.98 643.209 159C638.423 160.24 633.762 160.11 628.858 160.062C627.962 160.059 627.066 160.055 626.143 160.051C623.29 160.039 620.437 160.02 617.584 160C613.821 159.973 610.058 159.953 606.295 159.937C604.997 159.925 604.997 159.925 603.672 159.912C602.868 159.909 602.063 159.906 601.234 159.902C600.174 159.894 600.174 159.894 599.093 159.886C596.982 159.932 596.982 159.932 594.209 161C593.714 158.525 593.714 158.525 593.209 156C594.257 155.598 594.257 155.598 595.327 155.187C596.692 154.6 596.692 154.6 598.084 154C598.989 153.629 599.894 153.257 600.827 152.875C604.255 150.177 604.618 147.146 605.209 143C605.495 137.907 605.491 132.822 605.475 127.723C605.476 126.228 605.478 124.733 605.481 123.238C605.484 120.109 605.479 116.98 605.47 113.85C605.459 109.891 605.465 105.931 605.477 101.971C605.485 98.8814 605.482 95.7917 605.477 92.7019C605.476 91.2451 605.477 89.7882 605.482 88.3314C605.502 80.4058 605.201 72.6014 604.318 64.7204C604.24 64.0067 604.163 63.293 604.083 62.5576C603.643 58.992 603.071 56.0885 601.209 53C600.797 52.175 600.384 51.35 599.959 50.5C597.203 46.5625 593.725 44.5051 589.209 43C589.209 41.35 589.209 39.7 589.209 38C593.066 37.2615 595.931 36.9642 599.86 37.4687Z" fill="white"/>
<path d="M805.209 69C805.539 69.66 805.869 70.32 806.209 71C807.694 71.495 807.694 71.495 809.209 72C809.209 75.96 809.209 79.92 809.209 84C810.478 83.0777 810.478 83.0777 811.772 82.1367C822.064 74.7546 831.138 69.5901 844.334 71.4375C852.54 73.2428 858.291 75.8056 863.022 82.875C866.834 89.0935 867.559 95.7611 867.834 102.875C867.873 103.726 867.912 104.578 867.952 105.455C868.282 113.687 868.27 121.92 868.173 130.158C867.952 141.74 867.952 141.74 870.209 153C873.721 154.23 873.721 154.23 877.209 155C877.539 156.65 877.869 158.3 878.209 160C863.359 159.67 848.509 159.34 833.209 159C833.869 158.67 834.529 158.34 835.209 158C835.704 156.515 835.704 156.515 836.209 155C838.209 153.667 840.209 152.333 842.209 151C843.133 148.228 843.34 146.55 843.355 143.687C843.361 142.819 843.367 141.95 843.374 141.056C843.375 140.118 843.376 139.181 843.377 138.215C843.381 137.244 843.384 136.273 843.387 135.273C843.392 133.214 843.395 131.156 843.395 129.097C843.397 125.974 843.415 122.851 843.434 119.729C843.437 117.724 843.439 115.719 843.44 113.715C843.451 112.33 843.451 112.33 843.462 110.917C843.436 103.579 843.17 95.4135 839.209 89C834.321 86.2627 829.843 85.0627 824.209 86C818.417 87.8047 814.164 90.3035 810.209 95C808.956 97.5065 809.119 99.1345 809.172 101.937C809.189 102.965 809.205 103.993 809.223 105.052C809.247 106.167 809.271 107.281 809.295 108.43C809.327 110.143 809.327 110.143 809.36 111.89C809.406 114.309 809.455 116.729 809.506 119.148C809.584 122.852 809.651 126.557 809.717 130.262C809.763 132.609 809.81 134.957 809.858 137.305C809.878 138.415 809.897 139.526 809.918 140.67C809.941 141.704 809.964 142.739 809.988 143.804C810.016 145.167 810.016 145.167 810.044 146.558C810.201 148.881 810.376 150.824 811.209 153C814.126 154.25 814.126 154.25 817.209 155C818.199 155.495 818.199 155.495 819.209 156C818.714 157.98 818.714 157.98 818.209 160C804.349 160 790.489 160 776.209 160C775.879 159.01 775.549 158.02 775.209 157C776.209 155 776.209 155 779.147 153.562C782.427 152.204 782.427 152.204 784.209 149C784.527 146.462 784.527 146.462 784.5 143.582C784.513 142.474 784.525 141.366 784.539 140.225C784.541 139.028 784.543 137.831 784.545 136.598C784.552 135.368 784.559 134.139 784.565 132.873C784.576 130.271 784.58 127.669 784.58 125.068C784.58 121.082 784.621 117.097 784.659 113.111C784.664 110.586 784.668 108.061 784.67 105.535C784.685 104.34 784.699 103.145 784.714 101.914C784.708 100.803 784.702 99.692 784.695 98.5471C784.699 97.0818 784.699 97.0818 784.704 95.5868C784.067 92.2563 782.813 91.1047 780.209 89C777.577 87.7456 777.577 87.7456 775.209 87C775.339 85.1748 775.339 85.1748 776.209 83C778.77 81.5361 778.77 81.5361 782.143 80.2031C783.349 79.7197 784.555 79.2363 785.797 78.7383C787.08 78.2422 788.364 77.7461 789.647 77.25C790.927 76.7396 792.206 76.2279 793.485 75.7148C802.862 72 802.862 72 805.209 72C805.209 71.01 805.209 70.02 805.209 69Z" fill="white"/>
<path d="M350.209 73C350.215 73.9285 350.221 74.857 350.227 75.8136C350.285 84.5684 350.357 93.3228 350.445 102.077C350.49 106.578 350.529 111.079 350.556 115.579C350.582 119.924 350.622 124.268 350.673 128.612C350.689 130.268 350.701 131.925 350.707 133.582C350.717 135.904 350.745 138.225 350.777 140.548C350.776 141.231 350.774 141.914 350.773 142.618C350.857 146.896 351.6 149.595 354.209 153C355.862 154.023 357.527 155.026 359.209 156C359.539 156.99 359.869 157.98 360.209 159C358.229 159.99 358.229 159.99 356.209 161C355.879 160.67 355.549 160.34 355.209 160C353.61 159.913 352.007 159.893 350.405 159.902C349.429 159.906 348.453 159.909 347.448 159.912C346.42 159.92 345.393 159.929 344.334 159.938C343.315 159.942 342.295 159.947 341.245 159.951C339.348 159.96 337.451 159.971 335.554 159.984C332.105 160.007 328.658 160 325.209 160C325.209 156.7 325.209 153.4 325.209 150C323.539 151.33 323.539 151.33 321.834 152.688C312.448 159.736 303.906 162.852 292.209 162C285.755 160.827 280.724 158.935 276.209 154C272.22 147.42 270.13 141.544 270.02 133.83C270.003 132.826 269.986 131.821 269.969 130.786C269.956 129.712 269.942 128.638 269.928 127.531C269.9 125.862 269.9 125.862 269.872 124.158C269.794 119.403 269.726 114.648 269.657 109.892C269.605 106.418 269.548 102.943 269.491 99.4688C269.477 98.3947 269.463 97.3206 269.449 96.214C269.433 95.2094 269.416 94.2049 269.399 93.1699C269.386 92.2901 269.374 91.4103 269.361 90.5038C269.097 85.0235 269.097 85.0235 265.834 80.875C264.968 80.2562 264.102 79.6375 263.209 79C261.397 77.375 261.397 77.375 260.209 76C260.209 75.34 260.209 74.68 260.209 74C271.429 74 282.649 74 294.209 74C294.258 78.299 294.307 82.598 294.358 87.0273C294.402 90.4758 294.449 93.9242 294.497 97.3726C294.546 101.001 294.593 104.63 294.631 108.259C294.668 111.76 294.715 115.262 294.767 118.763C294.795 120.735 294.813 122.708 294.83 124.68C294.94 131.42 295.452 137.485 297.209 144C304.404 146.847 309.811 147.523 317.209 145C320.096 143.504 320.096 143.504 322.209 142C322.869 142 323.529 142 324.209 142C324.209 141.34 324.209 140.68 324.209 140C324.869 140 325.529 140 326.209 140C326.138 139.399 326.066 138.798 325.993 138.179C325.304 131.949 325.089 125.838 325.147 119.574C325.153 118.148 325.153 118.148 325.158 116.694C325.17 113.691 325.189 110.69 325.209 107.688C325.236 103.712 325.256 99.737 325.272 95.7617C325.28 94.8564 325.288 93.9512 325.297 93.0185C325.313 88.8767 325.269 85.0384 324.209 81C321.899 80.67 319.589 80.34 317.209 80C316.714 77.03 316.714 77.03 316.209 74C320.891 73.8574 325.572 73.715 330.254 73.5728C331.847 73.5243 333.441 73.4758 335.035 73.4272C337.321 73.3576 339.607 73.2882 341.893 73.2188C342.61 73.1969 343.326 73.175 344.065 73.1525C349.095 73 349.095 73 350.209 73Z" fill="white"/>
<path d="M750.018 79.4961C757.264 87.0313 758.801 97.1422 758.748 107.18C758.76 108.196 758.772 109.211 758.784 110.258C758.819 113.464 758.829 116.669 758.834 119.875C758.851 123.102 758.873 126.329 758.906 129.556C758.926 131.554 758.935 133.552 758.933 135.55C758.968 140.125 759.009 143.857 761.209 148C765.757 148.178 769.089 147.998 773.209 146C773.539 147.65 773.869 149.3 774.209 151C768.094 157.238 761.471 161.721 752.495 162.121C747.548 161.772 743.332 160.876 739.209 158C737.324 155.754 735.8 153.479 734.209 151C733.28 151.627 732.351 152.253 731.393 152.898C730.145 153.724 728.896 154.55 727.647 155.375C727.038 155.788 726.429 156.2 725.801 156.625C718.393 161.485 710.996 162.988 702.209 162C695.455 160.142 689.407 157.419 685.522 151.375C685.089 150.591 684.656 149.808 684.209 149C683.549 148.34 682.889 147.68 682.209 147C682.584 144.875 682.584 144.875 683.209 143C682.549 142.67 681.889 142.34 681.209 142C682.834 131.847 685.132 125.767 693.256 119.395C701.045 114.171 710.281 111.609 719.209 109C720.243 108.695 720.243 108.695 721.298 108.385C725.776 107.156 729.62 106.809 734.209 107C733.784 104.435 733.345 101.874 732.897 99.3125C732.72 98.2307 732.72 98.2307 732.539 97.127C731.78 92.8621 730.896 89.5206 728.209 86C721.536 82.2781 716.215 82.319 709.022 84.3125C704.033 85.7974 701.12 87.6335 698.209 92C697.219 92 696.229 92 695.209 92C694.941 92.5775 694.673 93.155 694.397 93.75C693.192 96.0326 691.801 97.9738 690.209 100C689.549 99.67 688.889 99.34 688.209 99C688.413 91.0083 690.459 85.6916 696.19 80.0508C710.507 67.9637 735.435 67.4326 750.018 79.4961ZM708.209 125C705.09 129.278 704.638 132.761 705.209 138C706.729 141.185 708.492 143.736 711.209 146C716.157 147.649 720.821 147.959 725.729 145.988C729.503 143.958 731.796 142.619 734.209 139C734.485 136.384 734.485 136.384 734.405 133.457C734.398 132.384 734.392 131.311 734.385 130.205C734.368 129.086 734.352 127.966 734.334 126.813C734.325 125.681 734.316 124.55 734.307 123.385C734.283 120.59 734.251 117.795 734.209 115C724.469 115 715.66 118.896 708.209 125Z" fill="white"/>
<path d="M210.209 37C210.869 37.33 211.529 37.66 212.209 38C214.209 38.04 216.21 38.0435 218.209 38C218.209 39.65 218.209 41.3 218.209 43C215.557 44.0753 212.926 45.0946 210.209 46C208.312 51.6797 207.924 56.9116 207.966 62.8594C207.965 63.706 207.963 64.5526 207.961 65.4249C207.957 68.2 207.968 70.9749 207.979 73.75C207.98 75.6924 207.981 77.6348 207.98 79.5771C207.982 83.6387 207.99 87.7002 208.004 91.7617C208.021 96.9532 208.024 102.145 208.024 107.336C208.024 111.344 208.029 115.352 208.037 119.36C208.04 121.274 208.042 123.188 208.042 125.101C208.045 127.781 208.053 130.461 208.064 133.141C208.064 133.922 208.063 134.704 208.063 135.509C208.091 140.419 208.517 145.138 209.209 150C222.091 150.408 235.292 150.729 245.709 141.875C251.004 135.786 254.7 129.666 257.209 122C259.189 122.495 259.189 122.495 261.209 123C260.788 132.376 260.239 141.725 259.272 151.062C259.197 151.842 259.123 152.621 259.046 153.423C258.841 155.292 258.535 157.149 258.209 159C255.092 160.559 251.784 160.13 248.363 160.114C247.553 160.114 246.743 160.114 245.909 160.114C243.225 160.113 240.542 160.105 237.858 160.098C236 160.096 234.142 160.094 232.284 160.093C227.388 160.09 222.492 160.08 217.596 160.069C212.603 160.058 207.609 160.054 202.616 160.049C192.814 160.038 183.011 160.021 173.209 160C173.526 157.598 173.526 157.598 174.209 155C176.184 153.95 178.185 152.95 180.209 152C181.95 149.279 182.46 147.161 182.463 143.96C182.469 143.165 182.475 142.37 182.48 141.551C182.476 140.688 182.472 139.825 182.468 138.936C182.472 138.02 182.475 137.104 182.479 136.161C182.488 133.132 182.482 130.103 182.475 127.074C182.476 124.967 182.478 122.859 182.481 120.752C182.484 116.333 182.479 111.914 182.47 107.494C182.459 101.839 182.465 96.1829 182.477 90.5271C182.484 86.1732 182.482 81.8195 182.477 77.4657C182.476 75.3809 182.477 73.2962 182.482 71.2115C182.487 68.2915 182.479 65.3718 182.468 62.4519C182.472 61.595 182.476 60.7382 182.48 59.8553C182.445 54.8647 181.931 50.7035 180.209 46C178.348 44.1514 178.348 44.1514 176.084 43.0625C175.36 42.6616 174.635 42.2607 173.889 41.8477C173.335 41.5679 172.78 41.2882 172.209 41C172.539 40.01 172.869 39.02 173.209 38C174.295 38.0052 175.38 38.0105 176.498 38.0159C180.511 38.0339 184.523 38.0454 188.535 38.0549C190.275 38.06 192.014 38.0668 193.753 38.0754C196.248 38.0875 198.742 38.0932 201.237 38.0977C202.41 38.1054 202.41 38.1054 203.607 38.1133C205.475 38.1135 207.343 38.062 209.209 38C209.539 37.67 209.869 37.34 210.209 37Z" fill="white"/>
<path d="M941.209 73C941.209 73.66 941.209 74.32 941.209 75C942.529 75.33 943.849 75.66 945.209 76C946.199 89.86 946.199 89.86 947.209 104C943.209 103 943.209 103 941.315 100.27C940.682 99.1287 940.049 97.9879 939.397 96.8125C934.788 88.9198 930.426 84.0117 921.471 81.4727C916.437 80.4206 912.053 80.3093 907.272 82.5C903.96 85.1673 903.96 85.1673 903.084 88.9375C902.942 92.7541 903.629 95.0753 906.209 98C908.78 99.3469 908.78 99.3469 911.209 100C911.209 100.66 911.209 101.32 911.209 102C912.814 102.438 914.418 102.875 916.022 103.313C921.751 104.875 927.48 106.438 933.209 108C933.209 108.66 933.209 109.32 933.209 110C934.23 110.093 934.23 110.093 935.272 110.188C942.318 112.137 946.263 116.736 949.987 122.734C952.831 128.004 953.823 133.065 953.209 139C950.49 147.392 946.021 153.66 938.209 158C935.362 159.133 932.499 160.174 929.6 161.168C927.235 161.934 927.235 161.934 925.209 163C923.33 163.022 923.33 163.022 921.077 162.879C920.271 162.831 919.465 162.782 918.635 162.732C917.793 162.676 916.952 162.62 916.084 162.563C915.235 162.51 914.385 162.458 913.51 162.404C911.41 162.275 909.309 162.138 907.209 162C907.209 162.66 907.209 163.32 907.209 164C904.209 163 904.209 163 902.389 162.059C899.768 160.786 897.112 159.942 894.334 159.063C890.061 157.668 886.135 156.181 882.209 154C882.374 153.2 882.539 152.399 882.709 151.574C883.31 147.28 883.28 143.139 883.209 138.813C883.184 137.215 883.163 135.617 883.147 134.02C883.135 133.319 883.124 132.619 883.112 131.898C883.209 130 883.209 130 884.209 127C888.325 128.372 888.796 130.384 890.897 134.125C895.638 142.197 901.03 148.2 910.209 151C916.503 152.11 922.238 152.681 928.209 150C930.677 147.848 931.951 146.316 932.588 143.07C932.801 139.429 932.595 137.63 930.643 134.438C927.676 131.466 924.67 130.291 920.772 129C919.334 128.491 917.897 127.982 916.459 127.473C915.386 127.102 915.386 127.102 914.291 126.723C891.85 118.929 891.85 118.929 889.065 113.957C888.783 113.311 888.5 112.665 888.209 112C887.714 111.423 887.219 110.845 886.709 110.25C882.9 104.536 882.816 98.2857 883.612 91.6758C885.031 85.3211 889.024 80.2958 894.096 76.3204C908.131 67.5517 925.722 70.6654 941.209 73Z" fill="white"/>
<path d="M486.209 25.9999C486.214 26.625 486.218 27.2501 486.222 27.8941C486.325 43.1005 486.434 58.3068 486.549 73.5131C486.604 80.8668 486.657 88.2204 486.707 95.5741C486.75 101.983 486.796 108.392 486.846 114.802C486.873 118.195 486.898 121.589 486.918 124.983C486.942 128.771 486.973 132.559 487.004 136.347C487.013 138.036 487.013 138.036 487.021 139.76C487.031 140.792 487.041 141.824 487.051 142.887C487.058 143.783 487.064 144.679 487.071 145.602C487.203 147.895 487.462 149.829 488.209 152C490.049 153.342 490.049 153.342 492.272 154.25C493.005 154.585 493.739 154.92 494.495 155.266C495.343 155.629 495.343 155.629 496.209 156C495.879 157.32 495.549 158.64 495.209 160C480.689 160 466.169 160 451.209 160C450.879 159.01 450.549 158.02 450.209 157C453.196 154.428 455.348 152.784 459.209 152C460.894 145.633 461.491 139.737 461.436 133.166C461.437 132.228 461.437 131.29 461.437 130.324C461.436 127.256 461.42 124.189 461.405 121.121C461.401 118.982 461.398 116.842 461.396 114.703C461.388 109.095 461.369 103.488 461.347 97.88C461.326 92.1485 461.317 86.417 461.307 80.6855C461.286 69.4569 461.252 58.2284 461.209 46.9999C460.549 46.9999 459.889 46.9999 459.209 46.9999C458.879 45.6799 458.549 44.3599 458.209 42.9999C456.229 42.6699 454.249 42.3399 452.209 41.9999C452.209 40.6799 452.209 39.3599 452.209 37.9999C457.431 35.6618 462.658 33.3363 467.892 31.0263C469.91 30.1323 471.924 29.2276 473.936 28.3202C474.975 27.8639 476.014 27.4076 477.084 26.9374C477.989 26.5339 478.894 26.1305 479.827 25.7148C482.488 24.9162 483.607 25.2342 486.209 25.9999Z" fill="white"/>
<path d="M438.209 72C438.704 72.99 438.704 72.99 439.209 74C443.499 74 447.789 74 452.209 74C452.209 74.99 452.209 75.98 452.209 77C450.477 77.8353 450.477 77.8353 448.709 78.6875C442.379 82.4054 440.073 89.385 437.197 95.813C436.216 97.9858 435.192 100.133 434.151 102.277C433.503 103.622 432.856 104.967 432.209 106.312C431.906 106.94 431.603 107.568 431.291 108.214C429.978 111.016 429.209 112.863 429.209 116C428.549 116 427.889 116 427.209 116C426.963 116.802 426.717 117.604 426.463 118.43C424.619 123.682 422.268 128.678 419.95 133.736C417.832 138.37 415.771 143.013 413.827 147.723C413.44 148.638 413.053 149.554 412.655 150.498C411.912 152.262 411.186 154.035 410.481 155.815C409.525 158.049 408.631 160.03 407.209 162C404.065 163.176 404.065 163.176 401.209 163C400.219 162.01 400.219 162.01 399.209 161C399.209 160.01 399.209 159.02 399.209 158C398.344 155.982 398.344 155.982 397.209 153.938C395.209 150.208 395.209 150.208 395.209 148C394.219 147.505 394.219 147.505 393.209 147C392.269 145.009 391.409 142.98 390.584 140.938C387.566 133.663 384.111 126.657 380.543 119.64C378.924 116.435 377.324 113.22 375.725 110.004C375.099 108.747 374.474 107.49 373.848 106.233C372.91 104.349 371.973 102.465 371.038 100.581C369.115 96.7099 367.173 92.8501 365.209 89C364.826 88.2382 364.443 87.4765 364.048 86.6917C362.18 83.1644 360.681 81.1134 356.959 79.5625C356.253 79.2544 355.547 78.9463 354.819 78.6289C354.288 78.4214 353.757 78.2138 353.209 78C353.209 76.68 353.209 75.36 353.209 74C356.012 73.1977 358.425 72.8954 361.335 72.9783C362.536 73.0084 362.536 73.0084 363.761 73.0392C364.615 73.0662 365.47 73.0932 366.35 73.1211C367.232 73.1447 368.114 73.1683 369.023 73.1926C371.835 73.2691 374.647 73.3532 377.459 73.4375C379.368 73.4907 381.277 73.5435 383.186 73.5957C387.861 73.7247 392.535 73.8605 397.209 74C396.004 76.6562 395.345 77.8981 392.959 79.6875C392.382 80.4506 391.804 81.2137 391.209 82C392.295 89.5851 395.249 95.9986 398.522 102.875C399.476 104.914 400.431 106.953 401.385 108.992C401.851 109.981 402.317 110.969 402.798 111.987C404.977 116.639 407.096 121.318 409.209 126C410.199 125.34 411.189 124.68 412.209 124C412.209 124.99 412.209 125.98 412.209 127C413.891 123.11 415.552 119.212 417.209 115.312C417.686 114.21 418.163 113.107 418.655 111.971C419.106 110.904 419.557 109.837 420.022 108.738C420.65 107.269 420.65 107.269 421.291 105.771C422.213 102.99 422.395 100.905 422.209 98C422.869 98 423.529 98 424.209 98C426.654 90.2761 426.654 90.2761 426.647 82.3125C425.427 79.8475 425.427 79.8475 423.084 79.125C422.466 79.0837 421.847 79.0425 421.209 79C420.714 76.525 420.714 76.525 420.209 74C422.033 73.9091 422.033 73.9091 423.893 73.8164C425.478 73.732 427.062 73.6474 428.647 73.5625C429.449 73.5232 430.252 73.4839 431.078 73.4434C434.962 73.5946 434.962 73.5946 438.209 72ZM410.209 129C411.209 131 411.209 131 411.209 131L410.209 129Z" fill="white"/>
<path d="M322.209 77C330.789 77 339.369 77 348.209 77C348.224 79.1549 348.239 81.3098 348.254 83.53C348.304 90.6548 348.371 97.7793 348.445 104.904C348.49 109.223 348.529 113.542 348.556 117.861C348.582 122.03 348.622 126.199 348.673 130.369C348.689 131.958 348.701 133.548 348.707 135.137C348.717 137.366 348.745 139.594 348.777 141.823C348.788 143.091 348.799 144.359 348.811 145.665C349.36 150.256 350.858 152.881 354.397 155.812C354.995 156.204 355.593 156.596 356.209 157C355.377 156.984 354.544 156.969 353.687 156.952C350.595 156.901 347.503 156.864 344.411 156.835C342.416 156.813 340.421 156.775 338.426 156.736C337.173 156.727 335.919 156.717 334.627 156.707C333.47 156.691 332.313 156.676 331.12 156.659C327.852 156.737 327.852 156.737 325.209 160C325.209 155.71 325.209 151.42 325.209 147C324.549 147 323.889 147 323.209 147C323.209 146.01 323.209 145.02 323.209 144C323.869 144 324.529 144 325.209 144C325.209 143.34 325.209 142.68 325.209 142C325.869 142 326.529 142 327.209 142C327.256 134.672 327.291 127.344 327.313 120.015C327.323 116.612 327.338 113.209 327.36 109.806C327.386 105.889 327.396 101.972 327.405 98.0547C327.415 96.8389 327.425 95.623 327.436 94.3703C327.436 92.6592 327.436 92.6592 327.436 90.9136C327.441 89.9143 327.445 88.915 327.45 87.8855C327.177 84.6167 326.52 82.0074 325.209 79C324.219 78.67 323.229 78.34 322.209 78C322.209 77.67 322.209 77.34 322.209 77Z" fill="white"/>
<path d="M599.86 37.4687C606.668 38.2883 613.515 38.1101 620.36 38.0751C622.903 38.0623 625.445 38.0558 627.988 38.051C633.374 38.0396 638.761 38.0204 644.147 38C650.415 37.9764 656.684 37.956 662.952 37.944C665.459 37.9375 667.966 37.925 670.474 37.9123C672.001 37.9087 673.529 37.9053 675.057 37.9023C675.755 37.8972 676.454 37.892 677.174 37.8867C681.982 37.8861 681.982 37.8861 684.209 39C685.4 42.8771 686.057 46.8969 686.834 50.875C687.064 51.9707 687.293 53.0664 687.53 54.1953C688.928 61.2196 689.517 67.8429 689.209 75C688.879 74.34 688.549 73.68 688.209 73C686.724 72.505 686.724 72.505 685.209 72C683.885 70.0312 683.885 70.0312 682.522 67.5C677.931 59.541 672.45 52.0537 663.432 49.0859C652.005 46.5152 642.495 46.5584 630.209 46C630.209 63.49 630.209 80.98 630.209 99C629.879 99 629.549 99 629.209 99C629.184 91.3279 629.167 83.6558 629.154 75.9836C629.149 73.3713 629.143 70.759 629.134 68.1467C629.122 64.4012 629.116 60.6557 629.112 56.9101C629.107 55.7341 629.101 54.5581 629.096 53.3464C629.096 52.2654 629.096 51.1843 629.096 50.0705C629.094 49.1135 629.091 48.1564 629.089 47.1703C629.209 45 629.209 45 630.209 44C631.769 43.8431 633.335 43.7492 634.901 43.6836C635.845 43.6417 636.789 43.5998 637.762 43.5566C638.755 43.5173 639.749 43.478 640.772 43.4375C641.769 43.3943 642.766 43.3511 643.793 43.3066C646.265 43.2002 648.737 43.0982 651.209 43C651.209 42.67 651.209 42.34 651.209 42C632.729 42 614.249 42 595.209 42C597.519 43.98 599.829 45.96 602.209 48C604.272 50.625 604.272 50.625 605.209 53C604.397 55.3125 604.397 55.3125 603.209 57C602.941 56.4431 602.673 55.8862 602.397 55.3125C602.005 54.5494 601.613 53.7862 601.209 53C600.797 52.175 600.384 51.35 599.959 50.5C597.203 46.5625 593.725 44.5051 589.209 43C589.209 41.35 589.209 39.7 589.209 38C593.066 37.2615 595.931 36.9642 599.86 37.4687Z" fill="white"/>
<path d="M350.209 73C350.215 73.9285 350.221 74.857 350.227 75.8136C350.285 84.5684 350.357 93.3228 350.445 102.077C350.49 106.578 350.529 111.079 350.556 115.579C350.582 119.924 350.622 124.268 350.673 128.612C350.689 130.268 350.701 131.925 350.707 133.582C350.717 135.904 350.745 138.225 350.777 140.548C350.776 141.231 350.774 141.914 350.773 142.618C350.857 146.896 351.6 149.595 354.209 153C355.862 154.023 357.527 155.026 359.209 156C359.539 156.99 359.869 157.98 360.209 159C358.229 159.99 358.229 159.99 356.209 161C355.879 160.67 355.549 160.34 355.209 160C353.61 159.913 352.007 159.893 350.405 159.902C349.429 159.906 348.453 159.909 347.448 159.912C346.42 159.92 345.393 159.929 344.334 159.938C343.315 159.942 342.295 159.947 341.245 159.951C339.348 159.96 337.451 159.971 335.554 159.984C332.429 160.005 330.214 160.002 327.209 159C327.209 155.37 327.209 151.74 327.209 148C327.539 148 327.869 148 328.209 148C328.209 150.97 328.209 153.94 328.209 157C336.789 156.67 345.369 156.34 354.209 156C352.559 154.35 350.909 152.7 349.209 151C347.738 148.058 348.09 145.448 348.096 142.164C348.096 141.461 348.096 140.758 348.095 140.035C348.096 137.708 348.104 135.381 348.112 133.055C348.114 131.443 348.115 129.832 348.116 128.22C348.12 123.976 348.13 119.731 348.141 115.486C348.151 111.156 348.155 106.826 348.161 102.496C348.171 93.9974 348.189 85.4987 348.209 77C335.834 77.495 335.834 77.495 323.209 78C324.529 79.32 325.849 80.64 327.209 82C328.231 85.0642 328.336 87.1494 328.339 90.3577C328.342 91.4521 328.345 92.5466 328.348 93.6742C328.345 95.4462 328.345 95.4462 328.342 97.2539C328.343 98.4657 328.344 99.6775 328.345 100.926C328.346 103.489 328.344 106.052 328.34 108.615C328.334 112.55 328.34 116.485 328.346 120.42C328.345 122.906 328.344 125.393 328.342 127.879C328.344 129.062 328.346 130.246 328.348 131.465C328.344 133.102 328.344 133.102 328.339 134.772C328.338 135.735 328.337 136.699 328.336 137.692C328.209 140 328.209 140 327.209 142C326.549 142 325.889 142 325.209 142C325.209 142.66 325.209 143.32 325.209 144C324.549 144 323.889 144 323.209 144C323.209 144.99 323.209 145.98 323.209 147C324.694 146.505 324.694 146.505 326.209 146C324.775 149.359 323.016 151.359 320.272 153.75C319.582 154.364 318.893 154.977 318.182 155.609C316.209 157 316.209 157 313.209 157C313.209 156.34 313.209 155.68 313.209 155C314.179 154.381 315.148 153.762 316.147 153.125C319.315 151.35 319.315 151.35 320.084 148.75C320.126 148.173 320.167 147.595 320.209 147C319.527 147.321 318.846 147.642 318.143 147.973C312.381 149.99 304.824 150.418 299.069 148.16C295.057 145.151 293.339 140.72 292.209 136C291.813 131.36 291.86 126.748 291.916 122.094C291.922 120.76 291.926 119.426 291.929 118.092C291.941 114.607 291.97 111.122 292.003 107.637C292.034 104.071 292.048 100.504 292.063 96.9375C292.093 89.958 292.152 82.9795 292.209 76C281.649 76 271.089 76 260.209 76C260.209 75.34 260.209 74.68 260.209 74C271.429 74 282.649 74 294.209 74C294.258 78.299 294.307 82.598 294.358 87.0273C294.402 90.4758 294.449 93.9242 294.497 97.3726C294.546 101.001 294.593 104.63 294.631 108.259C294.668 111.76 294.715 115.262 294.767 118.763C294.795 120.735 294.813 122.708 294.83 124.68C294.94 131.42 295.452 137.485 297.209 144C304.404 146.847 309.811 147.523 317.209 145C320.096 143.504 320.096 143.504 322.209 142C322.869 142 323.529 142 324.209 142C324.209 141.34 324.209 140.68 324.209 140C324.869 140 325.529 140 326.209 140C326.138 139.399 326.066 138.798 325.993 138.179C325.304 131.949 325.089 125.838 325.147 119.574C325.153 118.148 325.153 118.148 325.158 116.694C325.17 113.691 325.189 110.69 325.209 107.688C325.236 103.712 325.256 99.737 325.272 95.7617C325.28 94.8564 325.288 93.9512 325.297 93.0185C325.313 88.8767 325.269 85.0384 324.209 81C321.899 80.67 319.589 80.34 317.209 80C316.714 77.03 316.714 77.03 316.209 74C320.891 73.8574 325.572 73.715 330.254 73.5728C331.847 73.5243 333.441 73.4758 335.035 73.4272C337.321 73.3576 339.607 73.2882 341.893 73.2188C342.61 73.1969 343.326 73.175 344.065 73.1525C349.095 73 349.095 73 350.209 73Z" fill="white"/>
<path d="M210.209 37C210.869 37.33 211.529 37.66 212.209 38C214.209 38.04 216.21 38.0435 218.209 38C218.209 39.65 218.209 41.3 218.209 43C215.899 43 213.589 43 211.209 43C211.209 42.67 211.209 42.34 211.209 42C200.979 42 190.749 42 180.209 42C181.529 43.65 182.849 45.3 184.209 47C185.201 49.7454 185.338 52.2624 185.35 55.1678C185.358 56.4021 185.358 56.4021 185.367 57.6613C185.368 58.5555 185.369 59.4496 185.37 60.3708C185.375 61.3193 185.38 62.2677 185.386 63.2448C185.4 66.3807 185.407 69.5165 185.412 72.6523C185.418 74.8318 185.424 77.0113 185.43 79.1908C185.44 83.7596 185.446 88.3284 185.45 92.8972C185.455 98.7528 185.479 104.608 185.508 110.464C185.526 114.965 185.531 119.466 185.533 123.968C185.536 126.127 185.544 128.285 185.557 130.444C185.574 133.463 185.572 136.481 185.566 139.5C185.575 140.392 185.584 141.284 185.594 142.203C185.553 148.204 184.565 151.644 180.209 156C205.289 156.33 230.369 156.66 256.209 157C256.209 154.03 256.209 151.06 256.209 148C256.374 146.886 256.539 145.772 256.709 144.625C257.386 139.717 257.271 134.954 257.209 130C255.229 133.63 253.249 137.26 251.209 141C250.549 141 249.889 141 249.209 141C249.003 141.577 248.797 142.155 248.584 142.75C246.672 145.879 244.39 147.247 241.209 149C239.724 148.505 239.724 148.505 238.209 148C238.706 147.683 239.202 147.366 239.713 147.039C248.834 140.774 253.673 132.324 257.209 122C259.189 122.495 259.189 122.495 261.209 123C260.788 132.376 260.239 141.725 259.272 151.062C259.197 151.842 259.123 152.621 259.046 153.423C258.841 155.292 258.535 157.149 258.209 159C255.092 160.559 251.784 160.13 248.363 160.114C247.553 160.114 246.743 160.114 245.909 160.114C243.225 160.113 240.542 160.105 237.858 160.098C236 160.096 234.142 160.094 232.284 160.093C227.388 160.09 222.492 160.08 217.596 160.069C212.603 160.058 207.609 160.054 202.616 160.049C192.814 160.038 183.011 160.021 173.209 160C173.526 157.598 173.526 157.598 174.209 155C176.184 153.95 178.185 152.95 180.209 152C181.95 149.279 182.46 147.161 182.463 143.96C182.469 143.165 182.475 142.37 182.48 141.551C182.476 140.688 182.472 139.825 182.468 138.936C182.472 138.02 182.475 137.104 182.479 136.161C182.488 133.132 182.482 130.103 182.475 127.074C182.476 124.967 182.478 122.859 182.481 120.752C182.484 116.333 182.479 111.914 182.47 107.494C182.459 101.839 182.465 96.1829 182.477 90.5271C182.484 86.1732 182.482 81.8195 182.477 77.4657C182.476 75.3809 182.477 73.2962 182.482 71.2115C182.487 68.2915 182.479 65.3718 182.468 62.4519C182.472 61.595 182.476 60.7382 182.48 59.8553C182.445 54.8647 181.931 50.7035 180.209 46C178.348 44.1514 178.348 44.1514 176.084 43.0625C175.36 42.6616 174.635 42.2607 173.889 41.8477C173.335 41.5679 172.78 41.2882 172.209 41C172.539 40.01 172.869 39.02 173.209 38C174.295 38.0052 175.38 38.0105 176.498 38.0159C180.511 38.0339 184.523 38.0454 188.535 38.0549C190.275 38.06 192.014 38.0668 193.753 38.0754C196.248 38.0875 198.742 38.0932 201.237 38.0977C202.41 38.1054 202.41 38.1054 203.607 38.1133C205.475 38.1135 207.343 38.062 209.209 38C209.539 37.67 209.869 37.34 210.209 37Z" fill="white"/>
<path d="M670.209 81C671.199 81 672.189 81 673.209 81C674.502 83.5856 674.306 85.4205 674.272 88.3125C674.264 89.3889 674.256 90.4652 674.248 91.5742C674.223 93.8268 674.197 96.0794 674.17 98.332C674.128 104.287 674.291 110.058 675.082 115.964C675.253 118.692 674.545 120.642 673.209 123C669.718 121.836 669.357 121.11 667.522 118.062C667.085 117.352 666.648 116.642 666.198 115.91C665.209 114 665.209 114 665.209 112C663.554 111.306 661.883 110.649 660.209 110C659.584 109.753 658.958 109.506 658.313 109.252C652.38 107.075 646.937 106.474 640.647 106.312C639.277 106.261 639.277 106.261 637.879 106.209C635.656 106.128 633.433 106.058 631.209 106C631.209 105.67 631.209 105.34 631.209 105C633.189 105 635.169 105 637.209 105C636.879 104.01 636.549 103.02 636.209 102C634.559 101.67 632.909 101.34 631.209 101C631.209 100.34 631.209 99.68 631.209 99C632.516 98.9439 632.516 98.9439 633.85 98.8867C650.754 98.0215 650.754 98.0215 665.209 90C667.185 87.1253 668.771 84.1746 670.209 81Z" fill="white"/>
<path d="M260.209 74C271.429 74 282.649 74 294.209 74C294.258 78.299 294.307 82.598 294.358 87.0273C294.402 90.4758 294.449 93.9242 294.497 97.3726C294.546 101.001 294.593 104.63 294.631 108.259C294.668 111.76 294.715 115.262 294.767 118.763C294.795 120.735 294.813 122.708 294.83 124.68C294.94 131.42 295.452 137.485 297.209 144C304.404 146.847 309.811 147.523 317.209 145C320.096 143.504 320.096 143.504 322.209 142C322.869 142 323.529 142 324.209 142C324.209 141.34 324.209 140.68 324.209 140C324.869 140 325.529 140 326.209 140C326.136 139.399 326.062 138.797 325.986 138.178C325.285 131.942 325.14 125.884 325.33 119.617C325.366 118.207 325.366 118.207 325.402 116.768C325.478 113.803 325.562 110.839 325.647 107.875C325.7 105.849 325.753 103.823 325.805 101.797C325.933 96.8644 326.069 91.9322 326.209 87C326.539 87 326.869 87 327.209 87C327.209 105.15 327.209 123.3 327.209 142C326.549 142 325.889 142 325.209 142C325.209 142.66 325.209 143.32 325.209 144C324.549 144 323.889 144 323.209 144C323.209 144.99 323.209 145.98 323.209 147C324.694 146.505 324.694 146.505 326.209 146C324.775 149.359 323.016 151.359 320.272 153.75C319.582 154.364 318.893 154.977 318.182 155.609C316.209 157 316.209 157 313.209 157C313.209 156.34 313.209 155.68 313.209 155C314.179 154.381 315.148 153.762 316.147 153.125C319.315 151.35 319.315 151.35 320.084 148.75C320.126 148.173 320.167 147.595 320.209 147C319.527 147.321 318.846 147.642 318.143 147.973C312.381 149.99 304.824 150.418 299.069 148.16C295.057 145.151 293.339 140.72 292.209 136C291.813 131.36 291.86 126.748 291.916 122.094C291.922 120.76 291.926 119.426 291.929 118.092C291.941 114.607 291.97 111.122 292.003 107.637C292.034 104.071 292.048 100.504 292.063 96.9375C292.093 89.958 292.152 82.9795 292.209 76C281.649 76 271.089 76 260.209 76C260.209 75.34 260.209 74.68 260.209 74Z" fill="white"/>
<path d="M360.314 72.9783C361.134 72.9984 361.955 73.0185 362.8 73.0392C364.122 73.0798 364.122 73.0798 365.471 73.1211C366.377 73.1447 367.283 73.1683 368.216 73.1927C371.11 73.2693 374.003 73.3533 376.897 73.4375C378.858 73.4908 380.82 73.5435 382.782 73.5957C387.591 73.7249 392.4 73.8607 397.209 74C396.004 76.6562 395.345 77.8981 392.959 79.6875C392.382 80.4507 391.804 81.2138 391.209 82C392.295 89.5851 395.249 95.9986 398.522 102.875C399.476 104.914 400.431 106.953 401.385 108.992C401.851 109.981 402.317 110.969 402.798 111.987C404.977 116.639 407.096 121.318 409.209 126C410.199 125.34 411.189 124.68 412.209 124C411.549 126.64 410.889 129.28 410.209 132C407.844 129.859 406.581 127.994 405.366 125.055C403.821 121.425 402.221 117.833 400.553 114.258C400.088 113.254 399.622 112.249 399.143 111.215C398.19 109.161 397.234 107.109 396.276 105.059C394.014 100.165 391.812 95.2456 389.803 90.2422C389.303 89.0141 389.303 89.0141 388.793 87.7613C388.209 85 388.209 85 389.209 77C379.309 77 369.409 77 359.209 77C361.684 78.98 361.684 78.98 364.209 81C365.683 83.3726 366.972 85.6392 368.209 88.125C368.55 88.7879 368.89 89.4508 369.241 90.1338C369.921 91.4639 370.597 92.7966 371.268 94.1319C372.107 95.7968 372.969 97.4501 373.834 99.1016C377.209 105.602 377.209 105.602 377.209 109C376.549 109 375.889 109 375.209 109C374.902 108.329 374.595 107.659 374.279 106.968C372.871 103.911 371.447 100.862 370.022 97.8125C369.539 96.7574 369.056 95.7023 368.559 94.6153C364.712 86.4305 361.709 81.7558 353.209 78C353.209 76.68 353.209 75.36 353.209 74C355.989 73.0736 357.467 72.8995 360.314 72.9783Z" fill="white"/>
<path d="M852.561 73.7501C858.612 76.3667 862.515 80.8978 865.019 86.9595C866.975 92.3492 867.732 97.2916 867.897 103C867.931 103.842 867.965 104.685 868 105.553C868.292 113.751 868.269 121.956 868.173 130.158C867.951 141.74 867.951 141.74 870.209 153C873.721 154.23 873.721 154.23 877.209 155C877.539 156.65 877.869 158.3 878.209 160C864.349 159.67 850.489 159.34 836.209 159C836.209 158.34 836.209 157.68 836.209 157C853.534 156.505 853.534 156.505 871.209 156C869.889 154.68 868.569 153.36 867.209 152C864.825 146.066 864.899 140.247 864.866 133.914C864.851 132.858 864.836 131.801 864.821 130.713C864.775 127.35 864.741 123.988 864.709 120.625C864.668 116.2 864.614 111.776 864.553 107.352C864.548 106.348 864.543 105.345 864.537 104.311C864.42 95.9834 863.781 88.5673 858.916 81.6055C853.867 76.8569 848.42 75.2841 841.772 74.2501C841.04 74.125 840.309 74 839.555 73.8712C837.775 73.5687 835.993 73.2826 834.209 73.0001C839.844 69.4312 846.586 71.8443 852.561 73.7501Z" fill="white"/>
<path d="M257.209 122C258.529 122.33 259.849 122.66 261.209 123C260.788 132.376 260.239 141.725 259.272 151.062C259.197 151.842 259.123 152.621 259.046 153.423C258.841 155.292 258.535 157.149 258.209 159C255.092 160.559 251.784 160.13 248.363 160.114C247.553 160.114 246.743 160.114 245.909 160.114C243.225 160.113 240.542 160.105 237.858 160.098C236 160.096 234.142 160.094 232.284 160.093C227.388 160.09 222.492 160.08 217.596 160.069C212.603 160.058 207.609 160.054 202.616 160.049C192.814 160.038 183.011 160.021 173.209 160C173.209 159.01 173.209 158.02 173.209 157C200.599 157 227.989 157 256.209 157C256.209 154.03 256.209 151.06 256.209 148C256.374 146.886 256.539 145.772 256.709 144.625C257.386 139.717 257.271 134.954 257.209 130C255.229 133.63 253.249 137.26 251.209 141C250.549 141 249.889 141 249.209 141C249.003 141.577 248.797 142.155 248.584 142.75C246.672 145.879 244.39 147.247 241.209 149C239.724 148.505 239.724 148.505 238.209 148C238.706 147.683 239.202 147.366 239.713 147.039C248.834 140.774 253.673 132.324 257.209 122Z" fill="white"/>
<path d="M599.86 37.4687C606.668 38.2883 613.515 38.1101 620.36 38.0751C622.903 38.0623 625.445 38.0558 627.988 38.051C633.374 38.0396 638.761 38.0204 644.147 38C650.415 37.9764 656.684 37.956 662.952 37.944C665.459 37.9375 667.966 37.925 670.474 37.9123C672.001 37.9087 673.529 37.9053 675.057 37.9023C675.755 37.8972 676.454 37.892 677.174 37.8867C681.982 37.8861 681.982 37.8861 684.209 39C684.209 41.64 684.209 44.28 684.209 47C683.879 47 683.549 47 683.209 47C682.714 44.525 682.714 44.525 682.209 42C653.499 42 624.789 42 595.209 42C597.519 43.98 599.829 45.96 602.209 48C604.272 50.625 604.272 50.625 605.209 53C604.397 55.3125 604.397 55.3125 603.209 57C602.941 56.4431 602.673 55.8862 602.397 55.3125C602.005 54.5494 601.613 53.7862 601.209 53C600.797 52.175 600.384 51.35 599.959 50.5C597.203 46.5625 593.725 44.5051 589.209 43C589.209 41.35 589.209 39.7 589.209 38C593.066 37.2615 595.931 36.9642 599.86 37.4687Z" fill="white"/>
<path d="M485.209 25C485.209 65.92 485.209 106.84 485.209 149C483.209 147 483.209 147 482.963 144.911C482.966 143.609 482.966 143.609 482.969 142.28C482.966 141.284 482.963 140.289 482.961 139.263C482.968 138.167 482.975 137.07 482.982 135.941C482.982 134.79 482.982 133.638 482.981 132.452C482.983 128.632 482.998 124.812 483.014 120.992C483.018 118.349 483.021 115.707 483.023 113.064C483.029 106.81 483.045 100.555 483.065 94.3008C483.088 87.1812 483.099 80.0616 483.109 72.942C483.13 58.2946 483.165 43.6473 483.209 29C481.889 28.67 480.569 28.34 479.209 28C481.834 25 481.834 25 485.209 25Z" fill="white"/>
<path d="M462.209 48C464.846 51.9546 464.497 55.3601 464.484 59.9502C464.489 60.866 464.494 61.7818 464.499 62.7253C464.513 65.7596 464.512 68.7938 464.51 71.8281C464.514 73.937 464.518 76.0459 464.523 78.1547C464.531 82.5799 464.53 87.005 464.525 91.4302C464.519 97.094 464.536 102.757 464.559 108.421C464.574 112.779 464.575 117.137 464.572 121.495C464.572 123.583 464.578 125.67 464.588 127.758C464.6 130.683 464.593 133.607 464.582 136.532C464.589 137.391 464.597 138.249 464.605 139.134C464.552 145.219 463.656 150.191 459.522 154.938C459.089 155.288 458.656 155.639 458.209 156C457.219 155.67 456.229 155.34 455.209 155C455.869 155 456.529 155 457.209 155C457.209 154.34 457.209 153.68 457.209 153C457.69 152.589 458.171 152.179 458.667 151.756C463.919 145.778 461.327 128.764 461.285 120.812C461.271 118.362 461.265 115.913 461.26 113.464C461.249 108.268 461.23 103.071 461.209 97.875C461.186 91.8364 461.165 85.7978 461.153 79.7592C461.147 77.3687 461.135 74.9783 461.122 72.5879C461.094 64.3467 461.328 56.2033 462.209 48Z" fill="white"/>
<path d="M270.209 82C272.041 85.1382 272.463 87.4365 272.481 91.053C272.491 92.0583 272.501 93.0635 272.511 94.0993C272.514 95.1815 272.516 96.2638 272.518 97.3789C272.543 99.6855 272.568 101.992 272.594 104.299C272.623 107.924 272.647 111.548 272.666 115.173C272.687 118.679 272.727 122.185 272.768 125.691C272.768 126.76 272.768 127.828 272.768 128.928C272.872 136.944 273.484 145.857 278.459 152.5C284.433 157.931 290.391 158.481 298.147 158.688C299.459 158.739 299.459 158.739 300.797 158.791C302.934 158.873 305.072 158.938 307.209 159C307.209 159.66 307.209 160.32 307.209 161C298.886 163.4 290.093 162.415 282.209 159C275.956 155.107 272.373 148.815 270.655 141.706C270.18 138.819 270.089 136.125 270.096 133.2C270.096 132.059 270.096 130.918 270.096 129.743C270.101 128.522 270.106 127.301 270.112 126.043C270.113 124.785 270.114 123.527 270.116 122.231C270.121 118.898 270.13 115.566 270.141 112.234C270.151 108.828 270.155 105.423 270.16 102.018C270.171 95.345 270.188 88.6725 270.209 82Z" fill="white"/>
<path d="M207.209 46C207.539 46 207.869 46 208.209 46C208.233 58.231 208.25 70.462 208.261 82.6931C208.266 88.3729 208.273 94.0528 208.285 99.7327C208.296 105.218 208.302 110.703 208.304 116.189C208.306 118.277 208.31 120.366 208.315 122.455C208.322 125.389 208.323 128.323 208.323 131.258C208.327 132.114 208.33 132.969 208.334 133.851C208.325 139.308 207.895 144.586 207.209 150C206.549 149.67 205.889 149.34 205.209 149C205.163 136.161 205.128 123.322 205.106 110.483C205.095 104.522 205.081 98.5605 205.059 92.5991C205.037 86.8479 205.025 81.0968 205.02 75.3455C205.016 73.1494 205.009 70.9534 204.998 68.7573C204.983 65.6855 204.981 62.6139 204.982 59.542C204.975 58.6307 204.968 57.7193 204.961 56.7803C204.963 55.9418 204.966 55.1033 204.969 54.2394C204.967 53.5131 204.965 52.7867 204.963 52.0383C205.248 49.6814 206.044 48.0522 207.209 46Z" fill="white"/>
<path d="M925.209 71C925.704 71.99 925.704 71.99 926.209 73C924.668 73.0561 924.668 73.0561 923.096 73.1133C912.216 73.5937 902.21 74.3069 893.209 81C892.549 81 891.889 81 891.209 81C887.096 88.3451 885.733 96.8422 887.709 105.086C890.255 111.71 895.441 115.378 901.209 119C898.209 120 898.209 120 896.237 119.363C895.202 118.843 895.202 118.843 894.147 118.313C893.455 117.979 892.762 117.645 892.049 117.301C889.873 115.762 889.252 114.418 888.209 112C887.714 111.423 887.219 110.845 886.709 110.25C882.9 104.536 882.816 98.2857 883.612 91.6758C885.031 85.3211 889.024 80.2958 894.096 76.3204C903.846 70.2288 914.16 70.5287 925.209 71Z" fill="white"/>
<path d="M884.209 127C888.325 128.372 888.796 130.384 890.897 134.125C895.638 142.197 901.03 148.2 910.209 151C917.053 152.146 923.366 152.01 930.209 151C925.725 154.82 921.348 155.397 915.506 155.266C905.811 154.144 898.551 149.229 892.209 142C890.451 139.386 888.807 136.715 887.209 134C887.18 137.125 887.163 140.25 887.147 143.375C887.138 144.264 887.13 145.154 887.121 146.07C887.118 146.921 887.115 147.772 887.112 148.648C887.106 149.434 887.101 150.219 887.096 151.029C887.084 153.078 887.084 153.078 888.209 155C886.229 154.67 884.249 154.34 882.209 154C882.374 153.199 882.539 152.399 882.709 151.574C883.31 147.28 883.28 143.139 883.209 138.812C883.184 137.215 883.163 135.617 883.147 134.02C883.135 133.319 883.124 132.619 883.112 131.898C883.209 130 883.209 130 884.209 127Z" fill="white"/>
<path d="M629.209 106C629.539 106 629.869 106 630.209 106C630.223 107.717 630.223 107.717 630.238 109.469C630.278 113.739 630.344 118.008 630.417 122.278C630.445 124.122 630.466 125.966 630.48 127.809C630.502 130.469 630.549 133.126 630.6 135.785C630.601 136.602 630.602 137.419 630.604 138.261C630.747 143.942 631.958 147.313 635.209 152C637.25 153.613 637.25 153.613 639.459 154.438C640.166 154.746 640.872 155.054 641.6 155.371C642.131 155.579 642.662 155.786 643.209 156C643.209 156.99 643.209 157.98 643.209 159C638.254 160.337 633.394 160.029 628.315 159.879C627.367 159.855 626.42 159.832 625.444 159.807C622.428 159.731 619.413 159.647 616.397 159.562C614.348 159.509 612.299 159.457 610.25 159.404C605.237 159.275 600.223 159.14 595.209 159C595.209 158.34 595.209 157.68 595.209 157C608.739 156.67 622.269 156.34 636.209 156C634.559 154.35 632.909 152.7 631.209 151C629.149 147.909 628.961 147.291 628.982 143.804C628.982 142.963 628.983 142.123 628.983 141.257C628.993 140.353 629.003 139.45 629.014 138.52C629.017 137.592 629.02 136.664 629.023 135.707C629.034 132.742 629.059 129.778 629.084 126.812C629.094 124.803 629.104 122.793 629.112 120.783C629.134 115.855 629.168 110.928 629.209 106Z" fill="white"/>
<path d="M820.209 83.0001C834.176 82.3113 834.176 82.3113 837.834 84.7501C838.618 85.4926 839.402 86.2351 840.209 87.0001C840.952 87.5982 841.694 88.1963 842.459 88.8126C847.18 94.7138 846.503 102.381 846.475 109.551C846.477 110.646 846.479 111.741 846.481 112.87C846.482 115.173 846.478 117.477 846.47 119.781C846.459 123.318 846.47 126.855 846.483 130.393C846.481 132.633 846.479 134.873 846.475 137.113C846.479 138.175 846.483 139.236 846.487 140.33C846.481 141.308 846.475 142.286 846.468 143.294C846.466 144.588 846.466 144.588 846.463 145.908C846.209 148 846.209 148 844.209 150C843.58 142.285 843.117 134.628 843.182 126.887C843.188 126.213 843.193 125.539 843.199 124.845C843.226 122.098 843.261 119.35 843.305 116.602C843.801 102.29 843.801 102.29 839.209 89.0001C833.217 85.4827 827.045 85.3256 820.209 85.0001C820.209 84.3401 820.209 83.6801 820.209 83.0001Z" fill="white"/>
<path d="M942.209 76C943.199 76 944.189 76 945.209 76C946.199 89.86 946.199 89.86 947.209 104C943.209 103 943.209 103 941.315 100.27C940.682 99.1287 940.049 97.9879 939.397 96.8125C934.777 88.9017 930.423 84.048 921.475 81.4609C915.969 80.3407 910.699 80.9022 905.209 82C908.271 78.7988 909.544 78.0528 914.147 77.6875C924.082 77.8472 931.367 82.125 938.209 89C939.014 89.7013 939.818 90.4025 940.647 91.125C942.209 93 942.209 93 943.209 98C942.879 90.74 942.549 83.48 942.209 76Z" fill="white"/>
<path d="M438.209 72C438.539 72.66 438.869 73.32 439.209 74C443.499 74 447.789 74 452.209 74C452.209 74.99 452.209 75.98 452.209 77C450.635 78.0352 450.635 78.0352 448.522 79.0625C443.844 81.7486 442.319 85.0003 440.315 89.8906C439.209 92 439.209 92 436.209 93C438.016 86.6781 441.296 82.2172 445.209 77C438.939 76.67 432.669 76.34 426.209 76C427.529 78.64 428.849 81.28 430.209 84C430.452 86.7148 430.452 86.7148 430.084 88.9375C429.979 89.689 429.873 90.4405 429.764 91.2148C429.489 92.0985 429.489 92.0985 429.209 93C428.549 93.33 427.889 93.66 427.209 94C427.244 93.1125 427.244 93.1125 427.28 92.207C427.504 85.8318 427.504 85.8318 425.209 80C423.168 79.1131 423.168 79.1131 421.209 79C420.879 77.35 420.549 75.7 420.209 74C422.033 73.9091 422.033 73.9091 423.893 73.8164C425.478 73.732 427.062 73.6474 428.647 73.5625C429.449 73.5232 430.252 73.4839 431.078 73.4434C434.962 73.5946 434.962 73.5946 438.209 72Z" fill="white"/>
<path d="M541.209 159C541.539 159.99 541.869 160.98 542.209 162C540.861 164.533 539.467 166.859 537.897 169.25C537.448 169.949 537 170.649 536.538 171.369C535.108 173.588 533.662 175.796 532.209 178C531.487 179.097 531.487 179.097 530.75 180.217C527.926 184.494 525.077 188.753 522.209 193C523.7 196.283 525.596 198.931 527.834 201.75C528.466 202.549 529.098 203.348 529.748 204.172C530.231 204.775 530.713 205.378 531.209 206C531.499 204.735 531.499 204.735 531.795 203.445C532.056 202.35 532.316 201.254 532.584 200.125C532.967 198.489 532.967 198.489 533.358 196.82C534.209 194 534.209 194 536.209 192C536.505 198.497 535.382 204.622 534.209 211C533.219 211 532.229 211 531.209 211C529.604 209.32 529.604 209.32 528.022 207.125C527.492 206.406 526.962 205.686 526.416 204.945C525.209 203 525.209 203 525.209 201C524.549 201 523.889 201 523.209 201C521.503 199.374 519.833 197.709 518.209 196C519.691 191.854 521.737 188.428 524.147 184.75C524.948 183.522 525.748 182.294 526.549 181.066C526.976 180.416 527.402 179.765 527.842 179.094C529.308 176.849 530.762 174.595 532.213 172.34C532.712 171.566 533.21 170.792 533.723 169.995C534.705 168.471 535.686 166.947 536.666 165.423C540.096 160.113 540.096 160.113 541.209 159Z" fill="white"/>
<path d="M708.209 75C706.341 76.4202 704.471 77.8231 702.526 79.1367C697.802 82.3572 694.077 85.3973 692.209 91C694.819 89.5088 697.142 88.06 699.397 86.0625C705.809 81.3604 712.28 79.5391 720.178 79.6641C722.209 80 722.209 80 724.209 82C722.724 82.147 722.724 82.147 721.209 82.2969C709.015 83.3559 709.015 83.3559 699.397 90.25C699.005 90.8275 698.613 91.405 698.209 92C697.219 92 696.229 92 695.209 92C694.807 92.8663 694.807 92.8663 694.397 93.75C693.192 96.0326 691.801 97.9738 690.209 100C689.549 99.67 688.889 99.34 688.209 99C688.415 90.9365 690.483 85.551 696.366 79.9453C702.868 74.5486 702.868 74.5486 708.209 75Z" fill="white"/>
<path d="M512.209 74.9999C518.272 74.2421 521.559 76.5082 526.209 79.9999C533.634 86.0841 537.612 93.668 541.772 102.125C542.397 103.368 543.024 104.61 543.653 105.852C544.897 108.317 546.131 110.787 547.354 113.263C548.631 115.843 549.925 118.414 551.232 120.979C551.721 121.942 551.721 121.942 552.219 122.924C553.124 124.706 554.032 126.485 554.94 128.265C556.209 131 556.209 131 556.209 133C557.199 133.495 557.199 133.495 558.209 134C557.219 134 556.229 134 555.209 134C550.328 128.358 547.477 120.439 544.334 113.75C534.857 92.0987 534.857 92.0987 516.971 77.789C515.209 76.9999 515.209 76.9999 512.209 74.9999Z" fill="white"/>
<path d="M257.209 122C258.529 122.33 259.849 122.66 261.209 123C260.667 135.069 259.669 147.007 258.209 159C257.879 159 257.549 159 257.209 159C256.473 152.735 256.204 147.257 257.209 141C257.299 137.328 257.255 133.673 257.209 130C255.229 133.63 253.249 137.26 251.209 141C250.549 141 249.889 141 249.209 141C249.003 141.577 248.797 142.155 248.584 142.75C246.672 145.879 244.39 147.247 241.209 149C240.219 148.67 239.229 148.34 238.209 148C238.706 147.683 239.202 147.366 239.713 147.039C248.834 140.774 253.673 132.324 257.209 122Z" fill="white"/>
<path d="M735.209 146C737.66 148.451 738.638 150.979 740.014 154.125C741.536 156.513 742.528 157.094 745.209 158C753.451 158.873 760.253 158.682 767.209 154C767.869 153.01 768.529 152.02 769.209 151C768.879 151.33 768.549 151.66 768.209 152C764.178 152.263 762.65 152.294 759.209 150C759.209 149.34 759.209 148.68 759.209 148C759.801 148.023 760.393 148.046 761.002 148.07C765.547 148.174 769.069 148.137 773.209 146C773.704 148.475 773.704 148.475 774.209 151C768.094 157.238 761.471 161.721 752.495 162.121C747.551 161.772 743.345 160.856 739.209 158C736.457 154.74 735.276 152.901 734.959 148.625C735.083 147.326 735.083 147.326 735.209 146Z" fill="white"/>
<path d="M380.209 116C382.732 118.274 384.137 120.502 385.627 123.543C386.073 124.445 386.52 125.347 386.979 126.276C387.447 127.237 387.915 128.198 388.397 129.188C389.377 131.176 390.358 133.164 391.338 135.152C391.822 136.138 392.305 137.124 392.804 138.14C394.793 142.187 396.812 146.219 398.834 150.25C399.473 151.526 400.111 152.802 400.748 154.078C401.231 155.042 401.713 156.007 402.209 157C402.539 157.66 402.869 158.32 403.209 159C403.869 159 404.529 159 405.209 159C406.859 155.7 408.509 152.4 410.209 149C411.426 153.866 410.594 155.68 408.526 160.062C407.209 162 407.209 162 404.084 163.188C401.209 163 401.209 163 399.209 161C399.209 160.01 399.209 159.02 399.209 158C398.344 155.982 398.344 155.982 397.209 153.938C395.209 150.208 395.209 150.208 395.209 148C394.549 147.67 393.889 147.34 393.209 147C392.248 144.967 391.366 142.897 390.522 140.812C387.846 134.31 384.788 128.092 381.53 121.863C380.209 119 380.209 119 380.209 116Z" fill="white"/>
<path d="M807.209 93C809.061 96.1651 809.471 98.5154 809.512 102.164C809.529 103.192 809.546 104.22 809.563 105.279C809.571 106.383 809.58 107.487 809.588 108.625C809.605 109.764 809.622 110.903 809.64 112.077C809.693 115.718 809.733 119.359 809.772 123C809.816 126.641 809.863 130.282 809.915 133.923C809.947 136.189 809.973 138.455 809.995 140.721C810.008 141.749 810.022 142.777 810.036 143.836C810.045 144.739 810.055 145.642 810.065 146.572C810.203 148.889 810.404 150.822 811.209 153C813.7 154.297 813.7 154.297 816.209 155C814.229 155.495 814.229 155.495 812.209 156C809.081 153.234 807.442 151.434 806.762 147.251C806.631 143.806 806.648 140.392 806.721 136.945C806.728 135.689 806.735 134.432 806.743 133.137C806.766 129.812 806.811 126.489 806.866 123.165C806.917 119.766 806.94 116.368 806.965 112.969C807.02 106.312 807.104 99.6561 807.209 93Z" fill="white"/>
<path d="M260.209 74C271.429 74 282.649 74 294.209 74C293.879 93.47 293.549 112.94 293.209 133C292.879 133 292.549 133 292.209 133C292.209 114.19 292.209 95.38 292.209 76C281.649 76 271.089 76 260.209 76C260.209 75.34 260.209 74.68 260.209 74Z" fill="white"/>
<path d="M903.209 98C905.876 98.6667 908.543 99.3333 911.209 100C911.209 100.66 911.209 101.32 911.209 102C912.814 102.438 914.418 102.875 916.022 103.312C924.616 105.656 924.616 105.656 933.209 108C933.209 108.66 933.209 109.32 933.209 110C933.89 110.062 934.571 110.124 935.272 110.188C941.102 111.8 946.046 115.86 949.209 121C948.959 123.312 948.959 123.312 948.209 125C947.735 124.134 947.261 123.267 946.772 122.375C941.263 114.234 931.414 111.32 922.522 108.375C905.558 102.697 905.558 102.697 903.209 98Z" fill="white"/>
<path d="M593.209 84C593.539 84 593.869 84 594.209 84C593.753 90.6217 592.504 95.6259 589.584 101.562C589.203 102.355 588.822 103.147 588.43 103.963C582.355 116.181 574.77 127.659 567.209 139C566.549 139 565.889 139 565.209 139C566.496 135.555 567.992 132.544 569.967 129.445C570.776 128.163 570.776 128.163 571.602 126.856C572.174 125.955 572.745 125.053 573.334 124.125C581.424 111.182 588.534 98.589 593.209 84Z" fill="white"/>
<path d="M555.209 39.9999C554.209 41.9999 554.209 41.9999 551.022 43.3124C545.949 45.4063 542.277 48.0986 539.549 52.957C537.516 57.9711 537.887 63.1138 538.022 68.4374C538.035 69.4552 538.049 70.4729 538.063 71.5214C538.098 74.0148 538.147 76.5071 538.209 78.9999C534.694 74.5063 533.023 70.8886 533.393 65.1601C534.727 55.7972 537.04 49.1948 544.526 43.2265C548.435 40.3784 550.391 39.7858 555.209 39.9999Z" fill="white"/>
<path d="M645.395 37.8706C646.209 37.8675 647.024 37.8643 647.862 37.8611C648.732 37.8631 649.602 37.8651 650.498 37.8672C651.398 37.8663 652.298 37.8653 653.225 37.8643C655.122 37.8636 657.02 37.8655 658.918 37.8697C661.83 37.875 664.743 37.8697 667.655 37.8633C669.498 37.864 671.342 37.8653 673.186 37.8672C674.497 37.8642 674.497 37.8642 675.834 37.8611C681.979 37.8851 681.979 37.8851 684.209 39C684.209 41.64 684.209 44.28 684.209 47C683.879 47 683.549 47 683.209 47C682.714 44.525 682.714 44.525 682.209 42C660.429 41.505 660.429 41.505 638.209 41C637.879 40.34 637.549 39.68 637.209 39C640.007 38.2084 642.491 37.8739 645.395 37.8706Z" fill="white"/>
<path d="M949.209 142C949.539 142 949.869 142 950.209 142C950.7 144.699 950.581 146.422 949.084 148.75C943.619 155.353 937.616 158.419 929.6 161.168C927.235 161.934 927.235 161.934 925.209 163C923.33 163.022 923.33 163.022 921.077 162.879C920.271 162.831 919.465 162.782 918.635 162.732C917.793 162.676 916.952 162.62 916.084 162.562C914.81 162.484 914.81 162.484 913.51 162.404C911.41 162.274 909.309 162.138 907.209 162C907.209 162.66 907.209 163.32 907.209 164C906.219 163.67 905.229 163.34 904.209 163C904.869 162.67 905.529 162.34 906.209 162C906.209 161.34 906.209 160.68 906.209 160C906.783 159.996 907.356 159.992 907.947 159.988C921.649 159.816 934.317 159.471 944.873 149.559C946.845 147.259 948.079 144.793 949.209 142Z" fill="white"/>
<path d="M756.209 96C756.869 96 757.529 96 758.209 96C758.378 102.299 758.538 108.597 758.692 114.896C758.745 117.038 758.8 119.18 758.858 121.321C758.94 124.404 759.015 127.487 759.088 130.57C759.115 131.524 759.142 132.477 759.17 133.459C759.274 138.113 759.2 142.419 758.209 147C756.209 145 756.209 145 755.969 142.899C755.973 142.033 755.978 141.167 755.982 140.275C755.983 138.804 755.983 138.804 755.983 137.303C755.993 136.241 756.003 135.18 756.014 134.086C756.017 133.001 756.02 131.916 756.023 130.799C756.034 127.324 756.059 123.85 756.084 120.375C756.094 118.023 756.104 115.672 756.112 113.32C756.134 107.547 756.167 101.773 756.209 96Z" fill="white"/>
<path d="M708.209 115C707.049 115.528 707.049 115.528 705.866 116.066C694.059 121.619 694.059 121.619 686.147 131.625C684.39 137.253 685.483 143.258 686.209 149C684.889 148.34 683.569 147.68 682.209 147C682.539 145.68 682.869 144.36 683.209 143C682.549 142.67 681.889 142.34 681.209 142C682.605 133.279 684.199 126.722 691.209 121C702.459 113.215 702.459 113.215 708.209 115Z" fill="white"/>
<path d="M496.209 156C495.879 157.32 495.549 158.64 495.209 160C481.019 159.67 466.829 159.34 452.209 159C452.209 158.34 452.209 157.68 452.209 157C457.993 156.857 463.778 156.715 469.562 156.573C471.53 156.524 473.498 156.476 475.466 156.427C478.293 156.357 481.12 156.288 483.948 156.219C484.829 156.197 485.71 156.175 486.618 156.152C487.439 156.132 488.26 156.112 489.105 156.092C489.827 156.074 490.549 156.056 491.292 156.038C492.931 156.006 494.57 156 496.209 156Z" fill="white"/>
<path d="M663.209 47C669.319 47.3818 673.834 51.5771 677.952 55.7773C685.209 64.0281 685.209 64.0281 685.209 68C685.869 68 686.529 68 687.209 68C687.209 66.68 687.209 65.36 687.209 64C687.869 64 688.529 64 689.209 64C689.209 67.63 689.209 71.26 689.209 75C688.879 74.34 688.549 73.68 688.209 73C687.219 72.67 686.229 72.34 685.209 72C683.885 70.0312 683.885 70.0312 682.522 67.5C677.956 59.6191 672.708 53.3223 664.678 48.875C664.193 48.5863 663.709 48.2975 663.209 48C663.209 47.67 663.209 47.34 663.209 47Z" fill="white"/>
<path d="M629.209 106C629.539 106 629.869 106 630.209 106C630.219 107.145 630.228 108.29 630.238 109.469C630.278 113.739 630.343 118.008 630.417 122.278C630.445 124.122 630.466 125.966 630.48 127.809C630.502 130.469 630.549 133.126 630.6 135.785C630.601 136.602 630.602 137.419 630.604 138.261C630.747 143.942 631.958 147.313 635.209 152C637.25 153.613 637.25 153.613 639.459 154.438C640.166 154.746 640.872 155.054 641.6 155.371C642.131 155.579 642.662 155.786 643.209 156C643.209 156.99 643.209 157.98 643.209 159C640.734 159.495 640.734 159.495 638.209 160C637.982 159.443 637.756 158.886 637.522 158.312C635.85 155.367 633.626 153.357 631.209 151C629.149 147.909 628.961 147.291 628.982 143.804C628.982 142.963 628.983 142.123 628.983 141.257C628.993 140.353 629.003 139.45 629.014 138.52C629.017 137.592 629.02 136.664 629.023 135.707C629.034 132.742 629.059 129.778 629.084 126.812C629.094 124.803 629.103 122.793 629.112 120.783C629.134 115.855 629.168 110.928 629.209 106Z" fill="white"/>
<path d="M877.209 157C876.879 157.66 876.549 158.32 876.209 159C871.22 160.029 866.372 160.079 861.307 159.879C860.584 159.855 859.862 159.832 859.117 159.807C856.835 159.732 854.554 159.647 852.272 159.563C850.714 159.509 849.156 159.457 847.598 159.404C843.802 159.276 840.005 159.14 836.209 159C836.209 158.34 836.209 157.68 836.209 157C841.566 156.832 846.923 156.672 852.28 156.518C854.103 156.465 855.925 156.409 857.748 156.352C860.366 156.27 862.985 156.195 865.604 156.121C866.42 156.094 867.235 156.067 868.076 156.039C871.408 155.951 874.021 155.937 877.209 157Z" fill="white"/>
<path d="M775.209 157C789.399 157 803.589 157 818.209 157C817.219 157.33 816.229 157.66 815.209 158C814.879 158.66 814.549 159.32 814.209 160C801.669 160 789.129 160 776.209 160C775.879 159.01 775.549 158.02 775.209 157Z" fill="white"/>
<path d="M736.209 114C736.209 121.92 736.209 129.84 736.209 138C735.879 138 735.549 138 735.209 138C735.209 130.41 735.209 122.82 735.209 115C725.533 117.068 718.33 118.786 710.248 124.707C709.576 125.134 708.903 125.56 708.209 126C707.549 125.67 706.889 125.34 706.209 125C714.679 117.06 724.325 111.623 736.209 114Z" fill="white"/>
<path d="M671.209 82C672.199 82.33 673.189 82.66 674.209 83C673.879 94.22 673.549 105.44 673.209 117C672.549 117 671.889 117 671.209 117C671.209 105.45 671.209 93.9 671.209 82Z" fill="white"/>
<path d="M852.561 73.7501C858.628 76.3737 862.294 81.1702 865.209 87.0001C865.249 88.9997 865.253 91.0005 865.209 93.0001C863.618 90.6133 862.705 88.7792 861.647 86.1876C859.01 81.0088 855.523 78.2775 850.209 76.0001C844.96 74.5587 839.593 73.7531 834.209 73.0001C839.844 69.4312 846.586 71.8443 852.561 73.7501Z" fill="white"/>
<path d="M631.209 105C658.615 104.057 658.615 104.057 666.155 110.719C668.616 113.421 670.046 115.511 671.209 119C670.549 119.33 669.889 119.66 669.209 120C665.209 114.25 665.209 114.25 665.209 112C663.554 111.306 661.883 110.649 660.209 110C659.584 109.753 658.958 109.506 658.313 109.252C652.38 107.075 646.937 106.474 640.647 106.312C639.277 106.261 639.277 106.261 637.879 106.209C635.656 106.127 633.433 106.058 631.209 106C631.209 105.67 631.209 105.34 631.209 105Z" fill="white"/>
<path d="M495.089 73.7729C495.832 73.7834 496.576 73.7939 497.342 73.8047C498.551 73.8144 498.551 73.8144 499.784 73.8242C501.046 73.8494 501.046 73.8494 502.334 73.875C503.609 73.8885 503.609 73.8885 504.909 73.9023C507.009 73.9259 509.109 73.9618 511.209 74C511.209 74.33 511.209 74.66 511.209 75C510.214 75.0909 510.214 75.0909 509.198 75.1836C502.66 75.7986 502.66 75.7986 496.209 77C498.189 79.31 500.169 81.62 502.209 84C501.219 84.495 501.219 84.495 500.209 85C499.219 84.34 498.229 83.68 497.209 83C496.343 82.5463 495.477 82.0925 494.584 81.625C492.209 80 492.209 80 491.272 77.9375C491.251 77.2981 491.231 76.6588 491.209 76C493.209 74 493.209 74 495.089 73.7729Z" fill="white"/>
<path d="M567.209 63C571.637 64.9591 575.207 67.1178 577.518 71.457C578.249 74.1454 578.164 75.4234 577.209 78C576.918 77.3851 576.627 76.7702 576.327 76.1367C575.917 75.3285 575.507 74.5202 575.084 73.6875C574.69 72.887 574.295 72.0865 573.889 71.2617C571.652 68.2496 569.718 67.3031 566.209 66C562.551 65.64 562.551 65.64 558.834 65.8125C557.589 65.8396 556.344 65.8666 555.061 65.8945C554.12 65.9293 553.179 65.9641 552.209 66C556.84 61.9525 561.307 62.0135 567.209 63Z" fill="white"/>
<path d="M237.209 149C236.209 151 236.209 151 234.497 151.628C228.641 152.917 223.131 153.246 217.147 153.125C216.281 153.116 215.416 153.107 214.524 153.098C212.419 153.074 210.314 153.039 208.209 153C207.879 152.34 207.549 151.68 207.209 151C209.18 150.909 209.18 150.909 211.19 150.816C212.926 150.732 214.661 150.647 216.397 150.563C217.261 150.523 218.125 150.484 219.016 150.443C225.154 150.138 231.073 148.857 237.209 149Z" fill="white"/>
<path d="M485.209 25C484.879 37.87 484.549 50.74 484.209 64C483.879 64 483.549 64 483.209 64C483.209 52.45 483.209 40.9 483.209 29C481.889 28.67 480.569 28.34 479.209 28C481.834 25 481.834 25 485.209 25Z" fill="white"/>
<path d="M883.209 130C884.529 130.66 885.849 131.32 887.209 132C887.201 132.939 887.201 132.939 887.193 133.896C887.173 136.722 887.16 139.549 887.147 142.375C887.138 143.36 887.13 144.345 887.121 145.359C887.117 146.771 887.117 146.771 887.112 148.211C887.104 149.515 887.104 149.515 887.096 150.845C887.068 153.05 887.068 153.05 888.209 155C886.229 154.67 884.249 154.34 882.209 154C882.455 152.805 882.455 152.805 882.705 151.586C883.317 147.232 883.317 143.014 883.272 138.625C883.267 137.794 883.263 136.962 883.258 136.105C883.246 134.07 883.229 132.035 883.209 130Z" fill="white"/>
<path d="M261.209 76C271.439 76 281.669 76 292.209 76C292.209 76.33 292.209 76.66 292.209 77C284.289 77.33 276.369 77.66 268.209 78C268.869 78.66 269.529 79.32 270.209 80C270.479 82.6884 270.297 85.2914 270.209 88C269.879 88 269.549 88 269.209 88C269.147 87.2575 269.086 86.515 269.022 85.75C267.959 82.1511 266.257 81.0814 263.209 79C262.549 78.67 261.889 78.34 261.209 78C261.209 77.34 261.209 76.68 261.209 76Z" fill="white"/>
<path d="M913.209 124C917.722 124.566 921.265 125.731 925.334 127.75C926.854 128.485 926.854 128.485 928.405 129.234C931.495 131.18 933.24 132.933 935.209 136C935.698 138.8 935.404 141.13 935.209 144C934.879 144 934.549 144 934.209 144C934.209 141.69 934.209 139.38 934.209 137C933.549 137 932.889 137 932.209 137C931.362 135.844 931.362 135.844 930.498 134.664C927.735 131.448 925.576 130.699 921.584 129.375C915.416 127.31 915.416 127.31 913.209 124Z" fill="white"/>
<path d="M365.209 76C369.16 75.9506 373.111 75.9143 377.062 75.8901C379.068 75.8751 381.074 75.8497 383.08 75.8242C384.337 75.8178 385.594 75.8113 386.889 75.8047C388.052 75.7942 389.214 75.7837 390.412 75.7729C393.209 76 393.209 76 395.209 78C394.219 78.8044 394.219 78.8044 393.209 79.625C390.899 81.8996 390.899 81.8996 390.959 85.25C391.083 86.6112 391.083 86.6112 391.209 88C390.879 87.01 390.549 86.02 390.209 85C389.549 85 388.889 85 388.209 85C388.539 82.36 388.869 79.72 389.209 77C381.289 77 373.369 77 365.209 77C365.209 76.67 365.209 76.34 365.209 76Z" fill="white"/>
<path d="M570.209 38C573.371 39.0554 576.252 40.4749 579.209 42C580.871 42.6783 582.535 43.352 584.209 44C583.879 45.32 583.549 46.64 583.209 48C582.701 47.6622 582.194 47.3245 581.67 46.9765C573.587 41.739 566.757 40.587 557.209 40C561.495 37.143 565.177 37.3882 570.209 38Z" fill="white"/>
<path d="M722.209 80.0001C722.869 80.6601 723.529 81.3201 724.209 82.0001C723.219 82.098 722.229 82.196 721.209 82.2969C713.807 83.1067 707.707 84.1496 701.209 88.0001C699.552 88.6905 697.89 89.3698 696.209 90.0001C702.497 82.4118 712.356 78.1682 722.209 80.0001Z" fill="white"/>
<path d="M550.209 67C550.869 67 551.529 67 552.209 67C551.94 67.5375 551.671 68.0751 551.393 68.6289C550.527 70.3639 549.666 72.1012 548.807 73.8398C548.3 74.8621 547.794 75.8843 547.272 76.9375C546.516 78.467 546.516 78.467 545.745 80.0273C544.334 82.7595 542.823 85.3839 541.209 88C540.549 87.67 539.889 87.34 539.209 87C538.802 84.6784 538.465 82.3431 538.209 80C539.199 80.99 540.189 81.98 541.209 83C541.44 82.4315 541.671 81.863 541.909 81.2773C544.147 75.9782 546.585 71.4825 550.209 67Z" fill="white"/>
<path d="M547.209 167C548.456 170.739 547.814 171.436 546.12 174.887C545.665 175.825 545.211 176.762 544.743 177.729C544.257 178.705 543.772 179.681 543.272 180.688C542.79 181.676 542.309 182.664 541.813 183.682C540.62 186.126 539.419 188.565 538.209 191C537.549 191 536.889 191 536.209 191C536.663 185.029 539.335 180.691 542.272 175.625C542.744 174.794 543.217 173.962 543.703 173.105C544.864 171.066 546.033 169.031 547.209 167Z" fill="white"/>
<path d="M422.209 123C423.637 127.284 421.706 129.991 419.897 133.875C419.254 135.289 418.612 136.703 417.971 138.117C417.508 139.118 417.508 139.118 417.035 140.14C416.338 141.711 415.74 143.325 415.166 144.945C414.693 145.962 414.693 145.962 414.209 147C413.219 147.33 412.229 147.66 411.209 148C413.444 140.551 416.629 133.892 420.209 127C420.879 125.668 421.546 124.335 422.209 123Z" fill="white"/>
<path d="M462.209 48C464.785 51.8629 464.504 55.0895 464.459 59.5625C464.467 60.343 464.475 61.1236 464.483 61.9277C464.463 67.7466 464.463 67.7466 462.209 70C461.209 69 461.209 69 461.188 66.9587C461.235 66.0842 461.282 65.2096 461.33 64.3086C461.403 62.8922 461.403 62.8922 461.477 61.4473C461.533 60.454 461.589 59.4608 461.647 58.4375C461.699 57.4404 461.751 56.4433 461.805 55.416C461.935 52.9437 462.07 50.4718 462.209 48Z" fill="white"/>
<path d="M509.209 97C512.259 99.0334 512.882 99.8435 514.397 103C514.741 103.701 515.085 104.403 515.44 105.125C516.209 107 516.209 107 516.209 109C516.869 109 517.529 109 518.209 109C518.869 111.64 519.529 114.28 520.209 117C517.209 116 517.209 116 516.134 114.465C515.815 113.819 515.496 113.173 515.166 112.508C514.815 111.803 514.464 111.098 514.102 110.371C513.567 109.259 513.567 109.259 513.022 108.125C512.654 107.392 512.286 106.658 511.907 105.902C509.209 100.408 509.209 100.408 509.209 97Z" fill="white"/>
<path d="M708.209 75C706.357 76.4079 704.515 77.8021 702.561 79.0664C697.928 82.1316 695.228 85.3349 692.209 90C691.549 88.2188 691.549 88.2188 691.209 86C694.615 79.9577 700.996 74.1514 708.209 75Z" fill="white"/>
<path d="M299.397 158.938C300.146 158.942 300.896 158.947 301.668 158.951C303.515 158.963 305.362 158.981 307.209 159C307.209 159.66 307.209 160.32 307.209 161C303.996 161.947 301.055 162.165 297.709 162.188C296.771 162.202 295.832 162.216 294.866 162.231C292.149 161.995 290.53 161.385 288.209 160C291.972 158.746 295.481 158.893 299.397 158.938Z" fill="white"/>
<path d="M731.209 108C724.087 111.697 717.184 113.367 709.209 114C709.209 113.34 709.209 112.68 709.209 112C723.806 107.408 723.806 107.408 731.209 108Z" fill="white"/>
<path d="M742.209 76C746.452 76.4892 748.192 77.5362 750.897 80.8125C751.478 81.4996 752.06 82.1866 752.659 82.8945C755.738 87.0757 756.447 89.7734 756.209 95C754.209 93 754.209 93 753.147 89.375C751.427 84.4239 748.051 81.809 744.073 78.5664C743.15 77.791 743.15 77.791 742.209 77C742.209 76.67 742.209 76.34 742.209 76Z" fill="white"/>
<path d="M535.209 192C535.539 192 535.869 192 536.209 192C536.505 198.497 535.382 204.622 534.209 211C533.219 211 532.229 211 531.209 211C531.209 207.47 531.901 204.388 532.647 200.938C532.914 199.688 533.181 198.439 533.455 197.152C534.209 194 534.209 194 535.209 192Z" fill="white"/>
<path d="M659.209 96C658.209 98 658.209 98 655.299 99.1172C650.49 100.373 645.709 100.217 640.772 100.125C639.85 100.116 638.927 100.107 637.977 100.098C635.721 100.074 633.465 100.042 631.209 100C631.209 99.67 631.209 99.34 631.209 99C632.569 98.9265 632.569 98.9265 633.955 98.8516C640.251 98.4652 646.246 97.9515 652.366 96.4102C654.673 95.8968 656.855 95.8481 659.209 96Z" fill="white"/>
<path d="M719.209 159C715.863 162.346 712.234 162.175 707.647 162.25C706.697 162.276 705.747 162.302 704.768 162.328C701.835 161.952 700.998 161.288 699.209 159C699.85 159.012 700.491 159.023 701.151 159.035C705.242 159.078 709.086 159.018 713.147 158.437C716.209 158 716.209 158 719.209 159Z" fill="white"/>
<path d="M785.209 81.9999C783.889 82.3299 782.569 82.6599 781.209 82.9999C781.519 83.6187 781.828 84.2374 782.147 84.8749C782.834 86.2499 783.522 87.6249 784.209 88.9999C777.459 88.1249 777.459 88.1249 775.209 86.9999C775.397 85.1249 775.397 85.1249 776.209 82.9999C779.523 81.1195 781.621 80.671 785.209 81.9999Z" fill="white"/>
<path d="M424.209 76C424.869 76 425.529 76 426.209 76C429.553 81.2668 430.637 85.0081 429.764 91.2148C429.581 91.8039 429.398 92.393 429.209 93C428.549 93.33 427.889 93.66 427.209 94C427.271 92.7006 427.333 91.4012 427.397 90.0625C427.421 84.9445 426.084 80.7193 424.209 76Z" fill="white"/>
<path d="M445.209 76C448.209 77 448.209 77 449.209 79C448.127 79.4331 448.127 79.4331 447.022 79.875C443.361 82.6408 442.213 85.6691 440.42 89.8203C439.209 92 439.209 92 436.209 93C437.808 87.4044 440.473 83.2944 443.959 78.6875C445.309 77.2161 445.309 77.2161 445.209 76Z" fill="white"/>
<path d="M574.209 100C575.209 103 575.209 103 574.589 104.809C574.248 105.464 573.908 106.119 573.557 106.793C573.193 107.505 572.829 108.217 572.454 108.951C572.064 109.689 571.674 110.427 571.272 111.188C570.693 112.312 570.693 112.312 570.102 113.459C569.147 115.311 568.179 117.156 567.209 119C565.977 114.968 566.714 113.234 568.584 109.438C569.953 106.619 571.218 103.975 572.209 101C572.869 100.67 573.529 100.34 574.209 100Z" fill="white"/>
<path d="M425.209 95C425.869 95 426.529 95 427.209 95C426.786 101.491 424.298 106.335 421.209 112C419.62 106.908 421.573 102.909 423.209 98C423.869 97.01 424.529 96.02 425.209 95Z" fill="white"/>
<path d="M520.209 118C520.869 118 521.529 118 522.209 118C524.519 122.62 526.829 127.24 529.209 132C528.219 132 527.229 132 526.209 132C522.209 125.25 522.209 125.25 522.209 123C521.219 123 520.229 123 519.209 123C519.539 121.35 519.869 119.7 520.209 118Z" fill="white"/>
<path d="M732.209 141C732.869 141.33 733.529 141.66 734.209 142C725.745 149.31 725.745 149.31 719.459 149.125C718.66 149.107 717.861 149.089 717.037 149.07C716.434 149.047 715.831 149.024 715.209 149C715.209 148.67 715.209 148.34 715.209 148C715.934 147.83 716.658 147.66 717.405 147.484C723.114 146.053 727.563 144.642 732.209 141Z" fill="white"/>
<path d="M949.209 126C952.209 128 952.209 128 952.897 129.688C953.326 132.867 953.447 135.797 953.209 139C952.219 139.66 951.229 140.32 950.209 141C949.879 136.05 949.549 131.1 949.209 126Z" fill="white"/>
<path d="M903.209 98C905.876 98.6667 908.543 99.3333 911.209 100C911.209 100.66 911.209 101.32 911.209 102C913.849 102.66 916.489 103.32 919.209 104C917.53 105.137 917.53 105.137 915.209 106C912.702 105.207 912.702 105.207 910.084 103.812C909.216 103.365 908.347 102.918 907.452 102.457C905.209 101 905.209 101 903.209 98Z" fill="white"/>
<path d="M460.584 35.3126C461.121 35.5394 461.657 35.7663 462.209 36.0001C460.229 36.9901 458.249 37.9801 456.209 39.0001C457.529 40.6501 458.849 42.3001 460.209 44.0001C457.569 43.3401 454.929 42.6801 452.209 42.0001C452.209 40.6801 452.209 39.3601 452.209 38.0001C457.625 34.9231 457.625 34.9231 460.584 35.3126Z" fill="white"/>
<path d="M275.209 149C275.869 149.743 276.529 150.485 277.209 151.25C279.927 153.991 282.856 155.511 286.342 157.105C288.209 158 288.209 158 291.209 160C286.535 159.886 282.502 159.701 278.709 156.75C276.189 153.978 275.42 152.679 275.209 149Z" fill="white"/>
<path d="M532.209 140C535.203 142.58 536.665 145.543 538.397 149.062C538.927 150.126 539.456 151.189 540.002 152.285C541.209 155 541.209 155 541.209 157C540.549 157 539.889 157 539.209 157C538.035 154.733 536.87 152.462 535.709 150.188C535.375 149.545 535.042 148.902 534.698 148.24C533.207 145.305 532.209 143.339 532.209 140Z" fill="white"/>
<path d="M865.209 90C866.826 92.8697 867.483 95.0446 867.623 98.3281C867.662 99.1273 867.701 99.9266 867.741 100.75C867.772 101.575 867.802 102.4 867.834 103.25C867.873 104.09 867.912 104.931 867.952 105.797C868.045 107.864 868.128 109.932 868.209 112C866.002 108.359 865.538 104.586 865.022 100.438C864.927 99.7653 864.832 99.093 864.735 98.4004C864.316 95.1782 864.168 93.1247 865.209 90Z" fill="white"/>
<path d="M369.209 93C371.868 95.37 373.321 97.8198 374.897 101C375.334 101.866 375.771 102.733 376.221 103.625C377.209 106 377.209 106 377.209 109C376.549 109 375.889 109 375.209 109C374.2 107.089 373.202 105.171 372.209 103.25C371.652 102.183 371.096 101.115 370.522 100.016C369.209 97 369.209 97 369.209 93Z" fill="white"/>
<path d="M733.209 147C733.539 148.32 733.869 149.64 734.209 151C732.638 152.203 731.051 153.387 729.459 154.562C728.578 155.224 727.696 155.885 726.787 156.566C724.209 158 724.209 158 721.881 157.715C721.33 157.479 720.778 157.243 720.209 157C720.813 156.613 721.416 156.227 722.037 155.828C728.037 151.924 728.037 151.924 733.209 147Z" fill="white"/>
<path d="M821.209 79C816.459 83 816.459 83 814.209 83C814.209 83.66 814.209 84.32 814.209 85C813.57 85.1032 812.931 85.2063 812.272 85.3125C811.591 85.5394 810.911 85.7663 810.209 86C809.879 86.99 809.549 87.98 809.209 89C808.549 88.67 807.889 88.34 807.209 88C815.818 77.2028 815.818 77.2028 821.209 79Z" fill="white"/>
<path d="M349.209 145C351.209 148 351.209 148 352.522 150.5C354.427 153.323 356.209 154.459 359.209 156C358.219 156.33 357.229 156.66 356.209 157C352.415 155.064 350.569 153.782 348.772 149.875C348.209 147 348.209 147 349.209 145Z" fill="white"/>
<path d="M321.209 146C315.635 149.616 310.604 149.307 304.209 149C307.007 147.493 309.613 146.518 312.709 145.812C313.462 145.633 314.215 145.454 314.991 145.269C317.358 144.982 318.955 145.277 321.209 146Z" fill="white"/>
<path d="M595.209 45C597.397 45.0625 597.397 45.0625 600.209 46C602.141 48.1717 603.691 50.526 605.209 53C604.549 54.32 603.889 55.64 603.209 57C602.941 56.4431 602.673 55.8862 602.397 55.3125C600.401 51.425 598.475 47.9548 595.209 45Z" fill="white"/>
<path d="M557.209 150C558.209 153 558.209 153 556.846 155.918C555.881 157.536 555.881 157.536 554.897 159.188C553.944 160.818 553.944 160.818 552.971 162.48C552.099 163.728 552.099 163.728 551.209 165C550.549 165 549.889 165 549.209 165C550.582 161.301 552.273 158.049 554.334 154.688C554.873 153.804 555.412 152.921 555.967 152.012C556.377 151.348 556.787 150.684 557.209 150Z" fill="white"/>
<path d="M182.209 148C183.199 148.33 184.189 148.66 185.209 149C183.159 152.992 181.362 155.177 177.209 157C175.049 156.57 175.049 156.57 173.209 156C173.775 155.674 174.341 155.348 174.924 155.012C175.658 154.575 176.391 154.138 177.147 153.688C177.878 153.258 178.609 152.829 179.362 152.387C181.509 151.049 181.509 151.049 182.209 148Z" fill="white"/>
<path d="M785.209 146C785.869 146.33 786.529 146.66 787.209 147C785.195 153.974 785.195 153.974 782.209 156C779.022 156.688 779.022 156.688 776.209 157C776.209 156.34 776.209 155.68 776.209 155C777.137 154.629 778.066 154.257 779.022 153.875C782.735 151.691 783.636 149.933 785.209 146Z" fill="white"/>
<path d="M673.209 108C673.539 108 673.869 108 674.209 108C675.726 118.558 675.726 118.558 673.209 123C672.219 122.67 671.229 122.34 670.209 122C670.539 120.35 670.869 118.7 671.209 117C671.869 117 672.529 117 673.209 117C673.209 114.03 673.209 111.06 673.209 108Z" fill="white"/>
<path d="M759.209 148C762.839 148 766.469 148 770.209 148C769.549 149.32 768.889 150.64 768.209 152C762.584 152.25 762.584 152.25 759.209 150C759.209 149.34 759.209 148.68 759.209 148Z" fill="white"/>
<path d="M805.209 73C802.699 76.0591 800.309 76.7519 796.522 77.6875C795.528 77.9389 794.534 78.1903 793.51 78.4492C792.751 78.631 791.992 78.8128 791.209 79C791.209 78.34 791.209 77.68 791.209 77C800.619 72.4078 800.619 72.4078 805.209 73Z" fill="white"/>
<path d="M586.209 50C590.709 51.9191 592.382 54.5647 594.209 59C594.459 61.9375 594.459 61.9375 594.209 64C591.876 61.071 590.16 58.1143 588.522 54.75C587.866 53.412 587.866 53.412 587.198 52.0469C586.871 51.3714 586.545 50.6959 586.209 50Z" fill="white"/>
<path d="M939.209 114C943.478 114.474 945.524 116.807 948.209 120C949.022 122.812 949.022 122.812 949.209 125C947.876 123.667 946.543 122.333 945.209 121C944.322 120.134 943.436 119.267 942.522 118.375C940.209 116 940.209 116 939.209 114Z" fill="white"/>
<path d="M541.209 46C542.199 46.33 543.189 46.66 544.209 47C543.426 47.8869 542.642 48.7738 541.834 49.6875C539.638 52.3072 538.271 54.7172 537.209 58C536.879 58 536.549 58 536.209 58C536.624 52.712 537.562 49.8831 541.209 46Z" fill="white"/>
<path d="M485.209 148C485.869 148 486.529 148 487.209 148C487.24 148.897 487.24 148.897 487.272 149.812C488.114 152.433 488.114 152.433 491.772 153.75C492.906 154.162 494.041 154.575 495.209 155C492.209 157 492.209 157 489.709 156.5C486.461 154.551 485.632 152.444 484.209 149C484.539 148.67 484.869 148.34 485.209 148Z" fill="white"/>
<path d="M323.209 148C323.869 148.33 324.529 148.66 325.209 149C323.78 150.342 322.341 151.674 320.897 153C320.096 153.742 319.296 154.485 318.471 155.25C316.209 157 316.209 157 313.209 157C313.209 156.34 313.209 155.68 313.209 155C315.143 153.527 315.143 153.527 317.647 151.938C320.581 150.163 320.581 150.163 323.209 148Z" fill="white"/>
<path d="M391.209 77C392.529 77.33 393.849 77.66 395.209 78C394.219 78.8044 394.219 78.8044 393.209 79.625C390.899 81.8996 390.899 81.8996 390.959 85.25C391.042 86.1575 391.124 87.065 391.209 88C390.879 87.01 390.549 86.02 390.209 85C389.549 85 388.889 85 388.209 85C388.209 83.35 388.209 81.7 388.209 80C388.869 80 389.529 80 390.209 80C390.539 79.01 390.869 78.02 391.209 77Z" fill="white"/>
<path d="M677.209 38C679.519 38.33 681.829 38.66 684.209 39C684.209 41.64 684.209 44.28 684.209 47C683.879 47 683.549 47 683.209 47C682.879 45.35 682.549 43.7 682.209 42C680.559 41.67 678.909 41.34 677.209 41C677.209 40.01 677.209 39.02 677.209 38Z" fill="white"/>
<path d="M868.209 150C869.199 150.495 869.199 150.495 870.209 151C870.209 151.66 870.209 152.32 870.209 153C872.519 153.66 874.829 154.32 877.209 155C877.539 156.65 877.869 158.3 878.209 160C877.549 159.34 876.889 158.68 876.209 158C876.209 157.67 876.209 157.34 876.209 157C875.261 156.691 874.312 156.381 873.334 156.062C870.209 155 870.209 155 868.209 154C868.209 152.68 868.209 151.36 868.209 150Z" fill="white"/>
<path d="M807.209 147C807.869 147 808.529 147 809.209 147C809.436 147.949 809.663 148.898 809.897 149.875C810.9 153.193 810.9 153.193 813.834 154.375C815.01 154.684 815.01 154.684 816.209 155C814.889 155.33 813.569 155.66 812.209 156C807.209 150.375 807.209 150.375 807.209 147Z" fill="white"/>
<path d="M705.209 127C706.176 130.122 706.199 132.521 705.772 135.75C705.619 136.949 705.619 136.949 705.463 138.172C705.338 139.077 705.338 139.077 705.209 140C704.549 139.67 703.889 139.34 703.209 139C703.155 137.563 703.116 136.125 703.084 134.688C703.061 133.887 703.038 133.086 703.014 132.262C703.209 130 703.209 130 705.209 127Z" fill="white"/>
<path d="M668.209 86C668.869 86 669.529 86 670.209 86C670.209 86.99 670.209 87.98 670.209 89C669.549 89 668.889 89 668.209 89C667.982 89.6188 667.756 90.2375 667.522 90.875C665.83 93.6141 664.217 94.0502 661.209 95C661.209 94.34 661.209 93.68 661.209 93C662.863 91.6508 664.531 90.3187 666.209 89C666.869 88.01 667.529 87.02 668.209 86Z" fill="white"/>
<path d="M902.209 83C902.869 83 903.529 83 904.209 83C903.549 87.29 902.889 91.58 902.209 96C900.209 94 900.209 94 899.959 90.625C900.184 87.3648 900.485 85.6937 902.209 83Z" fill="white"/>
<path d="M686.209 150C688.209 150 688.209 150 690.647 152.375C691.492 153.241 692.338 154.108 693.209 155C694.199 155.66 695.189 156.32 696.209 157C696.209 157.66 696.209 158.32 696.209 159C691.782 157.608 689.254 155.479 686.209 152C686.209 151.34 686.209 150.68 686.209 150Z" fill="white"/>
<path d="M858.209 80C862.049 81.4564 863.519 83.2821 865.209 87C865.397 90.3125 865.397 90.3125 865.209 93C863.644 90.6512 862.384 88.4545 861.147 85.9375C860.805 85.2453 860.464 84.553 860.112 83.8398C859.814 83.2327 859.516 82.6255 859.209 82C858.879 81.34 858.549 80.68 858.209 80Z" fill="white"/>
<path d="M406.209 124C406.869 124 407.529 124 408.209 124C408.539 124.66 408.869 125.32 409.209 126C410.199 125.34 411.189 124.68 412.209 124C411.549 126.64 410.889 129.28 410.209 132C407.31 129.605 406.708 127.688 406.209 124Z" fill="white"/>
<path d="M461.209 92C462.199 92 463.189 92 464.209 92C464.209 94.64 464.209 97.28 464.209 100C463.219 100 462.229 100 461.209 100C461.209 97.36 461.209 94.72 461.209 92Z" fill="white"/>
<path d="M485.209 25C485.209 28.63 485.209 32.26 485.209 36C484.879 36 484.549 36 484.209 36C484.209 33.36 484.209 30.72 484.209 28C482.559 28.33 480.909 28.66 479.209 29C479.539 28.01 479.869 27.02 480.209 26C482.209 25 482.209 25 485.209 25Z" fill="white"/>
<path d="M843.209 154C842.219 155.485 842.219 155.485 841.209 157C838.584 157.188 838.584 157.188 836.209 157C836.209 157.66 836.209 158.32 836.209 159C835.219 158.67 834.229 158.34 833.209 158C833.869 158 834.529 158 835.209 158C835.539 157.01 835.869 156.02 836.209 155C839.152 153.038 839.729 152.84 843.209 154Z" fill="white"/>
<path d="M237.209 149C236.879 149.66 236.549 150.32 236.209 151C234.432 151.484 234.432 151.484 232.272 151.75C231.562 151.848 230.851 151.946 230.12 152.047C228.209 152 228.209 152 226.209 150C229.944 149.121 233.377 148.911 237.209 149Z" fill="white"/>
<path d="M690.209 91C692.209 94 692.209 94 691.834 97.1875C691.628 98.1156 691.422 99.0437 691.209 100C690.219 99.67 689.229 99.34 688.209 99C688.732 96.2372 689.318 93.6739 690.209 91Z" fill="white"/>
<path d="M884.209 127C887.209 128 887.209 128 889.209 131C888.834 133.188 888.834 133.188 888.209 135C886.209 133.25 886.209 133.25 884.209 131C884.209 129.68 884.209 128.36 884.209 127Z" fill="white"/>
<path d="M435.209 94C436.197 96.6656 436.237 97.9013 435.459 100.688C434.209 103 434.209 103 431.209 104C431.685 102.52 432.165 101.041 432.647 99.5625C432.914 98.7388 433.181 97.9151 433.455 97.0664C434.209 95 434.209 95 435.209 94Z" fill="white"/>
<path d="M458.209 44C459.529 44 460.849 44 462.209 44C463.741 48.0844 462.84 51.7946 462.209 56C461.879 56 461.549 56 461.209 56C461.209 53.03 461.209 50.06 461.209 47C460.549 47 459.889 47 459.209 47C458.879 46.01 458.549 45.02 458.209 44Z" fill="white"/>
<path d="M905.209 150C908.509 150.66 911.809 151.32 915.209 152C911.209 154 911.209 154 907.459 153.125C906.387 152.754 905.314 152.382 904.209 152C904.539 151.34 904.869 150.68 905.209 150Z" fill="white"/>
<path d="M604.209 149C604.539 150.32 604.869 151.64 605.209 153C601.584 156 601.584 156 598.209 156C598.209 155.34 598.209 154.68 598.209 154C599.865 152.981 601.532 151.982 603.209 151C603.539 150.34 603.869 149.68 604.209 149Z" fill="white"/>
<path d="M735.209 146C737.672 148.463 738.207 150.707 739.209 154C738.549 154.66 737.889 155.32 737.209 156C735.116 152.598 735.03 149.947 735.209 146Z" fill="white"/>
<path d="M298.209 144C301.179 144.99 304.149 145.98 307.209 147C304.209 149 304.209 149 301.522 148.625C300.759 148.419 299.996 148.213 299.209 148C298.879 146.68 298.549 145.36 298.209 144Z" fill="white"/>
<path d="M902.209 120C906.002 121.002 908.925 121.81 912.209 124C909.459 124.25 909.459 124.25 906.209 124C903.834 122 903.834 122 902.209 120Z" fill="white"/>
<path d="M806.209 72C807.199 72 808.189 72 809.209 72C808.879 75.96 808.549 79.92 808.209 84C807.879 84 807.549 84 807.209 84C806.879 80.04 806.549 76.08 806.209 72Z" fill="white"/>
<path d="M558.569 62.9258C559.358 63.0534 560.147 63.181 560.959 63.3125C561.759 63.4324 562.558 63.5523 563.381 63.6758C563.985 63.7828 564.588 63.8898 565.209 64C565.209 64.33 565.209 64.66 565.209 65C558.774 65.495 558.774 65.495 552.209 66C556.209 63 556.209 63 558.569 62.9258Z" fill="white"/>
<path d="M769.209 154C769.209 154.66 769.209 155.32 769.209 156C765.057 159.115 765.057 159.115 761.897 158.688C761.34 158.461 760.783 158.234 760.209 158C766.959 154 766.959 154 769.209 154Z" fill="white"/>
<path d="M933.209 137C933.539 137 933.869 137 934.209 137C934.459 138.434 934.683 139.873 934.897 141.312C935.088 142.513 935.088 142.513 935.284 143.738C935.209 146 935.209 146 932.209 149C932.539 145.04 932.869 141.08 933.209 137Z" fill="white"/>
<path d="M524.209 123C526.152 125.914 527.673 128.858 529.209 132C528.219 132 527.229 132 526.209 132C524.352 128.865 524.008 126.625 524.209 123Z" fill="white"/>
<path d="M430.209 105C431.209 109 431.209 109 429.772 111.75C428.998 112.864 428.998 112.864 428.209 114C427.549 113.67 426.889 113.34 426.209 113C427.529 110.36 428.849 107.72 430.209 105Z" fill="white"/>
<path d="M323.209 79C323.869 79 324.529 79 325.209 79C328.209 84.75 328.209 84.75 328.209 87C327.219 86.67 326.229 86.34 325.209 86C324.022 82.4375 324.022 82.4375 323.209 79Z" fill="white"/>
<path d="M853.209 75C856.863 76.2498 857.99 76.671 860.209 80C856.522 79.5017 854.604 78.8993 852.209 76C852.539 75.67 852.869 75.34 853.209 75Z" fill="white"/>
<path d="M730.209 72C729.879 72.66 729.549 73.32 729.209 74C725.579 73.67 721.949 73.34 718.209 73C718.209 72.67 718.209 72.34 718.209 72C722.526 71.2382 725.954 70.8393 730.209 72Z" fill="white"/>
<path d="M704.209 163C705.859 163 707.509 163 709.209 163C709.209 163.33 709.209 163.66 709.209 164C707.559 164 705.909 164 704.209 164C704.209 163.67 704.209 163.34 704.209 163Z" fill="white"/>
<path d="M535.209 152C535.869 152.66 536.529 153.32 537.209 154C536.219 154 535.229 154 534.209 154C534.539 153.34 534.869 152.68 535.209 152Z" fill="white"/>
<path d="M181.209 142C182.209 146 182.209 146 182.209 146L181.209 142Z" fill="white"/>
<path d="M181.209 92C182.209 96 182.209 96 182.209 96L181.209 92Z" fill="white"/>
<path d="M715.209 83C719.209 84 719.209 84 719.209 84L715.209 83Z" fill="white"/>
<path d="M337.209 72C341.209 73 341.209 73 341.209 73L337.209 72Z" fill="white"/>
<path d="M912.209 163C915.209 164 915.209 164 915.209 164L912.209 163Z" fill="white"/>
<path d="M292.209 163C295.209 164 295.209 164 295.209 164L292.209 163Z" fill="white"/>
<path d="M743.209 161C743.869 161 744.529 161 745.209 161C744.879 161.66 744.549 162.32 744.209 163C743.879 162.34 743.549 161.68 743.209 161Z" fill="white"/>
<path d="M453.209 150C454.199 150.495 454.199 150.495 455.209 151C454.219 151.495 454.219 151.495 453.209 152C453.209 151.34 453.209 150.68 453.209 150Z" fill="white"/>
<path d="M725.209 142C725.869 142.66 726.529 143.32 727.209 144C726.549 144 725.889 144 725.209 144C725.209 143.34 725.209 142.68 725.209 142Z" fill="white"/>
<path d="M922.209 130C923.199 130.495 923.199 130.495 924.209 131C923.219 131.495 923.219 131.495 922.209 132C922.209 131.34 922.209 130.68 922.209 130Z" fill="white"/>
<path d="M918.209 129C921.209 130 921.209 130 921.209 130L918.209 129Z" fill="white"/>
<path d="M662.209 112C662.869 112.66 663.529 113.32 664.209 114C663.549 114 662.889 114 662.209 114C662.209 113.34 662.209 112.68 662.209 112Z" fill="white"/>
<path d="M729.209 89C729.539 89.66 729.869 90.32 730.209 91C729.549 90.67 728.889 90.34 728.209 90C728.539 89.67 728.869 89.34 729.209 89Z" fill="white"/>
<path d="M344.209 72C347.209 73 347.209 73 347.209 73L344.209 72Z" fill="white"/>
<path d="M921.209 163C923.209 164 923.209 164 923.209 164L921.209 163Z" fill="white"/>
<path d="M402.209 163C404.209 164 404.209 164 404.209 164L402.209 163Z" fill="white"/>
<path d="M297.209 163C299.209 164 299.209 164 299.209 164L297.209 163Z" fill="white"/>
<path d="M901.209 162C903.209 163 903.209 163 903.209 163L901.209 162Z" fill="white" fill-opacity="0.545098"/>
<path d="M459.209 160C461.209 161 461.209 161 461.209 161L459.209 160Z" fill="white"/>
<path d="M526.209 137C528.209 138 528.209 138 528.209 138L526.209 137Z" fill="white"/>
<path d="M706.209 133C708.209 134 708.209 134 708.209 134L706.209 133Z" fill="white"/>
<path d="M669.209 123C671.209 124 671.209 124 671.209 124L669.209 123Z" fill="white"/>
<path d="M373.209 110C375.209 111 375.209 111 375.209 111L373.209 110Z" fill="white"/>
<path d="M654.209 94C656.209 95 656.209 95 656.209 95L654.209 94Z" fill="white"/>
<path d="M881.209 93C883.209 94 883.209 94 883.209 94L881.209 93Z" fill="white"/>
<path d="M920.209 82C922.209 83 922.209 83 922.209 83L920.209 82Z" fill="white"/>
<path d="M263.209 80C265.209 81 265.209 81 265.209 81L263.209 80Z" fill="white"/>
<path d="M448.209 72C450.209 73 450.209 73 450.209 73L448.209 72Z" fill="white"/>
<path d="M441.209 72C443.209 73 443.209 73 443.209 73L441.209 72Z" fill="white"/>
<path d="M433.209 72C435.209 73 435.209 73 435.209 73L433.209 72Z" fill="white"/>
<path d="M329.209 72C331.209 73 331.209 73 331.209 73L329.209 72Z" fill="white"/>
<path d="M289.209 72C291.209 73 291.209 73 291.209 73L289.209 72Z" fill="white"/>
<path d="M281.209 72C283.209 73 283.209 73 283.209 73L281.209 72Z" fill="white"/>
<path d="M265.209 72C267.209 73 267.209 73 267.209 73L265.209 72Z" fill="white"/>
<path d="M847.209 70C849.209 71 849.209 71 849.209 71L847.209 70Z" fill="white"/>
<path d="M596.209 53C598.209 54 598.209 54 598.209 54L596.209 53Z" fill="white"/>
<path d="M663.209 50C665.209 51 665.209 51 665.209 51L663.209 50Z" fill="white"/>
<path d="M660.209 49C662.209 50 662.209 50 662.209 50L660.209 49Z" fill="white"/>
<path d="M468.209 29C470.209 30 470.209 30 470.209 30L468.209 29Z" fill="white"/>
</svg>
