<svg width="254" height="254" viewBox="0 0 254 254" fill="none" xmlns="http://www.w3.org/2000/svg">
<circle cx="127" cy="127" r="127" fill="white"/>
<path fill-rule="evenodd" clip-rule="evenodd" d="M175.039 85.2948C172.12 85.2948 169.475 83.6122 168.23 80.9825C165.984 76.224 163.128 70.1429 161.437 66.8323C158.941 61.9095 154.894 59.045 149.291 59.0059C149.197 58.998 112.632 58.998 112.538 59.0059C106.934 59.045 102.895 61.9095 100.391 66.8323C98.7083 70.1429 95.8517 76.224 93.6055 80.9825C92.3611 83.6122 89.7079 85.2948 86.7965 85.2948C71.1749 85.2948 58.5196 97.9502 58.5196 113.564V160.022C58.5196 175.628 71.1749 188.291 86.7965 188.291H175.039C190.653 188.291 203.309 175.628 203.309 160.022V113.564C203.309 97.9502 190.653 85.2948 175.039 85.2948Z" stroke="#301565" stroke-width="12.9291" stroke-linecap="round" stroke-linejoin="round"/>
<path fill-rule="evenodd" clip-rule="evenodd" d="M125.097 157.2C119.071 153.491 113.465 149.126 108.38 144.183C104.804 140.623 102.082 136.284 100.423 131.496C97.4354 122.21 100.925 111.578 110.689 108.432C115.821 106.78 121.426 107.724 125.75 110.969C130.076 107.728 135.679 106.784 140.811 108.432C150.576 111.578 154.09 122.21 151.103 131.496C149.443 136.284 146.721 140.623 143.146 144.183C138.06 149.126 132.454 153.491 126.428 157.2L125.775 157.606L125.097 157.2Z" stroke="#301565" stroke-width="12.23" stroke-linecap="round" stroke-linejoin="round"/>
<path d="M136.142 118.886C139.1 119.83 141.201 122.486 141.464 125.61" stroke="#301565" stroke-width="2.29313" stroke-linecap="round" stroke-linejoin="round"/>
<path d="M167.192 114.975C166.702 114.925 166.218 114.797 165.676 114.579C165.073 114.311 164.551 113.97 164.046 113.457C163.14 112.493 162.615 111.232 162.615 109.931C162.615 109.239 162.756 108.554 163.032 107.934C163.308 107.305 163.636 106.775 164.228 106.198C164.679 105.806 165.141 105.49 165.771 105.212C167.642 104.471 169.868 104.914 171.259 106.304C171.676 106.714 172.027 107.21 172.222 107.628L172.337 107.924C172.617 108.554 172.758 109.239 172.758 109.931C172.758 111.258 172.24 112.486 171.278 113.508C170.447 114.345 169.355 114.86 168.19 114.975L167.687 115L167.192 114.975Z" fill="#301565" stroke="#301565" stroke-width="8.37865"/>
</svg>
