<svg width="24" height="24" viewBox="0 0 24 24" fill="none" xmlns="http://www.w3.org/2000/svg">
<path d="M14.1931 18.1863L16.0798 20.751L17.2881 19.8621L15.4014 17.2974L14.1931 18.1863ZM7.91981 20.751L9.80645 18.1863L8.59816 17.2974L6.71152 19.8621L7.91981 20.751ZM15.4614 21.1962L13.3805 20.2533L12.7614 21.6196L14.8423 22.5625L15.4614 21.1962ZM10.6191 20.2533L8.53817 21.1962L9.15728 22.5625L11.2382 21.6196L10.6191 20.2533ZM10.3546 6.22367V4.39522H8.85458V6.22367H10.3546ZM3.93444 11.5004L8.84847 8.71702L8.1092 7.41184L3.19517 10.1952L3.93444 11.5004ZM13.645 4.39522V6.22367H15.145V4.39522H13.645ZM15.1511 8.71702L20.0652 11.5004L20.8044 10.1952L15.8904 7.41185L15.1511 8.71702ZM19.8001 12.1036H15.5926V13.6036H19.8001V12.1036ZM13.645 13.9389V16.5377H15.145V13.9389H13.645ZM10.3546 16.5377V13.9389H8.85458V16.5377H10.3546ZM8.40698 12.1036H4.19954V13.6036H8.40698V12.1036ZM10.3546 13.9389C10.3546 12.8575 9.41145 12.1036 8.40698 12.1036V13.6036C8.72534 13.6036 8.85458 13.8215 8.85458 13.9389H10.3546ZM15.5926 12.1036C14.5881 12.1036 13.645 12.8575 13.645 13.9389H15.145C15.145 13.8215 15.2743 13.6036 15.5926 13.6036V12.1036ZM13.645 6.22367C13.645 7.26632 14.2375 8.19949 15.1511 8.71702L15.8904 7.41185C15.4035 7.13603 15.145 6.6779 15.145 6.22367H13.645ZM20.0652 11.5004C20.1787 11.5647 20.2187 11.6311 20.2348 11.6731C20.2528 11.7202 20.2562 11.7781 20.2362 11.8411C20.1995 11.957 20.0762 12.1036 19.8001 12.1036V13.6036C20.7271 13.6036 21.4313 13.0362 21.6663 12.2937C21.9055 11.5378 21.6329 10.6645 20.8044 10.1952L20.0652 11.5004ZM3.19517 10.1952C2.36672 10.6645 2.09409 11.5378 2.33329 12.2937C2.56827 13.0362 3.27249 13.6036 4.19954 13.6036V12.1036C3.92335 12.1036 3.80005 11.957 3.76339 11.8411C3.74344 11.7781 3.74676 11.7202 3.76479 11.6731C3.78085 11.6311 3.82092 11.5647 3.93444 11.5004L3.19517 10.1952ZM8.85458 6.22367C8.85458 6.6779 8.59614 7.13603 8.1092 7.41184L8.84847 8.71702C9.76215 8.19949 10.3546 7.26632 10.3546 6.22367H8.85458ZM13.3805 20.2533C12.5095 19.8586 11.4901 19.8586 10.6191 20.2533L11.2382 21.6196C11.7158 21.4032 12.2838 21.4032 12.7614 21.6196L13.3805 20.2533ZM9.80645 18.1863C10.1602 17.7054 10.3546 17.1317 10.3546 16.5377H8.85458C8.85458 16.8008 8.76906 17.0651 8.59816 17.2974L9.80645 18.1863ZM15.4014 17.2974C15.2305 17.0651 15.145 16.8008 15.145 16.5377H13.645C13.645 17.1317 13.8394 17.7054 14.1931 18.1863L15.4014 17.2974ZM6.71152 19.8621C6.12085 20.6651 6.33069 21.5893 6.87707 22.1502C7.41196 22.6993 8.29945 22.9512 9.15728 22.5625L8.53817 21.1962C8.29754 21.3053 8.07839 21.2338 7.95156 21.1036C7.88844 21.0388 7.8636 20.9745 7.85847 20.929C7.85447 20.8935 7.8574 20.8358 7.91981 20.751L6.71152 19.8621ZM16.0798 20.751C16.1422 20.8358 16.1451 20.8935 16.1411 20.929C16.136 20.9745 16.1112 21.0388 16.048 21.1036C15.9212 21.2338 15.7021 21.3053 15.4614 21.1962L14.8423 22.5625C15.7001 22.9512 16.5876 22.6993 17.1225 22.1502C17.6689 21.5893 17.8788 20.6651 17.2881 19.8621L16.0798 20.751ZM10.3546 4.39522C10.3546 3.48659 11.0912 2.75 11.9998 2.75V1.25C10.2627 1.25 8.85458 2.65816 8.85458 4.39522H10.3546ZM15.145 4.39522C15.145 2.65816 13.7369 1.25 11.9998 1.25V2.75C12.9084 2.75 13.645 3.48659 13.645 4.39522H15.145Z" fill="#344054"/>
</svg>
