<svg width="24" height="24" viewBox="0 0 24 24" fill="none" xmlns="http://www.w3.org/2000/svg">
<path d="M12.0001 13.0002H11.2501C11.2501 13.251 11.3754 13.4851 11.5841 13.6242L12.0001 13.0002ZM12.7501 8.00019C12.7501 7.58598 12.4143 7.25019 12.0001 7.25019C11.5859 7.25019 11.2501 7.58598 11.2501 8.00019H12.7501ZM14.5841 15.6242C14.9287 15.854 15.3944 15.7609 15.6241 15.4162C15.8539 15.0716 15.7608 14.6059 15.4161 14.3762L14.5841 15.6242ZM17.104 1.31302C16.7245 1.14706 16.2823 1.32018 16.1164 1.6997C15.9504 2.07921 16.1235 2.5214 16.503 2.68736L17.104 1.31302ZM21.3756 6.77986C21.6049 7.12478 22.0704 7.21849 22.4154 6.98915C22.7603 6.75981 22.854 6.29427 22.6246 5.94934L21.3756 6.77986ZM1.37553 5.94934C1.14619 6.29427 1.23989 6.75981 1.58482 6.98915C1.92975 7.21849 2.39529 7.12479 2.62463 6.77986L1.37553 5.94934ZM7.49715 2.68736C7.87667 2.5214 8.04979 2.07921 7.88383 1.6997C7.71787 1.32018 7.27568 1.14706 6.89617 1.31302L7.49715 2.68736ZM20.3994 22.4493C20.6474 22.781 21.1174 22.8489 21.4492 22.6009C21.7809 22.3529 21.8488 21.8829 21.6008 21.5511L20.3994 22.4493ZM19.3579 18.5511C19.1099 18.2194 18.6399 18.1515 18.3081 18.3995C17.9764 18.6475 17.9085 19.1175 18.1565 19.4493L19.3579 18.5511ZM2.39938 21.5511C2.15137 21.8829 2.21926 22.3529 2.55101 22.6009C2.88277 22.8489 3.35277 22.781 3.60078 22.4493L2.39938 21.5511ZM5.8435 19.4493C6.09151 19.1175 6.02362 18.6475 5.69186 18.3995C5.3601 18.1515 4.89011 18.2194 4.6421 18.5511L5.8435 19.4493ZM12.7501 13.0002V8.00019H11.2501V13.0002H12.7501ZM11.5841 13.6242L14.5841 15.6242L15.4161 14.3762L12.4161 12.3762L11.5841 13.6242ZM20.2501 13.0002C20.2501 17.5565 16.5564 21.2502 12.0001 21.2502V22.7502C17.3849 22.7502 21.7501 18.385 21.7501 13.0002H20.2501ZM12.0001 21.2502C7.44373 21.2502 3.75008 17.5565 3.75008 13.0002H2.25008C2.25008 18.385 6.6153 22.7502 12.0001 22.7502V21.2502ZM3.75008 13.0002C3.75008 8.44384 7.44373 4.75019 12.0001 4.75019V3.25019C6.6153 3.25019 2.25008 7.61541 2.25008 13.0002H3.75008ZM12.0001 4.75019C16.5564 4.75019 20.2501 8.44384 20.2501 13.0002H21.7501C21.7501 7.61541 17.3849 3.25019 12.0001 3.25019V4.75019ZM16.503 2.68736C18.4934 3.55772 20.1843 4.98821 21.3756 6.77986L22.6246 5.94934C21.2756 3.92042 19.3608 2.29988 17.104 1.31302L16.503 2.68736ZM2.62463 6.77986C3.81588 4.98821 5.50681 3.55772 7.49715 2.68736L6.89617 1.31302C4.63941 2.29988 2.72454 3.92042 1.37553 5.94934L2.62463 6.77986ZM21.6008 21.5511L19.3579 18.5511L18.1565 19.4493L20.3994 22.4493L21.6008 21.5511ZM3.60078 22.4493L5.8435 19.4493L4.6421 18.5511L2.39938 21.5511L3.60078 22.4493Z" fill="#344054"/>
</svg>
