<svg width="24" height="24" viewBox="0 0 24 24" fill="none" xmlns="http://www.w3.org/2000/svg">
<path d="M19 8.00004L19.45 8.60004C19.6389 8.4584 19.75 8.23611 19.75 8.00004C19.75 7.76397 19.6389 7.54168 19.45 7.40004L19 8.00004ZM19 16.75C19.4142 16.75 19.75 16.4142 19.75 16C19.75 15.5858 19.4142 15.25 19 15.25V16.75ZM15.45 4.40004C15.1186 4.15151 14.6485 4.21867 14.4 4.55004C14.1515 4.88141 14.2186 5.35151 14.55 5.60004L15.45 4.40004ZM14.55 10.4C14.2186 10.6485 14.1515 11.1186 14.4 11.45C14.6485 11.7814 15.1186 11.8485 15.45 11.6L14.55 10.4ZM19 7.25004H9V8.75004H19V7.25004ZM9 16.75H19V15.25H9V16.75ZM19.45 7.40004L15.45 4.40004L14.55 5.60004L18.55 8.60004L19.45 7.40004ZM18.55 7.40004L14.55 10.4L15.45 11.6L19.45 8.60004L18.55 7.40004ZM4.25 12C4.25 14.6234 6.37665 16.75 9 16.75V15.25C7.20507 15.25 5.75 13.7949 5.75 12H4.25ZM9 7.25004C6.37665 7.25004 4.25 9.37669 4.25 12H5.75C5.75 10.2051 7.20507 8.75004 9 8.75004V7.25004Z" fill="#344054"/>
</svg>
