<svg width="24" height="24" viewBox="0 0 24 24" fill="none" xmlns="http://www.w3.org/2000/svg">
<path d="M14.531 7.86407C14.8238 7.57118 14.8238 7.0963 14.531 6.80341C14.2381 6.51052 13.7632 6.51052 13.4703 6.80341L14.531 7.86407ZM19.8643 13.1974C20.1572 12.9045 20.1572 12.4297 19.8643 12.1368C19.5714 11.8439 19.0965 11.8439 18.8036 12.1368L19.8643 13.1974ZM13.4703 6.80341L8.13695 12.1368L9.19761 13.1974L14.531 7.86407L13.4703 6.80341ZM11.8643 15.8641L17.1976 10.5308L16.137 9.47008L10.8036 14.8034L11.8643 15.8641ZM10.8036 4.13674L5.47028 9.47008L6.53094 10.5308L11.8643 5.1974L10.8036 4.13674ZM14.531 18.5308L19.8643 13.1974L18.8036 12.1368L13.4703 17.4701L14.531 18.5308ZM5.47028 18.5308C7.97231 21.0328 12.0289 21.0328 14.531 18.5308L13.4703 17.4701C11.554 19.3864 8.44718 19.3864 6.53094 17.4701L5.47028 18.5308ZM5.47028 9.47008C2.96824 11.9721 2.96825 16.0287 5.47028 18.5308L6.53094 17.4701C4.61469 15.5539 4.61469 12.447 6.53094 10.5308L5.47028 9.47008ZM17.1976 4.13674C15.432 2.37109 12.5693 2.37109 10.8036 4.13674L11.8643 5.1974C13.0441 4.01754 14.9571 4.01754 16.137 5.1974L17.1976 4.13674ZM17.1976 10.5308C18.9633 8.76508 18.9633 5.9024 17.1976 4.13674L16.137 5.1974C17.3168 6.37727 17.3168 8.29021 16.137 9.47008L17.1976 10.5308ZM8.13695 15.8641C9.16622 16.8934 10.835 16.8934 11.8643 15.8641L10.8036 14.8034C10.3601 15.2469 9.64109 15.2469 9.19761 14.8034L8.13695 15.8641ZM8.13695 12.1368C7.10767 13.1661 7.10767 14.8348 8.13695 15.8641L9.19761 14.8034C8.75412 14.36 8.75412 13.6409 9.19761 13.1974L8.13695 12.1368Z" fill="#344054"/>
</svg>
