<svg width="24" height="24" viewBox="0 0 24 24" fill="none" xmlns="http://www.w3.org/2000/svg">
<path d="M12 22C17.5228 22 22 17.5228 22 12C22 6.47715 17.5228 2 12 2C6.47715 2 2 6.47715 2 12C2 17.5228 6.47715 22 12 22Z" stroke="#344054" stroke-width="1.5"/>
<path d="M10 12.25C9.58579 12.25 9.25 12.5858 9.25 13C9.25 13.4142 9.58579 13.75 10 13.75V12.25ZM14 13.75C14.4142 13.75 14.75 13.4142 14.75 13C14.75 12.5858 14.4142 12.25 14 12.25V13.75ZM10 13.75H14V12.25H10V13.75Z" fill="#344054"/>
<path d="M12.0002 8L12.671 7.66459C12.544 7.4105 12.2843 7.25 12.0002 7.25C11.7161 7.25 11.4564 7.4105 11.3294 7.66459L12.0002 8ZM7.32934 15.6646C7.1441 16.0351 7.29427 16.4856 7.66475 16.6708C8.03523 16.8561 8.48574 16.7059 8.67098 16.3354L7.32934 15.6646ZM15.3294 16.3354C15.5146 16.7059 15.9651 16.8561 16.3356 16.6708C16.7061 16.4856 16.8563 16.0351 16.671 15.6646L15.3294 16.3354ZM11.3294 7.66459L7.32934 15.6646L8.67098 16.3354L12.671 8.33541L11.3294 7.66459ZM16.671 15.6646L12.671 7.66459L11.3294 8.33541L15.3294 16.3354L16.671 15.6646Z" fill="#344054"/>
</svg>
