<svg width="24" height="24" viewBox="0 0 24 24" fill="none" xmlns="http://www.w3.org/2000/svg">
<path d="M15.25 6C15.25 6.41421 15.5858 6.75 16 6.75C16.4142 6.75 16.75 6.41421 16.75 6H15.25ZM7.25 6C7.25 6.41421 7.58579 6.75 8 6.75C8.41421 6.75 8.75 6.41421 8.75 6H7.25ZM12 2.75C13.7949 2.75 15.25 4.20507 15.25 6H16.75C16.75 3.37665 14.6234 1.25 12 1.25V2.75ZM12 1.25C9.37665 1.25 7.25 3.37665 7.25 6H8.75C8.75 4.20507 10.2051 2.75 12 2.75V1.25Z" fill="#344054"/>
<path d="M8.53097 6.75H15.4687V5.25H8.53097V6.75ZM18.6936 9.59689L19.6936 17.5969L21.182 17.4108L20.182 9.41084L18.6936 9.59689ZM16.4687 21.25H7.53097V22.75H16.4687V21.25ZM4.30606 17.5969L5.30606 9.59689L3.81765 9.41083L2.81765 17.4108L4.30606 17.5969ZM7.53097 21.25C5.5761 21.25 4.06359 19.5367 4.30606 17.5969L2.81765 17.4108C2.46327 20.2459 4.67385 22.75 7.53097 22.75V21.25ZM19.6936 17.5969C19.9361 19.5367 18.4235 21.25 16.4687 21.25V22.75C19.3258 22.75 21.5364 20.2459 21.182 17.4108L19.6936 17.5969ZM15.4687 6.75C17.1077 6.75 18.4903 7.97049 18.6936 9.59689L20.182 9.41084C19.8849 7.0338 17.8642 5.25 15.4687 5.25V6.75ZM8.53097 5.25C6.13543 5.25 4.11478 7.0338 3.81765 9.41083L5.30606 9.59689C5.50936 7.97049 6.89192 6.75 8.53097 6.75V5.25Z" fill="#344054"/>
<path d="M9.37098 15.3482C9.01095 15.1434 8.55305 15.2692 8.34823 15.6293C8.14342 15.9893 8.26925 16.4472 8.62928 16.652L9.37098 15.3482ZM15.3684 16.6534C15.7293 16.45 15.8568 15.9926 15.6534 15.6318C15.45 15.2709 14.9926 15.1434 14.6318 15.3468L15.3684 16.6534ZM8.62928 16.652C9.84923 17.346 10.8979 17.7522 12.0029 17.7501C13.1066 17.748 14.1533 17.3385 15.3684 16.6534L14.6318 15.3468C13.4945 15.988 12.7192 16.2487 12 16.2501C11.2822 16.2515 10.5071 15.9946 9.37098 15.3482L8.62928 16.652Z" fill="#344054"/>
</svg>
