<svg width="24" height="24" viewBox="0 0 24 24" fill="none" xmlns="http://www.w3.org/2000/svg">
<path d="M15.25 6C15.25 6.41421 15.5858 6.75 16 6.75C16.4142 6.75 16.75 6.41421 16.75 6H15.25ZM7.25 6C7.25 6.41421 7.58579 6.75 8 6.75C8.41421 6.75 8.75 6.41421 8.75 6H7.25ZM12 2.75C13.7949 2.75 15.25 4.20507 15.25 6H16.75C16.75 3.37665 14.6234 1.25 12 1.25V2.75ZM12 1.25C9.37665 1.25 7.25 3.37665 7.25 6H8.75C8.75 4.20507 10.2051 2.75 12 2.75V1.25Z" fill="#344054"/>
<path d="M8.53097 6.75H15.4687V5.25H8.53097V6.75ZM18.6936 9.59689L19.6936 17.5969L21.182 17.4108L20.182 9.41084L18.6936 9.59689ZM16.4687 21.25H7.53097V22.75H16.4687V21.25ZM4.30606 17.5969L5.30606 9.59689L3.81765 9.41083L2.81765 17.4108L4.30606 17.5969ZM7.53097 21.25C5.5761 21.25 4.06359 19.5367 4.30606 17.5969L2.81765 17.4108C2.46327 20.2459 4.67385 22.75 7.53097 22.75V21.25ZM19.6936 17.5969C19.9361 19.5367 18.4235 21.25 16.4687 21.25V22.75C19.3258 22.75 21.5364 20.2459 21.182 17.4108L19.6936 17.5969ZM15.4687 6.75C17.1077 6.75 18.4903 7.97049 18.6936 9.59689L20.182 9.41084C19.8849 7.0338 17.8642 5.25 15.4687 5.25V6.75ZM8.53097 5.25C6.13543 5.25 4.11478 7.0338 3.81765 9.41083L5.30606 9.59689C5.50936 7.97049 6.89192 6.75 8.53097 6.75V5.25Z" fill="#344054"/>
<path d="M9 13.25C8.58579 13.25 8.25 13.5858 8.25 14C8.25 14.4142 8.58579 14.75 9 14.75V13.25ZM15 14.75C15.4142 14.75 15.75 14.4142 15.75 14C15.75 13.5858 15.4142 13.25 15 13.25V14.75ZM9 14.75H15V13.25H9V14.75Z" fill="#344054"/>
<path d="M12.75 11C12.75 10.5858 12.4142 10.25 12 10.25C11.5858 10.25 11.25 10.5858 11.25 11H12.75ZM11.25 17C11.25 17.4142 11.5858 17.75 12 17.75C12.4142 17.75 12.75 17.4142 12.75 17H11.25ZM11.25 11V17H12.75V11H11.25Z" fill="#344054"/>
</svg>
