<svg width="24" height="24" viewBox="0 0 24 24" fill="none" xmlns="http://www.w3.org/2000/svg">
<path d="M15.25 6C15.25 6.41421 15.5858 6.75 16 6.75C16.4142 6.75 16.75 6.41421 16.75 6H15.25ZM7.25 6C7.25 6.41421 7.58579 6.75 8 6.75C8.41421 6.75 8.75 6.41421 8.75 6H7.25ZM12 2.75C13.7949 2.75 15.25 4.20507 15.25 6H16.75C16.75 3.37665 14.6234 1.25 12 1.25V2.75ZM12 1.25C9.37665 1.25 7.25 3.37665 7.25 6H8.75C8.75 4.20507 10.2051 2.75 12 2.75V1.25Z" fill="#344054"/>
<path d="M8.53097 6.75H15.4687V5.25H8.53097V6.75ZM18.6937 9.59689L19.6937 17.5969L21.1821 17.4108L20.1821 9.41084L18.6937 9.59689ZM16.4687 21.25H7.53097V22.75H16.4687V21.25ZM4.30606 17.5969L5.30606 9.59689L3.81765 9.41083L2.81765 17.4108L4.30606 17.5969ZM7.53097 21.25C5.5761 21.25 4.06359 19.5367 4.30606 17.5969L2.81765 17.4108C2.46327 20.2459 4.67385 22.75 7.53097 22.75V21.25ZM19.6937 17.5969C19.9361 19.5367 18.4236 21.25 16.4687 21.25V22.75C19.3259 22.75 21.5365 20.2459 21.1821 17.4108L19.6937 17.5969ZM15.4687 6.75C17.1078 6.75 18.4904 7.97049 18.6937 9.59689L20.1821 9.41084C19.8849 7.0338 17.8643 5.25 15.4687 5.25V6.75ZM8.53097 5.25C6.13543 5.25 4.11478 7.0338 3.81765 9.41083L5.30606 9.59689C5.50936 7.97049 6.89192 6.75 8.53097 6.75V5.25Z" fill="#344054"/>
<path d="M12.0002 11.9999L11.4699 12.5302C11.6105 12.6709 11.8013 12.7499 12.0002 12.7499C12.1991 12.7499 12.3899 12.6709 12.5305 12.5302L12.0002 11.9999ZM12.5305 12.5302L12.7957 12.2651L11.735 11.2044L11.4699 11.4696L12.5305 12.5302ZM11.2047 12.2651L11.4699 12.5302L12.5305 11.4696L12.2654 11.2044L11.2047 12.2651ZM8.55302 14.9167L10.4092 16.7729L11.4699 15.7122L9.61368 13.8561L8.55302 14.9167ZM13.5912 16.7729L15.4473 14.9167L14.3867 13.8561L12.5305 15.7122L13.5912 16.7729ZM14.3867 12.2651C14.826 12.7044 14.826 13.4167 14.3867 13.8561L15.4473 14.9167C16.4725 13.8916 16.4725 12.2295 15.4473 11.2044L14.3867 12.2651ZM15.4473 11.2044C14.4222 10.1793 12.7601 10.1793 11.735 11.2044L12.7957 12.2651C13.235 11.8257 13.9473 11.8257 14.3867 12.2651L15.4473 11.2044ZM9.61368 12.2651C10.053 11.8257 10.7654 11.8257 11.2047 12.2651L12.2654 11.2044C11.2402 10.1793 9.57815 10.1793 8.55302 11.2044L9.61368 12.2651ZM10.4092 16.7729C11.2879 17.6516 12.7125 17.6516 13.5912 16.7729L12.5305 15.7122C12.2376 16.0051 11.7627 16.0051 11.4699 15.7122L10.4092 16.7729ZM8.55302 11.2044C7.5279 12.2295 7.52789 13.8916 8.55302 14.9167L9.61368 13.8561C9.17434 13.4167 9.17434 12.7044 9.61368 12.2651L8.55302 11.2044Z" fill="#344054"/>
</svg>
