<svg width="24" height="24" viewBox="0 0 24 24" fill="none" xmlns="http://www.w3.org/2000/svg">
<path d="M15.25 6C15.25 6.41421 15.5858 6.75 16 6.75C16.4142 6.75 16.75 6.41421 16.75 6H15.25ZM7.25 6C7.25 6.41421 7.58579 6.75 8 6.75C8.41421 6.75 8.75 6.41421 8.75 6H7.25ZM12 2.75C13.7949 2.75 15.25 4.20507 15.25 6H16.75C16.75 3.37665 14.6234 1.25 12 1.25V2.75ZM12 1.25C9.37665 1.25 7.25 3.37665 7.25 6H8.75C8.75 4.20507 10.2051 2.75 12 2.75V1.25Z" fill="#344054"/>
<path d="M8.53097 6.75H15.4688V5.25H8.53097V6.75ZM18.6937 9.59689L19.6937 17.5969L21.1821 17.4108L20.1821 9.41084L18.6937 9.59689ZM16.4688 21.25H7.53097V22.75H16.4688V21.25ZM4.30607 17.5969L5.30607 9.59689L3.81765 9.41083L2.81765 17.4108L4.30607 17.5969ZM7.53097 21.25C5.5761 21.25 4.0636 19.5367 4.30607 17.5969L2.81765 17.4108C2.46327 20.2459 4.67386 22.75 7.53097 22.75V21.25ZM19.6937 17.5969C19.9361 19.5367 18.4236 21.25 16.4688 21.25V22.75C19.3259 22.75 21.5365 20.2459 21.1821 17.4108L19.6937 17.5969ZM15.4688 6.75C17.1078 6.75 18.4904 7.97049 18.6937 9.59689L20.1821 9.41084C19.885 7.0338 17.8643 5.25 15.4688 5.25V6.75ZM8.53097 5.25C6.13544 5.25 4.11478 7.0338 3.81765 9.41083L5.30607 9.59689C5.50937 7.97049 6.89192 6.75 8.53097 6.75V5.25Z" fill="#344054"/>
</svg>
