<svg width="24" height="24" viewBox="0 0 24 24" fill="none" xmlns="http://www.w3.org/2000/svg">
<path d="M6 5C6 3.89543 5.10457 3 4 3C2.89543 3 2 3.89543 2 5V19C2 20.1046 2.89543 21 4 21C5.10457 21 6 20.1046 6 19V5Z" stroke="#344054" stroke-width="1.5"/>
<path d="M14 10C14 8.89543 13.1046 8 12 8C10.8954 8 10 8.89543 10 10V19C10 20.1046 10.8954 21 12 21C13.1046 21 14 20.1046 14 19V10Z" stroke="#344054" stroke-width="1.5"/>
<path d="M22 5C22 3.89543 21.1046 3 20 3C18.8954 3 18 3.89543 18 5V19C18 20.1046 18.8954 21 20 21C21.1046 21 22 20.1046 22 19V5Z" stroke="#344054" stroke-width="1.5"/>
</svg>
