<svg width="24" height="24" viewBox="0 0 24 24" fill="none" xmlns="http://www.w3.org/2000/svg">
<path d="M16 13C16.5523 13 17 12.5523 17 12C17 11.4477 16.5523 11 16 11C15.4477 11 15 11.4477 15 12C15 12.5523 15.4477 13 16 13Z" fill="#344054"/>
<path d="M4 7.99968L14.8857 15.2568C15.4418 15.6276 15.4847 16.4292 14.9711 16.8571L11.6402 19.6329C10.9889 20.1757 10 19.7125 10 18.8647V5.13472C10 4.28688 10.9889 3.82373 11.6402 4.3665L14.9711 7.1423C15.4847 7.57023 15.4418 8.37179 14.8857 8.74257L4 15.9997" stroke="#344054" stroke-width="1.5" stroke-linecap="round"/>
<path d="M19.3401 8.22861C19.0683 7.91603 18.5946 7.88295 18.282 8.15473C17.9695 8.42651 17.9364 8.90023 18.2082 9.21282L19.3401 8.22861ZM18.1677 14.8328C17.8914 15.1414 17.9177 15.6156 18.2264 15.8918C18.5351 16.168 19.0092 16.1417 19.2854 15.8331L18.1677 14.8328ZM18.2082 9.21282C18.8573 9.95939 19.2495 10.9329 19.2495 11.9998H20.7495C20.7495 10.5576 20.2175 9.23773 19.3401 8.22861L18.2082 9.21282ZM19.2495 11.9998C19.2495 13.0887 18.841 14.0804 18.1677 14.8328L19.2854 15.8331C20.1953 14.8163 20.7495 13.4719 20.7495 11.9998H19.2495Z" fill="#344054"/>
</svg>
