<svg width="24" height="24" viewBox="0 0 24 24" fill="none" xmlns="http://www.w3.org/2000/svg">
<path d="M13 22.75C13.4142 22.75 13.75 22.4142 13.75 22C13.75 21.5858 13.4142 21.25 13 21.25V22.75ZM21.25 13C21.25 13.4142 21.5858 13.75 22 13.75C22.4142 13.75 22.75 13.4142 22.75 13H21.25ZM6 2.75H18V1.25H6V2.75ZM2.75 18V6H1.25V18H2.75ZM13 21.25H6V22.75H13V21.25ZM21.25 6V13H22.75V6H21.25ZM1.25 18C1.25 20.6234 3.37665 22.75 6 22.75V21.25C4.20507 21.25 2.75 19.7949 2.75 18H1.25ZM18 2.75C19.7949 2.75 21.25 4.20507 21.25 6H22.75C22.75 3.37665 20.6234 1.25 18 1.25V2.75ZM6 1.25C3.37665 1.25 1.25 3.37665 1.25 6H2.75C2.75 4.20507 4.20507 2.75 6 2.75V1.25Z" fill="#344054"/>
<path d="M8 2V1.25C7.58579 1.25 7.25 1.58579 7.25 2H8ZM16 2H16.75C16.75 1.58579 16.4142 1.25 16 1.25V2ZM8 2.75H16V1.25H8V2.75ZM15.25 2V9.58579H16.75V2H15.25ZM8.75 9.58579V2H7.25V9.58579H8.75ZM14.8232 9.76256L13.2374 8.17678L12.1768 9.23744L13.7626 10.8232L14.8232 9.76256ZM10.7626 8.17678L9.17678 9.76256L10.2374 10.8232L11.8232 9.23744L10.7626 8.17678ZM13.2374 8.17678C12.554 7.49336 11.446 7.49336 10.7626 8.17678L11.8232 9.23744C11.9209 9.13981 12.0791 9.13981 12.1768 9.23744L13.2374 8.17678ZM7.25 9.58579C7.25 11.1449 9.135 11.9257 10.2374 10.8232L9.17678 9.76256C9.01929 9.92005 8.75 9.80851 8.75 9.58579H7.25ZM15.25 9.58579C15.25 9.80851 14.9807 9.92005 14.8232 9.76256L13.7626 10.8232C14.865 11.9257 16.75 11.1449 16.75 9.58579H15.25Z" fill="#344054"/>
<path d="M18.0002 16.9999L17.4699 17.5302C17.6105 17.6709 17.8013 17.7499 18.0002 17.7499C18.1991 17.7499 18.3899 17.6709 18.5305 17.5302L18.0002 16.9999ZM18.5305 17.5302L18.7957 17.2651L17.735 16.2044L17.4699 16.4696L18.5305 17.5302ZM17.2047 17.2651L17.4699 17.5302L18.5305 16.4696L18.2654 16.2044L17.2047 17.2651ZM14.5531 19.9167L16.4092 21.7729L17.4699 20.7122L15.6137 18.8561L14.5531 19.9167ZM19.5912 21.7729L21.4473 19.9167L20.3867 18.8561L18.5305 20.7122L19.5912 21.7729ZM20.3867 17.2651C20.826 17.7044 20.826 18.4167 20.3867 18.8561L21.4473 19.9167C22.4725 18.8916 22.4725 17.2295 21.4473 16.2044L20.3867 17.2651ZM21.4473 16.2044C20.4222 15.1793 18.7602 15.1793 17.735 16.2044L18.7957 17.2651C19.235 16.8257 19.9473 16.8257 20.3867 17.2651L21.4473 16.2044ZM15.6137 17.2651C16.0531 16.8257 16.7654 16.8257 17.2047 17.2651L18.2654 16.2044C17.2402 15.1793 15.5782 15.1793 14.5531 16.2044L15.6137 17.2651ZM16.4092 21.7729C17.2879 22.6516 18.7125 22.6516 19.5912 21.7729L18.5305 20.7122C18.2376 21.0051 17.7628 21.0051 17.4699 20.7122L16.4092 21.7729ZM14.5531 16.2044C13.5279 17.2295 13.5279 18.8916 14.5531 19.9167L15.6137 18.8561C15.1744 18.4167 15.1744 17.7044 15.6137 17.2651L14.5531 16.2044Z" fill="#344054"/>
</svg>
