<svg width="24" height="24" viewBox="0 0 24 24" fill="none" xmlns="http://www.w3.org/2000/svg">
<path d="M7.25008 6C7.25008 6.41421 7.58587 6.75 8.00008 6.75C8.41429 6.75 8.75008 6.41421 8.75008 6H7.25008ZM15.2501 6C15.2501 6.41421 15.5859 6.75 16.0001 6.75C16.4143 6.75 16.7501 6.41421 16.7501 6H15.2501ZM2.41586 9.72328C2.07113 9.49365 1.60551 9.58696 1.37588 9.9317C1.14625 10.2764 1.23956 10.7421 1.5843 10.9717L2.41586 9.72328ZM22.4159 10.9717C22.7606 10.7421 22.8539 10.2764 22.6243 9.9317C22.3947 9.58696 21.9291 9.49365 21.5843 9.72328L22.4159 10.9717ZM9.90305 13.6571C10.3152 13.6984 10.6828 13.3977 10.724 12.9856C10.7653 12.5734 10.4646 12.2058 10.0525 12.1646L9.90305 13.6571ZM13.9477 12.1646C13.5356 12.2058 13.2349 12.5734 13.2762 12.9856C13.3174 13.3977 13.685 13.6984 14.0971 13.6571L13.9477 12.1646ZM6.00008 6.75H18.0001V5.25H6.00008V6.75ZM21.2501 10V18H22.7501V10H21.2501ZM18.0001 21.25H6.00008V22.75H18.0001V21.25ZM2.75008 18V10H1.25008V18H2.75008ZM6.00008 21.25C4.20515 21.25 2.75008 19.7949 2.75008 18H1.25008C1.25008 20.6234 3.37673 22.75 6.00008 22.75V21.25ZM21.2501 18C21.2501 19.7949 19.795 21.25 18.0001 21.25V22.75C20.6235 22.75 22.7501 20.6234 22.7501 18H21.2501ZM18.0001 6.75C19.795 6.75 21.2501 8.20507 21.2501 10H22.7501C22.7501 7.37665 20.6235 5.25 18.0001 5.25V6.75ZM6.00008 5.25C3.37673 5.25 1.25008 7.37665 1.25008 10H2.75008C2.75008 8.20507 4.20515 6.75 6.00008 6.75V5.25ZM8.75008 6V5H7.25008V6H8.75008ZM11.0001 2.75H13.0001V1.25H11.0001V2.75ZM15.2501 5V6H16.7501V5H15.2501ZM13.0001 2.75C14.2427 2.75 15.2501 3.75736 15.2501 5H16.7501C16.7501 2.92893 15.0712 1.25 13.0001 1.25V2.75ZM8.75008 5C8.75008 3.75736 9.75744 2.75 11.0001 2.75V1.25C8.92901 1.25 7.25008 2.92893 7.25008 5H8.75008ZM2.00008 10.3475C1.5843 10.9717 1.58408 10.9715 1.5843 10.9717C1.58438 10.9717 1.58501 10.9722 1.58519 10.9723C1.58553 10.9725 1.58592 10.9728 1.58636 10.9731C1.58724 10.9736 1.58832 10.9743 1.58958 10.9752C1.59211 10.9768 1.5954 10.979 1.59945 10.9816C1.60755 10.9869 1.61869 10.9941 1.63282 11.0032C1.66109 11.0212 1.70135 11.0465 1.75326 11.0781C1.85707 11.1414 2.00757 11.2301 2.20207 11.3369C2.59094 11.5506 3.15652 11.8373 3.87718 12.1387C5.31744 12.741 7.38463 13.405 9.90305 13.6571L10.0525 12.1646C7.71124 11.9302 5.78959 11.3126 4.45592 10.7548C3.78962 10.4762 3.27197 10.2133 2.92434 10.0223C2.75059 9.92682 2.61953 9.84945 2.53384 9.79723C2.491 9.77113 2.45953 9.75132 2.43975 9.73869C2.42986 9.73238 2.42289 9.72787 2.4189 9.72526C2.4169 9.72396 2.41636 9.72362 2.41586 9.72328C2.41582 9.72325 2.41594 9.72333 2.41586 9.72328C2.41602 9.72339 2.41586 9.72328 2.00008 10.3475ZM14.0971 13.6571C16.6156 13.405 18.6827 12.741 20.123 12.1387C20.8437 11.8373 21.4092 11.5506 21.7981 11.3369C21.9926 11.2301 22.1431 11.1414 22.2469 11.0781C22.2988 11.0465 22.3391 11.0212 22.3674 11.0032C22.3815 10.9941 22.3926 10.9869 22.4007 10.9816C22.4048 10.979 22.4081 10.9768 22.4106 10.9752C22.4119 10.9743 22.4129 10.9736 22.4138 10.9731C22.4143 10.9728 22.4146 10.9725 22.415 10.9723C22.4152 10.9722 22.4158 10.9717 22.4159 10.9717C22.4161 10.9715 22.4159 10.9717 22.0001 10.3475C21.5843 9.72328 21.5841 9.72339 21.5843 9.72328C21.5842 9.72333 21.5843 9.72325 21.5843 9.72328C21.5845 9.72318 21.5852 9.72271 21.5852 9.72267C21.5854 9.72259 21.5855 9.7225 21.5852 9.72267C21.5847 9.72301 21.5833 9.72396 21.5813 9.72526C21.5773 9.72787 21.5703 9.73238 21.5604 9.73869C21.5407 9.75132 21.5092 9.77112 21.4663 9.79723C21.3806 9.84945 21.2496 9.92682 21.0758 10.0223C20.7282 10.2133 20.2106 10.4762 19.5443 10.7548C18.2106 11.3126 16.2889 11.9302 13.9477 12.1646L14.0971 13.6571Z" fill="#344054"/>
<path d="M14 12.1602V13.1602C14 13.1702 14 13.1702 14 13.1802C14 14.2702 13.99 15.1602 12 15.1602C10.02 15.1602 10 14.2802 10 13.1902V12.1602C10 11.1602 10 11.1602 11 11.1602H13C14 11.1602 14 11.1602 14 12.1602Z" stroke="#344054" stroke-width="1.5" stroke-miterlimit="10" stroke-linecap="round" stroke-linejoin="round"/>
</svg>
