<svg width="24" height="24" viewBox="0 0 24 24" fill="none" xmlns="http://www.w3.org/2000/svg">
<path d="M3 7.5C3 5.29086 4.79086 3.5 7 3.5H17C19.2091 3.5 21 5.29086 21 7.5V18C21 20.2091 19.2091 22 17 22H7C4.79086 22 3 20.2091 3 18V7.5Z" stroke="#344054" stroke-width="1.5"/>
<path d="M3 9H21" stroke="#344054" stroke-width="1.5" stroke-linecap="round"/>
<path d="M8 2V5" stroke="#344054" stroke-width="1.5" stroke-linecap="round" stroke-linejoin="round"/>
<path d="M16 2V5" stroke="#344054" stroke-width="1.5" stroke-linecap="round" stroke-linejoin="round"/>
<path d="M12 16C12.5523 16 13 15.5523 13 15C13 14.4477 12.5523 14 12 14C11.4477 14 11 14.4477 11 15C11 15.5523 11.4477 16 12 16Z" fill="#344054"/>
<path d="M16 16C16.5523 16 17 15.5523 17 15C17 14.4477 16.5523 14 16 14C15.4477 14 15 14.4477 15 15C15 15.5523 15.4477 16 16 16Z" fill="#344054"/>
<path d="M8 16C8.55228 16 9 15.5523 9 15C9 14.4477 8.55228 14 8 14C7.44772 14 7 14.4477 7 15C7 15.5523 7.44772 16 8 16Z" fill="#344054"/>
</svg>
