<svg width="24" height="24" viewBox="0 0 24 24" fill="none" xmlns="http://www.w3.org/2000/svg">
<path d="M9.5 19.5C9.5 20.6046 8.82843 21 8 21C7.17157 21 6.5 20.6046 6.5 19.5C6.5 18.3954 8 17 8 17C8 17 9.5 18.3954 9.5 19.5Z" stroke="#344054" stroke-width="1.5" stroke-linejoin="round"/>
<path d="M17.5 19.5C17.5 20.6046 16.8284 21 16 21C15.1716 21 14.5 20.6046 14.5 19.5C14.5 18.3954 16 17 16 17C16 17 17.5 18.3954 17.5 19.5Z" stroke="#344054" stroke-width="1.5" stroke-linejoin="round"/>
<path d="M13.5 13.5C13.5 14.6046 12.8284 15 12 15C11.1716 15 10.5 14.6046 10.5 13.5C10.5 12.3954 12 11 12 11C12 11 13.5 12.3954 13.5 13.5Z" stroke="#344054" stroke-width="1.5" stroke-linejoin="round"/>
<path d="M10.0718 6.8282L10.6022 7.35853C10.7428 7.21788 10.8218 7.02711 10.8218 6.8282C10.8218 6.62929 10.7428 6.43852 10.6022 6.29787L10.0718 6.8282ZM5.82918 11.0708L5.29885 11.6012C5.59174 11.8941 6.06662 11.8941 6.35951 11.6012L5.82918 11.0708ZM6.71306 4.5301L9.54149 7.35853L10.6022 6.29787L7.77372 3.46944L6.71306 4.5301ZM9.54149 6.29787L5.29885 10.5405L6.35951 11.6012L10.6022 7.35853L9.54149 6.29787ZM6.35951 10.5405L3.53108 7.71208L2.47042 8.77274L5.29885 11.6012L6.35951 10.5405ZM3.53108 4.5301C4.40976 3.65142 5.83438 3.65142 6.71306 4.5301L7.77372 3.46944C6.30926 2.00498 3.93489 2.00498 2.47042 3.46944L3.53108 4.5301ZM2.47042 3.46944C1.00596 4.93391 1.00596 7.30828 2.47042 8.77274L3.53108 7.71208C2.6524 6.8334 2.6524 5.40878 3.53108 4.5301L2.47042 3.46944Z" fill="#344054"/>
<path d="M13.9287 6.8282L13.3984 6.29787C13.2577 6.43852 13.1787 6.62929 13.1787 6.8282C13.1787 7.02711 13.2577 7.21788 13.3984 7.35853L13.9287 6.8282ZM18.1714 11.0708L17.641 11.6012C17.9339 11.8941 18.4088 11.8941 18.7017 11.6012L18.1714 11.0708ZM16.2268 3.46944L13.3984 6.29787L14.459 7.35853L17.2875 4.5301L16.2268 3.46944ZM13.3984 7.35853L17.641 11.6012L18.7017 10.5405L14.459 6.29787L13.3984 7.35853ZM18.7017 11.6012L21.5301 8.77274L20.4694 7.71208L17.641 10.5405L18.7017 11.6012ZM21.5301 3.46944C20.0656 2.00498 17.6913 2.00498 16.2268 3.46944L17.2875 4.5301C18.1661 3.65142 19.5908 3.65142 20.4694 4.5301L21.5301 3.46944ZM20.4694 4.5301C21.3481 5.40878 21.3481 6.8334 20.4694 7.71208L21.5301 8.77274C22.9946 7.30828 22.9946 4.93391 21.5301 3.46944L20.4694 4.5301Z" fill="#344054"/>
</svg>
