<svg width="24" height="24" viewBox="0 0 24 24" fill="none" xmlns="http://www.w3.org/2000/svg">
<path d="M18.6782 12.9114L12.9114 18.6782L13.972 19.7388L19.7388 13.972L18.6782 12.9114ZM5.32184 11.0886L11.0886 5.32184L10.028 4.26118L4.26118 10.028L5.32184 11.0886ZM5.32184 18.6782C3.22605 16.5824 3.22605 13.1844 5.32184 11.0886L4.26118 10.028C1.57961 12.7095 1.57961 17.0572 4.26118 19.7388L5.32184 18.6782ZM12.9114 18.6782C10.8156 20.7739 7.41763 20.7739 5.32184 18.6782L4.26118 19.7388C6.94276 22.4204 11.2905 22.4204 13.972 19.7388L12.9114 18.6782ZM18.6782 5.32184C20.7739 7.41763 20.7739 10.8156 18.6782 12.9114L19.7388 13.972C22.4204 11.2905 22.4204 6.94276 19.7388 4.26118L18.6782 5.32184ZM19.7388 4.26118C17.0572 1.57961 12.7095 1.57961 10.028 4.26118L11.0886 5.32184C13.1844 3.22605 16.5824 3.22605 18.6782 5.32184L19.7388 4.26118Z" fill="#344054"/>
<path d="M17.4805 6.51947C17.1876 6.22658 16.7128 6.22658 16.4199 6.51947C16.127 6.81237 16.127 7.28724 16.4199 7.58013L17.4805 6.51947ZM16.4199 10.7621C16.127 11.055 16.127 11.5299 16.4199 11.8228C16.7128 12.1157 17.1876 12.1157 17.4805 11.8228L16.4199 10.7621ZM16.4199 7.58013C17.2986 8.45881 17.2986 9.88343 16.4199 10.7621L17.4805 11.8228C18.945 10.3583 18.945 7.98394 17.4805 6.51947L16.4199 7.58013Z" fill="#344054"/>
<path d="M8.28716 7.2265C7.99427 6.93361 7.5194 6.93361 7.2265 7.2265C6.93361 7.5194 6.93361 7.99427 7.2265 8.28716L8.28716 7.2265ZM15.7118 16.7724C16.0047 17.0653 16.4795 17.0653 16.7724 16.7724C17.0653 16.4795 17.0653 16.0047 16.7724 15.7118L15.7118 16.7724ZM7.2265 8.28716L15.7118 16.7724L16.7724 15.7118L8.28716 7.2265L7.2265 8.28716Z" fill="#344054"/>
</svg>
