<svg width="24" height="24" viewBox="0 0 24 24" fill="none" xmlns="http://www.w3.org/2000/svg">
<path d="M15 21.75C15.4142 21.75 15.75 21.4142 15.75 21C15.75 20.5858 15.4142 20.25 15 20.25V21.75ZM21.25 13C21.25 13.4142 21.5858 13.75 22 13.75C22.4142 13.75 22.75 13.4142 22.75 13H21.25ZM15 20.25H6V21.75H15V20.25ZM2.75 17V7H1.25V17H2.75ZM6 3.75H18V2.25H6V3.75ZM21.25 7V13H22.75V7H21.25ZM2.75 7C2.75 5.20507 4.20507 3.75 6 3.75V2.25C3.37665 2.25 1.25 4.37665 1.25 7H2.75ZM6 20.25C4.20507 20.25 2.75 18.7949 2.75 17H1.25C1.25 19.6234 3.37665 21.75 6 21.75V20.25ZM18 3.75C19.7949 3.75 21.25 5.20507 21.25 7H22.75C22.75 4.37665 20.6234 2.25 18 2.25V3.75Z" fill="#344054"/>
<path d="M6 18C6.55228 18 7 17.5523 7 17C7 16.4477 6.55228 16 6 16C5.44772 16 5 16.4477 5 17C5 17.5523 5.44772 18 6 18Z" fill="#344054"/>
<path d="M2 7H22V11H2V7Z" stroke="#344054" stroke-width="1.5" stroke-linecap="round" stroke-linejoin="round"/>
<path d="M22.5303 19.9445C22.8232 19.6517 22.8232 19.1768 22.5303 18.8839C22.2374 18.591 21.7626 18.591 21.4697 18.8839L22.5303 19.9445ZM18.5303 18.8839C18.2374 18.591 17.7626 18.591 17.4697 18.8839C17.1768 19.1768 17.1768 19.6517 17.4697 19.9445L18.5303 18.8839ZM20.75 16C20.75 15.5858 20.4142 15.25 20 15.25C19.5858 15.25 19.25 15.5858 19.25 16H20.75ZM19.25 20.4142C19.25 20.8284 19.5858 21.1642 20 21.1642C20.4142 21.1642 20.75 20.8284 20.75 20.4142H19.25ZM21.4697 18.8839L20.1768 20.1768L21.2374 21.2374L22.5303 19.9445L21.4697 18.8839ZM19.8232 20.1768L18.5303 18.8839L17.4697 19.9445L18.7626 21.2374L19.8232 20.1768ZM20.1768 20.1768C20.0791 20.2744 19.9209 20.2744 19.8232 20.1768L18.7626 21.2374C19.446 21.9209 20.554 21.9209 21.2374 21.2374L20.1768 20.1768ZM19.25 16V20.4142H20.75V16H19.25Z" fill="#344054"/>
</svg>
