<svg width="24" height="24" viewBox="0 0 24 24" fill="none" xmlns="http://www.w3.org/2000/svg">
<path d="M13 21.75C13.4142 21.75 13.75 21.4142 13.75 21C13.75 20.5858 13.4142 20.25 13 20.25V21.75ZM21.25 15C21.25 15.4142 21.5858 15.75 22 15.75C22.4142 15.75 22.75 15.4142 22.75 15H21.25ZM13 20.25H6V21.75H13V20.25ZM2.75 17V7H1.25V17H2.75ZM6 3.75H18V2.25H6V3.75ZM21.25 7V15H22.75V7H21.25ZM2.75 7C2.75 5.20507 4.20507 3.75 6 3.75V2.25C3.37665 2.25 1.25 4.37665 1.25 7H2.75ZM6 20.25C4.20507 20.25 2.75 18.7949 2.75 17H1.25C1.25 19.6234 3.37665 21.75 6 21.75V20.25ZM18 3.75C19.7949 3.75 21.25 5.20507 21.25 7H22.75C22.75 4.37665 20.6234 2.25 18 2.25V3.75Z" fill="#344054"/>
<path d="M6 18C6.55228 18 7 17.5523 7 17C7 16.4477 6.55228 16 6 16C5.44772 16 5 16.4477 5 17C5 17.5523 5.44772 18 6 18Z" fill="#344054"/>
<path d="M2 7H22V11H2V7Z" stroke="#344054" stroke-width="1.5" stroke-linecap="round" stroke-linejoin="round"/>
<path d="M17.0555 21.5303C17.3483 21.8232 17.8232 21.8232 18.1161 21.5303C18.409 21.2374 18.409 20.7626 18.1161 20.4697L17.0555 21.5303ZM18.1161 17.5303C18.409 17.2374 18.409 16.7626 18.1161 16.4697C17.8232 16.1768 17.3483 16.1768 17.0555 16.4697L18.1161 17.5303ZM22 19.75C22.4142 19.75 22.75 19.4142 22.75 19C22.75 18.5858 22.4142 18.25 22 18.25V19.75ZM16.5858 18.25C16.1716 18.25 15.8358 18.5858 15.8358 19C15.8358 19.4142 16.1716 19.75 16.5858 19.75V18.25ZM18.1161 20.4697L16.8232 19.1768L15.7626 20.2374L17.0555 21.5303L18.1161 20.4697ZM16.8232 18.8232L18.1161 17.5303L17.0555 16.4697L15.7626 17.7626L16.8232 18.8232ZM16.8232 19.1768C16.7256 19.0791 16.7256 18.9209 16.8232 18.8232L15.7626 17.7626C15.0791 18.446 15.0791 19.554 15.7626 20.2374L16.8232 19.1768ZM22 18.25H16.5858V19.75H22V18.25Z" fill="#344054"/>
</svg>
