<svg width="24" height="24" viewBox="0 0 24 24" fill="none" xmlns="http://www.w3.org/2000/svg">
<path d="M16 21.75C16.4142 21.75 16.75 21.4142 16.75 21C16.75 20.5858 16.4142 20.25 16 20.25V21.75ZM21.25 13C21.25 13.4142 21.5858 13.75 22 13.75C22.4142 13.75 22.75 13.4142 22.75 13H21.25ZM16 20.25H6V21.75H16V20.25ZM2.75 17V7H1.25V17H2.75ZM6 3.75H18V2.25H6V3.75ZM21.25 7V13H22.75V7H21.25ZM2.75 7C2.75 5.20507 4.20507 3.75 6 3.75V2.25C3.37665 2.25 1.25 4.37665 1.25 7H2.75ZM6 20.25C4.20507 20.25 2.75 18.7949 2.75 17H1.25C1.25 19.6234 3.37665 21.75 6 21.75V20.25ZM18 3.75C19.7949 3.75 21.25 5.20507 21.25 7H22.75C22.75 4.37665 20.6234 2.25 18 2.25V3.75Z" fill="#344054"/>
<path d="M6 18C6.55228 18 7 17.5523 7 17C7 16.4477 6.55228 16 6 16C5.44772 16 5 16.4477 5 17C5 17.5523 5.44772 18 6 18Z" fill="#344054"/>
<path d="M2 7H22V11H2V7Z" stroke="#344054" stroke-width="1.5" stroke-linecap="round" stroke-linejoin="round"/>
<path d="M22.5303 17.0555C22.8232 17.3483 22.8232 17.8232 22.5303 18.1161C22.2374 18.409 21.7626 18.409 21.4697 18.1161L22.5303 17.0555ZM18.5303 18.1161C18.2374 18.409 17.7626 18.409 17.4697 18.1161C17.1768 17.8232 17.1768 17.3483 17.4697 17.0555L18.5303 18.1161ZM20.75 21C20.75 21.4142 20.4142 21.75 20 21.75C19.5858 21.75 19.25 21.4142 19.25 21H20.75ZM19.25 16.5858C19.25 16.1716 19.5858 15.8358 20 15.8358C20.4142 15.8358 20.75 16.1716 20.75 16.5858H19.25ZM21.4697 18.1161L20.1768 16.8232L21.2374 15.7626L22.5303 17.0555L21.4697 18.1161ZM19.8232 16.8232L18.5303 18.1161L17.4697 17.0555L18.7626 15.7626L19.8232 16.8232ZM20.1768 16.8232C20.0791 16.7256 19.9209 16.7256 19.8232 16.8232L18.7626 15.7626C19.446 15.0791 20.554 15.0791 21.2374 15.7626L20.1768 16.8232ZM19.25 21V16.5858H20.75V21H19.25Z" fill="#344054"/>
</svg>
