<svg width="24" height="24" viewBox="0 0 24 24" fill="none" xmlns="http://www.w3.org/2000/svg">
<path d="M18.3195 19.6092L17.9287 20.2494L19.2091 21.0309L19.5998 20.3908L18.3195 19.6092ZM4.39974 20.3908L4.7905 21.0309L6.07082 20.2494L5.68006 19.6092L4.39974 20.3908ZM21.0579 15.123L18.3195 19.6092L19.5998 20.3908L22.3383 15.9046L21.0579 15.123ZM5.68006 19.6092L2.94163 15.123L1.66131 15.9046L4.39974 20.3908L5.68006 19.6092ZM3.51781 13.2551L11.5286 9.84633L10.9413 8.46609L2.93049 11.8748L3.51781 13.2551ZM12.471 9.84633L20.4818 13.2551L21.0691 11.8748L13.0583 8.46609L12.471 9.84633ZM11.5286 9.84633C11.8305 9.71789 12.1691 9.71789 12.471 9.84633L13.0583 8.46609C12.3812 8.17797 11.6184 8.17797 10.9413 8.46609L11.5286 9.84633ZM22.3383 15.9046C23.2201 14.46 22.6323 12.54 21.0691 11.8748L20.4818 13.2551C21.1833 13.5536 21.4741 14.4413 21.0579 15.123L22.3383 15.9046ZM2.94163 15.123C2.52548 14.4413 2.81623 13.5536 3.51781 13.2551L2.93049 11.8748C1.36725 12.54 0.779512 14.46 1.66131 15.9046L2.94163 15.123Z" fill="#344054"/>
<path d="M18 11V4C18 2.89543 17.1046 2 16 2H8C6.89543 2 6 2.89543 6 4V11" stroke="#344054" stroke-width="1.5"/>
<path d="M13 5H11" stroke="#344054" stroke-width="1.5" stroke-linecap="round" stroke-linejoin="round"/>
<path d="M3 22.0005L4.53245 20.9789C5.41741 20.3889 6.57362 20.402 7.44494 21.012C8.29985 21.6104 9.43098 21.6353 10.3114 21.075L10.4966 20.9572C11.4105 20.3756 12.59 20.3938 13.4912 20.9947C14.3996 21.6002 15.5916 21.606 16.5 21.0005C17.4083 20.3949 18.5916 20.3949 19.5 21.0005L21 22.0005" stroke="#344054" stroke-width="1.5" stroke-linecap="round" stroke-linejoin="round"/>
</svg>
