<svg width="24" height="24" viewBox="0 0 24 24" fill="none" xmlns="http://www.w3.org/2000/svg">
<path d="M19.0001 11.2501C18.5859 11.2501 18.2501 11.5859 18.2501 12.0001C18.2501 12.4143 18.5859 12.7501 19.0001 12.7501V11.2501ZM22.7501 9.00008C22.7501 8.58587 22.4143 8.25008 22.0001 8.25008C21.5859 8.25008 21.2501 8.58587 21.2501 9.00008H22.7501ZM20.5299 11.5844C20.8526 11.8441 21.3247 11.793 21.5844 11.4703C21.8441 11.1476 21.793 10.6755 21.4703 10.4158L20.5299 11.5844ZM2.09514 1.25613C1.68427 1.20363 1.30863 1.49415 1.25613 1.90502C1.20363 2.31589 1.49415 2.69153 1.90502 2.74403L2.09514 1.25613ZM1.25008 10.0001V20.0001H2.75008V10.0001H1.25008ZM6.75008 20.0001V10.0001H5.25008V20.0001H6.75008ZM6.75008 10.0001C6.75008 8.4813 5.51886 7.25008 4.00008 7.25008V8.75008C4.69044 8.75008 5.25008 9.30972 5.25008 10.0001H6.75008ZM4.00008 22.7501C5.51886 22.7501 6.75008 21.5189 6.75008 20.0001H5.25008C5.25008 20.6905 4.69044 21.2501 4.00008 21.2501V22.7501ZM1.25008 20.0001C1.25008 21.5189 2.4813 22.7501 4.00008 22.7501V21.2501C3.30972 21.2501 2.75008 20.6905 2.75008 20.0001H1.25008ZM2.75008 10.0001C2.75008 9.30972 3.30972 8.75008 4.00008 8.75008V7.25008C2.4813 7.25008 1.25008 8.4813 1.25008 10.0001H2.75008ZM17.2501 18.0001V20.0001H18.7501V18.0001H17.2501ZM22.7501 20.0001V18.0001H21.2501V20.0001H22.7501ZM22.7501 18.0001C22.7501 16.4813 21.5189 15.2501 20.0001 15.2501V16.7501C20.6905 16.7501 21.2501 17.3097 21.2501 18.0001H22.7501ZM20.0001 22.7501C21.5189 22.7501 22.7501 21.5189 22.7501 20.0001H21.2501C21.2501 20.6905 20.6905 21.2501 20.0001 21.2501V22.7501ZM17.2501 20.0001C17.2501 21.5189 18.4813 22.7501 20.0001 22.7501V21.2501C19.3097 21.2501 18.7501 20.6905 18.7501 20.0001H17.2501ZM18.7501 18.0001C18.7501 17.3097 19.3097 16.7501 20.0001 16.7501V15.2501C18.4813 15.2501 17.2501 16.4813 17.2501 18.0001H18.7501ZM9.25008 14.0001V20.0001H10.7501V14.0001H9.25008ZM14.7501 20.0001V14.0001H13.2501V20.0001H14.7501ZM14.7501 14.0001C14.7501 12.4813 13.5189 11.2501 12.0001 11.2501V12.7501C12.6905 12.7501 13.2501 13.3097 13.2501 14.0001H14.7501ZM12.0001 22.7501C13.5189 22.7501 14.7501 21.5189 14.7501 20.0001H13.2501C13.2501 20.6905 12.6905 21.2501 12.0001 21.2501V22.7501ZM9.25008 20.0001C9.25008 21.5189 10.4813 22.7501 12.0001 22.7501V21.2501C11.3097 21.2501 10.7501 20.6905 10.7501 20.0001H9.25008ZM10.7501 14.0001C10.7501 13.3097 11.3097 12.7501 12.0001 12.7501V11.2501C10.4813 11.2501 9.25008 12.4813 9.25008 14.0001H10.7501ZM19.0001 12.7501H21.0001V11.2501H19.0001V12.7501ZM22.7501 11.0001V9.00008H21.2501V11.0001H22.7501ZM21.0001 12.7501C21.9666 12.7501 22.7501 11.9666 22.7501 11.0001H21.2501C21.2501 11.1382 21.1382 11.2501 21.0001 11.2501V12.7501ZM21.4703 10.4158C17.4805 7.20478 14.4111 5.13321 11.4409 3.75559C8.45922 2.37267 5.61357 1.70571 2.09514 1.25613L1.90502 2.74403C5.32871 3.18151 8.0123 3.81887 10.8098 5.11635C13.6186 6.41912 16.5782 8.40402 20.5299 11.5844L21.4703 10.4158Z" fill="#344054"/>
</svg>
