<svg width="24" height="24" viewBox="0 0 24 24" fill="none" xmlns="http://www.w3.org/2000/svg">
<path d="M9.1244 11.25C8.71018 11.25 8.3744 11.5858 8.3744 12C8.3744 12.4142 8.71018 12.75 9.1244 12.75V11.25ZM14.8744 12.75C15.2886 12.75 15.6244 12.4142 15.6244 12C15.6244 11.5858 15.2886 11.25 14.8744 11.25V12.75ZM11.416 3.75H12.5827V2.25H11.416V3.75ZM3.16602 17V12H1.66602V17H3.16602ZM12.5827 20.25H6.41602V21.75H12.5827V20.25ZM1.66602 17C1.66602 19.6234 3.79267 21.75 6.41602 21.75V20.25C4.6211 20.25 3.16602 18.7949 3.16602 17H1.66602ZM20.8327 12C20.8327 16.5563 17.139 20.25 12.5827 20.25V21.75C17.9674 21.75 22.3327 17.3848 22.3327 12H20.8327ZM12.5827 3.75C17.139 3.75 20.8327 7.44365 20.8327 12H22.3327C22.3327 6.61522 17.9674 2.25 12.5827 2.25V3.75ZM11.416 2.25C6.03125 2.25 1.66602 6.61522 1.66602 12H3.16602C3.16602 7.44365 6.85967 3.75 11.416 3.75V2.25ZM9.1244 12.75H14.8744V11.25H9.1244V12.75Z" fill="#344054"/>
</svg>
