<svg width="24" height="24" viewBox="0 0 24 24" fill="none" xmlns="http://www.w3.org/2000/svg">
<path d="M16.1064 2.00001L16.8364 2.17192C16.8944 1.92589 16.8245 1.66723 16.6505 1.48386C16.4766 1.30048 16.222 1.21705 15.9732 1.26193L16.1064 2.00001ZM21.9733 6.40056L22.7193 6.3235C22.6933 6.07155 22.5419 5.84975 22.3167 5.73379C22.0915 5.61782 21.823 5.62335 21.6028 5.74848L21.9733 6.40056ZM7.8938 20.6716C8.30384 20.7302 8.68379 20.4453 8.74244 20.0353C8.8011 19.6253 8.51624 19.2453 8.1062 19.1867L7.8938 20.6716ZM16 19.25C15.5858 19.25 15.25 19.5858 15.25 20C15.25 20.4142 15.5858 20.75 16 20.75V19.25ZM12 18L12.5108 17.4509C12.2229 17.183 11.7771 17.183 11.4892 17.4509L12 18ZM2.75 13C2.75 9.54823 5.54822 6.75001 9 6.75001V5.25001C4.71979 5.25001 1.25 8.7198 1.25 13H2.75ZM21.25 15C21.25 17.3472 19.3472 19.25 17 19.25V20.75C20.1756 20.75 22.75 18.1756 22.75 15H21.25ZM14.025 11.9649C14.4856 11.5134 15.0475 11.1665 15.6726 10.9612L15.2045 9.53609C14.3565 9.81461 13.5965 10.2845 12.975 10.8937L14.025 11.9649ZM15.6726 10.9612C16.0893 10.8243 16.5352 10.75 17 10.75V9.25001C16.3743 9.25001 15.7704 9.35024 15.2045 9.53609L15.6726 10.9612ZM20 6.17039C18.2051 6.17039 16.75 4.71531 16.75 2.92039H15.25C15.25 5.54374 17.3766 7.67039 20 7.67039V6.17039ZM16.75 2.92039C16.75 2.66195 16.78 2.41148 16.8364 2.17192L15.3764 1.8281C15.2936 2.17953 15.25 2.54535 15.25 2.92039H16.75ZM21.6028 5.74848C21.1305 6.01686 20.5843 6.17039 20 6.17039V7.67039C20.8509 7.67039 21.6516 7.446 22.3438 7.05264L21.6028 5.74848ZM21.2273 6.47763C21.2423 6.62293 21.25 6.77063 21.25 6.92039H22.75C22.75 6.71907 22.7396 6.51993 22.7193 6.3235L21.2273 6.47763ZM12.755 6.71241C12.8507 4.71918 14.3216 3.08414 16.2396 2.73809L15.9732 1.26193C13.3767 1.7304 11.3864 3.9403 11.2567 6.64043L12.755 6.71241ZM9 6.75001C9.96199 6.75001 10.8712 6.96683 11.6834 7.35357L12.3283 5.99927C11.319 5.51864 10.1898 5.25001 9 5.25001V6.75001ZM11.6834 7.35357C13.0541 8.00626 14.1502 9.14403 14.749 10.5437L16.1281 9.95361C15.3852 8.21741 14.0276 6.80845 12.3283 5.99927L11.6834 7.35357ZM21.25 6.92039C21.25 8.3305 20.564 9.58031 19.5043 10.3546L20.3892 11.5658C21.8189 10.5212 22.75 8.82947 22.75 6.92039H21.25ZM17 10.75C17.9375 10.75 18.802 11.0526 19.5043 11.5658L20.3892 10.3546C19.4388 9.66014 18.2662 9.25001 17 9.25001V10.75ZM19.5043 11.5658C20.564 12.3401 21.25 13.5899 21.25 15H22.75C22.75 13.0909 21.8189 11.3992 20.3892 10.3546L19.5043 11.5658ZM8.1062 19.1867C5.07807 18.7535 2.75 16.148 2.75 13H1.25C1.25 16.9049 4.13735 20.1342 7.8938 20.6716L8.1062 19.1867ZM17 19.25H16V20.75H17V19.25ZM12.75 20.5C12.75 20.8946 12.636 21.0393 12.5675 21.0992C12.4803 21.1753 12.308 21.25 12 21.25V22.75C12.5204 22.75 13.0982 22.627 13.5538 22.2293C14.0282 21.8152 14.25 21.2099 14.25 20.5H12.75ZM12 21.25C11.692 21.25 11.5197 21.1753 11.4325 21.0992C11.364 21.0393 11.25 20.8946 11.25 20.5H9.75C9.75 21.2099 9.97183 21.8152 10.4462 22.2293C10.9018 22.627 11.4796 22.75 12 22.75V21.25ZM11.25 20.5C11.25 20.3838 11.2927 20.2077 11.4075 19.9742C11.5187 19.7478 11.675 19.5132 11.8442 19.2934C12.0118 19.0758 12.1812 18.8868 12.3095 18.7518C12.3732 18.6847 12.4257 18.632 12.4613 18.597C12.4791 18.5795 12.4926 18.5665 12.5011 18.5584C12.5053 18.5543 12.5083 18.5515 12.51 18.5499C12.5108 18.5491 12.5113 18.5487 12.5115 18.5485C12.5114 18.5486 12.5108 18.5491 12 18C11.4892 17.4509 11.4893 17.4508 11.4892 17.4509C11.489 17.4511 11.4883 17.4517 11.488 17.4519C11.4876 17.4524 11.487 17.4529 11.4864 17.4535C11.4851 17.4547 11.4834 17.4563 11.4814 17.4582C11.4774 17.4619 11.4719 17.4671 11.4652 17.4735C11.4518 17.4864 11.433 17.5044 11.4098 17.5272C11.3634 17.5728 11.2987 17.6378 11.2218 17.7188C11.0688 17.88 10.8632 18.1088 10.6558 18.3782C10.45 18.6453 10.2313 18.9667 10.0613 19.3126C9.89476 19.6514 9.75 20.0639 9.75 20.5H11.25ZM12 18C11.4892 18.5491 11.4891 18.549 11.489 18.5489C11.4892 18.5491 11.4892 18.5491 11.49 18.5499C11.4917 18.5515 11.4947 18.5543 11.4989 18.5584C11.5074 18.5665 11.5209 18.5795 11.5387 18.597C11.5743 18.632 11.6268 18.6847 11.6905 18.7518C11.8188 18.8868 11.9882 19.0758 12.1558 19.2934C12.325 19.5132 12.4813 19.7478 12.5925 19.9742C12.7073 20.2077 12.75 20.3838 12.75 20.5H14.25C14.25 20.0639 14.1052 19.6514 13.9387 19.3126C13.7687 18.9667 13.55 18.6453 13.3442 18.3782C13.1368 18.1088 12.9312 17.88 12.7782 17.7188C12.7013 17.6378 12.6366 17.5728 12.5902 17.5272C12.567 17.5044 12.5482 17.4864 12.5348 17.4735C12.5281 17.4671 12.5226 17.4619 12.5186 17.4582C12.5166 17.4563 12.5149 17.4547 12.5136 17.4535C12.513 17.4529 12.5124 17.4524 12.512 17.4519C12.5117 17.4517 12.511 17.4511 12.5108 17.4509C12.5107 17.4508 12.5108 17.4509 12 18Z" fill="#344054"/>
</svg>
