<svg width="24" height="24" viewBox="0 0 24 24" fill="none" xmlns="http://www.w3.org/2000/svg">
<path d="M16.1064 2.00001L16.8364 2.17192C16.8944 1.92589 16.8245 1.66723 16.6505 1.48386C16.4766 1.30048 16.222 1.21705 15.9732 1.26193L16.1064 2.00001ZM21.9733 6.40056L22.7193 6.3235C22.6933 6.07155 22.5419 5.84975 22.3167 5.73379C22.0915 5.61782 21.823 5.62335 21.6028 5.74848L21.9733 6.40056ZM20.0351 17.975C19.7452 18.2708 19.7499 18.7456 20.0457 19.0356C20.3415 19.3255 20.8163 19.3208 21.1063 19.025L20.0351 17.975ZM4.20504 19.089C4.53031 19.3454 5.00189 19.2896 5.25836 18.9644C5.51482 18.6391 5.45904 18.1675 5.13377 17.911L4.20504 19.089ZM9.5 18L10.0108 17.4509C9.72294 17.183 9.27706 17.183 8.98916 17.4509L9.5 18ZM15.5 18L16.0108 17.4509C15.7229 17.183 15.2771 17.183 14.9892 17.4509L15.5 18ZM2.75 13C2.75 9.54823 5.54822 6.75001 9 6.75001V5.25001C4.71979 5.25001 1.25 8.7198 1.25 13H2.75ZM14.025 11.9649C14.4856 11.5134 15.0475 11.1665 15.6726 10.9612L15.2045 9.53609C14.3565 9.81461 13.5965 10.2845 12.975 10.8937L14.025 11.9649ZM15.6726 10.9612C16.0893 10.8243 16.5352 10.75 17 10.75V9.25001C16.3743 9.25001 15.7704 9.35024 15.2045 9.53609L15.6726 10.9612ZM20 6.17039C18.2051 6.17039 16.75 4.71531 16.75 2.92039H15.25C15.25 5.54374 17.3766 7.67039 20 7.67039V6.17039ZM16.75 2.92039C16.75 2.66195 16.78 2.41148 16.8364 2.17192L15.3764 1.8281C15.2936 2.17953 15.25 2.54535 15.25 2.92039H16.75ZM21.6028 5.74848C21.1305 6.01686 20.5843 6.17039 20 6.17039V7.67039C20.8509 7.67039 21.6516 7.446 22.3438 7.05264L21.6028 5.74848ZM21.2273 6.47763C21.2423 6.62293 21.25 6.77063 21.25 6.92039H22.75C22.75 6.71907 22.7396 6.51993 22.7193 6.3235L21.2273 6.47763ZM12.755 6.71241C12.8507 4.71918 14.3216 3.08414 16.2396 2.73809L15.9732 1.26193C13.3767 1.7304 11.3864 3.9403 11.2567 6.64043L12.755 6.71241ZM9 6.75001C9.96199 6.75001 10.8712 6.96683 11.6834 7.35357L12.3283 5.99927C11.319 5.51864 10.1898 5.25001 9 5.25001V6.75001ZM11.6834 7.35357C13.0541 8.00626 14.1502 9.14403 14.749 10.5437L16.1281 9.95361C15.3852 8.21741 14.0276 6.80845 12.3283 5.99927L11.6834 7.35357ZM21.25 6.92039C21.25 8.3305 20.564 9.58031 19.5043 10.3546L20.3892 11.5658C21.8189 10.5212 22.75 8.82947 22.75 6.92039H21.25ZM17 10.75C17.9375 10.75 18.802 11.0526 19.5043 11.5658L20.3892 10.3546C19.4388 9.66014 18.2662 9.25001 17 9.25001V10.75ZM19.5043 11.5658C20.564 12.3401 21.25 13.5899 21.25 15H22.75C22.75 13.0909 21.8189 11.3992 20.3892 10.3546L19.5043 11.5658ZM21.25 15C21.25 16.1586 20.7874 17.2076 20.0351 17.975L21.1063 19.025C22.1223 17.9886 22.75 16.5669 22.75 15H21.25ZM5.13377 17.911C3.68065 16.7653 2.75 14.9916 2.75 13H1.25C1.25 15.4704 2.40669 17.671 4.20504 19.089L5.13377 17.911ZM10.25 20.5C10.25 20.8946 10.136 21.0393 10.0675 21.0992C9.98027 21.1753 9.80803 21.25 9.5 21.25V22.75C10.0204 22.75 10.5982 22.627 11.0538 22.2293C11.5282 21.8152 11.75 21.2099 11.75 20.5H10.25ZM9.5 21.25C9.19197 21.25 9.01973 21.1753 8.93253 21.0992C8.86395 21.0393 8.75 20.8946 8.75 20.5H7.25C7.25 21.2099 7.47183 21.8152 7.94615 22.2293C8.40184 22.627 8.9796 22.75 9.5 22.75V21.25ZM8.75 20.5C8.75 20.3838 8.79274 20.2077 8.90749 19.9742C9.01875 19.7478 9.17496 19.5132 9.34421 19.2934C9.5118 19.0758 9.68124 18.8868 9.80947 18.7518C9.87317 18.6847 9.92565 18.632 9.96128 18.597C9.97907 18.5795 9.99258 18.5665 10.0011 18.5584C10.0053 18.5543 10.0083 18.5515 10.01 18.5499C10.0108 18.5491 10.0113 18.5487 10.0115 18.5485C10.0114 18.5486 10.0108 18.5491 9.5 18C8.98916 17.4509 8.98927 17.4508 8.98916 17.4509C8.98911 17.4509 8.98926 17.4508 8.98916 17.4509C8.98898 17.4511 8.98827 17.4517 8.98803 17.4519C8.98756 17.4524 8.98701 17.4529 8.98636 17.4535C8.98506 17.4547 8.9834 17.4563 8.98139 17.4582C8.97737 17.4619 8.97195 17.4671 8.96522 17.4735C8.95176 17.4864 8.93304 17.5044 8.90981 17.5272C8.86341 17.5728 8.79871 17.6378 8.72178 17.7188C8.56876 17.88 8.3632 18.1088 8.15579 18.3782C7.95004 18.6453 7.73125 18.9667 7.56126 19.3126C7.39476 19.6514 7.25 20.0639 7.25 20.5H8.75ZM9.5 18C8.98916 18.5491 8.98906 18.549 8.98896 18.5489C8.98894 18.5489 8.98901 18.5489 8.98896 18.5489C8.9891 18.5491 8.98917 18.5491 8.98999 18.5499C8.99165 18.5515 8.99465 18.5543 8.99891 18.5584C9.00742 18.5665 9.02093 18.5795 9.03872 18.597C9.07435 18.632 9.12683 18.6847 9.19053 18.7518C9.31876 18.8868 9.4882 19.0758 9.65579 19.2934C9.82504 19.5132 9.98125 19.7478 10.0925 19.9742C10.2073 20.2077 10.25 20.3838 10.25 20.5H11.75C11.75 20.0639 11.6052 19.6514 11.4387 19.3126C11.2687 18.9667 11.05 18.6453 10.8442 18.3782C10.6368 18.1088 10.4312 17.88 10.2782 17.7188C10.2013 17.6378 10.1366 17.5728 10.0902 17.5272C10.067 17.5044 10.0482 17.4864 10.0348 17.4735C10.0281 17.4671 10.0226 17.4619 10.0186 17.4582C10.0166 17.4563 10.0149 17.4547 10.0136 17.4535C10.013 17.4529 10.0124 17.4524 10.012 17.4519C10.0117 17.4517 10.011 17.4511 10.0108 17.4509C10.0107 17.4508 10.0108 17.4509 9.5 18ZM16.25 20.5C16.25 20.8946 16.136 21.0393 16.0675 21.0992C15.9803 21.1753 15.808 21.25 15.5 21.25V22.75C16.0204 22.75 16.5982 22.627 17.0538 22.2293C17.5282 21.8152 17.75 21.2099 17.75 20.5H16.25ZM15.5 21.25C15.192 21.25 15.0197 21.1753 14.9325 21.0992C14.864 21.0393 14.75 20.8946 14.75 20.5H13.25C13.25 21.2099 13.4718 21.8152 13.9462 22.2293C14.4018 22.627 14.9796 22.75 15.5 22.75V21.25ZM14.75 20.5C14.75 20.3838 14.7927 20.2077 14.9075 19.9742C15.0187 19.7478 15.175 19.5132 15.3442 19.2934C15.5118 19.0758 15.6812 18.8868 15.8095 18.7518C15.8732 18.6847 15.9257 18.632 15.9613 18.597C15.9791 18.5795 15.9926 18.5665 16.0011 18.5584C16.0053 18.5543 16.0083 18.5515 16.01 18.5499C16.0108 18.5491 16.0113 18.5487 16.0115 18.5485C16.0114 18.5486 16.0108 18.5491 15.5 18C14.9892 17.4509 14.9893 17.4508 14.9892 17.4509C14.989 17.4511 14.9883 17.4517 14.988 17.4519C14.9876 17.4524 14.987 17.4529 14.9864 17.4535C14.9851 17.4547 14.9834 17.4563 14.9814 17.4582C14.9774 17.4619 14.9719 17.4671 14.9652 17.4735C14.9518 17.4864 14.933 17.5044 14.9098 17.5272C14.8634 17.5728 14.7987 17.6378 14.7218 17.7188C14.5688 17.88 14.3632 18.1088 14.1558 18.3782C13.95 18.6453 13.7313 18.9667 13.5613 19.3126C13.3948 19.6514 13.25 20.0639 13.25 20.5H14.75ZM15.5 18C14.9892 18.5491 14.9891 18.549 14.989 18.5489C14.9892 18.5491 14.9892 18.5491 14.99 18.5499C14.9917 18.5515 14.9947 18.5543 14.9989 18.5584C15.0074 18.5665 15.0209 18.5795 15.0387 18.597C15.0743 18.632 15.1268 18.6847 15.1905 18.7518C15.3188 18.8868 15.4882 19.0758 15.6558 19.2934C15.825 19.5132 15.9813 19.7478 16.0925 19.9742C16.2073 20.2077 16.25 20.3838 16.25 20.5H17.75C17.75 20.0639 17.6052 19.6514 17.4387 19.3126C17.2687 18.9667 17.05 18.6453 16.8442 18.3782C16.6368 18.1088 16.4312 17.88 16.2782 17.7188C16.2013 17.6378 16.1366 17.5728 16.0902 17.5272C16.067 17.5044 16.0482 17.4864 16.0348 17.4735C16.0281 17.4671 16.0226 17.4619 16.0186 17.4582C16.0166 17.4563 16.0149 17.4547 16.0136 17.4535C16.013 17.4529 16.0124 17.4524 16.012 17.4519C16.0117 17.4517 16.011 17.4511 16.0108 17.4509C16.0107 17.4508 16.0108 17.4509 15.5 18Z" fill="#344054"/>
</svg>
