<svg width="24" height="24" viewBox="0 0 24 24" fill="none" xmlns="http://www.w3.org/2000/svg">
<path d="M8.67082 17.3354C8.85606 16.9649 8.70589 16.5144 8.33541 16.3292C7.96493 16.1439 7.51442 16.2941 7.32918 16.6646L8.67082 17.3354ZM6.32918 18.6646C6.14394 19.0351 6.29411 19.4856 6.66459 19.6708C7.03507 19.8561 7.48558 19.7059 7.67082 19.3354L6.32918 18.6646ZM16.6708 17.3354C16.8561 16.9649 16.7059 16.5144 16.3354 16.3292C15.9649 16.1439 15.5144 16.2941 15.3292 16.6646L16.6708 17.3354ZM14.3292 18.6646C14.1439 19.0351 14.2941 19.4856 14.6646 19.6708C15.0351 19.8561 15.4856 19.7059 15.6708 19.3354L14.3292 18.6646ZM12.6964 17.2785C12.8502 16.894 12.6631 16.4575 12.2785 16.3036C11.894 16.1498 11.4575 16.3369 11.3036 16.7215L12.6964 17.2785ZM9.30364 21.7215C9.14981 22.106 9.33687 22.5425 9.72146 22.6964C10.106 22.8502 10.5425 22.6631 10.6964 22.2785L9.30364 21.7215ZM12.975 10.8937C12.6792 11.1837 12.6745 11.6585 12.9644 11.9543C13.2544 12.2501 13.7292 12.2548 14.025 11.9649L12.975 10.8937ZM16.1064 2.00001L16.8364 2.17192C16.8944 1.92589 16.8245 1.66723 16.6505 1.48386C16.4766 1.30048 16.222 1.21705 15.9732 1.26193L16.1064 2.00001ZM21.9733 6.40056L22.7193 6.3235C22.6933 6.07155 22.5419 5.84975 22.3167 5.73379C22.0915 5.61782 21.823 5.62335 21.6028 5.74848L21.9733 6.40056ZM17.8508 19.165C17.4449 19.2474 17.1826 19.6432 17.265 20.0492C17.3474 20.4551 17.7433 20.7174 18.1492 20.635L17.8508 19.165ZM4.01757 18.9364C4.33472 19.2028 4.80781 19.1617 5.07425 18.8445C5.34069 18.5274 5.29958 18.0543 4.98243 17.7879L4.01757 18.9364ZM7.32918 16.6646L6.32918 18.6646L7.67082 19.3354L8.67082 17.3354L7.32918 16.6646ZM15.3292 16.6646L14.3292 18.6646L15.6708 19.3354L16.6708 17.3354L15.3292 16.6646ZM11.3036 16.7215L9.30364 21.7215L10.6964 22.2785L12.6964 17.2785L11.3036 16.7215ZM2.75 13C2.75 9.54823 5.54822 6.75001 9 6.75001V5.25001C4.71979 5.25001 1.25 8.7198 1.25 13H2.75ZM14.025 11.9649C14.4856 11.5134 15.0475 11.1665 15.6726 10.9612L15.2045 9.53609C14.3565 9.81461 13.5965 10.2845 12.975 10.8937L14.025 11.9649ZM15.6726 10.9612C16.0893 10.8243 16.5352 10.75 17 10.75V9.25001C16.3743 9.25001 15.7704 9.35024 15.2045 9.53609L15.6726 10.9612ZM20 6.17039C18.2051 6.17039 16.75 4.71531 16.75 2.92039H15.25C15.25 5.54374 17.3766 7.67039 20 7.67039V6.17039ZM16.75 2.92039C16.75 2.66195 16.78 2.41148 16.8364 2.17192L15.3764 1.8281C15.2936 2.17953 15.25 2.54535 15.25 2.92039H16.75ZM21.6028 5.74848C21.1305 6.01686 20.5843 6.17039 20 6.17039V7.67039C20.8509 7.67039 21.6516 7.446 22.3438 7.05264L21.6028 5.74848ZM21.2273 6.47763C21.2423 6.62293 21.25 6.77063 21.25 6.92039H22.75C22.75 6.71907 22.7396 6.51993 22.7193 6.3235L21.2273 6.47763ZM12.755 6.71241C12.8507 4.71918 14.3216 3.08414 16.2396 2.73809L15.9732 1.26193C13.3767 1.7304 11.3864 3.9403 11.2567 6.64043L12.755 6.71241ZM9 6.75001C9.96199 6.75001 10.8712 6.96683 11.6834 7.35357L12.3283 5.99927C11.319 5.51864 10.1898 5.25001 9 5.25001V6.75001ZM11.6834 7.35357C13.0541 8.00626 14.1502 9.14403 14.749 10.5437L16.1281 9.95361C15.3852 8.21741 14.0276 6.80845 12.3283 5.99927L11.6834 7.35357ZM21.25 6.92039C21.25 8.3305 20.564 9.58031 19.5043 10.3546L20.3892 11.5658C21.8189 10.5212 22.75 8.82947 22.75 6.92039H21.25ZM17 10.75C17.9375 10.75 18.802 11.0526 19.5043 11.5658L20.3892 10.3546C19.4388 9.66014 18.2662 9.25001 17 9.25001V10.75ZM19.5043 11.5658C20.564 12.3401 21.25 13.5899 21.25 15H22.75C22.75 13.0909 21.8189 11.3992 20.3892 10.3546L19.5043 11.5658ZM21.25 15C21.25 17.0552 19.7904 18.7713 17.8508 19.165L18.1492 20.635C20.7741 20.1022 22.75 17.7827 22.75 15H21.25ZM4.98243 17.7879C3.61632 16.6402 2.75 14.9216 2.75 13H1.25C1.25 15.3833 2.32673 17.5159 4.01757 18.9364L4.98243 17.7879Z" fill="#344054"/>
</svg>
