<svg width="24" height="24" viewBox="0 0 24 24" fill="none" xmlns="http://www.w3.org/2000/svg">
<path d="M18 8C19.1046 8 20 7.10457 20 6C20 4.89543 19.1046 4 18 4L10 4C8.89543 4 8 4.89543 8 6C8 7.10457 8.89543 8 10 8H18Z" stroke="#344054" stroke-width="1.5"/>
<path d="M18 16C19.1046 16 20 15.1046 20 14C20 12.8954 19.1046 12 18 12H10C8.89543 12 8 12.8954 8 14C8 15.1046 8.89543 16 10 16H18Z" stroke="#344054" stroke-width="1.5"/>
<path d="M14 12C15.1046 12 16 11.1046 16 10C16 8.89543 15.1046 8 14 8H6C4.89543 8 4 8.89543 4 10C4 11.1046 4.89543 12 6 12H14Z" stroke="#344054" stroke-width="1.5"/>
<path d="M15 20C16.1046 20 17 19.1046 17 18C17 16.8954 16.1046 16 15 16H7C5.89543 16 5 16.8954 5 18C5 19.1046 5.89543 20 7 20H15Z" stroke="#344054" stroke-width="1.5"/>
</svg>
