<svg width="24" height="24" viewBox="0 0 24 24" fill="none" xmlns="http://www.w3.org/2000/svg">
<path d="M6 6C7.10457 6 8 5.10457 8 4C8 2.89543 7.10457 2 6 2C4.89543 2 4 2.89543 4 4C4 5.10457 4.89543 6 6 6Z" stroke="#344054" stroke-width="1.5"/>
<path d="M6 10C7.65685 10 9 9.10457 9 8C9 6.89543 7.65685 6 6 6C4.34315 6 3 6.89543 3 8C3 9.10457 4.34315 10 6 10Z" stroke="#344054" stroke-width="1.5"/>
<path d="M18 18C19.1046 18 20 17.1046 20 16C20 14.8954 19.1046 14 18 14C16.8954 14 16 14.8954 16 16C16 17.1046 16.8954 18 18 18Z" stroke="#344054" stroke-width="1.5"/>
<path d="M22 12C22 6.47715 17.5228 2 12 2M12 22C6.47715 22 2 17.5228 2 12" stroke="#344054" stroke-width="1.5" stroke-linecap="round"/>
<path d="M18 22C19.6569 22 21 21.1046 21 20C21 18.8954 19.6569 18 18 18C16.3431 18 15 18.8954 15 20C15 21.1046 16.3431 22 18 22Z" stroke="#344054" stroke-width="1.5"/>
</svg>
