<svg width="24" height="24" viewBox="0 0 24 24" fill="none" xmlns="http://www.w3.org/2000/svg">
<path d="M14.0393 6.41067C14.67 6.41067 15.1812 5.89945 15.1812 5.26881C15.1812 4.63818 14.67 4.12695 14.0393 4.12695C13.4087 4.12695 12.8975 4.63818 12.8975 5.26881C12.8975 5.89945 13.4087 6.41067 14.0393 6.41067Z" stroke="#344054" stroke-width="1.5"/>
<path d="M5.86669 16.8858C5.86669 17.1988 5.61294 17.4526 5.29992 17.4526V18.9526C6.44136 18.9526 7.36669 18.0273 7.36669 16.8858H5.86669ZM5.29992 17.4526C4.98691 17.4526 4.73315 17.1988 4.73315 16.8858H3.23315C3.23315 18.0273 4.15847 18.9526 5.29992 18.9526V17.4526ZM4.73315 16.8858C4.73315 16.5728 4.98691 16.319 5.29992 16.319V14.819C4.15847 14.819 3.23315 15.7444 3.23315 16.8858H4.73315ZM5.29992 16.319C5.61294 16.319 5.86669 16.5728 5.86669 16.8858H7.36669C7.36669 15.7444 6.44136 14.819 5.29992 14.819V16.319ZM8.50022 16.8858C8.50022 17.727 7.96347 18.8791 7.17984 19.8732C6.79974 20.3554 6.39256 20.7599 6.02329 21.0362C5.62448 21.3347 5.37801 21.4029 5.29991 21.4029V22.9029C5.8802 22.9029 6.45671 22.5854 6.92203 22.2372C7.4169 21.8668 7.91499 21.3636 8.35787 20.8018C9.22021 19.7078 10.0002 18.2263 10.0002 16.8858H8.50022ZM5.29991 21.4029C5.22182 21.4029 4.97534 21.3347 4.57654 21.0362C4.20727 20.7599 3.80009 20.3554 3.41998 19.8732C2.63636 18.8791 2.09961 17.727 2.09961 16.8858H0.599609C0.599609 18.2263 1.37962 19.7078 2.24196 20.8018C2.68483 21.3636 3.18293 21.8668 3.67779 22.2372C4.14312 22.5854 4.71963 22.9029 5.29991 22.9029V21.4029ZM2.09961 16.8858C2.09961 15.1183 3.53243 13.6855 5.29991 13.6855V12.1855C2.704 12.1855 0.599609 14.2899 0.599609 16.8858H2.09961ZM5.29991 13.6855C7.06739 13.6855 8.50022 15.1183 8.50022 16.8858H10.0002C10.0002 14.2899 7.89582 12.1855 5.29991 12.1855V13.6855Z" fill="#344054"/>
<path d="M16.7144 5.26836C16.7144 5.96462 16.2651 6.94181 15.5908 7.79725C15.2654 8.21012 14.9183 8.55432 14.6064 8.78772C14.4508 8.90421 14.3159 8.98406 14.2075 9.03257C14.1541 9.05646 14.1123 9.07043 14.0819 9.07811C14.0513 9.08584 14.0377 9.0858 14.0388 9.0858V10.5858C14.5754 10.5858 15.0972 10.2939 15.5052 9.98866C15.9426 9.66127 16.3806 9.21834 16.7688 8.72583C17.5219 7.77053 18.2144 6.46399 18.2144 5.26836H16.7144ZM14.0388 9.0858C14.0399 9.0858 14.0264 9.08584 13.9958 9.07811C13.9654 9.07043 13.9235 9.05646 13.8702 9.03257C13.7618 8.98406 13.6269 8.90421 13.4712 8.78772C13.1594 8.55432 12.8123 8.21012 12.4869 7.79725C11.8125 6.94181 11.3632 5.96462 11.3632 5.26836H9.86328C9.86328 6.46399 10.5558 7.77053 11.3088 8.72583C11.697 9.21834 12.135 9.66127 12.5725 9.98866C12.9804 10.2939 13.5023 10.5858 14.0388 10.5858V9.0858ZM11.3632 5.26836C11.3632 3.79067 12.5611 2.59277 14.0388 2.59277V1.09277C11.7327 1.09277 9.86328 2.96225 9.86328 5.26836H11.3632ZM14.0388 2.59277C15.5165 2.59277 16.7144 3.79067 16.7144 5.26836H18.2144C18.2144 2.96225 16.3449 1.09277 14.0388 1.09277V2.59277Z" fill="#344054"/>
<path d="M13.9458 12.1943V14.9596C13.9458 16.2255 14.9721 17.2517 16.238 17.2517H18.4953C19.7805 17.2517 20.8223 18.2936 20.8223 19.5788C20.8223 20.8639 19.7805 21.9058 18.4953 21.9058H9.96484" stroke="#344054" stroke-width="1.5" stroke-linecap="round"/>
</svg>
