<svg width="24" height="24" viewBox="0 0 24 24" fill="none" xmlns="http://www.w3.org/2000/svg">
<path d="M18.3604 2.42914C18.5974 2.08941 18.5141 1.6219 18.1743 1.38493C17.8346 1.14796 17.3671 1.23126 17.1301 1.571L18.3604 2.42914ZM6.86978 1.571C6.63281 1.23126 6.1653 1.14796 5.82557 1.38493C5.48583 1.6219 5.40253 2.08941 5.6395 2.42914L6.86978 1.571ZM17.1301 22.4292C17.3671 22.7689 17.8346 22.8522 18.1743 22.6152C18.5141 22.3783 18.5974 21.9108 18.3604 21.571L17.1301 22.4292ZM5.6395 21.571C5.40253 21.9108 5.48583 22.3783 5.82557 22.6152C6.1653 22.8522 6.63281 22.7689 6.86978 22.4292L5.6395 21.571ZM6 9.25007C5.58579 9.25007 5.25 9.58586 5.25 10.0001C5.25 10.4143 5.58579 10.7501 6 10.7501V9.25007ZM18 10.7501C18.4142 10.7501 18.75 10.4143 18.75 10.0001C18.75 9.58586 18.4142 9.25007 18 9.25007V10.7501ZM6 13.2501C5.58579 13.2501 5.25 13.5859 5.25 14.0001C5.25 14.4143 5.58579 14.7501 6 14.7501V13.2501ZM18 14.7501C18.4142 14.7501 18.75 14.4143 18.75 14.0001C18.75 13.5859 18.4142 13.2501 18 13.2501V14.7501ZM18.25 12.0001C18.25 15.4519 15.4518 18.2501 12 18.2501V19.7501C16.2802 19.7501 19.75 16.2803 19.75 12.0001H18.25ZM12 18.2501C8.54822 18.2501 5.75 15.4519 5.75 12.0001H4.25C4.25 16.2803 7.71979 19.7501 12 19.7501V18.2501ZM5.75 12.0001C5.75 8.54829 8.54822 5.75007 12 5.75007V4.25007C7.71979 4.25007 4.25 7.71986 4.25 12.0001H5.75ZM12 5.75007C15.4518 5.75007 18.25 8.54829 18.25 12.0001H19.75C19.75 7.71986 16.2802 4.25007 12 4.25007V5.75007ZM17.1301 1.571C15.9994 3.19202 14.1232 4.25007 12 4.25007V5.75007C14.6343 5.75007 16.9612 4.43509 18.3604 2.42914L17.1301 1.571ZM12 4.25007C9.87675 4.25007 8.00047 3.19201 6.86978 1.571L5.6395 2.42914C7.0387 4.4351 9.36576 5.75007 12 5.75007V4.25007ZM12 19.7501C14.1232 19.7501 15.9994 20.8082 17.1301 22.4292L18.3604 21.571C16.9612 19.5651 14.6343 18.2501 12 18.2501V19.7501ZM6.86978 22.4292C8.00047 20.8082 9.87675 19.7501 12 19.7501V18.2501C9.36576 18.2501 7.0387 19.5651 5.6395 21.571L6.86978 22.4292ZM6 10.7501H18V9.25007H6V10.7501ZM6 14.7501H18V13.2501H6V14.7501Z" fill="#344054"/>
</svg>
