<svg width="24" height="24" viewBox="0 0 24 24" fill="none" xmlns="http://www.w3.org/2000/svg">
<path d="M7.04816 1.75027C6.91012 1.35973 6.48163 1.15504 6.09109 1.29307C5.70056 1.43111 5.49586 1.8596 5.6339 2.25013L7.04816 1.75027ZM5.6339 21.7503C5.49586 22.1408 5.70056 22.5693 6.09109 22.7073C6.48163 22.8454 6.91012 22.6407 7.04816 22.2501L5.6339 21.7503ZM17.2496 12.0002C17.2496 14.8997 14.8991 17.2502 11.9996 17.2502V18.7502C15.7275 18.7502 18.7496 15.7281 18.7496 12.0002H17.2496ZM11.9996 6.7502C14.8991 6.7502 17.2496 9.1007 17.2496 12.0002H18.7496C18.7496 8.27228 15.7275 5.2502 11.9996 5.2502V6.7502ZM11.9996 5.2502C9.71492 5.2502 7.76923 3.79036 7.04816 1.75027L5.6339 2.25013C6.56017 4.87081 9.05947 6.7502 11.9996 6.7502V5.2502ZM7.04816 22.2501C7.76923 20.21 9.71492 18.7502 11.9996 18.7502V17.2502C9.05947 17.2502 6.56017 19.1296 5.6339 21.7503L7.04816 22.2501Z" fill="#344054"/>
<path d="M17.2933 1.75027C17.4313 1.35973 17.8598 1.15504 18.2503 1.29307C18.6409 1.43111 18.8456 1.8596 18.7075 2.25013L17.2933 1.75027ZM18.7075 21.7503C18.8456 22.1408 18.6409 22.5693 18.2503 22.7073C17.8598 22.8454 17.4313 22.6407 17.2933 22.2501L18.7075 21.7503ZM7.0918 12.0002C7.0918 14.8997 9.44231 17.2502 12.3418 17.2502V18.7502C8.61388 18.7502 5.5918 15.7281 5.5918 12.0002H7.0918ZM12.3418 6.7502C9.44231 6.7502 7.0918 9.1007 7.0918 12.0002H5.5918C5.5918 8.27228 8.61388 5.2502 12.3418 5.2502V6.7502ZM12.3418 5.2502C14.6265 5.2502 16.5722 3.79036 17.2933 1.75027L18.7075 2.25013C17.7813 4.87081 15.282 6.7502 12.3418 6.7502V5.2502ZM17.2933 22.2501C16.5722 20.21 14.6265 18.7502 12.3418 18.7502V17.2502C15.282 17.2502 17.7813 19.1296 18.7075 21.7503L17.2933 22.2501Z" fill="#344054"/>
<path d="M7 10H17" stroke="#344054" stroke-width="1.5" stroke-linecap="round"/>
<path d="M7 14H17" stroke="#344054" stroke-width="1.5" stroke-linecap="round"/>
</svg>
