<svg width="24" height="24" viewBox="0 0 24 24" fill="none" xmlns="http://www.w3.org/2000/svg">
<path d="M20 3H15C13.8954 3 13 3.89543 13 5V10C13 11.1046 13.8954 12 15 12H20C21.1046 12 22 11.1046 22 10V5C22 3.89543 21.1046 3 20 3Z" stroke="#344054" stroke-width="1.5"/>
<path d="M18.5 6H16.5" stroke="#344054" stroke-width="1.5" stroke-linecap="round" stroke-linejoin="round"/>
<path d="M2 8.25C1.58579 8.25 1.25 8.58579 1.25 9C1.25 9.41421 1.58579 9.75 2 9.75V8.25ZM4 9L4.30061 8.31288C4.20582 8.27141 4.10347 8.25 4 8.25V9ZM7.29544 13.8106C6.91472 13.6475 6.47381 13.8238 6.31064 14.2046C6.14747 14.5853 6.32384 15.0262 6.70456 15.1894L7.29544 13.8106ZM2 9.75H4V8.25H2V9.75ZM3.69939 9.68712L9.96163 12.4269L10.5629 11.0526L4.30061 8.31288L3.69939 9.68712ZM9.03886 14.5578L7.29544 13.8106L6.70456 15.1894L8.44798 15.9365L9.03886 14.5578ZM10.5635 13.948C10.3109 14.5374 9.62827 14.8104 9.03886 14.5578L8.44798 15.9365C9.79884 16.5155 11.3632 15.8897 11.9422 14.5389L10.5635 13.948ZM9.96163 12.4269C10.546 12.6825 10.8147 13.3617 10.5635 13.948L11.9422 14.5389C12.518 13.1952 11.9022 11.6386 10.5629 11.0526L9.96163 12.4269Z" fill="#344054"/>
<path d="M2.33557 17.3295C1.96509 17.1442 1.51458 17.2944 1.32934 17.6649C1.1441 18.0354 1.29427 18.4859 1.66475 18.6711L2.33557 17.3295ZM11.3356 14.3295L10.6648 13.9941L9.99393 15.3357L10.6648 15.6711L11.3356 14.3295ZM16.4166 17.7503H18.0002V16.2503H16.4166V17.7503ZM18.0002 20.2503H9.8887V21.7503H18.0002V20.2503ZM6.64641 19.4849L2.33557 17.3295L1.66475 18.6711L5.97558 20.8265L6.64641 19.4849ZM14.0687 15.696L11.3356 14.3295L10.6648 15.6711L13.3979 17.0377L14.0687 15.696ZM9.8887 20.2503C8.76318 20.2503 7.65311 19.9882 6.64641 19.4849L5.97558 20.8265C7.19057 21.434 8.53031 21.7503 9.8887 21.7503V20.2503ZM19.2502 19.0003C19.2502 19.6907 18.6906 20.2503 18.0002 20.2503V21.7503C19.519 21.7503 20.7502 20.5191 20.7502 19.0003H19.2502ZM18.0002 17.7503C18.6906 17.7503 19.2502 18.3099 19.2502 19.0003H20.7502C20.7502 17.4815 19.519 16.2503 18.0002 16.2503V17.7503ZM16.4166 16.2503C15.6016 16.2503 14.7977 16.0605 14.0687 15.696L13.3979 17.0377C14.3352 17.5063 15.3687 17.7503 16.4166 17.7503V16.2503Z" fill="#344054"/>
</svg>
