<svg width="24" height="24" viewBox="0 0 24 24" fill="none" xmlns="http://www.w3.org/2000/svg">
<path d="M2 7.25C1.58579 7.25 1.25 7.58579 1.25 8C1.25 8.41421 1.58579 8.75 2 8.75V7.25ZM4 8L4.30061 7.31288C4.20582 7.27141 4.10347 7.25 4 7.25V8ZM7.29544 12.8106C6.91472 12.6475 6.47381 12.8238 6.31064 13.2046C6.14747 13.5853 6.32384 14.0262 6.70456 14.1894L7.29544 12.8106ZM2 8.75H4V7.25H2V8.75ZM3.69939 8.68712L9.96163 11.4269L10.5629 10.0526L4.30061 7.31288L3.69939 8.68712ZM9.03886 13.5578L7.29544 12.8106L6.70456 14.1894L8.44798 14.9365L9.03886 13.5578ZM10.5635 12.948C10.3109 13.5374 9.62827 13.8104 9.03886 13.5578L8.44798 14.9365C9.79884 15.5155 11.3632 14.8897 11.9422 13.5389L10.5635 12.948ZM9.96163 11.4269C10.546 11.6825 10.8147 12.3617 10.5635 12.948L11.9422 13.5389C12.518 12.1952 11.9022 10.6386 10.5629 10.0526L9.96163 11.4269Z" fill="#344054"/>
<path d="M2.33557 16.3295C1.96509 16.1442 1.51458 16.2944 1.32934 16.6649C1.1441 17.0354 1.29427 17.4859 1.66475 17.6711L2.33557 16.3295ZM11.3356 13.3295L10.6648 12.9941L9.99393 14.3357L10.6648 14.6711L11.3356 13.3295ZM16.4166 16.7503H18.0002V15.2503H16.4166V16.7503ZM18.0002 19.2503H9.8887V20.7503H18.0002V19.2503ZM6.64641 18.4849L2.33557 16.3295L1.66475 17.6711L5.97558 19.8265L6.64641 18.4849ZM14.0687 14.696L11.3356 13.3295L10.6648 14.6711L13.3979 16.0377L14.0687 14.696ZM9.8887 19.2503C8.76318 19.2503 7.65311 18.9882 6.64641 18.4849L5.97558 19.8265C7.19057 20.434 8.53031 20.7503 9.8887 20.7503V19.2503ZM19.2502 18.0003C19.2502 18.6907 18.6906 19.2503 18.0002 19.2503V20.7503C19.519 20.7503 20.7502 19.5191 20.7502 18.0003H19.2502ZM18.0002 16.7503C18.6906 16.7503 19.2502 17.3099 19.2502 18.0003H20.7502C20.7502 16.4815 19.519 15.2503 18.0002 15.2503V16.7503ZM16.4166 15.2503C15.6016 15.2503 14.7977 15.0605 14.0687 14.696L13.3979 16.0377C14.3352 16.5063 15.3687 16.7503 16.4166 16.7503V15.2503Z" fill="#344054"/>
<path d="M18 12C20.2091 12 22 10.2091 22 8C22 5.79086 20.2091 4 18 4C15.7909 4 14 5.79086 14 8C14 10.2091 15.7909 12 18 12Z" stroke="#344054" stroke-width="1.5"/>
</svg>
