<svg width="24" height="24" viewBox="0 0 24 24" fill="none" xmlns="http://www.w3.org/2000/svg">
<path d="M14.9998 13H14.2498C14.2498 13.4142 14.5856 13.75 14.9998 13.75V13ZM8.99983 13V13.75C9.41404 13.75 9.74983 13.4142 9.74983 13H8.99983ZM15.7498 13V5H14.2498V13H15.7498ZM12.9998 2.25H10.9998V3.75H12.9998V2.25ZM8.24983 5V13H9.74983V5H8.24983ZM8.99983 12.25H7.2036V13.75H8.99983V12.25ZM5.88659 15.1524L9.93025 19.7737L11.0591 18.7859L7.01545 14.1646L5.88659 15.1524ZM14.0694 19.7737L18.113 15.1524L16.9842 14.1646L12.9405 18.7859L14.0694 19.7737ZM16.796 12.25H14.9998V13.75H16.796V12.25ZM9.93025 19.7737C11.0258 21.0259 12.9738 21.0259 14.0694 19.7737L12.9405 18.7859C12.4425 19.3551 11.5571 19.3551 11.0591 18.7859L9.93025 19.7737ZM7.2036 12.25C5.70007 12.25 4.89651 14.0209 5.88659 15.1524L7.01545 14.1646C6.87401 14.003 6.98881 13.75 7.2036 13.75V12.25ZM10.9998 2.25C9.48105 2.25 8.24983 3.48122 8.24983 5H9.74983C9.74983 4.30964 10.3094 3.75 10.9998 3.75V2.25ZM18.113 15.1524C19.1031 14.0209 18.2996 12.25 16.796 12.25V13.75C17.0108 13.75 17.1256 14.003 16.9842 14.1646L18.113 15.1524ZM15.7498 5C15.7498 3.48122 14.5186 2.25 12.9998 2.25V3.75C13.6902 3.75 14.2498 4.30964 14.2498 5H15.7498Z" fill="#344054"/>
</svg>
