<svg width="24" height="24" viewBox="0 0 24 24" fill="none" xmlns="http://www.w3.org/2000/svg">
<path d="M13.955 5.0049C13.6621 5.2978 13.6621 5.77267 13.955 6.06556C14.2479 6.35846 14.7228 6.35846 15.0157 6.06556L13.955 5.0049ZM16.7835 7.83333C16.4906 8.12622 16.4906 8.6011 16.7835 8.89399C17.0764 9.18688 17.5512 9.18688 17.8441 8.89399L16.7835 7.83333ZM15.0157 6.06556L17.137 3.94424L16.0764 2.88358L13.955 5.0049L15.0157 6.06556ZM18.9048 5.71201L16.7835 7.83333L17.8441 8.89399L19.9654 6.77267L18.9048 5.71201ZM18.9048 3.94424C19.3929 4.4324 19.3929 5.22386 18.9048 5.71201L19.9654 6.77267C21.0394 5.69873 21.0394 3.95753 19.9654 2.88358L18.9048 3.94424ZM17.137 3.94424C17.6252 3.45609 18.4166 3.45609 18.9048 3.94424L19.9654 2.88358C18.8915 1.80964 17.1503 1.80964 16.0764 2.88358L17.137 3.94424Z" fill="#344054"/>
<path d="M13.9549 5.0058C14.2477 4.71291 14.7226 4.71291 15.0155 5.0058C15.3084 5.2987 15.3084 5.77357 15.0155 6.06646L13.9549 5.0058ZM16.7833 7.83423C17.0762 7.54134 17.551 7.54134 17.8439 7.83423C18.1368 8.12713 18.1368 8.602 17.8439 8.89489L16.7833 7.83423ZM7.41406 15.4356V16.1856H6.66406V15.4356H7.41406ZM15.0155 6.06646L9.11597 11.9659L8.05531 10.9053L13.9549 5.0058L15.0155 6.06646ZM10.8838 13.7337L16.7833 7.83423L17.8439 8.89489L11.9444 14.7944L10.8838 13.7337ZM8.16406 14.264V15.4356H6.66406V14.264H8.16406ZM7.41406 14.6856H8.58564V16.1856H7.41406V14.6856ZM11.9444 14.7944C11.0536 15.6852 9.84542 16.1856 8.58564 16.1856V14.6856C9.44759 14.6856 10.2743 14.3432 10.8838 13.7337L11.9444 14.7944ZM9.11597 11.9659C8.50647 12.5754 8.16406 13.4021 8.16406 14.264H6.66406C6.66406 13.0043 7.16451 11.7961 8.05531 10.9053L9.11597 11.9659Z" fill="#344054"/>
<path d="M13.0713 4.12109L18.7281 9.77795" stroke="#344054" stroke-width="1.5" stroke-linecap="round" stroke-linejoin="round"/>
<path d="M7 20.5C7 21.6046 6.32843 22 5.5 22C4.67157 22 4 21.6046 4 20.5C4 19.3954 5.5 18 5.5 18C5.5 18 7 19.3954 7 20.5Z" stroke="#344054" stroke-width="1.5" stroke-linejoin="round"/>
</svg>
