<svg width="24" height="24" viewBox="0 0 24 24" fill="none" xmlns="http://www.w3.org/2000/svg">
<path d="M20.6303 5.34564L21.2261 5.80124C21.2351 5.78944 21.2438 5.77738 21.2521 5.76506L20.6303 5.34564ZM14.9086 12.8274L14.3129 12.3718C14.3039 12.3836 14.2952 12.3957 14.2869 12.408L14.9086 12.8274ZM9.09081 12.8274L9.71256 12.408C9.70425 12.3957 9.69558 12.3836 9.68656 12.3718L9.09081 12.8274ZM3.3691 5.34564L2.74735 5.76506C2.75565 5.77738 2.76432 5.78944 2.77335 5.80124L3.3691 5.34564ZM5.1809 2.75H18.8185V1.25H5.1809V2.75ZM20.0346 4.89003L14.3129 12.3718L15.5044 13.283L21.2261 5.80124L20.0346 4.89003ZM13.4272 15.2148V18.7699H14.9272V15.2148H13.4272ZM13.3311 18.9973L11.1536 21.1492L12.208 22.2161L14.3855 20.0642L13.3311 18.9973ZM10.5722 20.9219V15.2148H9.07222V20.9219H10.5722ZM9.68656 12.3718L3.96486 4.89003L2.77335 5.80124L8.49504 13.283L9.68656 12.3718ZM10.5722 15.2148C10.5722 14.2151 10.2727 13.2384 9.71256 12.408L8.46904 13.2469C8.86271 13.8304 9.07222 14.5152 9.07222 15.2148H10.5722ZM11.1536 21.1492C10.9283 21.3719 10.5722 21.196 10.5722 20.9219H9.07222C9.07222 22.5649 11.0615 23.3492 12.208 22.2161L11.1536 21.1492ZM13.4272 18.7699C13.4272 18.8535 13.3937 18.9355 13.3311 18.9973L14.3855 20.0642C14.7313 19.7225 14.9272 19.2571 14.9272 18.7699H13.4272ZM14.2869 12.408C13.7267 13.2384 13.4272 14.2151 13.4272 15.2148H14.9272C14.9272 14.5152 15.1367 13.8304 15.5304 13.2469L14.2869 12.408ZM18.8185 2.75C19.9732 2.75 20.6281 4.00775 20.0086 4.92621L21.2521 5.76506C22.5619 3.82335 21.1422 1.25 18.8185 1.25V2.75ZM5.1809 1.25C2.8572 1.25 1.43749 3.82334 2.74735 5.76506L3.99086 4.92621C3.37128 4.00775 4.02626 2.75 5.1809 2.75V1.25Z" fill="#344054"/>
</svg>
