<svg width="24" height="24" viewBox="0 0 24 24" fill="none" xmlns="http://www.w3.org/2000/svg">
<path d="M4 4L20 20" stroke="#344054" stroke-width="1.5" stroke-linecap="round" stroke-linejoin="round"/>
<path d="M14 2.00004H14.75C14.75 1.68005 14.547 1.3953 14.2445 1.291C13.942 1.1867 13.6066 1.28582 13.4094 1.53781L14 2.00004ZM5 13.5L4.40937 13.0378C4.23258 13.2637 4.20013 13.5706 4.32577 13.8285C4.45141 14.0864 4.71314 14.25 5 14.25V13.5ZM10 13.5H10.75C10.75 13.0858 10.4142 12.75 10 12.75V13.5ZM10 22H9.25C9.25 22.32 9.45302 22.6047 9.75553 22.709C10.058 22.8133 10.3934 22.7142 10.5906 22.4622L10 22ZM19 10.5L19.5906 10.9622C19.7674 10.7363 19.7999 10.4294 19.6742 10.1715C19.5486 9.91366 19.2869 9.75004 19 9.75004V10.5ZM14 10.5H13.25C13.25 10.9142 13.5858 11.25 14 11.25V10.5ZM9.89717 6.02562C9.64189 6.35181 9.69937 6.82319 10.0256 7.07848C10.3518 7.33376 10.8231 7.27628 11.0784 6.95008L9.89717 6.02562ZM9.32233 9.19398C9.57762 8.86779 9.52013 8.39641 9.19393 8.14112C8.86774 7.88584 8.39636 7.94333 8.14108 8.26952L9.32233 9.19398ZM16.4338 12.5622C16.1785 12.8884 16.236 13.3597 16.5622 13.615C16.8884 13.8703 17.3597 13.8128 17.615 13.4866L16.4338 12.5622ZM15.8589 15.7305C16.1142 15.4043 16.0567 14.933 15.7305 14.6777C15.4043 14.4224 14.9329 14.4799 14.6777 14.8061L15.8589 15.7305ZM5 14.25H10V12.75H5V14.25ZM9.25 13.5V22H10.75V13.5H9.25ZM19 9.75004H14.5V11.25H19V9.75004ZM14.5 9.75004H14V11.25H14.5V9.75004ZM14.75 10.5V10H13.25V10.5H14.75ZM14.75 10V2.00004H13.25V10H14.75ZM13.4094 1.53781L9.89717 6.02562L11.0784 6.95008L14.5906 2.46227L13.4094 1.53781ZM8.14108 8.26952L4.40937 13.0378L5.59063 13.9622L9.32233 9.19398L8.14108 8.26952ZM17.615 13.4866L19.5906 10.9622L18.4094 10.0378L16.4338 12.5622L17.615 13.4866ZM10.5906 22.4622L15.8589 15.7305L14.6777 14.8061L9.40937 21.5378L10.5906 22.4622Z" fill="#344054"/>
</svg>
