<svg width="24" height="24" viewBox="0 0 24 24" fill="none" xmlns="http://www.w3.org/2000/svg">
<path d="M8.46941 14.4697C8.17651 14.7626 8.17651 15.2374 8.46941 15.5303C8.7623 15.8232 9.23717 15.8232 9.53007 15.5303L8.46941 14.4697ZM14.4694 15.5303C14.7623 15.8232 15.2372 15.8232 15.5301 15.5303C15.823 15.2374 15.823 14.7626 15.5301 14.4697L14.4694 15.5303ZM12.7498 13C12.7498 12.5858 12.414 12.25 11.9998 12.25C11.5855 12.25 11.2498 12.5858 11.2498 13H12.7498ZM11.2498 18C11.2498 18.4142 11.5855 18.75 11.9998 18.75C12.414 18.75 12.7498 18.4142 12.7498 18H11.2498ZM19.9998 8V8.75C20.414 8.75 20.7498 8.41421 20.7498 8H19.9998ZM3.99974 8H3.24974C3.24974 8.41421 3.58552 8.75 3.99974 8.75V8ZM9.53007 15.5303L11.1159 13.9445L10.0552 12.8839L8.46941 14.4697L9.53007 15.5303ZM12.8836 13.9445L14.4694 15.5303L15.5301 14.4697L13.9443 12.8839L12.8836 13.9445ZM11.2498 13V18H12.7498V13H11.2498ZM11.1159 13.9445C11.604 13.4564 12.3955 13.4564 12.8836 13.9445L13.9443 12.8839C12.8704 11.8099 11.1292 11.8099 10.0552 12.8839L11.1159 13.9445ZM19.2498 7V8H20.7498V7H19.2498ZM19.9998 7.25H3.99974V8.75H19.9998V7.25ZM4.74974 8V5H3.24974V8H4.74974ZM14.1973 4.75H16.9998V3.25H14.1973V4.75ZM6.99974 2.75H9.56891V1.25H6.99974V2.75ZM10.9519 3.2252L11.8923 3.958L12.8143 2.7748L11.8739 2.042L10.9519 3.2252ZM14.1973 3.25C13.6962 3.25 13.2095 3.08276 12.8143 2.7748L11.8923 3.958C12.551 4.47127 13.3622 4.75 14.1973 4.75V3.25ZM20.7498 7C20.7498 4.92893 19.0708 3.25 16.9998 3.25V4.75C18.2424 4.75 19.2498 5.75736 19.2498 7H20.7498ZM9.56891 2.75C10.07 2.75 10.5567 2.91724 10.9519 3.2252L11.8739 2.042C11.2152 1.52873 10.404 1.25 9.56891 1.25V2.75ZM4.74974 5C4.74974 3.75736 5.7571 2.75 6.99974 2.75V1.25C4.92867 1.25 3.24974 2.92893 3.24974 5H4.74974ZM3.47371 8.75H20.5258V7.25H3.47371V8.75ZM21.748 10.2619L19.944 18.681L21.4107 18.9953L23.2147 10.5762L21.748 10.2619ZM16.7661 21.25H7.2334V22.75H16.7661V21.25ZM4.05554 18.681L2.25146 10.2619L0.78475 10.5762L2.58884 18.9953L4.05554 18.681ZM7.2334 21.25C5.7009 21.25 4.37664 20.1794 4.05554 18.681L2.58884 18.9953C3.05814 21.1853 4.99359 22.75 7.2334 22.75V21.25ZM19.944 18.681C19.6228 20.1794 18.2986 21.25 16.7661 21.25V22.75C19.0059 22.75 20.9413 21.1853 21.4107 18.9953L19.944 18.681ZM20.5258 8.75C21.3216 8.75 21.9148 9.48377 21.748 10.2619L23.2147 10.5762C23.5816 8.8643 22.2766 7.25 20.5258 7.25V8.75ZM3.47371 7.25C1.72294 7.25 0.417912 8.8643 0.78475 10.5762L2.25146 10.2619C2.08471 9.48377 2.67791 8.75 3.47371 8.75V7.25Z" fill="#344054"/>
</svg>
