<svg width="24" height="24" viewBox="0 0 24 24" fill="none" xmlns="http://www.w3.org/2000/svg">
<path d="M21.0663 16.6363C21.3591 16.3434 21.3591 15.8686 21.0663 15.5757C20.7734 15.2828 20.2985 15.2828 20.0056 15.5757L21.0663 16.6363ZM6.9241 2.4942C7.21699 2.2013 7.21699 1.72643 6.9241 1.43354C6.63121 1.14064 6.15633 1.14064 5.86344 1.43354L6.9241 2.4942ZM10.4651 21.2849C10.0509 21.2849 9.71506 21.6207 9.71506 22.0349C9.71506 22.4491 10.0509 22.7849 10.4651 22.7849V21.2849ZM16.4651 22.7849C16.8793 22.7849 17.2151 22.4491 17.2151 22.0349C17.2151 21.6207 16.8793 21.2849 16.4651 21.2849V22.7849ZM19.7151 9.03494C19.7151 12.4867 16.9169 15.2849 13.4651 15.2849V16.7849C17.7453 16.7849 21.2151 13.3151 21.2151 9.03494H19.7151ZM13.4651 15.2849C10.0133 15.2849 7.21506 12.4867 7.21506 9.03494H5.71506C5.71506 13.3151 9.18485 16.7849 13.4651 16.7849V15.2849ZM7.21506 9.03494C7.21506 5.58316 10.0133 2.78494 13.4651 2.78494V1.28494C9.18485 1.28494 5.71506 4.75473 5.71506 9.03494H7.21506ZM13.4651 2.78494C16.9169 2.78494 19.7151 5.58316 19.7151 9.03494H21.2151C21.2151 4.75473 17.7453 1.28494 13.4651 1.28494V2.78494ZM20.0056 15.5757C19.1467 16.4346 18.1269 17.116 17.0047 17.5808L17.5787 18.9666C18.883 18.4264 20.068 17.6346 21.0663 16.6363L20.0056 15.5757ZM17.0047 17.5808C15.8824 18.0457 14.6796 18.2849 13.4649 18.2849V19.7849C14.8766 19.7849 16.2745 19.5069 17.5787 18.9666L17.0047 17.5808ZM13.4649 18.2849C12.2501 18.2849 11.0473 18.0457 9.92501 17.5808L9.35099 18.9666C10.6553 19.5069 12.0531 19.7849 13.4649 19.7849V18.2849ZM9.92501 17.5808C8.80275 17.116 7.78304 16.4346 6.9241 15.5757L5.86344 16.6363C6.86167 17.6346 8.04674 18.4264 9.35099 18.9666L9.92501 17.5808ZM6.9241 15.5757C6.06516 14.7167 5.38381 13.697 4.91895 12.5747L3.53313 13.1488C4.07337 14.453 4.86521 15.6381 5.86344 16.6363L6.9241 15.5757ZM4.91895 12.5747C4.45409 11.4525 4.21484 10.2496 4.21484 9.03493H2.71484C2.71484 10.4466 2.99289 11.8445 3.53313 13.1488L4.91895 12.5747ZM4.21484 9.03493C4.21484 7.82021 4.45409 6.61737 4.91895 5.49511L3.53313 4.92109C2.99289 6.22534 2.71484 7.62322 2.71484 9.03493H4.21484ZM4.91895 5.49511C5.38381 4.37285 6.06516 3.35314 6.9241 2.4942L5.86344 1.43354C4.86521 2.43177 4.07337 3.61684 3.53313 4.92109L4.91895 5.49511ZM12.7149 19.035L12.7151 22.035L14.2151 22.0349L14.2149 19.0349L12.7149 19.035ZM13.4651 21.2849H10.4651V22.7849H13.4651V21.2849ZM13.4651 22.7849H16.4651V21.2849H13.4651V22.7849Z" fill="#344054"/>
</svg>
