<svg width="24" height="24" viewBox="0 0 24 24" fill="none" xmlns="http://www.w3.org/2000/svg">
<path d="M8.00014 11.25C7.58593 11.25 7.25014 11.5858 7.25014 12C7.25014 12.4142 7.58593 12.75 8.00014 12.75V11.25ZM10.0001 12.75C10.4143 12.75 10.7501 12.4142 10.7501 12C10.7501 11.5858 10.4143 11.25 10.0001 11.25V12.75ZM12.0001 11.25C11.5859 11.25 11.2501 11.5858 11.2501 12C11.2501 12.4142 11.5859 12.75 12.0001 12.75V11.25ZM16.0001 12.75C16.4143 12.75 16.7501 12.4142 16.7501 12C16.7501 11.5858 16.4143 11.25 16.0001 11.25V12.75ZM14.0001 16.25C13.5859 16.25 13.2501 16.5858 13.2501 17C13.2501 17.4142 13.5859 17.75 14.0001 17.75V16.25ZM16.0001 17.75C16.4143 17.75 16.7501 17.4142 16.7501 17C16.7501 16.5858 16.4143 16.25 16.0001 16.25V17.75ZM8.00014 16.25C7.58593 16.25 7.25014 16.5858 7.25014 17C7.25014 17.4142 7.58593 17.75 8.00014 17.75V16.25ZM12.0001 17.75C12.4143 17.75 12.7501 17.4142 12.7501 17C12.7501 16.5858 12.4143 16.25 12.0001 16.25V17.75ZM10.7501 11C10.7501 10.5858 10.4143 10.25 10.0001 10.25C9.58593 10.25 9.25014 10.5858 9.25014 11H10.7501ZM9.25014 13C9.25014 13.4142 9.58593 13.75 10.0001 13.75C10.4143 13.75 10.7501 13.4142 10.7501 13H9.25014ZM14.7501 16C14.7501 15.5858 14.4143 15.25 14.0001 15.25C13.5859 15.25 13.2501 15.5858 13.2501 16H14.7501ZM13.2501 18C13.2501 18.4142 13.5859 18.75 14.0001 18.75C14.4143 18.75 14.7501 18.4142 14.7501 18H13.2501ZM16.1805 21.25H7.81979V22.75H16.1805V21.25ZM3.58027 7.81306L9.969 3.37914L9.11375 2.14685L2.72502 6.58077L3.58027 7.81306ZM14.0312 3.37914L20.42 7.81306L21.2752 6.58077L14.8865 2.14685L14.0312 3.37914ZM19.6108 13.133V18.0108H21.1108V13.133H19.6108ZM4.38944 18.0108V13.133H2.88944V18.0108H4.38944ZM4.38944 13.133C4.38944 12.2143 4.00665 11.3407 3.33761 10.7022L2.30205 11.7874C2.68258 12.1505 2.88944 12.6354 2.88944 13.133H4.38944ZM20.6626 10.7022C19.9936 11.3407 19.6108 12.2143 19.6108 13.133H21.1108C21.1108 12.6354 21.3177 12.1505 21.6982 11.7874L20.6626 10.7022ZM9.969 3.37914C11.1776 2.54029 12.8225 2.54029 14.0312 3.37914L14.8865 2.14685C13.1635 0.95105 10.8367 0.95105 9.11375 2.14685L9.969 3.37914ZM7.81979 21.25C5.8918 21.25 4.38944 19.7671 4.38944 18.0108H2.88944C2.88944 20.6609 5.13029 22.75 7.81979 22.75V21.25ZM16.1805 22.75C18.8699 22.75 21.1108 20.6609 21.1108 18.0108H19.6108C19.6108 19.7671 18.1084 21.25 16.1805 21.25V22.75ZM20.42 7.81306C21.4263 8.51149 21.5301 9.87443 20.6626 10.7022L21.6982 11.7874C23.2625 10.2946 23.0501 7.8126 21.2752 6.58077L20.42 7.81306ZM2.72502 6.58077C0.950092 7.8126 0.737715 10.2946 2.30205 11.7874L3.33761 10.7022C2.47017 9.87443 2.57392 8.51149 3.58027 7.81306L2.72502 6.58077ZM8.00014 12.75H10.0001V11.25H8.00014V12.75ZM12.0001 12.75H16.0001V11.25H12.0001V12.75ZM14.0001 17.75H16.0001V16.25H14.0001V17.75ZM8.00014 17.75H12.0001V16.25H8.00014V17.75ZM9.25014 11V13H10.7501V11H9.25014ZM13.2501 16V18H14.7501V16H13.2501Z" fill="#344054"/>
</svg>
