<svg width="24" height="24" viewBox="0 0 24 24" fill="none" xmlns="http://www.w3.org/2000/svg">
<path d="M7.67096 10.6646C7.48572 10.2941 7.03521 10.1439 6.66473 10.3292C6.29425 10.5144 6.14408 10.9649 6.32932 11.3354L7.67096 10.6646ZM16.0001 17V17.75C16.2842 17.75 16.5439 17.5895 16.6709 17.3354L16.0001 17ZM17.6709 15.3354C17.8562 14.9649 17.706 14.5144 17.3355 14.3292C16.965 14.1439 16.5145 14.2941 16.3293 14.6646L17.6709 15.3354ZM14.0001 16.25C13.5859 16.25 13.2501 16.5858 13.2501 17C13.2501 17.4142 13.5859 17.75 14.0001 17.75V16.25ZM16.1805 21.25H7.81979V22.75H16.1805V21.25ZM3.58027 7.81306L9.969 3.37914L9.11375 2.14685L2.72502 6.58077L3.58027 7.81306ZM14.0312 3.37914L20.42 7.81306L21.2752 6.58077L14.8865 2.14685L14.0312 3.37914ZM19.6108 13.133V18.0108H21.1108V13.133H19.6108ZM4.38944 18.0108V13.133H2.88944V18.0108H4.38944ZM4.38944 13.133C4.38944 12.2143 4.00665 11.3407 3.33761 10.7022L2.30205 11.7874C2.68258 12.1505 2.88944 12.6354 2.88944 13.133H4.38944ZM20.6626 10.7022C19.9936 11.3407 19.6108 12.2143 19.6108 13.133H21.1108C21.1108 12.6354 21.3177 12.1505 21.6982 11.7874L20.6626 10.7022ZM9.969 3.37914C11.1776 2.54029 12.8225 2.54029 14.0312 3.37914L14.8865 2.14685C13.1635 0.95105 10.8367 0.95105 9.11375 2.14685L9.969 3.37914ZM7.81979 21.25C5.8918 21.25 4.38944 19.7671 4.38944 18.0108H2.88944C2.88944 20.6609 5.13029 22.75 7.81979 22.75V21.25ZM16.1805 22.75C18.8699 22.75 21.1108 20.6609 21.1108 18.0108H19.6108C19.6108 19.7671 18.1084 21.25 16.1805 21.25V22.75ZM20.42 7.81306C21.4263 8.51149 21.5301 9.87443 20.6626 10.7022L21.6982 11.7874C23.2625 10.2946 23.0501 7.8126 21.2752 6.58077L20.42 7.81306ZM2.72502 6.58077C0.950092 7.8126 0.737715 10.2946 2.30205 11.7874L3.33761 10.7022C2.47017 9.87443 2.57392 8.51149 3.58027 7.81306L2.72502 6.58077ZM6.32932 11.3354L8.43489 15.5466L9.77653 14.8757L7.67096 10.6646L6.32932 11.3354ZM11.5653 15.5466L12.7765 13.1243L11.4349 12.4534L10.2237 14.8757L11.5653 15.5466ZM13.2237 13.1243L15.3293 17.3354L16.6709 16.6646L14.5653 12.4534L13.2237 13.1243ZM16.6709 17.3354L17.6709 15.3354L16.3293 14.6646L15.3293 16.6646L16.6709 17.3354ZM16.0001 16.25H14.0001V17.75H16.0001V16.25ZM12.7765 13.1243C12.8686 12.94 13.1316 12.94 13.2237 13.1243L14.5653 12.4534C13.9204 11.1636 12.0798 11.1636 11.4349 12.4534L12.7765 13.1243ZM8.43489 15.5466C9.07981 16.8364 10.9204 16.8364 11.5653 15.5466L10.2237 14.8757C10.1316 15.06 9.86866 15.06 9.77653 14.8757L8.43489 15.5466Z" fill="#344054"/>
</svg>
