<svg width="24" height="24" viewBox="0 0 24 24" fill="none" xmlns="http://www.w3.org/2000/svg">
<path d="M12.0001 19L11.5202 19.5763C11.7982 19.8079 12.202 19.8079 12.48 19.5763L12.0001 19ZM16.1805 21.25H7.81979V22.75H16.1805V21.25ZM3.58027 7.81306L9.969 3.37914L9.11375 2.14685L2.72502 6.58077L3.58027 7.81306ZM14.0312 3.37914L20.42 7.81306L21.2752 6.58077L14.8865 2.14685L14.0312 3.37914ZM19.6108 13.133V18.0108H21.1108V13.133H19.6108ZM4.38944 18.0108V13.133H2.88944V18.0108H4.38944ZM4.38944 13.133C4.38944 12.2143 4.00665 11.3407 3.33761 10.7022L2.30205 11.7874C2.68258 12.1505 2.88944 12.6354 2.88944 13.133H4.38944ZM20.6626 10.7022C19.9936 11.3407 19.6108 12.2143 19.6108 13.133H21.1108C21.1108 12.6354 21.3177 12.1505 21.6982 11.7874L20.6626 10.7022ZM9.969 3.37914C11.1776 2.54029 12.8225 2.54029 14.0312 3.37914L14.8865 2.14685C13.1635 0.95105 10.8367 0.95105 9.11375 2.14685L9.969 3.37914ZM7.81979 21.25C5.8918 21.25 4.38944 19.7671 4.38944 18.0108H2.88944C2.88944 20.6609 5.13029 22.75 7.81979 22.75V21.25ZM16.1805 22.75C18.8699 22.75 21.1108 20.6609 21.1108 18.0108H19.6108C19.6108 19.7671 18.1084 21.25 16.1805 21.25V22.75ZM20.42 7.81306C21.4263 8.51149 21.5301 9.87443 20.6626 10.7022L21.6982 11.7874C23.2625 10.2946 23.0501 7.8126 21.2752 6.58077L20.42 7.81306ZM2.72502 6.58077C0.950092 7.8126 0.737715 10.2946 2.30205 11.7874L3.33761 10.7022C2.47017 9.87443 2.57392 8.51149 3.58027 7.81306L2.72502 6.58077ZM14.7501 13.6C14.7501 14.053 14.5876 14.5772 14.2897 15.1426C13.995 15.7019 13.5932 16.2539 13.1764 16.749C12.7614 17.2418 12.3443 17.6634 12.0301 17.9623C11.8735 18.1113 11.7436 18.2286 11.6539 18.3078C11.6091 18.3474 11.5744 18.3774 11.5515 18.397C11.5401 18.4068 11.5316 18.414 11.5263 18.4185C11.5237 18.4207 11.5218 18.4223 11.5208 18.4232C11.5203 18.4236 11.5199 18.4238 11.5198 18.4239C11.5198 18.4239 11.5202 18.4237 12.0001 19C12.48 19.5763 12.4799 19.5764 12.48 19.5763C12.4798 19.5764 12.4801 19.5762 12.48 19.5763C12.4802 19.5761 12.4813 19.5753 12.4816 19.575C12.4824 19.5744 12.4833 19.5736 12.4845 19.5726C12.4868 19.5707 12.49 19.568 12.494 19.5646C12.5019 19.5579 12.5131 19.5485 12.5273 19.5363C12.5557 19.512 12.5962 19.4769 12.6471 19.432C12.7488 19.3421 12.8924 19.2123 13.0639 19.0492C13.4059 18.7239 13.8638 18.2615 14.3238 17.715C14.782 17.1708 15.2552 16.5281 15.6168 15.8418C15.9751 15.1617 16.2501 14.3896 16.2501 13.6H14.7501ZM12.0001 19C12.48 18.4237 12.4802 18.4238 12.4802 18.4238C12.4801 18.4238 12.4803 18.4239 12.4802 18.4238C12.4792 18.4229 12.4765 18.4207 12.4739 18.4185C12.4686 18.414 12.4601 18.4068 12.4487 18.397C12.4258 18.3774 12.3911 18.3474 12.3463 18.3078C12.2566 18.2286 12.1267 18.1113 11.9701 17.9623C11.6559 17.6634 11.2388 17.2418 10.8238 16.749C10.407 16.2539 10.0052 15.7019 9.71054 15.1426C9.41263 14.5772 9.25014 14.053 9.25014 13.6H7.75014C7.75014 14.3896 8.02514 15.1617 8.38349 15.8418C8.74507 16.5281 9.21821 17.1708 9.67639 17.715C10.1364 18.2615 10.5943 18.7239 10.9363 19.0492C11.1078 19.2123 11.2514 19.3421 11.3531 19.432C11.404 19.4769 11.4445 19.512 11.4729 19.5363C11.4871 19.5485 11.4983 19.5579 11.5062 19.5646C11.5102 19.568 11.5134 19.5707 11.5157 19.5726C11.5169 19.5736 11.5178 19.5744 11.5186 19.575C11.5189 19.5753 11.52 19.5761 11.5202 19.5763C11.5201 19.5762 11.5204 19.5764 11.5202 19.5763C11.5203 19.5764 11.5202 19.5763 12.0001 19ZM9.25014 13.6C9.25014 12.5599 9.62774 11.8692 10.125 11.4304C10.6388 10.977 11.3303 10.75 12.0001 10.75V9.25C11.0131 9.25 9.9546 9.58033 9.13259 10.3056C8.29411 11.0455 7.75014 12.1548 7.75014 13.6H9.25014ZM12.0001 10.75C12.6699 10.75 13.3614 10.977 13.8752 11.4304C14.3725 11.8692 14.7501 12.5599 14.7501 13.6H16.2501C16.2501 12.1548 15.7061 11.0455 14.8676 10.3056C14.0456 9.58033 12.9871 9.25 12.0001 9.25V10.75Z" fill="#344054"/>
<path d="M12 14C12.5523 14 13 13.5523 13 13C13 12.4477 12.5523 12 12 12C11.4477 12 11 12.4477 11 13C11 13.5523 11.4477 14 12 14Z" fill="#344054"/>
</svg>
