<svg width="24" height="24" viewBox="0 0 24 24" fill="none" xmlns="http://www.w3.org/2000/svg">
<path d="M10.5304 14.4697C10.2375 14.1768 9.7627 14.1768 9.46981 14.4697C9.17692 14.7626 9.17692 15.2374 9.46981 15.5303L10.5304 14.4697ZM14.5304 15.5303C14.8233 15.2374 14.8233 14.7626 14.5304 14.4697C14.2375 14.1768 13.7627 14.1768 13.4698 14.4697L14.5304 15.5303ZM11.2501 16C11.2501 16.4142 11.5859 16.75 12.0001 16.75C12.4143 16.75 12.7501 16.4142 12.7501 16H11.2501ZM12.7501 9C12.7501 8.58579 12.4143 8.25 12.0001 8.25C11.5859 8.25 11.2501 8.58579 11.2501 9H12.7501ZM16.1805 21.25H7.81979V22.75H16.1805V21.25ZM3.58027 7.81306L9.969 3.37914L9.11375 2.14685L2.72502 6.58077L3.58027 7.81306ZM14.0312 3.37914L20.42 7.81306L21.2752 6.58077L14.8865 2.14685L14.0312 3.37914ZM19.6108 13.133V18.0108H21.1108V13.133H19.6108ZM4.38944 18.0108V13.133H2.88944V18.0108H4.38944ZM4.38944 13.133C4.38944 12.2143 4.00665 11.3407 3.33761 10.7022L2.30205 11.7874C2.68258 12.1505 2.88944 12.6354 2.88944 13.133H4.38944ZM20.6626 10.7022C19.9936 11.3407 19.6108 12.2143 19.6108 13.133H21.1108C21.1108 12.6354 21.3177 12.1505 21.6982 11.7874L20.6626 10.7022ZM9.969 3.37914C11.1776 2.54029 12.8225 2.54029 14.0312 3.37914L14.8865 2.14685C13.1635 0.95105 10.8367 0.95105 9.11375 2.14685L9.969 3.37914ZM7.81979 21.25C5.8918 21.25 4.38944 19.7671 4.38944 18.0108H2.88944C2.88944 20.6609 5.13029 22.75 7.81979 22.75V21.25ZM16.1805 22.75C18.8699 22.75 21.1108 20.6609 21.1108 18.0108H19.6108C19.6108 19.7671 18.1084 21.25 16.1805 21.25V22.75ZM20.42 7.81306C21.4263 8.51149 21.5301 9.87443 20.6626 10.7022L21.6982 11.7874C23.2625 10.2946 23.0501 7.8126 21.2752 6.58077L20.42 7.81306ZM2.72502 6.58077C0.950092 7.8126 0.737715 10.2946 2.30205 11.7874L3.33761 10.7022C2.47017 9.87443 2.57392 8.51149 3.58027 7.81306L2.72502 6.58077ZM9.46981 15.5303L10.7627 16.8232L11.8233 15.7626L10.5304 14.4697L9.46981 15.5303ZM13.2375 16.8232L14.5304 15.5303L13.4698 14.4697L12.1769 15.7626L13.2375 16.8232ZM10.7627 16.8232C11.4461 17.5066 12.5541 17.5066 13.2375 16.8232L12.1769 15.7626C12.0792 15.8602 11.921 15.8602 11.8233 15.7626L10.7627 16.8232ZM12.7501 16V9H11.2501V16H12.7501Z" fill="#344054"/>
</svg>
