<svg width="24" height="24" viewBox="0 0 24 24" fill="none" xmlns="http://www.w3.org/2000/svg">
<path d="M10.0001 17.25C9.58593 17.25 9.25014 17.5858 9.25014 18C9.25014 18.4142 9.58593 18.75 10.0001 18.75V17.25ZM14.0001 18.75C14.4143 18.75 14.7501 18.4142 14.7501 18C14.7501 17.5858 14.4143 17.25 14.0001 17.25V18.75ZM16.1805 21.25H7.81979V22.75H16.1805V21.25ZM3.58027 7.81306L9.969 3.37914L9.11375 2.14685L2.72502 6.58077L3.58027 7.81306ZM14.0312 3.37914L20.42 7.81306L21.2752 6.58077L14.8865 2.14685L14.0312 3.37914ZM19.6108 13.133V18.0108H21.1108V13.133H19.6108ZM4.38944 18.0108V13.133H2.88944V18.0108H4.38944ZM4.38944 13.133C4.38944 12.2143 4.00665 11.3407 3.33761 10.7022L2.30205 11.7874C2.68258 12.1505 2.88944 12.6354 2.88944 13.133H4.38944ZM20.6626 10.7022C19.9936 11.3407 19.6108 12.2143 19.6108 13.133H21.1108C21.1108 12.6354 21.3177 12.1505 21.6982 11.7874L20.6626 10.7022ZM9.969 3.37914C11.1776 2.54029 12.8225 2.54029 14.0312 3.37914L14.8865 2.14685C13.1635 0.95105 10.8367 0.95105 9.11375 2.14685L9.969 3.37914ZM7.81979 21.25C5.8918 21.25 4.38944 19.7671 4.38944 18.0108H2.88944C2.88944 20.6609 5.13029 22.75 7.81979 22.75V21.25ZM16.1805 22.75C18.8699 22.75 21.1108 20.6609 21.1108 18.0108H19.6108C19.6108 19.7671 18.1084 21.25 16.1805 21.25V22.75ZM20.42 7.81306C21.4263 8.51149 21.5301 9.87443 20.6626 10.7022L21.6982 11.7874C23.2625 10.2946 23.0501 7.8126 21.2752 6.58077L20.42 7.81306ZM2.72502 6.58077C0.950092 7.8126 0.737715 10.2946 2.30205 11.7874L3.33761 10.7022C2.47017 9.87443 2.57392 8.51149 3.58027 7.81306L2.72502 6.58077ZM10.0001 18.75H14.0001V17.25H10.0001V18.75Z" fill="#344054"/>
</svg>
