<svg width="24" height="24" viewBox="0 0 24 24" fill="none" xmlns="http://www.w3.org/2000/svg">
<path d="M12.7501 11C12.7501 10.5858 12.4143 10.25 12.0001 10.25C11.5859 10.25 11.2501 10.5858 11.2501 11H12.7501ZM11.2501 17C11.2501 17.4142 11.5859 17.75 12.0001 17.75C12.4143 17.75 12.7501 17.4142 12.7501 17H11.2501ZM15.0001 14.75C15.4143 14.75 15.7501 14.4142 15.7501 14C15.7501 13.5858 15.4143 13.25 15.0001 13.25V14.75ZM9.00014 13.25C8.58593 13.25 8.25014 13.5858 8.25014 14C8.25014 14.4142 8.58593 14.75 9.00014 14.75V13.25ZM16.1805 21.25H7.81979V22.75H16.1805V21.25ZM3.58027 7.81306L9.969 3.37914L9.11375 2.14685L2.72502 6.58077L3.58027 7.81306ZM14.0312 3.37914L20.42 7.81306L21.2752 6.58077L14.8865 2.14685L14.0312 3.37914ZM19.6108 13.133V18.0108H21.1108V13.133H19.6108ZM4.38944 18.0108V13.133H2.88944V18.0108H4.38944ZM4.38944 13.133C4.38944 12.2143 4.00665 11.3407 3.33761 10.7022L2.30205 11.7874C2.68258 12.1505 2.88944 12.6354 2.88944 13.133H4.38944ZM20.6626 10.7022C19.9936 11.3407 19.6108 12.2143 19.6108 13.133H21.1108C21.1108 12.6354 21.3177 12.1505 21.6982 11.7874L20.6626 10.7022ZM9.969 3.37914C11.1776 2.54029 12.8225 2.54029 14.0312 3.37914L14.8865 2.14685C13.1635 0.95105 10.8367 0.95105 9.11375 2.14685L9.969 3.37914ZM7.81979 21.25C5.8918 21.25 4.38944 19.7671 4.38944 18.0108H2.88944C2.88944 20.6609 5.13029 22.75 7.81979 22.75V21.25ZM16.1805 22.75C18.8699 22.75 21.1108 20.6609 21.1108 18.0108H19.6108C19.6108 19.7671 18.1084 21.25 16.1805 21.25V22.75ZM20.42 7.81306C21.4263 8.51149 21.5301 9.87443 20.6626 10.7022L21.6982 11.7874C23.2625 10.2946 23.0501 7.8126 21.2752 6.58077L20.42 7.81306ZM2.72502 6.58077C0.950092 7.8126 0.737715 10.2946 2.30205 11.7874L3.33761 10.7022C2.47017 9.87443 2.57392 8.51149 3.58027 7.81306L2.72502 6.58077ZM11.2501 11V17H12.7501V11H11.2501ZM15.0001 13.25H9.00014V14.75H15.0001V13.25Z" fill="#344054"/>
</svg>
