<svg width="24" height="24" viewBox="0 0 24 24" fill="none" xmlns="http://www.w3.org/2000/svg">
<path d="M20.25 10.1503V17.9668H21.75V10.1503H20.25ZM17 21.25H7V22.75H17V21.25ZM3.75 17.9668V10.1503H2.25V17.9668H3.75ZM4.94661 7.6055L9.94661 3.48832L8.99311 2.33037L3.99311 6.44755L4.94661 7.6055ZM14.0534 3.48832L19.0534 7.6055L20.0069 6.44755L15.0069 2.33037L14.0534 3.48832ZM9.94661 3.48832C11.1421 2.50389 12.8579 2.50389 14.0534 3.48832L15.0069 2.33037C13.2575 0.889875 10.7425 0.889879 8.99311 2.33037L9.94661 3.48832ZM7 21.25C5.2109 21.25 3.75 19.7859 3.75 17.9668H2.25C2.25 20.6027 4.37082 22.75 7 22.75V21.25ZM20.25 17.9668C20.25 19.7859 18.7891 21.25 17 21.25V22.75C19.6292 22.75 21.75 20.6027 21.75 17.9668H20.25ZM21.75 10.1503C21.75 8.71654 21.1111 7.35681 20.0069 6.44755L19.0534 7.6055C19.8096 8.22818 20.25 9.16221 20.25 10.1503H21.75ZM3.75 10.1503C3.75 9.16221 4.1904 8.22819 4.94661 7.6055L3.99311 6.44755C2.88889 7.35681 2.25 8.71654 2.25 10.1503H3.75ZM15.4781 14.5506C14.5965 15.3781 13.3307 16.25 12 16.25V17.75C13.9303 17.75 15.5609 16.5301 16.5047 15.6443L15.4781 14.5506ZM12 16.25C10.6693 16.25 9.40352 15.3781 8.52186 14.5506L7.49532 15.6443C8.43914 16.5301 10.0697 17.75 12 17.75V16.25ZM8.52186 13.4494C9.40352 12.6219 10.6693 11.75 12 11.75V10.25C10.0697 10.25 8.43914 11.4699 7.49532 12.3557L8.52186 13.4494ZM12 11.75C13.3307 11.75 14.5965 12.6219 15.4781 13.4494L16.5047 12.3557C15.5609 11.4699 13.9303 10.25 12 10.25V11.75ZM8.52186 14.5506C8.19201 14.241 8.19201 13.759 8.52186 13.4494L7.49532 12.3557C6.53419 13.2578 6.53419 14.7422 7.49532 15.6443L8.52186 14.5506ZM16.5047 15.6443C17.4658 14.7422 17.4658 13.2578 16.5047 12.3557L15.4781 13.4494C15.808 13.759 15.808 14.241 15.4781 14.5506L16.5047 15.6443Z" fill="#344054"/>
<path d="M12 15C12.5523 15 13 14.5523 13 14C13 13.4477 12.5523 13 12 13C11.4477 13 11 13.4477 11 14C11 14.5523 11.4477 15 12 15Z" fill="#344054"/>
</svg>
