<svg width="24" height="24" viewBox="0 0 24 24" fill="none" xmlns="http://www.w3.org/2000/svg">
<path d="M12.0001 2.75C12.4143 2.75 12.7501 2.41421 12.7501 2C12.7501 1.58579 12.4143 1.25 12.0001 1.25V2.75ZM22.7501 10C22.7501 9.58579 22.4143 9.25 22.0001 9.25C21.5859 9.25 21.2501 9.58579 21.2501 10H22.7501ZM18.5001 2.88897L17.9495 3.39826C18.0915 3.55172 18.2911 3.63897 18.5001 3.63897C18.7091 3.63897 18.9087 3.55172 19.0507 3.39826L18.5001 2.88897ZM21.5619 14.6087C21.898 14.8507 22.3667 14.7744 22.6088 14.4382C22.8508 14.1021 22.7745 13.6334 22.4383 13.3913L21.5619 14.6087ZM2.43829 13.3913C2.10214 13.1493 1.63344 13.2256 1.39141 13.5618C1.14938 13.8979 1.22568 14.3666 1.56183 14.6087L2.43829 13.3913ZM18.0001 21.25H6.00006V22.75H18.0001V21.25ZM2.75006 18V6H1.25006V18H2.75006ZM6.00006 2.75H12.0001V1.25H6.00006V2.75ZM21.2501 10V18H22.7501V10H21.2501ZM6.00006 21.25C4.20513 21.25 2.75006 19.7949 2.75006 18H1.25006C1.25006 20.6234 3.37671 22.75 6.00006 22.75V21.25ZM18.0001 22.75C20.6235 22.75 22.7501 20.6234 22.7501 18H21.2501C21.2501 19.7949 19.795 21.25 18.0001 21.25V22.75ZM2.75006 6C2.75006 4.20507 4.20513 2.75 6.00006 2.75V1.25C3.37671 1.25 1.25006 3.37665 1.25006 6H2.75006ZM19.0507 3.39826L19.3184 3.1088L18.2173 2.09021L17.9495 2.37967L19.0507 3.39826ZM17.6818 3.10879L17.9495 3.39826L19.0507 2.37967L18.7829 2.09021L17.6818 3.10879ZM15.0041 6.00344L16.8785 8.02969L17.9796 7.01111L16.1052 4.98485L15.0041 6.00344ZM20.1217 8.02969L21.9961 6.00344L20.895 4.98485L19.0206 7.01111L20.1217 8.02969ZM20.895 3.10879C21.3685 3.62067 21.3685 4.47298 20.895 4.98485L21.9961 6.00344C23.0014 4.91664 23.0014 3.17701 21.9961 2.09021L20.895 3.10879ZM21.9961 2.09021C20.9598 0.969931 19.2536 0.969931 18.2173 2.09021L19.3184 3.1088C19.761 2.6304 20.4524 2.6304 20.895 3.10879L21.9961 2.09021ZM16.1052 3.10879C16.5478 2.6304 17.2392 2.6304 17.6818 3.10879L18.7829 2.09021C17.7466 0.969931 16.0404 0.969931 15.0041 2.09021L16.1052 3.10879ZM16.8785 8.02969C17.7669 8.9901 19.2333 8.9901 20.1217 8.02969L19.0206 7.01111C18.726 7.32963 18.2742 7.32963 17.9796 7.01111L16.8785 8.02969ZM15.0041 2.09021C13.9988 3.17701 13.9988 4.91664 15.0041 6.00344L16.1052 4.98485C15.6317 4.47298 15.6317 3.62067 16.1052 3.10879L15.0041 2.09021ZM22.4383 13.3913L19.4993 11.2753L18.6229 12.4926L21.5619 14.6087L22.4383 13.3913ZM13.5463 11.5994L9.45042 15.2857L10.4539 16.4006L14.5497 12.7143L13.5463 11.5994ZM5.3773 15.5074L2.43829 13.3913L1.56183 14.6087L4.50084 16.7247L5.3773 15.5074ZM9.45042 15.2857C8.31392 16.3085 6.61814 16.4008 5.3773 15.5074L4.50084 16.7247C6.31438 18.0305 8.79283 17.8955 10.4539 16.4006L9.45042 15.2857ZM19.4993 11.2753C17.6858 9.96952 15.2073 10.1045 13.5463 11.5994L14.5497 12.7143C15.6862 11.6915 17.382 11.5992 18.6229 12.4926L19.4993 11.2753ZM10.2501 8.5C10.2501 9.4665 9.46656 10.25 8.50006 10.25V11.75C10.295 11.75 11.7501 10.2949 11.7501 8.5H10.2501ZM8.50006 10.25C7.53356 10.25 6.75006 9.4665 6.75006 8.5H5.25006C5.25006 10.2949 6.70513 11.75 8.50006 11.75V10.25ZM6.75006 8.5C6.75006 7.5335 7.53356 6.75 8.50006 6.75V5.25C6.70513 5.25 5.25006 6.70507 5.25006 8.5H6.75006ZM8.50006 6.75C9.46656 6.75 10.2501 7.5335 10.2501 8.5H11.7501C11.7501 6.70507 10.295 5.25 8.50006 5.25V6.75Z" fill="#344054"/>
</svg>
