<svg width="24" height="24" viewBox="0 0 24 24" fill="none" xmlns="http://www.w3.org/2000/svg">
<path d="M8.83009 12.2508L14.0155 7.06533L12.9549 6.00467L7.76943 11.1901L8.83009 12.2508ZM15.7833 7.06533L17.1975 8.47954L18.2582 7.41888L16.844 6.00467L15.7833 7.06533ZM17.1975 10.2473L12.0121 15.4328L13.0727 16.4934L18.2582 11.308L17.1975 10.2473ZM11.305 15.7863L9.65505 16.022L9.86718 17.5069L11.5171 17.2712L11.305 15.7863ZM8.24083 14.6078L8.47654 12.9579L6.99161 12.7458L6.75591 14.3957L8.24083 14.6078ZM9.65505 16.022C8.83009 16.1399 8.12298 15.4328 8.24083 14.6078L6.75591 14.3957C6.49664 16.2106 8.05227 17.7662 9.86718 17.5069L9.65505 16.022ZM12.0121 15.4328C11.8208 15.624 11.5727 15.7481 11.305 15.7863L11.5171 17.2712C12.1061 17.1871 12.652 16.9142 13.0727 16.4934L12.0121 15.4328ZM17.1975 8.47954C17.6857 8.9677 17.6857 9.75915 17.1975 10.2473L18.2582 11.308C19.3321 10.234 19.3321 8.49282 18.2582 7.41888L17.1975 8.47954ZM14.0155 7.06533C14.5037 6.57717 15.2951 6.57717 15.7833 7.06533L16.844 6.00467C15.77 4.93073 14.0288 4.93073 12.9549 6.00467L14.0155 7.06533ZM7.76943 11.1901C7.34869 11.6109 7.07576 12.1567 6.99161 12.7458L8.47654 12.9579C8.51479 12.6901 8.63884 12.442 8.83009 12.2508L7.76943 11.1901Z" fill="#344054"/>
<path d="M19.8499 4.41406L17.0215 7.24249" stroke="#344054" stroke-width="1.5" stroke-linecap="round" stroke-linejoin="round"/>
<path d="M18.4355 3L21.2639 5.82843" stroke="#344054" stroke-width="1.5" stroke-linecap="round" stroke-linejoin="round"/>
<path d="M9.24316 10.7783L16.3142 12.1925" stroke="#344054" stroke-width="1.5" stroke-linecap="round" stroke-linejoin="round"/>
<path d="M7.8286 16.4346L3 20.9996" stroke="#344054" stroke-width="1.5" stroke-linecap="round" stroke-linejoin="round"/>
</svg>
