<svg width="24" height="24" viewBox="0 0 24 24" fill="none" xmlns="http://www.w3.org/2000/svg">
<path d="M17 17H17.75C17.75 16.5858 17.4142 16.25 17 16.25V17ZM7 17V16.25C6.58579 16.25 6.25 16.5858 6.25 17H7ZM7 7H6.25C6.25 7.41421 6.58579 7.75 7 7.75V7ZM17 7V7.75C17.4142 7.75 17.75 7.41421 17.75 7H17ZM20.25 10V14H21.75V10H20.25ZM18 16.25H6V17.75H18V16.25ZM3.75 14V10H2.25V14H3.75ZM6 7.75H18V6.25H6V7.75ZM3.75 10C3.75 8.75736 4.75736 7.75 6 7.75V6.25C3.92893 6.25 2.25 7.92893 2.25 10H3.75ZM6 16.25C4.75736 16.25 3.75 15.2426 3.75 14H2.25C2.25 16.0711 3.92893 17.75 6 17.75V16.25ZM20.25 14C20.25 15.2426 19.2426 16.25 18 16.25V17.75C20.0711 17.75 21.75 16.0711 21.75 14H20.25ZM21.75 10C21.75 7.92893 20.0711 6.25 18 6.25V7.75C19.2426 7.75 20.25 8.75736 20.25 10H21.75ZM16.25 17V19H17.75V17H16.25ZM15 20.25H9V21.75H15V20.25ZM7.75 19V17H6.25V19H7.75ZM7 17.75H17V16.25H7V17.75ZM9 20.25C8.30964 20.25 7.75 19.6904 7.75 19H6.25C6.25 20.5188 7.48122 21.75 9 21.75V20.25ZM16.25 19C16.25 19.6904 15.6904 20.25 15 20.25V21.75C16.5188 21.75 17.75 20.5188 17.75 19H16.25ZM7.75 7V5H6.25V7H7.75ZM9 3.75H15V2.25H9V3.75ZM16.25 5V7H17.75V5H16.25ZM17 6.25H7V7.75H17V6.25ZM15 3.75C15.6904 3.75 16.25 4.30965 16.25 5H17.75C17.75 3.48122 16.5188 2.25 15 2.25V3.75ZM7.75 5C7.75 4.30964 8.30964 3.75 9 3.75V2.25C7.48122 2.25 6.25 3.48122 6.25 5H7.75Z" fill="#344054"/>
</svg>
