<svg width="24" height="24" viewBox="0 0 24 24" fill="none" xmlns="http://www.w3.org/2000/svg">
<path d="M12 17C14.7614 17 17 14.7614 17 12C17 9.23858 14.7614 7 12 7C9.23858 7 7 9.23858 7 12C7 14.7614 9.23858 17 12 17Z" stroke="#344054" stroke-width="1.5"/>
<path d="M12.75 2C12.75 1.58579 12.4142 1.25 12 1.25C11.5858 1.25 11.25 1.58579 11.25 2H12.75ZM11.25 4C11.25 4.41421 11.5858 4.75 12 4.75C12.4142 4.75 12.75 4.41421 12.75 4H11.25ZM11.25 2V4H12.75V2H11.25Z" fill="#344054"/>
<path d="M12.75 20C12.75 19.5858 12.4142 19.25 12 19.25C11.5858 19.25 11.25 19.5858 11.25 20H12.75ZM11.25 22C11.25 22.4142 11.5858 22.75 12 22.75C12.4142 22.75 12.75 22.4142 12.75 22H11.25ZM11.25 20V22H12.75V20H11.25Z" fill="#344054"/>
<path d="M21.0349 7.64965C21.3936 7.44254 21.5165 6.98385 21.3094 6.62513C21.1023 6.26641 20.6436 6.1435 20.2849 6.35061L21.0349 7.64965ZM18.5528 7.35061C18.1941 7.55772 18.0712 8.01641 18.2783 8.37513C18.4854 8.73385 18.9441 8.85676 19.3028 8.64965L18.5528 7.35061ZM20.2849 6.35061L18.5528 7.35061L19.3028 8.64965L21.0349 7.64965L20.2849 6.35061Z" fill="#344054"/>
<path d="M5.44702 16.6496C5.80574 16.4425 5.92864 15.9838 5.72154 15.6251C5.51443 15.2664 5.05574 15.1435 4.69702 15.3506L5.44702 16.6496ZM2.96497 16.3506C2.60625 16.5577 2.48334 17.0164 2.69045 17.3751C2.89755 17.7338 3.35625 17.8567 3.71497 17.6496L2.96497 16.3506ZM4.69702 15.3506L2.96497 16.3506L3.71497 17.6496L5.44702 16.6496L4.69702 15.3506Z" fill="#344054"/>
<path d="M3.71497 6.35061C3.35625 6.1435 2.89756 6.26641 2.69045 6.62513C2.48335 6.98385 2.60625 7.44254 2.96497 7.64965L3.71497 6.35061ZM4.69702 8.64965C5.05574 8.85676 5.51444 8.73385 5.72154 8.37513C5.92865 8.01641 5.80574 7.55772 5.44702 7.35061L4.69702 8.64965ZM2.96497 7.64965L4.69702 8.64965L5.44702 7.35061L3.71497 6.35061L2.96497 7.64965Z" fill="#344054"/>
<path d="M19.3028 15.3506C18.9441 15.1435 18.4854 15.2664 18.2783 15.6251C18.0712 15.9838 18.1941 16.4425 18.5528 16.6496L19.3028 15.3506ZM20.2849 17.6496C20.6436 17.8567 21.1023 17.7338 21.3094 17.3751C21.5165 17.0164 21.3936 16.5577 21.0349 16.3506L20.2849 17.6496ZM18.5528 16.6496L20.2849 17.6496L21.0349 16.3506L19.3028 15.3506L18.5528 16.6496Z" fill="#344054"/>
</svg>
