<svg width="24" height="24" viewBox="0 0 24 24" fill="none" xmlns="http://www.w3.org/2000/svg">
<path d="M10.0003 9V9.75C10.277 9.75 10.5311 9.59776 10.6616 9.35389C10.7921 9.11003 10.7778 8.81412 10.6244 8.58397L10.0003 9ZM12.0004 3L12.6516 2.6279C12.518 2.39421 12.2695 2.25 12.0004 2.25V3ZM20.0004 7.25H18.0004V8.75H20.0004V7.25ZM15.2504 10V19H16.7504V10H15.2504ZM18.0004 21.75H20.0004V20.25H18.0004V21.75ZM22.7504 19V10H21.2504V19H22.7504ZM20.0004 21.75C21.5192 21.75 22.7504 20.5188 22.7504 19H21.2504C21.2504 19.6904 20.6907 20.25 20.0004 20.25V21.75ZM15.2504 19C15.2504 20.5188 16.4816 21.75 18.0004 21.75V20.25C17.31 20.25 16.7504 19.6904 16.7504 19H15.2504ZM18.0004 7.25C16.4816 7.25 15.2504 8.48122 15.2504 10H16.7504C16.7504 9.30964 17.31 8.75 18.0004 8.75V7.25ZM20.0004 8.75C20.6907 8.75 21.2504 9.30964 21.2504 10H22.7504C22.7504 8.48122 21.5192 7.25 20.0004 7.25V8.75ZM11.7893 20.25H8.12346V21.75H11.7893V20.25ZM4.97049 17.7882L3.34922 11.3032L1.89401 11.667L3.51528 18.152L4.97049 17.7882ZM4.5619 9.75H10.0003V8.25H4.5619V9.75ZM10.6244 8.58397L9.21555 6.47072L7.96748 7.30277L9.37631 9.41603L10.6244 8.58397ZM10.6717 3.75H12.0004V2.25H10.6717V3.75ZM11.3492 3.3721L15.2174 10.1415L16.5198 9.39732L12.6516 2.6279L11.3492 3.3721ZM15.2504 10.2656V18.4648H16.7504V10.2656H15.2504ZM15.1391 18.6728L13.5921 19.7042L14.4241 20.9522L15.9711 19.9209L15.1391 18.6728ZM15.2504 18.4648C15.2504 18.5484 15.2086 18.6265 15.1391 18.6728L15.9711 19.9209C16.458 19.5963 16.7504 19.0499 16.7504 18.4648H15.2504ZM3.34922 11.3032C3.15199 10.5142 3.74869 9.75 4.5619 9.75V8.25C2.77283 8.25 1.4601 9.93132 1.89401 11.667L3.34922 11.3032ZM8.12346 20.25C6.63213 20.25 5.33219 19.235 4.97049 17.7882L3.51528 18.152C4.04391 20.2666 5.94383 21.75 8.12346 21.75V20.25ZM11.7893 21.75C12.727 21.75 13.6438 21.4724 14.4241 20.9522L13.5921 19.7042C13.0582 20.0601 12.4309 20.25 11.7893 20.25V21.75ZM9.21555 6.47072C8.44024 5.30775 9.27392 3.75 10.6717 3.75V2.25C8.07588 2.25 6.52761 5.14297 7.96748 7.30277L9.21555 6.47072ZM15.2174 10.1415C15.239 10.1793 15.2504 10.2221 15.2504 10.2656H16.7504C16.7504 9.96102 16.6709 9.66174 16.5198 9.39732L15.2174 10.1415Z" fill="#344054"/>
</svg>
