<svg width="24" height="24" viewBox="0 0 24 24" fill="none" xmlns="http://www.w3.org/2000/svg">
<path d="M14.1216 9.87891L9.87891 14.1215" stroke="#344054" stroke-width="1.5" stroke-linecap="round"/>
<path d="M9.80268 6.46921C9.50978 6.7621 9.50978 7.23698 9.80268 7.52987C10.0955 7.82276 10.5704 7.82276 10.8633 7.52987L9.80268 6.46921ZM16.4693 13.1359C16.1764 13.4288 16.1765 13.9037 16.4693 14.1966C16.7622 14.4895 17.2371 14.4895 17.53 14.1966L16.4693 13.1359ZM10.8633 7.52987L12.53 5.8632L11.4693 4.80254L9.80268 6.46921L10.8633 7.52987ZM18.136 11.4692L16.4693 13.1359L17.53 14.1966L19.1967 12.5299L18.136 11.4692ZM18.136 5.86319C19.6841 7.41126 19.6841 9.92117 18.136 11.4692L19.1967 12.5299C21.3305 10.396 21.3305 6.93639 19.1967 4.80253L18.136 5.86319ZM12.53 5.8632C14.078 4.31513 16.588 4.31513 18.136 5.86319L19.1967 4.80253C17.0628 2.66868 13.6032 2.66868 11.4693 4.80254L12.53 5.8632Z" fill="#344054"/>
<path d="M14.1966 17.53C14.4895 17.2371 14.4895 16.7622 14.1966 16.4693C13.9037 16.1764 13.4288 16.1764 13.1359 16.4693L14.1966 17.53ZM7.52988 10.8633C7.82277 10.5704 7.82277 10.0955 7.52988 9.80268C7.23698 9.50979 6.76211 9.50979 6.46922 9.80268L7.52988 10.8633ZM13.1359 16.4693L11.4692 18.136L12.5299 19.1967L14.1966 17.53L13.1359 16.4693ZM5.8632 12.53L7.52988 10.8633L6.46922 9.80268L4.80254 11.4693L5.8632 12.53ZM5.8632 18.136C4.31513 16.5879 4.31513 14.078 5.8632 12.53L4.80254 11.4693C2.66869 13.6032 2.66869 17.0628 4.80254 19.1967L5.8632 18.136ZM11.4692 18.136C9.92118 19.6841 7.41127 19.6841 5.8632 18.136L4.80254 19.1967C6.93639 21.3305 10.396 21.3305 12.5299 19.1967L11.4692 18.136Z" fill="#344054"/>
</svg>
