<svg width="24" height="24" viewBox="0 0 24 24" fill="none" xmlns="http://www.w3.org/2000/svg">
<path d="M12 5.70282L11.463 6.22643C11.6042 6.37119 11.7978 6.45282 12 6.45282C12.2022 6.45282 12.3958 6.37119 12.537 6.22643L12 5.70282ZM17 5.75029C16.5858 5.75029 16.25 6.08607 16.25 6.50029C16.25 6.9145 16.5858 7.25029 17 7.25029V5.75029ZM18.25 8.50029C18.25 8.9145 18.5858 9.25029 19 9.25029C19.4142 9.25029 19.75 8.9145 19.75 8.50029H18.25ZM12.537 6.22643L13.222 5.5239L12.1481 4.47668L11.463 5.17922L12.537 6.22643ZM10.778 5.52392L11.463 6.22643L12.537 5.17922L11.8519 4.4767L10.778 5.52392ZM2.89742 13.263L8.62374 19.6012L9.73677 18.5957L4.01044 12.2575L2.89742 13.263ZM15.3762 19.6012L21.1026 13.263L19.9896 12.2574L14.2632 18.5957L15.3762 19.6012ZM19.8648 5.5239C21.6618 7.36668 21.7178 10.3445 19.9896 12.2574L21.1026 13.263C23.3607 10.7636 23.2892 6.8871 20.9388 4.47668L19.8648 5.5239ZM20.9388 4.47668C18.5135 1.98954 14.5734 1.98954 12.1481 4.47668L13.222 5.5239C15.0586 3.64047 18.0283 3.64046 19.8648 5.5239L20.9388 4.47668ZM4.13517 5.52391C5.97175 3.64048 8.94141 3.64048 10.778 5.52392L11.8519 4.4767C9.42666 1.98955 5.4865 1.98955 3.06123 4.4767L4.13517 5.52391ZM8.62374 19.6012C10.4428 21.6147 13.5572 21.6147 15.3762 19.6012L14.2632 18.5957C13.0397 19.9499 10.9603 19.9499 9.73677 18.5957L8.62374 19.6012ZM3.06123 4.4767C0.710774 6.88712 0.639346 10.7637 2.89742 13.263L4.01044 12.2575C2.28222 10.3446 2.33823 7.3667 4.13517 5.52391L3.06123 4.4767ZM17 7.25029C17.6903 7.25029 18.25 7.80993 18.25 8.50029H19.75C19.75 6.9815 18.5188 5.75029 17 5.75029V7.25029Z" fill="#344054"/>
</svg>
