<svg width="24" height="24" viewBox="0 0 24 24" fill="none" xmlns="http://www.w3.org/2000/svg">
<path d="M17.4697 3.46952C17.1768 3.76242 17.1768 4.23729 17.4697 4.53018C17.7626 4.82308 18.2374 4.82308 18.5303 4.53018L17.4697 3.46952ZM21.4697 4.53018C21.7626 4.82308 22.2374 4.82308 22.5303 4.53018C22.8232 4.23729 22.8232 3.76242 22.5303 3.46952L21.4697 4.53018ZM19.25 7.99985C19.25 8.41407 19.5858 8.74985 20 8.74985C20.4142 8.74985 20.75 8.41407 20.75 7.99985H19.25ZM20.75 2.99985C20.75 2.58564 20.4142 2.24985 20 2.24985C19.5858 2.24985 19.25 2.58564 19.25 2.99985H20.75ZM6.45 12.3999C6.11863 12.1514 5.64853 12.2185 5.4 12.5499C5.15147 12.8813 5.21863 13.3514 5.55 13.5999L6.45 12.3999ZM14.45 13.5999C14.7814 13.3514 14.8485 12.8813 14.6 12.5499C14.3515 12.2185 13.8814 12.1514 13.55 12.3999L14.45 13.5999ZM18.7626 2.17663L17.4697 3.46952L18.5303 4.53018L19.8232 3.23729L18.7626 2.17663ZM20.1768 3.23729L21.4697 4.53018L22.5303 3.46952L21.2374 2.17663L20.1768 3.23729ZM20.75 7.99985V2.99985H19.25V7.99985H20.75ZM19.8232 3.23729C19.9209 3.13966 20.0791 3.13966 20.1768 3.23729L21.2374 2.17663C20.554 1.49321 19.446 1.49321 18.7626 2.17663L19.8232 3.23729ZM5 8.74985H15V7.24985H5V8.74985ZM17.25 10.9999V18.9999H18.75V10.9999H17.25ZM15 21.2499H5V22.7499H15V21.2499ZM2.75 18.9999V10.9999H1.25V18.9999H2.75ZM5 21.2499C3.75736 21.2499 2.75 20.2425 2.75 18.9999H1.25C1.25 21.071 2.92893 22.7499 5 22.7499V21.2499ZM17.25 18.9999C17.25 20.2425 16.2426 21.2499 15 21.2499V22.7499C17.0711 22.7499 18.75 21.071 18.75 18.9999H17.25ZM15 8.74985C16.2426 8.74985 17.25 9.75721 17.25 10.9999H18.75C18.75 8.92879 17.0711 7.24985 15 7.24985V8.74985ZM5 7.24985C2.92893 7.24985 1.25 8.92879 1.25 10.9999H2.75C2.75 9.75721 3.75736 8.74985 5 8.74985V7.24985ZM5.55 13.5999L7.75 15.2499L8.65 14.0499L6.45 12.3999L5.55 13.5999ZM12.25 15.2499L14.45 13.5999L13.55 12.3999L11.35 14.0499L12.25 15.2499ZM7.75 15.2499C9.08333 16.2499 10.9167 16.2499 12.25 15.2499L11.35 14.0499C10.55 14.6499 9.45 14.6499 8.65 14.0499L7.75 15.2499Z" fill="#344054"/>
</svg>
