<svg width="24" height="24" viewBox="0 0 24 24" fill="none" xmlns="http://www.w3.org/2000/svg">
<path d="M4.15459 21.301C5.35883 20.4918 6.8692 19.6661 8.08343 19.5302L7.91657 18.0395C6.30818 18.2195 4.53267 19.2397 3.31795 20.056L4.15459 21.301ZM8.08343 19.5302C9.4033 19.3824 10.3425 20.0613 11.5459 20.9768C12.6833 21.8421 14.085 22.944 16.0834 22.7203L15.9166 21.2296C14.5967 21.3773 13.6575 20.6984 12.4541 19.783C11.3167 18.9177 9.91501 17.8158 7.91657 18.0395L8.08343 19.5302ZM16.0834 22.7203C17.1638 22.5993 18.3019 22.1039 19.2748 21.5671C20.2613 21.0229 21.1453 20.398 21.7302 19.9557L20.8255 18.7592C20.2726 19.1773 19.4513 19.7566 18.5502 20.2538C17.6354 20.7584 16.7035 21.1415 15.9166 21.2296L16.0834 22.7203ZM21.25 8.19322V17.8626H22.75V8.19322H21.25ZM2.75 19.8062V10.1368H1.25V19.8062H2.75ZM21.7302 19.9557C22.3994 19.4497 22.75 18.6635 22.75 17.8626H21.25C21.25 18.2322 21.0899 18.5593 20.8255 18.7592L21.7302 19.9557ZM3.31795 20.056C3.21451 20.1255 3.07068 20.1357 2.93501 20.0686C2.80323 20.0034 2.75 19.9037 2.75 19.8062H1.25C1.25 21.3236 3.00174 22.0757 4.15459 21.301L3.31795 20.056ZM20.6821 7.94339C20.7855 7.87388 20.9293 7.86365 21.065 7.93076C21.1968 7.99594 21.25 8.09571 21.25 8.19322H22.75C22.75 6.67576 20.9983 5.92367 19.8454 6.69838L20.6821 7.94339ZM2.26981 8.04367C1.60064 8.54965 1.25 9.33588 1.25 10.1368H2.75C2.75 9.76724 2.91011 9.44005 3.17449 9.24015L2.26981 8.04367ZM15.25 12.7297V21.9749H16.75V12.7297H15.25ZM7.25 11.2633V18.7848H8.75V11.2633H7.25ZM3.17449 9.24015C3.9409 8.66065 5.20232 7.78731 6.47336 7.24011L5.88023 5.86236C4.44275 6.48121 3.06758 7.44046 2.26981 8.04367L3.17449 9.24015ZM6.47336 7.24011C6.82417 7.08909 7.16763 6.9665 7.49477 6.88171L7.11842 5.42969C6.70121 5.53782 6.28426 5.68843 5.88023 5.86236L6.47336 7.24011ZM19.326 8.77836C19.8131 8.50733 20.2731 8.21822 20.6821 7.94339L19.8454 6.69838C19.4633 6.95514 19.0396 7.22117 18.5967 7.46764L19.326 8.77836Z" fill="#344054"/>
<path d="M9.90985 9.12738L11.4251 9.63246L11.8994 8.20943L10.3842 7.70436L9.90985 9.12738ZM11.267 9.47434L11.7721 10.9896L13.1951 10.5152L12.69 9L11.267 9.47434ZM14.1068 11.0867L16.0964 6.44437L14.7177 5.85349L12.7281 10.4958L14.1068 11.0867ZM14.4551 4.80304L9.81273 6.7926L10.4036 8.17132L15.0459 6.18176L14.4551 4.80304ZM16.0964 6.44437C16.5409 5.40722 15.4922 4.35855 14.4551 4.80304L15.0459 6.18176C14.8385 6.27066 14.6288 6.06092 14.7177 5.85349L16.0964 6.44437ZM11.7721 10.9896C12.1355 12.08 13.6541 12.1431 14.1068 11.0867L12.7281 10.4958C12.8187 10.2845 13.1224 10.2971 13.1951 10.5152L11.7721 10.9896ZM11.4251 9.63246C11.3504 9.60757 11.2919 9.54899 11.267 9.47434L12.69 9C12.5656 8.62674 12.2727 8.33385 11.8994 8.20943L11.4251 9.63246ZM10.3842 7.70436C10.6023 7.77705 10.6149 8.08076 10.4036 8.17132L9.81273 6.7926C8.75627 7.24537 8.81943 8.76391 9.90985 9.12738L10.3842 7.70436ZM18.1494 8C18.1494 10.8995 15.7989 13.25 12.8994 13.25V14.75C16.6274 14.75 19.6494 11.7279 19.6494 8H18.1494ZM12.8994 13.25C9.99987 13.25 7.64941 10.8995 7.64941 8H6.14941C6.14941 11.7279 9.17148 14.75 12.8994 14.75V13.25ZM7.64941 8C7.64941 5.10051 9.99987 2.75 12.8994 2.75V1.25C9.17148 1.25 6.14941 4.27208 6.14941 8H7.64941ZM12.8994 2.75C15.7989 2.75 18.1494 5.10051 18.1494 8H19.6494C19.6494 4.27208 16.6274 1.25 12.8994 1.25V2.75Z" fill="#344054"/>
</svg>
