<svg width="24" height="24" viewBox="0 0 24 24" fill="none" xmlns="http://www.w3.org/2000/svg">
<path d="M7.09766 6.87829C5.23039 7.0873 2.95764 8.6354 1.81981 9.49573C1.35304 9.84867 1.09766 10.4053 1.09766 10.9905V20.6599C1.09766 21.5134 2.12556 22.0083 2.83393 21.5323C4.04342 20.7195 5.68635 19.7966 7.09766 19.6386C10.416 19.2672 11.7793 23.2001 15.0976 22.8287C16.9649 22.6197 19.2377 21.0716 20.3755 20.2113C20.8423 19.8583 21.0976 19.3016 21.0976 18.7164V9.04704C21.0976 8.19359 20.0697 7.69868 19.3614 8.17471C18.1519 8.98748 16.509 9.91041 15.0976 10.0683C11.7793 10.4398 10.416 6.50686 7.09766 6.87829Z" stroke="#344054" stroke-width="1.5"/>
<path d="M14.25 13.9606C14.25 14.3748 14.5858 14.7106 15 14.7106C15.4142 14.7106 15.75 14.3748 15.75 13.9606H14.25ZM15.75 5.96061C15.75 5.5464 15.4142 5.21061 15 5.21061C14.5858 5.21061 14.25 5.5464 14.25 5.96061H15.75ZM15 2.04395V1.29395C14.5858 1.29395 14.25 1.62973 14.25 2.04395H15ZM21 2.04395L21.6761 2.3685C21.7877 2.1361 21.7721 1.8627 21.6348 1.64452C21.4975 1.42633 21.2578 1.29395 21 1.29395V2.04395ZM21 6.21061V6.96061C21.2578 6.96061 21.4975 6.82823 21.6348 6.61004C21.7721 6.39186 21.7877 6.11846 21.6761 5.88607L21 6.21061ZM15 6.21061H14.25C14.25 6.62483 14.5858 6.96061 15 6.96061V6.21061ZM20 4.12728L19.3239 3.80273C19.2254 4.00789 19.2254 4.24667 19.3239 4.45183L20 4.12728ZM15.75 13.9606V5.96061H14.25V13.9606H15.75ZM15 2.79395H21V1.29395H15V2.79395ZM21 5.46061H15V6.96061H21V5.46061ZM15.75 6.21061V2.04395H14.25V6.21061H15.75ZM20.3239 1.7194L19.3239 3.80273L20.6761 4.45183L21.6761 2.3685L20.3239 1.7194ZM19.3239 4.45183L20.3239 6.53516L21.6761 5.88607L20.6761 3.80273L19.3239 4.45183Z" fill="#344054"/>
</svg>
