<svg width="24" height="24" viewBox="0 0 24 24" fill="none" xmlns="http://www.w3.org/2000/svg">
<path d="M4.15459 21.3506C5.35883 20.5414 6.8692 19.7157 8.08343 19.5798L7.91657 18.0891C6.30818 18.2691 4.53267 19.2893 3.31795 20.1056L4.15459 21.3506ZM8.08343 19.5798C9.4033 19.432 10.3425 20.1109 11.5459 21.0264C12.6833 21.8917 14.085 22.9936 16.0834 22.7699L15.9166 21.2792C14.5967 21.4269 13.6575 20.748 12.4541 19.8326C11.3167 18.9673 9.91501 17.8654 7.91657 18.0891L8.08343 19.5798ZM16.0834 22.7699C17.1638 22.6489 18.3019 22.1535 19.2748 21.6167C20.2613 21.0725 21.1453 20.4476 21.7302 20.0053L20.8255 18.8088C20.2726 19.2269 19.4513 19.8062 18.5502 20.3034C17.6354 20.808 16.7035 21.1911 15.9166 21.2792L16.0834 22.7699ZM21.25 8.24281V17.9122H22.75V8.24281H21.25ZM2.75 19.8558V10.1864H1.25V19.8558H2.75ZM21.7302 20.0053C22.3994 19.4993 22.75 18.7131 22.75 17.9122H21.25C21.25 18.2817 21.0899 18.6089 20.8255 18.8088L21.7302 20.0053ZM3.31795 20.1056C3.21451 20.1751 3.07068 20.1853 2.93501 20.1182C2.80323 20.053 2.75 19.9533 2.75 19.8558H1.25C1.25 21.3732 3.00174 22.1253 4.15459 21.3506L3.31795 20.1056ZM20.6821 7.99297C20.7855 7.92346 20.9293 7.91324 21.065 7.98034C21.1968 8.04553 21.25 8.14529 21.25 8.24281H22.75C22.75 6.72535 20.9983 5.97326 19.8454 6.74797L20.6821 7.99297ZM2.26981 8.09326C1.60064 8.59923 1.25 9.38547 1.25 10.1864H2.75C2.75 9.81683 2.91011 9.48963 3.17449 9.28973L2.26981 8.09326ZM7.25 9.37847V18.8344H8.75V9.37847H7.25ZM3.17449 9.28973C4.18257 8.5275 5.97987 7.30963 7.53878 6.92009L7.17514 5.46484C5.29211 5.93536 3.2815 7.3283 2.26981 8.09326L3.17449 9.28973ZM16.9668 9.83626C18.2983 9.47291 19.6682 8.6743 20.6821 7.99297L19.8454 6.74797C18.8695 7.4038 17.663 8.09142 16.5719 8.38918L16.9668 9.83626ZM15.25 11.2114V22.0245H16.75V11.2114H15.25Z" fill="#344054"/>
<path d="M16.7119 6.86348C16.7119 8.00222 16.1553 9.66283 15.2672 11.054C14.829 11.7406 14.334 12.3226 13.8299 12.7252C13.3212 13.1313 12.8572 13.3135 12.4619 13.3135V14.8135C13.3166 14.8135 14.1026 14.427 14.7659 13.8973C15.4336 13.3641 16.0323 12.6433 16.5316 11.8611C17.5185 10.3151 18.2119 8.3757 18.2119 6.86348H16.7119ZM12.4619 13.3135C12.0666 13.3135 11.6026 13.1313 11.094 12.7252C10.5898 12.3226 10.0948 11.7406 9.65659 11.054C8.76851 9.66283 8.21191 8.00222 8.21191 6.86348H6.71191C6.71191 8.3757 7.40532 10.3151 8.39224 11.8611C8.8915 12.6433 9.49026 13.3641 10.158 13.8973C10.8212 14.427 11.6072 14.8135 12.4619 14.8135V13.3135ZM8.21191 6.86348C8.21191 4.65528 10.0856 2.81348 12.4619 2.81348V1.31348C9.31543 1.31348 6.71191 3.76973 6.71191 6.86348H8.21191ZM12.4619 2.81348C14.8383 2.81348 16.7119 4.65528 16.7119 6.86348H18.2119C18.2119 3.76973 15.6084 1.31348 12.4619 1.31348V2.81348ZM13.2119 6.56348C13.2119 6.97769 12.8761 7.31348 12.4619 7.31348V8.81348C13.7046 8.81348 14.7119 7.80612 14.7119 6.56348H13.2119ZM12.4619 7.31348C12.0477 7.31348 11.7119 6.97769 11.7119 6.56348H10.2119C10.2119 7.80612 11.2193 8.81348 12.4619 8.81348V7.31348ZM11.7119 6.56348C11.7119 6.14926 12.0477 5.81348 12.4619 5.81348V4.31348C11.2193 4.31348 10.2119 5.32084 10.2119 6.56348H11.7119ZM12.4619 5.81348C12.8761 5.81348 13.2119 6.14926 13.2119 6.56348H14.7119C14.7119 5.32084 13.7046 4.31348 12.4619 4.31348V5.81348Z" fill="#344054"/>
</svg>
