<svg width="24" height="24" viewBox="0 0 24 24" fill="none" xmlns="http://www.w3.org/2000/svg">
<path d="M8 2.26989C6.13272 2.4789 3.85997 4.027 2.72215 4.88733C2.25538 5.24027 2 5.79699 2 6.38217V16.0516C2 16.905 3.0279 17.3999 3.73627 16.9239C4.94575 16.1111 6.58869 15.1882 8 15.0302M8 2.26989C11.3183 1.89847 12.6817 5.83142 16 5.45999M8 2.26989V15.0302M8 15.0302C9.21369 14.8944 10.1659 15.3344 11.0478 15.9289M16 5.45999C17.4113 5.30202 19.0542 4.37908 20.2637 3.56631C20.9721 3.09029 22 3.58519 22 4.43864V14.108C22 14.6932 21.7446 15.25 21.2778 15.6029C20.8478 15.9281 20.2556 16.3515 19.5844 16.7638M16 5.45999V11.8401" stroke="#344054" stroke-width="1.5"/>
<path d="M19.5547 15.8054C19.5547 18.0877 17.4024 22.0041 15.25 22.0041C13.0977 22.0041 10.9453 18.0877 10.9453 15.8054C10.9453 13.523 12.8726 11.6729 15.25 11.6729C17.6274 11.6729 19.5547 13.523 19.5547 15.8054Z" stroke="#344054" stroke-width="1.5"/>
<path d="M16.5418 15.5473C16.5418 16.2605 15.9636 16.8387 15.2504 16.8387C14.5372 16.8387 13.959 16.2605 13.959 15.5473C13.959 14.8341 14.5372 14.2559 15.2504 14.2559C15.9636 14.2559 16.5418 14.8341 16.5418 15.5473Z" stroke="#344054" stroke-width="1.5"/>
</svg>
