<svg width="24" height="24" viewBox="0 0 24 24" fill="none" xmlns="http://www.w3.org/2000/svg">
<path d="M3.17449 5.51085C3.72741 5.09278 4.54868 4.51348 5.44982 4.01635C6.3646 3.51167 7.29651 3.1286 8.08343 3.04052L7.91657 1.54983C6.83621 1.67076 5.6981 2.16624 4.72524 2.70296C3.73872 3.2472 2.85471 3.87212 2.26981 4.31438L3.17449 5.51085ZM8.08343 3.04052C9.4033 2.89278 10.3425 3.57165 11.5459 4.48713C12.6833 5.35241 14.085 6.4543 16.0834 6.23061L15.9166 4.73992C14.5967 4.88766 13.6575 4.20879 12.4541 3.29331C11.3167 2.42803 9.91501 1.32614 7.91657 1.54983L8.08343 3.04052ZM16.0834 6.23061C17.6918 6.05058 19.4673 5.03039 20.6821 4.21409L19.8454 2.96909C18.6412 3.77834 17.1308 4.60401 15.9166 4.73992L16.0834 6.23061ZM16.0834 18.991C17.1638 18.87 18.3019 18.3746 19.2748 17.8378C20.2613 17.2936 21.1453 16.6687 21.7302 16.2264L20.8255 15.03C20.2726 15.448 19.4513 16.0273 18.5502 16.5245C17.6354 17.0291 16.7035 17.4122 15.9166 17.5003L16.0834 18.991ZM21.25 4.46393V14.1333H22.75V4.46393H21.25ZM2.75 16.0769V6.40746H1.25V16.0769H2.75ZM21.7302 16.2264C22.3994 15.7205 22.75 14.9342 22.75 14.1333H21.25C21.25 14.5029 21.0899 14.8301 20.8255 15.03L21.7302 16.2264ZM3.31795 16.3267C3.21451 16.3962 3.07068 16.4064 2.93501 16.3393C2.80323 16.2742 2.75 16.1744 2.75 16.0769H1.25C1.25 17.5943 3.00174 18.3464 4.15459 17.5717L3.31795 16.3267ZM20.6821 4.21409C20.7855 4.14458 20.9293 4.13436 21.065 4.20146C21.1968 4.26665 21.25 4.36641 21.25 4.46393H22.75C22.75 2.94647 20.9983 2.19438 19.8454 2.96909L20.6821 4.21409ZM2.26981 4.31438C1.60064 4.82035 1.25 5.60659 1.25 6.40746H2.75C2.75 6.03795 2.91011 5.71075 3.17449 5.51085L2.26981 4.31438ZM4.15459 17.5717C5.06132 16.9624 6.17326 16.3213 7.20837 15.9952L6.75768 14.5645C5.51837 14.9549 4.26594 15.6897 3.31795 16.3267L4.15459 17.5717ZM7.25 2.29518V11.7699H8.75V2.29518H7.25ZM15.25 5.48526V11.8655H16.75V5.48526H15.25Z" fill="#344054"/>
<path d="M16.25 14.7443C16.25 15.8831 15.6934 17.5437 14.8053 18.9349C14.3671 19.6214 13.8721 20.2035 13.3679 20.6061C12.8593 21.0122 12.3953 21.1943 12 21.1943V22.6943C12.8547 22.6943 13.6407 22.3079 14.3039 21.7782C14.9716 21.245 15.5704 20.5241 16.0697 19.742C17.0566 18.196 17.75 16.2566 17.75 14.7443H16.25ZM12 21.1943C11.6047 21.1943 11.1407 21.0122 10.6321 20.6061C10.1279 20.2035 9.63291 19.6214 9.19468 18.9349C8.3066 17.5437 7.75 15.8831 7.75 14.7443H6.25C6.25 16.2566 6.9434 18.196 7.93032 19.742C8.42959 20.5241 9.02835 21.245 9.69606 21.7782C10.3593 22.3079 11.1453 22.6943 12 22.6943V21.1943ZM7.75 14.7443C7.75 12.5362 9.62364 10.6943 12 10.6943V9.19434C8.85351 9.19434 6.25 11.6506 6.25 14.7443H7.75ZM12 10.6943C14.3764 10.6943 16.25 12.5362 16.25 14.7443H17.75C17.75 11.6506 15.1465 9.19434 12 9.19434V10.6943ZM12.75 14.4443C12.75 14.8586 12.4142 15.1943 12 15.1943V16.6943C13.2426 16.6943 14.25 15.687 14.25 14.4443H12.75ZM12 15.1943C11.5858 15.1943 11.25 14.8586 11.25 14.4443H9.75C9.75 15.687 10.7574 16.6943 12 16.6943V15.1943ZM11.25 14.4443C11.25 14.0301 11.5858 13.6943 12 13.6943V12.1943C10.7574 12.1943 9.75 13.2017 9.75 14.4443H11.25ZM12 13.6943C12.4142 13.6943 12.75 14.0301 12.75 14.4443H14.25C14.25 13.2017 13.2426 12.1943 12 12.1943V13.6943Z" fill="#344054"/>
</svg>
