<svg width="24" height="24" viewBox="0 0 24 24" fill="none" xmlns="http://www.w3.org/2000/svg">
<path d="M11 17L9.41421 18.5858C8.63317 19.3668 7.36684 19.3668 6.58579 18.5858L5 17M8 8V18.5" stroke="#344054" stroke-width="1.5" stroke-linecap="round" stroke-linejoin="round"/>
<path d="M4 4L20 20" stroke="#344054" stroke-width="1.5" stroke-linecap="round"/>
<path fill-rule="evenodd" clip-rule="evenodd" d="M16.75 13.69V5.82891C16.7967 5.86399 16.8414 5.90276 16.8839 5.94522L18.4697 7.53101C18.7626 7.8239 19.2374 7.8239 19.5303 7.53101C19.8232 7.23812 19.8232 6.76324 19.5303 6.47035L17.9445 4.88456C16.8706 3.81062 15.1294 3.81062 14.0555 4.88457L12.4697 6.47035C12.1768 6.76324 12.1768 7.23812 12.4697 7.53101C12.7626 7.8239 13.2374 7.8239 13.5303 7.53101L15.1161 5.94523C15.1586 5.90276 15.2033 5.86399 15.25 5.82891V12.19L16.75 13.69Z" fill="#344054"/>
</svg>
