<svg width="24" height="24" viewBox="0 0 24 24" fill="none" xmlns="http://www.w3.org/2000/svg">
<path d="M18 8H6C4.34315 8 3 9.34315 3 11V19C3 20.6569 4.34315 22 6 22H18C19.6569 22 21 20.6569 21 19V11C21 9.34315 19.6569 8 18 8Z" stroke="#344054" stroke-width="1.5"/>
<path d="M18 18C18.5523 18 19 18.4477 19 19C19 19.5523 18.5523 20 18 20C17.4477 20 17 19.5523 17 19C17 18.4477 17.4477 18 18 18Z" fill="#344054"/>
<path d="M6 10C6.55228 10 7 10.4477 7 11C7 11.5523 6.55228 12 6 12C5.44772 12 5 11.5523 5 11C5 10.4477 5.44772 10 6 10Z" fill="#344054"/>
<path d="M12 13C13.1046 13 14 13.8954 14 15C14 16.1046 13.1046 17 12 17C10.8954 17 10 16.1046 10 15C10 13.8954 10.8954 13 12 13Z" stroke="#344054" stroke-width="1.5"/>
<path d="M14.5303 3.05546C14.8232 3.34835 14.8232 3.82322 14.5303 4.11612C14.2374 4.40901 13.7626 4.40901 13.4697 4.11612L14.5303 3.05546ZM10.5303 4.11612C10.2374 4.40901 9.76256 4.40901 9.46967 4.11612C9.17678 3.82322 9.17678 3.34835 9.46967 3.05546L10.5303 4.11612ZM12.75 5.5C12.75 5.91421 12.4142 6.25 12 6.25C11.5858 6.25 11.25 5.91421 11.25 5.5H12.75ZM11.25 2.58579C11.25 2.17157 11.5858 1.83579 12 1.83579C12.4142 1.83579 12.75 2.17157 12.75 2.58579H11.25ZM13.4697 4.11612L12.1768 2.82322L13.2374 1.76256L14.5303 3.05546L13.4697 4.11612ZM11.8232 2.82322L10.5303 4.11612L9.46967 3.05546L10.7626 1.76256L11.8232 2.82322ZM12.1768 2.82322C12.0791 2.72559 11.9209 2.72559 11.8232 2.82322L10.7626 1.76256C11.446 1.07915 12.554 1.07914 13.2374 1.76256L12.1768 2.82322ZM11.25 5.5V2.58579H12.75V5.5H11.25Z" fill="#344054"/>
</svg>
