<svg width="24" height="24" viewBox="0 0 24 24" fill="none" xmlns="http://www.w3.org/2000/svg">
<path d="M18 2H6C4.34315 2 3 3.34315 3 5V13C3 14.6569 4.34315 16 6 16H18C19.6569 16 21 14.6569 21 13V5C21 3.34315 19.6569 2 18 2Z" stroke="#344054" stroke-width="1.5"/>
<path d="M18 12C18.5523 12 19 12.4477 19 13C19 13.5523 18.5523 14 18 14C17.4477 14 17 13.5523 17 13C17 12.4477 17.4477 12 18 12Z" fill="#344054"/>
<path d="M6 4C6.55228 4 7 4.44772 7 5C7 5.55228 6.55228 6 6 6C5.44772 6 5 5.55228 5 5C5 4.44772 5.44772 4 6 4Z" fill="#344054"/>
<path d="M12 7C13.1046 7 14 7.89543 14 9C14 10.1046 13.1046 11 12 11C10.8954 11 10 10.1046 10 9C10 7.89543 10.8954 7 12 7Z" stroke="#344054" stroke-width="1.5"/>
<path d="M14.5303 19.5555C14.8232 19.8483 14.8232 20.3232 14.5303 20.6161C14.2374 20.909 13.7626 20.909 13.4697 20.6161L14.5303 19.5555ZM10.5303 20.6161C10.2374 20.909 9.76256 20.909 9.46967 20.6161C9.17678 20.3232 9.17678 19.8483 9.46967 19.5555L10.5303 20.6161ZM12.75 22C12.75 22.4142 12.4142 22.75 12 22.75C11.5858 22.75 11.25 22.4142 11.25 22H12.75ZM11.25 19.0858C11.25 18.6716 11.5858 18.3358 12 18.3358C12.4142 18.3358 12.75 18.6716 12.75 19.0858H11.25ZM13.4697 20.6161L12.1768 19.3232L13.2374 18.2626L14.5303 19.5555L13.4697 20.6161ZM11.8232 19.3232L10.5303 20.6161L9.46967 19.5555L10.7626 18.2626L11.8232 19.3232ZM12.1768 19.3232C12.0791 19.2256 11.9209 19.2256 11.8232 19.3232L10.7626 18.2626C11.446 17.5791 12.554 17.5791 13.2374 18.2626L12.1768 19.3232ZM11.25 22V19.0858H12.75V22H11.25Z" fill="#344054"/>
</svg>
