<svg width="24" height="24" viewBox="0 0 24 24" fill="none" xmlns="http://www.w3.org/2000/svg">
<path d="M20 12V6C20 4.89543 19.1046 4 18 4H4C2.89543 4 2 4.89543 2 6V16C2 17.1046 2.89543 18 4 18H12" stroke="#344054" stroke-width="1.5"/>
<path d="M20 16H14C12.8954 16 12 16.8954 12 18C12 19.1046 12.8954 20 14 20H20C21.1046 20 22 19.1046 22 18C22 16.8954 21.1046 16 20 16Z" stroke="#344054" stroke-width="1.5"/>
<path d="M20 12H14C12.8954 12 12 12.8954 12 14C12 15.1046 12.8954 16 14 16H20C21.1046 16 22 15.1046 22 14C22 12.8954 21.1046 12 20 12Z" stroke="#344054" stroke-width="1.5"/>
</svg>
