<svg width="24" height="24" viewBox="0 0 24 24" fill="none" xmlns="http://www.w3.org/2000/svg">
<path d="M14.4643 12.5754C14.7542 12.8713 15.2291 12.8761 15.5249 12.5862C15.8208 12.2963 15.8256 11.8214 15.5357 11.5256L14.4643 12.5754ZM15.5357 17.4744C15.8256 17.1786 15.8208 16.7037 15.5249 16.4138C15.2291 16.1239 14.7542 16.1287 14.4643 16.4246L15.5357 17.4744ZM12.5 17.25C10.9812 17.25 9.75 16.0188 9.75 14.5H8.25C8.25 16.8472 10.1528 18.75 12.5 18.75V17.25ZM9.75 14.5C9.75 12.9812 10.9812 11.75 12.5 11.75V10.25C10.1528 10.25 8.25 12.1528 8.25 14.5H9.75ZM12.5 11.75C13.2696 11.75 13.9643 12.0652 14.4643 12.5754L15.5357 11.5256C14.7652 10.7393 13.689 10.25 12.5 10.25V11.75ZM14.4643 16.4246C13.9643 16.9348 13.2696 17.25 12.5 17.25V18.75C13.689 18.75 14.7652 18.2607 15.5357 17.4744L14.4643 16.4246Z" fill="#344054"/>
<path d="M8 15.5H12" stroke="#344054" stroke-width="1.5" stroke-linecap="round" stroke-linejoin="round"/>
<path d="M8 13.5H12" stroke="#344054" stroke-width="1.5" stroke-linecap="round" stroke-linejoin="round"/>
<path d="M5.63282 11.1026C6.4495 8.65258 8.74233 7 11.325 7H12.6758C15.2584 7 17.5513 8.65258 18.3679 11.1026L19.3679 14.1026C20.663 17.9878 17.7712 22 13.6758 22H10.325C6.22957 22 3.33775 17.9878 4.63282 14.1026L5.63282 11.1026Z" stroke="#344054" stroke-width="1.5" stroke-linejoin="round"/>
<path d="M14.0855 6.99965V7.74965C14.3022 7.74965 14.5084 7.65589 14.6508 7.49252L14.0855 6.99965ZM9.91375 6.99965L9.34843 7.49252C9.49087 7.65588 9.69701 7.74965 9.91375 7.74965V6.99965ZM14.0855 6.24965H9.91375V7.74965H14.0855V6.24965ZM10.479 6.50678L9.07798 4.89974L7.94735 5.88547L9.34843 7.49252L10.479 6.50678ZM14.9213 4.89974L13.5202 6.50678L14.6508 7.49252L16.0519 5.88547L14.9213 4.89974ZM10.5164 2.82328L11.4442 3.12257L11.9047 1.69501L10.9769 1.39572L10.5164 2.82328ZM12.555 3.12257L13.4828 2.82328L13.0223 1.39572L12.0945 1.69501L12.555 3.12257ZM11.4442 3.12257C11.8051 3.23901 12.1941 3.23901 12.555 3.12257L12.0945 1.69501C12.033 1.71486 11.9662 1.71486 11.9047 1.69501L11.4442 3.12257ZM16.0519 5.88547C17.9606 3.69616 15.6989 0.532244 13.0223 1.39572L13.4828 2.82328C14.8166 2.39301 15.7594 3.9384 14.9213 4.89974L16.0519 5.88547ZM9.07798 4.89974C8.23985 3.9384 9.18268 2.39301 10.5164 2.82328L10.9769 1.39572C8.3003 0.532244 6.03861 3.69615 7.94735 5.88547L9.07798 4.89974Z" fill="#344054"/>
</svg>
