<svg width="24" height="24" viewBox="0 0 24 24" fill="none" xmlns="http://www.w3.org/2000/svg">
<path d="M5.63282 11.1026C6.4495 8.65258 8.74233 7 11.325 7H12.6758C15.2584 7 17.5513 8.65258 18.3679 11.1026L19.3679 14.1026C20.663 17.9878 17.7712 22 13.6758 22H10.325C6.22957 22 3.33775 17.9878 4.63282 14.1026L5.63282 11.1026Z" stroke="#344054" stroke-width="1.5" stroke-linejoin="round"/>
<path d="M14.0855 6.99965V7.74965C14.3022 7.74965 14.5084 7.65589 14.6508 7.49252L14.0855 6.99965ZM9.91375 6.99965L9.34843 7.49252C9.49087 7.65588 9.69701 7.74965 9.91375 7.74965V6.99965ZM14.0855 6.24965H9.91375V7.74965H14.0855V6.24965ZM10.479 6.50678L9.07798 4.89974L7.94735 5.88547L9.34843 7.49252L10.479 6.50678ZM14.9213 4.89974L13.5202 6.50678L14.6508 7.49252L16.0519 5.88547L14.9213 4.89974ZM10.5164 2.82328L11.4442 3.12257L11.9047 1.69501L10.9769 1.39572L10.5164 2.82328ZM12.555 3.12257L13.4828 2.82328L13.0223 1.39572L12.0945 1.69501L12.555 3.12257ZM11.4442 3.12257C11.8051 3.23901 12.1941 3.23901 12.555 3.12257L12.0945 1.69501C12.033 1.71486 11.9662 1.71486 11.9047 1.69501L11.4442 3.12257ZM16.0519 5.88547C17.9606 3.69616 15.6989 0.532244 13.0223 1.39572L13.4828 2.82328C14.8166 2.39301 15.7594 3.9384 14.9213 4.89974L16.0519 5.88547ZM9.07798 4.89974C8.23985 3.9384 9.18268 2.39301 10.5164 2.82328L10.9769 1.39572C8.3003 0.532244 6.03861 3.69615 7.94735 5.88547L9.07798 4.89974Z" fill="#344054"/>
<path d="M9 17C11.2544 18.3147 12.5778 18.3445 15 17" stroke="#344054" stroke-width="1.5" stroke-linecap="round"/>
</svg>
