<svg width="24" height="24" viewBox="0 0 24 24" fill="none" xmlns="http://www.w3.org/2000/svg">
<path d="M20.4185 12.9997L19.7233 13.2811C19.8379 13.5644 20.1129 13.7497 20.4185 13.7497C20.724 13.7497 20.999 13.5644 21.1137 13.2811L20.4185 12.9997ZM12.25 16.9997C12.25 19.3469 10.3472 21.2497 8 21.2497V22.7497C11.1756 22.7497 13.75 20.1754 13.75 16.9997H12.25ZM8 21.2497C5.65279 21.2497 3.75 19.3469 3.75 16.9997H2.25C2.25 20.1754 4.82436 22.7497 8 22.7497V21.2497ZM3.75 16.9997C3.75 14.6525 5.65279 12.7497 8 12.7497V11.2497C4.82436 11.2497 2.25 13.8241 2.25 16.9997H3.75ZM8 12.7497C10.3472 12.7497 12.25 14.6525 12.25 16.9997H13.75C13.75 13.8241 11.1756 11.2497 8 11.2497V12.7497ZM14.7947 2.97343C17.9311 3.77189 20.25 6.61597 20.25 9.99976H21.75C21.75 5.91362 18.9498 2.48338 15.1648 1.51979L14.7947 2.97343ZM13 8.74976C16.0414 8.74976 18.6472 10.6228 19.7233 13.2811L21.1137 12.7183C19.8162 9.51304 16.6733 7.24976 13 7.24976V8.74976ZM20.25 9.99976C20.25 10.9625 20.0627 11.8798 19.7233 12.7183L21.1137 13.2811C21.5243 12.2668 21.75 11.1587 21.75 9.99976H20.25ZM12.25 3.99976V7.99976H13.75V3.99976H12.25ZM15.1648 1.51979C13.4891 1.09319 12.25 2.55063 12.25 3.99976H13.75C13.75 3.23974 14.3296 2.85501 14.7947 2.97343L15.1648 1.51979ZM12.25 7.99976V16.9997H13.75V7.99976H12.25Z" fill="#344054"/>
</svg>
