<svg width="24" height="24" viewBox="0 0 24 24" fill="none" xmlns="http://www.w3.org/2000/svg">
<path d="M18.4377 14.7951C18.1636 15.1056 18.1931 15.5796 18.5037 15.8537C18.8143 16.1278 19.2882 16.0982 19.5623 15.7877L18.4377 14.7951ZM12.25 16.9997C12.25 19.3469 10.3472 21.2497 8 21.2497V22.7497C11.1756 22.7497 13.75 20.1754 13.75 16.9997H12.25ZM8 21.2497C5.65279 21.2497 3.75 19.3469 3.75 16.9997H2.25C2.25 20.1754 4.82436 22.7497 8 22.7497V21.2497ZM3.75 16.9997C3.75 14.6525 5.65279 12.7497 8 12.7497V11.2497C4.82436 11.2497 2.25 13.8241 2.25 16.9997H3.75ZM8 12.7497C10.3472 12.7497 12.25 14.6525 12.25 16.9997H13.75C13.75 13.8241 11.1756 11.2497 8 11.2497V12.7497ZM14.7947 2.97343C17.9311 3.7719 20.25 6.61597 20.25 9.99972H21.75C21.75 5.91362 18.9498 2.48339 15.1648 1.5198L14.7947 2.97343ZM20.25 9.99972C20.25 11.8389 19.5661 13.5166 18.4377 14.7951L19.5623 15.7877C20.9233 14.2457 21.75 12.2183 21.75 9.99972H20.25ZM12.25 3.99976V16.9997H13.75V3.99976H12.25ZM15.1648 1.5198C13.4891 1.09319 12.25 2.55063 12.25 3.99976H13.75C13.75 3.23975 14.3296 2.85502 14.7947 2.97343L15.1648 1.5198Z" fill="#344054"/>
</svg>
