<svg width="24" height="24" viewBox="0 0 24 24" fill="none" xmlns="http://www.w3.org/2000/svg">
<path d="M17 19.0479C18.6569 19.0479 20 17.7047 20 16.0479C20 14.391 18.6569 13.0479 17 13.0479C15.3431 13.0479 14 14.391 14 16.0479C14 17.7047 15.3431 19.0479 17 19.0479Z" stroke="#344054" stroke-width="1.5"/>
<path d="M7 21C8.65685 21 10 19.6569 10 18C10 16.3431 8.65685 15 7 15C5.34315 15 4 16.3431 4 18C4 19.6569 5.34315 21 7 21Z" stroke="#344054" stroke-width="1.5"/>
<path d="M20.75 16.0477C20.75 16.4619 20.4142 16.7977 20 16.7977C19.5858 16.7977 19.25 16.4619 19.25 16.0477H20.75ZM10.75 18.0477C10.75 18.4619 10.4142 18.7977 10 18.7977C9.58579 18.7977 9.25 18.4619 9.25 18.0477H10.75ZM19.25 16.0477V10.0017H20.75V16.0477H19.25ZM17.5358 8.84113L12.793 10.7382L12.2359 9.34554L16.9787 7.44842L17.5358 8.84113ZM10.75 13.7558V18.0477H9.25V13.7558H10.75ZM12.793 10.7382C11.5591 11.2318 10.75 12.4268 10.75 13.7558H9.25C9.25 11.8135 10.4325 10.0669 12.2359 9.34554L12.793 10.7382ZM19.25 10.0017C19.25 9.1174 18.3568 8.5127 17.5358 8.84113L16.9787 7.44842C18.7851 6.72587 20.75 8.0562 20.75 10.0017H19.25Z" fill="#344054"/>
<path d="M20.75 12.0477C20.75 12.4619 20.4142 12.7977 20 12.7977C19.5858 12.7977 19.25 12.4619 19.25 12.0477H20.75ZM10.75 16.0477C10.75 16.4619 10.4142 16.7977 10 16.7977C9.58579 16.7977 9.25 16.4619 9.25 16.0477H10.75ZM19.25 12.0477V5.00173H20.75V12.0477H19.25ZM17.5358 3.84114L12.793 5.73825L12.2359 4.34553L16.9787 2.44842L17.5358 3.84114ZM10.75 8.7558V16.0477H9.25V8.7558H10.75ZM12.793 5.73825C11.5591 6.2318 10.75 7.42686 10.75 8.7558H9.25C9.25 6.8135 10.4325 5.06688 12.2359 4.34553L12.793 5.73825ZM19.25 5.00173C19.25 4.1174 18.3568 3.5127 17.5358 3.84114L16.9787 2.44842C18.7851 1.72587 20.75 3.05621 20.75 5.00173H19.25Z" fill="#344054"/>
</svg>
