<svg width="24" height="24" viewBox="0 0 24 24" fill="none" xmlns="http://www.w3.org/2000/svg">
<path d="M20.25 12.5005C20.25 14.0193 19.0188 15.2505 17.5 15.2505V16.7505C19.8472 16.7505 21.75 14.8477 21.75 12.5005H20.25ZM17.5 15.2505C15.9812 15.2505 14.75 14.0193 14.75 12.5005H13.25C13.25 14.8477 15.1528 16.7505 17.5 16.7505V15.2505ZM14.75 12.5005C14.75 10.9817 15.9812 9.7505 17.5 9.7505V8.2505C15.1528 8.2505 13.25 10.1533 13.25 12.5005H14.75ZM17.5 9.7505C19.0188 9.7505 20.25 10.9817 20.25 12.5005H21.75C21.75 10.1533 19.8472 8.2505 17.5 8.2505V9.7505ZM9.25 18.5005C9.25 20.0193 8.01878 21.2505 6.5 21.2505V22.7505C8.84721 22.7505 10.75 20.8477 10.75 18.5005H9.25ZM6.5 21.2505C4.98122 21.2505 3.75 20.0193 3.75 18.5005H2.25C2.25 20.8477 4.15279 22.7505 6.5 22.7505V21.2505ZM3.75 18.5005C3.75 16.9817 4.98122 15.7505 6.5 15.7505V14.2505C4.15279 14.2505 2.25 16.1533 2.25 18.5005H3.75ZM6.5 15.7505C8.01878 15.7505 9.25 16.9817 9.25 18.5005H10.75C10.75 16.1533 8.84721 14.2505 6.5 14.2505V15.7505ZM21.75 12.5005V4.8559H20.25V12.5005H21.75ZM18.0602 2.27147L12.3767 4.3382L12.8893 5.74789L18.5728 3.68116L18.0602 2.27147ZM9.25 8.80221V18.5005H10.75V8.80221H9.25ZM12.3767 4.3382C10.4996 5.0208 9.25 6.80481 9.25 8.80221H10.75C10.75 7.43557 11.605 6.21493 12.8893 5.74789L12.3767 4.3382ZM21.75 4.8559C21.75 2.9475 19.8537 1.61929 18.0602 2.27147L18.5728 3.68116C19.3881 3.38472 20.25 3.98845 20.25 4.8559H21.75Z" fill="#344054"/>
</svg>
