<svg width="24" height="24" viewBox="0 0 24 24" fill="none" xmlns="http://www.w3.org/2000/svg">
<path d="M5.27012 12.8737L8.97259 14.1079L9.44693 12.6849L5.74446 11.4507L5.27012 12.8737ZM9.89242 15.0277L11.1266 18.7302L12.5496 18.2558L11.3154 14.5534L9.89242 15.0277ZM16.7321 18.7302L20.5946 7.14275L19.1716 6.66841L15.3091 18.2558L16.7321 18.7302ZM16.8576 3.40574L5.27012 7.26822L5.74446 8.69125L17.3319 4.82877L16.8576 3.40574ZM20.5946 7.14275C21.3644 4.83314 19.1672 2.63587 16.8576 3.40574L17.3319 4.82877C18.4689 4.44978 19.5505 5.53145 19.1716 6.66841L20.5946 7.14275ZM11.1266 18.7302C12.0244 21.4237 15.8343 21.4237 16.7321 18.7302L15.3091 18.2558C14.8671 19.5818 12.9916 19.5818 12.5496 18.2558L11.1266 18.7302ZM8.97259 14.1079C9.40687 14.2526 9.74766 14.5934 9.89242 15.0277L11.3154 14.5534C11.0214 13.6712 10.3291 12.9789 9.44693 12.6849L8.97259 14.1079ZM5.74446 11.4507C4.41851 11.0087 4.41851 9.13323 5.74446 8.69125L5.27012 7.26822C2.57663 8.16605 2.57663 11.9759 5.27012 12.8737L5.74446 11.4507Z" fill="#344054"/>
</svg>
