<svg width="24" height="24" viewBox="0 0 24 24" fill="none" xmlns="http://www.w3.org/2000/svg">
<path d="M9.5254 3.00002L10.2432 3.21757C10.3234 2.95279 10.2514 2.66533 10.0557 2.46969C9.86009 2.27405 9.57263 2.20201 9.30785 2.28226L9.5254 3.00002ZM21 14.4746L21.7178 14.6921C21.798 14.4274 21.726 14.1399 21.5303 13.9443C21.3347 13.7486 21.0472 13.6766 20.7825 13.7568L21 14.4746ZM8.38135 5.67165C8.38135 11.1652 12.8348 15.6187 18.3284 15.6187V14.1187C13.6632 14.1187 9.88135 10.3368 9.88135 5.67165H8.38135ZM2.25 11.803C2.25 17.2966 6.70343 21.75 12.197 21.75V20.25C7.53186 20.25 3.75 16.4681 3.75 11.803H2.25ZM9.30785 2.28226C5.22404 3.52004 2.25 7.31322 2.25 11.803H3.75C3.75 7.99234 6.27389 4.76922 9.74294 3.71778L9.30785 2.28226ZM8.80764 2.78247C8.53024 3.69772 8.38135 4.66797 8.38135 5.67165H9.88135C9.88135 4.81699 10.008 3.99328 10.2432 3.21757L8.80764 2.78247ZM12.197 21.75C16.6868 21.75 20.48 18.776 21.7178 14.6921L20.2822 14.2571C19.2308 17.7261 16.0077 20.25 12.197 20.25V21.75ZM18.3284 15.6187C19.332 15.6187 20.3023 15.4698 21.2175 15.1924L20.7825 13.7568C20.0067 13.992 19.183 14.1187 18.3284 14.1187V15.6187Z" fill="#344054"/>
</svg>
