<svg width="24" height="24" viewBox="0 0 24 24" fill="none" xmlns="http://www.w3.org/2000/svg">
<path d="M12.0289 21.064C12.4059 20.8926 12.5726 20.4479 12.4011 20.0708C12.2296 19.6938 11.785 19.5271 11.4079 19.6986L12.0289 21.064ZM8.15841 16.4492C8.32989 16.0721 8.16324 15.6275 7.78619 15.456C7.40913 15.2845 6.96446 15.4511 6.79299 15.8282L8.15841 16.4492ZM13.783 18.5569L5.05749 9.83139L3.99683 10.8921L12.7224 19.6176L13.783 18.5569ZM18.575 12.9239L16.6661 15.3205L17.8394 16.255L19.7483 13.8584L18.575 12.9239ZM8.29388 6.94836L10.6906 5.03946L9.75597 3.86615L7.35934 5.77505L8.29388 6.94836ZM5.82206 7.9311C6.72209 7.85791 7.58337 7.51427 8.29388 6.94836L7.35934 5.77505C6.87882 6.15778 6.29974 6.3873 5.7005 6.43603L5.82206 7.9311ZM16.6661 15.3205C16.1002 16.031 15.7565 16.8923 15.6833 17.7923L17.1784 17.9139C17.2271 17.3146 17.4567 16.7356 17.8394 16.255L16.6661 15.3205ZM5.05749 9.83139C4.43044 9.20433 4.82485 8.01218 5.82206 7.9311L5.7005 6.43603C3.51609 6.61365 2.40453 9.29975 3.99683 10.8921L5.05749 9.83139ZM12.7224 19.6176C14.3147 21.2099 17.0008 20.0983 17.1784 17.9139L15.6833 17.7923C15.6023 18.7895 14.4101 19.184 13.783 18.5569L12.7224 19.6176ZM19.7483 13.8584C22.0462 10.9734 21.8851 6.85995 19.3198 4.29465L18.2591 5.35531C20.2604 7.35658 20.4193 10.6083 18.575 12.9239L19.7483 13.8584ZM10.6906 5.03946C13.0061 3.19514 16.2579 3.35403 18.2591 5.35531L19.3198 4.29465C16.7545 1.72935 12.641 1.56825 9.75597 3.86615L10.6906 5.03946ZM11.4079 19.6986C10.5708 20.0793 9.48005 19.9108 8.71314 19.1439L7.65248 20.2046C8.84429 21.3964 10.6006 21.7136 12.0289 21.064L11.4079 19.6986ZM8.71314 19.1439C7.94622 18.377 7.77772 17.2863 8.15841 16.4492L6.79299 15.8282C6.14341 17.2565 6.46066 19.0127 7.65248 20.2046L8.71314 19.1439Z" fill="#344054"/>
</svg>
