<svg width="24" height="24" viewBox="0 0 24 24" fill="none" xmlns="http://www.w3.org/2000/svg">
<path d="M11.1839 4.81108C11.5935 4.74925 11.8754 4.3671 11.8135 3.95753C11.7517 3.54796 11.3695 3.26606 10.96 3.32789L11.1839 4.81108ZM19.1828 10.7423C19.1362 10.3307 18.7647 10.0349 18.3531 10.0815C17.9415 10.1281 17.6457 10.4996 17.6923 10.9112L19.1828 10.7423ZM15.7025 20.2632C15.8479 19.8753 15.6513 19.4431 15.2634 19.2977C14.8755 19.1523 14.4433 19.3489 14.2979 19.7368L15.7025 20.2632ZM9.70253 19.7368C9.55717 19.3489 9.1249 19.1523 8.73703 19.2977C8.34916 19.4431 8.15257 19.8753 8.29793 20.2632L9.70253 19.7368ZM19.2502 5C19.2502 6.24264 18.2428 7.25 17.0002 7.25V8.75C19.0713 8.75 20.7502 7.07107 20.7502 5H19.2502ZM17.0002 7.25C15.7576 7.25 14.7502 6.24264 14.7502 5H13.2502C13.2502 7.07107 14.9291 8.75 17.0002 8.75V7.25ZM14.7502 5C14.7502 3.75736 15.7576 2.75 17.0002 2.75V1.25C14.9291 1.25 13.2502 2.92893 13.2502 5H14.7502ZM17.0002 2.75C18.2428 2.75 19.2502 3.75736 19.2502 5H20.7502C20.7502 2.92893 19.0713 1.25 17.0002 1.25V2.75ZM18.1701 17.25H5.83037V18.75H18.1701V17.25ZM6.08022 12.9229L6.4251 9.87845L4.93463 9.70961L4.58976 12.7541L6.08022 12.9229ZM5.02729 15.3656C5.61195 14.6775 5.97798 13.8255 6.08022 12.9229L4.58976 12.7541C4.52061 13.3645 4.27343 13.9363 3.88416 14.3944L5.02729 15.3656ZM17.9202 12.9229C18.0225 13.8255 18.3885 14.6775 18.9731 15.3656L20.1163 14.3944C19.727 13.9363 19.4798 13.3645 19.4107 12.7541L17.9202 12.9229ZM5.83037 17.25C4.94357 17.25 4.37949 16.1281 5.02729 15.3656L3.88416 14.3944C2.46514 16.0646 3.57851 18.75 5.83037 18.75V17.25ZM18.1701 18.75C20.4219 18.75 21.5353 16.0646 20.1163 14.3944L18.9731 15.3656C19.6209 16.1281 19.0569 17.25 18.1701 17.25V18.75ZM6.4251 9.87845C6.72567 7.22517 8.72007 5.18306 11.1839 4.81108L10.96 3.32789C7.80706 3.8039 5.30947 6.40071 4.93463 9.70961L6.4251 9.87845ZM17.6923 10.9112L17.9202 12.9229L19.4107 12.7541L19.1828 10.7423L17.6923 10.9112ZM14.2979 19.7368C13.9752 20.5979 13.0848 21.25 12.0002 21.25V22.75C13.6857 22.75 15.1518 21.7325 15.7025 20.2632L14.2979 19.7368ZM12.0002 21.25C10.9156 21.25 10.0252 20.5979 9.70253 19.7368L8.29793 20.2632C8.84858 21.7325 10.3147 22.75 12.0002 22.75V21.25Z" fill="#344054"/>
</svg>
