<svg width="24" height="24" viewBox="0 0 24 24" fill="none" xmlns="http://www.w3.org/2000/svg">
<path d="M9.46855 3.41436C9.1451 3.1556 8.67314 3.20804 8.41438 3.53149C8.15562 3.85494 8.20806 4.3269 8.53151 4.58566L9.46855 3.41436ZM15.5644 2.49389C15.8372 2.18216 15.8056 1.70834 15.4939 1.43558C15.1822 1.16282 14.7083 1.1944 14.4356 1.50613L15.5644 2.49389ZM8.53151 4.58566L10.2843 5.98792L11.2213 4.81662L9.46855 3.41436L8.53151 4.58566ZM12.6945 5.77378L15.5644 2.49389L14.4356 1.50613L11.5657 4.78602L12.6945 5.77378ZM10.2843 5.98792C11.0156 6.57295 12.0778 6.47857 12.6945 5.77378L11.5657 4.78602C11.4776 4.88671 11.3258 4.90019 11.2213 4.81662L10.2843 5.98792Z" fill="#344054"/>
<path d="M19.25 10V16.7639H20.75V10H19.25ZM4.75 16.7639V10H3.25V16.7639H4.75ZM18.559 17.882L12.559 20.882L13.2298 22.2236L19.2298 19.2236L18.559 17.882ZM11.441 20.882L5.44098 17.882L4.77016 19.2236L10.7702 22.2236L11.441 20.882ZM12.559 20.882C12.2071 21.0579 11.7929 21.0579 11.441 20.882L10.7702 22.2236C11.5444 22.6107 12.4556 22.6107 13.2298 22.2236L12.559 20.882ZM3.25 16.7639C3.25 17.8056 3.83851 18.7578 4.77016 19.2236L5.44098 17.882C5.0175 17.6702 4.75 17.2374 4.75 16.7639H3.25ZM19.25 16.7639C19.25 17.2374 18.9825 17.6702 18.559 17.882L19.2298 19.2236C20.1615 18.7578 20.75 17.8056 20.75 16.7639H19.25Z" fill="#344054"/>
<path d="M20 6.00016L20.3354 6.67098C20.5895 6.54394 20.75 6.28424 20.75 6.00016C20.75 5.71608 20.5895 5.45638 20.3354 5.32934L20 6.00016ZM12 10.0002L11.6646 10.671C11.8757 10.7766 12.1243 10.7766 12.3354 10.671L12 10.0002ZM4 6.00016L3.66459 5.32934C3.4105 5.45638 3.25 5.71608 3.25 6.00016C3.25 6.28424 3.4105 6.54394 3.66459 6.67098L4 6.00016ZM18.3354 4.32934C17.9649 4.1441 17.5144 4.29427 17.3292 4.66475C17.1439 5.03523 17.2941 5.48574 17.6646 5.67098L18.3354 4.32934ZM6.33541 5.67098C6.70589 5.48574 6.85606 5.03523 6.67082 4.66475C6.48558 4.29427 6.03507 4.1441 5.66459 4.32934L6.33541 5.67098ZM19.6646 5.32934L11.6646 9.32934L12.3354 10.671L20.3354 6.67098L19.6646 5.32934ZM12.3354 9.32934L4.33541 5.32934L3.66459 6.67098L11.6646 10.671L12.3354 9.32934ZM17.6646 5.67098L19.6646 6.67098L20.3354 5.32934L18.3354 4.32934L17.6646 5.67098ZM4.33541 6.67098L6.33541 5.67098L5.66459 4.32934L3.66459 5.32934L4.33541 6.67098Z" fill="#344054"/>
<path d="M20 6L12 10L14 13L22 9L20 6Z" stroke="#344054" stroke-width="1.5" stroke-linecap="round" stroke-linejoin="round"/>
<path d="M4 6L12 10L10 13L2 9L4 6Z" stroke="#344054" stroke-width="1.5" stroke-linecap="round" stroke-linejoin="round"/>
</svg>
