<svg width="24" height="24" viewBox="0 0 24 24" fill="none" xmlns="http://www.w3.org/2000/svg">
<path d="M12.0002 12.1815L11.4699 12.7119C11.6105 12.8525 11.8013 12.9315 12.0002 12.9315C12.1991 12.9315 12.3899 12.8525 12.5305 12.7119L12.0002 12.1815ZM12.5305 12.7119L12.7957 12.4467L11.735 11.386L11.4699 11.6512L12.5305 12.7119ZM11.2047 12.4467L11.4699 12.7119L12.5305 11.6512L12.2654 11.386L11.2047 12.4467ZM8.55302 15.0983L10.4092 16.9545L11.4699 15.8938L9.61368 14.0377L8.55302 15.0983ZM13.5912 16.9545L15.4473 15.0983L14.3867 14.0377L12.5305 15.8938L13.5912 16.9545ZM14.3867 12.4467C14.826 12.886 14.826 13.5983 14.3867 14.0377L15.4473 15.0983C16.4725 14.0732 16.4725 12.4112 15.4473 11.386L14.3867 12.4467ZM15.4473 11.386C14.4222 10.3609 12.7602 10.3609 11.735 11.386L12.7957 12.4467C13.235 12.0073 13.9473 12.0073 14.3867 12.4467L15.4473 11.386ZM9.61368 12.4467C10.0531 12.0073 10.7654 12.0073 11.2047 12.4467L12.2654 11.386C11.2402 10.3609 9.57815 10.3609 8.55302 11.386L9.61368 12.4467ZM10.4092 16.9545C11.2879 17.8332 12.7125 17.8332 13.5912 16.9545L12.5305 15.8938C12.2376 16.1867 11.7628 16.1867 11.4699 15.8938L10.4092 16.9545ZM8.55302 11.386C7.5279 12.4112 7.5279 14.0732 8.55302 15.0983L9.61368 14.0377C9.17434 13.5983 9.17434 12.886 9.61368 12.4467L8.55302 11.386Z" fill="#344054"/>
<path d="M21.25 8.40312V18H22.75V8.40312H21.25ZM18 21.25H6V22.75H18V21.25ZM2.75 18V8.40312H1.25V18H2.75ZM7.9225 2.75H16.0775V1.25H7.9225V2.75ZM18.6153 3.96974L20.5378 6.37286L21.7091 5.43582L19.7866 3.0327L18.6153 3.96974ZM3.46218 6.37287L5.38468 3.96974L4.21337 3.0327L2.29087 5.43582L3.46218 6.37287ZM16.0775 2.75C17.0648 2.75 17.9986 3.19879 18.6153 3.96974L19.7866 3.0327C18.8852 1.90593 17.5205 1.25 16.0775 1.25V2.75ZM7.9225 1.25C6.47953 1.25 5.11479 1.90593 4.21337 3.0327L5.38468 3.96974C6.00143 3.19879 6.9352 2.75 7.9225 2.75V1.25ZM6 21.25C4.20507 21.25 2.75 19.7949 2.75 18H1.25C1.25 20.6234 3.37665 22.75 6 22.75V21.25ZM21.25 18C21.25 19.7949 19.7949 21.25 18 21.25V22.75C20.6234 22.75 22.75 20.6234 22.75 18H21.25ZM22.75 8.40312C22.75 7.32453 22.3829 6.27806 21.7091 5.43582L20.5378 6.37286C20.9988 6.94913 21.25 7.66514 21.25 8.40312H22.75ZM2.75 8.40312C2.75 7.66514 3.00116 6.94913 3.46218 6.37287L2.29087 5.43582C1.61708 6.27806 1.25 7.32453 1.25 8.40312H2.75Z" fill="#344054"/>
<path d="M3 7H21" stroke="#344054" stroke-width="1.5" stroke-linecap="round" stroke-linejoin="round"/>
</svg>
