<svg width="24" height="24" viewBox="0 0 24 24" fill="none" xmlns="http://www.w3.org/2000/svg">
<path d="M20 7L12 11L4 7" stroke="#344054" stroke-width="1.5" stroke-linecap="round" stroke-linejoin="round"/>
<path d="M13.3101 3.03915L18.3101 5.3485L18.939 3.98673L13.939 1.67739L13.3101 3.03915ZM5.68993 5.3485L10.6899 3.03915L10.061 1.67739L5.06097 3.98673L5.68993 5.3485ZM18.3101 18.6515L13.3101 20.9608L13.939 22.3226L18.939 20.0133L18.3101 18.6515ZM10.6899 20.9608L5.68993 18.6515L5.06097 20.0133L10.061 22.3226L10.6899 20.9608ZM21.75 15.5338V8.46617H20.25V15.5338H21.75ZM3.75 15.5338V8.46617H2.25V15.5338H3.75ZM5.68993 18.6515C4.52184 18.112 3.75 16.8963 3.75 15.5338H2.25C2.25 17.4568 3.34004 19.2184 5.06097 20.0133L5.68993 18.6515ZM13.3101 20.9608C12.4753 21.3464 11.5247 21.3464 10.6899 20.9608L10.061 22.3226C11.2948 22.8925 12.7052 22.8925 13.939 22.3226L13.3101 20.9608ZM18.939 20.0133C20.66 19.2184 21.75 17.4568 21.75 15.5338H20.25C20.25 16.8963 19.4782 18.112 18.3101 18.6515L18.939 20.0133ZM5.06097 3.98673C3.34004 4.78158 2.25 6.54318 2.25 8.46617H3.75C3.75 7.1037 4.52183 5.88801 5.68993 5.3485L5.06097 3.98673ZM18.3101 5.3485C19.4782 5.88801 20.25 7.1037 20.25 8.46617H21.75C21.75 6.54318 20.66 4.78158 18.939 3.98673L18.3101 5.3485ZM13.939 1.67739C12.7052 1.10754 11.2948 1.10754 10.061 1.67739L10.6899 3.03915C11.5247 2.65362 12.4753 2.65362 13.3101 3.03915L13.939 1.67739Z" fill="#344054"/>
<path d="M8.36437 3.34452C8.00228 3.14336 7.54568 3.27382 7.34452 3.63591C7.14336 3.998 7.27382 4.4546 7.63591 4.65576L8.36437 3.34452ZM17.0001 9.00014H17.7501C17.7501 8.72776 17.6024 8.4768 17.3643 8.34452L17.0001 9.00014ZM16.2501 19.5001C16.2501 19.9143 16.5859 20.2501 17.0001 20.2501C17.4143 20.2501 17.7501 19.9143 17.7501 19.5001H16.2501ZM7.63591 4.65576L16.6359 9.65576L17.3643 8.34452L8.36437 3.34452L7.63591 4.65576ZM17.7501 19.5001V9.00014H16.2501V19.5001H17.7501Z" fill="#344054"/>
<path d="M12 11V22" stroke="#344054" stroke-width="1.5" stroke-linecap="round" stroke-linejoin="round"/>
</svg>
