<svg width="24" height="24" viewBox="0 0 24 24" fill="none" xmlns="http://www.w3.org/2000/svg">
<path d="M19.9848 14.9853L20.527 14.4672C20.3855 14.3191 20.1896 14.2353 19.9848 14.2353C19.78 14.2353 19.584 14.3191 19.4425 14.4672L19.9848 14.9853ZM19.9995 10.6127L20.3321 11.2849C20.5493 11.1774 20.7012 10.9717 20.7399 10.7325C20.7786 10.4933 20.6993 10.2501 20.5271 10.0797L19.9995 10.6127ZM21.2348 18.7353C21.2348 19.408 21.0366 19.7546 20.8439 19.9372C20.6411 20.1294 20.3436 20.2353 19.9848 20.2353V21.7353C20.626 21.7353 21.3285 21.5446 21.8757 21.026C22.433 20.4978 22.7348 19.7195 22.7348 18.7353H21.2348ZM19.9848 20.2353C19.626 20.2353 19.3285 20.1294 19.1257 19.9372C18.933 19.7546 18.7348 19.408 18.7348 18.7353H17.2348C17.2348 19.7195 17.5366 20.4978 18.0939 21.026C18.6411 21.5446 19.3436 21.7353 19.9848 21.7353V20.2353ZM18.7348 18.7353C18.7348 18.1537 19.1113 17.3819 19.6037 16.6626C19.8358 16.3235 20.0694 16.0305 20.2454 15.822C20.333 15.7182 20.4055 15.6364 20.4551 15.5815C20.4799 15.5541 20.499 15.5335 20.5113 15.5202C20.5174 15.5136 20.5219 15.5089 20.5246 15.506C20.5259 15.5046 20.5268 15.5037 20.5272 15.5032C20.5272 15.5031 20.5274 15.503 20.5272 15.5032C20.5271 15.5033 20.527 15.5034 19.9848 14.9853C19.4425 14.4672 19.4426 14.4671 19.4425 14.4672C19.4425 14.4673 19.4426 14.4671 19.4425 14.4672C19.4423 14.4674 19.4416 14.4681 19.4414 14.4684C19.4409 14.4689 19.4402 14.4696 19.4395 14.4704C19.438 14.472 19.436 14.4741 19.4335 14.4767C19.4286 14.4819 19.4219 14.4891 19.4134 14.4982C19.3964 14.5164 19.3725 14.5424 19.3426 14.5754C19.2829 14.6415 19.1991 14.7361 19.0992 14.8545C18.9001 15.0902 18.6338 15.4241 18.3659 15.8153C17.8583 16.5568 17.2348 17.66 17.2348 18.7353H18.7348ZM19.9848 14.9853C19.4425 15.5034 19.4424 15.5033 19.4424 15.5032C19.4428 15.5037 19.4437 15.5046 19.445 15.506C19.4477 15.5089 19.4521 15.5136 19.4583 15.5202C19.4706 15.5335 19.4897 15.5541 19.5145 15.5815C19.5641 15.6364 19.6366 15.7182 19.7242 15.822C19.9001 16.0305 20.1338 16.3235 20.3659 16.6626C20.8583 17.3819 21.2348 18.1537 21.2348 18.7353H22.7348C22.7348 17.66 22.1113 16.5568 21.6037 15.8153C21.3358 15.4241 21.0694 15.0902 20.8704 14.8545C20.7705 14.7361 20.6867 14.6415 20.627 14.5754C20.5971 14.5424 20.5732 14.5164 20.5562 14.4982C20.5477 14.4891 20.541 14.4819 20.5361 14.4767C20.5336 14.4741 20.5316 14.472 20.5301 14.4704C20.5294 14.4696 20.5287 14.4689 20.5282 14.4684C20.528 14.4681 20.5284 14.4686 20.5282 14.4684C20.5281 14.4683 20.527 14.4673 20.527 14.4672C20.5269 14.4671 20.527 14.4672 19.9848 14.9853ZM12.4284 4.17473L19.4719 11.1458L20.5271 10.0797L13.4836 3.1086L12.4284 4.17473ZM8.00536 17.8253L3.30971 13.1779L2.25455 14.244L6.9502 18.8914L8.00536 17.8253ZM3.30971 11.1458L10.3532 4.17473L9.29802 3.1086L2.25455 10.0797L3.30971 11.1458ZM19.6669 9.94052L16.5364 11.4896L17.2017 12.834L20.3321 11.2849L19.6669 9.94052ZM16.3415 11.6288L10.0806 17.8253L11.1358 18.8914L17.3966 12.6949L16.3415 11.6288ZM16.8691 11.4118H2.13379V12.9118H16.8691V11.4118ZM2.13379 11.4118H1.99951L1.99953 12.9118H2.13379V11.4118ZM3.30971 13.1779C3.02472 12.8958 2.88379 12.5293 2.88379 12.1618H1.38379C1.38379 12.9158 1.67509 13.6705 2.25455 14.244L3.30971 13.1779ZM2.88379 12.1618C2.88379 11.7944 3.02472 11.4278 3.30971 11.1458L2.25455 10.0797C1.67509 10.6532 1.38379 11.4079 1.38379 12.1618H2.88379ZM6.9502 18.8914C8.1069 20.0362 9.9791 20.0362 11.1358 18.8914L10.0806 17.8253C9.50844 18.3916 8.57755 18.3916 8.00536 17.8253L6.9502 18.8914ZM13.4836 3.1086C12.3269 1.9638 10.4547 1.9638 9.29802 3.1086L10.3532 4.17473C10.9254 3.60842 11.8562 3.60842 12.4284 4.17473L13.4836 3.1086Z" fill="#344054"/>
</svg>
