<svg width="24" height="24" viewBox="0 0 24 24" fill="none" xmlns="http://www.w3.org/2000/svg">
<path d="M8.5 3V2.25C8.18536 2.25 7.90416 2.4464 7.79584 2.74181L8.5 3ZM9 13V12.25C8.69332 12.25 8.41754 12.4367 8.30364 12.7215L9 13ZM7 18V18.75C7.30668 18.75 7.58246 18.5633 7.69636 18.2785L7 18ZM3 18L2.29584 17.7418C2.2115 17.9718 2.24483 18.2286 2.38512 18.4295C2.52542 18.6303 2.75499 18.75 3 18.75V18ZM8.5 3.75H13V2.25H8.5V3.75ZM13 12.25H9V13.75H13V12.25ZM8.30364 12.7215L6.30364 17.7215L7.69636 18.2785L9.69636 13.2785L8.30364 12.7215ZM7 17.25H3V18.75H7V17.25ZM3.70416 18.2582L9.20416 3.25819L7.79584 2.74181L2.29584 17.7418L3.70416 18.2582ZM17.25 8C17.25 10.3472 15.3472 12.25 13 12.25V13.75C16.1756 13.75 18.75 11.1756 18.75 8H17.25ZM13 3.75C15.3472 3.75 17.25 5.65279 17.25 8H18.75C18.75 4.82436 16.1756 2.25 13 2.25V3.75Z" fill="#344054"/>
<path d="M12 16.0002V15.2502C11.6933 15.2502 11.4176 15.4369 11.3037 15.7216L12 16.0002ZM10 21.0002V21.7502C10.3067 21.7502 10.5825 21.5635 10.6964 21.2787L10 21.0002ZM5.79297 21.0002L5.09718 20.7202C5.00418 20.9513 5.03203 21.2136 5.17149 21.42C5.31096 21.6265 5.54383 21.7502 5.79297 21.7502V21.0002ZM7.69582 18.2801C7.85043 17.8958 7.66425 17.459 7.27998 17.3044C6.8957 17.1498 6.45885 17.3359 6.30423 17.7202L7.69582 18.2801ZM18.3003 5.72894C17.9207 5.5631 17.4786 5.73636 17.3128 6.11593C17.1469 6.49549 17.3202 6.93763 17.6997 7.10347L18.3003 5.72894ZM16 15.2502H12V16.7502H16V15.2502ZM11.3037 15.7216L9.30367 20.7216L10.6964 21.2787L12.6964 16.2787L11.3037 15.7216ZM10 20.2502H5.79297V21.7502H10V20.2502ZM20.25 11.0002C20.25 13.3474 18.3472 15.2502 16 15.2502V16.7502C19.1757 16.7502 21.75 14.1758 21.75 11.0002H20.25ZM6.48876 21.2801L7.69582 18.2801L6.30423 17.7202L5.09718 20.7202L6.48876 21.2801ZM17.6997 7.10347C19.2023 7.75998 20.25 9.25856 20.25 11.0002H21.75C21.75 8.64113 20.3295 6.61555 18.3003 5.72894L17.6997 7.10347Z" fill="#344054"/>
</svg>
