<svg width="24" height="24" viewBox="0 0 24 24" fill="none" xmlns="http://www.w3.org/2000/svg">
<path d="M3.00001 21L2.26324 20.8597C2.21681 21.1037 2.29411 21.3548 2.46968 21.5303C2.64525 21.7059 2.89634 21.7832 3.14026 21.7368L3.00001 21ZM14.9168 5.30081C14.6239 5.00792 14.149 5.00792 13.8561 5.30081C13.5633 5.5937 13.5633 6.06858 13.8561 6.36147L14.9168 5.30081ZM17.6386 10.144C17.9315 10.4369 18.4064 10.4369 18.6993 10.144C18.9922 9.85108 18.9922 9.37621 18.6993 9.08331L17.6386 10.144ZM19.6534 7.22721L8.19791 18.6827L9.25857 19.7434L20.7141 8.28787L19.6534 7.22721ZM5.3173 15.8021L16.7728 4.3466L15.7121 3.28594L4.25664 14.7414L5.3173 15.8021ZM6.53254 19.5641L2.85976 20.2632L3.14026 21.7368L6.81304 21.0376L6.53254 19.5641ZM3.73678 21.1403L4.43594 17.4675L2.9624 17.187L2.26324 20.8597L3.73678 21.1403ZM4.25664 14.7414C3.58972 15.4084 3.13878 16.2604 2.9624 17.187L4.43594 17.4675C4.55605 16.8365 4.86313 16.2563 5.3173 15.8021L4.25664 14.7414ZM8.19791 18.6827C7.74375 19.1369 7.16349 19.444 6.53254 19.5641L6.81304 21.0376C7.73957 20.8612 8.59165 20.4103 9.25857 19.7434L8.19791 18.6827ZM19.6534 4.34659C20.4489 5.14205 20.4489 6.43175 19.6534 7.22721L20.7141 8.28787C22.0953 6.90662 22.0953 4.66718 20.7141 3.28593L19.6534 4.34659ZM20.7141 3.28593C19.3328 1.90469 17.0934 1.90469 15.7121 3.28594L16.7728 4.3466C17.5682 3.55114 18.8579 3.55113 19.6534 4.34659L20.7141 3.28593ZM13.8561 6.36147L17.6386 10.144L18.6993 9.08331L14.9168 5.30081L13.8561 6.36147Z" fill="#344054"/>
</svg>
