<svg width="24" height="24" viewBox="0 0 24 24" fill="none" xmlns="http://www.w3.org/2000/svg">
<path d="M14.6594 10.7541L13.2452 9.33992C12.8547 8.94939 12.2215 8.94939 11.831 9.33992L9.34009 11.8308C8.94957 12.2213 8.94957 12.8545 9.34009 13.245L10.7543 14.6592C11.1448 15.0498 11.778 15.0498 12.1685 14.6592L14.6594 12.1683C15.0499 11.7778 15.0499 11.1447 14.6594 10.7541Z" stroke="#344054" stroke-width="1.5"/>
<path d="M19.304 9.26358L9.26358 19.304L10.3242 20.3647L20.3647 10.3242L19.304 9.26358ZM4.69598 14.7364L14.7364 4.69598L13.6758 3.63532L3.63532 13.6758L4.69598 14.7364ZM4.69598 19.304C3.43467 18.0427 3.43467 15.9977 4.69598 14.7364L3.63532 13.6758C1.78823 15.5229 1.78823 18.5176 3.63532 20.3647L4.69598 19.304ZM9.26358 19.304C8.00227 20.5653 5.95729 20.5653 4.69598 19.304L3.63532 20.3647C5.48241 22.2118 8.47714 22.2118 10.3242 20.3647L9.26358 19.304ZM19.304 4.69598C20.5653 5.95729 20.5653 8.00227 19.304 9.26358L20.3647 10.3242C22.2118 8.47715 22.2118 5.48242 20.3647 3.63532L19.304 4.69598ZM20.3647 3.63532C18.5176 1.78823 15.5229 1.78822 13.6758 3.63532L14.7364 4.69598C15.9977 3.43467 18.0427 3.43467 19.304 4.69598L20.3647 3.63532Z" fill="#344054"/>
<path d="M16.2432 6.34277L17.6574 7.75699" stroke="#344054" stroke-width="1.5" stroke-linecap="round" stroke-linejoin="round"/>
<path d="M6.34277 16.2432L7.75699 17.6574" stroke="#344054" stroke-width="1.5" stroke-linecap="round" stroke-linejoin="round"/>
</svg>
