<svg width="24" height="24" viewBox="0 0 24 24" fill="none" xmlns="http://www.w3.org/2000/svg">
<path d="M13.9991 4.89157L20.9443 16.876L22.2421 16.1239L15.297 4.13946L13.9991 4.89157ZM18.9447 20.25H5.05446V21.75H18.9447V20.25ZM3.05491 16.876L10.0001 4.89157L8.70222 4.13946L1.75709 16.1239L3.05491 16.876ZM5.05446 20.25C3.27182 20.25 2.19182 18.3653 3.05491 16.876L1.75709 16.1239C0.296134 18.6449 2.15282 21.75 5.05446 21.75V20.25ZM20.9443 16.876C21.8074 18.3653 20.7274 20.25 18.9447 20.25V21.75C21.8464 21.75 23.7031 18.6449 22.2421 16.1239L20.9443 16.876ZM15.297 4.13946C13.837 1.62018 10.1622 1.62018 8.70222 4.13946L10.0001 4.89157C10.8821 3.36948 13.1171 3.36948 13.9991 4.89157L15.297 4.13946Z" fill="#344054"/>
<path d="M7.5 8.25H6.75V9.75H7.5V8.25ZM16.5 9.75H17.25V8.25H16.5V9.75ZM7.5 9.75H16.5V8.25H7.5V9.75Z" fill="#344054"/>
<path d="M4 14.25H3.25V15.75H4V14.25ZM20 15.75H20.75V14.25H20V15.75ZM4 15.75H20V14.25H4V15.75Z" fill="#344054"/>
</svg>
