<svg width="24" height="24" viewBox="0 0 24 24" fill="none" xmlns="http://www.w3.org/2000/svg">
<path d="M14.5807 8.00235L14.2125 8.65574C14.4894 8.81178 14.8345 8.77634 15.074 8.56729C15.3134 8.35824 15.395 8.02098 15.2777 7.72558L14.5807 8.00235ZM9.41931 15.998L9.78752 15.3446C9.51062 15.1886 9.16543 15.224 8.92602 15.4331C8.6866 15.6421 8.60496 15.9794 8.72225 16.2748L9.41931 15.998ZM14.4828 5.72343C14.3299 5.33845 13.8939 5.15028 13.5089 5.30314C13.124 5.45599 12.9358 5.89199 13.0886 6.27697L14.4828 5.72343ZM9.51722 18.277C9.67008 18.662 10.1061 18.8501 10.4911 18.6973C10.876 18.5444 11.0642 18.1084 10.9113 17.7234L9.51722 18.277ZM17.5546 10.5951C17.4413 10.1967 17.0265 9.96552 16.6281 10.0788C16.2296 10.192 15.9985 10.6069 16.1117 11.0053L17.5546 10.5951ZM6.44544 13.4053C6.55871 13.8037 6.97351 14.0349 7.37194 13.9216C7.77037 13.8084 8.00154 13.3935 7.88827 12.9951L6.44544 13.4053ZM16.25 12.0002C16.25 14.1154 14.3968 15.9169 12 15.9169V17.4169C15.1261 17.4169 17.75 15.0396 17.75 12.0002H16.25ZM7.75 12.0002C7.75 9.88498 9.60321 8.08353 12 8.08353V6.58353C8.87394 6.58353 6.25 8.96076 6.25 12.0002H7.75ZM12 8.08353C12.814 8.08353 13.5704 8.29394 14.2125 8.65574L14.9489 7.34895C14.0842 6.86168 13.0744 6.58353 12 6.58353V8.08353ZM12 15.9169C11.186 15.9169 10.4296 15.7065 9.78752 15.3446L9.05111 16.6514C9.91581 17.1387 10.9256 17.4169 12 17.4169V15.9169ZM15.2777 7.72558L14.4828 5.72343L13.0886 6.27697L13.8836 8.27912L15.2777 7.72558ZM8.72225 16.2748L9.51722 18.277L10.9113 17.7234L10.1164 15.7213L8.72225 16.2748ZM16.1117 11.0053C16.2019 11.3224 16.25 11.6556 16.25 12.0002H17.75C17.75 11.515 17.6821 11.0438 17.5546 10.5951L16.1117 11.0053ZM7.88827 12.9951C7.79812 12.678 7.75 12.3448 7.75 12.0002H6.25C6.25 12.4854 6.31789 12.9566 6.44544 13.4053L7.88827 12.9951Z" fill="#344054"/>
<path d="M12 22C17.5228 22 22 17.5228 22 12C22 6.47715 17.5228 2 12 2C6.47715 2 2 6.47715 2 12C2 17.5228 6.47715 22 12 22Z" stroke="#344054" stroke-width="1.5"/>
</svg>
