<svg width="24" height="24" viewBox="0 0 24 24" fill="none" xmlns="http://www.w3.org/2000/svg">
<path d="M4 12V19C4 20.6569 5.34315 22 7 22H17C18.6569 22 20 20.6569 20 19V12" stroke="#344054" stroke-width="1.5"/>
<path d="M12 8V7.25H10.5L11.4 8.45L12 8ZM12 8.75H19.5V7.25H12V8.75ZM19.7 8.85L21.2 10.85L22.4 9.95L20.9 7.95L19.7 8.85ZM21 11.25H15.5V12.75H21V11.25ZM15.3 11.15L12.6 7.55L11.4 8.45L14.1 12.05L15.3 11.15ZM15.5 11.25C15.4213 11.25 15.3472 11.213 15.3 11.15L14.1 12.05C14.4305 12.4907 14.9492 12.75 15.5 12.75V11.25ZM21.2 10.85C21.3236 11.0148 21.206 11.25 21 11.25V12.75C22.4421 12.75 23.2652 11.1037 22.4 9.95L21.2 10.85ZM19.5 8.75C19.5787 8.75 19.6528 8.78705 19.7 8.85L20.9 7.95C20.5695 7.50934 20.0508 7.25 19.5 7.25V8.75Z" fill="#344054"/>
<path d="M12.0002 8V7.25H13.5002L12.6002 8.45L12.0002 8ZM12.0002 8.75H4.50025V7.25H12.0002V8.75ZM4.30025 8.85L2.80025 10.85L1.60025 9.95L3.10025 7.95L4.30025 8.85ZM3.00025 11.25H8.50025V12.75H3.00025V11.25ZM8.70025 11.15L11.4002 7.55L12.6002 8.45L9.90025 12.05L8.70025 11.15ZM8.50025 11.25C8.57894 11.25 8.65304 11.213 8.70025 11.15L9.90025 12.05C9.56975 12.4907 9.05108 12.75 8.50025 12.75V11.25ZM2.80025 10.85C2.67664 11.0148 2.79424 11.25 3.00025 11.25V12.75C1.55817 12.75 0.735 11.1037 1.60025 9.95L2.80025 10.85ZM4.50025 8.75C4.42156 8.75 4.34746 8.78705 4.30025 8.85L3.10025 7.95C3.43075 7.50934 3.94942 7.25 4.50025 7.25V8.75Z" fill="#344054"/>
<path d="M8.9982 4.46598C9.25556 4.79055 9.72729 4.84503 10.0518 4.58767C10.3764 4.33032 10.4309 3.85858 10.1735 3.53402L8.9982 4.46598ZM8.00001 2V1.25C7.71229 1.25 7.44993 1.4146 7.32474 1.67365C7.19954 1.9327 7.23357 2.24054 7.41234 2.46598L8.00001 2ZM13.0001 4.25C12.5859 4.25 12.2501 4.58579 12.2501 5C12.2501 5.41421 12.5859 5.75 13.0001 5.75V4.25ZM10.1735 3.53402L8.58768 1.53402L7.41234 2.46598L8.9982 4.46598L10.1735 3.53402ZM14.5001 1.25H8.00001V2.75H14.5001V1.25ZM14.5001 4.25H13.0001V5.75H14.5001V4.25ZM15.2501 3.5C15.2501 3.91421 14.9143 4.25 14.5001 4.25V5.75C15.7427 5.75 16.7501 4.74264 16.7501 3.5H15.2501ZM14.5001 2.75C14.9143 2.75 15.2501 3.08579 15.2501 3.5H16.7501C16.7501 2.25736 15.7427 1.25 14.5001 1.25V2.75Z" fill="#344054"/>
</svg>
