<svg width="24" height="24" viewBox="0 0 24 24" fill="none" xmlns="http://www.w3.org/2000/svg">
<path d="M21.25 12V18H22.75V12H21.25ZM18 21.25H6V22.75H18V21.25ZM2.75 18V12H1.25V18H2.75ZM6 21.25C4.20507 21.25 2.75 19.7949 2.75 18H1.25C1.25 20.6234 3.37665 22.75 6 22.75V21.25ZM21.25 18C21.25 19.7949 19.7949 21.25 18 21.25V22.75C20.6234 22.75 22.75 20.6234 22.75 18H21.25ZM18 8.75C19.7949 8.75 21.25 10.2051 21.25 12H22.75C22.75 9.37665 20.6234 7.25 18 7.25V8.75ZM6 7.25C3.37665 7.25 1.25 9.37665 1.25 12H2.75C2.75 10.2051 4.20507 8.75 6 8.75V7.25ZM8.0077 7.25H6V8.75H8.0077V7.25ZM18 7.25H16.0873V8.75H18V7.25Z" fill="#344054"/>
<path d="M12.5 15H11.5" stroke="#344054" stroke-width="1.5" stroke-linecap="round"/>
<path d="M18 15H17" stroke="#344054" stroke-width="1.5" stroke-linecap="round"/>
<path d="M7 15H6" stroke="#344054" stroke-width="1.5" stroke-linecap="round"/>
<path d="M15.7039 6.27585C15.7039 7.26986 15.2156 8.73391 14.4299 9.96475C14.0428 10.5711 13.6076 11.082 13.1674 11.4335C12.7228 11.7885 12.327 11.9396 11.9999 11.9396V13.4396C12.7864 13.4396 13.5041 13.0842 14.1034 12.6056C14.7071 12.1235 15.2462 11.4738 15.6942 10.7719C16.5788 9.38617 17.2039 7.64334 17.2039 6.27585H15.7039ZM11.9999 11.9396C11.6728 11.9396 11.2771 11.7885 10.8325 11.4335C10.3923 11.082 9.95701 10.5711 9.56996 9.96475C8.78425 8.73391 8.2959 7.26986 8.2959 6.27585H6.7959C6.7959 7.64334 7.42105 9.38617 8.3056 10.7719C8.75368 11.4738 9.29273 12.1235 9.89646 12.6056C10.4958 13.0842 11.2135 13.4396 11.9999 13.4396V11.9396ZM8.2959 6.27585C8.2959 4.35714 9.92509 2.75 11.9999 2.75V1.25C9.15497 1.25 6.7959 3.47159 6.7959 6.27585H8.2959ZM11.9999 2.75C14.0748 2.75 15.7039 4.35714 15.7039 6.27585H17.2039C17.2039 3.47159 14.8449 1.25 11.9999 1.25V2.75ZM12.5861 6.00861C12.5861 6.33236 12.3237 6.59482 11.9999 6.59482V8.09482C13.1521 8.09482 14.0861 7.16079 14.0861 6.00861H12.5861ZM11.9999 6.59482C11.6762 6.59482 11.4137 6.33236 11.4137 6.00861H9.91371C9.91371 7.16079 10.8478 8.09482 11.9999 8.09482V6.59482ZM11.4137 6.00861C11.4137 5.68486 11.6762 5.42241 11.9999 5.42241V3.92241C10.8478 3.92241 9.91371 4.85643 9.91371 6.00861H11.4137ZM11.9999 5.42241C12.3237 5.42241 12.5861 5.68486 12.5861 6.00861H14.0861C14.0861 4.85643 13.1521 3.92241 11.9999 3.92241V5.42241Z" fill="#344054"/>
</svg>
