<svg width="24" height="24" viewBox="0 0 24 24" fill="none" xmlns="http://www.w3.org/2000/svg">
<path d="M12 16C11.4477 16 11 16.4477 11 17C11 17.5523 11.4477 18 12 18C12.5523 18 13 17.5523 13 17C13 16.4477 12.5523 16 12 16Z" fill="#344054"/>
<path d="M11.25 14C11.25 14.4142 11.5858 14.75 12 14.75C12.4142 14.75 12.75 14.4142 12.75 14H11.25ZM12.75 7C12.75 6.58579 12.4142 6.25 12 6.25C11.5858 6.25 11.25 6.58579 11.25 7H12.75ZM12.75 14V7H11.25V14H12.75ZM5.64914 5.39057L10.6874 3.04407L10.0542 1.68431L5.01586 4.03081L5.64914 5.39057ZM13.3296 3.04407L18.3479 5.38127L18.9812 4.02151L13.9629 1.68431L13.3296 3.04407ZM2.25734 8.61935C2.4419 11.9397 3.0018 14.4152 4.1723 16.5067C5.34301 18.5987 7.08403 20.2337 9.49365 21.9432L10.3616 20.7198C8.035 19.0693 6.49658 17.5885 5.48127 15.7742C4.46573 13.9595 3.93301 11.7381 3.75503 8.5361L2.25734 8.61935ZM14.5245 21.9435C16.9445 20.2226 18.6718 18.5722 19.831 16.4783C20.9891 14.3862 21.5405 11.9231 21.7411 8.64616L20.2439 8.55448C20.0501 11.7191 19.5256 13.9329 18.5186 15.7518C17.5128 17.5688 15.986 19.0636 13.6552 20.721L14.5245 21.9435ZM9.49365 21.9432C11.0074 23.0171 13.0097 23.0206 14.5245 21.9435L13.6552 20.721C12.6625 21.427 11.3571 21.4261 10.3616 20.7198L9.49365 21.9432ZM10.6874 3.04407C11.5293 2.65198 12.4877 2.65198 13.3296 3.04407L13.9629 1.68431C12.7195 1.10523 11.2975 1.10523 10.0542 1.68431L10.6874 3.04407ZM18.3479 5.38127C19.5443 5.93848 20.3273 7.19193 20.2439 8.55448L21.7411 8.64616C21.8633 6.64997 20.7198 4.83121 18.9812 4.02151L18.3479 5.38127ZM5.01586 4.03081C3.28962 4.83477 2.14703 6.63481 2.25734 8.61935L3.75503 8.5361C3.67987 7.18397 4.46072 5.94406 5.64914 5.39057L5.01586 4.03081Z" fill="#344054"/>
</svg>
