<svg width="24" height="24" viewBox="0 0 24 24" fill="none" xmlns="http://www.w3.org/2000/svg">
<path d="M9.46816 11.414C9.14471 11.1553 8.67275 11.2077 8.41399 11.5312C8.15523 11.8546 8.20767 12.3266 8.53112 12.5853L9.46816 11.414ZM15.5641 10.4936C15.8369 10.1818 15.8053 9.70802 15.4936 9.43525C15.1818 9.16249 14.708 9.19408 14.4352 9.50581L15.5641 10.4936ZM5.68187 5.62833L10.6797 3.40707L10.0705 2.03635L5.07266 4.25761L5.68187 5.62833ZM13.3196 3.40707L18.2976 5.61952L18.9068 4.2488L13.9288 2.03635L13.3196 3.40707ZM2.32091 8.64721C2.50439 11.7972 3.0615 14.1518 4.22864 16.1421C5.39453 18.1302 7.12585 19.6802 9.51498 21.2977L10.3559 20.0556C8.04691 18.4924 6.52515 17.093 5.52257 15.3833C4.52125 13.6758 3.99452 11.5842 3.81837 8.55999L2.32091 8.64721ZM14.4855 21.2979C16.8849 19.6696 18.6027 18.105 19.7571 16.1149C20.9119 14.1243 21.4605 11.7816 21.6599 8.67301L20.163 8.57696C19.9712 11.5661 19.4525 13.6507 18.4596 15.3623C17.4665 17.0744 15.9563 18.487 13.6432 20.0567L14.4855 21.2979ZM9.51498 21.2977C11.0128 22.3117 12.9868 22.315 14.4855 21.2979L13.6432 20.0567C12.6545 20.7276 11.3474 20.7268 10.3559 20.0556L9.51498 21.2977ZM10.6797 3.40707C11.5201 3.03359 12.4793 3.03359 13.3196 3.40707L13.9288 2.03635C12.7007 1.49049 11.2987 1.49049 10.0705 2.03635L10.6797 3.40707ZM18.2976 5.61952C19.4904 6.14966 20.2433 7.32587 20.163 8.57696L21.6599 8.67301C21.7837 6.74464 20.6254 5.01262 18.9068 4.2488L18.2976 5.61952ZM5.07266 4.25761C3.36631 5.01598 2.20924 6.73008 2.32091 8.64721L3.81837 8.55999C3.74606 7.31854 4.49697 6.15495 5.68187 5.62833L5.07266 4.25761ZM8.53112 12.5853L10.284 13.9876L11.221 12.8163L9.46816 11.414L8.53112 12.5853ZM12.6942 13.7735L15.5641 10.4936L14.4352 9.50581L11.5653 12.7857L12.6942 13.7735ZM10.284 13.9876C11.0153 14.5726 12.0775 14.4782 12.6942 13.7735L11.5653 12.7857C11.4772 12.8864 11.3255 12.8999 11.221 12.8163L10.284 13.9876Z" fill="#344054"/>
</svg>
