<svg width="24" height="24" viewBox="0 0 24 24" fill="none" xmlns="http://www.w3.org/2000/svg">
<path d="M5.68187 5.62833L10.6797 3.40707L10.0705 2.03635L5.07266 4.25761L5.68187 5.62833ZM13.3196 3.40707L18.2976 5.61952L18.9068 4.2488L13.9288 2.03635L13.3196 3.40707ZM2.32091 8.64721C2.50439 11.7972 3.0615 14.1518 4.22864 16.1421C5.39453 18.1302 7.12585 19.6802 9.51498 21.2977L10.3559 20.0556C8.04691 18.4924 6.52515 17.093 5.52257 15.3833C4.52125 13.6758 3.99452 11.5842 3.81837 8.55999L2.32091 8.64721ZM14.4854 21.2979C16.8849 19.6696 18.6027 18.105 19.7571 16.1149C20.9118 14.1243 21.4604 11.7816 21.6599 8.67301L20.1629 8.57696C19.9712 11.5661 19.4525 13.6507 18.4596 15.3623C17.4664 17.0744 15.9562 18.487 13.6431 20.0567L14.4854 21.2979ZM9.51498 21.2977C11.0127 22.3117 12.9867 22.315 14.4854 21.2979L13.6431 20.0567C12.6545 20.7276 11.3473 20.7268 10.3559 20.0556L9.51498 21.2977ZM10.6797 3.40707C11.52 3.03359 12.4792 3.03359 13.3196 3.40707L13.9288 2.03635C12.7006 1.49049 11.2986 1.49049 10.0705 2.03635L10.6797 3.40707ZM18.2976 5.61952C19.4904 6.14966 20.2432 7.32587 20.1629 8.57696L21.6599 8.67301C21.7836 6.74464 20.6254 5.01262 18.9068 4.2488L18.2976 5.61952ZM5.07266 4.25761C3.36631 5.01598 2.20924 6.73008 2.32091 8.64721L3.81837 8.55999C3.74606 7.31854 4.49697 6.15495 5.68187 5.62833L5.07266 4.25761Z" fill="#344054"/>
<path d="M9.46855 10.4143C9.1451 10.1556 8.67314 10.208 8.41438 10.5315C8.15562 10.8549 8.20806 11.3269 8.53151 11.5857L9.46855 10.4143ZM15.5644 9.49389C15.8372 9.18216 15.8056 8.70834 15.4939 8.43558C15.1822 8.16282 14.7083 8.1944 14.4356 8.50613L15.5644 9.49389ZM8.53151 11.5857L10.2843 12.9879L11.2213 11.8166L9.46855 10.4143L8.53151 11.5857ZM12.6945 12.7738L15.5644 9.49389L14.4356 8.50613L11.5657 11.786L12.6945 12.7738ZM10.2843 12.9879C11.0156 13.5729 12.0778 13.4786 12.6945 12.7738L11.5657 11.786C11.4776 11.8867 11.3258 11.9002 11.2213 11.8166L10.2843 12.9879Z" fill="#344054"/>
</svg>
