<svg width="24" height="24" viewBox="0 0 24 24" fill="none" xmlns="http://www.w3.org/2000/svg">
<path d="M2.58692 9.25004C2.1727 9.25004 1.83692 9.58583 1.83692 10C1.83692 10.4142 2.1727 10.75 2.58692 10.75V9.25004ZM21.4133 10.75C21.8275 10.75 22.1633 10.4142 22.1633 10C22.1633 9.58583 21.8275 9.25004 21.4133 9.25004V10.75ZM8.00009 13.25C7.58588 13.25 7.25009 13.5858 7.25009 14C7.25009 14.4142 7.58588 14.75 8.00009 14.75V13.25ZM16.0001 14.75C16.4143 14.75 16.7501 14.4142 16.7501 14C16.7501 13.5858 16.4143 13.25 16.0001 13.25V14.75ZM9.00009 17.25C8.58588 17.25 8.25009 17.5858 8.25009 18C8.25009 18.4142 8.58588 18.75 9.00009 18.75V17.25ZM15.0001 18.75C15.4143 18.75 15.7501 18.4142 15.7501 18C15.7501 17.5858 15.4143 17.25 15.0001 17.25V18.75ZM9.60009 2.45004C9.84862 2.11867 9.78146 1.64857 9.45009 1.40004C9.11872 1.15151 8.64862 1.21867 8.40009 1.55004L9.60009 2.45004ZM5.40009 5.55005C5.15156 5.88141 5.21872 6.35151 5.55009 6.60004C5.88146 6.84857 6.35156 6.78141 6.60009 6.45004L5.40009 5.55005ZM15.6001 1.55004C15.3516 1.21867 14.8815 1.15151 14.5501 1.40004C14.2187 1.64857 14.1516 2.11867 14.4001 2.45004L15.6001 1.55004ZM17.4001 6.45004C17.6486 6.78141 18.1187 6.84857 18.4501 6.60004C18.7815 6.35151 18.8486 5.88141 18.6001 5.55005L17.4001 6.45004ZM16.4003 21.25H7.59987V22.75H16.4003V21.25ZM4.45294 18.6578L2.81802 10.6578L1.3484 10.9582L2.98332 18.9582L4.45294 18.6578ZM5.96495 6.75004H18.0352V5.25004H5.96495V6.75004ZM21.1822 10.6578L19.5473 18.6578L21.0169 18.9582L22.6518 10.9582L21.1822 10.6578ZM2.58692 10.75H21.4133V9.25004H2.58692V10.75ZM18.0352 6.75004C20.063 6.75004 21.596 8.63269 21.1822 10.6578L22.6518 10.9582C23.2523 8.01988 21.0292 5.25004 18.0352 5.25004V6.75004ZM2.81802 10.6578C2.40415 8.63269 3.93721 6.75004 5.96495 6.75004V5.25004C2.97104 5.25004 0.74791 8.01989 1.3484 10.9582L2.81802 10.6578ZM7.59987 21.25C6.08047 21.25 4.76236 20.1719 4.45294 18.6578L2.98332 18.9582C3.43356 21.1613 5.35855 22.75 7.59987 22.75V21.25ZM16.4003 22.75C18.6417 22.75 20.5666 21.1613 21.0169 18.9582L19.5473 18.6578C19.2378 20.1719 17.9197 21.25 16.4003 21.25V22.75ZM8.00009 14.75H16.0001V13.25H8.00009V14.75ZM9.00009 18.75H15.0001V17.25H9.00009V18.75ZM8.40009 1.55004L5.40009 5.55005L6.60009 6.45004L9.60009 2.45004L8.40009 1.55004ZM14.4001 2.45004L17.4001 6.45004L18.6001 5.55005L15.6001 1.55004L14.4001 2.45004Z" fill="#344054"/>
</svg>
