<svg width="24" height="24" viewBox="0 0 24 24" fill="none" xmlns="http://www.w3.org/2000/svg">
<path d="M16.4003 21.25H7.59987V22.75H16.4003V21.25ZM4.45294 18.6578L2.81802 10.6578L1.3484 10.9582L2.98332 18.9582L4.45294 18.6578ZM5.96495 6.75H18.0352V5.25H5.96495V6.75ZM21.1822 10.6578L19.5473 18.6578L21.0169 18.9582L22.6518 10.9582L21.1822 10.6578ZM18.0352 6.75C20.063 6.75 21.596 8.63265 21.1822 10.6578L22.6518 10.9582C23.2523 8.01983 21.0292 5.25 18.0352 5.25V6.75ZM2.81802 10.6578C2.40415 8.63265 3.93721 6.75 5.96495 6.75V5.25C2.97104 5.25 0.74791 8.01983 1.3484 10.9582L2.81802 10.6578ZM7.59987 21.25C6.08047 21.25 4.76236 20.1719 4.45294 18.6578L2.98332 18.9582C3.43356 21.1613 5.35855 22.75 7.59987 22.75V21.25ZM16.4003 22.75C18.6417 22.75 20.5666 21.1613 21.0169 18.9582L19.5473 18.6578C19.2378 20.1719 17.9197 21.25 16.4003 21.25V22.75Z" fill="#344054"/>
<path d="M21 10.75H21.75V9.25H21V10.75ZM3 9.25H2.25V10.75H3V9.25ZM21 9.25H3V10.75H21V9.25Z" fill="#344054"/>
<path d="M9.46855 15.4143C9.1451 15.1556 8.67314 15.208 8.41438 15.5315C8.15562 15.8549 8.20806 16.3269 8.53151 16.5857L9.46855 15.4143ZM15.5644 14.4939C15.8372 14.1822 15.8056 13.7083 15.4939 13.4356C15.1822 13.1628 14.7083 13.1944 14.4356 13.5061L15.5644 14.4939ZM8.53151 16.5857L10.2843 17.9879L11.2213 16.8166L9.46855 15.4143L8.53151 16.5857ZM12.6945 17.7738L15.5644 14.4939L14.4356 13.5061L11.5657 16.786L12.6945 17.7738ZM10.2843 17.9879C11.0156 18.5729 12.0778 18.4786 12.6945 17.7738L11.5657 16.786C11.4776 16.8867 11.3258 16.9002 11.2213 16.8166L10.2843 17.9879Z" fill="#344054"/>
<path d="M9.60004 2.45004C9.84857 2.11867 9.78141 1.64857 9.45004 1.40004C9.11867 1.15151 8.64857 1.21867 8.40004 1.55004L9.60004 2.45004ZM5.40004 5.55005C5.15151 5.88141 5.21867 6.35151 5.55004 6.60004C5.88141 6.84857 6.35151 6.78141 6.60004 6.45004L5.40004 5.55005ZM8.40004 1.55004L5.40004 5.55005L6.60004 6.45004L9.60004 2.45004L8.40004 1.55004Z" fill="#344054"/>
<path d="M15.6 1.55004C15.3515 1.21867 14.8814 1.15151 14.55 1.40004C14.2186 1.64857 14.1515 2.11867 14.4 2.45004L15.6 1.55004ZM17.4 6.45004C17.6485 6.78141 18.1186 6.84857 18.45 6.60004C18.7814 6.35151 18.8485 5.88141 18.6 5.55005L17.4 6.45004ZM14.4 2.45004L17.4 6.45004L18.6 5.55005L15.6 1.55004L14.4 2.45004Z" fill="#344054"/>
</svg>
