<svg width="24" height="24" viewBox="0 0 24 24" fill="none" xmlns="http://www.w3.org/2000/svg">
<path d="M15.9308 21.25H8.06841V22.75H15.9308V21.25ZM6.10189 6.75H17.8973V5.25H6.10189V6.75ZM20.5435 19.1338L22.51 11.1338L21.0533 10.7758L19.0868 18.7758L20.5435 19.1338ZM4.91236 18.7758L2.94583 10.7758L1.4892 11.1339L3.45573 19.1339L4.91236 18.7758ZM15.9308 22.75C18.1174 22.75 20.0215 21.2572 20.5435 19.1338L19.0868 18.7758C18.7297 20.2286 17.4269 21.25 15.9308 21.25V22.75ZM8.06841 21.25C6.57231 21.25 5.2695 20.2287 4.91236 18.7758L3.45573 19.1339C3.97769 21.2573 5.8818 22.75 8.06841 22.75V21.25ZM6.10189 5.25C3.0194 5.25 0.753382 8.1405 1.4892 11.1339L2.94583 10.7758C2.44238 8.72771 3.99282 6.75 6.10189 6.75V5.25ZM17.8973 6.75C20.0063 6.75 21.5568 8.72769 21.0533 10.7758L22.51 11.1338C23.2458 8.14047 20.9797 5.25 17.8973 5.25V6.75Z" fill="#344054"/>
<path d="M3 9.25C2.58579 9.25 2.25 9.58579 2.25 10C2.25 10.4142 2.58579 10.75 3 10.75V9.25ZM21 10.75C21.4142 10.75 21.75 10.4142 21.75 10C21.75 9.58579 21.4142 9.25 21 9.25V10.75ZM3 10.75H21V9.25H3V10.75Z" fill="#344054"/>
<path d="M9.60005 2.45004C9.84857 2.11867 9.78142 1.64857 9.45005 1.40004C9.11868 1.15151 8.64857 1.21867 8.40005 1.55004L9.60005 2.45004ZM5.40005 5.55005C5.15152 5.88141 5.21867 6.35151 5.55005 6.60004C5.88142 6.84857 6.35152 6.78141 6.60005 6.45004L5.40005 5.55005ZM8.40005 1.55004L5.40005 5.55005L6.60005 6.45004L9.60005 2.45004L8.40005 1.55004Z" fill="#344054"/>
<path d="M15.6001 1.55004C15.3515 1.21867 14.8814 1.15151 14.5501 1.40004C14.2187 1.64857 14.1515 2.11867 14.4001 2.45004L15.6001 1.55004ZM17.4001 6.45004C17.6486 6.78141 18.1187 6.84857 18.4501 6.60004C18.7814 6.35151 18.8486 5.88141 18.6001 5.55005L17.4001 6.45004ZM14.4001 2.45004L17.4001 6.45004L18.6001 5.55005L15.6001 1.55004L14.4001 2.45004Z" fill="#344054"/>
</svg>
