<svg width="24" height="24" viewBox="0 0 24 24" fill="none" xmlns="http://www.w3.org/2000/svg">
<path d="M3 3L21 21" stroke="#344054" stroke-width="1.5" stroke-linecap="round"/>
<path d="M20.2496 16.9371C20.2496 17.3514 20.5854 17.6871 20.9996 17.6871C21.4138 17.6871 21.7496 17.3514 21.7496 16.9371H20.2496ZM19.0416 19.7442C19.455 19.7186 19.7694 19.3627 19.7439 18.9493C19.7183 18.5359 19.3624 18.2215 18.949 18.247L19.0416 19.7442ZM10.4695 10.5458C10.7826 10.2746 10.8166 9.80097 10.5455 9.48785C10.2743 9.17472 9.80071 9.14069 9.48759 9.41185L10.4695 10.5458ZM11.6312 7.55552C11.3181 7.82668 11.2841 8.30033 11.5552 8.61346C11.8264 8.92659 12.3 8.96061 12.6131 8.68946L11.6312 7.55552ZM5.14782 19.7499H18.8557V18.2499H5.14782V19.7499ZM21.7496 16.9371V5.06672H20.2496V16.9371H21.7496ZM21.7496 5.06672C21.7496 2.58154 18.7526 1.38875 16.9306 2.96651L17.9125 4.10045C18.8498 3.28883 20.2496 3.98014 20.2496 5.06672H21.7496ZM5.14782 18.2499C3.81233 18.2499 3.31795 16.7387 4.20462 15.9709L3.22269 14.8369C1.18849 16.5985 2.55369 19.7499 5.14782 19.7499V18.2499ZM18.8557 19.7499C18.9181 19.7499 18.98 19.748 19.0416 19.7442L18.949 18.247C18.9183 18.2489 18.8872 18.2499 18.8557 18.2499V19.7499ZM9.48759 9.41185L3.22269 14.8369L4.20462 15.9709L10.4695 10.5458L9.48759 9.41185ZM16.9306 2.96651L11.6312 7.55552L12.6131 8.68946L17.9125 4.10045L16.9306 2.96651Z" fill="#344054"/>
</svg>
