<svg width="24" height="24" viewBox="0 0 24 24" fill="none" xmlns="http://www.w3.org/2000/svg">
<path d="M22.5303 16.5303C22.8232 16.2374 22.8232 15.7626 22.5303 15.4697C22.2374 15.1768 21.7626 15.1768 21.4697 15.4697L22.5303 16.5303ZM17.4697 19.4697C17.1768 19.7626 17.1768 20.2374 17.4697 20.5303C17.7626 20.8232 18.2375 20.8232 18.5304 20.5303L17.4697 19.4697ZM18.5303 15.4697C18.2374 15.1768 17.7626 15.1768 17.4697 15.4697C17.1768 15.7626 17.1768 16.2374 17.4697 16.5303L18.5303 15.4697ZM21.4696 20.5303C21.7625 20.8232 22.2374 20.8232 22.5303 20.5303C22.8232 20.2374 22.8232 19.7626 22.5303 19.4697L21.4696 20.5303ZM21.4697 15.4697L17.4697 19.4697L18.5304 20.5303L22.5303 16.5303L21.4697 15.4697ZM17.4697 16.5303L21.4696 20.5303L22.5303 19.4697L18.5303 15.4697L17.4697 16.5303Z" fill="#344054"/>
<path d="M14.8557 20.7499C15.2699 20.7499 15.6057 20.4141 15.6057 19.9999C15.6057 19.5857 15.2699 19.2499 14.8557 19.2499V20.7499ZM19.2496 12.9371C19.2496 13.3514 19.5854 13.6871 19.9996 13.6871C20.4138 13.6871 20.7496 13.3514 20.7496 12.9371H19.2496ZM4.14782 20.7499H14.8557V19.2499H4.14782V20.7499ZM20.7496 12.9371V6.06672H19.2496V12.9371H20.7496ZM15.9306 3.96651L2.22269 15.8369L3.20462 16.9709L16.9125 5.10045L15.9306 3.96651ZM20.7496 6.06672C20.7496 3.58154 17.7526 2.38875 15.9306 3.96651L16.9125 5.10045C17.8498 4.28883 19.2496 4.98014 19.2496 6.06672H20.7496ZM4.14782 19.2499C2.81233 19.2499 2.31795 17.7387 3.20462 16.9709L2.22269 15.8369C0.188488 17.5985 1.55369 20.7499 4.14782 20.7499V19.2499Z" fill="#344054"/>
</svg>
