<svg width="24" height="24" viewBox="0 0 24 24" fill="none" xmlns="http://www.w3.org/2000/svg">
<path d="M2.84998 13.241L4.84998 16.7051L6.14901 15.9551L4.14901 12.491L2.84998 13.241ZM19.8215 9.49018L20.5535 6.75813L19.1047 6.3699L18.3726 9.10195L19.8215 9.49018ZM19.3161 4.61483L16.5841 3.88278L16.1958 5.33167L18.9279 6.06372L19.3161 4.61483ZM20.5535 6.75813C20.8037 5.82457 20.2497 4.86498 19.3161 4.61483L18.9279 6.06372C19.0612 6.09945 19.1404 6.23654 19.1047 6.3699L20.5535 6.75813ZM4.84998 16.7051C5.33322 17.5422 6.40351 17.8289 7.24052 17.3457L6.49052 16.0466C6.37095 16.1157 6.21805 16.0747 6.14901 15.9551L4.84998 16.7051ZM3.49052 10.8505C2.65351 11.3337 2.36673 12.404 2.84998 13.241L4.14901 12.491C4.07998 12.3715 4.12095 12.2186 4.24052 12.1495L3.49052 10.8505ZM16.0061 5.35664C16.0635 5.32349 16.1318 5.3145 16.1958 5.33167L16.5841 3.88278C16.1357 3.76265 15.6581 3.82554 15.2561 4.0576L16.0061 5.35664ZM19.0061 10.5528C19.4081 10.3207 19.7014 9.9385 19.8215 9.49018L18.3726 9.10195C18.3554 9.166 18.3135 9.2206 18.2561 9.25376L19.0061 10.5528ZM11.4994 2.75H12.4994V1.25H11.4994V2.75ZM12.4994 21.25H11.4994V22.75H12.4994V21.25ZM11.4994 21.25C11.3613 21.25 11.2494 21.1381 11.2494 21H9.74945C9.74945 21.9665 10.5329 22.75 11.4994 22.75V21.25ZM12.7494 21C12.7494 21.1381 12.6375 21.25 12.4994 21.25V22.75C13.4659 22.75 14.2494 21.9665 14.2494 21H12.7494ZM12.4994 2.75C12.6375 2.75 12.7494 2.86193 12.7494 3H14.2494C14.2494 2.0335 13.4659 1.25 12.4994 1.25V2.75ZM11.4994 1.25C10.5329 1.25 9.74945 2.0335 9.74945 3H11.2494C11.2494 2.86193 11.3613 2.75 11.4994 2.75V1.25ZM12.7494 3V5.93786H14.2494V3H12.7494ZM15.2561 4.0576L13.1244 5.28834L13.8744 6.58738L16.0061 5.35664L15.2561 4.0576ZM13.1244 5.28834L10.1244 7.02039L10.8744 8.31943L13.8744 6.58738L13.1244 5.28834ZM10.1244 7.02039L3.49052 10.8505L4.24052 12.1495L10.8744 8.31943L10.1244 7.02039ZM11.2494 7.66991V3H9.74945V7.66991H11.2494ZM11.2494 21V14.5981H9.74945V21H11.2494ZM7.24052 17.3457L10.8744 15.2476L10.1244 13.9486L6.49052 16.0466L7.24052 17.3457ZM10.8744 15.2476L13.8744 13.5156L13.1244 12.2165L10.1244 13.9486L10.8744 15.2476ZM13.8744 13.5156L19.0061 10.5528L18.2561 9.25376L13.1244 12.2165L13.8744 13.5156ZM12.7494 12.8661V21H14.2494V12.8661H12.7494Z" fill="#344054"/>
</svg>
