<svg width="24" height="24" viewBox="0 0 24 24" fill="none" xmlns="http://www.w3.org/2000/svg">
<path d="M3.43945 5.87673C3.16426 6.18631 3.19215 6.66037 3.50174 6.93556C3.81132 7.21075 4.28538 7.18286 4.56057 6.87327L3.43945 5.87673ZM10.5606 18.1233C10.8357 17.8137 10.8079 17.3396 10.4983 17.0644C10.1887 16.7893 9.71464 16.8171 9.43945 17.1267L10.5606 18.1233ZM4.56057 17.1267C4.28538 16.8171 3.81132 16.7893 3.50174 17.0644C3.19215 17.3396 3.16426 17.8137 3.43945 18.1233L4.56057 17.1267ZM4.56057 6.87327L6.06575 5.17994L4.94463 4.1834L3.43945 5.87673L4.56057 6.87327ZM7.93427 5.17994L9.43945 6.87327L10.5606 5.87673L9.05539 4.1834L7.93427 5.17994ZM9.05539 19.8166L10.5606 18.1233L9.43945 17.1267L7.93427 18.8201L9.05539 19.8166ZM6.06575 18.8201L4.56057 17.1267L3.43945 18.1233L4.94463 19.8166L6.06575 18.8201ZM7.93427 18.8201C7.43703 19.3794 6.56299 19.3794 6.06575 18.8201L4.94463 19.8166C6.03856 21.0473 7.96146 21.0473 9.05539 19.8166L7.93427 18.8201ZM6.06575 5.17994C6.56299 4.62055 7.43703 4.62055 7.93427 5.17994L9.05539 4.1834C7.96146 2.95273 6.03856 2.95273 4.94463 4.1834L6.06575 5.17994ZM17 9.25C15.7574 9.25 14.75 8.24264 14.75 7H13.25C13.25 9.07107 14.9289 10.75 17 10.75V9.25ZM19.25 7C19.25 8.24264 18.2426 9.25 17 9.25V10.75C19.0711 10.75 20.75 9.07107 20.75 7H19.25ZM17 4.75C18.2426 4.75 19.25 5.75736 19.25 7H20.75C20.75 4.92893 19.0711 3.25 17 3.25V4.75ZM17 3.25C14.9289 3.25 13.25 4.92893 13.25 7H14.75C14.75 5.75736 15.7574 4.75 17 4.75V3.25ZM17 19.25C15.7574 19.25 14.75 18.2426 14.75 17H13.25C13.25 19.0711 14.9289 20.75 17 20.75V19.25ZM19.25 17C19.25 18.2426 18.2426 19.25 17 19.25V20.75C19.0711 20.75 20.75 19.0711 20.75 17H19.25ZM17 14.75C18.2426 14.75 19.25 15.7574 19.25 17H20.75C20.75 14.9289 19.0711 13.25 17 13.25V14.75ZM17 13.25C14.9289 13.25 13.25 14.9289 13.25 17H14.75C14.75 15.7574 15.7574 14.75 17 14.75V13.25ZM6.25001 4V20H7.75001V4H6.25001Z" fill="#344054"/>
</svg>
