<svg width="24" height="24" viewBox="0 0 24 24" fill="none" xmlns="http://www.w3.org/2000/svg">
<path d="M22 12.7503C22.4142 12.7503 22.75 12.4145 22.75 12.0003C22.75 11.5861 22.4142 11.2503 22 11.2503V12.7503ZM18 11.2503C17.5858 11.2503 17.25 11.5861 17.25 12.0003C17.25 12.4145 17.5858 12.7503 18 12.7503V11.2503ZM20.75 10.0003C20.75 9.58611 20.4142 9.25032 20 9.25032C19.5858 9.25032 19.25 9.58611 19.25 10.0003H20.75ZM19.25 14.0003C19.25 14.4145 19.5858 14.7503 20 14.7503C20.4142 14.7503 20.75 14.4145 20.75 14.0003H19.25ZM7.9831 8.20249L12.2499 5.00387L11.3501 3.80367L7.08336 7.0023L7.9831 8.20249ZM14.25 6.00304V17.9976H15.75V6.00304H14.25ZM12.2499 18.9968L7.9831 15.7981L7.08336 16.9983L11.3501 20.1969L12.2499 18.9968ZM14.25 17.9976C14.25 19.0263 13.0744 19.6149 12.2499 18.9968L11.3501 20.1969C13.1625 21.5556 15.75 20.2635 15.75 17.9976H14.25ZM12.2499 5.00387C13.0744 4.38574 14.25 4.97431 14.25 6.00304H15.75C15.75 3.73709 13.1625 2.44499 11.3501 3.80367L12.2499 5.00387ZM6.33358 7.25213H4V8.75213H6.33358V7.25213ZM1.25 10.0012V13.9994H2.75V10.0012H1.25ZM4 16.7485H6.33358V15.2485H4V16.7485ZM1.25 13.9994C1.25 15.518 2.48154 16.7485 4 16.7485V15.2485C3.30932 15.2485 2.75 14.6889 2.75 13.9994H1.25ZM4 7.25213C2.48154 7.25213 1.25 8.48262 1.25 10.0012H2.75C2.75 9.31169 3.30932 8.75213 4 8.75213V7.25213ZM7.9831 15.7981C7.50717 15.4413 6.92839 15.2485 6.33358 15.2485V16.7485C6.60395 16.7485 6.86703 16.8361 7.08336 16.9983L7.9831 15.7981ZM7.08336 7.0023C6.86703 7.16447 6.60395 7.25213 6.33358 7.25213V8.75213C6.92839 8.75213 7.50717 8.55928 7.9831 8.20249L7.08336 7.0023ZM22 11.2503H18V12.7503H22V11.2503ZM19.25 10.0003V14.0003H20.75V10.0003H19.25Z" fill="#344054"/>
</svg>
