<svg width="24" height="24" viewBox="0 0 24 24" fill="none" xmlns="http://www.w3.org/2000/svg">
<path d="M21.4697 14.5306C21.7626 14.8235 22.2374 14.8235 22.5303 14.5306C22.8232 14.2377 22.8232 13.7629 22.5303 13.47L21.4697 14.5306ZM18.5303 9.46999C18.2374 9.1771 17.7626 9.1771 17.4697 9.46999C17.1768 9.76288 17.1768 10.2377 17.4697 10.5306L18.5303 9.46999ZM22.5303 10.5306C22.8232 10.2377 22.8232 9.76288 22.5303 9.46999C22.2374 9.1771 21.7626 9.1771 21.4697 9.46999L22.5303 10.5306ZM17.4697 13.47C17.1768 13.7629 17.1768 14.2377 17.4697 14.5306C17.7626 14.8235 18.2374 14.8235 18.5303 14.5306L17.4697 13.47ZM7.9831 8.20249L12.2499 5.00387L11.3501 3.80367L7.08336 7.0023L7.9831 8.20249ZM14.25 6.00304V17.9976H15.75V6.00304H14.25ZM12.2499 18.9968L7.9831 15.7981L7.08336 16.9983L11.3501 20.1969L12.2499 18.9968ZM14.25 17.9976C14.25 19.0263 13.0744 19.6149 12.2499 18.9968L11.3501 20.1969C13.1625 21.5556 15.75 20.2635 15.75 17.9976H14.25ZM12.2499 5.00387C13.0744 4.38574 14.25 4.97431 14.25 6.00304H15.75C15.75 3.73709 13.1625 2.44499 11.3501 3.80367L12.2499 5.00387ZM6.33358 7.25213H4V8.75213H6.33358V7.25213ZM1.25 10.0012V13.9994H2.75V10.0012H1.25ZM4 16.7485H6.33358V15.2485H4V16.7485ZM1.25 13.9994C1.25 15.518 2.48154 16.7485 4 16.7485V15.2485C3.30932 15.2485 2.75 14.6889 2.75 13.9994H1.25ZM4 7.25213C2.48154 7.25213 1.25 8.48262 1.25 10.0012H2.75C2.75 9.31169 3.30932 8.75213 4 8.75213V7.25213ZM7.9831 15.7981C7.50717 15.4413 6.92839 15.2485 6.33358 15.2485V16.7485C6.60395 16.7485 6.86703 16.8361 7.08336 16.9983L7.9831 15.7981ZM7.08336 7.0023C6.86703 7.16447 6.60395 7.25213 6.33358 7.25213V8.75213C6.92839 8.75213 7.50717 8.55928 7.9831 8.20249L7.08336 7.0023ZM22.5303 13.47L20.5303 11.47L19.4697 12.5306L21.4697 14.5306L22.5303 13.47ZM20.5303 11.47L18.5303 9.46999L17.4697 10.5306L19.4697 12.5306L20.5303 11.47ZM20.5303 12.5306L22.5303 10.5306L21.4697 9.46999L19.4697 11.47L20.5303 12.5306ZM19.4697 11.47L17.4697 13.47L18.5303 14.5306L20.5303 12.5306L19.4697 11.47Z" fill="#344054"/>
</svg>
