<svg width="24" height="24" viewBox="0 0 24 24" fill="none" xmlns="http://www.w3.org/2000/svg">
<path d="M19.6297 14.8685C19.5571 15.2763 19.8288 15.6658 20.2366 15.7384C20.6444 15.811 21.0338 15.5393 21.1065 15.1315L19.6297 14.8685ZM13.0873 22.6867C13.4987 22.6385 13.7931 22.2659 13.7449 21.8545C13.6967 21.4431 13.3241 21.1487 12.9127 21.1969L13.0873 22.6867ZM12 21.25C7.71979 21.25 4.25 17.7802 4.25 13.5H2.75C2.75 18.6086 6.89137 22.75 12 22.75V21.25ZM4.25 13.5C4.25 9.21979 7.71979 5.75 12 5.75V4.25C6.89137 4.25 2.75 8.39137 2.75 13.5H4.25ZM12 5.75C16.2802 5.75 19.75 9.21979 19.75 13.5H21.25C21.25 8.39137 17.1086 4.25 12 4.25V5.75ZM19.75 13.5C19.75 13.9675 19.7087 14.4248 19.6297 14.8685L21.1065 15.1315C21.2008 14.6014 21.25 14.0561 21.25 13.5H19.75ZM12.9127 21.1969C12.6136 21.2319 12.3091 21.25 12 21.25V22.75C12.3675 22.75 12.7304 22.7285 13.0873 22.6867L12.9127 21.1969Z" fill="#344054"/>
<path d="M14.7961 3.13575C15.1947 3.24849 15.6092 3.01676 15.7219 2.61818C15.8346 2.21961 15.6029 1.80511 15.2043 1.69238L14.7961 3.13575ZM8.79607 1.69238C8.39749 1.80511 8.16577 2.21961 8.2785 2.61818C8.39123 3.01676 8.80573 3.24849 9.20431 3.13575L8.79607 1.69238ZM12.0002 2.75C12.9705 2.75 13.9082 2.88462 14.7961 3.13575L15.2043 1.69238C14.1849 1.40405 13.1099 1.25 12.0002 1.25V2.75ZM9.20431 3.13575C10.0922 2.88462 11.0299 2.75 12.0002 2.75V1.25C10.8905 1.25 9.8155 1.40405 8.79607 1.69238L9.20431 3.13575Z" fill="#344054"/>
<path d="M20.5308 18.2882C20.8237 17.9953 20.8237 17.5204 20.5308 17.2275C20.2379 16.9346 19.763 16.9346 19.4701 17.2275L20.5308 18.2882ZM15.2275 21.4701C14.9346 21.763 14.9346 22.2379 15.2275 22.5308C15.5204 22.8237 15.9953 22.8237 16.2882 22.5308L15.2275 21.4701ZM19.4701 22.5308C19.763 22.8237 20.2379 22.8237 20.5308 22.5308C20.8237 22.2379 20.8237 21.7631 20.5308 21.4702L19.4701 22.5308ZM16.2882 17.2275C15.9953 16.9346 15.5204 16.9346 15.2275 17.2275C14.9346 17.5204 14.9346 17.9953 15.2275 18.2882L16.2882 17.2275ZM19.4701 17.2275L15.2275 21.4701L16.2882 22.5308L20.5308 18.2882L19.4701 17.2275ZM20.5308 21.4702L16.2882 17.2275L15.2275 18.2882L19.4701 22.5308L20.5308 21.4702Z" fill="#344054"/>
<path d="M13.5 14C13.5 14.8284 12.8284 15.5 12 15.5C11.1716 15.5 10.5 14.8284 10.5 14C10.5 13.1716 11.1716 12.5 12 12.5C12.8284 12.5 13.5 13.1716 13.5 14Z" stroke="#344054" stroke-width="1.5"/>
<path d="M12 12V9" stroke="#344054" stroke-width="1.5" stroke-linecap="round" stroke-linejoin="round"/>
</svg>
