<svg width="24" height="24" viewBox="0 0 24 24" fill="none" xmlns="http://www.w3.org/2000/svg">
<path d="M19.25 12V18H20.75V12H19.25ZM16 21.25H8V22.75H16V21.25ZM4.75 18V12H3.25V18H4.75ZM8 21.25C6.20507 21.25 4.75 19.7949 4.75 18H3.25C3.25 20.6234 5.37665 22.75 8 22.75V21.25ZM19.25 18C19.25 19.7949 17.7949 21.25 16 21.25V22.75C18.6234 22.75 20.75 20.6234 20.75 18H19.25Z" fill="#344054"/>
<path d="M16.0834 8.25C16.0834 7.83579 15.7476 7.5 15.3334 7.5C14.9192 7.5 14.5834 7.83579 14.5834 8.25H16.0834ZM9.41681 8.25C9.41681 7.83579 9.08102 7.5 8.66681 7.5C8.25259 7.5 7.91681 7.83579 7.91681 8.25H9.41681ZM7.2314 2.75H16.7688V1.25H7.2314V2.75ZM20.1887 5.3943L20.9467 7.52613L22.3601 7.02362L21.6021 4.89179L20.1887 5.3943ZM3.05351 7.52613L3.8115 5.39431L2.39817 4.89179L1.64019 7.02362L3.05351 7.52613ZM16.7688 2.75C18.2255 2.75 19.6048 3.75205 20.1887 5.3943L21.6021 4.89179C20.8361 2.73746 18.9469 1.25 16.7688 1.25V2.75ZM7.2314 1.25C5.05338 1.25 3.16416 2.73746 2.39817 4.89179L3.8115 5.39431C4.39541 3.75206 5.77471 2.75 7.2314 2.75V1.25ZM18.6668 11.25C17.3206 11.25 16.0834 9.99234 16.0834 8.25H14.5834C14.5834 10.6498 16.331 12.75 18.6668 12.75V11.25ZM21.1468 9.09161C20.8185 10.3947 19.7869 11.25 18.6668 11.25V12.75C20.5968 12.75 22.137 11.3008 22.6014 9.45814L21.1468 9.09161ZM12.0001 11.25C10.654 11.25 9.41681 9.99234 9.41681 8.25H7.91681C7.91681 10.6498 9.66437 12.75 12.0001 12.75V11.25ZM14.5834 8.25C14.5834 9.99234 13.3462 11.25 12.0001 11.25V12.75C14.3359 12.75 16.0834 10.6498 16.0834 8.25H14.5834ZM5.33347 11.25C4.21332 11.25 3.18178 10.3947 2.85342 9.09162L1.39889 9.45814C1.86322 11.3008 3.40344 12.75 5.33347 12.75V11.25ZM7.91681 8.25C7.91681 9.99234 6.6796 11.25 5.33347 11.25V12.75C7.66924 12.75 9.41681 10.6498 9.41681 8.25H7.91681ZM1.64019 7.02362C1.39845 7.70352 1.17532 8.57089 1.39889 9.45814L2.85342 9.09162C2.74229 8.65059 2.83636 8.13687 3.05351 7.52613L1.64019 7.02362ZM20.9467 7.52613C21.1639 8.13687 21.258 8.65059 21.1468 9.09161L22.6014 9.45814C22.825 8.57089 22.6018 7.70352 22.3601 7.02362L20.9467 7.52613Z" fill="#344054"/>
<path d="M9.37098 16.3482C9.01095 16.1434 8.55305 16.2692 8.34823 16.6293C8.14342 16.9893 8.26925 17.4472 8.62928 17.652L9.37098 16.3482ZM15.3684 17.6534C15.7293 17.45 15.8568 16.9926 15.6534 16.6318C15.45 16.2709 14.9926 16.1434 14.6318 16.3468L15.3684 17.6534ZM8.62928 17.652C9.84923 18.346 10.8979 18.7522 12.0029 18.7501C13.1066 18.748 14.1533 18.3385 15.3684 17.6534L14.6318 16.3468C13.4945 16.988 12.7192 17.2487 12 17.2501C11.2822 17.2515 10.5071 16.9946 9.37098 16.3482L8.62928 17.652Z" fill="#344054"/>
</svg>
