<svg width="24" height="24" viewBox="0 0 24 24" fill="none" xmlns="http://www.w3.org/2000/svg">
<path d="M15.7123 7.04453C16.0052 7.33743 16.4801 7.33743 16.773 7.04453C17.0659 6.75164 17.0659 6.27677 16.773 5.98387L15.7123 7.04453ZM9.34835 8.10519C9.05546 8.39809 9.05546 8.87296 9.34835 9.16585C9.64124 9.45875 10.1161 9.45875 10.409 9.16585L9.34835 8.10519ZM7.22703 5.98387C6.93414 6.27677 6.93414 6.75164 7.22703 7.04453C7.51992 7.33743 7.9948 7.33743 8.28769 7.04453L7.22703 5.98387ZM13.591 9.16585C13.8839 9.45875 14.3588 9.45875 14.6516 9.16585C14.9445 8.87296 14.9445 8.39809 14.6516 8.10519L13.591 9.16585ZM12 5.50684C13.45 5.50684 14.7614 6.09365 15.7123 7.04453L16.773 5.98387C15.5523 4.76318 13.8638 4.00684 12 4.00684V5.50684ZM10.409 9.16585C10.817 8.75786 11.3785 8.50684 12 8.50684V7.00684C10.9647 7.00684 10.0261 7.4274 9.34835 8.10519L10.409 9.16585ZM8.28769 7.04453C9.23857 6.09365 10.55 5.50684 12 5.50684V4.00684C10.1362 4.00684 8.44772 4.76318 7.22703 5.98387L8.28769 7.04453ZM12 8.50684C12.6215 8.50684 13.183 8.75786 13.591 9.16585L14.6516 8.10519C13.9739 7.4274 13.0353 7.00684 12 7.00684V8.50684ZM18.25 13.9995V15.9995H19.75V13.9995H18.25ZM17 17.2495H7V18.7495H17V17.2495ZM5.75 15.9995V13.9995H4.25V15.9995H5.75ZM7 12.7495H17V11.2495H7V12.7495ZM5.75 13.9995C5.75 13.3091 6.30964 12.7495 7 12.7495V11.2495C5.48122 11.2495 4.25 12.4807 4.25 13.9995H5.75ZM7 17.2495C6.30964 17.2495 5.75 16.6898 5.75 15.9995H4.25C4.25 17.5182 5.48122 18.7495 7 18.7495V17.2495ZM18.25 15.9995C18.25 16.6898 17.6904 17.2495 17 17.2495V18.7495C18.5188 18.7495 19.75 17.5182 19.75 15.9995H18.25ZM19.75 13.9995C19.75 12.4807 18.5188 11.2495 17 11.2495V12.7495C17.6904 12.7495 18.25 13.3091 18.25 13.9995H19.75ZM17 17.2495H14V18.7495H17V17.2495ZM12.75 15.9995V13.9995H11.25V15.9995H12.75ZM14 12.7495H17V11.2495H14V12.7495ZM12.75 13.9995C12.75 13.3091 13.3096 12.7495 14 12.7495V11.2495C12.4812 11.2495 11.25 12.4807 11.25 13.9995H12.75ZM14 17.2495C13.3096 17.2495 12.75 16.6898 12.75 15.9995H11.25C11.25 17.5182 12.4812 18.7495 14 18.7495V17.2495Z" fill="#344054"/>
</svg>
