<svg width="24" height="24" viewBox="0 0 24 24" fill="none" xmlns="http://www.w3.org/2000/svg">
<path d="M12 12.25C11.5858 12.25 11.25 12.5858 11.25 13C11.25 13.4142 11.5858 13.75 12 13.75V12.25ZM18 13.75C18.4142 13.75 18.75 13.4142 18.75 13C18.75 12.5858 18.4142 12.25 18 12.25V13.75ZM12 13.75H18V12.25H12V13.75Z" fill="#344054"/>
<path d="M4 18L6 20M6 20L8 18M6 20V4" stroke="#344054" stroke-width="1.5" stroke-linecap="round" stroke-linejoin="round"/>
<path d="M15.0002 5L15.6925 4.71154C15.5761 4.43205 15.303 4.25 15.0002 4.25C14.6974 4.25 14.4243 4.43205 14.3079 4.71154L15.0002 5ZM9.30789 16.7115C9.14858 17.0939 9.32939 17.533 9.71174 17.6923C10.0941 17.8516 10.5332 17.6708 10.6925 17.2885L9.30789 16.7115ZM19.3079 17.2885C19.4672 17.6708 19.9063 17.8516 20.2887 17.6923C20.671 17.533 20.8518 17.0939 20.6925 16.7115L19.3079 17.2885ZM14.3079 4.71154L9.30789 16.7115L10.6925 17.2885L15.6925 5.28846L14.3079 4.71154ZM20.6925 16.7115L15.6925 4.71154L14.3079 5.28846L19.3079 17.2885L20.6925 16.7115Z" fill="#344054"/>
</svg>
