<svg width="24" height="24" viewBox="0 0 24 24" fill="none" xmlns="http://www.w3.org/2000/svg">
<path d="M12 20C12.5523 20 13 19.5523 13 19C13 18.4477 12.5523 18 12 18C11.4477 18 11 18.4477 11 19C11 19.5523 11.4477 20 12 20Z" fill="#344054"/>
<path d="M15.7118 4.28769C16.0047 4.58058 16.4795 4.58058 16.7724 4.28769C17.0653 3.9948 17.0653 3.51992 16.7724 3.22703L15.7118 4.28769ZM9.34782 5.34835C9.05493 5.64124 9.05493 6.11612 9.34782 6.40901C9.64072 6.7019 10.1156 6.7019 10.4085 6.40901L9.34782 5.34835ZM7.2265 3.22703C6.93361 3.51992 6.93361 3.9948 7.2265 4.28769C7.5194 4.58058 7.99427 4.58058 8.28716 4.28769L7.2265 3.22703ZM13.5905 6.40901C13.8833 6.7019 14.3582 6.7019 14.6511 6.40901C14.944 6.11612 14.944 5.64124 14.6511 5.34835L13.5905 6.40901ZM13.9995 16.7639H13.2495C13.2495 16.9772 13.3403 17.1805 13.4993 17.3227L13.9995 16.7639ZM9.99947 16.7639L10.4996 17.3227C10.6586 17.1805 10.7495 16.9772 10.7495 16.7639H9.99947ZM16.9995 8.25C16.5853 8.25 16.2495 8.58579 16.2495 9C16.2495 9.41421 16.5853 9.75 16.9995 9.75V8.25ZM17.9995 9.75C18.4137 9.75 18.7495 9.41421 18.7495 9C18.7495 8.58579 18.4137 8.25 17.9995 8.25V9.75ZM16.9995 11.25C16.5853 11.25 16.2495 11.5858 16.2495 12C16.2495 12.4142 16.5853 12.75 16.9995 12.75V11.25ZM19.9995 12.75C20.4137 12.75 20.7495 12.4142 20.7495 12C20.7495 11.5858 20.4137 11.25 19.9995 11.25V12.75ZM16.9995 14.25C16.5853 14.25 16.2495 14.5858 16.2495 15C16.2495 15.4142 16.5853 15.75 16.9995 15.75V14.25ZM17.9995 15.75C18.4137 15.75 18.7495 15.4142 18.7495 15C18.7495 14.5858 18.4137 14.25 17.9995 14.25V15.75ZM11.9995 2.75C13.4494 2.75 14.7609 3.3368 15.7118 4.28769L16.7724 3.22703C15.5517 2.00634 13.8632 1.25 11.9995 1.25V2.75ZM10.4085 6.40901C10.8165 6.00102 11.3779 5.75 11.9995 5.75V4.25C10.9641 4.25 10.0256 4.67055 9.34782 5.34835L10.4085 6.40901ZM8.28716 4.28769C9.23805 3.3368 10.5495 2.75 11.9995 2.75V1.25C10.1357 1.25 8.44719 2.00634 7.2265 3.22703L8.28716 4.28769ZM11.9995 5.75C12.621 5.75 13.1825 6.00102 13.5905 6.40901L14.6511 5.34835C13.9733 4.67055 13.0348 4.25 11.9995 4.25V5.75ZM10.7495 10C10.7495 9.30964 11.3091 8.75 11.9995 8.75V7.25C10.4807 7.25 9.24948 8.48122 9.24948 10H10.7495ZM14.7495 10C14.7495 8.48122 13.5182 7.25 11.9995 7.25V8.75C12.6898 8.75 13.2495 9.30964 13.2495 10H14.7495ZM14.2495 19C14.2495 20.2426 13.2421 21.25 11.9995 21.25V22.75C14.0705 22.75 15.7495 21.0711 15.7495 19H14.2495ZM11.9995 21.25C10.7568 21.25 9.74947 20.2426 9.74947 19H8.24947C8.24947 21.0711 9.92841 22.75 11.9995 22.75V21.25ZM13.4993 17.3227C13.9608 17.7358 14.2495 18.3337 14.2495 19H15.7495C15.7495 17.8893 15.2656 16.8906 14.4996 16.205L13.4993 17.3227ZM13.2495 10V16.7639H14.7495V10H13.2495ZM9.74947 19C9.74947 18.3337 10.0381 17.7358 10.4996 17.3227L9.49929 16.205C8.7333 16.8906 8.24947 17.8893 8.24947 19H9.74947ZM10.7495 16.7639V10H9.24948L9.24947 16.7639H10.7495ZM16.9995 9.75H17.9995V8.25H16.9995V9.75ZM16.9995 12.75H19.9995V11.25H16.9995V12.75ZM16.9995 15.75H17.9995V14.25H16.9995V15.75Z" fill="#344054"/>
</svg>
