<svg width="24" height="24" viewBox="0 0 24 24" fill="none" xmlns="http://www.w3.org/2000/svg">
<path d="M10 2H4C2.89543 2 2 2.89543 2 4V8C2 9.10457 2.89543 10 4 10H10C11.1046 10 12 9.10457 12 8V4C12 2.89543 11.1046 2 10 2Z" stroke="#344054" stroke-width="1.5"/>
<path d="M20 14H14C12.8954 14 12 14.8954 12 16V20C12 21.1046 12.8954 22 14 22H20C21.1046 22 22 21.1046 22 20V16C22 14.8954 21.1046 14 20 14Z" stroke="#344054" stroke-width="1.5"/>
<path d="M20.9445 3.46967C20.6517 3.17678 20.1768 3.17678 19.8839 3.46967C19.591 3.76256 19.591 4.23744 19.8839 4.53033L20.9445 3.46967ZM19.8839 7.46967C19.591 7.76256 19.591 8.23744 19.8839 8.53033C20.1768 8.82322 20.6517 8.82322 20.9445 8.53033L19.8839 7.46967ZM16 5.25C15.5858 5.25 15.25 5.58579 15.25 6C15.25 6.41421 15.5858 6.75 16 6.75V5.25ZM21.4142 6.75C21.8284 6.75 22.1642 6.41421 22.1642 6C22.1642 5.58579 21.8284 5.25 21.4142 5.25V6.75ZM19.8839 4.53033L21.1768 5.82322L22.2374 4.76256L20.9445 3.46967L19.8839 4.53033ZM21.1768 6.17678L19.8839 7.46967L20.9445 8.53033L22.2374 7.23744L21.1768 6.17678ZM21.1768 5.82322C21.2744 5.92085 21.2744 6.07915 21.1768 6.17678L22.2374 7.23744C22.9209 6.55402 22.9209 5.44598 22.2374 4.76256L21.1768 5.82322ZM16 6.75H21.4142V5.25H16V6.75Z" fill="#344054"/>
<path d="M3.05546 15.4697C3.34835 15.1768 3.82322 15.1768 4.11612 15.4697C4.40901 15.7626 4.40901 16.2374 4.11612 16.5303L3.05546 15.4697ZM4.11612 19.4697C4.40901 19.7626 4.40901 20.2374 4.11612 20.5303C3.82322 20.8232 3.34835 20.8232 3.05546 20.5303L4.11612 19.4697ZM8 17.25C8.41421 17.25 8.75 17.5858 8.75 18C8.75 18.4142 8.41421 18.75 8 18.75V17.25ZM2.58579 18.75C2.17157 18.75 1.83579 18.4142 1.83579 18C1.83579 17.5858 2.17157 17.25 2.58579 17.25V18.75ZM4.11612 16.5303L2.82322 17.8232L1.76256 16.7626L3.05546 15.4697L4.11612 16.5303ZM2.82322 18.1768L4.11612 19.4697L3.05546 20.5303L1.76256 19.2374L2.82322 18.1768ZM2.82322 17.8232C2.72559 17.9209 2.72559 18.0791 2.82322 18.1768L1.76256 19.2374C1.07915 18.554 1.07914 17.446 1.76256 16.7626L2.82322 17.8232ZM8 18.75H2.58579V17.25H8V18.75Z" fill="#344054"/>
</svg>
