<svg width="24" height="24" viewBox="0 0 24 24" fill="none" xmlns="http://www.w3.org/2000/svg">
<path d="M19.748 9.05752C19.7798 8.64453 19.4707 8.28398 19.0577 8.25221C18.6447 8.22044 18.2842 8.52948 18.2524 8.94248L19.748 9.05752ZM5.74796 8.94248C5.71619 8.52948 5.35564 8.22044 4.94265 8.25221C4.52965 8.28398 4.22061 8.64453 4.25238 9.05752L5.74796 8.94248ZM20.6716 7.6742C21.044 7.85566 21.4929 7.70091 21.6744 7.32855C21.8559 6.9562 21.7011 6.50725 21.3288 6.3258L20.6716 7.6742ZM2.67162 6.3258C2.29926 6.50725 2.14451 6.9562 2.32597 7.32855C2.50742 7.70091 2.95637 7.85566 3.32872 7.6742L2.67162 6.3258ZM9.25017 5C9.25017 5.41421 9.58596 5.75 10.0002 5.75C10.4144 5.75 10.7502 5.41421 10.7502 5H9.25017ZM13.2502 5C13.2502 5.41421 13.586 5.75 14.0002 5.75C14.4144 5.75 14.7502 5.41421 14.7502 5H13.2502ZM10.7502 11C10.7502 10.5858 10.4144 10.25 10.0002 10.25C9.58596 10.25 9.25017 10.5858 9.25017 11H10.7502ZM9.25017 17C9.25017 17.4142 9.58596 17.75 10.0002 17.75C10.4144 17.75 10.7502 17.4142 10.7502 17H9.25017ZM14.7502 11C14.7502 10.5858 14.4144 10.25 14.0002 10.25C13.586 10.25 13.2502 10.5858 13.2502 11H14.7502ZM13.2502 17C13.2502 17.4142 13.586 17.75 14.0002 17.75C14.4144 17.75 14.7502 17.4142 14.7502 17H13.2502ZM18.2524 8.94248L17.5365 18.2493L19.0321 18.3643L19.748 9.05752L18.2524 8.94248ZM14.2961 21.25H9.70429V22.75H14.2961V21.25ZM6.46387 18.2493L5.74796 8.94248L4.25238 9.05752L4.96829 18.3643L6.46387 18.2493ZM9.70429 21.25C8.00605 21.25 6.59412 19.9425 6.46387 18.2493L4.96829 18.3643C5.15865 20.839 7.22225 22.75 9.70429 22.75V21.25ZM17.5365 18.2493C17.4063 19.9425 15.9943 21.25 14.2961 21.25V22.75C16.7781 22.75 18.8417 20.839 19.0321 18.3643L17.5365 18.2493ZM12.0002 5.75C15.2045 5.75 18.18 6.45998 20.6716 7.6742L21.3288 6.3258C18.6246 5.00798 15.4232 4.25 12.0002 4.25V5.75ZM3.32872 7.6742C5.82036 6.45998 8.79591 5.75 12.0002 5.75V4.25C8.57712 4.25 5.37581 5.00798 2.67162 6.3258L3.32872 7.6742ZM10.7502 5V4H9.25017V5H10.7502ZM13.2502 4V5H14.7502V4H13.2502ZM12.0002 2.75C12.6906 2.75 13.2502 3.30964 13.2502 4H14.7502C14.7502 2.48122 13.519 1.25 12.0002 1.25V2.75ZM10.7502 4C10.7502 3.30964 11.3098 2.75 12.0002 2.75V1.25C10.4814 1.25 9.25017 2.48122 9.25017 4H10.7502ZM9.25017 11V17H10.7502V11H9.25017ZM13.2502 11V17H14.7502V11H13.2502Z" fill="#344054"/>
</svg>
