<svg width="24" height="24" viewBox="0 0 24 24" fill="none" xmlns="http://www.w3.org/2000/svg">
<path d="M8 7C8 5.89543 8.89543 5 10 5H18C19.1046 5 20 5.89543 20 7V15C20 16.1046 19.1046 17 18 17H10C8.89543 17 8 16.1046 8 15V7Z" stroke="#344054" stroke-width="1.5" stroke-linejoin="round"/>
<path d="M5 22C6.10457 22 7 21.1046 7 20C7 18.8954 6.10457 18 5 18C3.89543 18 3 18.8954 3 20C3 21.1046 3.89543 22 5 22Z" stroke="#344054" stroke-width="1.5"/>
<path d="M5 18V4C5 2.89543 4.10457 2 3 2H2" stroke="#344054" stroke-width="1.5" stroke-linecap="round" stroke-linejoin="round"/>
<path d="M7 20H22" stroke="#344054" stroke-width="1.5" stroke-linecap="round" stroke-linejoin="round"/>
<path d="M13 8H15" stroke="#344054" stroke-width="1.5" stroke-linecap="round" stroke-linejoin="round"/>
</svg>
