<svg width="24" height="24" viewBox="0 0 24 24" fill="none" xmlns="http://www.w3.org/2000/svg">
<path d="M8.99984 10.9999H9.74984C9.74984 10.5857 9.41405 10.2499 8.99984 10.2499V10.9999ZM14.9998 10.9999V10.2499C14.5856 10.2499 14.2498 10.5857 14.2498 10.9999H14.9998ZM8.24984 10.9999V18.9999H9.74984V10.9999H8.24984ZM10.9998 21.7499H12.9998V20.2499H10.9998V21.7499ZM15.7498 18.9999V10.9999H14.2498V18.9999H15.7498ZM14.9998 11.7499H16.796V10.2499H14.9998V11.7499ZM18.113 8.84755L14.0694 4.22623L12.9405 5.21398L16.9842 9.8353L18.113 8.84755ZM9.93025 4.22623L5.8866 8.84755L7.01546 9.83531L11.0591 5.21398L9.93025 4.22623ZM7.20361 11.7499H8.99984V10.2499H7.20361V11.7499ZM14.0694 4.22623C12.9738 2.97407 11.0258 2.97408 9.93025 4.22623L11.0591 5.21398C11.5571 4.64482 12.4425 4.64482 12.9405 5.21398L14.0694 4.22623ZM16.796 11.7499C18.2996 11.7499 19.1031 9.97907 18.113 8.84755L16.9842 9.8353C17.1256 9.99695 17.0108 10.2499 16.796 10.2499V11.7499ZM12.9998 21.7499C14.5186 21.7499 15.7498 20.5187 15.7498 18.9999H14.2498C14.2498 19.6903 13.6902 20.2499 12.9998 20.2499V21.7499ZM5.8866 8.84755C4.89651 9.97907 5.70008 11.7499 7.20361 11.7499V10.2499C6.98881 10.2499 6.87402 9.99695 7.01546 9.83531L5.8866 8.84755ZM8.24984 18.9999C8.24984 20.5187 9.48106 21.7499 10.9998 21.7499V20.2499C10.3094 20.2499 9.74984 19.6903 9.74984 18.9999H8.24984Z" fill="#344054"/>
</svg>
