<svg width="24" height="24" viewBox="0 0 24 24" fill="none" xmlns="http://www.w3.org/2000/svg">
<path d="M12 22C17.5228 22 22 17.5228 22 12C22 6.47715 17.5228 2 12 2C6.47715 2 2 6.47715 2 12C2 17.5228 6.47715 22 12 22Z" stroke="#344054" stroke-width="1.5" stroke-linejoin="round"/>
<path d="M16.5109 17.5686C16.8249 17.8387 17.2984 17.8031 17.5686 17.4891C17.8387 17.1751 17.8031 16.7016 17.4891 16.4314L16.5109 17.5686ZM6.5109 16.4314C6.19689 16.7016 6.16131 17.1751 6.43144 17.4891C6.70157 17.8031 7.17511 17.8387 7.48912 17.5686L6.5109 16.4314ZM12 15.75C13.6028 15.75 15.1395 16.3889 16.5109 17.5686L17.4891 16.4314C15.8977 15.0624 14.025 14.25 12 14.25V15.75ZM7.48912 17.5686C8.86047 16.3889 10.3972 15.75 12 15.75V14.25C9.97499 14.25 8.10233 15.0624 6.5109 16.4314L7.48912 17.5686Z" fill="#344054"/>
<path d="M12 6C13.6569 6 15 7.34315 15 9C15 10.6569 13.6569 12 12 12C10.3431 12 9 10.6569 9 9C9 7.34315 10.3431 6 12 6Z" stroke="#344054" stroke-width="1.5" stroke-linejoin="round"/>
</svg>
