<svg width="24" height="24" viewBox="0 0 24 24" fill="none" xmlns="http://www.w3.org/2000/svg">
<path d="M12 5H6C3.79086 5 2 6.79086 2 9V15C2 17.2091 3.79086 19 6 19H12C14.2091 19 16 17.2091 16 15V9C16 6.79086 14.2091 5 12 5Z" stroke="#344054" stroke-width="1.5"/>
<path d="M16 9.33326L15.5017 8.77271L15.25 8.99646V9.33326H16ZM16 14.6666H15.25V15.0034L15.5017 15.2271L16 14.6666ZM16.4983 9.89382L19.1695 7.51936L18.173 6.39824L15.5017 8.77271L16.4983 9.89382ZM21.25 8.45362V15.5462H22.75V8.45362H21.25ZM19.1695 16.4805L16.4983 14.106L15.5017 15.2271L18.173 17.6016L19.1695 16.4805ZM16.75 14.6666V9.33326H15.25V14.6666H16.75ZM21.25 15.5462C21.25 16.6248 19.9757 17.197 19.1695 16.4805L18.173 17.6016C19.9465 19.178 22.75 17.919 22.75 15.5462H21.25ZM19.1695 7.51936C19.9757 6.8028 21.25 7.37506 21.25 8.45362H22.75C22.75 6.08078 19.9465 4.82182 18.173 6.39824L19.1695 7.51936Z" fill="#344054"/>
<path d="M11 12C12.1046 12 13 11.1046 13 10C13 8.89543 12.1046 8 11 8C9.89543 8 9 8.89543 9 10C9 11.1046 9.89543 12 11 12Z" stroke="#344054" stroke-width="1.5"/>
</svg>
