<svg width="24" height="24" viewBox="0 0 24 24" fill="none" xmlns="http://www.w3.org/2000/svg">
<path d="M13.376 7.58405C13.1462 7.9287 13.2393 8.39435 13.584 8.62412C13.9286 8.85388 14.3943 8.76075 14.624 8.41611L13.376 7.58405ZM10.624 2.41611C10.8538 2.07146 10.7607 1.60581 10.416 1.37604C10.0714 1.14628 9.60573 1.23941 9.37596 1.58405L10.624 2.41611ZM5.37596 7.58405C5.1462 7.9287 5.23933 8.39435 5.58397 8.62412C5.92862 8.85388 6.39427 8.76075 6.62404 8.41611L5.37596 7.58405ZM12.75 12.0001C12.75 11.5859 12.4142 11.2501 12 11.2501C11.5858 11.2501 11.25 11.5859 11.25 12.0001H12.75ZM11.25 18.0001C11.25 18.4143 11.5858 18.7501 12 18.7501C12.4142 18.7501 12.75 18.4143 12.75 18.0001H11.25ZM15 15.7501C15.4142 15.7501 15.75 15.4143 15.75 15.0001C15.75 14.5859 15.4142 14.2501 15 14.2501V15.7501ZM9 14.2501C8.58579 14.2501 8.25 14.5859 8.25 15.0001C8.25 15.4143 8.58579 15.7501 9 15.7501V14.2501ZM6 2.75008H18V1.25008H6V2.75008ZM2.75 18.0001V6.00008H1.25V18.0001H2.75ZM21.25 6.00008V18.0001H22.75V6.00008H21.25ZM18 21.2501H6V22.7501H18V21.2501ZM21.25 18.0001C21.25 19.795 19.7949 21.2501 18 21.2501V22.7501C20.6234 22.7501 22.75 20.6235 22.75 18.0001H21.25ZM1.25 18.0001C1.25 20.6235 3.37665 22.7501 6 22.7501V21.2501C4.20507 21.2501 2.75 19.795 2.75 18.0001H1.25ZM18 2.75008C19.7949 2.75008 21.25 4.20515 21.25 6.00008H22.75C22.75 3.37673 20.6234 1.25008 18 1.25008V2.75008ZM6 1.25008C3.37665 1.25008 1.25 3.37673 1.25 6.00008H2.75C2.75 4.20515 4.20507 2.75008 6 2.75008V1.25008ZM2 8.75008H22V7.25008H2V8.75008ZM17.376 1.58405L13.376 7.58405L14.624 8.41611L18.624 2.41611L17.376 1.58405ZM9.37596 1.58405L5.37596 7.58405L6.62404 8.41611L10.624 2.41611L9.37596 1.58405ZM11.25 12.0001V18.0001H12.75V12.0001H11.25ZM15 14.2501H9V15.7501H15V14.2501Z" fill="#344054"/>
</svg>
