<svg width="24" height="24" viewBox="0 0 24 24" fill="none" xmlns="http://www.w3.org/2000/svg">
<path d="M12 12.8891L11.4494 13.3984C11.5914 13.5518 11.791 13.6391 12 13.6391C12.209 13.6391 12.4086 13.5518 12.5506 13.3984L12 12.8891ZM13.376 7.58405C13.1462 7.9287 13.2393 8.39435 13.584 8.62412C13.9286 8.85388 14.3943 8.76075 14.624 8.41611L13.376 7.58405ZM10.624 2.41611C10.8538 2.07146 10.7607 1.60581 10.416 1.37604C10.0714 1.14628 9.60573 1.23941 9.37596 1.58405L10.624 2.41611ZM5.37596 7.58405C5.1462 7.9287 5.23933 8.39435 5.58397 8.62412C5.92862 8.85388 6.39427 8.76075 6.62404 8.41611L5.37596 7.58405ZM6 2.75008H18V1.25008H6V2.75008ZM2.75 18.0001V6.00008H1.25V18.0001H2.75ZM21.25 6.00008V18.0001H22.75V6.00008H21.25ZM18 21.2501H6V22.7501H18V21.2501ZM21.25 18.0001C21.25 19.795 19.7949 21.2501 18 21.2501V22.7501C20.6234 22.7501 22.75 20.6235 22.75 18.0001H21.25ZM1.25 18.0001C1.25 20.6235 3.37665 22.7501 6 22.7501V21.2501C4.20507 21.2501 2.75 19.795 2.75 18.0001H1.25ZM18 2.75008C19.7949 2.75008 21.25 4.20515 21.25 6.00008H22.75C22.75 3.37673 20.6234 1.25008 18 1.25008V2.75008ZM6 1.25008C3.37665 1.25008 1.25 3.37673 1.25 6.00008H2.75C2.75 4.20515 4.20507 2.75008 6 2.75008V1.25008ZM12.5506 13.3984L12.8183 13.1089L11.7172 12.0903L11.4494 12.3798L12.5506 13.3984ZM11.1817 13.1089L11.4494 13.3984L12.5506 12.3798L12.2828 12.0903L11.1817 13.1089ZM8.504 16.0035L10.3784 18.0298L11.4795 17.0112L9.60513 14.985L8.504 16.0035ZM13.6216 18.0298L15.496 16.0035L14.3949 14.985L12.5205 17.0112L13.6216 18.0298ZM14.3949 13.1089C14.8684 13.6208 14.8684 14.4731 14.3949 14.985L15.496 16.0035C16.5013 14.9167 16.5013 13.1771 15.496 12.0903L14.3949 13.1089ZM15.496 12.0903C14.4597 10.97 12.7535 10.97 11.7172 12.0903L12.8183 13.1089C13.2609 12.6305 13.9523 12.6305 14.3949 13.1089L15.496 12.0903ZM9.60513 13.1089C10.0477 12.6305 10.7391 12.6305 11.1817 13.1089L12.2828 12.0903C11.2465 10.97 9.5403 10.97 8.504 12.0903L9.60513 13.1089ZM10.3784 18.0298C11.2668 18.9902 12.7332 18.9902 13.6216 18.0298L12.5205 17.0112C12.2259 17.3297 11.7741 17.3297 11.4795 17.0112L10.3784 18.0298ZM8.504 12.0903C7.49867 13.1771 7.49867 14.9167 8.504 16.0035L9.60513 14.985C9.13162 14.4731 9.13162 13.6208 9.60513 13.1089L8.504 12.0903ZM2 8.75008H22V7.25008H2V8.75008ZM17.376 1.58405L13.376 7.58405L14.624 8.41611L18.624 2.41611L17.376 1.58405ZM9.37596 1.58405L5.37596 7.58405L6.62404 8.41611L10.624 2.41611L9.37596 1.58405Z" fill="#344054"/>
</svg>
