<svg width="24" height="24" viewBox="0 0 24 24" fill="none" xmlns="http://www.w3.org/2000/svg">
<path d="M21.25 10.0828V20.0002H22.75V10.0828H21.25ZM20 21.2502H4V22.7502H20V21.2502ZM2.75 20.0002V10.0828H1.25V20.0002H2.75ZM4.13625 7.42031L10.1362 3.22031L9.27605 1.99146L3.27605 6.19146L4.13625 7.42031ZM13.8638 3.22031L19.8638 7.42031L20.7239 6.19146L14.7239 1.99146L13.8638 3.22031ZM10.1362 3.22031C11.2553 2.43698 12.7447 2.43698 13.8638 3.22031L14.7239 1.99146C13.0884 0.846596 10.9116 0.846598 9.27605 1.99146L10.1362 3.22031ZM4 21.2502C3.30964 21.2502 2.75 20.6906 2.75 20.0002H1.25C1.25 21.519 2.48122 22.7502 4 22.7502V21.2502ZM21.25 20.0002C21.25 20.6906 20.6904 21.2502 20 21.2502V22.7502C21.5188 22.7502 22.75 21.519 22.75 20.0002H21.25ZM22.75 10.0828C22.75 8.53282 21.9937 7.08032 20.7239 6.19146L19.8638 7.42031C20.7326 8.02848 21.25 9.02229 21.25 10.0828H22.75ZM2.75 10.0828C2.75 9.02229 3.26744 8.02848 4.13625 7.42031L3.27605 6.19146C2.00625 7.08032 1.25 8.53282 1.25 10.0828H2.75Z" fill="#344054"/>
<path d="M18 22V12C18 10.8954 17.1046 10 16 10H8C6.89543 10 6 10.8954 6 12V22" stroke="#344054" stroke-width="1.5"/>
<path d="M18 14H6" stroke="#344054" stroke-width="1.5" stroke-linecap="round" stroke-linejoin="round"/>
<path d="M18 18H6" stroke="#344054" stroke-width="1.5" stroke-linecap="round" stroke-linejoin="round"/>
</svg>
