<svg width="24" height="24" viewBox="0 0 24 24" fill="none" xmlns="http://www.w3.org/2000/svg">
<path d="M12 18C12.5523 18 13 17.5523 13 17C13 16.4477 12.5523 16 12 16C11.4477 16 11 16.4477 11 17C11 17.5523 11.4477 18 12 18Z" fill="#344054"/>
<path d="M12.7495 8.99997C12.7495 8.58576 12.4138 8.24997 11.9995 8.24997C11.5853 8.24997 11.2495 8.58576 11.2495 8.99997H12.7495ZM11.2495 14C11.2495 14.4142 11.5853 14.75 11.9995 14.75C12.4138 14.75 12.7495 14.4142 12.7495 14H11.2495ZM13.38 4.53718L21.0521 18.0037L22.3554 17.2611L14.6833 3.79466L13.38 4.53718ZM19.6717 20.25H4.32753V21.75H19.6717V20.25ZM2.94717 18.0037L10.6192 4.53719L9.31596 3.79466L1.64385 17.2612L2.94717 18.0037ZM4.32753 20.25C3.09765 20.25 2.38738 18.9862 2.94717 18.0037L1.64385 17.2612C0.482108 19.3003 2.01255 21.75 4.32753 21.75V20.25ZM21.0521 18.0037C21.6119 18.9862 20.9016 20.25 19.6717 20.25V21.75C21.9867 21.75 23.5171 19.3003 22.3554 17.2611L21.0521 18.0037ZM14.6833 3.79466C13.5099 1.73511 10.4893 1.73512 9.31596 3.79466L10.6192 4.53719C11.2172 3.4876 12.782 3.48761 13.38 4.53718L14.6833 3.79466ZM11.2495 8.99997V14H12.7495V8.99997H11.2495Z" fill="#344054"/>
</svg>
