<svg width="24" height="24" viewBox="0 0 24 24" fill="none" xmlns="http://www.w3.org/2000/svg">
<path d="M21.6142 19.6425C21.9694 19.8557 22.4301 19.7405 22.6432 19.3853C22.8563 19.0301 22.7412 18.5694 22.386 18.3563L21.6142 19.6425ZM1.61424 18.3563C1.25905 18.5694 1.14388 19.0301 1.35699 19.3853C1.5701 19.7405 2.0308 19.8557 2.38598 19.6425L1.61424 18.3563ZM21.6142 13.6425C21.9694 13.8557 22.4301 13.7405 22.6432 13.3853C22.8563 13.0301 22.7412 12.5694 22.386 12.3563L21.6142 13.6425ZM1.61424 12.3563C1.25905 12.5694 1.14388 13.0301 1.35699 13.3853C1.5701 13.7405 2.0308 13.8557 2.38598 13.6425L1.61424 12.3563ZM21.6142 7.64256C21.9694 7.85567 22.4301 7.74049 22.6432 7.38531C22.8563 7.03012 22.7412 6.56944 22.386 6.35632L21.6142 7.64256ZM1.61424 6.35632C1.25905 6.56944 1.14388 7.03012 1.35699 7.38531C1.5701 7.74049 2.0308 7.85567 2.38598 7.64256L1.61424 6.35632ZM22.386 18.3563L19.7709 16.7873L18.9992 18.0735L21.6142 19.6425L22.386 18.3563ZM14.3598 17.1512L14.0304 17.4147L14.9674 18.5861L15.2968 18.3225L14.3598 17.1512ZM9.96985 17.4147L9.64046 17.1512L8.70341 18.3225L9.03281 18.5861L9.96985 17.4147ZM4.2293 16.7873L1.61424 18.3563L2.38598 19.6425L5.00104 18.0735L4.2293 16.7873ZM9.64046 17.1512C8.09007 15.9109 5.93182 15.7658 4.2293 16.7873L5.00104 18.0735C6.16592 17.3746 7.64262 17.4739 8.70341 18.3225L9.64046 17.1512ZM14.0304 17.4147C12.8434 18.3643 11.1568 18.3643 9.96985 17.4147L9.03281 18.5861C10.7676 19.9739 13.2326 19.9739 14.9674 18.5861L14.0304 17.4147ZM19.7709 16.7873C18.0684 15.7658 15.9101 15.9109 14.3598 17.1512L15.2968 18.3225C16.3576 17.4739 17.8343 17.3746 18.9992 18.0735L19.7709 16.7873ZM22.386 12.3563L19.7709 10.7873L18.9992 12.0735L21.6142 13.6425L22.386 12.3563ZM14.3598 11.1512L14.0304 11.4147L14.9674 12.5861L15.2968 12.3225L14.3598 11.1512ZM9.96985 11.4147L9.64046 11.1512L8.70341 12.3225L9.03281 12.5861L9.96985 11.4147ZM4.2293 10.7873L1.61424 12.3563L2.38598 13.6425L5.00104 12.0735L4.2293 10.7873ZM9.64046 11.1512C8.09007 9.91094 5.93182 9.76577 4.2293 10.7873L5.00104 12.0735C6.16592 11.3746 7.64262 11.4739 8.70341 12.3225L9.64046 11.1512ZM14.0304 11.4147C12.8434 12.3643 11.1568 12.3643 9.96985 11.4147L9.03281 12.5861C10.7676 13.9739 13.2326 13.9739 14.9674 12.5861L14.0304 11.4147ZM19.7709 10.7873C18.0684 9.76577 15.9101 9.91093 14.3598 11.1512L15.2968 12.3225C16.3576 11.4739 17.8343 11.3746 18.9992 12.0735L19.7709 10.7873ZM22.386 6.35632L19.7709 4.78728L18.9992 6.07353L21.6142 7.64256L22.386 6.35632ZM14.3598 5.15125L14.0304 5.41477L14.9674 6.58607L15.2968 6.32256L14.3598 5.15125ZM9.96985 5.41477L9.64046 5.15125L8.70341 6.32256L9.03281 6.58607L9.96985 5.41477ZM4.2293 4.78728L1.61424 6.35632L2.38598 7.64256L5.00104 6.07353L4.2293 4.78728ZM9.64046 5.15125C8.09007 3.91095 5.93182 3.76577 4.2293 4.78728L5.00104 6.07353C6.16592 5.3746 7.64262 5.47392 8.70341 6.32256L9.64046 5.15125ZM14.0304 5.41477C12.8434 6.36434 11.1568 6.36434 9.96985 5.41477L9.03281 6.58607C10.7676 7.9739 13.2326 7.9739 14.9674 6.58607L14.0304 5.41477ZM19.7709 4.78728C18.0684 3.76577 15.9101 3.91094 14.3598 5.15125L15.2968 6.32256C16.3576 5.47392 17.8343 5.3746 18.9992 6.07353L19.7709 4.78728Z" fill="#344054"/>
</svg>
