<svg width="24" height="24" viewBox="0 0 24 24" fill="none" xmlns="http://www.w3.org/2000/svg">
<path d="M3 3L21 21" stroke="#344054" stroke-width="1.5" stroke-linecap="round"/>
<path d="M9.1384 4.5719C8.73438 4.66325 8.48092 5.06482 8.57228 5.46884C8.66363 5.87285 9.0652 6.12631 9.46922 6.03496L9.1384 4.5719ZM17.7809 13.9368C17.5343 14.2696 17.6043 14.7393 17.9371 14.9859C18.27 15.2324 18.7397 15.1624 18.9862 14.8296L17.7809 13.9368ZM6.68582 7.02751C7.05752 6.84473 7.21067 6.39523 7.02789 6.02352C6.84511 5.65182 6.39561 5.49867 6.0239 5.68145L6.68582 7.02751ZM17.2841 17.1275C17.5306 16.7946 17.4607 16.3249 17.1278 16.0784C16.795 15.8318 16.3253 15.9018 16.0788 16.2346L17.2841 17.1275ZM2.43374 11.345L9.79079 21.277L10.9961 20.3842L3.63908 10.4522L2.43374 11.345ZM21.5674 11.345C22.3728 10.2577 22.2958 8.66835 21.1792 7.7564L20.2304 8.91817C20.6593 9.26848 20.7444 9.93601 20.3621 10.4522L21.5674 11.345ZM9.79079 21.277C10.8902 22.7612 13.111 22.7612 14.2104 21.277L13.005 20.3842C12.5053 21.0588 11.4958 21.0588 10.9961 20.3842L9.79079 21.277ZM3.63908 10.4522C3.25675 9.93601 3.34185 9.26848 3.77078 8.91817L2.82195 7.7564C1.70533 8.66835 1.6283 10.2577 2.43374 11.345L3.63908 10.4522ZM9.46922 6.03496C13.077 5.2192 16.8412 6.15024 20.2304 8.91817L21.1792 7.7564C17.478 4.7336 13.2506 3.64207 9.1384 4.5719L9.46922 6.03496ZM18.9862 14.8296L21.5674 11.345L20.3621 10.4522L17.7809 13.9368L18.9862 14.8296ZM3.77078 8.91817C4.71829 8.14433 5.69426 7.5151 6.68582 7.02751L6.0239 5.68145C4.92332 6.22266 3.85181 6.9153 2.82195 7.7564L3.77078 8.91817ZM14.2104 21.277L17.2841 17.1275L16.0788 16.2346L13.005 20.3842L14.2104 21.277Z" fill="#344054"/>
</svg>
