<svg width="24" height="24" viewBox="0 0 24 24" fill="none" xmlns="http://www.w3.org/2000/svg">
<path d="M12 20C12.5523 20 13 19.5523 13 19C13 18.4477 12.5523 18 12 18C11.4477 18 11 18.4477 11 19C11 19.5523 11.4477 20 12 20Z" fill="#344054"/>
<path d="M20.9387 8.21939C21.2444 8.49892 21.7188 8.47773 21.9983 8.17206C22.2779 7.86638 22.2567 7.39198 21.951 7.11245L20.9387 8.21939ZM17.7187 12.0538C18.0172 12.341 18.492 12.3318 18.7792 12.0333C19.0663 11.7348 19.0572 11.26 18.7586 10.9729L17.7187 12.0538ZM14.4534 15.8687C14.7252 16.1812 15.1989 16.2143 15.5115 15.9425C15.8241 15.6707 15.8571 15.1969 15.5853 14.8844L14.4534 15.8687ZM8.41423 14.8844C8.14243 15.1969 8.17548 15.6707 8.48805 15.9425C8.80062 16.2143 9.27434 16.1812 9.54614 15.8686L8.41423 14.8844ZM5.24091 10.9729C4.94241 11.26 4.93322 11.7348 5.22039 12.0333C5.50756 12.3318 5.98235 12.341 6.28085 12.0538L5.24091 10.9729ZM2.04856 7.11245C1.74288 7.39198 1.72169 7.86638 2.00122 8.17206C2.28075 8.47773 2.75516 8.49892 3.06083 8.21939L2.04856 7.11245ZM11.9998 4.75C15.4451 4.75 18.5817 6.06396 20.9387 8.21939L21.951 7.11245C19.3284 4.7141 15.8342 3.25 11.9998 3.25V4.75ZM11.9998 9.75C14.2205 9.75 16.235 10.6264 17.7187 12.0538L18.7586 10.9729C17.0067 9.28742 14.6236 8.25 11.9998 8.25V9.75ZM11.9998 14.75C12.979 14.75 13.8564 15.1821 14.4534 15.8687L15.5853 14.8844C14.7156 13.8842 13.4313 13.25 11.9998 13.25V14.75ZM9.54614 15.8686C10.1432 15.1821 11.0206 14.75 11.9998 14.75V13.25C10.5683 13.25 9.28397 13.8842 8.41423 14.8844L9.54614 15.8686ZM6.28085 12.0538C7.7646 10.6264 9.77905 9.75 11.9998 9.75V8.25C9.37594 8.25 6.99287 9.28742 5.24091 10.9729L6.28085 12.0538ZM3.06083 8.21939C5.41783 6.06396 8.55449 4.75 11.9998 4.75V3.25C8.16536 3.25 4.6712 4.7141 2.04856 7.11245L3.06083 8.21939Z" fill="#344054"/>
</svg>
