<svg width="24" height="24" viewBox="0 0 24 24" fill="none" xmlns="http://www.w3.org/2000/svg">
<path d="M15.25 6C15.25 6.41421 15.5858 6.75 16 6.75C16.4142 6.75 16.75 6.41421 16.75 6H15.25ZM7.25 6C7.25 6.41421 7.58579 6.75 8 6.75C8.41421 6.75 8.75 6.41421 8.75 6H7.25ZM12 2.75C13.7949 2.75 15.25 4.20507 15.25 6H16.75C16.75 3.37665 14.6234 1.25 12 1.25V2.75ZM12 1.25C9.37665 1.25 7.25 3.37665 7.25 6H8.75C8.75 4.20507 10.2051 2.75 12 2.75V1.25Z" fill="#344054"/>
<path d="M8.53097 6.75H15.4687V5.25H8.53097V6.75ZM18.6936 9.59689L19.6936 17.5969L21.182 17.4108L20.182 9.41084L18.6936 9.59689ZM16.4687 21.25H7.53097V22.75H16.4687V21.25ZM4.30606 17.5969L5.30606 9.59689L3.81765 9.41083L2.81765 17.4108L4.30606 17.5969ZM7.53097 21.25C5.5761 21.25 4.06359 19.5367 4.30606 17.5969L2.81765 17.4108C2.46327 20.2459 4.67385 22.75 7.53097 22.75V21.25ZM19.6936 17.5969C19.9361 19.5367 18.4235 21.25 16.4687 21.25V22.75C19.3258 22.75 21.5364 20.2459 21.182 17.4108L19.6936 17.5969ZM15.4687 6.75C17.1077 6.75 18.4903 7.97049 18.6936 9.59689L20.182 9.41084C19.8849 7.0338 17.8642 5.25 15.4687 5.25V6.75ZM8.53097 5.25C6.13543 5.25 4.11478 7.0338 3.81765 9.41083L5.30606 9.59689C5.50936 7.97049 6.89192 6.75 8.53097 6.75V5.25Z" fill="#344054"/>
<path d="M10.4092 11.3486C10.1163 11.0557 9.64147 11.0557 9.34857 11.3486C9.05568 11.6415 9.05568 12.1164 9.34857 12.4093L10.4092 11.3486ZM13.5912 16.6519C13.8841 16.9448 14.3589 16.9448 14.6518 16.6519C14.9447 16.359 14.9447 15.8842 14.6518 15.5913L13.5912 16.6519ZM9.34857 12.4093L13.5912 16.6519L14.6518 15.5913L10.4092 11.3486L9.34857 12.4093Z" fill="#344054"/>
<path d="M14.6519 12.4093C14.9448 12.1164 14.9448 11.6415 14.6519 11.3486C14.359 11.0557 13.8841 11.0557 13.5912 11.3486L14.6519 12.4093ZM9.34857 15.5913C9.05568 15.8842 9.05568 16.359 9.34857 16.6519C9.64147 16.9448 10.1163 16.9448 10.4092 16.6519L9.34857 15.5913ZM13.5912 11.3486L9.34857 15.5913L10.4092 16.6519L14.6519 12.4093L13.5912 11.3486Z" fill="#344054"/>
</svg>
