<svg width="24" height="24" viewBox="0 0 24 24" fill="none" xmlns="http://www.w3.org/2000/svg">
<path d="M21 16V8C21 6.89543 20.1046 6 19 6L5 6C3.89543 6 3 6.89543 3 8V16C3 17.1046 3.89543 18 5 18H19C20.1046 18 21 17.1046 21 16Z" stroke="#344054" stroke-width="1.5"/>
<path d="M23.75 10C23.75 9.58579 23.4142 9.25 23 9.25C22.5858 9.25 22.25 9.58579 22.25 10H23.75ZM22.25 14C22.25 14.4142 22.5858 14.75 23 14.75C23.4142 14.75 23.75 14.4142 23.75 14H22.25ZM22.25 10V14H23.75V10H22.25Z" fill="#344054"/>
</svg>
