<svg width="24" height="24" viewBox="0 0 24 24" fill="none" xmlns="http://www.w3.org/2000/svg">
<path d="M20 16V8C20 6.89543 19.1046 6 18 6L4 6C2.89543 6 2 6.89543 2 8V16C2 17.1046 2.89543 18 4 18H18C19.1046 18 20 17.1046 20 16Z" stroke="#344054" stroke-width="1.5"/>
<path d="M22.75 10C22.75 9.58579 22.4142 9.25 22 9.25C21.5858 9.25 21.25 9.58579 21.25 10H22.75ZM21.25 14C21.25 14.4142 21.5858 14.75 22 14.75C22.4142 14.75 22.75 14.4142 22.75 14H21.25ZM21.25 10V14H22.75V10H21.25Z" fill="#344054"/>
<path d="M11 9V15" stroke="#344054" stroke-width="1.5" stroke-linecap="round"/>
<path d="M14 12H8" stroke="#344054" stroke-width="1.5" stroke-linecap="round"/>
</svg>
