<svg width="24" height="24" viewBox="0 0 24 24" fill="none" xmlns="http://www.w3.org/2000/svg">
<path d="M7 9.25068C6.58579 9.25068 6.25 9.58646 6.25 10.0007C6.25 10.4149 6.58579 10.7507 7 10.7507V9.25068ZM17 10.7507C17.4142 10.7507 17.75 10.4149 17.75 10.0007C17.75 9.58646 17.4142 9.25068 17 9.25068V10.7507ZM7 13.2507C6.58579 13.2507 6.25 13.5865 6.25 14.0007C6.25 14.4149 6.58579 14.7507 7 14.7507V13.2507ZM17 14.7507C17.4142 14.7507 17.75 14.4149 17.75 14.0007C17.75 13.5865 17.4142 13.2507 17 13.2507V14.7507ZM7 17.2507C6.58579 17.2507 6.25 17.5865 6.25 18.0007C6.25 18.4149 6.58579 18.7507 7 18.7507V17.2507ZM12 18.7507C12.4142 18.7507 12.75 18.4149 12.75 18.0007C12.75 17.5865 12.4142 17.2507 12 17.2507V18.7507ZM6.46967 5.47035C6.17678 5.76324 6.17678 6.23811 6.46967 6.53101C6.76256 6.8239 7.23744 6.8239 7.53033 6.53101L6.46967 5.47035ZM16.4697 6.53101C16.7626 6.8239 17.2374 6.8239 17.5303 6.53101C17.8232 6.23811 17.8232 5.76324 17.5303 5.47035L16.4697 6.53101ZM6 6.75068H18V5.25068H6V6.75068ZM21.25 10.0007V18.0007H22.75V10.0007H21.25ZM18 21.2507H6V22.7507H18V21.2507ZM2.75 18.0007V10.0007H1.25V18.0007H2.75ZM6 21.2507C4.20507 21.2507 2.75 19.7956 2.75 18.0007H1.25C1.25 20.624 3.37665 22.7507 6 22.7507V21.2507ZM21.25 18.0007C21.25 19.7956 19.7949 21.2507 18 21.2507V22.7507C20.6234 22.7507 22.75 20.624 22.75 18.0007H21.25ZM18 6.75068C19.7949 6.75068 21.25 8.20575 21.25 10.0007H22.75C22.75 7.37732 20.6234 5.25068 18 5.25068V6.75068ZM6 5.25068C3.37665 5.25068 1.25 7.37732 1.25 10.0007H2.75C2.75 8.20575 4.20507 6.75068 6 6.75068V5.25068ZM7 10.7507H17V9.25068H7V10.7507ZM7 14.7507H17V13.2507H7V14.7507ZM7 18.7507H12V17.2507H7V18.7507ZM7.53033 6.53101L11.1161 2.94522L10.0555 1.88456L6.46967 5.47035L7.53033 6.53101ZM12.8839 2.94522L16.4697 6.53101L17.5303 5.47035L13.9445 1.88456L12.8839 2.94522ZM11.1161 2.94522C11.6043 2.45706 12.3957 2.45706 12.8839 2.94522L13.9445 1.88456C12.8706 0.810618 11.1294 0.810614 10.0555 1.88456L11.1161 2.94522Z" fill="#344054"/>
</svg>
