<svg width="24" height="24" viewBox="0 0 24 24" fill="none" xmlns="http://www.w3.org/2000/svg">
<path d="M5.11478 7.51308C4.70545 7.44969 4.32223 7.73013 4.25884 8.13947C4.19544 8.5488 4.47588 8.93202 4.88522 8.99541L5.11478 7.51308ZM8.72949 9.98699C9.11583 10.1364 9.55012 9.94432 9.69952 9.55799C9.84892 9.17166 9.65684 8.73736 9.27051 8.58797L8.72949 9.98699ZM5.11478 11.5131C4.70545 11.4497 4.32223 11.7301 4.25884 12.1395C4.19544 12.5488 4.47588 12.932 4.88522 12.9954L5.11478 11.5131ZM6.81653 13.3852C7.21815 13.4865 7.62588 13.2431 7.72721 12.8414C7.82854 12.4398 7.5851 12.0321 7.18347 11.9307L6.81653 13.3852ZM12.75 6.05298C12.75 5.63876 12.4142 5.30298 12 5.30298C11.5858 5.30298 11.25 5.63876 11.25 6.05298H12.75ZM11.25 20.3021C11.25 20.7163 11.5858 21.0521 12 21.0521C12.4142 21.0521 12.75 20.7163 12.75 20.3021H11.25ZM4.88522 8.99541C6.11399 9.18571 7.47085 9.50027 8.72949 9.98699L9.27051 8.58797C7.88471 8.05207 6.41756 7.71484 5.11478 7.51308L4.88522 8.99541ZM4.88522 12.9954C5.50446 13.0913 6.15813 13.2191 6.81653 13.3852L7.18347 11.9307C6.47447 11.7519 5.77452 11.6152 5.11478 11.5131L4.88522 12.9954ZM11.25 6.05298V20.3021H12.75V6.05298H11.25ZM3.91012 3.75614C6.08646 4.00206 8.91678 4.65809 10.8864 6.03827L11.7472 4.80983C9.46948 3.21376 6.33895 2.52105 4.07854 2.26562L3.91012 3.75614ZM3.91012 19.1172C6.08646 19.3631 8.91678 20.0191 10.8864 21.3993L11.7472 20.1709C9.46948 18.5748 6.33895 17.8821 4.07854 17.6267L3.91012 19.1172ZM1.25 4.93479V16.1996H2.75V4.93479H1.25ZM4.07854 17.6267C3.32877 17.5419 2.75 16.9186 2.75 16.1996H1.25C1.25 17.7428 2.46408 18.9538 3.91012 19.1172L4.07854 17.6267ZM4.07854 2.26562C2.46654 2.08347 1.25 3.4289 1.25 4.93479H2.75C2.75 4.17837 3.32631 3.69017 3.91012 3.75614L4.07854 2.26562ZM19.9215 2.26562C17.6611 2.52105 14.5305 3.21376 12.2528 4.80983L13.1136 6.03827C15.0832 4.65809 17.9135 4.00206 20.0899 3.75614L19.9215 2.26562ZM19.9215 17.6267C17.6611 17.8821 14.5305 18.5748 12.2528 20.1709L13.1136 21.3993C15.0832 20.0191 17.9135 19.3631 20.0899 19.1172L19.9215 17.6267ZM21.25 4.93479V16.1996H22.75V4.93479H21.25ZM20.0899 19.1172C21.5359 18.9538 22.75 17.7428 22.75 16.1996H21.25C21.25 16.9186 20.6712 17.5419 19.9215 17.6267L20.0899 19.1172ZM20.0899 3.75614C20.6737 3.69017 21.25 4.17837 21.25 4.93479H22.75C22.75 3.4289 21.5335 2.08347 19.9215 2.26562L20.0899 3.75614ZM10.8864 21.3993C11.553 21.8664 12.447 21.8664 13.1136 21.3993L12.2528 20.1709C12.103 20.2758 11.897 20.2758 11.7472 20.1709L10.8864 21.3993ZM10.8864 6.03827C11.553 6.50532 12.447 6.50532 13.1136 6.03827L12.2528 4.80983C12.103 4.91479 11.897 4.91479 11.7472 4.80983L10.8864 6.03827Z" fill="#344054"/>
</svg>
