<svg width="24" height="24" viewBox="0 0 24 24" fill="none" xmlns="http://www.w3.org/2000/svg">
<path d="M18 6H6C3.79086 6 2 7.79086 2 10V18C2 20.2091 3.79086 22 6 22H18C20.2091 22 22 20.2091 22 18V10C22 7.79086 20.2091 6 18 6Z" stroke="#344054" stroke-width="1.5"/>
<path d="M7.25 6C7.25 6.41421 7.58579 6.75 8 6.75C8.41421 6.75 8.75 6.41421 8.75 6H7.25ZM15.25 6C15.25 6.41421 15.5858 6.75 16 6.75C16.4142 6.75 16.75 6.41421 16.75 6H15.25ZM8.75 6V5H7.25V6H8.75ZM11 2.75H13V1.25H11V2.75ZM15.25 5V6H16.75V5H15.25ZM13 2.75C14.2426 2.75 15.25 3.75736 15.25 5H16.75C16.75 2.92893 15.0711 1.25 13 1.25V2.75ZM8.75 5C8.75 3.75736 9.75736 2.75 11 2.75V1.25C8.92893 1.25 7.25 2.92893 7.25 5H8.75Z" fill="#344054"/>
<path d="M2.4116 10.3731C2.0653 10.1458 1.60033 10.2423 1.37306 10.5886C1.14579 10.9349 1.24227 11.3998 1.58856 11.6271L2.4116 10.3731ZM22.4116 11.6271C22.7579 11.3998 22.8544 10.9349 22.6271 10.5886C22.3998 10.2423 21.9349 10.1458 21.5886 10.3731L22.4116 11.6271ZM2.00008 11.0001C1.58856 11.6271 1.58843 11.627 1.58856 11.6271C1.58841 11.627 1.58864 11.6271 1.58856 11.6271C1.58887 11.6273 1.58991 11.628 1.5904 11.6283C1.59138 11.629 1.59274 11.6299 1.59446 11.631C1.59789 11.6332 1.60279 11.6364 1.60912 11.6405C1.62179 11.6488 1.64017 11.6607 1.66404 11.676C1.71176 11.7067 1.78139 11.7511 1.87092 11.8072C2.04992 11.9196 2.30865 12.0791 2.63087 12.2702C3.27463 12.6519 4.17517 13.1614 5.20179 13.6717C7.21591 14.6728 9.85557 15.7501 12.0001 15.7501V14.2501C10.2394 14.2501 7.879 13.3274 5.86944 12.3285C4.88422 11.8388 4.01699 11.3483 3.39594 10.98C3.08575 10.7961 2.83783 10.6431 2.66827 10.5367C2.58351 10.4835 2.51839 10.442 2.47492 10.4141C2.45319 10.4001 2.43688 10.3895 2.42624 10.3826C2.42092 10.3792 2.41702 10.3766 2.41457 10.375C2.41334 10.3742 2.4121 10.3735 2.4116 10.3731C2.41165 10.3731 2.4116 10.3731 2.00008 11.0001ZM12.0001 15.7501C14.1446 15.7501 16.7843 14.6728 18.7984 13.6717C19.825 13.1614 20.7255 12.6519 21.3693 12.2702C21.6915 12.0791 21.9503 11.9196 22.1293 11.8072C22.2188 11.7511 22.2884 11.7067 22.3361 11.676C22.36 11.6607 22.3784 11.6488 22.3911 11.6405C22.3974 11.6364 22.4023 11.6332 22.4057 11.631C22.4074 11.6299 22.4088 11.629 22.4098 11.6283C22.4103 11.628 22.4113 11.6273 22.4116 11.6271C22.4115 11.6271 22.4117 11.627 22.4116 11.6271C22.4117 11.627 22.4116 11.6271 22.0001 11.0001C21.5886 10.3731 21.5886 10.3731 21.5886 10.3731C21.5885 10.3732 21.5888 10.373 21.5886 10.3731C21.5881 10.3735 21.5868 10.3742 21.5856 10.375C21.5832 10.3766 21.5793 10.3792 21.5739 10.3826C21.5633 10.3895 21.547 10.4001 21.5253 10.4141C21.4818 10.442 21.4167 10.4835 21.3319 10.5367C21.1624 10.6431 20.9144 10.7961 20.6042 10.98C19.9832 11.3483 19.116 11.8388 18.1307 12.3285C16.1212 13.3274 13.7608 14.2501 12.0001 14.2501V15.7501Z" fill="#344054"/>
<path d="M14 15C14 16.1046 13.1046 17 12 17C10.8954 17 10 16.1046 10 15C10 13.8954 10.8954 13 12 13C13.1046 13 14 13.8954 14 15Z" fill="#344054"/>
</svg>
