<svg width="24" height="24" viewBox="0 0 24 24" fill="none" xmlns="http://www.w3.org/2000/svg">
<path d="M16 3H8C6.89543 3 6 3.89543 6 5V13C6 14.1046 6.89543 15 8 15H16C17.1046 15 18 14.1046 18 13V5C18 3.89543 17.1046 3 16 3Z" stroke="#344054" stroke-width="1.5"/>
<path d="M19 15H5C3.34315 15 2 16.3431 2 18C2 19.6569 3.34315 21 5 21H19C20.6569 21 22 19.6569 22 18C22 16.3431 20.6569 15 19 15Z" stroke="#344054" stroke-width="1.5"/>
<path d="M17 19C17.5523 19 18 18.5523 18 18C18 17.4477 17.5523 17 17 17C16.4477 17 16 17.4477 16 18C16 18.5523 16.4477 19 17 19Z" fill="#344054"/>
<path d="M12 19C12.5523 19 13 18.5523 13 18C13 17.4477 12.5523 17 12 17C11.4477 17 11 17.4477 11 18C11 18.5523 11.4477 19 12 19Z" fill="#344054"/>
<path d="M7 19C7.55228 19 8 18.5523 8 18C8 17.4477 7.55228 17 7 17C6.44772 17 6 17.4477 6 18C6 18.5523 6.44772 19 7 19Z" fill="#344054"/>
<path d="M13 6H11" stroke="#344054" stroke-width="1.5" stroke-linecap="round" stroke-linejoin="round"/>
</svg>
