<svg width="24" height="24" viewBox="0 0 24 24" fill="none" xmlns="http://www.w3.org/2000/svg">
<path d="M13.0758 13.75C13.49 13.75 13.8258 13.4142 13.8258 13C13.8258 12.5858 13.49 12.25 13.0758 12.25V13.75ZM3 20.25C2.58579 20.25 2.25 20.5858 2.25 21C2.25 21.4142 2.58579 21.75 3 21.75V20.25ZM13.0758 12.25H10V13.75H13.0758V12.25ZM10 17.75H19V16.25H10V17.75ZM19 20.25H3V21.75H19V20.25ZM20.25 19C20.25 19.6904 19.6904 20.25 19 20.25V21.75C20.5188 21.75 21.75 20.5188 21.75 19H20.25ZM19 17.75C19.6904 17.75 20.25 18.3096 20.25 19H21.75C21.75 17.4812 20.5188 16.25 19 16.25V17.75ZM7.25 15C7.25 16.5188 8.48122 17.75 10 17.75V16.25C9.30964 16.25 8.75 15.6904 8.75 15H7.25ZM10 12.25C8.48122 12.25 7.25 13.4812 7.25 15H8.75C8.75 14.3096 9.30964 13.75 10 13.75V12.25Z" fill="#344054"/>
<path d="M16.5171 6.34191C16.5171 6.65493 16.2633 6.90868 15.9503 6.90868V8.40868C17.0918 8.40868 18.0171 7.48336 18.0171 6.34191H16.5171ZM15.9503 6.90868C15.6373 6.90868 15.3835 6.65493 15.3835 6.34191H13.8835C13.8835 7.48336 14.8089 8.40868 15.9503 8.40868V6.90868ZM15.3835 6.34191C15.3835 6.02889 15.6373 5.77514 15.9503 5.77514V4.27514C14.8089 4.27514 13.8835 5.20047 13.8835 6.34191H15.3835ZM15.9503 5.77514C16.2633 5.77514 16.5171 6.02889 16.5171 6.34191H18.0171C18.0171 5.20047 17.0918 4.27514 15.9503 4.27514V5.77514ZM19.1506 6.34191C19.1506 7.18307 18.6139 8.33516 17.8302 9.32929C17.4501 9.8115 17.043 10.2159 16.6737 10.4923C16.2749 10.7907 16.0284 10.8589 15.9503 10.8589V12.3589C16.5306 12.3589 17.1071 12.0415 17.5724 11.6932C18.0673 11.3229 18.5654 10.8197 19.0083 10.2578C19.8706 9.16388 20.6506 7.68244 20.6506 6.34191H19.1506ZM15.9503 10.8589C15.8722 10.8589 15.6257 10.7907 15.2269 10.4923C14.8577 10.2159 14.4505 9.8115 14.0704 9.32929C13.2868 8.33516 12.75 7.18307 12.75 6.34191H11.25C11.25 7.68244 12.03 9.16388 12.8924 10.2578C13.3352 10.8197 13.8333 11.3229 14.3282 11.6932C14.7935 12.0415 15.37 12.3589 15.9503 12.3589V10.8589ZM12.75 6.34191C12.75 4.57442 14.1828 3.1416 15.9503 3.1416V1.6416C13.3544 1.6416 11.25 3.746 11.25 6.34191H12.75ZM15.9503 3.1416C17.7178 3.1416 19.1506 4.57442 19.1506 6.34191H20.6506C20.6506 3.746 18.5462 1.6416 15.9503 1.6416V3.1416Z" fill="#344054"/>
</svg>
