<svg width="24" height="24" viewBox="0 0 24 24" fill="none" xmlns="http://www.w3.org/2000/svg">
<path d="M8 11L12 15M12 15L16 11M12 15V1" stroke="#344054" stroke-width="1.5" stroke-linecap="round" stroke-linejoin="round"/>
<path d="M18.8306 7.53093C18.5715 7.20774 18.0995 7.15577 17.7763 7.41484C17.4531 7.67392 17.4011 8.14594 17.6602 8.46913L18.8306 7.53093ZM6.33981 8.46913C6.59889 8.14594 6.54692 7.67392 6.22373 7.41484C5.90054 7.15577 5.42852 7.20774 5.16944 7.53093L6.33981 8.46913ZM19.25 13C19.25 17.0041 16.0041 20.25 12 20.25V21.75C16.8325 21.75 20.75 17.8325 20.75 13H19.25ZM12 20.25C7.99594 20.25 4.75 17.0041 4.75 13H3.25C3.25 17.8325 7.16751 21.75 12 21.75V20.25ZM17.6602 8.46913C18.6553 9.71047 19.25 11.2847 19.25 13H20.75C20.75 10.9315 20.0313 9.02878 18.8306 7.53093L17.6602 8.46913ZM4.75 13C4.75 11.2847 5.34472 9.71047 6.33981 8.46913L5.16944 7.53093C3.96871 9.02878 3.25 10.9315 3.25 13H4.75Z" fill="#344054"/>
</svg>
