<svg width="24" height="24" viewBox="0 0 24 24" fill="none" xmlns="http://www.w3.org/2000/svg">
<path d="M16 4.2504C15.5858 4.2504 15.25 4.58619 15.25 5.0004C15.25 5.41461 15.5858 5.7504 16 5.7504V4.2504ZM8 5.7504C8.41421 5.7504 8.75 5.41461 8.75 5.0004C8.75 4.58619 8.41421 4.2504 8 4.2504V5.7504ZM12.75 19.0004C12.75 18.5862 12.4142 18.2504 12 18.2504C11.5858 18.2504 11.25 18.5862 11.25 19.0004H12.75ZM9 21.2504C8.58579 21.2504 8.25 21.5862 8.25 22.0004C8.25 22.4146 8.58579 22.7504 9 22.7504V21.2504ZM15 22.7504C15.4142 22.7504 15.75 22.4146 15.75 22.0004C15.75 21.5862 15.4142 21.2504 15 21.2504V22.7504ZM12.75 3.18782C12.75 2.77361 12.4142 2.43782 12 2.43782C11.5858 2.43782 11.25 2.77361 11.25 3.18782H12.75ZM11.25 8.72915C11.25 9.14336 11.5858 9.47915 12 9.47915C12.4142 9.47915 12.75 9.14336 12.75 8.72915H11.25ZM12 3.0004L11.5777 3.62023L12 3.90791L12.4223 3.62023L12 3.0004ZM12 9.0004L11.5777 9.62023C11.8325 9.79379 12.1675 9.79379 12.4223 9.62023L12 9.0004ZM20.25 7.0004V17.0004H21.75V7.0004H20.25ZM19 18.2504H5V19.7504H19V18.2504ZM3.75 17.0004V7.0004H2.25V17.0004H3.75ZM16 5.7504H19V4.2504H16V5.7504ZM5 5.7504H8V4.2504H5V5.7504ZM5 18.2504C4.30964 18.2504 3.75 17.6908 3.75 17.0004H2.25C2.25 18.5192 3.48122 19.7504 5 19.7504V18.2504ZM20.25 17.0004C20.25 17.6908 19.6904 18.2504 19 18.2504V19.7504C20.5188 19.7504 21.75 18.5192 21.75 17.0004H20.25ZM21.75 7.0004C21.75 5.48162 20.5188 4.2504 19 4.2504V5.7504C19.6904 5.7504 20.25 6.31004 20.25 7.0004H21.75ZM3.75 7.0004C3.75 6.31004 4.30964 5.7504 5 5.7504V4.2504C3.48122 4.2504 2.25 5.48162 2.25 7.0004H3.75ZM11.25 19.0004V22.0004H12.75V19.0004H11.25ZM12 21.2504H9V22.7504H12V21.2504ZM12 22.7504H15V21.2504H12V22.7504ZM11.25 3.18782V8.72915H12.75V3.18782H11.25ZM8.71583 2.7503C9.12146 2.79486 9.66883 2.89165 10.2097 3.04403C10.7606 3.19923 11.2502 3.39709 11.5777 3.62023L12.4223 2.38057C11.9003 2.02499 11.2325 1.77378 10.6164 1.60023C9.99038 1.42385 9.36135 1.31219 8.87963 1.25927L8.71583 2.7503ZM8.71583 8.72404C9.11542 8.76794 9.66047 8.87003 10.2022 9.02875C10.7528 9.19005 11.2463 9.39443 11.5777 9.62023L12.4223 8.38057C11.9042 8.02765 11.2403 7.76984 10.6239 7.58926C9.99873 7.40608 9.36739 7.2866 8.87963 7.23301L8.71583 8.72404ZM7.25 2.75297V7.13371H8.75V2.75297H7.25ZM8.87963 7.23301C8.83634 7.22825 8.79863 7.20791 8.77457 7.18292C8.75254 7.16002 8.75 7.14311 8.75 7.13371H7.25C7.25 8.0029 7.94482 8.63934 8.71583 8.72404L8.87963 7.23301ZM8.87963 1.25927C7.94967 1.1571 7.25 1.91492 7.25 2.75297H8.75C8.75 2.73838 8.75549 2.73505 8.75228 2.73811C8.75035 2.73995 8.74529 2.74395 8.73646 2.74706C8.73212 2.74858 8.72766 2.74959 8.72348 2.75008C8.71924 2.75057 8.71652 2.75037 8.71583 2.7503L8.87963 1.25927ZM15.1204 1.25927C14.6386 1.31219 14.0096 1.42385 13.3836 1.60023C12.7675 1.77378 12.0997 2.02499 11.5777 2.38057L12.4223 3.62023C12.7498 3.39709 13.2394 3.19923 13.7903 3.04403C14.3312 2.89165 14.8785 2.79486 15.2842 2.7503L15.1204 1.25927ZM15.1204 7.23301C14.6326 7.2866 14.0013 7.40608 13.3761 7.58926C12.7597 7.76984 12.0958 8.02765 11.5777 8.38057L12.4223 9.62023C12.7537 9.39443 13.2472 9.19005 13.7978 9.02875C14.3395 8.87003 14.8846 8.76794 15.2842 8.72404L15.1204 7.23301ZM15.25 2.75297V7.13371H16.75V2.75297H15.25ZM15.2842 8.72404C16.0552 8.63934 16.75 8.0029 16.75 7.13371H15.25C15.25 7.14311 15.2475 7.16002 15.2254 7.18292C15.2014 7.20791 15.1637 7.22825 15.1204 7.23301L15.2842 8.72404ZM15.2842 2.7503C15.2835 2.75037 15.2808 2.75057 15.2765 2.75008C15.2723 2.74959 15.2679 2.74858 15.2635 2.74706C15.2547 2.74395 15.2496 2.73995 15.2477 2.73811C15.2445 2.73505 15.25 2.73838 15.25 2.75297H16.75C16.75 1.91492 16.0503 1.1571 15.1204 1.25927L15.2842 2.7503Z" fill="#344054"/>
</svg>
