<svg width="24" height="24" viewBox="0 0 24 24" fill="none" xmlns="http://www.w3.org/2000/svg">
<path d="M1.46967 21.4699C1.17678 21.7628 1.17678 22.2376 1.46967 22.5305C1.76256 22.8234 2.23744 22.8234 2.53033 22.5305L1.46967 21.4699ZM12.5976 12.4632C12.8905 12.1703 12.8905 11.6954 12.5976 11.4025C12.3047 11.1096 11.8299 11.1096 11.537 11.4025L12.5976 12.4632ZM2.53033 22.5305L12.5976 12.4632L11.537 11.4025L1.46967 21.4699L2.53033 22.5305ZM7.37042 15.4298C8.29244 8.87297 13.4818 3.6836 20.0386 2.76159L19.8297 1.2762C12.6103 2.29139 6.90022 8.00152 5.88504 15.221L7.37042 15.4298ZM15.1938 13.9619C13.2769 15.3462 11.0188 16.2856 8.56971 16.6298L8.77852 18.1152C11.4758 17.7361 13.9627 16.7012 16.072 15.1779L15.1938 13.9619ZM21.2386 3.96088C20.8943 6.40996 19.955 8.66812 18.5707 10.585L19.7867 11.4632C21.31 9.35384 22.3448 6.86702 22.724 4.16969L21.2386 3.96088ZM17.9092 12.4032C18.6288 12.4032 19.3412 12.0801 19.7867 11.4632L18.5707 10.585C18.4309 10.7786 18.1892 10.9032 17.9092 10.9032V12.4032ZM17.012 13.3004C17.012 12.8049 17.4137 12.4032 17.9092 12.4032V10.9032C16.5853 10.9032 15.512 11.9765 15.512 13.3004H17.012ZM16.072 15.1779C16.6889 14.7324 17.012 14.02 17.012 13.3004H15.512C15.512 13.5804 15.3874 13.8221 15.1938 13.9619L16.072 15.1779ZM20.0386 2.76159C20.7521 2.66126 21.3388 3.24814 21.2386 3.96088L22.724 4.16969C22.9631 2.46871 21.53 1.03711 19.8297 1.2762L20.0386 2.76159ZM5.88504 15.221C5.64595 16.9212 7.07754 18.3544 8.77852 18.1152L8.56971 16.6298C7.85698 16.73 7.2701 16.1433 7.37042 15.4298L5.88504 15.221Z" fill="#344054"/>
</svg>
