<svg width="24" height="24" viewBox="0 0 24 24" fill="none" xmlns="http://www.w3.org/2000/svg">
<path d="M6.99201 6V5.25H6.44543L6.27805 5.77032L6.99201 6ZM17.008 6L17.722 5.77032L17.5546 5.25H17.008V6ZM18.7221 11.3282L18.0081 11.5578L18.0156 11.5814L18.0247 11.6043L18.7221 11.3282ZM5.27799 11.3282L5.9753 11.6043L5.98439 11.5814L5.99195 11.5578L5.27799 11.3282ZM18.2476 15.0968L18.8265 15.5737L18.8432 15.5535L18.8583 15.5322L18.2476 15.0968ZM12.9519 21.526L12.373 21.0492L12.3563 21.0694L12.3411 21.0907L12.9519 21.526ZM5.75242 15.0968L5.1417 15.5322L5.15689 15.5535L5.17352 15.5737L5.75242 15.0968ZM11.0481 21.526L11.6589 21.0907L11.6437 21.0694L11.627 21.0492L11.0481 21.526ZM13.25 12C13.25 12.6904 12.6904 13.25 12 13.25V14.75C13.5188 14.75 14.75 13.5188 14.75 12H13.25ZM12 13.25C11.3096 13.25 10.75 12.6904 10.75 12H9.25004C9.25004 13.5188 10.4812 14.75 12 14.75V13.25ZM10.75 12C10.75 11.3096 11.3096 10.75 12 10.75V9.25C10.4812 9.25 9.25004 10.4812 9.25004 12H10.75ZM12 10.75C12.6904 10.75 13.25 11.3096 13.25 12H14.75C14.75 10.4812 13.5188 9.25 12 9.25V10.75ZM7.00004 6.75H17V5.25H7.00004V6.75ZM17 1.25H7.00004V2.75H17V1.25ZM19.75 4C19.75 2.48122 18.5188 1.25 17 1.25V2.75C17.6904 2.75 18.25 3.30964 18.25 4H19.75ZM17 6.75C18.5188 6.75 19.75 5.51878 19.75 4H18.25C18.25 4.69036 17.6904 5.25 17 5.25V6.75ZM4.25004 4C4.25004 5.51878 5.48126 6.75 7.00004 6.75V5.25C6.30968 5.25 5.75004 4.69036 5.75004 4H4.25004ZM5.75004 4C5.75004 3.30964 6.30968 2.75 7.00004 2.75V1.25C5.48126 1.25 4.25004 2.48122 4.25004 4H5.75004ZM6.99201 6.75H17.008V5.25H6.99201V6.75ZM16.2941 6.22968L18.0081 11.5578L19.436 11.0985L17.722 5.77032L16.2941 6.22968ZM5.99195 11.5578L7.70598 6.22968L6.27805 5.77032L4.56402 11.0985L5.99195 11.5578ZM17.6687 14.62L12.373 21.0492L13.5308 22.0029L18.8265 15.5737L17.6687 14.62ZM5.17352 15.5737L10.4692 22.0029L11.627 21.0492L6.33132 14.62L5.17352 15.5737ZM12.3411 21.0907C12.2743 21.1844 12.153 21.25 12 21.25C11.847 21.25 11.7257 21.1844 11.6589 21.0907L10.4374 21.9614C11.187 23.0129 12.813 23.0129 13.5626 21.9614L12.3411 21.0907ZM4.58068 11.052C3.9884 12.5476 4.20148 14.2132 5.1417 15.5322L6.36314 14.6615C5.71275 13.7491 5.57378 12.6182 5.9753 11.6043L4.58068 11.052ZM18.0247 11.6043C18.4263 12.6182 18.2873 13.7491 17.6369 14.6615L18.8583 15.5322C19.7986 14.2132 20.0116 12.5476 19.4194 11.052L18.0247 11.6043ZM11.25 14V22H12.75V14H11.25Z" fill="#344054"/>
</svg>
