<svg width="24" height="24" viewBox="0 0 24 24" fill="none" xmlns="http://www.w3.org/2000/svg">
<path d="M12 1C6.75238 1 2.5 5.30833 2.5 10.625C2.5 15.5989 6.90308 19.6807 11.7997 19.7894C11.9101 19.7919 12 19.8812 12 19.9917V22.6779C12 22.8262 12.1563 22.9225 12.2884 22.855C17.8706 20.0009 21.5 15.4016 21.5 10.625C21.5 5.30833 17.2476 1 12 1Z" stroke="#344054" stroke-width="1.5"/>
<path d="M17.2383 11.8077C17.2383 12.904 16.2535 13.8487 15.4164 13.9835C15.3074 14.0011 15.2175 13.9105 15.2175 13.8V11.8923C15.2175 11.7819 15.1279 11.6923 15.0175 11.6923H13.4383C13.3279 11.6923 13.2383 11.6028 13.2383 11.4923V8.2C13.2383 8.08954 13.3279 8 13.4383 8H17.0383C17.1488 8 17.2383 8.08954 17.2383 8.2V11.8077Z" stroke="#344054" stroke-width="1.5"/>
<path d="M10.7617 11.8077C10.7617 12.904 9.77687 13.8487 8.93981 13.9835C8.83076 14.0011 8.74089 13.9105 8.74089 13.8V11.8923C8.74089 11.7819 8.65135 11.6923 8.54089 11.6923H6.96172C6.85127 11.6923 6.76172 11.6028 6.76172 11.4923V8.2C6.76172 8.08954 6.85127 8 6.96172 8H10.5617C10.6721 8 10.7617 8.08954 10.7617 8.2V11.8077Z" stroke="#344054" stroke-width="1.5"/>
</svg>
