<svg width="24" height="24" viewBox="0 0 24 24" fill="none" xmlns="http://www.w3.org/2000/svg">
<path d="M12.75 17C12.75 17.4142 12.4142 17.75 12 17.75C11.5858 17.75 11.25 17.4142 11.25 17C11.25 16.5858 11.5858 16.25 12 16.25C12.4142 16.25 12.75 16.5858 12.75 17Z" fill="#344054"/>
<path d="M15.7124 13.2877C16.0053 13.5806 16.4801 13.5806 16.773 13.2877C17.0659 12.9948 17.0659 12.5199 16.773 12.227L15.7124 13.2877ZM9.34845 14.3483C9.05556 14.6412 9.05556 15.1161 9.34845 15.409C9.64135 15.7019 10.1162 15.7019 10.4091 15.409L9.34845 14.3483ZM7.22713 12.227C6.93424 12.5199 6.93424 12.9948 7.22713 13.2877C7.52003 13.5806 7.9949 13.5806 8.28779 13.2877L7.22713 12.227ZM13.5911 15.409C13.8839 15.7019 14.3588 15.7019 14.6517 15.409C14.9446 15.1161 14.9446 14.6412 14.6517 14.3483L13.5911 15.409ZM12.0001 11.75C13.45 11.75 14.7615 12.3368 15.7124 13.2877L16.773 12.227C15.5523 11.0063 13.8638 10.25 12.0001 10.25V11.75ZM10.4091 15.409C10.8171 15.001 11.3785 14.75 12.0001 14.75V13.25C10.9647 13.25 10.0262 13.6706 9.34845 14.3483L10.4091 15.409ZM8.28779 13.2877C9.23868 12.3368 10.5501 11.75 12.0001 11.75V10.25C10.1363 10.25 8.44782 11.0063 7.22713 12.227L8.28779 13.2877ZM12.0001 14.75C12.6216 14.75 13.1831 15.001 13.5911 15.409L14.6517 14.3483C13.9739 13.6706 13.0354 13.25 12.0001 13.25V14.75ZM16.1805 21.25H7.81979V22.75H16.1805V21.25ZM3.58027 7.81306L9.969 3.37914L9.11375 2.14685L2.72502 6.58077L3.58027 7.81306ZM14.0312 3.37914L20.42 7.81306L21.2752 6.58077L14.8865 2.14685L14.0312 3.37914ZM19.6108 13.133V18.0108H21.1108V13.133H19.6108ZM4.38944 18.0108V13.133H2.88944V18.0108H4.38944ZM4.38944 13.133C4.38944 12.2143 4.00665 11.3407 3.33761 10.7022L2.30205 11.7874C2.68258 12.1505 2.88944 12.6354 2.88944 13.133H4.38944ZM20.6626 10.7022C19.9936 11.3407 19.6108 12.2143 19.6108 13.133H21.1108C21.1108 12.6354 21.3177 12.1505 21.6982 11.7874L20.6626 10.7022ZM9.969 3.37914C11.1776 2.54029 12.8225 2.54029 14.0312 3.37914L14.8865 2.14685C13.1635 0.95105 10.8367 0.95105 9.11375 2.14685L9.969 3.37914ZM7.81979 21.25C5.8918 21.25 4.38944 19.7671 4.38944 18.0108H2.88944C2.88944 20.6609 5.13029 22.75 7.81979 22.75V21.25ZM16.1805 22.75C18.8699 22.75 21.1108 20.6609 21.1108 18.0108H19.6108C19.6108 19.7671 18.1084 21.25 16.1805 21.25V22.75ZM20.42 7.81306C21.4263 8.51149 21.5301 9.87443 20.6626 10.7022L21.6982 11.7874C23.2625 10.2946 23.0501 7.8126 21.2752 6.58077L20.42 7.81306ZM2.72502 6.58077C0.950092 7.8126 0.737715 10.2946 2.30205 11.7874L3.33761 10.7022C2.47017 9.87443 2.57392 8.51149 3.58027 7.81306L2.72502 6.58077Z" fill="#344054"/>
</svg>
