<svg width="24" height="24" viewBox="0 0 24 24" fill="none" xmlns="http://www.w3.org/2000/svg">
<path d="M16.1805 21.25H7.81979V22.75H16.1805V21.25ZM3.58027 7.81306L9.969 3.37914L9.11375 2.14685L2.72502 6.58077L3.58027 7.81306ZM14.0312 3.37914L20.42 7.81306L21.2752 6.58077L14.8865 2.14685L14.0312 3.37914ZM19.6108 13.133V18.0108H21.1108V13.133H19.6108ZM4.38944 18.0108V13.133H2.88944V18.0108H4.38944ZM4.38944 13.133C4.38944 12.2143 4.00665 11.3407 3.33761 10.7022L2.30205 11.7874C2.68258 12.1505 2.88944 12.6354 2.88944 13.133H4.38944ZM20.6626 10.7022C19.9936 11.3407 19.6108 12.2143 19.6108 13.133H21.1108C21.1108 12.6354 21.3177 12.1505 21.6982 11.7874L20.6626 10.7022ZM9.969 3.37914C11.1776 2.54029 12.8225 2.54029 14.0312 3.37914L14.8865 2.14685C13.1635 0.95105 10.8367 0.95105 9.11375 2.14685L9.969 3.37914ZM7.81979 21.25C5.8918 21.25 4.38944 19.7671 4.38944 18.0108H2.88944C2.88944 20.6609 5.13029 22.75 7.81979 22.75V21.25ZM16.1805 22.75C18.8699 22.75 21.1108 20.6609 21.1108 18.0108H19.6108C19.6108 19.7671 18.1084 21.25 16.1805 21.25V22.75ZM20.42 7.81306C21.4263 8.51149 21.5301 9.87443 20.6626 10.7022L21.6982 11.7874C23.2625 10.2946 23.0501 7.8126 21.2752 6.58077L20.42 7.81306ZM2.72502 6.58077C0.950092 7.8126 0.737715 10.2946 2.30205 11.7874L3.33761 10.7022C2.47017 9.87443 2.57392 8.51149 3.58027 7.81306L2.72502 6.58077ZM9.44204 11.1176L11.4411 10.118L10.7703 8.77639L8.77122 9.77593L9.44204 11.1176ZM12.5591 10.118L14.5498 11.1134L15.2206 9.77175L13.2299 8.77639L12.5591 10.118ZM7.2789 12.2739C7.35496 13.8414 7.59064 15.0594 8.1063 16.1049C8.62561 17.1577 9.39585 17.9689 10.4236 18.7768L11.3506 17.5976C10.4215 16.8672 9.83578 16.2203 9.45156 15.4413C9.0637 14.655 8.84827 13.6673 8.77714 12.2012L7.2789 12.2739ZM13.5776 18.7761C14.6106 17.9612 15.3743 17.1426 15.8881 16.0896C16.3978 15.0451 16.6302 13.8341 16.7135 12.2873L15.2156 12.2067C15.1376 13.6573 14.9253 14.6425 14.5401 15.4318C14.159 16.2126 13.5776 16.8655 12.6485 17.5984L13.5776 18.7761ZM10.4236 18.7768C11.3468 19.5026 12.6531 19.5055 13.5776 18.7761L12.6485 17.5984C12.2706 17.8966 11.7316 17.8971 11.3506 17.5976L10.4236 18.7768ZM11.4411 10.118C11.793 9.94208 12.2072 9.94208 12.5591 10.118L13.2299 8.77639C12.4557 8.38929 11.5445 8.38929 10.7703 8.77639L11.4411 10.118ZM14.5498 11.1134C14.9843 11.3306 15.2394 11.764 15.2156 12.2067L16.7135 12.2873C16.7716 11.2063 16.151 10.2369 15.2206 9.77175L14.5498 11.1134ZM8.77122 9.77593C7.84721 10.2379 7.22671 11.1983 7.2789 12.2739L8.77714 12.2012C8.75585 11.7625 9.00996 11.3336 9.44204 11.1176L8.77122 9.77593Z" fill="#344054"/>
</svg>
