<svg width="24" height="24" viewBox="0 0 24 24" fill="none" xmlns="http://www.w3.org/2000/svg">
<path d="M12.0001 9L12.48 8.42368C12.202 8.19211 11.7982 8.19211 11.5202 8.42368L12.0001 9ZM16.1805 21.25H7.81979V22.75H16.1805V21.25ZM3.58027 7.81306L9.969 3.37914L9.11375 2.14685L2.72502 6.58077L3.58027 7.81306ZM14.0312 3.37914L20.42 7.81306L21.2752 6.58077L14.8865 2.14685L14.0312 3.37914ZM19.6108 13.133V18.0108H21.1108V13.133H19.6108ZM4.38944 18.0108V13.133H2.88944V18.0108H4.38944ZM4.38944 13.133C4.38944 12.2143 4.00665 11.3407 3.33761 10.7022L2.30205 11.7874C2.68258 12.1505 2.88944 12.6354 2.88944 13.133H4.38944ZM20.6626 10.7022C19.9936 11.3407 19.6108 12.2143 19.6108 13.133H21.1108C21.1108 12.6354 21.3177 12.1505 21.6982 11.7874L20.6626 10.7022ZM9.969 3.37914C11.1776 2.54029 12.8225 2.54029 14.0312 3.37914L14.8865 2.14685C13.1635 0.95105 10.8367 0.95105 9.11375 2.14685L9.969 3.37914ZM7.81979 21.25C5.8918 21.25 4.38944 19.7671 4.38944 18.0108H2.88944C2.88944 20.6609 5.13029 22.75 7.81979 22.75V21.25ZM16.1805 22.75C18.8699 22.75 21.1108 20.6609 21.1108 18.0108H19.6108C19.6108 19.7671 18.1084 21.25 16.1805 21.25V22.75ZM20.42 7.81306C21.4263 8.51149 21.5301 9.87443 20.6626 10.7022L21.6982 11.7874C23.2625 10.2946 23.0501 7.8126 21.2752 6.58077L20.42 7.81306ZM2.72502 6.58077C0.950092 7.8126 0.737715 10.2946 2.30205 11.7874L3.33761 10.7022C2.47017 9.87443 2.57392 8.51149 3.58027 7.81306L2.72502 6.58077ZM16.2501 14.4C16.2501 13.6104 15.9751 12.8383 15.6168 12.1582C15.2552 11.4719 14.782 10.8292 14.3238 10.285C13.8638 9.73852 13.4059 9.27612 13.0639 8.95081C12.8924 8.7877 12.7488 8.65792 12.6471 8.56804C12.5962 8.52307 12.5557 8.48802 12.5273 8.4637C12.5131 8.45154 12.5019 8.44206 12.494 8.43535C12.49 8.432 12.4868 8.42934 12.4845 8.42739C12.4833 8.42642 12.4824 8.42562 12.4816 8.425C12.4813 8.42469 12.4802 8.4239 12.48 8.42368C12.4798 8.42357 12.4801 8.42373 12.48 8.42368C12.4799 8.42356 12.48 8.42368 12.0001 9C11.5202 9.57632 11.52 9.57624 11.52 9.57616C11.5201 9.57625 11.5203 9.57641 11.5208 9.57685C11.5218 9.57772 11.5237 9.57928 11.5263 9.58152C11.5316 9.586 11.5401 9.59319 11.5515 9.60298C11.5744 9.62257 11.6091 9.65257 11.6539 9.69216C11.7436 9.77138 11.8735 9.88873 12.0301 10.0377C12.3443 10.3366 12.7614 10.7582 13.1764 11.251C13.5932 11.7461 13.995 12.2981 14.2897 12.8574C14.5876 13.4228 14.7501 13.947 14.7501 14.4H16.2501ZM12.0001 9C11.5202 8.42368 11.5203 8.42356 11.5202 8.42368C11.5201 8.42373 11.5204 8.42357 11.5202 8.42368C11.52 8.4239 11.5189 8.42469 11.5186 8.425C11.5178 8.42562 11.5169 8.42642 11.5157 8.42739C11.5134 8.42934 11.5102 8.432 11.5062 8.43535C11.4983 8.44206 11.4871 8.45154 11.4729 8.4637C11.4445 8.48802 11.404 8.52307 11.3531 8.56804C11.2514 8.65792 11.1078 8.7877 10.9363 8.95081C10.5943 9.27612 10.1364 9.73852 9.67639 10.285C9.21821 10.8292 8.74507 11.4719 8.38349 12.1582C8.02514 12.8383 7.75014 13.6104 7.75014 14.4H9.25014C9.25014 13.947 9.41263 13.4228 9.71054 12.8574C10.0052 12.2981 10.407 11.7461 10.8238 11.251C11.2388 10.7582 11.6559 10.3366 11.9701 10.0377C12.1267 9.88873 12.2566 9.77138 12.3463 9.69216C12.3911 9.65257 12.4258 9.62257 12.4487 9.60298C12.4601 9.59319 12.4686 9.586 12.4739 9.58152C12.4765 9.57928 12.4784 9.57772 12.4794 9.57685C12.4799 9.57641 12.4803 9.57615 12.4804 9.57606C12.4804 9.57614 12.48 9.57632 12.0001 9ZM7.75014 14.4C7.75014 15.8452 8.29411 16.9545 9.13259 17.6943C9.9546 18.4197 11.0131 18.75 12.0001 18.75V17.25C11.3303 17.25 10.6388 17.023 10.125 16.5696C9.62774 16.1308 9.25014 15.4401 9.25014 14.4H7.75014ZM12.0001 18.75C12.9871 18.75 14.0456 18.4197 14.8676 17.6943C15.7061 16.9545 16.2501 15.8452 16.2501 14.4H14.7501C14.7501 15.4401 14.3725 16.1308 13.8752 16.5696C13.3614 17.023 12.6699 17.25 12.0001 17.25V18.75Z" fill="#344054"/>
</svg>
