<svg width="24" height="24" viewBox="0 0 24 24" fill="none" xmlns="http://www.w3.org/2000/svg">
<path d="M13.5047 12.8131C13.8157 13.0867 14.2896 13.0564 14.5632 12.7454C14.8368 12.4344 14.8065 11.9605 14.4955 11.6869L13.5047 12.8131ZM14.4955 17.3131C14.8065 17.0395 14.8368 16.5656 14.5632 16.2546C14.2896 15.9436 13.8157 15.9133 13.5047 16.1869L14.4955 17.3131ZM16.1805 21.25H7.81979V22.75H16.1805V21.25ZM3.58027 7.81306L9.969 3.37914L9.11375 2.14685L2.72502 6.58077L3.58027 7.81306ZM14.0312 3.37914L20.42 7.81306L21.2752 6.58077L14.8865 2.14685L14.0312 3.37914ZM19.6108 13.133V18.0108H21.1108V13.133H19.6108ZM4.38944 18.0108V13.133H2.88944V18.0108H4.38944ZM4.38944 13.133C4.38944 12.2143 4.00665 11.3407 3.33761 10.7022L2.30205 11.7874C2.68258 12.1505 2.88944 12.6354 2.88944 13.133H4.38944ZM20.6626 10.7022C19.9936 11.3407 19.6108 12.2143 19.6108 13.133H21.1108C21.1108 12.6354 21.3177 12.1505 21.6982 11.7874L20.6626 10.7022ZM9.969 3.37914C11.1776 2.54029 12.8225 2.54029 14.0312 3.37914L14.8865 2.14685C13.1635 0.95105 10.8367 0.95105 9.11375 2.14685L9.969 3.37914ZM7.81979 21.25C5.8918 21.25 4.38944 19.7671 4.38944 18.0108H2.88944C2.88944 20.6609 5.13029 22.75 7.81979 22.75V21.25ZM16.1805 22.75C18.8699 22.75 21.1108 20.6609 21.1108 18.0108H19.6108C19.6108 19.7671 18.1084 21.25 16.1805 21.25V22.75ZM20.42 7.81306C21.4263 8.51149 21.5301 9.87443 20.6626 10.7022L21.6982 11.7874C23.2625 10.2946 23.0501 7.8126 21.2752 6.58077L20.42 7.81306ZM2.72502 6.58077C0.950092 7.8126 0.737715 10.2946 2.30205 11.7874L3.33761 10.7022C2.47017 9.87443 2.57392 8.51149 3.58027 7.81306L2.72502 6.58077ZM12.0095 16.75C10.7595 16.75 9.75014 15.7404 9.75014 14.5H8.25014C8.25014 16.5733 9.9355 18.25 12.0095 18.25V16.75ZM9.75014 14.5C9.75014 13.2596 10.7595 12.25 12.0095 12.25V10.75C9.9355 10.75 8.25014 12.4267 8.25014 14.5H9.75014ZM12.0095 12.25C12.5837 12.25 13.106 12.4623 13.5047 12.8131L14.4955 11.6869C13.8332 11.1041 12.9617 10.75 12.0095 10.75V12.25ZM13.5047 16.1869C13.106 16.5377 12.5837 16.75 12.0095 16.75V18.25C12.9617 18.25 13.8332 17.8959 14.4955 17.3131L13.5047 16.1869Z" fill="#344054"/>
<path d="M16.5 10C16.5 10.5523 16.0523 11 15.5 11C14.9477 11 14.5 10.5523 14.5 10C14.5 9.44772 14.9477 9 15.5 9C16.0523 9 16.5 9.44772 16.5 10Z" fill="#344054"/>
</svg>
