<svg width="24" height="24" viewBox="0 0 24 24" fill="none" xmlns="http://www.w3.org/2000/svg">
<path d="M16.1805 21.25H7.81979V22.75H16.1805V21.25ZM3.58027 7.81306L9.969 3.37914L9.11375 2.14685L2.72502 6.58077L3.58027 7.81306ZM14.0312 3.37914L20.42 7.81306L21.2752 6.58077L14.8865 2.14685L14.0312 3.37914ZM19.6108 13.133V18.0108H21.1108V13.133H19.6108ZM4.38944 18.0108V13.133H2.88944V18.0108H4.38944ZM4.38944 13.133C4.38944 12.2143 4.00665 11.3407 3.33761 10.7022L2.30205 11.7874C2.68258 12.1505 2.88944 12.6354 2.88944 13.133H4.38944ZM20.6626 10.7022C19.9936 11.3407 19.6108 12.2143 19.6108 13.133H21.1108C21.1108 12.6354 21.3177 12.1505 21.6982 11.7874L20.6626 10.7022ZM9.969 3.37914C11.1776 2.54029 12.8225 2.54029 14.0312 3.37914L14.8865 2.14685C13.1635 0.95105 10.8367 0.95105 9.11375 2.14685L9.969 3.37914ZM7.81979 21.25C5.8918 21.25 4.38944 19.7671 4.38944 18.0108H2.88944C2.88944 20.6609 5.13029 22.75 7.81979 22.75V21.25ZM16.1805 22.75C18.8699 22.75 21.1108 20.6609 21.1108 18.0108H19.6108C19.6108 19.7671 18.1084 21.25 16.1805 21.25V22.75ZM20.42 7.81306C21.4263 8.51149 21.5301 9.87443 20.6626 10.7022L21.6982 11.7874C23.2625 10.2946 23.0501 7.8126 21.2752 6.58077L20.42 7.81306ZM2.72502 6.58077C0.950092 7.8126 0.737715 10.2946 2.30205 11.7874L3.33761 10.7022C2.47017 9.87443 2.57392 8.51149 3.58027 7.81306L2.72502 6.58077ZM9.00014 14.75C8.58593 14.75 8.25014 14.4142 8.25014 14H6.75014C6.75014 15.2426 7.7575 16.25 9.00014 16.25V14.75ZM8.25014 14C8.25014 13.5858 8.58593 13.25 9.00014 13.25V11.75C7.7575 11.75 6.75014 12.7574 6.75014 14H8.25014ZM15.7501 10.5C15.7501 10.9142 15.4143 11.25 15.0001 11.25V12.75C16.2427 12.75 17.2501 11.7426 17.2501 10.5H15.7501ZM14.2501 10.5C14.2501 10.0858 14.5859 9.75 15.0001 9.75V8.25C13.7575 8.25 12.7501 9.25736 12.7501 10.5H14.2501ZM15.0001 9.75C15.4143 9.75 15.7501 10.0858 15.7501 10.5H17.2501C17.2501 9.25736 16.2427 8.25 15.0001 8.25V9.75ZM15.7501 17.5C15.7501 17.9142 15.4143 18.25 15.0001 18.25V19.75C16.2427 19.75 17.2501 18.7426 17.2501 17.5H15.7501ZM15.0001 18.25C14.5859 18.25 14.2501 17.9142 14.2501 17.5H12.7501C12.7501 18.7426 13.7575 19.75 15.0001 19.75V18.25ZM15.0001 16.75C15.4143 16.75 15.7501 17.0858 15.7501 17.5H17.2501C17.2501 16.2574 16.2427 15.25 15.0001 15.25V16.75ZM15.0001 11.25C14.7076 11.25 14.4528 11.0827 14.3287 10.835L12.9876 11.5069C13.3561 12.2424 14.1181 12.75 15.0001 12.75V11.25ZM14.3287 10.835C14.2786 10.7351 14.2501 10.6219 14.2501 10.5H12.7501C12.7501 10.8604 12.8354 11.2031 12.9876 11.5069L14.3287 10.835ZM14.2501 17.5C14.2501 17.3781 14.2786 17.2649 14.3287 17.165L12.9876 16.4931C12.8354 16.7969 12.7501 17.1396 12.7501 17.5H14.2501ZM14.3287 17.165C14.4528 16.9173 14.7076 16.75 15.0001 16.75V15.25C14.1181 15.25 13.3561 15.7576 12.9876 16.4931L14.3287 17.165ZM10.7511 13.9576L14.0673 11.7996L13.2491 10.5424L9.93299 12.7004L10.7511 13.9576ZM9.00014 13.25C9.29267 13.25 9.54747 13.4173 9.67152 13.665L11.0126 12.9931C10.6441 12.2576 9.8821 11.75 9.00014 11.75V13.25ZM9.67152 13.665C9.7216 13.7649 9.75014 13.8781 9.75014 14H11.2501C11.2501 13.6396 11.1648 13.2969 11.0126 12.9931L9.67152 13.665ZM9.93299 15.2996L13.2491 17.4576L14.0673 16.2004L10.7511 14.0424L9.93299 15.2996ZM9.75014 14C9.75014 14.1219 9.7216 14.2351 9.67152 14.335L11.0126 15.0069C11.1648 14.7031 11.2501 14.3604 11.2501 14H9.75014ZM9.67152 14.335C9.54747 14.5827 9.29267 14.75 9.00014 14.75V16.25C9.8821 16.25 10.6441 15.7424 11.0126 15.0069L9.67152 14.335Z" fill="#344054"/>
</svg>
