<svg width="24" height="24" viewBox="0 0 24 24" fill="none" xmlns="http://www.w3.org/2000/svg">
<path d="M13.2499 4C13.2499 4.69036 12.6902 5.25 11.9999 5.25V6.75C13.5187 6.75 14.7499 5.51878 14.7499 4H13.2499ZM11.9999 5.25C11.3095 5.25 10.7499 4.69036 10.7499 4H9.24991C9.24991 5.51878 10.4811 6.75 11.9999 6.75V5.25ZM10.7499 4C10.7499 3.30964 11.3095 2.75 11.9999 2.75V1.25C10.4811 1.25 9.24991 2.48122 9.24991 4H10.7499ZM11.9999 2.75C12.6902 2.75 13.2499 3.30964 13.2499 4H14.7499C14.7499 2.48122 13.5187 1.25 11.9999 1.25V2.75ZM13.2499 20C13.2499 20.6904 12.6902 21.25 11.9999 21.25V22.75C13.5187 22.75 14.7499 21.5188 14.7499 20H13.2499ZM11.9999 21.25C11.3095 21.25 10.7499 20.6904 10.7499 20H9.24991C9.24991 21.5188 10.4811 22.75 11.9999 22.75V21.25ZM10.7499 20C10.7499 19.3096 11.3095 18.75 11.9999 18.75V17.25C10.4811 17.25 9.24991 18.4812 9.24991 20H10.7499ZM11.9999 18.75C12.6902 18.75 13.2499 19.3096 13.2499 20H14.7499C14.7499 18.4812 13.5187 17.25 11.9999 17.25V18.75ZM19.5531 9.08253C18.9552 9.4277 18.1908 9.22286 17.8456 8.625L16.5465 9.375C17.3059 10.6903 18.9878 11.141 20.3031 10.3816L19.5531 9.08253ZM17.8456 8.625C17.5004 8.02713 17.7052 7.26264 18.3031 6.91746L17.5531 5.61843C16.2378 6.37782 15.7871 8.05969 16.5465 9.375L17.8456 8.625ZM18.3031 6.91746C18.901 6.57229 19.6655 6.77713 20.0106 7.375L21.3097 6.625C20.5503 5.30969 18.8684 4.85903 17.5531 5.61843L18.3031 6.91746ZM20.0106 7.375C20.3558 7.97286 20.151 8.73735 19.5531 9.08253L20.3031 10.3816C21.6184 9.62217 22.0691 7.9403 21.3097 6.625L20.0106 7.375ZM5.69675 17.0825C5.09889 17.4277 4.3344 17.2229 3.98922 16.625L2.69018 17.375C3.44957 18.6903 5.13145 19.141 6.44675 18.3816L5.69675 17.0825ZM3.98922 16.625C3.64404 16.0271 3.84889 15.2626 4.44675 14.9175L3.69675 13.6184C2.38145 14.3778 1.93079 16.0597 2.69018 17.375L3.98922 16.625ZM4.44675 14.9175C5.04462 14.5723 5.80911 14.7771 6.15429 15.375L7.45332 14.625C6.69393 13.3097 5.01206 12.859 3.69675 13.6184L4.44675 14.9175ZM6.15429 15.375C6.49946 15.9729 6.29462 16.7373 5.69675 17.0825L6.44675 18.3816C7.76206 17.6222 8.21271 15.9403 7.45332 14.625L6.15429 15.375ZM18.3031 17.0825C17.7052 16.7373 17.5004 15.9729 17.8456 15.375L16.5465 14.625C15.7871 15.9403 16.2378 17.6222 17.5531 18.3816L18.3031 17.0825ZM17.8456 15.375C18.1908 14.7771 18.9552 14.5723 19.5531 14.9175L20.3031 13.6184C18.9878 12.859 17.3059 13.3097 16.5465 14.625L17.8456 15.375ZM19.5531 14.9175C20.151 15.2626 20.3558 16.0271 20.0106 16.625L21.3097 17.375C22.0691 16.0597 21.6184 14.3778 20.3031 13.6184L19.5531 14.9175ZM20.0106 16.625C19.6655 17.2229 18.901 17.4277 18.3031 17.0825L17.5531 18.3816C18.8684 19.141 20.5503 18.6903 21.3097 17.375L20.0106 16.625ZM4.44675 9.08256C3.84889 8.73738 3.64404 7.97289 3.98922 7.37503L2.69018 6.62503C1.93079 7.94033 2.38145 9.6222 3.69675 10.3816L4.44675 9.08256ZM3.98922 7.37503C4.3344 6.77716 5.09889 6.57232 5.69675 6.91749L6.44675 5.61846C5.13145 4.85906 3.44958 5.30972 2.69018 6.62503L3.98922 7.37503ZM5.69675 6.91749C6.29462 7.26267 6.49946 8.02716 6.15429 8.62503L7.45332 9.37503C8.21271 8.05972 7.76206 6.37785 6.44675 5.61846L5.69675 6.91749ZM6.15429 8.62503C5.80911 9.22289 5.04462 9.42774 4.44675 9.08256L3.69675 10.3816C5.01206 11.141 6.69393 10.6903 7.45332 9.37503L6.15429 8.62503Z" fill="#344054"/>
</svg>
