<svg width="24" height="24" viewBox="0 0 24 24" fill="none" xmlns="http://www.w3.org/2000/svg">
<path d="M15.9999 15.25C15.5857 15.25 15.2499 15.5858 15.2499 16C15.2499 16.4142 15.5857 16.75 15.9999 16.75V15.25ZM7.99993 16.75C8.41414 16.75 8.74993 16.4142 8.74993 16C8.74993 15.5858 8.41414 15.25 7.99993 15.25V16.75ZM18.2499 9.11111C18.2499 10.8311 17.2711 12.8886 15.9047 14.5523C15.2307 15.373 14.4898 16.0632 13.7812 16.5419C13.0565 17.0316 12.4404 17.25 11.9999 17.25V18.75C12.872 18.75 13.7871 18.3483 14.621 17.7849C15.471 17.2106 16.316 16.4149 17.0639 15.5043C18.5413 13.7054 19.7499 11.3185 19.7499 9.11111H18.2499ZM11.9999 17.25C11.5595 17.25 10.9433 17.0316 10.2186 16.5419C9.51003 16.0632 8.76915 15.373 8.09514 14.5523C6.72878 12.8886 5.74993 10.8311 5.74993 9.11111H4.24993C4.24993 11.3185 5.45857 13.7054 6.93596 15.5043C7.68383 16.4149 8.52888 17.2106 9.37888 17.7849C10.2128 18.3483 11.1279 18.75 11.9999 18.75V17.25ZM5.74993 9.11111C5.74993 5.58679 8.55924 2.75 11.9999 2.75V1.25C7.70863 1.25 4.24993 4.78072 4.24993 9.11111H5.74993ZM11.9999 2.75C15.4406 2.75 18.2499 5.58679 18.2499 9.11111H19.7499C19.7499 4.78072 16.2912 1.25 11.9999 1.25V2.75ZM13.7499 9C13.7499 9.9665 12.9664 10.75 11.9999 10.75V12.25C13.7949 12.25 15.2499 10.7949 15.2499 9H13.7499ZM11.9999 10.75C11.0334 10.75 10.2499 9.9665 10.2499 9H8.74993C8.74993 10.7949 10.205 12.25 11.9999 12.25V10.75ZM10.2499 9C10.2499 8.0335 11.0334 7.25 11.9999 7.25V5.75C10.205 5.75 8.74993 7.20507 8.74993 9H10.2499ZM11.9999 7.25C12.9664 7.25 13.7499 8.0335 13.7499 9H15.2499C15.2499 7.20507 13.7949 5.75 11.9999 5.75V7.25ZM3.2948 16.9423L2.46146 18.9423L3.84608 19.5192L4.67941 17.5192L3.2948 16.9423ZM4.99993 22.75H18.9999V21.25H4.99993V22.75ZM21.5384 18.9423L20.7051 16.9423L19.3204 17.5192L20.1538 19.5192L21.5384 18.9423ZM18.1666 15.25H15.9999V16.75H18.1666V15.25ZM5.83326 16.75H7.99993V15.25H5.83326V16.75ZM20.7051 16.9423C20.2781 15.9175 19.2768 15.25 18.1666 15.25V16.75C18.6712 16.75 19.1264 17.0534 19.3204 17.5192L20.7051 16.9423ZM18.9999 22.75C20.9623 22.75 22.2931 20.7537 21.5384 18.9423L20.1538 19.5192C20.4968 20.3426 19.8919 21.25 18.9999 21.25V22.75ZM2.46146 18.9423C1.70672 20.7537 3.03759 22.75 4.99993 22.75V21.25C4.10795 21.25 3.50301 20.3426 3.84608 19.5192L2.46146 18.9423ZM4.67941 17.5192C4.8735 17.0534 5.32863 16.75 5.83326 16.75V15.25C4.72308 15.25 3.72179 15.9175 3.2948 16.9423L4.67941 17.5192Z" fill="#344054"/>
</svg>
