<svg width="24" height="24" viewBox="0 0 24 24" fill="none" xmlns="http://www.w3.org/2000/svg">
<path d="M3.17449 5.24035C3.72741 4.82228 4.54868 4.24299 5.44982 3.74585C6.3646 3.24117 7.29651 2.85811 8.08343 2.77002L7.91657 1.27933C6.83621 1.40026 5.6981 1.89575 4.72524 2.43246C3.73872 2.9767 2.85471 3.60163 2.26981 4.04388L3.17449 5.24035ZM8.08343 2.77002C9.4033 2.62229 10.3425 3.30116 11.5459 4.21663C12.6833 5.08191 14.085 6.1838 16.0834 5.96011L15.9166 4.46942C14.5967 4.61716 13.6575 3.93829 12.4541 3.02281C11.3167 2.15753 9.91501 1.05564 7.91657 1.27933L8.08343 2.77002ZM16.0834 5.96011C17.6918 5.78008 19.4673 4.75989 20.6821 3.9436L19.8454 2.69859C18.6412 3.50784 17.1308 4.33351 15.9166 4.46942L16.0834 5.96011ZM16.0834 18.7205C17.1638 18.5995 18.3019 18.1041 19.2748 17.5673C20.2613 17.0231 21.1453 16.3982 21.7302 15.9559L20.8255 14.7594C20.2726 15.1775 19.4513 15.7568 18.5502 16.254C17.6354 16.7586 16.7035 17.1417 15.9166 17.2298L16.0834 18.7205ZM21.25 4.19343V13.8628H22.75V4.19343H21.25ZM2.75 15.8064V6.13696H1.25V15.8064H2.75ZM21.7302 15.9559C22.3994 15.4499 22.75 14.6637 22.75 13.8628H21.25C21.25 14.2323 21.0899 14.5595 20.8255 14.7594L21.7302 15.9559ZM3.31795 16.0562C3.21451 16.1257 3.07068 16.1359 2.93501 16.0688C2.80323 16.0036 2.75 15.9039 2.75 15.8064H1.25C1.25 17.3238 3.00174 18.0759 4.15459 17.3012L3.31795 16.0562ZM20.6821 3.9436C20.7855 3.87409 20.9293 3.86386 21.065 3.93097C21.1968 3.99615 21.25 4.09592 21.25 4.19343H22.75C22.75 2.67597 20.9983 1.92388 19.8454 2.69859L20.6821 3.9436ZM2.26981 4.04388C1.60064 4.54986 1.25 5.33609 1.25 6.13696H2.75C2.75 5.76745 2.91011 5.44026 3.17449 5.24035L2.26981 4.04388ZM4.15459 17.3012C5.08473 16.6761 6.2287 16.0191 7.28364 15.7015L6.8512 14.2652C5.58032 14.6478 4.28845 15.404 3.31795 16.0562L4.15459 17.3012Z" fill="#344054"/>
<path d="M17 14.8C17 17.451 14.5 22 12 22C9.5 22 7 17.451 7 14.8C7 12.149 9.23858 10 12 10C14.7614 10 17 12.149 17 14.8Z" stroke="#344054" stroke-width="1.5"/>
<path d="M13.5 14.5C13.5 15.3284 12.8284 16 12 16C11.1716 16 10.5 15.3284 10.5 14.5C10.5 13.6716 11.1716 13 12 13C12.8284 13 13.5 13.6716 13.5 14.5Z" stroke="#344054" stroke-width="1.5"/>
</svg>
