<svg width="24" height="24" viewBox="0 0 24 24" fill="none" xmlns="http://www.w3.org/2000/svg">
<path d="M2.82154 9.51314C3.27579 9.15397 4.13204 8.51085 5.12191 7.9322C6.1296 7.34314 7.1951 6.86946 8.08343 6.77002L7.91657 5.27933C6.70772 5.41464 5.4203 6.02028 4.36491 6.63723C3.29171 7.26459 2.37474 7.95417 1.89118 8.33653L2.82154 9.51314ZM8.08343 6.77002C9.4033 6.62229 10.3425 7.30116 11.5459 8.21663C12.6833 9.08191 14.085 10.1838 16.0834 9.96011L15.9166 8.46942C14.5967 8.61716 13.6575 7.93829 12.4541 7.02281C11.3167 6.15753 9.91501 5.05564 7.91657 5.27933L8.08343 6.77002ZM16.0834 9.96011C17.6918 9.78008 19.4673 8.75989 20.6821 7.9436L19.8454 6.69859C18.6412 7.50784 17.1308 8.33351 15.9166 8.46942L16.0834 9.96011ZM4.15459 21.3012C5.35883 20.492 6.8692 19.6663 8.08343 19.5304L7.91657 18.0397C6.30818 18.2197 4.53267 19.2399 3.31795 20.0562L4.15459 21.3012ZM8.08343 19.5304C9.4033 19.3826 10.3425 20.0615 11.5459 20.977C12.6833 21.8423 14.085 22.9442 16.0834 22.7205L15.9166 21.2298C14.5967 21.3775 13.6575 20.6986 12.4541 19.7832C11.3167 18.9179 9.91501 17.816 7.91657 18.0397L8.08343 19.5304ZM16.0834 22.7205C17.2923 22.5852 18.5797 21.9795 19.6351 21.3626C20.7083 20.7352 21.6253 20.0456 22.1088 19.6633L21.1785 18.4867C20.7242 18.8458 19.868 19.489 18.8781 20.0676C17.8704 20.6567 16.8049 21.1303 15.9166 21.2298L16.0834 22.7205ZM21.25 8.19343V18.3239H22.75V8.19343H21.25ZM2.75 19.8064V9.67586H1.25V19.8064H2.75ZM22.1088 19.6633C22.5281 19.3317 22.75 18.833 22.75 18.3239H21.25C21.25 18.4001 21.2182 18.4552 21.1785 18.4867L22.1088 19.6633ZM3.31795 20.0562C3.21451 20.1257 3.07068 20.1359 2.93501 20.0688C2.80323 20.0036 2.75 19.9039 2.75 19.8064H1.25C1.25 21.3238 3.00174 22.0759 4.15459 21.3012L3.31795 20.0562ZM20.6821 7.9436C20.7855 7.87409 20.9293 7.86386 21.065 7.93097C21.1968 7.99615 21.25 8.09592 21.25 8.19343H22.75C22.75 6.67597 20.9983 5.92388 19.8454 6.69859L20.6821 7.9436ZM1.89118 8.33653C1.4719 8.66806 1.25 9.16682 1.25 9.67586H2.75C2.75 9.59972 2.78179 9.54458 2.82154 9.51314L1.89118 8.33653Z" fill="#344054"/>
<path d="M16 6C17.1046 6 18 5.10457 18 4C18 2.89543 17.1046 2 16 2C14.8954 2 14 2.89543 14 4C14 5.10457 14.8954 6 16 6Z" stroke="#344054" stroke-width="1.5"/>
<path d="M15.25 14C15.25 14.4142 15.5858 14.75 16 14.75C16.4142 14.75 16.75 14.4142 16.75 14H15.25ZM16.75 6C16.75 5.58579 16.4142 5.25 16 5.25C15.5858 5.25 15.25 5.58579 15.25 6H16.75ZM16.75 14V6H15.25V14H16.75Z" fill="#344054"/>
</svg>
