<svg width="24" height="24" viewBox="0 0 24 24" fill="none" xmlns="http://www.w3.org/2000/svg">
<path d="M15.5 12.25C15.5 12.9404 16.0596 13.5 16.75 13.5C17.4404 13.5 18 12.9404 18 12.25C18 11.5596 17.4404 11 16.75 11C16.0596 11 15.5 11.5596 15.5 12.25Z" fill="#344054"/>
<path d="M10.5 12.25C10.5 12.9404 11.0596 13.5 11.75 13.5C12.4404 13.5 13 12.9404 13 12.25C13 11.5596 12.4404 11 11.75 11C11.0596 11 10.5 11.5596 10.5 12.25Z" fill="#344054"/>
<path d="M5.5 12.25C5.5 12.9404 6.05964 13.5 6.75 13.5C7.44036 13.5 8 12.9404 8 12.25C8 11.5596 7.44036 11 6.75 11C6.05964 11 5.5 11.5596 5.5 12.25Z" fill="#344054"/>
</svg>
