<svg width="24" height="24" viewBox="0 0 24 24" fill="none" xmlns="http://www.w3.org/2000/svg">
<path d="M7.72981 21.045L8.05046 20.367C7.91224 20.3017 7.75734 20.2801 7.60651 20.3052L7.72981 21.045ZM2.93562 16.229L3.67595 16.3491C3.70005 16.2004 3.67884 16.0479 3.61508 15.9115L2.93562 16.229ZM21.25 12C21.25 17.1086 17.1087 21.25 12 21.25V22.75C17.9371 22.75 22.75 17.9371 22.75 12H21.25ZM2.75 12C2.75 6.89137 6.89136 2.75 12 2.75V1.25C6.06293 1.25 1.25 6.06294 1.25 12H2.75ZM12 2.75C17.1087 2.75 21.25 6.89137 21.25 12H22.75C22.75 6.06294 17.9371 1.25 12 1.25V2.75ZM3.49779 22.5107L7.85311 21.7848L7.60651 20.3052L3.25119 21.0311L3.49779 22.5107ZM12 21.25C10.5856 21.25 9.24731 20.9331 8.05046 20.367L7.40916 21.723C8.80229 22.3819 10.3592 22.75 12 22.75V21.25ZM3.61508 15.9115C3.06027 14.7244 2.75 13.3995 2.75 12H1.25C1.25 13.6234 1.61036 15.1648 2.25616 16.5466L3.61508 15.9115ZM2.19529 16.109L1.48265 20.5044L2.96332 20.7445L3.67595 16.3491L2.19529 16.109ZM3.25119 21.0311C3.08245 21.0592 2.93594 20.9134 2.96332 20.7445L1.48265 20.5044C1.291 21.6865 2.31657 22.7076 3.49779 22.5107L3.25119 21.0311Z" fill="#344054"/>
<path d="M10 9L6 15L10 12L14 15L18 9L14 12L10 9Z" fill="#344054"/>
</svg>
