<svg width="24" height="24" viewBox="0 0 24 24" fill="none" xmlns="http://www.w3.org/2000/svg">
<path d="M14 18.75H20V17.25H14V18.75ZM20 21.25H14V22.75H20V21.25ZM14 21.25C13.3096 21.25 12.75 20.6904 12.75 20H11.25C11.25 21.5188 12.4812 22.75 14 22.75V21.25ZM21.25 20C21.25 20.6904 20.6903 21.25 20 21.25V22.75C21.5188 22.75 22.75 21.5188 22.75 20H21.25ZM20 18.75C20.6903 18.75 21.25 19.3096 21.25 20H22.75C22.75 18.4812 21.5188 17.25 20 17.25V18.75ZM14 17.25C12.4812 17.25 11.25 18.4812 11.25 20H12.75C12.75 19.3096 13.3096 18.75 14 18.75V17.25ZM14 17.25C13.3096 17.25 12.75 16.6904 12.75 16H11.25C11.25 17.5188 12.4812 18.75 14 18.75V17.25ZM21.25 16C21.25 16.6904 20.6903 17.25 20 17.25V18.75C21.5188 18.75 22.75 17.5188 22.75 16H21.25ZM20 14.75C20.6903 14.75 21.25 15.3096 21.25 16H22.75C22.75 14.4812 21.5188 13.25 20 13.25V14.75ZM14 13.25C12.4812 13.25 11.25 14.4812 11.25 16H12.75C12.75 15.3096 13.3096 14.75 14 14.75V13.25ZM11.3245 7.75H12.6754V6.25H11.3245V7.75ZM13.6754 21.25H10.3245V22.75H13.6754V21.25ZM5.34393 14.3398L6.34393 11.3398L4.9209 10.8655L3.9209 13.8655L5.34393 14.3398ZM10.3245 21.25C6.74109 21.25 4.21075 17.7393 5.34393 14.3398L3.9209 13.8655C2.46396 18.2363 5.71725 22.75 10.3245 22.75V21.25ZM12.6754 7.75C14.9352 7.75 16.9414 9.19601 17.656 11.3398L19.079 10.8655C18.1603 8.10915 15.5808 6.25 12.6754 6.25V7.75ZM11.3245 6.25C8.41911 6.25 5.83967 8.10915 4.9209 10.8655L6.34393 11.3398C7.05853 9.19601 9.06475 7.75 11.3245 7.75V6.25ZM17.656 11.3398L18.6218 14.2372L20.0448 13.7628L19.079 10.8655L17.656 11.3398ZM14 14.75H19.3333V13.25H14V14.75ZM19.3333 14.75H20V13.25H19.3333V14.75Z" fill="#344054"/>
<path d="M14.0855 6.99965V7.74965C14.3022 7.74965 14.5084 7.65589 14.6508 7.49252L14.0855 6.99965ZM9.91375 6.99965L9.34843 7.49252C9.49087 7.65588 9.69701 7.74965 9.91375 7.74965V6.99965ZM14.0855 6.24965H9.91375V7.74965H14.0855V6.24965ZM10.479 6.50678L9.07798 4.89974L7.94735 5.88547L9.34843 7.49252L10.479 6.50678ZM14.9213 4.89974L13.5202 6.50678L14.6508 7.49252L16.0519 5.88547L14.9213 4.89974ZM10.5164 2.82328L11.4442 3.12257L11.9047 1.69501L10.9769 1.39572L10.5164 2.82328ZM12.555 3.12257L13.4828 2.82328L13.0223 1.39572L12.0945 1.69501L12.555 3.12257ZM11.4442 3.12257C11.8051 3.23901 12.1941 3.23901 12.555 3.12257L12.0945 1.69501C12.033 1.71486 11.9662 1.71486 11.9047 1.69501L11.4442 3.12257ZM16.0519 5.88547C17.9606 3.69616 15.6989 0.532244 13.0223 1.39572L13.4828 2.82328C14.8166 2.39301 15.7594 3.9384 14.9213 4.89974L16.0519 5.88547ZM9.07798 4.89974C8.23985 3.9384 9.18268 2.39301 10.5164 2.82328L10.9769 1.39572C8.3003 0.532244 6.03861 3.69615 7.94735 5.88547L9.07798 4.89974Z" fill="#344054"/>
</svg>
