<svg width="24" height="24" viewBox="0 0 24 24" fill="none" xmlns="http://www.w3.org/2000/svg">
<path d="M13 20.75C13.4142 20.75 13.75 20.4142 13.75 20C13.75 19.5858 13.4142 19.25 13 19.25V20.75ZM21.25 11.5C21.25 11.9142 21.5858 12.25 22 12.25C22.4142 12.25 22.75 11.9142 22.75 11.5H21.25ZM6 4.75H18V3.25H6V4.75ZM13 19.25H6V20.75H13V19.25ZM2.75 16V8H1.25V16H2.75ZM21.25 8V11.5H22.75V8H21.25ZM6 19.25C4.20507 19.25 2.75 17.7949 2.75 16H1.25C1.25 18.6234 3.37665 20.75 6 20.75V19.25ZM18 4.75C19.7949 4.75 21.25 6.20507 21.25 8H22.75C22.75 5.37665 20.6234 3.25 18 3.25V4.75ZM6 3.25C3.37665 3.25 1.25 5.37665 1.25 8H2.75C2.75 6.20507 4.20507 4.75 6 4.75V3.25Z" fill="#344054"/>
<path d="M6 7C6.55228 7 7 7.44772 7 8C7 8.55228 6.55228 9 6 9C5.44772 9 5 8.55228 5 8C5 7.44772 5.44772 7 6 7Z" fill="#344054"/>
<path d="M12 10C13.1046 10 14 10.8954 14 12C14 13.1046 13.1046 14 12 14C10.8954 14 10 13.1046 10 12C10 10.8954 10.8954 10 12 10Z" stroke="#344054" stroke-width="1.5"/>
<path d="M19 14C20.1046 14 21 14.8954 21 16C21 17.1046 20.1046 18 19 18C17.8954 18 17 17.1046 17 16C17 14.8954 17.8954 14 19 14Z" stroke="#344054" stroke-width="1.5"/>
<path d="M22.6708 19.6641C22.8563 20.0345 22.7064 20.4851 22.3361 20.6706C21.9657 20.8561 21.5151 20.7062 21.3296 20.3359L22.6708 19.6641ZM16.6708 20.3359C16.4853 20.7062 16.0347 20.8561 15.6643 20.6706C15.294 20.4851 15.1441 20.0345 15.3296 19.6641L16.6708 20.3359ZM21.3296 20.3359C20.8337 19.3457 19.9478 18.75 19.0002 18.75V17.25C20.6164 17.25 21.9691 18.2631 22.6708 19.6641L21.3296 20.3359ZM19.0002 18.75C18.0526 18.75 17.1667 19.3457 16.6708 20.3359L15.3296 19.6641C16.0313 18.2631 17.384 17.25 19.0002 17.25V18.75Z" fill="#344054"/>
</svg>
