<svg width="24" height="24" viewBox="0 0 24 24" fill="none" xmlns="http://www.w3.org/2000/svg">
<path d="M18 8H6C4.34315 8 3 9.34315 3 11V19C3 20.6569 4.34315 22 6 22H18C19.6569 22 21 20.6569 21 19V11C21 9.34315 19.6569 8 18 8Z" stroke="#344054" stroke-width="1.5"/>
<path d="M18 18C18.5523 18 19 18.4477 19 19C19 19.5523 18.5523 20 18 20C17.4477 20 17 19.5523 17 19C17 18.4477 17.4477 18 18 18Z" fill="#344054"/>
<path d="M6 10C6.55228 10 7 10.4477 7 11C7 11.5523 6.55228 12 6 12C5.44772 12 5 11.5523 5 11C5 10.4477 5.44772 10 6 10Z" fill="#344054"/>
<path d="M12 13C13.1046 13 14 13.8954 14 15C14 16.1046 13.1046 17 12 17C10.8954 17 10 16.1046 10 15C10 13.8954 10.8954 13 12 13Z" stroke="#344054" stroke-width="1.5"/>
<path d="M14.5303 4.44454C14.8232 4.15165 14.8232 3.67678 14.5303 3.38388C14.2374 3.09099 13.7626 3.09099 13.4697 3.38388L14.5303 4.44454ZM10.5303 3.38388C10.2374 3.09099 9.76256 3.09099 9.46967 3.38388C9.17678 3.67678 9.17678 4.15165 9.46967 4.44454L10.5303 3.38388ZM12.75 2C12.75 1.58579 12.4142 1.25 12 1.25C11.5858 1.25 11.25 1.58579 11.25 2H12.75ZM11.25 4.91421C11.25 5.32843 11.5858 5.66421 12 5.66421C12.4142 5.66421 12.75 5.32843 12.75 4.91421H11.25ZM13.4697 3.38388L12.1768 4.67678L13.2374 5.73744L14.5303 4.44454L13.4697 3.38388ZM11.8232 4.67678L10.5303 3.38388L9.46967 4.44454L10.7626 5.73744L11.8232 4.67678ZM12.1768 4.67678C12.0791 4.77441 11.9209 4.77441 11.8232 4.67678L10.7626 5.73744C11.446 6.42085 12.554 6.42086 13.2374 5.73744L12.1768 4.67678ZM11.25 2V4.91421H12.75V2H11.25Z" fill="#344054"/>
</svg>
