<svg width="24" height="24" viewBox="0 0 24 24" fill="none" xmlns="http://www.w3.org/2000/svg">
<path d="M20.25 11.9997C20.25 12.4139 20.5858 12.7497 21 12.7497C21.4142 12.7497 21.75 12.4139 21.75 11.9997H20.25ZM8.25 13.9997C8.25 14.4139 8.58579 14.7497 9 14.7497C9.41421 14.7497 9.75 14.4139 9.75 13.9997H8.25ZM20.25 16.9997C20.25 18.2424 19.2426 19.2497 18 19.2497V20.7497C20.0711 20.7497 21.75 19.0708 21.75 16.9997H20.25ZM18 19.2497C16.7574 19.2497 15.75 18.2424 15.75 16.9997H14.25C14.25 19.0708 15.9289 20.7497 18 20.7497V19.2497ZM15.75 16.9997C15.75 15.7571 16.7574 14.7497 18 14.7497V13.2497C15.9289 13.2497 14.25 14.9287 14.25 16.9997H15.75ZM18 14.7497C19.2426 14.7497 20.25 15.7571 20.25 16.9997H21.75C21.75 14.9287 20.0711 13.2497 18 13.2497V14.7497ZM8.25 18.9997C8.25 20.2424 7.24264 21.2497 6 21.2497V22.7497C8.07107 22.7497 9.75 21.0708 9.75 18.9997H8.25ZM6 21.2497C4.75736 21.2497 3.75 20.2424 3.75 18.9997H2.25C2.25 21.0708 3.92893 22.7497 6 22.7497V21.2497ZM3.75 18.9997C3.75 17.7571 4.75736 16.7497 6 16.7497V15.2497C3.92893 15.2497 2.25 16.9287 2.25 18.9997H3.75ZM6 16.7497C7.24264 16.7497 8.25 17.7571 8.25 18.9997H9.75C9.75 16.9287 8.07107 15.2497 6 15.2497V16.7497ZM21.75 16.9997V10.7746H20.25V16.9997H21.75ZM18.1304 8.16569L11.4979 10.3765L11.9723 11.7995L18.6047 9.58872L18.1304 8.16569ZM8.25 14.8828V18.9997H9.75V14.8828H8.25ZM11.4979 10.3765C9.55829 11.0231 8.25 12.8382 8.25 14.8828H9.75C9.75 13.4839 10.6451 12.2419 11.9723 11.7995L11.4979 10.3765ZM21.75 10.7746C21.75 8.89754 19.9111 7.57212 18.1304 8.16569L18.6047 9.58872C19.4141 9.31891 20.25 9.92137 20.25 10.7746H21.75ZM21.75 11.9997V4.77457H20.25V11.9997H21.75ZM18.1304 2.16569L11.4979 4.37651L11.9723 5.79954L18.6047 3.58872L18.1304 2.16569ZM8.25 8.88276V13.9997H9.75V8.88276H8.25ZM11.4979 4.37651C9.55829 5.02305 8.25 6.83821 8.25 8.88276H9.75C9.75 7.48386 10.6451 6.24191 11.9723 5.79954L11.4979 4.37651ZM21.75 4.77457C21.75 2.89754 19.9111 1.57212 18.1304 2.16569L18.6047 3.58872C19.4141 3.31891 20.25 3.92137 20.25 4.77457H21.75Z" fill="#344054"/>
</svg>
