<svg width="24" height="24" viewBox="0 0 24 24" fill="none" xmlns="http://www.w3.org/2000/svg">
<path d="M11 9.66628L10.6221 10.3141C10.8541 10.4495 11.1407 10.4504 11.3735 10.3167C11.6064 10.1829 11.75 9.93483 11.75 9.66628H11ZM11 14.333H11.75C11.75 14.0644 11.6064 13.8164 11.3735 13.6826C11.1407 13.5489 10.8541 13.5498 10.6221 13.6851L11 14.333ZM21.75 7.49961C21.75 7.0854 21.4142 6.74961 21 6.74961C20.5858 6.74961 20.25 7.0854 20.25 7.49961H21.75ZM20.25 16.4996C20.25 16.9139 20.5858 17.2496 21 17.2496C21.4142 17.2496 21.75 16.9139 21.75 16.4996H20.25ZM14.3856 17.893L20.4164 14.375L19.6606 13.0794L13.6298 16.5973L14.3856 17.893ZM20.4164 9.62422L14.3856 6.10629L13.6298 7.40196L19.6606 10.9199L20.4164 9.62422ZM20.4164 14.375C22.2355 13.3139 22.2355 10.6854 20.4164 9.62422L19.6606 10.9199C20.4875 11.4023 20.4874 12.597 19.6606 13.0794L20.4164 14.375ZM13.6298 16.5973C12.7965 17.0834 11.75 16.4823 11.75 15.5176H10.25C10.25 17.64 12.5523 18.9624 14.3856 17.893L13.6298 16.5973ZM14.3856 6.10629C12.5523 5.03686 10.25 6.35927 10.25 8.48169H11.75C11.75 7.51695 12.7965 6.91586 13.6298 7.40196L14.3856 6.10629ZM5.62984 16.5973C4.79652 17.0834 3.75 16.4823 3.75 15.5176H2.25C2.25 17.64 4.55234 18.9624 6.38565 17.893L5.62984 16.5973ZM6.38564 6.10629C4.55233 5.03686 2.25 6.35927 2.25 8.48169H3.75C3.75 7.51695 4.79652 6.91586 5.62984 7.40196L6.38564 6.10629ZM2.25 8.48169V15.5176H3.75V8.48169H2.25ZM10.25 8.48169V9.66628H11.75V8.48169H10.25ZM11.3779 9.01845L6.38564 6.10629L5.62984 7.40196L10.6221 10.3141L11.3779 9.01845ZM10.25 14.333V15.5176H11.75V14.333H10.25ZM6.38565 17.893L11.3779 14.9808L10.6221 13.6851L5.62984 16.5973L6.38565 17.893ZM20.25 7.49961V16.4996H21.75V7.49961H20.25Z" fill="#344054"/>
</svg>
