<svg width="24" height="24" viewBox="0 0 24 24" fill="none" xmlns="http://www.w3.org/2000/svg">
<path d="M19.2887 6.23737C19.4197 6.63033 19.8444 6.8427 20.2374 6.71171C20.6303 6.58072 20.8427 6.15598 20.7117 5.76303L19.2887 6.23737ZM16.2374 1.28869C15.8444 1.1577 15.4197 1.37007 15.2887 1.76303C15.1577 2.15599 15.3701 2.58073 15.763 2.71171L16.2374 1.28869ZM15.7025 20.2634C15.8479 19.8755 15.6513 19.4433 15.2634 19.2979C14.8755 19.1525 14.4433 19.3491 14.2979 19.737L15.7025 20.2634ZM9.7025 19.737C9.55714 19.3491 9.12487 19.1525 8.737 19.2979C8.34913 19.4433 8.15254 19.8755 8.2979 20.2634L9.7025 19.737ZM3.28869 5.76303C3.1577 6.15599 3.37007 6.58073 3.76303 6.71171C4.15599 6.8427 4.58073 6.63033 4.71171 6.23737L3.28869 5.76303ZM8.23737 2.71171C8.63033 2.58073 8.8427 2.15599 8.71171 1.76303C8.58073 1.37007 8.15599 1.1577 7.76303 1.28869L8.23737 2.71171ZM19.2374 6.08342L19.2887 6.23737L20.7117 5.76303L20.6604 5.60908L19.2374 6.08342ZM15.763 2.71171L15.917 2.76303L16.3913 1.34L16.2374 1.28869L15.763 2.71171ZM20.6604 5.60908C19.9885 3.5935 18.4069 2.01187 16.3913 1.34L15.917 2.76303C17.4847 3.28559 18.7148 4.51574 19.2374 6.08342L20.6604 5.60908ZM18.1701 17.2502H5.83034V18.7502H18.1701V17.2502ZM17.5753 9.87866L17.9202 12.9231L19.4107 12.7543L19.0658 9.70981L17.5753 9.87866ZM6.08019 12.9231L6.42507 9.87866L4.9346 9.70981L4.58973 12.7543L6.08019 12.9231ZM5.02726 15.3659C5.61193 14.6777 5.97795 13.8257 6.08019 12.9231L4.58973 12.7543C4.52058 13.3647 4.2734 13.9365 3.88413 14.3946L5.02726 15.3659ZM17.9202 12.9231C18.0225 13.8257 18.3885 14.6777 18.9731 15.3659L20.1163 14.3946C19.727 13.9365 19.4798 13.3647 19.4107 12.7543L17.9202 12.9231ZM5.83034 17.2502C4.94355 17.2502 4.37946 16.1283 5.02726 15.3659L3.88413 14.3946C2.46511 16.0649 3.57848 18.7502 5.83034 18.7502V17.2502ZM18.1701 18.7502C20.4219 18.7502 21.5353 16.0649 20.1163 14.3946L18.9731 15.3659C19.6209 16.1283 19.0569 17.2502 18.1701 17.2502V18.7502ZM19.0658 9.70981C18.6506 6.04493 15.6281 3.2502 12.0002 3.2502V4.7502C14.8304 4.7502 17.2421 6.93718 17.5753 9.87866L19.0658 9.70981ZM6.42507 9.87866C6.75828 6.93718 9.16997 4.7502 12.0002 4.7502V3.2502C8.37232 3.2502 5.34976 6.04493 4.9346 9.70981L6.42507 9.87866ZM14.2979 19.737C13.9752 20.5981 13.0848 21.2502 12.0002 21.2502V22.7502C13.6857 22.7502 15.1518 21.7327 15.7025 20.2634L14.2979 19.737ZM12.0002 21.2502C10.9156 21.2502 10.0252 20.5981 9.7025 19.737L8.2979 20.2634C8.84855 21.7327 10.3147 22.7502 12.0002 22.7502V21.2502ZM3.34 5.60908L3.28869 5.76303L4.71171 6.23737L4.76303 6.08342L3.34 5.60908ZM7.76303 1.28869L7.60908 1.34L8.08342 2.76303L8.23737 2.71171L7.76303 1.28869ZM4.76303 6.08342C5.28559 4.51575 6.51574 3.28559 8.08342 2.76303L7.60908 1.34C5.5935 2.01187 4.01187 3.5935 3.34 5.60908L4.76303 6.08342Z" fill="#344054"/>
</svg>
