<svg width="24" height="24" viewBox="0 0 24 24" fill="none" xmlns="http://www.w3.org/2000/svg">
<path d="M4 9V17C4 18.6569 5.34315 20 7 20H17C18.6569 20 20 18.6569 20 17V9" stroke="#344054" stroke-width="1.5"/>
<path d="M12.0004 4V3.25H10.6914L11.3534 4.37929L12.0004 4ZM12.0004 4.75H19.2633V3.25H12.0004V4.75ZM19.454 4.86479L21.2126 7.86479L22.5067 7.10622L20.7481 4.10622L19.454 4.86479ZM21.0219 8.25H16.0378V9.75H21.0219V8.25ZM15.0092 7.6497L12.6474 3.62071L11.3534 4.37929L13.7152 8.40828L15.0092 7.6497ZM16.0378 8.25C15.6232 8.25 15.2306 8.02741 15.0092 7.6497L13.7152 8.40828C14.2 9.2354 15.0796 9.75 16.0378 9.75V8.25ZM21.2126 7.86479C21.264 7.95235 21.2609 8.04803 21.2158 8.12966C21.1711 8.21037 21.1022 8.25 21.0219 8.25V9.75C22.3909 9.75 23.1752 8.24655 22.5067 7.10622L21.2126 7.86479ZM19.2633 4.75C19.3346 4.75 19.4092 4.7883 19.454 4.86479L20.7481 4.10622C20.4398 3.5803 19.8783 3.25 19.2633 3.25V4.75Z" fill="#344054"/>
<path d="M11.9998 4L12.6468 4.37929L13.3088 3.25H11.9998V4ZM11.9998 3.25H4.73693V4.75H11.9998V3.25ZM3.25213 4.10622L1.49352 7.10622L2.78757 7.86479L4.54618 4.86479L3.25213 4.10622ZM2.97832 9.75H7.96245V8.25H2.97832V9.75ZM10.285 8.40828L12.6468 4.37929L11.3528 3.62071L8.99098 7.6497L10.285 8.40828ZM7.96245 9.75C8.92066 9.75 9.80017 9.2354 10.285 8.40828L8.99098 7.6497C8.76957 8.02741 8.37699 8.25 7.96245 8.25V9.75ZM1.49352 7.10622C0.825051 8.24655 1.60927 9.75 2.97832 9.75V8.25C2.89803 8.25 2.82906 8.21037 2.78442 8.12966C2.73926 8.04803 2.73625 7.95235 2.78757 7.86479L1.49352 7.10622ZM4.73693 3.25C4.12191 3.25 3.56043 3.5803 3.25213 4.10622L4.54618 4.86479C4.59103 4.7883 4.66558 4.75 4.73693 4.75V3.25Z" fill="#344054"/>
</svg>
