<svg width="24" height="24" viewBox="0 0 24 24" fill="none" xmlns="http://www.w3.org/2000/svg">
<path d="M9.01554 16.0447C9.30843 15.7517 9.30843 15.2769 9.01554 14.9841C8.72264 14.6912 8.24777 14.6912 7.95488 14.9841L9.01554 16.0447ZM2.46967 20.4692C2.17678 20.7621 2.17678 21.2369 2.46967 21.5299C2.76256 21.8228 3.23744 21.8228 3.53033 21.5299L2.46967 20.4692ZM13.8575 4.13085L19.8687 10.1421L20.9294 9.08139L14.9181 3.07018L13.8575 4.13085ZM12.2834 17.7274L6.27216 11.7162L5.2115 12.7769L11.2227 18.788L12.2834 17.7274ZM9.15416 8.70106L10.8424 7.01283L9.78173 5.95217L8.0935 7.6404L9.15416 8.70106ZM16.9867 13.1572L15.2985 14.8454L16.3591 15.9061L18.0474 14.2178L16.9867 13.1572ZM15.2985 14.8454C14.7756 15.3682 14.4819 16.0773 14.4819 16.8167H15.9819C15.9819 16.4752 16.1176 16.1476 16.3591 15.9061L15.2985 14.8454ZM7.18283 9.51761C7.92222 9.51761 8.63133 9.22389 9.15416 8.70106L8.0935 7.6404C7.85197 7.88192 7.5244 8.01761 7.18283 8.01761V9.51761ZM10.1589 5.04151C10.1589 5.38307 10.0233 5.71065 9.78173 5.95217L10.8424 7.01283C11.3652 6.49 11.6589 5.7809 11.6589 5.04151H10.1589ZM18.958 12.3406C18.2186 12.3406 17.5095 12.6344 16.9867 13.1572L18.0474 14.2178C18.2889 13.9763 18.6165 13.8406 18.958 13.8406V12.3406ZM6.27216 11.7162C5.46085 10.9049 6.03545 9.51761 7.18283 9.51761V8.01761C4.6991 8.01761 3.45524 11.0206 5.2115 12.7769L6.27216 11.7162ZM11.2227 18.788C12.979 20.5443 15.9819 19.3005 15.9819 16.8167H14.4819C14.4819 17.9641 13.0947 18.5387 12.2834 17.7274L11.2227 18.788ZM19.8687 10.1421C20.68 10.9534 20.1054 12.3406 18.958 12.3406V13.8406C21.4418 13.8406 22.6856 10.8377 20.9294 9.08139L19.8687 10.1421ZM14.9181 3.07018C13.1619 1.31393 10.1589 2.55777 10.1589 5.04151H11.6589C11.6589 3.89414 13.0462 3.31953 13.8575 4.13085L14.9181 3.07018ZM7.95488 14.9841L2.46967 20.4692L3.53033 21.5299L9.01554 16.0447L7.95488 14.9841Z" fill="#344054"/>
</svg>
