<svg width="24" height="24" viewBox="0 0 24 24" fill="none" xmlns="http://www.w3.org/2000/svg">
<path d="M13.0308 9.66628H12.2808C12.2808 9.93483 12.4243 10.1829 12.6572 10.3167C12.8901 10.4504 13.1767 10.4495 13.4087 10.3141L13.0308 9.66628ZM13.0308 14.333L13.4087 13.6851C13.1767 13.5498 12.8901 13.5489 12.6572 13.6826C12.4243 13.8164 12.2808 14.0644 12.2808 14.333H13.0308ZM3.75 6.99961C3.75 6.5854 3.41421 6.24961 3 6.24961C2.58579 6.24961 2.25 6.5854 2.25 6.99961H3.75ZM2.25 16.9996C2.25 17.4139 2.58579 17.7496 3 17.7496C3.41421 17.7496 3.75 17.4139 3.75 16.9996H2.25ZM10.4009 16.5973L4.37019 13.0794L3.61438 14.375L9.64512 17.893L10.4009 16.5973ZM4.37019 10.9199L10.4009 7.40196L9.64512 6.10629L3.61439 9.62422L4.37019 10.9199ZM4.37019 13.0794C3.54331 12.597 3.54331 11.4023 4.37019 10.9199L3.61439 9.62422C1.79525 10.6854 1.79524 13.3139 3.61438 14.375L4.37019 13.0794ZM9.64512 17.893C11.4784 18.9624 13.7808 17.64 13.7808 15.5176H12.2808C12.2808 16.4823 11.2342 17.0834 10.4009 16.5973L9.64512 17.893ZM10.4009 7.40196C11.2342 6.91586 12.2808 7.51695 12.2808 8.48169H13.7808C13.7808 6.35927 11.4784 5.03686 9.64512 6.10629L10.4009 7.40196ZM17.6451 17.893C19.4784 18.9624 21.7808 17.64 21.7808 15.5176H20.2808C20.2808 16.4823 19.2342 17.0834 18.4009 16.5973L17.6451 17.893ZM18.4009 7.40196C19.2342 6.91586 20.2808 7.51695 20.2808 8.48169H21.7808C21.7808 6.35927 19.4784 5.03686 17.6451 6.10629L18.4009 7.40196ZM20.2808 8.48169V15.5176H21.7808V8.48169H20.2808ZM12.2808 8.48169V9.66628H13.7808V8.48169H12.2808ZM13.4087 10.3141L18.4009 7.40196L17.6451 6.10629L12.6529 9.01845L13.4087 10.3141ZM12.2808 14.333V15.5176H13.7808V14.333H12.2808ZM18.4009 16.5973L13.4087 13.6851L12.6529 14.9808L17.6451 17.893L18.4009 16.5973ZM2.25 6.99961V16.9996H3.75V6.99961H2.25Z" fill="#344054"/>
</svg>
