<svg width="24" height="24" viewBox="0 0 24 24" fill="none" xmlns="http://www.w3.org/2000/svg">
<path d="M11 8.75H13V7.25H11V8.75ZM14.25 10V20H15.75V10H14.25ZM13 21.25H11V22.75H13V21.25ZM9.75 20V10H8.25V20H9.75ZM11 21.25C10.3096 21.25 9.75 20.6904 9.75 20H8.25C8.25 21.5188 9.48122 22.75 11 22.75V21.25ZM14.25 20C14.25 20.6904 13.6904 21.25 13 21.25V22.75C14.5188 22.75 15.75 21.5188 15.75 20H14.25ZM13 8.75C13.6904 8.75 14.25 9.30964 14.25 10H15.75C15.75 8.48122 14.5188 7.25 13 7.25V8.75ZM11 7.25C9.48122 7.25 8.25 8.48122 8.25 10H9.75C9.75 9.30964 10.3096 8.75 11 8.75V7.25ZM17 14.75H19V13.25H17V14.75ZM20.25 16V20H21.75V16H20.25ZM19 21.25H17V22.75H19V21.25ZM15.75 20V16H14.25V20H15.75ZM17 21.25C16.3096 21.25 15.75 20.6904 15.75 20H14.25C14.25 21.5188 15.4812 22.75 17 22.75V21.25ZM20.25 20C20.25 20.6904 19.6904 21.25 19 21.25V22.75C20.5188 22.75 21.75 21.5188 21.75 20H20.25ZM19 14.75C19.6904 14.75 20.25 15.3096 20.25 16H21.75C21.75 14.4812 20.5188 13.25 19 13.25V14.75ZM17 13.25C15.4812 13.25 14.25 14.4812 14.25 16H15.75C15.75 15.3096 16.3096 14.75 17 14.75V13.25ZM5 12.75H7V11.25H5V12.75ZM8.25 14V20H9.75V14H8.25ZM7 21.25H5V22.75H7V21.25ZM3.75 20V14H2.25V20H3.75ZM5 21.25C4.30964 21.25 3.75 20.6904 3.75 20H2.25C2.25 21.5188 3.48122 22.75 5 22.75V21.25ZM8.25 20C8.25 20.6904 7.69036 21.25 7 21.25V22.75C8.51878 22.75 9.75 21.5188 9.75 20H8.25ZM7 12.75C7.69036 12.75 8.25 13.3096 8.25 14H9.75C9.75 12.4812 8.51878 11.25 7 11.25V12.75ZM5 11.25C3.48122 11.25 2.25 12.4812 2.25 14H3.75C3.75 13.3096 4.30964 12.75 5 12.75V11.25Z" fill="#344054"/>
<path d="M11.5248 1.96366C11.6744 1.503 12.3262 1.503 12.4758 1.96366L12.6327 2.44643C12.6996 2.65245 12.8916 2.79193 13.1082 2.79193H13.6158C14.1002 2.79193 14.3016 3.41173 13.9097 3.69643L13.4991 3.99481C13.3238 4.12213 13.2505 4.34781 13.3174 4.55383L13.4743 5.0366C13.624 5.49726 13.0967 5.88032 12.7049 5.59562L12.2942 5.29725C12.1189 5.16993 11.8817 5.16993 11.7064 5.29725L11.2957 5.59562C10.9039 5.88032 10.3766 5.49726 10.5263 5.0366L10.6832 4.55383C10.7501 4.34781 10.6768 4.12213 10.5015 3.99481L10.0909 3.69643C9.69899 3.41173 9.90037 2.79193 10.3848 2.79193H10.8924C11.109 2.79193 11.301 2.65245 11.3679 2.44643L11.5248 1.96366Z" fill="#344054"/>
</svg>
