<svg width="24" height="24" viewBox="0 0 24 24" fill="none" xmlns="http://www.w3.org/2000/svg">
<path d="M8.40929 10L8.22433 10.7268C7.89195 10.6423 7.65929 10.343 7.65929 10H8.40929ZM7.65929 7.5C7.65929 7.08579 7.99508 6.75 8.40929 6.75C8.82351 6.75 9.15929 7.08579 9.15929 7.5H7.65929ZM10.5591 9.77316C10.9605 9.87531 11.2031 10.2835 11.101 10.685C10.9988 11.0864 10.5906 11.329 10.1892 11.2268L10.5591 9.77316ZM7.27385 13.1869C7.17061 12.7858 7.4121 12.3769 7.81324 12.2737C8.21438 12.1704 8.62326 12.4119 8.72651 12.8131L7.27385 13.1869ZM11.8741 15.25C13.669 15.25 15.1241 13.7949 15.1241 12H16.6241C16.6241 14.6234 14.4975 16.75 11.8741 16.75V15.25ZM15.1241 12C15.1241 10.2051 13.669 8.75 11.8741 8.75V7.25C14.4975 7.25 16.6241 9.37665 16.6241 12H15.1241ZM11.8741 8.75C10.6721 8.75 9.62157 9.40216 9.0585 10.3755L7.76009 9.62446C8.58025 8.20663 10.115 7.25 11.8741 7.25V8.75ZM7.65929 10V7.5H9.15929V10H7.65929ZM8.59425 9.27316L10.5591 9.77316L10.1892 11.2268L8.22433 10.7268L8.59425 9.27316ZM8.72651 12.8131C9.08733 14.215 10.3608 15.25 11.8741 15.25V16.75C9.65983 16.75 7.80111 15.2355 7.27385 13.1869L8.72651 12.8131Z" fill="#344054"/>
<path d="M17 3H7C4.79086 3 3 4.79086 3 7V17C3 19.2091 4.79086 21 7 21H17C19.2091 21 21 19.2091 21 17V7C21 4.79086 19.2091 3 17 3Z" stroke="#344054" stroke-width="1.5" stroke-linecap="round" stroke-linejoin="round"/>
</svg>
