<svg width="24" height="24" viewBox="0 0 24 24" fill="none" xmlns="http://www.w3.org/2000/svg">
<path d="M14.8289 12.0005L14.2986 11.4701C14.1579 11.6108 14.0789 11.8016 14.0789 12.0005C14.0789 12.1994 14.1579 12.3901 14.2986 12.5308L14.8289 12.0005ZM12.0005 14.8289L12.5308 14.2986C12.3901 14.1579 12.1994 14.0789 12.0005 14.0789C11.8016 14.0789 11.6108 14.1579 11.4701 14.2986L12.0005 14.8289ZM9.17203 12.0005L9.70236 12.5308C9.99525 12.2379 9.99525 11.763 9.70236 11.4701L9.17203 12.0005ZM12.0005 9.17203L11.4701 9.70236C11.6108 9.84301 11.8016 9.92203 12.0005 9.92203C12.1994 9.92203 12.3901 9.84301 12.5308 9.70236L12.0005 9.17203ZM6.87393 17.127C6.38578 16.6388 6.38578 15.8474 6.87393 15.3592L5.81327 14.2986C4.73933 15.3725 4.73933 17.1137 5.81327 18.1876L6.87393 17.127ZM8.6417 17.127C8.15354 17.6151 7.36209 17.6151 6.87393 17.127L5.81327 18.1876C6.88721 19.2616 8.62842 19.2616 9.70236 18.1876L8.6417 17.127ZM17.127 6.87393C17.6151 7.36209 17.6151 8.15354 17.127 8.6417L18.1876 9.70236C19.2616 8.62842 19.2616 6.88721 18.1876 5.81327L17.127 6.87393ZM18.1876 5.81327C17.1137 4.73933 15.3725 4.73933 14.2986 5.81327L15.3592 6.87393C15.8474 6.38578 16.6388 6.38578 17.127 6.87393L18.1876 5.81327ZM6.87393 6.87393C7.36209 6.38578 8.15354 6.38578 8.6417 6.87393L9.70236 5.81327C8.62842 4.73933 6.88721 4.73933 5.81327 5.81327L6.87393 6.87393ZM6.87393 8.6417C6.38578 8.15354 6.38578 7.36209 6.87393 6.87393L5.81327 5.81327C4.73933 6.88721 4.73933 8.62842 5.81327 9.70236L6.87393 8.6417ZM17.127 17.127C16.6388 17.6151 15.8474 17.6151 15.3592 17.127L14.2986 18.1876C15.3725 19.2616 17.1137 19.2616 18.1876 18.1876L17.127 17.127ZM18.1876 18.1876C19.2616 17.1137 19.2616 15.3725 18.1876 14.2986L17.127 15.3592C17.6151 15.8474 17.6151 16.6388 17.127 17.127L18.1876 18.1876ZM14.2986 12.5308L17.127 15.3592L18.1876 14.2986L15.3592 11.4701L14.2986 12.5308ZM17.127 8.6417L14.2986 11.4701L15.3592 12.5308L18.1876 9.70236L17.127 8.6417ZM11.4701 14.2986L8.6417 17.127L9.70236 18.1876L12.5308 15.3592L11.4701 14.2986ZM15.3592 17.127L12.5308 14.2986L11.4701 15.3592L14.2986 18.1876L15.3592 17.127ZM9.70236 11.4701L6.87393 8.6417L5.81327 9.70236L8.6417 12.5308L9.70236 11.4701ZM6.87393 15.3592L9.70236 12.5308L8.6417 11.4701L5.81327 14.2986L6.87393 15.3592ZM8.6417 6.87393L11.4701 9.70236L12.5308 8.6417L9.70236 5.81327L8.6417 6.87393ZM14.2986 5.81327L11.4701 8.6417L12.5308 9.70236L15.3592 6.87393L14.2986 5.81327Z" fill="#344054"/>
</svg>
