<svg width="24" height="24" viewBox="0 0 24 24" fill="none" xmlns="http://www.w3.org/2000/svg">
<path d="M5.24985 12C5.24985 12.4142 5.58564 12.75 5.99985 12.75C6.41406 12.75 6.74985 12.4142 6.74985 12H5.24985ZM17.5302 4.46967C17.2373 4.17678 16.7624 4.17678 16.4695 4.46967C16.1766 4.76256 16.1766 5.23744 16.4695 5.53033L17.5302 4.46967ZM16.4695 8.46967C16.1766 8.76256 16.1766 9.23744 16.4695 9.53033C16.7624 9.82322 17.2373 9.82322 17.5302 9.53033L16.4695 8.46967ZM17.9999 7.75C18.4141 7.75 18.7499 7.41421 18.7499 7C18.7499 6.58579 18.4141 6.25 17.9999 6.25V7.75ZM18.7499 12C18.7499 11.5858 18.4141 11.25 17.9999 11.25C17.5857 11.25 17.2499 11.5858 17.2499 12H18.7499ZM6.46952 19.5303C6.76241 19.8232 7.23729 19.8232 7.53018 19.5303C7.82307 19.2374 7.82307 18.7626 7.53018 18.4697L6.46952 19.5303ZM7.53018 15.5303C7.82307 15.2374 7.82307 14.7626 7.53018 14.4697C7.23729 14.1768 6.76241 14.1768 6.46952 14.4697L7.53018 15.5303ZM5.99985 16.25C5.58564 16.25 5.24985 16.5858 5.24985 17C5.24985 17.4142 5.58564 17.75 5.99985 17.75V16.25ZM6.74985 12V11H5.24985V12H6.74985ZM18.8231 5.76256L17.5302 4.46967L16.4695 5.53033L17.7624 6.82322L18.8231 5.76256ZM17.7624 7.17678L16.4695 8.46967L17.5302 9.53033L18.8231 8.23744L17.7624 7.17678ZM9.99985 7.75H17.9999V6.25H9.99985V7.75ZM17.7624 6.82322C17.8601 6.92085 17.8601 7.07915 17.7624 7.17678L18.8231 8.23744C19.5065 7.55402 19.5065 6.44598 18.8231 5.76256L17.7624 6.82322ZM6.74985 11C6.74985 9.20507 8.20493 7.75 9.99985 7.75V6.25C7.3765 6.25 5.24985 8.37665 5.24985 11H6.74985ZM17.2499 12V13H18.7499V12H17.2499ZM5.17663 18.2374L6.46952 19.5303L7.53018 18.4697L6.23729 17.1768L5.17663 18.2374ZM6.23729 16.8232L7.53018 15.5303L6.46952 14.4697L5.17663 15.7626L6.23729 16.8232ZM13.9999 16.25H5.99985V17.75H13.9999V16.25ZM6.23729 17.1768C6.13966 17.0791 6.13966 16.9209 6.23729 16.8232L5.17663 15.7626C4.49321 16.446 4.49321 17.554 5.17663 18.2374L6.23729 17.1768ZM17.2499 13C17.2499 14.7949 15.7948 16.25 13.9999 16.25V17.75C16.6232 17.75 18.7499 15.6234 18.7499 13H17.2499Z" fill="#344054"/>
</svg>
