<svg width="24" height="24" viewBox="0 0 24 24" fill="none" xmlns="http://www.w3.org/2000/svg">
<path d="M15 7H9C7.89543 7 7 7.89543 7 9V15C7 16.1046 7.89543 17 9 17H15C16.1046 17 17 16.1046 17 15V9C17 7.89543 16.1046 7 15 7Z" stroke="#344054" stroke-width="1.5"/>
<path d="M13 10H11" stroke="#344054" stroke-width="1.5" stroke-linecap="round" stroke-linejoin="round"/>
<path d="M22 12C22 17.5228 17.5228 22 12 22C8.72836 22 5.82368 20.4289 3.99927 18M2 12C2 6.47715 6.47715 2 12 2C15.2716 2 18.1763 3.57111 20.0007 6" stroke="#344054" stroke-width="1.5" stroke-linecap="round"/>
<path d="M4 18L3 21" stroke="#344054" stroke-width="1.5" stroke-linecap="round"/>
<path d="M19.2887 5.76303C19.1577 6.15599 19.3701 6.58073 19.763 6.71171C20.156 6.8427 20.5807 6.63033 20.7117 6.23737L19.2887 5.76303ZM21.7117 3.23737C21.8427 2.84441 21.6303 2.41967 21.2374 2.28869C20.8444 2.1577 20.4197 2.37007 20.2887 2.76303L21.7117 3.23737ZM20.7117 6.23737L21.7117 3.23737L20.2887 2.76303L19.2887 5.76303L20.7117 6.23737Z" fill="#344054"/>
</svg>
