<svg width="24" height="24" viewBox="0 0 24 24" fill="none" xmlns="http://www.w3.org/2000/svg">
<path d="M17 8C18.6569 8 20 6.65685 20 5C20 3.34315 18.6569 2 17 2C15.3431 2 14 3.34315 14 5C14 6.65685 15.3431 8 17 8Z" stroke="#344054" stroke-width="1.5"/>
<path d="M16.25 12C16.25 12.4142 16.5858 12.75 17 12.75C17.4142 12.75 17.75 12.4142 17.75 12H16.25ZM17.75 8C17.75 7.58579 17.4142 7.25 17 7.25C16.5858 7.25 16.25 7.58579 16.25 8H17.75ZM17.75 12V8H16.25V12H17.75Z" fill="#344054"/>
<path d="M12 16V17" stroke="#344054" stroke-width="1.5" stroke-linecap="round"/>
<path d="M12 11.5V12.5" stroke="#344054" stroke-width="1.5" stroke-linecap="round"/>
<path d="M12 7V8" stroke="#344054" stroke-width="1.5" stroke-linecap="round"/>
<path d="M11.0832 4.75C11.4974 4.75 11.8332 4.41421 11.8332 4C11.8332 3.58579 11.4974 3.25 11.0832 3.25V4.75ZM20.135 10.2231C19.9895 9.83527 19.5572 9.63877 19.1694 9.78421C18.7815 9.92965 18.585 10.362 18.7305 10.7498L20.135 10.2231ZM20.1143 19.25H3.88628V20.75H20.1143V19.25ZM2.71587 17.5611L7.21587 5.56109L5.81137 5.03441L1.31137 17.0344L2.71587 17.5611ZM3.88628 19.25C3.01352 19.25 2.40942 18.3783 2.71587 17.5611L1.31137 17.0344C0.637192 18.8322 1.96621 20.75 3.88628 20.75V19.25ZM21.2847 17.5611C21.5911 18.3783 20.987 19.25 20.1143 19.25V20.75C22.0343 20.75 23.3634 18.8322 22.6892 17.0344L21.2847 17.5611ZM8.38628 3.25C7.23995 3.25 6.21387 3.96107 5.81137 5.03441L7.21587 5.56109C7.39882 5.07322 7.86522 4.75 8.38628 4.75V3.25ZM8.38628 4.75H11.0832V3.25H8.38628V4.75ZM18.7305 10.7498L21.2847 17.5611L22.6892 17.0344L20.135 10.2231L18.7305 10.7498Z" fill="#344054"/>
</svg>
