<svg width="24" height="24" viewBox="0 0 24 24" fill="none" xmlns="http://www.w3.org/2000/svg">
<path d="M12.0001 2.75C13.795 2.75 15.2501 4.20507 15.2501 6H16.7501C16.7501 3.37665 14.6234 1.25 12.0001 1.25V2.75ZM12.0001 1.25C9.37675 1.25 7.2501 3.37665 7.2501 6H8.7501C8.7501 4.20507 10.2051 2.75 12.0001 2.75V1.25ZM8.31981 6.75H15.6804V5.25H8.31981V6.75ZM18.8747 9.40106L20.3747 17.4011L21.849 17.1246L20.349 9.12463L18.8747 9.40106ZM17.1804 21.25H6.81981V22.75H17.1804V21.25ZM3.62547 17.4011L5.12547 9.40106L3.65116 9.12463L2.15116 17.1246L3.62547 17.4011ZM6.81981 21.25C4.78486 21.25 3.25045 19.4012 3.62547 17.4011L2.15116 17.1246C1.60306 20.0478 3.84565 22.75 6.81981 22.75V21.25ZM20.3747 17.4011C20.7497 19.4012 19.2153 21.25 17.1804 21.25V22.75C20.1545 22.75 22.3971 20.0478 21.849 17.1246L20.3747 17.4011ZM15.6804 6.75C17.2443 6.75 18.5865 7.8639 18.8747 9.40106L20.349 9.12463C19.9278 6.87801 17.9661 5.25 15.6804 5.25V6.75ZM8.31981 5.25C6.03403 5.25 4.0724 6.87801 3.65116 9.12463L5.12547 9.40106C5.41369 7.8639 6.75586 6.75 8.31981 6.75V5.25Z" fill="#344054"/>
</svg>
