<svg width="24" height="24" viewBox="0 0 24 24" fill="none" xmlns="http://www.w3.org/2000/svg">
<path d="M5.14782 20.7499H18.8557V19.2499H5.14782V20.7499ZM21.7496 17.9371V6.06672H20.2496V17.9371H21.7496ZM16.9306 3.96651L3.22269 15.8369L4.20462 16.9709L17.9125 5.10045L16.9306 3.96651ZM21.7496 6.06672C21.7496 3.58154 18.7526 2.38875 16.9306 3.96651L17.9125 5.10045C18.8498 4.28883 20.2496 4.98014 20.2496 6.06672H21.7496ZM18.8557 20.7499C20.4264 20.7499 21.7496 19.5176 21.7496 17.9371H20.2496C20.2496 18.6352 19.6531 19.2499 18.8557 19.2499V20.7499ZM5.14782 19.2499C3.81233 19.2499 3.31795 17.7387 4.20462 16.9709L3.22269 15.8369C1.18849 17.5985 2.55369 20.7499 5.14782 20.7499V19.2499Z" fill="#344054"/>
</svg>
