<svg width="24" height="24" viewBox="0 0 24 24" fill="none" xmlns="http://www.w3.org/2000/svg">
<path d="M4.12549 8.05697L4.90195 10.9547L6.35084 10.5665L5.57438 7.66874L4.12549 8.05697ZM18.3562 8.48148L19.1271 6.72201L17.7532 6.12005L16.9823 7.87952L18.3562 8.48148ZM18.5612 4.61008L17.0138 3.47177L16.125 4.68004L17.6723 5.81835L18.5612 4.61008ZM19.1271 6.72201C19.4555 5.97232 19.2205 5.0951 18.5612 4.61008L17.6723 5.81835C17.7665 5.88763 17.8001 6.01295 17.7532 6.12005L19.1271 6.72201ZM4.90195 10.9547C5.1521 11.8883 6.11169 12.4423 7.04525 12.1922L6.65703 10.7433C6.52366 10.779 6.38657 10.6999 6.35084 10.5665L4.90195 10.9547ZM5.36293 5.91366C4.42936 6.16381 3.87535 7.1234 4.12549 8.05697L5.57438 7.66874C5.53865 7.53537 5.61779 7.39829 5.75116 7.36255L5.36293 5.91366ZM15.9121 4.63994C15.9855 4.62028 16.0638 4.63504 16.125 4.68004L17.0138 3.47177C16.5856 3.15674 16.0374 3.05345 15.5239 3.19105L15.9121 4.63994ZM17.2062 9.46957C17.7197 9.33197 18.1428 8.96842 18.3562 8.48148L16.9823 7.87952C16.9518 7.94908 16.8913 8.00102 16.818 8.02068L17.2062 9.46957ZM4.24963 15V18H5.74963V15H4.24963ZM17.8856 19.0932L19.0856 17.5932L17.9142 16.6562L16.7142 18.1562L17.8856 19.0932ZM19.0856 15.4068L17.8856 13.9068L16.7142 14.8438L17.9142 16.3438L19.0856 15.4068ZM19.0856 17.5932C19.5969 16.9541 19.5969 16.0459 19.0856 15.4068L17.9142 16.3438C17.9873 16.4351 17.9873 16.5649 17.9142 16.6562L19.0856 17.5932ZM4.24963 18C4.24963 18.9665 5.03313 19.75 5.99963 19.75V18.25C5.86156 18.25 5.74963 18.1381 5.74963 18H4.24963ZM5.99963 13.25C5.03313 13.25 4.24963 14.0335 4.24963 15H5.74963C5.74963 14.8619 5.86155 14.75 5.99963 14.75V13.25ZM16.519 14.75C16.595 14.75 16.6668 14.7845 16.7142 14.8438L17.8856 13.9068C17.5535 13.4917 17.0507 13.25 16.519 13.25V14.75ZM16.519 19.75C17.0507 19.75 17.5535 19.5083 17.8856 19.0932L16.7142 18.1562C16.6668 18.2155 16.595 18.25 16.519 18.25V19.75ZM11.4997 2.75H12.4997V1.25H11.4997V2.75ZM12.4997 21.25H11.4997V22.75H12.4997V21.25ZM11.4997 21.25C11.3616 21.25 11.2497 21.1381 11.2497 21H9.74963C9.74963 21.9665 10.5332 22.75 11.4997 22.75V21.25ZM12.7497 21C12.7497 21.1381 12.6377 21.25 12.4997 21.25V22.75C13.4662 22.75 14.2497 21.9665 14.2497 21H12.7497ZM12.4997 2.75C12.6377 2.75 12.7497 2.86193 12.7497 3H14.2497C14.2497 2.0335 13.4662 1.25 12.4997 1.25V2.75ZM11.4997 1.25C10.5332 1.25 9.74963 2.0335 9.74963 3H11.2497C11.2497 2.86193 11.3616 2.75 11.4997 2.75V1.25ZM12.7497 3V4.5099H14.2497V3H12.7497ZM15.5239 3.19105L13.3055 3.78545L13.6938 5.23434L15.9121 4.63994L15.5239 3.19105ZM13.3055 3.78545L10.3055 4.5893L10.6938 6.03819L13.6938 5.23434L13.3055 3.78545ZM10.3055 4.5893L5.36293 5.91366L5.75116 7.36255L10.6938 6.03819L10.3055 4.5893ZM11.2497 5.31375V3H9.74963V5.31375H11.2497ZM13.6938 10.4107L17.2062 9.46957L16.818 8.02068L13.3055 8.96184L13.6938 10.4107ZM7.04525 12.1922L10.6938 11.2146L10.3055 9.76568L6.65703 10.7433L7.04525 12.1922ZM10.6938 11.2146L13.6938 10.4107L13.3055 8.96184L10.3055 9.76568L10.6938 11.2146ZM12.7497 9.68628V14H14.2497V9.68628H12.7497ZM16.519 13.25H13.4997V14.75H16.519V13.25ZM13.4997 13.25H10.4997V14.75H13.4997V13.25ZM10.4997 13.25H5.99963V14.75H10.4997V13.25ZM11.2497 14V10.4901H9.74963V14H11.2497ZM12.7497 19V21H14.2497V19H12.7497ZM13.4997 19.75H16.519V18.25H13.4997V19.75ZM5.99963 19.75H10.4997V18.25H5.99963V19.75ZM10.4997 19.75H13.4997V18.25H10.4997V19.75ZM11.2497 21V19H9.74964L9.74963 21H11.2497Z" fill="#344054"/>
</svg>
