<svg width="24" height="24" viewBox="0 0 24 24" fill="none" xmlns="http://www.w3.org/2000/svg">
<path d="M15.7127 4.28769C16.0056 4.58058 16.4805 4.58058 16.7734 4.28769C17.0663 3.9948 17.0663 3.51992 16.7734 3.22703L15.7127 4.28769ZM9.34879 5.34835C9.0559 5.64124 9.0559 6.11612 9.34879 6.40901C9.64168 6.7019 10.1165 6.7019 10.4094 6.40901L9.34879 5.34835ZM7.22747 3.22703C6.93457 3.51992 6.93457 3.9948 7.22747 4.28769C7.52036 4.58058 7.99523 4.58058 8.28813 4.28769L7.22747 3.22703ZM13.5914 6.40901C13.8843 6.7019 14.3591 6.7019 14.652 6.40901C14.9449 6.11612 14.9449 5.64124 14.652 5.34835L13.5914 6.40901ZM12.7504 16C12.7504 15.5858 12.4146 15.25 12.0004 15.25C11.5862 15.25 11.2504 15.5858 11.2504 16H12.7504ZM15.0004 22.75C15.4146 22.75 15.7504 22.4142 15.7504 22C15.7504 21.5858 15.4146 21.25 15.0004 21.25V22.75ZM9.00044 21.25C8.58622 21.25 8.25044 21.5858 8.25044 22C8.25044 22.4142 8.58622 22.75 9.00044 22.75V21.25ZM12.0004 2.75C13.4503 2.75 14.7618 3.33681 15.7127 4.28769L16.7734 3.22703C15.5527 2.00634 13.8641 1.25 12.0004 1.25V2.75ZM10.4094 6.40901C10.8174 6.00102 11.3789 5.75 12.0004 5.75V4.25C10.9651 4.25 10.0265 4.67055 9.34879 5.34835L10.4094 6.40901ZM8.28813 4.28769C9.23901 3.3368 10.5504 2.75 12.0004 2.75V1.25C10.1366 1.25 8.44816 2.00634 7.22747 3.22703L8.28813 4.28769ZM12.0004 5.75C12.6219 5.75 13.1834 6.00102 13.5914 6.40901L14.652 5.34835C13.9742 4.67055 13.0357 4.25 12.0004 4.25V5.75ZM9.62169 8.75H14.3791V7.25H9.62169V8.75ZM15.4718 9.39295L17.6941 13.3929L19.0053 12.6645L16.7831 8.66448L15.4718 9.39295ZM16.6014 15.25H7.39947V16.75H16.6014V15.25ZM6.30677 13.3929L8.52899 9.39295L7.21776 8.66448L4.99553 12.6645L6.30677 13.3929ZM7.39947 15.25C6.44636 15.25 5.8439 14.2261 6.30677 13.3929L4.99553 12.6645C3.97722 14.4974 5.30264 16.75 7.39947 16.75V15.25ZM17.6941 13.3929C18.1569 14.2261 17.5546 15.25 16.6014 15.25V16.75C18.6982 16.75 20.0236 14.4974 19.0053 12.6645L17.6941 13.3929ZM14.3791 8.75C14.8331 8.75 15.2514 8.99611 15.4718 9.39295L16.7831 8.66448C16.2982 7.79145 15.3778 7.25 14.3791 7.25V8.75ZM9.62169 7.25C8.62298 7.25 7.70277 7.79145 7.21776 8.66448L8.52899 9.39295C8.74945 8.99611 9.16773 8.75 9.62169 8.75V7.25ZM11.2504 16V22H12.7504V16H11.2504ZM12.0004 22.75H15.0004V21.25H12.0004V22.75ZM12.0004 21.25H9.00044V22.75H12.0004V21.25Z" fill="#344054"/>
</svg>
