<svg width="24" height="24" viewBox="0 0 24 24" fill="none" xmlns="http://www.w3.org/2000/svg">
<path d="M12 16.25C11.5858 16.25 11.25 16.5858 11.25 17C11.25 17.4142 11.5858 17.75 12 17.75V16.25ZM21 17.75C21.4142 17.75 21.75 17.4142 21.75 17C21.75 16.5858 21.4142 16.25 21 16.25V17.75ZM12 10.25C11.5858 10.25 11.25 10.5858 11.25 11C11.25 11.4142 11.5858 11.75 12 11.75V10.25ZM18 11.75C18.4142 11.75 18.75 11.4142 18.75 11C18.75 10.5858 18.4142 10.25 18 10.25V11.75ZM12 4.25C11.5858 4.25 11.25 4.58579 11.25 5C11.25 5.41421 11.5858 5.75 12 5.75V4.25ZM15 5.75C15.4142 5.75 15.75 5.41421 15.75 5C15.75 4.58579 15.4142 4.25 15 4.25V5.75ZM3.56057 14.1267C3.28538 13.8171 2.81132 13.7893 2.50174 14.0644C2.19215 14.3396 2.16426 14.8137 2.43945 15.1233L3.56057 14.1267ZM9.56057 15.1233C9.83576 14.8137 9.80787 14.3396 9.49828 14.0644C9.1887 13.7893 8.71464 13.8171 8.43945 14.1267L9.56057 15.1233ZM5.25001 17C5.25001 17.4142 5.5858 17.75 6.00001 17.75C6.41422 17.75 6.75001 17.4142 6.75001 17H5.25001ZM6.75001 5C6.75001 4.58579 6.41422 4.25 6.00001 4.25C5.5858 4.25 5.25001 4.58579 5.25001 5H6.75001ZM12 17.75H21V16.25H12V17.75ZM12 11.75H18V10.25H12V11.75ZM12 5.75H15V4.25H12V5.75ZM2.43945 15.1233L3.94463 16.8166L5.06575 15.8201L3.56057 14.1267L2.43945 15.1233ZM8.05539 16.8166L9.56057 15.1233L8.43945 14.1267L6.93427 15.8201L8.05539 16.8166ZM3.94463 16.8166C5.03856 18.0473 6.96146 18.0473 8.05539 16.8166L6.93427 15.8201C6.43703 16.3794 5.56299 16.3794 5.06575 15.8201L3.94463 16.8166ZM6.75001 17V5H5.25001V17H6.75001Z" fill="#344054"/>
</svg>
