<svg width="24" height="24" viewBox="0 0 24 24" fill="none" xmlns="http://www.w3.org/2000/svg">
<path d="M19.4095 15.7797C19.2878 16.1757 19.5102 16.5953 19.9061 16.7169C20.3021 16.8386 20.7217 16.6162 20.8433 16.2203L19.4095 15.7797ZM14.1758 22.4925C14.5785 22.3954 14.8262 21.9902 14.7291 21.5875C14.632 21.1849 14.2268 20.9372 13.8242 21.0343L14.1758 22.4925ZM12 21.25C7.71979 21.25 4.25 17.7802 4.25 13.5H2.75C2.75 18.6086 6.89137 22.75 12 22.75V21.25ZM4.25 13.5C4.25 9.21979 7.71979 5.75 12 5.75V4.25C6.89137 4.25 2.75 8.39137 2.75 13.5H4.25ZM12 5.75C16.2802 5.75 19.75 9.21979 19.75 13.5H21.25C21.25 8.39137 17.1086 4.25 12 4.25V5.75ZM19.75 13.5C19.75 14.2946 19.6307 15.0599 19.4095 15.7797L20.8433 16.2203C21.1079 15.3593 21.25 14.4456 21.25 13.5H19.75ZM13.8242 21.0343C13.2399 21.1752 12.6292 21.25 12 21.25V22.75C12.7486 22.75 13.4773 22.6609 14.1758 22.4925L13.8242 21.0343Z" fill="#344054"/>
<path d="M14.7961 3.13575C15.1947 3.24849 15.6092 3.01676 15.7219 2.61818C15.8346 2.21961 15.6029 1.80511 15.2043 1.69238L14.7961 3.13575ZM8.79607 1.69238C8.39749 1.80511 8.16577 2.21961 8.2785 2.61818C8.39123 3.01676 8.80573 3.24849 9.20431 3.13575L8.79607 1.69238ZM12.0002 2.75C12.9705 2.75 13.9082 2.88462 14.7961 3.13575L15.2043 1.69238C14.1849 1.40405 13.1099 1.25 12.0002 1.25V2.75ZM9.20431 3.13575C10.0922 2.88462 11.0299 2.75 12.0002 2.75V1.25C10.8905 1.25 9.8155 1.40405 8.79607 1.69238L9.20431 3.13575Z" fill="#344054"/>
<path d="M20 19H14" stroke="#344054" stroke-width="1.5" stroke-linecap="round" stroke-linejoin="round"/>
<path d="M13.5 14C13.5 14.8284 12.8284 15.5 12 15.5C11.1716 15.5 10.5 14.8284 10.5 14C10.5 13.1716 11.1716 12.5 12 12.5C12.8284 12.5 13.5 13.1716 13.5 14Z" stroke="#344054" stroke-width="1.5"/>
<path d="M12 12V9" stroke="#344054" stroke-width="1.5" stroke-linecap="round" stroke-linejoin="round"/>
</svg>
