<svg width="24" height="24" viewBox="0 0 24 24" fill="none" xmlns="http://www.w3.org/2000/svg">
<path d="M16 17.25H8V18.75H16V17.25ZM8 6.75H16V5.25H8V6.75ZM2.75 12C2.75 9.1005 5.10051 6.75 8 6.75V5.25C4.27208 5.25 1.25 8.27208 1.25 12H2.75ZM8 17.25C5.10051 17.25 2.75 14.8995 2.75 12H1.25C1.25 15.7279 4.27208 18.75 8 18.75V17.25ZM21.25 12C21.25 14.8995 18.8995 17.25 16 17.25V18.75C19.7279 18.75 22.75 15.7279 22.75 12H21.25ZM22.75 12C22.75 8.27208 19.7279 5.25 16 5.25V6.75C18.8995 6.75 21.25 9.10051 21.25 12H22.75Z" fill="#344054"/>
<path d="M16 18C19.3137 18 22 15.3137 22 12C22 8.68629 19.3137 6 16 6C12.6863 6 10 8.68629 10 12C10 15.3137 12.6863 18 16 18Z" stroke="#344054" stroke-width="1.5"/>
</svg>
