<svg width="24" height="24" viewBox="0 0 24 24" fill="none" xmlns="http://www.w3.org/2000/svg">
<path d="M15.7121 10.0557C15.2239 10.5439 14.4324 10.5439 13.9443 10.0557L12.8835 11.1164C13.9576 12.1903 15.6988 12.1903 16.7727 11.1164L15.7121 10.0557ZM13.9443 10.0557C13.4561 9.5676 13.4561 8.77614 13.9443 8.28799L12.8835 7.22733C11.8097 8.30127 11.8097 10.0424 12.8835 11.1164L13.9443 10.0557ZM13.9443 8.28799C14.4324 7.79983 15.2239 7.79983 15.7121 8.28799L16.7727 7.22733C15.6988 6.15339 13.9576 6.15339 12.8835 7.22733L13.9443 8.28799ZM15.7121 8.28799C16.2002 8.77614 16.2002 9.5676 15.7121 10.0557L16.7727 11.1164C17.8467 10.0424 17.8467 8.30127 16.7727 7.22733L15.7121 8.28799Z" fill="#344054"/>
<path d="M18.7809 14.0583L12.2155 20.6236L13.2762 21.6843L19.8416 15.1189L18.7809 14.0583ZM7.58084 20.6621L3.3382 16.4195L2.27754 17.4801L6.52018 21.7228L7.58084 20.6621ZM3.37666 11.7848L9.94202 5.21944L8.88136 4.15878L2.316 10.7241L3.37666 11.7848ZM12.5236 4.24827L16.4879 4.52659L16.593 3.03028L12.6287 2.75196L12.5236 4.24827ZM19.4737 7.51239L19.7521 11.4767L21.2484 11.3717L20.9701 7.40734L19.4737 7.51239ZM16.4879 4.52659C18.0946 4.63939 19.3609 5.90574 19.4737 7.51239L20.9701 7.40734C20.8049 5.05507 18.9453 3.19542 16.593 3.03028L16.4879 4.52659ZM3.3382 16.4195C2.07572 15.157 2.07944 13.082 3.37666 11.7848L2.316 10.7241C0.446547 12.5936 0.41582 15.6184 2.27754 17.4801L3.3382 16.4195ZM12.2155 20.6236C10.9183 21.9209 8.84331 21.9246 7.58084 20.6621L6.52018 21.7228C8.3819 23.5845 11.4067 23.5537 13.2762 21.6843L12.2155 20.6236ZM19.8416 15.1189C20.8307 14.1298 21.346 12.7618 21.2484 11.3717L19.7521 11.4767C19.819 12.4297 19.4656 13.3736 18.7809 14.0583L19.8416 15.1189ZM9.94202 5.21944C10.6268 4.53473 11.5707 4.18137 12.5236 4.24827L12.6287 2.75196C11.2385 2.65436 9.87048 3.16966 8.88136 4.15878L9.94202 5.21944Z" fill="#344054"/>
</svg>
