<svg width="24" height="24" viewBox="0 0 24 24" fill="none" xmlns="http://www.w3.org/2000/svg">
<path d="M16.8629 19.3248L16.3158 19.8378L16.3175 19.8396L16.8629 19.3248ZM15.723 9.92946L15.1307 9.4693C15.1247 9.47708 15.1188 9.48498 15.1131 9.493L15.723 9.92946ZM13.5293 15.7697L14.0764 15.2567L14.0746 15.2548L13.5293 15.7697ZM13.4043 13.1696L13.9965 13.6298C14.0025 13.622 14.0084 13.6141 14.0142 13.6061L13.4043 13.1696ZM18.9998 3.75592L3.61121 10.4065L4.20628 11.7835L19.5949 5.13284L18.9998 3.75592ZM21.4225 5.63626C21.6385 4.27364 20.2663 3.20861 18.9998 3.75592L19.5949 5.13284C19.7758 5.05465 19.9719 5.20679 19.941 5.40146L21.4225 5.63626ZM19.3185 18.9122L21.4225 5.63626L19.941 5.40146L17.837 18.6774L19.3185 18.9122ZM16.3175 19.8396C17.315 20.8962 19.091 20.3473 19.3185 18.9122L17.837 18.6774C17.8045 18.8824 17.5508 18.9609 17.4083 18.8099L16.3175 19.8396ZM12.9822 16.2827L16.3158 19.8378L17.41 18.8118L14.0764 15.2567L12.9822 16.2827ZM14.0142 13.6061L16.3329 10.3659L15.1131 9.493L12.7943 12.7332L14.0142 13.6061ZM15.0358 9.01783L10.1885 12.2697L11.0241 13.5153L15.8715 10.2635L15.0358 9.01783ZM4.05496 13.7449L7.69802 14.2718L7.91273 12.7873L4.26967 12.2604L4.05496 13.7449ZM3.61121 10.4065C1.99137 11.1066 2.30848 13.4923 4.05496 13.7449L4.26967 12.2604C4.1904 12.2489 4.14828 12.219 4.12192 12.1905C4.09099 12.1571 4.06575 12.1069 4.05764 12.0459C4.04953 11.9849 4.06078 11.9299 4.08192 11.8895C4.09992 11.8551 4.13276 11.8152 4.20628 11.7835L3.61121 10.4065ZM10.1885 12.2697C9.52018 12.718 8.70925 12.9025 7.91273 12.7873L7.69802 14.2718C8.86216 14.4402 10.0473 14.1706 11.0241 13.5153L10.1885 12.2697ZM16.3152 10.3896C16.9772 9.5376 15.9318 8.41672 15.0358 9.01783L15.8715 10.2635C15.3527 10.6115 14.7475 9.96258 15.1307 9.4693L16.3152 10.3896ZM14.0746 15.2548C13.6514 14.8065 13.6182 14.1166 13.9965 13.6298L12.812 12.7095C11.9798 13.7805 12.0528 15.2983 12.9839 16.2846L14.0746 15.2548Z" fill="#344054"/>
</svg>
