<svg width="24" height="24" viewBox="0 0 24 24" fill="none" xmlns="http://www.w3.org/2000/svg">
<path d="M9 10.25C8.58579 10.25 8.25 10.5858 8.25 11C8.25 11.4142 8.58579 11.75 9 11.75V10.25ZM15 11.75C15.4142 11.75 15.75 11.4142 15.75 11C15.75 10.5858 15.4142 10.25 15 10.25V11.75ZM9 11.75H15V10.25H9V11.75Z" fill="#344054"/>
<path d="M12.0002 3L12.6925 2.71154C12.5761 2.43205 12.303 2.25 12.0002 2.25C11.6974 2.25 11.4243 2.43205 11.3079 2.71154L12.0002 3ZM6.30789 14.7115C6.14858 15.0939 6.32939 15.533 6.71174 15.6923C7.09409 15.8516 7.53319 15.6708 7.69251 15.2885L6.30789 14.7115ZM16.3079 15.2885C16.4672 15.6708 16.9063 15.8516 17.2887 15.6923C17.671 15.533 17.8518 15.0939 17.6925 14.7115L16.3079 15.2885ZM11.3079 2.71154L6.30789 14.7115L7.69251 15.2885L12.6925 3.28846L11.3079 2.71154ZM17.6925 14.7115L12.6925 2.71154L11.3079 3.28846L16.3079 15.2885L17.6925 14.7115Z" fill="#344054"/>
<path d="M18 21L20 19M20 19L18 17M20 19H4" stroke="#344054" stroke-width="1.5" stroke-linecap="round" stroke-linejoin="round"/>
</svg>
