<svg width="24" height="24" viewBox="0 0 24 24" fill="none" xmlns="http://www.w3.org/2000/svg">
<path d="M1.80894 4.33281C1.40842 4.43843 1.16936 4.84874 1.27498 5.24926C1.38061 5.64978 1.79092 5.88884 2.19144 5.78322L1.80894 4.33281ZM22.1914 16.4101C22.592 16.3045 22.831 15.8941 22.7254 15.4936C22.6198 15.0931 22.2095 14.854 21.809 14.9596L22.1914 16.4101ZM12.7508 6.12409C12.3503 6.22972 12.1112 6.64003 12.2168 7.04055C12.3225 7.44107 12.7328 7.68013 13.1333 7.5745L12.7508 6.12409ZM14.9067 7.10682C15.3073 7.0012 15.5463 6.59089 15.4407 6.19037C15.3351 5.78985 14.9248 5.55079 14.5242 5.65641L14.9067 7.10682ZM9.76036 5.65791L16.8541 3.78718L16.4716 2.33676L9.37786 4.20749L9.76036 5.65791ZM18.1878 4.53672L20.0886 11.5183L21.5359 11.1243L19.6351 4.14269L18.1878 4.53672ZM19.3227 12.8092L12.229 14.6799L12.6115 16.1303L19.7052 14.2596L19.3227 12.8092ZM10.8953 13.9304L8.99453 6.94878L7.5472 7.34281L9.44796 14.3244L10.8953 13.9304ZM12.229 14.6799C11.6385 14.8357 11.047 14.4877 10.8953 13.9304L9.44796 14.3244C9.82112 15.6951 11.2431 16.4912 12.6115 16.1303L12.229 14.6799ZM20.0886 11.5183C20.239 12.0709 19.909 12.6546 19.3227 12.8092L19.7052 14.2596C21.0779 13.8976 21.9103 12.4997 21.5359 11.1243L20.0886 11.5183ZM16.8541 3.78718C17.4446 3.63145 18.0361 3.97944 18.1878 4.53672L19.6351 4.14269C19.262 2.77204 17.84 1.97591 16.4716 2.33676L16.8541 3.78718ZM9.37786 4.20749C8.00522 4.56948 7.17276 5.96744 7.5472 7.34281L8.99453 6.94878C8.84409 6.39622 9.17412 5.81251 9.76036 5.65791L9.37786 4.20749ZM9.74922 18.9218C9.89966 19.4744 9.56963 20.0581 8.98339 20.2127L9.36589 21.6631C10.7385 21.3011 11.571 19.9031 11.1966 18.5278L9.74922 18.9218ZM8.98339 20.2127C8.39287 20.3684 7.8014 20.0204 7.64968 19.4631L6.20236 19.8572C6.57552 21.2278 7.99753 22.0239 9.36589 21.6631L8.98339 20.2127ZM7.64968 19.4631C7.49924 18.9106 7.82927 18.3269 8.41551 18.1723L8.03301 16.7219C6.66037 17.0839 5.82791 18.4818 6.20236 19.8572L7.64968 19.4631ZM8.41551 18.1723C9.00603 18.0165 9.5975 18.3645 9.74922 18.9218L11.1966 18.5278C10.8234 17.1571 9.40137 16.3611 8.03301 16.7219L8.41551 18.1723ZM8.94792 17.25L5.85919 5.90489L4.41187 6.29892L7.5006 17.6441L8.94792 17.25ZM2.69566 4.09897L1.80894 4.33281L2.19144 5.78322L3.07815 5.54938L2.69566 4.09897ZM5.85919 5.90489C5.48603 4.53424 4.06401 3.73811 2.69566 4.09897L3.07815 5.54938C3.66868 5.39365 4.26015 5.74164 4.41187 6.29892L5.85919 5.90489ZM10.6641 19.45L22.1914 16.4101L21.809 14.9596L10.2816 17.9997L10.6641 19.45ZM13.1333 7.5745L14.9067 7.10682L14.5242 5.65641L12.7508 6.12409L13.1333 7.5745Z" fill="#344054"/>
</svg>
