<svg width="24" height="24" viewBox="0 0 24 24" fill="none" xmlns="http://www.w3.org/2000/svg">
<path d="M10 21C13.866 21 17 19.433 17 17.5C17 15.567 13.866 14 10 14C6.13401 14 3 15.567 3 17.5C3 19.433 6.13401 21 10 21Z" stroke="#344054" stroke-width="1.5" stroke-linejoin="round"/>
<path d="M10 11C12.2091 11 14 9.20914 14 7C14 4.79086 12.2091 3 10 3C7.79086 3 6 4.79086 6 7C6 9.20914 7.79086 11 10 11Z" stroke="#344054" stroke-width="1.5" stroke-linejoin="round"/>
<path d="M19 14C20.6569 14 22 12.6569 22 11C22 9.34315 20.6569 8 19 8C17.3431 8 16 9.34315 16 11C16 12.6569 17.3431 14 19 14Z" stroke="#344054" stroke-width="1.5"/>
<path d="M20.5 9.5L17.5 12.5" stroke="#344054" stroke-width="1.5" stroke-linecap="round"/>
</svg>
