<svg width="24" height="24" viewBox="0 0 24 24" fill="none" xmlns="http://www.w3.org/2000/svg">
<path d="M2.75 12C2.75 6.89137 6.89137 2.75 12 2.75V1.25C6.06294 1.25 1.25 6.06294 1.25 12H2.75ZM12 2.75C17.1086 2.75 21.25 6.89137 21.25 12H22.75C22.75 6.06294 17.9371 1.25 12 1.25V2.75ZM12 15.75C14.6806 15.75 16.9689 17.4379 17.8563 19.8115L19.2613 19.2862C18.1619 16.3456 15.3266 14.25 12 14.25V15.75ZM21.25 12C21.25 14.7872 20.0182 17.2859 18.0667 18.9829L19.051 20.1148C21.3161 18.145 22.75 15.2395 22.75 12H21.25ZM18.0667 18.9829C16.4422 20.3955 14.3218 21.25 12 21.25V22.75C14.6971 22.75 17.1639 21.7557 19.051 20.1148L18.0667 18.9829ZM6.14367 19.8115C7.0311 17.4379 9.31937 15.75 12 15.75V14.25C8.67338 14.25 5.8381 16.3456 4.73866 19.2862L6.14367 19.8115ZM12 21.25C9.67818 21.25 7.55781 20.3955 5.93331 18.9829L4.94902 20.1148C6.83607 21.7557 9.30286 22.75 12 22.75V21.25ZM5.93331 18.9829C3.98182 17.2859 2.75 14.7872 2.75 12H1.25C1.25 15.2395 2.68387 18.145 4.94902 20.1148L5.93331 18.9829Z" fill="#344054"/>
<path d="M12 6C13.6569 6 15 7.34315 15 9C15 10.6569 13.6569 12 12 12C10.3431 12 9 10.6569 9 9C9 7.34315 10.3431 6 12 6Z" stroke="#344054" stroke-width="1.5" stroke-linejoin="round"/>
</svg>
