<svg width="24" height="24" viewBox="0 0 24 24" fill="none" xmlns="http://www.w3.org/2000/svg">
<path d="M12 19C15.3137 19 18 17.8807 18 16.5C18 15.1193 15.3137 14 12 14C8.68629 14 6 15.1193 6 16.5C6 17.8807 8.68629 19 12 19Z" stroke="#344054" stroke-width="1.5" stroke-linejoin="round"/>
<path d="M12 11C13.6569 11 15 9.65685 15 8C15 6.34315 13.6569 5 12 5C10.3431 5 9 6.34315 9 8C9 9.65685 10.3431 11 12 11Z" stroke="#344054" stroke-width="1.5" stroke-linejoin="round"/>
<path fill-rule="evenodd" clip-rule="evenodd" d="M6.44547 13.2617C5.20689 13.3132 4.06913 13.5363 3.18592 13.8896C2.68122 14.0915 2.22245 14.3507 1.87759 14.6768C1.53115 15.0044 1.25 15.4514 1.25 16.0002C1.25 16.549 1.53115 16.996 1.87759 17.3236C2.22245 17.6497 2.68122 17.9089 3.18592 18.1108C3.68571 18.3107 4.26701 18.4689 4.90197 18.578C4.40834 18.0455 4.09852 17.4505 4.01985 16.8197C3.92341 16.7872 3.83104 16.7533 3.74301 16.7181C3.34289 16.558 3.06943 16.3862 2.90826 16.2338C2.7498 16.0839 2.74999 16.0048 2.75 16.0003C2.74999 15.9958 2.7498 15.9165 2.90826 15.7666C3.06943 15.6142 3.34289 15.4424 3.74301 15.2823C3.94597 15.2012 4.17201 15.1268 4.41787 15.061C4.83157 14.3712 5.53447 13.7562 6.44547 13.2617Z" fill="#344054"/>
<path fill-rule="evenodd" clip-rule="evenodd" d="M19.9803 16.8197C19.9016 17.4505 19.5918 18.0455 19.0982 18.578C19.7331 18.4689 20.3144 18.3107 20.8142 18.1108C21.3189 17.9089 21.7777 17.6497 22.1226 17.3236C22.469 16.996 22.7502 16.549 22.7502 16.0002C22.7502 15.4514 22.469 15.0044 22.1226 14.6768C21.7777 14.3507 21.3189 14.0915 20.8142 13.8896C19.931 13.5363 18.7933 13.3132 17.5547 13.2617C18.4657 13.7562 19.1686 14.3712 19.5823 15.061C19.8281 15.1268 20.0542 15.2012 20.2571 15.2823C20.6573 15.4424 20.9307 15.6142 21.0919 15.7666C21.2503 15.9165 21.2502 15.9956 21.2502 16.0001C21.2502 16.0046 21.2503 16.0839 21.0919 16.2338C20.9307 16.3862 20.6573 16.558 20.2571 16.7181C20.1691 16.7533 20.0767 16.7872 19.9803 16.8197Z" fill="#344054"/>
<path fill-rule="evenodd" clip-rule="evenodd" d="M16.5147 10.1522C16.2948 10.6126 16.0066 11.0341 15.6631 11.4036C16.0589 11.6243 16.5149 11.75 17.0003 11.75C18.5191 11.75 19.7503 10.5188 19.7503 9C19.7503 7.48122 18.5191 6.25 17.0003 6.25C16.896 6.25 16.7931 6.2558 16.6919 6.26711C16.8639 6.73272 16.9686 7.23096 16.9942 7.75001C16.9962 7.75 16.9983 7.75 17.0003 7.75C17.6907 7.75 18.2503 8.30964 18.2503 9C18.2503 9.69036 17.6907 10.25 17.0003 10.25C16.8281 10.25 16.664 10.2152 16.5147 10.1522Z" fill="#344054"/>
<path fill-rule="evenodd" clip-rule="evenodd" d="M7.30845 6.26711C7.20719 6.2558 7.10427 6.25 7 6.25C5.48122 6.25 4.25 7.48122 4.25 9C4.25 10.5188 5.48122 11.75 7 11.75C7.48537 11.75 7.94138 11.6243 8.33721 11.4036C7.99374 11.0341 7.70549 10.6126 7.4856 10.1522C7.33631 10.2152 7.17222 10.25 7 10.25C6.30964 10.25 5.75 9.69036 5.75 9C5.75 8.30964 6.30964 7.75 7 7.75C7.00205 7.75 7.00409 7.75 7.00614 7.75001C7.0317 7.23096 7.13641 6.73272 7.30845 6.26711Z" fill="#344054"/>
</svg>
