<svg width="24" height="24" viewBox="0 0 24 24" fill="none" xmlns="http://www.w3.org/2000/svg">
<path d="M22 6V5.25C22.4142 5.25 22.75 5.58579 22.75 6H22ZM22 6.75H6V5.25H22V6.75ZM2.75 10V18H1.25V10H2.75ZM6 21.25H18V22.75H6V21.25ZM21.25 18V6H22.75V18H21.25ZM18 21.25C19.7949 21.25 21.25 19.7949 21.25 18H22.75C22.75 20.6234 20.6234 22.75 18 22.75V21.25ZM2.75 18C2.75 19.7949 4.20507 21.25 6 21.25V22.75C3.37665 22.75 1.25 20.6234 1.25 18H2.75ZM6 6.75C4.20507 6.75 2.75 8.20507 2.75 10H1.25C1.25 7.37665 3.37665 5.25 6 5.25V6.75Z" fill="#344054"/>
<path d="M22 5.25C22.4142 5.25 22.75 5.58579 22.75 6C22.75 6.41421 22.4142 6.75 22 6.75V5.25ZM18 2.75H12V1.25H18V2.75ZM8 5.25H22V6.75H8V5.25ZM12 2.75C10.2051 2.75 8.75 4.20507 8.75 6H7.25C7.25 3.37665 9.37665 1.25 12 1.25V2.75ZM18 1.25C20.6234 1.25 22.75 3.37665 22.75 6H21.25C21.25 4.20507 19.7949 2.75 18 2.75V1.25Z" fill="#344054"/>
<path d="M2 12H1.25C1.25 11.5858 1.58579 11.25 2 11.25V12ZM2 16V16.75C1.58579 16.75 1.25 16.4142 1.25 16H2ZM2.75 12V16H1.25V12H2.75ZM2 15.25H6V16.75H2V15.25ZM6 12.75H2V11.25H6V12.75ZM7.25 14C7.25 13.3096 6.69036 12.75 6 12.75V11.25C7.51878 11.25 8.75 12.4812 8.75 14H7.25ZM6 15.25C6.69036 15.25 7.25 14.6904 7.25 14H8.75C8.75 15.5188 7.51878 16.75 6 16.75V15.25Z" fill="#344054"/>
</svg>
