<svg width="24" height="24" viewBox="0 0 24 24" fill="none" xmlns="http://www.w3.org/2000/svg">
<path d="M19 16C20.1046 16 21 16.8954 21 18C21 19.1046 20.1046 20 19 20C17.8954 20 17 19.1046 17 18C17 16.8954 17.8954 16 19 16Z" stroke="#344054" stroke-width="1.5"/>
<path d="M22 6V5.25C22.4142 5.25 22.75 5.58579 22.75 6H22ZM22.75 13C22.75 13.4142 22.4142 13.75 22 13.75C21.5858 13.75 21.25 13.4142 21.25 13H22.75ZM12 21.25C12.4142 21.25 12.75 21.5858 12.75 22C12.75 22.4142 12.4142 22.75 12 22.75V21.25ZM22 6.75H6V5.25H22V6.75ZM2.75 10V18H1.25V10H2.75ZM21.25 13V6H22.75V13H21.25ZM6 21.25H12V22.75H6V21.25ZM2.75 18C2.75 19.7949 4.20507 21.25 6 21.25V22.75C3.37665 22.75 1.25 20.6234 1.25 18H2.75ZM6 6.75C4.20507 6.75 2.75 8.20507 2.75 10H1.25C1.25 7.37665 3.37665 5.25 6 5.25V6.75Z" fill="#344054"/>
<path d="M22 5.25C22.4142 5.25 22.75 5.58579 22.75 6C22.75 6.41421 22.4142 6.75 22 6.75V5.25ZM18 2.75H12V1.25H18V2.75ZM8 5.25H22V6.75H8V5.25ZM12 2.75C10.2051 2.75 8.75 4.20507 8.75 6H7.25C7.25 3.37665 9.37665 1.25 12 1.25V2.75ZM18 1.25C20.6234 1.25 22.75 3.37665 22.75 6H21.25C21.25 4.20507 19.7949 2.75 18 2.75V1.25Z" fill="#344054"/>
<path d="M2 12H1.25C1.25 11.5858 1.58579 11.25 2 11.25V12ZM2 16V16.75C1.58579 16.75 1.25 16.4142 1.25 16H2ZM2.75 12V16H1.25V12H2.75ZM2 15.25H6V16.75H2V15.25ZM6 12.75H2V11.25H6V12.75ZM7.25 14C7.25 13.3096 6.69036 12.75 6 12.75V11.25C7.51878 11.25 8.75 12.4812 8.75 14H7.25ZM6 15.25C6.69036 15.25 7.25 14.6904 7.25 14H8.75C8.75 15.5188 7.51878 16.75 6 16.75V15.25Z" fill="#344054"/>
<path d="M22.6708 21.6641C22.8563 22.0345 22.7064 22.4851 22.3361 22.6706C21.9657 22.8561 21.5151 22.7062 21.3296 22.3359L22.6708 21.6641ZM16.6708 22.3359C16.4853 22.7062 16.0347 22.8561 15.6643 22.6706C15.294 22.4851 15.1441 22.0345 15.3296 21.6641L16.6708 22.3359ZM21.3296 22.3359C20.8337 21.3457 19.9478 20.75 19.0002 20.75V19.25C20.6164 19.25 21.9691 20.2631 22.6708 21.6641L21.3296 22.3359ZM19.0002 20.75C18.0526 20.75 17.1667 21.3457 16.6708 22.3359L15.3296 21.6641C16.0313 20.2631 17.384 19.25 19.0002 19.25V20.75Z" fill="#344054"/>
</svg>
