<svg width="24" height="24" viewBox="0 0 24 24" fill="none" xmlns="http://www.w3.org/2000/svg">
<path d="M12 16C11.4477 16 11 16.4477 11 17C11 17.5523 11.4477 18 12 18C12.5523 18 13 17.5523 13 17C13 16.4477 12.5523 16 12 16Z" fill="#344054"/>
<path d="M11.25 14C11.25 14.4142 11.5858 14.75 12 14.75C12.4142 14.75 12.75 14.4142 12.75 14H11.25ZM12.75 6.99997C12.75 6.58576 12.4142 6.24997 12 6.24997C11.5858 6.24997 11.25 6.58576 11.25 6.99997H12.75ZM12.75 14V6.99997H11.25V14H12.75ZM13.6963 3.21658L18.5394 6.08465L19.3037 4.79399L14.4606 1.92592L13.6963 3.21658ZM20.25 9.13192V14.8681H21.75V9.13192H20.25ZM18.5394 17.9153L13.6963 20.7834L14.4606 22.0741L19.3037 19.206L18.5394 17.9153ZM10.3037 20.7834L5.46063 17.9153L4.6963 19.206L9.53937 22.0741L10.3037 20.7834ZM3.75 14.8681V9.13192H2.25V14.8681H3.75ZM5.46063 6.08465L10.3037 3.21658L9.53937 1.92592L4.6963 4.79399L5.46063 6.08465ZM3.75 9.13192C3.75 7.86735 4.40779 6.70814 5.46063 6.08465L4.6963 4.79399C3.17682 5.69383 2.25 7.34985 2.25 9.13192H3.75ZM5.46063 17.9153C4.40779 17.2919 3.75 16.1327 3.75 14.8681H2.25C2.25 16.6502 3.17682 18.3062 4.6963 19.206L5.46063 17.9153ZM13.6963 20.7834C12.6458 21.4055 11.3542 21.4055 10.3037 20.7834L9.53937 22.0741C11.0612 22.9753 12.9388 22.9753 14.4606 22.0741L13.6963 20.7834ZM20.25 14.8681C20.25 16.1327 19.5922 17.2919 18.5394 17.9153L19.3037 19.206C20.8232 18.3062 21.75 16.6502 21.75 14.8681H20.25ZM18.5394 6.08465C19.5922 6.70814 20.25 7.86735 20.25 9.13192H21.75C21.75 7.34985 20.8232 5.69383 19.3037 4.79399L18.5394 6.08465ZM14.4606 1.92592C12.9388 1.02469 11.0612 1.02469 9.53937 1.92592L10.3037 3.21658C11.3542 2.59447 12.6458 2.59447 13.6963 3.21658L14.4606 1.92592Z" fill="#344054"/>
</svg>
