<svg width="24" height="24" viewBox="0 0 24 24" fill="none" xmlns="http://www.w3.org/2000/svg">
<path d="M9.46855 12.4143C9.1451 12.1556 8.67314 12.208 8.41438 12.5315C8.15562 12.8549 8.20806 13.3269 8.53151 13.5857L9.46855 12.4143ZM15.5644 11.4939C15.8372 11.1822 15.8056 10.7083 15.4939 10.4356C15.1822 10.1628 14.7083 10.1944 14.4356 10.5061L15.5644 11.4939ZM8.53151 13.5857L10.2843 14.9879L11.2213 13.8166L9.46855 12.4143L8.53151 13.5857ZM12.6945 14.7738L15.5644 11.4939L14.4356 10.5061L11.5657 13.786L12.6945 14.7738ZM10.2843 14.9879C11.0156 15.5729 12.0778 15.4786 12.6945 14.7738L11.5657 13.786C11.4776 13.8867 11.3258 13.9002 11.2213 13.8166L10.2843 14.9879Z" fill="#344054"/>
<path d="M12 22C16.9706 22 21 17.9706 21 13C21 8.02944 16.9706 4 12 4C7.02944 4 3 8.02944 3 13C3 17.9706 7.02944 22 12 22Z" stroke="#344054" stroke-width="1.5"/>
<path d="M16.8034 2C18.927 2.92861 20.7299 4.45412 22 6.36441M7.19658 2C5.07303 2.92861 3.27013 4.45412 2 6.36441" stroke="#344054" stroke-width="1.5" stroke-linecap="round"/>
<path d="M21 22L18.7571 19M3 22L5.24272 19" stroke="#344054" stroke-width="1.5" stroke-linecap="round" stroke-linejoin="round"/>
</svg>
