<svg width="24" height="24" viewBox="0 0 24 24" fill="none" xmlns="http://www.w3.org/2000/svg">
<path d="M8.09822 17.1601L7.4487 17.5351C7.61333 17.8203 7.94467 17.9647 8.26562 17.8912L8.09822 17.1601ZM5.09822 11.964L4.54879 11.4534C4.32467 11.6946 4.28407 12.0538 4.4487 12.339L5.09822 11.964ZM14.8097 15.5531C14.6026 15.1943 14.144 15.0714 13.7852 15.2785C13.4265 15.4856 13.3036 15.9443 13.5107 16.303L14.8097 15.5531ZM11.7051 16.1756C11.498 15.8169 11.0393 15.694 10.6806 15.9011C10.3218 16.1082 10.1989 16.5669 10.406 16.9256L11.7051 16.1756ZM18.73 4.63581C18.6228 5.03591 18.8602 5.44716 19.2603 5.55437C19.6604 5.66158 20.0717 5.42414 20.1789 5.02404L18.73 4.63581ZM20.5449 3.65801C20.6521 3.25791 20.4147 2.84666 20.0146 2.73945C19.6145 2.63225 19.2032 2.86969 19.096 3.26978L20.5449 3.65801ZM21.6485 7.56959C21.2484 7.46239 20.8372 7.69982 20.73 8.09992C20.6228 8.50002 20.8602 8.91128 21.2603 9.01848L21.6485 7.56959ZM22.6263 9.38451C23.0264 9.49171 23.4377 9.25428 23.5449 8.85418C23.6521 8.45408 23.4147 8.04283 23.0146 7.93562L22.6263 9.38451ZM15.061 4.71994L19.353 12.1541L20.6521 11.4041L16.36 3.96994L15.061 4.71994ZM18.5495 13.9976L7.93082 16.429L8.26562 17.8912L18.8843 15.4597L18.5495 13.9976ZM8.74774 16.7851L5.74774 11.589L4.4487 12.339L7.4487 17.5351L8.74774 16.7851ZM5.64765 12.4745L13.0627 4.49409L11.9638 3.47306L4.54879 11.4534L5.64765 12.4745ZM19.353 12.1541C19.7735 12.8824 19.3693 13.8098 18.5495 13.9976L18.8843 15.4597C20.6879 15.0467 21.5772 13.0064 20.6521 11.4041L19.353 12.1541ZM16.36 3.96994C15.4349 2.36761 13.2233 2.11764 11.9638 3.47306L13.0627 4.49409C13.6352 3.87799 14.6405 3.99161 15.061 4.71994L16.36 3.96994ZM4.69873 12.7719L7.19873 17.1021L8.49777 16.3521L5.99777 12.0219L4.69873 12.7719ZM5.89969 17.8521L3.39969 13.5219L2.10065 14.2719L4.60065 18.6021L5.89969 17.8521ZM3.39969 13.5219C3.19258 13.1632 3.31549 12.7045 3.67421 12.4974L2.92421 11.1984C1.84805 11.8197 1.47933 13.1958 2.10065 14.2719L3.39969 13.5219ZM6.92421 18.1266C6.56549 18.3337 6.1068 18.2108 5.89969 17.8521L4.60065 18.6021C5.22197 19.6782 6.59805 20.047 7.67421 19.4256L6.92421 18.1266ZM7.19873 17.1021C7.40583 17.4608 7.28293 17.9195 6.92421 18.1266L7.67421 19.4256C8.75037 18.8043 9.11909 17.4282 8.49777 16.3521L7.19873 17.1021ZM5.99777 12.0219C5.37645 10.9458 4.00037 10.5771 2.92421 11.1984L3.67421 12.4974C4.03293 12.2903 4.49162 12.4132 4.69873 12.7719L5.99777 12.0219ZM13.5107 16.303L15.6577 20.0217L16.9567 19.2717L14.8097 15.5531L13.5107 16.303ZM14.3586 20.7717L11.7051 16.1756L10.406 16.9256L13.0596 21.5217L14.3586 20.7717ZM15.3831 21.0462C15.0244 21.2533 14.5657 21.1304 14.3586 20.7717L13.0596 21.5217C13.6809 22.5979 15.057 22.9666 16.1331 22.3453L15.3831 21.0462ZM15.6577 20.0217C15.8648 20.3804 15.7419 20.8391 15.3831 21.0462L16.1331 22.3453C17.2093 21.7239 17.578 20.3479 16.9567 19.2717L15.6577 20.0217ZM20.1789 5.02404L20.5449 3.65801L19.096 3.26978L18.73 4.63581L20.1789 5.02404ZM21.2603 9.01848L22.6263 9.38451L23.0146 7.93562L21.6485 7.56959L21.2603 9.01848Z" fill="#344054"/>
</svg>
