<svg width="24" height="24" viewBox="0 0 24 24" fill="none" xmlns="http://www.w3.org/2000/svg">
<path d="M12 22C17.5228 22 22 17.5228 22 12C22 6.47715 17.5228 2 12 2C6.47715 2 2 6.47715 2 12C2 17.5228 6.47715 22 12 22Z" stroke="#344054" stroke-width="1.5"/>
<path d="M7.46967 9.46969C7.17678 9.76258 7.17678 10.2374 7.46967 10.5303C7.76256 10.8232 8.23744 10.8232 8.53033 10.5303L7.46967 9.46969ZM10 8.00002H10.75C10.75 7.69667 10.5673 7.4232 10.287 7.30711C10.0068 7.19102 9.68417 7.25519 9.46967 7.46969L10 8.00002ZM9.25 16C9.25 16.4142 9.58579 16.75 10 16.75C10.4142 16.75 10.75 16.4142 10.75 16H9.25ZM8.53033 10.5303L10.5303 8.53035L9.46967 7.46969L7.46967 9.46969L8.53033 10.5303ZM9.25 8.00002V16H10.75V8.00002H9.25Z" fill="#344054"/>
<path d="M16.5303 14.5303C16.8232 14.2374 16.8232 13.7626 16.5303 13.4697C16.2374 13.1768 15.7626 13.1768 15.4697 13.4697L16.5303 14.5303ZM14 16H13.25C13.25 16.3033 13.4327 16.5768 13.713 16.6929C13.9932 16.809 14.3158 16.7448 14.5303 16.5303L14 16ZM14.75 8C14.75 7.58579 14.4142 7.25 14 7.25C13.5858 7.25 13.25 7.58579 13.25 8H14.75ZM15.4697 13.4697L13.4697 15.4697L14.5303 16.5303L16.5303 14.5303L15.4697 13.4697ZM14.75 16V8H13.25V16H14.75Z" fill="#344054"/>
</svg>
