<svg width="24" height="24" viewBox="0 0 24 24" fill="none" xmlns="http://www.w3.org/2000/svg">
<path d="M5 20H4.25C4.25 20.4142 4.58579 20.75 5 20.75V20ZM5 4V3.25C4.58579 3.25 4.25 3.58579 4.25 4H5ZM18.25 7V17H19.75V7H18.25ZM16 19.25H5V20.75H16V19.25ZM5.75 20V4H4.25V20H5.75ZM5 4.75H16V3.25H5V4.75ZM18.25 17C18.25 18.2426 17.2426 19.25 16 19.25V20.75C18.0711 20.75 19.75 19.0711 19.75 17H18.25ZM19.75 7C19.75 4.92893 18.0711 3.25 16 3.25V4.75C17.2426 4.75 18.25 5.75736 18.25 7H19.75Z" fill="#344054"/>
<path d="M5 8H19V12H5V8Z" stroke="#344054" stroke-width="1.5" stroke-linecap="round" stroke-linejoin="round"/>
<path d="M5 2V22" stroke="#344054" stroke-width="1.5" stroke-linecap="round" stroke-linejoin="round"/>
</svg>
