<svg width="24" height="24" viewBox="0 0 24 24" fill="none" xmlns="http://www.w3.org/2000/svg">
<path d="M12.5303 2.98432C12.2374 2.69143 11.7626 2.69143 11.4697 2.98432C11.1768 3.27721 11.1768 3.75209 11.4697 4.04498L12.5303 2.98432ZM15.0052 16.4193C14.7123 16.7122 14.7123 17.1871 15.0052 17.48C15.2981 17.7729 15.773 17.7729 16.0659 17.48L15.0052 16.4193ZM11.4697 4.04498L18.5407 11.116L19.6014 10.0554L12.5303 2.98432L11.4697 4.04498ZM18.5407 12.8838L15.0052 16.4193L16.0659 17.48L19.6014 13.9445L18.5407 12.8838ZM18.5407 11.116C19.0289 11.6042 19.0289 12.3957 18.5407 12.8838L19.6014 13.9445C20.6753 12.8705 20.6753 11.1293 19.6014 10.0554L18.5407 11.116Z" fill="#344054"/>
<path d="M11.4693 21.0162C11.7622 21.3091 12.237 21.3091 12.5299 21.0162C12.8228 20.7233 12.8228 20.2484 12.5299 19.9555L11.4693 21.0162ZM8.99443 7.58111C9.28732 7.28822 9.28732 6.81335 8.99443 6.52045C8.70153 6.22756 8.22666 6.22756 7.93377 6.52045L8.99443 7.58111ZM12.5299 19.9555L5.45889 12.8845L4.39823 13.9451L11.4693 21.0162L12.5299 19.9555ZM5.45889 11.1167L8.99443 7.58111L7.93377 6.52045L4.39823 10.056L5.45889 11.1167ZM5.45889 12.8845C4.97074 12.3963 4.97074 11.6048 5.45889 11.1167L4.39823 10.056C3.32429 11.13 3.32429 12.8712 4.39823 13.9451L5.45889 12.8845Z" fill="#344054"/>
<path d="M15.5781 14.8281C15.5781 14.4139 15.2423 14.0781 14.8281 14.0781C14.4139 14.0781 14.0781 14.4139 14.0781 14.8281H15.5781ZM17.6565 18.4065C18.0707 18.4065 18.4065 18.0708 18.4065 17.6565C18.4065 17.2423 18.0707 16.9065 17.6565 16.9065V18.4065ZM14.0781 14.8281V16.6565H15.5781V14.8281H14.0781ZM15.8281 18.4065H17.6565V16.9065H15.8281V18.4065ZM14.0781 16.6565C14.0781 17.623 14.8616 18.4065 15.8281 18.4065V16.9065C15.69 16.9065 15.5781 16.7946 15.5781 16.6565H14.0781Z" fill="#344054"/>
<path d="M8.4212 9.1712C8.4212 9.58541 8.75699 9.9212 9.1712 9.9212C9.58541 9.9212 9.9212 9.58541 9.9212 9.1712H8.4212ZM6.34277 5.59277C5.92856 5.59277 5.59277 5.92856 5.59277 6.34277C5.59277 6.75698 5.92856 7.09277 6.34277 7.09277V5.59277ZM9.9212 9.1712V7.34277H8.4212V9.1712H9.9212ZM8.1712 5.59277H6.34277V7.09277H8.1712V5.59277ZM9.9212 7.34277C9.9212 6.37627 9.1377 5.59277 8.1712 5.59277V7.09277C8.30927 7.09277 8.4212 7.2047 8.4212 7.34277H9.9212Z" fill="#344054"/>
</svg>
