<svg width="24" height="24" viewBox="0 0 24 24" fill="none" xmlns="http://www.w3.org/2000/svg">
<path d="M20.9668 9.25H3.03265V10.75H20.9668V9.25ZM12.7214 2.97367L21.1165 8.6905L21.9608 7.45067L13.5657 1.73383L12.7214 2.97367ZM10.4337 1.73383L2.03859 7.45067L2.88288 8.6905L11.278 2.97367L10.4337 1.73383ZM13.5657 1.73383C12.6183 1.08872 11.3811 1.08872 10.4337 1.73383L11.278 2.97367C11.716 2.67544 12.2834 2.67544 12.7214 2.97367L13.5657 1.73383ZM3.03265 9.25C2.95148 9.25 2.90124 9.22581 2.86533 9.19676C2.82411 9.16341 2.78583 9.1094 2.76493 9.03889C2.7232 8.89811 2.7637 8.77166 2.88288 8.6905L2.03859 7.45067C0.60984 8.42361 1.23784 10.75 3.03265 10.75V9.25ZM20.9668 10.75C22.7616 10.75 23.3896 8.42361 21.9608 7.45067L21.1165 8.6905C21.2357 8.77166 21.2762 8.89811 21.2345 9.03889C21.2136 9.1094 21.1753 9.16341 21.1341 9.19676C21.0982 9.22582 21.0479 9.25 20.9668 9.25V10.75Z" fill="#344054"/>
<path d="M9 10H4V18H9V10Z" stroke="#344054" stroke-width="1.5"/>
<path d="M20 10H15V18H20V10Z" stroke="#344054" stroke-width="1.5"/>
<path d="M19.606 18.8882L20.606 20.8882L21.9476 20.2174L20.9476 18.2174L19.606 18.8882ZM20.3824 21.25H3.61846V22.75H20.3824V21.25ZM3.39486 20.8882L4.39486 18.8882L3.05322 18.2174L2.05322 20.2174L3.39486 20.8882ZM4.61846 18.75H19.3824V17.25H4.61846V18.75ZM4.39486 18.8882C4.43721 18.8035 4.52377 18.75 4.61846 18.75V17.25C3.95561 17.25 3.34965 17.6245 3.05322 18.2174L4.39486 18.8882ZM3.61846 21.25C3.43262 21.25 3.31175 21.0544 3.39486 20.8882L2.05322 20.2174C1.47143 21.381 2.31755 22.75 3.61846 22.75V21.25ZM20.606 20.8882C20.6891 21.0544 20.5682 21.25 20.3824 21.25V22.75C21.6833 22.75 22.5294 21.381 21.9476 20.2174L20.606 20.8882ZM20.9476 18.2174C20.6512 17.6245 20.0452 17.25 19.3824 17.25V18.75C19.4771 18.75 19.5636 18.8035 19.606 18.8882L20.9476 18.2174Z" fill="#344054"/>
</svg>
