<svg width="24" height="24" viewBox="0 0 24 24" fill="none" xmlns="http://www.w3.org/2000/svg">
<path d="M16 4H8C6.89543 4 6 4.89543 6 6V20C6 21.1046 6.89543 22 8 22H16C17.1046 22 18 21.1046 18 20V6C18 4.89543 17.1046 4 16 4Z" stroke="#344054" stroke-width="1.5"/>
<path d="M10 1.25C9.58579 1.25 9.25 1.58579 9.25 2C9.25 2.41421 9.58579 2.75 10 2.75V1.25ZM14 2.75C14.4142 2.75 14.75 2.41421 14.75 2C14.75 1.58579 14.4142 1.25 14 1.25V2.75ZM10 2.75H14V1.25H10V2.75Z" fill="#344054"/>
<path d="M12 10V16" stroke="#344054" stroke-width="1.5" stroke-linecap="round"/>
<path d="M15 13H9" stroke="#344054" stroke-width="1.5" stroke-linecap="round"/>
</svg>
