<svg width="24" height="24" viewBox="0 0 24 24" fill="none" xmlns="http://www.w3.org/2000/svg">
<path d="M8.46855 11.4143C8.1451 11.1556 7.67314 11.208 7.41438 11.5315C7.15562 11.8549 7.20806 12.3269 7.53151 12.5857L8.46855 11.4143ZM14.5644 10.4939C14.8372 10.1822 14.8056 9.70834 14.4939 9.43558C14.1822 9.16282 13.7083 9.1944 13.4356 9.50613L14.5644 10.4939ZM7.53151 12.5857L9.28433 13.9879L10.2213 12.8166L8.46855 11.4143L7.53151 12.5857ZM11.6945 13.7738L14.5644 10.4939L13.4356 9.50613L10.5657 12.786L11.6945 13.7738ZM9.28433 13.9879C10.0156 14.5729 11.0778 14.4786 11.6945 13.7738L10.5657 12.786C10.4776 12.8867 10.3258 12.9002 10.2213 12.8166L9.28433 13.9879Z" fill="#344054"/>
<path d="M20 16V8C20 6.89543 19.1046 6 18 6L4 6C2.89543 6 2 6.89543 2 8V16C2 17.1046 2.89543 18 4 18H18C19.1046 18 20 17.1046 20 16Z" stroke="#344054" stroke-width="1.5"/>
<path d="M20 16V8C20 6.89543 19.1046 6 18 6L4 6C2.89543 6 2 6.89543 2 8V16C2 17.1046 2.89543 18 4 18H18C19.1046 18 20 17.1046 20 16Z" stroke="#344054" stroke-width="1.5"/>
<path d="M22.75 10C22.75 9.58579 22.4142 9.25 22 9.25C21.5858 9.25 21.25 9.58579 21.25 10H22.75ZM21.25 14C21.25 14.4142 21.5858 14.75 22 14.75C22.4142 14.75 22.75 14.4142 22.75 14H21.25ZM21.25 10V14H22.75V10H21.25Z" fill="#344054"/>
</svg>
