<svg width="24" height="24" viewBox="0 0 24 24" fill="none" xmlns="http://www.w3.org/2000/svg">
<path d="M12 11V17" stroke="#344054" stroke-width="1.5" stroke-linecap="round"/>
<path d="M15 14H9" stroke="#344054" stroke-width="1.5" stroke-linecap="round"/>
<path d="M4.75 14.1113C4.75 12.0221 5.79871 9.87202 7.19771 7.95224C8.58576 6.04749 10.251 4.46125 11.3372 3.51611L10.3525 2.38453C9.22312 3.36731 7.46594 5.03723 5.98545 7.06883C4.51592 9.0854 3.25 11.5518 3.25 14.1113H4.75ZM12.6628 3.51611C13.749 4.46125 15.4142 6.04749 16.8023 7.95224C18.2013 9.87203 19.25 12.0221 19.25 14.1113H20.75C20.75 11.5518 19.4841 9.0854 18.0146 7.06883C16.5341 5.03723 14.7769 3.36731 13.6475 2.38453L12.6628 3.51611ZM19.25 14.1113C19.25 17.64 16.5043 21.2502 12 21.2502V22.7502C17.4368 22.7502 20.75 18.3604 20.75 14.1113H19.25ZM12 21.2502C7.49565 21.2502 4.75 17.64 4.75 14.1113H3.25C3.25 18.3604 6.56322 22.7502 12 22.7502V21.2502ZM11.3372 3.51611C11.7255 3.17823 12.2745 3.17823 12.6628 3.51611L13.6475 2.38453C12.6946 1.55542 11.3054 1.55542 10.3525 2.38453L11.3372 3.51611Z" fill="#344054"/>
</svg>
