<svg width="24" height="24" viewBox="0 0 24 24" fill="none" xmlns="http://www.w3.org/2000/svg">
<path d="M12.75 6.03586C12.75 5.62165 12.4142 5.28586 12 5.28586C11.5858 5.28586 11.25 5.62165 11.25 6.03586H12.75ZM11.25 15.5353C11.25 15.9495 11.5858 16.2853 12 16.2853C12.4142 16.2853 12.75 15.9495 12.75 15.5353H11.25ZM5 8.75028C5.41421 8.75028 5.75 8.41449 5.75 8.00028C5.75 7.58607 5.41421 7.25028 5 7.25028V8.75028ZM19 7.25028C18.5858 7.25028 18.25 7.58607 18.25 8.00028C18.25 8.41449 18.5858 8.75028 19 8.75028V7.25028ZM11.25 6.03586V15.5353H12.75V6.03586H11.25ZM6.31578 4.75349C7.83003 4.91645 9.77068 5.34965 11.1055 6.24042L11.9381 4.99274C10.2997 3.89934 8.06776 3.43337 6.47628 3.2621L6.31578 4.75349ZM6.31578 14.9942C7.83003 15.1572 9.77068 15.5904 11.1055 16.4811L11.9381 15.2335C10.2997 14.1401 8.06776 13.6741 6.47628 13.5028L6.31578 14.9942ZM4.25 5.2904V12.8003H5.75V5.2904H4.25ZM6.47628 13.5028C6.02743 13.4545 5.75 13.1126 5.75 12.8003H4.25C4.25 13.9962 5.22757 14.8771 6.31578 14.9942L6.47628 13.5028ZM6.47628 3.2621C5.23411 3.12842 4.25 4.12129 4.25 5.2904H5.75C5.75 4.95131 6.02088 4.72175 6.31578 4.75349L6.47628 3.2621ZM17.5237 3.2621C15.9322 3.43337 13.7003 3.89934 12.0619 4.99274L12.8945 6.24042C14.2293 5.34965 16.17 4.91645 17.6842 4.75349L17.5237 3.2621ZM17.5237 13.5028C15.9322 13.6741 13.7003 14.1401 12.0619 15.2335L12.8945 16.4811C14.2293 15.5904 16.17 15.1572 17.6842 14.9942L17.5237 13.5028ZM18.25 5.2904V12.8003H19.75V5.2904H18.25ZM17.6842 14.9942C18.7724 14.8771 19.75 13.9962 19.75 12.8003H18.25C18.25 13.1126 17.9726 13.4545 17.5237 13.5028L17.6842 14.9942ZM17.6842 4.75349C17.9791 4.72175 18.25 4.95131 18.25 5.2904H19.75C19.75 4.12129 18.7659 3.12842 17.5237 3.2621L17.6842 4.75349ZM11.1055 16.4811C11.6432 16.84 12.3568 16.84 12.8945 16.4811L12.0619 15.2335C12.0485 15.2424 12.0271 15.2503 12 15.2503C11.9729 15.2503 11.9515 15.2424 11.9381 15.2335L11.1055 16.4811ZM11.1055 6.24042C11.6432 6.5993 12.3568 6.5993 12.8945 6.24042L12.0619 4.99274C12.0485 5.00169 12.0271 5.00958 12 5.00958C11.9729 5.00958 11.9515 5.00169 11.9381 4.99274L11.1055 6.24042ZM21.25 11.0003V16.0003H22.75V11.0003H21.25ZM18 19.2503H6V20.7503H18V19.2503ZM2.75 16.0003V11.0003H1.25V16.0003H2.75ZM2.75 11.0003C2.75 9.75764 3.75736 8.75028 5 8.75028V7.25028C2.92893 7.25028 1.25 8.92921 1.25 11.0003H2.75ZM6 19.2503C4.20507 19.2503 2.75 17.7952 2.75 16.0003H1.25C1.25 18.6237 3.37665 20.7503 6 20.7503V19.2503ZM21.25 16.0003C21.25 17.7952 19.7949 19.2503 18 19.2503V20.7503C20.6234 20.7503 22.75 18.6237 22.75 16.0003H21.25ZM22.75 11.0003C22.75 8.92921 21.0711 7.25028 19 7.25028V8.75028C20.2426 8.75028 21.25 9.75764 21.25 11.0003H22.75Z" fill="#344054"/>
</svg>
