<svg width="24" height="24" viewBox="0 0 24 24" fill="none" xmlns="http://www.w3.org/2000/svg">
<path d="M12.7502 2C12.7502 1.58579 12.4144 1.25 12.0002 1.25C11.586 1.25 11.2502 1.58579 11.2502 2H12.7502ZM11.2502 3C11.2502 3.41421 11.586 3.75 12.0002 3.75C12.4144 3.75 12.7502 3.41421 12.7502 3H11.2502ZM12.7502 21C12.7502 20.5858 12.4144 20.25 12.0002 20.25C11.586 20.25 11.2502 20.5858 11.2502 21H12.7502ZM11.2502 22C11.2502 22.4142 11.586 22.75 12.0002 22.75C12.4144 22.75 12.7502 22.4142 12.7502 22H11.2502ZM21.0354 7.64952C21.3942 7.44241 21.5171 6.98372 21.31 6.625C21.1029 6.26628 20.6442 6.14337 20.2854 6.35048L21.0354 7.64952ZM19.4194 6.85048C19.0607 7.05759 18.9378 7.51628 19.1449 7.875C19.352 8.23372 19.8107 8.35663 20.1694 8.14952L19.4194 6.85048ZM4.581 17.1495C4.93972 16.9424 5.06263 16.4837 4.85552 16.125C4.64841 15.7663 4.18972 15.6434 3.831 15.8505L4.581 17.1495ZM2.96498 16.3505C2.60626 16.5576 2.48335 17.0163 2.69046 17.375C2.89756 17.7337 3.35626 17.8566 3.71498 17.6495L2.96498 16.3505ZM3.71497 6.35048C3.35625 6.14337 2.89756 6.26628 2.69045 6.625C2.48335 6.98372 2.60625 7.44241 2.96497 7.64952L3.71497 6.35048ZM3.831 8.14952C4.18972 8.35663 4.64841 8.23372 4.85552 7.875C5.06262 7.51628 4.93972 7.05759 4.581 6.85048L3.831 8.14952ZM20.1694 15.8505C19.8107 15.6434 19.352 15.7663 19.1449 16.125C18.9378 16.4837 19.0607 16.9424 19.4194 17.1495L20.1694 15.8505ZM20.2854 17.6495C20.6442 17.8566 21.1029 17.7337 21.31 17.375C21.5171 17.0163 21.3942 16.5576 21.0354 16.3505L20.2854 17.6495ZM17.2502 12C17.2502 14.8995 14.8997 17.25 12.0002 17.25V18.75C15.7281 18.75 18.7502 15.7279 18.7502 12H17.2502ZM12.0002 17.25C9.10076 17.25 6.75025 14.8995 6.75025 12H5.25025C5.25025 15.7279 8.27233 18.75 12.0002 18.75V17.25ZM6.75025 12C6.75025 9.1005 9.10076 6.75 12.0002 6.75V5.25C8.27233 5.25 5.25025 8.27208 5.25025 12H6.75025ZM12.0002 6.75C14.8997 6.75 17.2502 9.1005 17.2502 12H18.7502C18.7502 8.27208 15.7281 5.25 12.0002 5.25V6.75ZM11.2502 2V3H12.7502V2H11.2502ZM11.2502 21V22H12.7502V21H11.2502ZM20.2854 6.35048L19.4194 6.85048L20.1694 8.14952L21.0354 7.64952L20.2854 6.35048ZM3.831 15.8505L2.96498 16.3505L3.71498 17.6495L4.581 17.1495L3.831 15.8505ZM2.96497 7.64952L3.831 8.14952L4.581 6.85048L3.71497 6.35048L2.96497 7.64952ZM19.4194 17.1495L20.2854 17.6495L21.0354 16.3505L20.1694 15.8505L19.4194 17.1495Z" fill="#344054"/>
</svg>
