<svg width="24" height="24" viewBox="0 0 24 24" fill="none" xmlns="http://www.w3.org/2000/svg">
<path d="M2 7.25C1.58579 7.25 1.25 7.58579 1.25 8C1.25 8.41421 1.58579 8.75 2 8.75V7.25ZM22 8.75C22.4142 8.75 22.75 8.41421 22.75 8C22.75 7.58579 22.4142 7.25 22 7.25V8.75ZM1.25 6V18H2.75V6H1.25ZM6 22.75H18V21.25H6V22.75ZM22.75 18V6H21.25V18H22.75ZM18 1.25H6V2.75H18V1.25ZM22.75 6C22.75 3.37665 20.6234 1.25 18 1.25V2.75C19.7949 2.75 21.25 4.20507 21.25 6H22.75ZM18 22.75C20.6234 22.75 22.75 20.6234 22.75 18H21.25C21.25 19.7949 19.7949 21.25 18 21.25V22.75ZM1.25 18C1.25 20.6234 3.37665 22.75 6 22.75V21.25C4.20507 21.25 2.75 19.7949 2.75 18H1.25ZM2.75 6C2.75 4.20507 4.20507 2.75 6 2.75V1.25C3.37665 1.25 1.25 3.37665 1.25 6H2.75ZM2 8.75H22V7.25H2V8.75Z" fill="#344054"/>
<path d="M18 6C18.5523 6 19 5.55228 19 5C19 4.44772 18.5523 4 18 4C17.4477 4 17 4.44772 17 5C17 5.55228 17.4477 6 18 6Z" fill="#344054"/>
<path d="M14 6C14.5523 6 15 5.55228 15 5C15 4.44772 14.5523 4 14 4C13.4477 4 13 4.44772 13 5C13 5.55228 13.4477 6 14 6Z" fill="#344054"/>
</svg>
