<svg width="24" height="24" viewBox="0 0 24 24" fill="none" xmlns="http://www.w3.org/2000/svg">
<path d="M13 21.75C13.4142 21.75 13.75 21.4142 13.75 21C13.75 20.5858 13.4142 20.25 13 20.25V21.75ZM21.25 13C21.25 13.4142 21.5858 13.75 22 13.75C22.4142 13.75 22.75 13.4142 22.75 13H21.25ZM13 20.25H6V21.75H13V20.25ZM2.75 17V7H1.25V17H2.75ZM6 3.75H18V2.25H6V3.75ZM21.25 7V13H22.75V7H21.25ZM2.75 7C2.75 5.20507 4.20507 3.75 6 3.75V2.25C3.37665 2.25 1.25 4.37665 1.25 7H2.75ZM6 20.25C4.20507 20.25 2.75 18.7949 2.75 17H1.25C1.25 19.6234 3.37665 21.75 6 21.75V20.25ZM18 3.75C19.7949 3.75 21.25 5.20507 21.25 7H22.75C22.75 4.37665 20.6234 2.25 18 2.25V3.75Z" fill="#344054"/>
<path d="M6 18C6.55228 18 7 17.5523 7 17C7 16.4477 6.55228 16 6 16C5.44772 16 5 16.4477 5 17C5 17.5523 5.44772 18 6 18Z" fill="#344054"/>
<path d="M19 15C20.1046 15 21 15.8954 21 17C21 18.1046 20.1046 19 19 19C17.8954 19 17 18.1046 17 17C17 15.8954 17.8954 15 19 15Z" stroke="#344054" stroke-width="1.5"/>
<path d="M22.6708 20.6641C22.8563 21.0345 22.7064 21.4851 22.3361 21.6706C21.9657 21.8561 21.5151 21.7062 21.3296 21.3359L22.6708 20.6641ZM16.6708 21.3359C16.4853 21.7062 16.0347 21.8561 15.6643 21.6706C15.294 21.4851 15.1441 21.0345 15.3296 20.6641L16.6708 21.3359ZM21.3296 21.3359C20.8337 20.3457 19.9478 19.75 19.0002 19.75V18.25C20.6164 18.25 21.9691 19.2631 22.6708 20.6641L21.3296 21.3359ZM19.0002 19.75C18.0526 19.75 17.1667 20.3457 16.6708 21.3359L15.3296 20.6641C16.0313 19.2631 17.384 18.25 19.0002 18.25V19.75Z" fill="#344054"/>
<path d="M2 7H22V11H2V7Z" stroke="#344054" stroke-width="1.5" stroke-linecap="round" stroke-linejoin="round"/>
</svg>
