<svg width="24" height="24" viewBox="0 0 24 24" fill="none" xmlns="http://www.w3.org/2000/svg">
<path d="M19.0001 1.25C18.5859 1.25 18.2501 1.58579 18.2501 2C18.2501 2.41421 18.5859 2.75 19.0001 2.75V1.25ZM21.2501 5C21.2501 5.41421 21.5859 5.75 22.0001 5.75C22.4143 5.75 22.7501 5.41421 22.7501 5H21.2501ZM21.4703 3.58428C21.793 3.32458 21.8441 2.85246 21.5844 2.52977C21.3247 2.20708 20.8526 2.15602 20.5299 2.41572L21.4703 3.58428ZM1.90502 11.256C1.49415 11.3085 1.20363 11.6842 1.25613 12.0951C1.30863 12.5059 1.68427 12.7965 2.09514 12.744L1.90502 11.256ZM21.2501 10V20H22.7501V10H21.2501ZM18.7501 20V10H17.2501V20H18.7501ZM18.7501 10C18.7501 9.30964 19.3097 8.75 20.0001 8.75V7.25C18.4813 7.25 17.2501 8.48122 17.2501 10H18.7501ZM20.0001 21.25C19.3097 21.25 18.7501 20.6904 18.7501 20H17.2501C17.2501 21.5188 18.4813 22.75 20.0001 22.75V21.25ZM21.2501 20C21.2501 20.6904 20.6905 21.25 20.0001 21.25V22.75C21.5189 22.75 22.7501 21.5188 22.7501 20H21.2501ZM22.7501 10C22.7501 8.48122 21.5189 7.25 20.0001 7.25V8.75C20.6905 8.75 21.2501 9.30964 21.2501 10H22.7501ZM5.25008 18V20H6.75008V18H5.25008ZM2.75008 20V18H1.25008V20H2.75008ZM2.75008 18C2.75008 17.3096 3.30972 16.75 4.00008 16.75V15.25C2.4813 15.25 1.25008 16.4812 1.25008 18H2.75008ZM4.00008 21.25C3.30972 21.25 2.75008 20.6904 2.75008 20H1.25008C1.25008 21.5188 2.4813 22.75 4.00008 22.75V21.25ZM5.25008 20C5.25008 20.6904 4.69044 21.25 4.00008 21.25V22.75C5.51886 22.75 6.75008 21.5188 6.75008 20H5.25008ZM6.75008 18C6.75008 16.4812 5.51886 15.25 4.00008 15.25V16.75C4.69044 16.75 5.25008 17.3096 5.25008 18H6.75008ZM13.2501 14V20H14.7501V14H13.2501ZM10.7501 20V14H9.25008V20H10.7501ZM10.7501 14C10.7501 13.3096 11.3097 12.75 12.0001 12.75V11.25C10.4813 11.25 9.25008 12.4812 9.25008 14H10.7501ZM12.0001 21.25C11.3097 21.25 10.7501 20.6904 10.7501 20H9.25008C9.25008 21.5188 10.4813 22.75 12.0001 22.75V21.25ZM13.2501 20C13.2501 20.6904 12.6905 21.25 12.0001 21.25V22.75C13.5189 22.75 14.7501 21.5188 14.7501 20H13.2501ZM14.7501 14C14.7501 12.4812 13.5189 11.25 12.0001 11.25V12.75C12.6905 12.75 13.2501 13.3096 13.2501 14H14.7501ZM19.0001 2.75H21.0001V1.25H19.0001V2.75ZM21.2501 3V5H22.7501V3H21.2501ZM21.0001 2.75C21.1382 2.75 21.2501 2.86193 21.2501 3H22.7501C22.7501 2.0335 21.9666 1.25 21.0001 1.25V2.75ZM20.5299 2.41572C16.5782 5.59606 13.6186 7.58096 10.8098 8.88373C8.0123 10.1812 5.32871 10.8186 1.90502 11.256L2.09514 12.744C5.61357 12.2944 8.45922 11.6274 11.4409 10.2445C14.4111 8.86687 17.4805 6.7953 21.4703 3.58428L20.5299 2.41572Z" fill="#344054"/>
</svg>
