<svg width="24" height="24" viewBox="0 0 24 24" fill="none" xmlns="http://www.w3.org/2000/svg">
<path d="M9.16597 4.95468C9.56991 4.86302 9.82307 4.46125 9.73141 4.05731C9.63975 3.65336 9.23798 3.40021 8.83403 3.49187L9.16597 4.95468ZM20.5084 15.1663C20.6 14.7623 20.3469 14.3605 19.9429 14.2689C19.539 14.1772 19.1372 14.4304 19.0456 14.8343L20.5084 15.1663ZM13.839 2.93291C17.4716 3.66534 20.3349 6.52864 21.0673 10.1613L22.5378 9.86478C21.686 5.64024 18.36 2.31428 14.1355 1.4625L13.839 2.93291ZM20 11.2503H14V12.7503H20V11.2503ZM12.75 10.0003V4.00025H11.25V10.0003H12.75ZM14 11.2503C13.3096 11.2503 12.75 10.6906 12.75 10.0003H11.25C11.25 11.5191 12.4812 12.7503 14 12.7503V11.2503ZM14.1355 1.4625C12.485 1.12973 11.25 2.53332 11.25 4.00025H12.75C12.75 3.25804 13.3239 2.82904 13.839 2.93291L14.1355 1.4625ZM21.0673 10.1613C21.1712 10.6764 20.7422 11.2503 20 11.2503V12.7503C21.4669 12.7503 22.8705 11.5152 22.5378 9.86478L21.0673 10.1613ZM11 21.2503C6.44365 21.2503 2.75 17.5566 2.75 13.0003H1.25C1.25 18.3851 5.61522 22.7503 11 22.7503V21.2503ZM2.75 13.0003C2.75 9.07496 5.4921 5.78832 9.16597 4.95468L8.83403 3.49187C4.49195 4.47714 1.25 8.3592 1.25 13.0003H2.75ZM19.0456 14.8343C18.2119 18.5082 14.9253 21.2503 11 21.2503V22.7503C15.6411 22.7503 19.5231 19.5084 20.5084 15.1663L19.0456 14.8343Z" fill="#344054"/>
</svg>
