<svg width="24" height="24" viewBox="0 0 24 24" fill="none" xmlns="http://www.w3.org/2000/svg">
<path d="M12.975 10.8937C12.6792 11.1837 12.6745 11.6585 12.9644 11.9543C13.2544 12.2501 13.7292 12.2548 14.025 11.9649L12.975 10.8937ZM16.1064 2.00001L16.8364 2.17192C16.8944 1.92589 16.8245 1.66723 16.6505 1.48386C16.4766 1.30048 16.222 1.21705 15.9732 1.26193L16.1064 2.00001ZM21.9733 6.40056L22.7193 6.3235C22.6933 6.07155 22.5419 5.84975 22.3167 5.73379C22.0915 5.61782 21.823 5.62335 21.6028 5.74848L21.9733 6.40056ZM18.2753 19.0556C17.8801 19.1797 17.6603 19.6007 17.7845 19.9958C17.9086 20.391 18.3296 20.6108 18.7247 20.4866L18.2753 19.0556ZM5.12446 19.7127C5.483 19.9201 5.9418 19.7976 6.1492 19.4391C6.35661 19.0805 6.23409 18.6217 5.87554 18.4143L5.12446 19.7127ZM2.75 13C2.75 9.54823 5.54822 6.75001 9 6.75001V5.25001C4.71979 5.25001 1.25 8.7198 1.25 13H2.75ZM14.025 11.9649C14.4856 11.5134 15.0475 11.1665 15.6726 10.9612L15.2045 9.53609C14.3565 9.81461 13.5965 10.2845 12.975 10.8937L14.025 11.9649ZM15.6726 10.9612C16.0893 10.8243 16.5352 10.75 17 10.75V9.25001C16.3743 9.25001 15.7704 9.35024 15.2045 9.53609L15.6726 10.9612ZM20 6.17039C18.2051 6.17039 16.75 4.71531 16.75 2.92039H15.25C15.25 5.54374 17.3766 7.67039 20 7.67039V6.17039ZM16.75 2.92039C16.75 2.66195 16.78 2.41148 16.8364 2.17192L15.3764 1.8281C15.2936 2.17953 15.25 2.54535 15.25 2.92039H16.75ZM21.6028 5.74848C21.1305 6.01686 20.5843 6.17039 20 6.17039V7.67039C20.8509 7.67039 21.6516 7.446 22.3438 7.05264L21.6028 5.74848ZM21.2273 6.47763C21.2423 6.62293 21.25 6.77063 21.25 6.92039H22.75C22.75 6.71907 22.7396 6.51993 22.7193 6.3235L21.2273 6.47763ZM12.755 6.71241C12.8507 4.71918 14.3216 3.08414 16.2396 2.73809L15.9732 1.26193C13.3767 1.7304 11.3864 3.9403 11.2567 6.64043L12.755 6.71241ZM9 6.75001C9.96199 6.75001 10.8712 6.96683 11.6834 7.35357L12.3283 5.99927C11.319 5.51864 10.1898 5.25001 9 5.25001V6.75001ZM11.6834 7.35357C13.0541 8.00626 14.1502 9.14403 14.749 10.5437L16.1281 9.95361C15.3852 8.21741 14.0276 6.80845 12.3283 5.99927L11.6834 7.35357ZM21.25 6.92039C21.25 8.3305 20.564 9.58031 19.5043 10.3546L20.3892 11.5658C21.8189 10.5212 22.75 8.82947 22.75 6.92039H21.25ZM17 10.75C17.9375 10.75 18.802 11.0526 19.5043 11.5658L20.3892 10.3546C19.4388 9.66014 18.2662 9.25001 17 9.25001V10.75ZM19.5043 11.5658C20.564 12.3401 21.25 13.5899 21.25 15H22.75C22.75 13.0909 21.8189 11.3992 20.3892 10.3546L19.5043 11.5658ZM21.25 15C21.25 16.9019 20.0002 18.5138 18.2753 19.0556L18.7247 20.4866C21.0569 19.7541 22.75 17.5758 22.75 15H21.25ZM5.87554 18.4143C4.00546 17.3325 2.75 15.3124 2.75 13H1.25C1.25 15.8695 2.80993 18.3738 5.12446 19.7127L5.87554 18.4143Z" fill="#344054"/>
<path d="M12.75 22C12.75 22.4142 12.4142 22.75 12 22.75C11.5858 22.75 11.25 22.4142 11.25 22C11.25 21.5858 11.5858 21.25 12 21.25C12.4142 21.25 12.75 21.5858 12.75 22Z" fill="#344054"/>
<path d="M12.75 19C12.75 19.4142 12.4142 19.75 12 19.75C11.5858 19.75 11.25 19.4142 11.25 19C11.25 18.5858 11.5858 18.25 12 18.25C12.4142 18.25 12.75 18.5858 12.75 19Z" fill="#344054"/>
<path d="M9.5 20C9.5 20.4142 9.16421 20.75 8.75 20.75C8.33579 20.75 8 20.4142 8 20C8 19.5858 8.33579 19.25 8.75 19.25C9.16421 19.25 9.5 19.5858 9.5 20Z" fill="#344054"/>
<path d="M16 20C16 20.4142 15.6642 20.75 15.25 20.75C14.8358 20.75 14.5 20.4142 14.5 20C14.5 19.5858 14.8358 19.25 15.25 19.25C15.6642 19.25 16 19.5858 16 20Z" fill="#344054"/>
<path d="M9.5 17C9.5 17.4142 9.16421 17.75 8.75 17.75C8.33579 17.75 8 17.4142 8 17C8 16.5858 8.33579 16.25 8.75 16.25C9.16421 16.25 9.5 16.5858 9.5 17Z" fill="#344054"/>
<path d="M16 17C16 17.4142 15.6642 17.75 15.25 17.75C14.8358 17.75 14.5 17.4142 14.5 17C14.5 16.5858 14.8358 16.25 15.25 16.25C15.6642 16.25 16 16.5858 16 17Z" fill="#344054"/>
</svg>
