<svg width="24" height="24" viewBox="0 0 24 24" fill="none" xmlns="http://www.w3.org/2000/svg">
<path d="M17 19.25C16.5858 19.25 16.25 19.5858 16.25 20C16.25 20.4142 16.5858 20.75 17 20.75V19.25ZM15.4386 10.2486L14.749 10.5437C14.902 10.9013 15.3031 11.0826 15.6726 10.9612L15.4386 10.2486ZM16.1064 2.00001L16.8364 2.17192C16.8944 1.92589 16.8245 1.66723 16.6505 1.48386C16.4766 1.30048 16.222 1.21705 15.9732 1.26193L16.1064 2.00001ZM21.9733 6.40056L22.7193 6.3235C22.6933 6.07155 22.5419 5.84975 22.3167 5.73379C22.0915 5.61782 21.823 5.62335 21.6028 5.74848L21.9733 6.40056ZM5.67818 20.0038C6.05232 20.1815 6.49971 20.0223 6.67745 19.6482C6.85518 19.274 6.69596 18.8267 6.32182 18.6489L5.67818 20.0038ZM13 12H13.75C13.75 11.6842 13.5522 11.4023 13.2553 11.2948C12.9584 11.1873 12.626 11.2773 12.4238 11.5199L13 12ZM8 18L7.42383 17.5199C7.23753 17.7434 7.19737 18.0546 7.32081 18.3181C7.44424 18.5817 7.70899 18.75 8 18.75V18ZM11 18H11.75C11.75 17.5858 11.4142 17.25 11 17.25V18ZM11 22H10.25C10.25 22.3158 10.4478 22.5977 10.7447 22.7052C11.0416 22.8127 11.374 22.7227 11.5762 22.4801L11 22ZM16 16L16.5762 16.4801C16.7625 16.2566 16.8026 15.9454 16.6792 15.6819C16.5558 15.4183 16.291 15.25 16 15.25V16ZM13 16H12.25C12.25 16.4142 12.5858 16.75 13 16.75V16ZM2.75 13C2.75 9.54823 5.54822 6.75001 9 6.75001V5.25001C4.71979 5.25001 1.25 8.7198 1.25 13H2.75ZM21.25 15C21.25 17.3472 19.3472 19.25 17 19.25V20.75C20.1756 20.75 22.75 18.1756 22.75 15H21.25ZM15.6726 10.9612C16.0893 10.8243 16.5352 10.75 17 10.75V9.25001C16.3743 9.25001 15.7704 9.35024 15.2045 9.53609L15.6726 10.9612ZM20 6.17039C18.2051 6.17039 16.75 4.71531 16.75 2.92039H15.25C15.25 5.54374 17.3766 7.67039 20 7.67039V6.17039ZM16.75 2.92039C16.75 2.66195 16.78 2.41148 16.8364 2.17192L15.3764 1.8281C15.2936 2.17953 15.25 2.54535 15.25 2.92039H16.75ZM21.6028 5.74848C21.1305 6.01686 20.5843 6.17039 20 6.17039V7.67039C20.8509 7.67039 21.6516 7.446 22.3438 7.05264L21.6028 5.74848ZM21.2273 6.47763C21.2423 6.62293 21.25 6.77063 21.25 6.92039H22.75C22.75 6.71907 22.7396 6.51993 22.7193 6.3235L21.2273 6.47763ZM12.755 6.71241C12.8507 4.71918 14.3216 3.08414 16.2396 2.73809L15.9732 1.26193C13.3767 1.7304 11.3864 3.9403 11.2567 6.64043L12.755 6.71241ZM9 6.75001C9.96199 6.75001 10.8712 6.96683 11.6834 7.35357L12.3283 5.99927C11.319 5.51864 10.1898 5.25001 9 5.25001V6.75001ZM11.6834 7.35357C13.0541 8.00626 14.1502 9.14403 14.749 10.5437L16.1281 9.95361C15.3852 8.21741 14.0276 6.80845 12.3283 5.99927L11.6834 7.35357ZM21.25 6.92039C21.25 8.3305 20.564 9.58031 19.5043 10.3546L20.3892 11.5658C21.8189 10.5212 22.75 8.82947 22.75 6.92039H21.25ZM17 10.75C17.9375 10.75 18.802 11.0526 19.5043 11.5658L20.3892 10.3546C19.4388 9.66014 18.2662 9.25001 17 9.25001V10.75ZM19.5043 11.5658C20.564 12.3401 21.25 13.5899 21.25 15H22.75C22.75 13.0909 21.8189 11.3992 20.3892 10.3546L19.5043 11.5658ZM6.32182 18.6489C4.20852 17.645 2.75 15.4921 2.75 13H1.25C1.25 16.0927 3.06159 18.7608 5.67818 20.0038L6.32182 18.6489ZM12.4238 11.5199L7.42383 17.5199L8.57617 18.4801L13.5762 12.4801L12.4238 11.5199ZM8 18.75H11V17.25H8V18.75ZM10.25 18V22H11.75V18H10.25ZM11.5762 22.4801L16.5762 16.4801L15.4238 15.5199L10.4238 21.5199L11.5762 22.4801ZM16 15.25H13V16.75H16V15.25ZM13.75 16V12H12.25V16H13.75Z" fill="#344054"/>
</svg>
