<svg width="24" height="24" viewBox="0 0 24 24" fill="none" xmlns="http://www.w3.org/2000/svg">
<path d="M12 22C17.5228 22 22 17.5228 22 12C22 6.47715 17.5228 2 12 2C6.47715 2 2 6.47715 2 12C2 17.5228 6.47715 22 12 22Z" stroke="#344054" stroke-width="1.5"/>
<path d="M9 12H13" stroke="#344054" stroke-width="1.5" stroke-linecap="round" stroke-linejoin="round"/>
<path d="M13.2496 9.88235C13.2496 10.2966 13.5854 10.6324 13.9996 10.6324C14.4138 10.6324 14.7496 10.2966 14.7496 9.88235H13.2496ZM13.9996 16.75C14.4138 16.75 14.7496 16.4142 14.7496 16C14.7496 15.5858 14.4138 15.25 13.9996 15.25V16.75ZM14.7496 9.88235V9.38461H13.2496V9.88235H14.7496ZM10.4804 9.38462V9.95476H11.9804V9.38462H10.4804ZM10.68 16.75H13.9996V15.25H10.68V16.75ZM9.17605 13.4775C8.07301 14.7628 8.98626 16.75 10.68 16.75V15.25C10.2682 15.25 10.0462 14.7669 10.3143 14.4544L9.17605 13.4775ZM10.4804 9.95476C10.4804 11.2471 10.0177 12.4968 9.17605 13.4775L10.3143 14.4544C11.3894 13.2017 11.9804 11.6055 11.9804 9.95476H10.4804ZM12.615 7.25C11.4361 7.25 10.4804 8.2057 10.4804 9.38462H11.9804C11.9804 9.03413 12.2645 8.75 12.615 8.75V7.25ZM14.7496 9.38461C14.7496 8.2057 13.7939 7.25 12.615 7.25V8.75C12.9655 8.75 13.2496 9.03413 13.2496 9.38461H14.7496Z" fill="#344054"/>
</svg>
