<svg width="24" height="24" viewBox="0 0 24 24" fill="none" xmlns="http://www.w3.org/2000/svg">
<path d="M20 6.44434L12 9.99989L4 6.44434" stroke="#344054" stroke-width="1.5" stroke-linecap="round" stroke-linejoin="round"/>
<path d="M13.32 3.40706L18.3199 5.62928L18.9292 4.25857L13.9292 2.03635L13.32 3.40706ZM5.68005 5.62928L10.68 3.40706L10.0708 2.03635L5.07084 4.25857L5.68005 5.62928ZM18.32 18.3701L13.32 20.5923L13.9292 21.963L18.9292 19.7408L18.32 18.3701ZM10.68 20.5923L5.68005 18.3701L5.07084 19.7408L10.0708 21.963L10.68 20.5923ZM21.75 15.4002V8.59917H20.25V15.4002H21.75ZM3.75 15.4002V8.59917H2.25V15.4002H3.75ZM5.68005 18.3701C4.50639 17.8485 3.75 16.6846 3.75 15.4002H2.25C2.25 17.2774 3.35549 18.9784 5.07084 19.7408L5.68005 18.3701ZM13.32 20.5923C12.4796 20.9658 11.5204 20.9658 10.68 20.5923L10.0708 21.963C11.299 22.5089 12.701 22.5089 13.9292 21.963L13.32 20.5923ZM18.9292 19.7408C20.6445 18.9784 21.75 17.2774 21.75 15.4002H20.25C20.25 16.6846 19.4936 17.8485 18.32 18.3701L18.9292 19.7408ZM5.07084 4.25857C3.35548 5.02095 2.25 6.72203 2.25 8.59917H3.75C3.75 7.31481 4.50638 6.15091 5.68005 5.62928L5.07084 4.25857ZM18.3199 5.62928C19.4936 6.15091 20.25 7.31481 20.25 8.59917H21.75C21.75 6.72202 20.6445 5.02095 18.9292 4.25857L18.3199 5.62928ZM13.9292 2.03635C12.701 1.49049 11.299 1.49049 10.0708 2.03635L10.68 3.40706C11.5204 3.03358 12.4796 3.03358 13.32 3.40706L13.9292 2.03635Z" fill="#344054"/>
<path d="M12 10V21" stroke="#344054" stroke-width="1.5" stroke-linecap="round" stroke-linejoin="round"/>
</svg>
