<svg width="24" height="24" viewBox="0 0 24 24" fill="none" xmlns="http://www.w3.org/2000/svg">
<path d="M16 2H8C6.89543 2 6 2.89543 6 4V12C6 13.1046 6.89543 14 8 14H16C17.1046 14 18 13.1046 18 12V4C18 2.89543 17.1046 2 16 2Z" stroke="#344054" stroke-width="1.5"/>
<path d="M13 5H11" stroke="#344054" stroke-width="1.5" stroke-linecap="round" stroke-linejoin="round"/>
<path d="M3.36034 14.8521L4.91025 16.3651L5.95806 15.2917L4.40815 13.7787L3.36034 14.8521ZM8.33156 17.75H17.2297V16.25H8.33156V17.75ZM19.6032 18.7083L21.0519 20.1225L22.0997 19.0491L20.651 17.6349L19.6032 18.7083ZM20.5514 21.25H7.42513V22.75H20.5514V21.25ZM4.2886 19.1355L2.77143 15.1861L1.37119 15.7239L2.88836 19.6734L4.2886 19.1355ZM7.42513 21.25C6.01871 21.25 4.77388 20.3988 4.2886 19.1355L2.88836 19.6734C3.60255 21.5326 5.41547 22.75 7.42513 22.75V21.25ZM21.2501 20.5858C21.2501 20.9357 20.9544 21.25 20.5514 21.25V22.75C21.7486 22.75 22.7501 21.798 22.7501 20.5858H21.2501ZM21.0519 20.1225C21.181 20.2485 21.2501 20.4155 21.2501 20.5858H22.7501C22.7501 20.0059 22.514 19.4535 22.0997 19.0491L21.0519 20.1225ZM17.2297 17.75C18.1233 17.75 18.9767 18.0967 19.6032 18.7083L20.651 17.6349C19.7406 16.7462 18.5096 16.25 17.2297 16.25V17.75ZM4.91025 16.3651C5.82065 17.2538 7.05166 17.75 8.33156 17.75V16.25C7.43798 16.25 6.58454 15.9033 5.95806 15.2917L4.91025 16.3651ZM3.10421 14.75C3.20362 14.75 3.29543 14.7887 3.36034 14.8521L4.40815 13.7787C4.05931 13.4382 3.58994 13.25 3.10421 13.25V14.75ZM3.10421 13.25C1.83498 13.25 0.902399 14.5036 1.37119 15.7239L2.77143 15.1861C2.69933 14.9984 2.83299 14.75 3.10421 14.75V13.25Z" fill="#344054"/>
</svg>
