<svg width="24" height="24" viewBox="0 0 24 24" fill="none" xmlns="http://www.w3.org/2000/svg">
<path d="M10.0003 15L10.6244 15.416C10.7778 15.1859 10.7921 14.89 10.6616 14.6461C10.5311 14.4022 10.277 14.25 10.0003 14.25V15ZM12.0004 21V21.75C12.2695 21.75 12.518 21.6058 12.6516 21.3721L12.0004 21ZM20.0004 14.25H18.0004V15.75H20.0004V14.25ZM16.7504 13V6H15.2504V13H16.7504ZM18.0004 4.75H20.0004V3.25H18.0004V4.75ZM21.2504 6V13H22.7504V6H21.2504ZM20.0004 4.75C20.6907 4.75 21.2504 5.30964 21.2504 6H22.7504C22.7504 4.48122 21.5192 3.25 20.0004 3.25V4.75ZM16.7504 6C16.7504 5.30964 17.31 4.75 18.0004 4.75V3.25C16.4816 3.25 15.2504 4.48122 15.2504 6H16.7504ZM18.0004 14.25C17.31 14.25 16.7504 13.6904 16.7504 13H15.2504C15.2504 14.5188 16.4816 15.75 18.0004 15.75V14.25ZM20.0004 15.75C21.5192 15.75 22.7504 14.5188 22.7504 13H21.2504C21.2504 13.6904 20.6907 14.25 20.0004 14.25V15.75ZM11.7893 2.25H8.12346V3.75H11.7893V2.25ZM3.51528 5.84796L1.89401 12.333L3.34922 12.6968L4.97049 6.21176L3.51528 5.84796ZM4.5619 15.75H10.0003V14.25H4.5619V15.75ZM9.37631 14.584L7.96748 16.6972L9.21555 17.5293L10.6244 15.416L9.37631 14.584ZM10.6717 21.75H12.0004V20.25H10.6717V21.75ZM12.6516 21.3721L16.5198 14.6027L15.2174 13.8585L11.3492 20.6279L12.6516 21.3721ZM16.7504 13.7344V5.53518H15.2504V13.7344H16.7504ZM15.9711 4.0791L14.4241 3.04776L13.5921 4.29584L15.1391 5.32717L15.9711 4.0791ZM16.7504 5.53518C16.7504 4.95007 16.458 4.40366 15.9711 4.0791L15.1391 5.32717C15.2086 5.37354 15.2504 5.4516 15.2504 5.53518H16.7504ZM1.89401 12.333C1.4601 14.0687 2.77283 15.75 4.5619 15.75V14.25C3.74869 14.25 3.15199 13.4858 3.34922 12.6968L1.89401 12.333ZM8.12346 2.25C5.94383 2.25 4.04391 3.73341 3.51528 5.84796L4.97049 6.21176C5.33219 4.76497 6.63213 3.75 8.12346 3.75V2.25ZM11.7893 3.75C12.4309 3.75 13.0582 3.93992 13.5921 4.29584L14.4241 3.04776C13.6438 2.52758 12.727 2.25 11.7893 2.25V3.75ZM7.96748 16.6972C6.52761 18.857 8.07588 21.75 10.6717 21.75V20.25C9.27392 20.25 8.44024 18.6922 9.21555 17.5293L7.96748 16.6972ZM16.5198 14.6027C16.6709 14.3383 16.7504 14.039 16.7504 13.7344H15.2504C15.2504 13.7779 15.239 13.8207 15.2174 13.8585L16.5198 14.6027Z" fill="#344054"/>
</svg>
