<svg width="24" height="24" viewBox="0 0 24 24" fill="none" xmlns="http://www.w3.org/2000/svg">
<path d="M2 7.25C1.58579 7.25 1.25 7.58579 1.25 8C1.25 8.41421 1.58579 8.75 2 8.75V7.25ZM4 8L4.30061 7.31288C4.20582 7.27141 4.10347 7.25 4 7.25V8ZM7.29544 12.8106C6.91472 12.6475 6.47381 12.8238 6.31064 13.2046C6.14747 13.5853 6.32384 14.0262 6.70456 14.1894L7.29544 12.8106ZM2 8.75H4V7.25H2V8.75ZM3.69939 8.68712L9.96163 11.4269L10.5629 10.0526L4.30061 7.31288L3.69939 8.68712ZM9.03886 13.5578L7.29544 12.8106L6.70456 14.1894L8.44798 14.9365L9.03886 13.5578ZM10.5635 12.948C10.3109 13.5374 9.62827 13.8104 9.03886 13.5578L8.44798 14.9365C9.79884 15.5155 11.3632 14.8897 11.9422 13.5389L10.5635 12.948ZM9.96163 11.4269C10.546 11.6825 10.8147 12.3617 10.5635 12.948L11.9422 13.5389C12.518 12.1952 11.9022 10.6386 10.5629 10.0526L9.96163 11.4269Z" fill="#344054"/>
<path d="M2.33557 16.3295C1.96509 16.1442 1.51458 16.2944 1.32934 16.6649C1.1441 17.0354 1.29427 17.4859 1.66475 17.6711L2.33557 16.3295ZM11.3356 13.3295L10.6648 12.9941L9.99393 14.3357L10.6648 14.6711L11.3356 13.3295ZM16.4166 16.7503H18.0002V15.2503H16.4166V16.7503ZM18.0002 19.2503H9.8887V20.7503H18.0002V19.2503ZM6.64641 18.4849L2.33557 16.3295L1.66475 17.6711L5.97558 19.8265L6.64641 18.4849ZM14.0687 14.696L11.3356 13.3295L10.6648 14.6711L13.3979 16.0377L14.0687 14.696ZM9.8887 19.2503C8.76318 19.2503 7.65311 18.9882 6.64641 18.4849L5.97558 19.8265C7.19057 20.434 8.53031 20.7503 9.8887 20.7503V19.2503ZM19.2502 18.0003C19.2502 18.6907 18.6906 19.2503 18.0002 19.2503V20.7503C19.519 20.7503 20.7502 19.5191 20.7502 18.0003H19.2502ZM18.0002 16.7503C18.6906 16.7503 19.2502 17.3099 19.2502 18.0003H20.7502C20.7502 16.4815 19.519 15.2503 18.0002 15.2503V16.7503ZM16.4166 15.2503C15.6016 15.2503 14.7977 15.0605 14.0687 14.696L13.3979 16.0377C14.3352 16.5063 15.3687 16.7503 16.4166 16.7503V15.2503Z" fill="#344054"/>
<path d="M16.0239 11.5793L13.194 8.04191L12.0227 8.97895L14.8526 12.5163L16.0239 11.5793ZM12.75 6.77617V6.65165H11.25V6.77617H12.75ZM14.6517 4.75H14.9491V3.25H14.6517V4.75ZM19.0509 4.75H19.3484V3.25H19.0509V4.75ZM21.25 6.65165V6.77617H22.75V6.65165H21.25ZM20.806 8.04191L17.9761 11.5793L19.1474 12.5163L21.9773 8.97895L20.806 8.04191ZM21.25 6.77617C21.25 7.23626 21.0934 7.68264 20.806 8.04191L21.9773 8.97895C22.4775 8.35372 22.75 7.57686 22.75 6.77617H21.25ZM19.3484 4.75C20.3986 4.75 21.25 5.6014 21.25 6.65165H22.75C22.75 4.77297 21.227 3.25 19.3484 3.25V4.75ZM18.214 5.09668C18.436 4.87471 18.737 4.75 19.0509 4.75V3.25C18.3392 3.25 17.6566 3.53274 17.1533 4.03602L18.214 5.09668ZM15.786 5.09668C16.4565 5.76714 17.5435 5.76714 18.214 5.09668L17.1533 4.03602C17.0686 4.1207 16.9314 4.1207 16.8467 4.03602L15.786 5.09668ZM14.9491 4.75C15.263 4.75 15.564 4.87471 15.786 5.09668L16.8467 4.03602C16.3434 3.53274 15.6608 3.25 14.9491 3.25V4.75ZM12.75 6.65165C12.75 5.6014 13.6014 4.75 14.6517 4.75V3.25C12.773 3.25 11.25 4.77297 11.25 6.65165H12.75ZM13.194 8.04191C12.9066 7.68264 12.75 7.23626 12.75 6.77617H11.25C11.25 7.57686 11.5225 8.35372 12.0227 8.97895L13.194 8.04191ZM14.8526 12.5163C15.9535 13.8925 18.0465 13.8925 19.1474 12.5163L17.9761 11.5793C17.4757 12.2048 16.5243 12.2048 16.0239 11.5793L14.8526 12.5163Z" fill="#344054"/>
</svg>
