<svg width="24" height="24" viewBox="0 0 24 24" fill="none" xmlns="http://www.w3.org/2000/svg">
<path d="M18.6145 13.3434C17.0032 14.7205 14.6096 16.25 12 16.25V17.75C15.1571 17.75 17.8982 15.9288 19.589 14.4836L18.6145 13.3434ZM12 16.25C9.39037 16.25 6.99675 14.7205 5.38553 13.3434L4.41096 14.4836C6.10183 15.9288 8.84291 17.75 12 17.75V16.25ZM5.38553 10.6566C6.99675 9.27954 9.39037 7.75 12 7.75V6.25C8.8429 6.25 6.10183 8.07119 4.41096 9.51638L5.38553 10.6566ZM12 7.75C14.6096 7.75 17.0032 9.27954 18.6145 10.6566L19.589 9.51638C17.8982 8.07119 15.1571 6.25 12 6.25V7.75ZM5.38553 13.3434C4.53816 12.6191 4.53816 11.3809 5.38553 10.6566L4.41096 9.51638C2.86301 10.8394 2.86302 13.1606 4.41096 14.4836L5.38553 13.3434ZM19.589 14.4836C21.137 13.1606 21.137 10.8394 19.589 9.51638L18.6145 10.6566C19.4618 11.3809 19.4618 12.6191 18.6145 13.3434L19.589 14.4836Z" fill="#344054"/>
<path d="M12 14C13.1046 14 14 13.1046 14 12C14 10.8954 13.1046 10 12 10C10.8954 10 10 10.8954 10 12C10 13.1046 10.8954 14 12 14Z" stroke="#344054" stroke-width="1.5"/>
<path d="M12 2V4" stroke="#344054" stroke-width="1.5" stroke-linecap="round"/>
<path d="M12 20V22" stroke="#344054" stroke-width="1.5" stroke-linecap="round"/>
<path d="M21 5L19.5 6.5M3 5L4.5 6.5" stroke="#344054" stroke-width="1.5" stroke-linecap="round"/>
<path d="M21 19L19.5 17.5M3 19L4.5 17.5" stroke="#344054" stroke-width="1.5" stroke-linecap="round"/>
</svg>
