<svg width="24" height="24" viewBox="0 0 24 24" fill="none" xmlns="http://www.w3.org/2000/svg">
<path d="M15 3H9C7.34315 3 6 4.34315 6 6C6 7.65685 7.34315 9 9 9H15C16.6569 9 18 7.65685 18 6C18 4.34315 16.6569 3 15 3Z" stroke="#344054" stroke-width="1.5"/>
<path d="M12 9H12.75V8.25H12V9ZM12 15V15.75H12.75V15H12ZM9 9.75H12V8.25H9V9.75ZM11.25 9V15H12.75V9H11.25ZM12 14.25H9V15.75H12V14.25ZM9 14.25C7.75736 14.25 6.75 13.2426 6.75 12H5.25C5.25 14.0711 6.92893 15.75 9 15.75V14.25ZM9 8.25C6.92893 8.25 5.25 9.92893 5.25 12H6.75C6.75 10.7574 7.75736 9.75 9 9.75V8.25Z" fill="#344054"/>
<path d="M12 15H12.75V14.25H12V15ZM9 15.75H12V14.25H9V15.75ZM11.25 15V18H12.75V15H11.25ZM9 20.25C7.75736 20.25 6.75 19.2426 6.75 18H5.25C5.25 20.0711 6.92893 21.75 9 21.75V20.25ZM11.25 18C11.25 19.2426 10.2426 20.25 9 20.25V21.75C11.0711 21.75 12.75 20.0711 12.75 18H11.25ZM9 14.25C6.92893 14.25 5.25 15.9289 5.25 18H6.75C6.75 16.7574 7.75736 15.75 9 15.75V14.25Z" fill="#344054"/>
<path d="M15 15C16.6569 15 18 13.6569 18 12C18 10.3431 16.6569 9 15 9C13.3431 9 12 10.3431 12 12C12 13.6569 13.3431 15 15 15Z" stroke="#344054" stroke-width="1.5"/>
</svg>
