<svg width="24" height="24" viewBox="0 0 24 24" fill="none" xmlns="http://www.w3.org/2000/svg">
<path d="M16.25 7V7.75H17.75V7H16.25ZM17.75 3V2.25H16.25V3H17.75ZM12.75 3V2.25H11.25V3H12.75ZM11.25 21V21.75H12.75V21H11.25ZM16.25 21V21.75H17.75V21H16.25ZM17.75 17V16.25H16.25V17H17.75ZM6.25 7V7.75H7.75V7H6.25ZM7.75 3V2.25H6.25V3H7.75ZM6.25 21V21.75H7.75V21H6.25ZM7.75 17V16.25H6.25V17H7.75ZM22 7.75C22.4142 7.75 22.75 7.41421 22.75 7C22.75 6.58579 22.4142 6.25 22 6.25V7.75ZM2 6.25C1.58579 6.25 1.25 6.58579 1.25 7C1.25 7.41421 1.58579 7.75 2 7.75V6.25ZM22 17.75C22.4142 17.75 22.75 17.4142 22.75 17C22.75 16.5858 22.4142 16.25 22 16.25V17.75ZM2 16.25C1.58579 16.25 1.25 16.5858 1.25 17C1.25 17.4142 1.58579 17.75 2 17.75V16.25ZM21.25 6V18H22.75V6H21.25ZM18 21.25H6V22.75H18V21.25ZM2.75 18V6H1.25V18H2.75ZM6 2.75H18V1.25H6V2.75ZM2.75 6C2.75 4.20507 4.20508 2.75 6 2.75V1.25C3.37665 1.25 1.25 3.37665 1.25 6H2.75ZM6 21.25C4.20507 21.25 2.75 19.7949 2.75 18H1.25C1.25 20.6234 3.37665 22.75 6 22.75V21.25ZM21.25 18C21.25 19.7949 19.7949 21.25 18 21.25V22.75C20.6234 22.75 22.75 20.6234 22.75 18H21.25ZM22.75 6C22.75 3.37665 20.6234 1.25 18 1.25V2.75C19.7949 2.75 21.25 4.20508 21.25 6H22.75ZM17.75 7V3H16.25V7H17.75ZM17.75 21V17H16.25V21H17.75ZM7.75 7V3H6.25V7H7.75ZM7.75 21V17H6.25V21H7.75ZM22 6.25H2V7.75H22V6.25ZM22 16.25H2V17.75H22V16.25ZM12.75 21V3H11.25V21H12.75Z" fill="#344054"/>
</svg>
