<svg width="24" height="24" viewBox="0 0 24 24" fill="none" xmlns="http://www.w3.org/2000/svg">
<path d="M3 8H6" stroke="#344054" stroke-width="1.5" stroke-linecap="round" stroke-linejoin="round"/>
<path d="M3 16H9" stroke="#344054" stroke-width="1.5" stroke-linecap="round" stroke-linejoin="round"/>
<path d="M18 16H21" stroke="#344054" stroke-width="1.5" stroke-linecap="round" stroke-linejoin="round"/>
<path d="M15 8H21" stroke="#344054" stroke-width="1.5" stroke-linecap="round" stroke-linejoin="round"/>
<path d="M15 19C16.6569 19 18 17.6569 18 16C18 14.3431 16.6569 13 15 13C13.3431 13 12 14.3431 12 16C12 17.6569 13.3431 19 15 19Z" stroke="#344054" stroke-width="1.5"/>
<path d="M9 11C10.6569 11 12 9.65685 12 8C12 6.34315 10.6569 5 9 5C7.34315 5 6 6.34315 6 8C6 9.65685 7.34315 11 9 11Z" stroke="#344054" stroke-width="1.5"/>
</svg>
