<svg width="24" height="24" viewBox="0 0 24 24" fill="none" xmlns="http://www.w3.org/2000/svg">
<path d="M14.9998 15.25C14.5856 15.25 14.2498 15.5858 14.2498 16C14.2498 16.4142 14.5856 16.75 14.9998 16.75V15.25ZM8.99982 16.75C9.41404 16.75 9.74982 16.4142 9.74982 16C9.74982 15.5858 9.41404 15.25 8.99982 15.25V16.75ZM18.623 17.9194L19.6901 19.1998L20.8424 18.2395L19.7753 16.9591L18.623 17.9194ZM18.7297 21.25H5.26991V22.75H18.7297V21.25ZM4.30963 19.1998L5.37661 17.9194L4.22427 16.9591L3.1573 18.2395L4.30963 19.1998ZM16.1263 15.25H14.9998V16.75H16.1263V15.25ZM7.87332 16.75H8.99982V15.25H7.87332V16.75ZM5.26991 21.25C4.21011 21.25 3.63117 20.0139 4.30963 19.1998L3.1573 18.2395C1.66467 20.0306 2.93835 22.75 5.26991 22.75V21.25ZM19.6901 19.1998C20.3685 20.0139 19.7895 21.25 18.7297 21.25V22.75C21.0612 22.75 22.3349 20.0306 20.8424 18.2395L19.6901 19.1998ZM19.7753 16.9591C18.8729 15.8762 17.536 15.25 16.1263 15.25V16.75C17.0908 16.75 18.0055 17.1784 18.623 17.9194L19.7753 16.9591ZM5.37661 17.9194C5.99409 17.1784 6.90879 16.75 7.87332 16.75V15.25C6.46362 15.25 5.12674 15.8762 4.22427 16.9591L5.37661 17.9194Z" fill="#344054"/>
<path d="M11.25 19C11.25 19.4142 11.5858 19.75 12 19.75C12.4142 19.75 12.75 19.4142 12.75 19H11.25ZM14 2.75H19.382V1.25H14V2.75ZM19.6056 3.1118L18.5528 5.21738L19.8944 5.8882L20.9472 3.78262L19.6056 3.1118ZM18.5528 6.78262L19.6056 8.8882L20.9472 8.21738L19.8944 6.1118L18.5528 6.78262ZM12.75 19V10H11.25V19H12.75ZM12.75 10V4H11.25V10H12.75ZM19.382 9.25H12V10.75H19.382V9.25ZM19.6056 8.8882C19.6887 9.05442 19.5678 9.25 19.382 9.25V10.75C20.6829 10.75 21.529 9.38095 20.9472 8.21738L19.6056 8.8882ZM18.5528 5.21738C18.3064 5.71005 18.3064 6.28995 18.5528 6.78262L19.8944 6.1118C19.8592 6.04142 19.8592 5.95858 19.8944 5.8882L18.5528 5.21738ZM19.382 2.75C19.5678 2.75 19.6887 2.94558 19.6056 3.1118L20.9472 3.78262C21.529 2.61905 20.6829 1.25 19.382 1.25V2.75ZM14 1.25C12.4812 1.25 11.25 2.48122 11.25 4H12.75C12.75 3.30964 13.3096 2.75 14 2.75V1.25Z" fill="#344054"/>
</svg>
