<svg width="24" height="24" viewBox="0 0 24 24" fill="none" xmlns="http://www.w3.org/2000/svg">
<path d="M11.6492 2.02711L4.65131 11.4075L5.85362 12.3044L12.8515 2.92403L11.6492 2.02711ZM6.17903 14.601H8.4705V13.101H6.17903V14.601ZM8.89709 15.0853V20.7628H10.3971V15.0853H8.89709ZM12.3514 21.9719L19.3492 12.5915L18.1469 11.6946L11.1491 21.075L12.3514 21.9719ZM17.8215 9.39807H15.5301V10.898H17.8215V9.39807ZM15.1035 8.91375V3.2363H13.6035V8.91375H15.1035ZM15.5301 9.39807C15.3279 9.39807 15.1035 9.21549 15.1035 8.91375H13.6035C13.6035 9.9754 14.4326 10.898 15.5301 10.898V9.39807ZM19.3492 12.5915C20.2822 11.3409 19.4861 9.39807 17.8215 9.39807V10.898C17.9807 10.898 18.1199 10.9872 18.199 11.1576C18.279 11.3297 18.2687 11.5313 18.1469 11.6946L19.3492 12.5915ZM8.89709 20.7628C8.89709 21.6816 9.464 22.3741 10.1851 22.6349C10.9109 22.8975 11.7939 22.7193 12.3514 21.9719L11.1491 21.075C11.0173 21.2517 10.8487 21.2799 10.6953 21.2244C10.5371 21.1672 10.3971 21.0173 10.3971 20.7628H8.89709ZM8.4705 14.601C8.67265 14.601 8.89709 14.7836 8.89709 15.0853H10.3971C10.3971 14.0237 9.56798 13.101 8.4705 13.101V14.601ZM4.65131 11.4075C3.71834 12.6581 4.51446 14.601 6.17903 14.601V13.101C6.0199 13.101 5.88066 13.0118 5.80153 12.8414C5.72159 12.6693 5.73181 12.4677 5.85362 12.3044L4.65131 11.4075ZM12.8515 2.92403C12.9833 2.74737 13.1519 2.71917 13.3053 2.77467C13.4635 2.83189 13.6035 2.9817 13.6035 3.2363H15.1035C15.1035 2.31749 14.5366 1.62492 13.8155 1.36411C13.0897 1.10158 12.2067 1.27972 11.6492 2.02711L12.8515 2.92403Z" fill="#344054"/>
</svg>
