<svg width="24" height="24" viewBox="0 0 24 24" fill="none" xmlns="http://www.w3.org/2000/svg">
<path d="M11.9997 12.7501L11.4694 13.2804C11.6101 13.421 11.8008 13.5001 11.9997 13.5001C12.1986 13.5001 12.3894 13.421 12.5301 13.2804L11.9997 12.7501ZM19.9997 8V8.75C20.4139 8.75 20.7497 8.41421 20.7497 8H19.9997ZM3.99973 8H3.24973C3.24973 8.41421 3.58552 8.75 3.99973 8.75V8ZM11.8045 16.5555L9.95039 14.2378L8.77909 15.1748L10.6332 17.4925L11.8045 16.5555ZM9.74973 13.6658V13.5911H8.24973V13.6658H9.74973ZM11.1854 12.9964L11.4694 13.2804L12.5301 12.2197L12.2461 11.9357L11.1854 12.9964ZM12.5301 13.2804L12.8141 12.9964L11.7534 11.9357L11.4694 12.2197L12.5301 13.2804ZM14.2497 13.5911V13.6658H15.7497V13.5911H14.2497ZM14.0491 14.2378L12.195 16.5555L13.3663 17.4925L15.2204 15.1748L14.0491 14.2378ZM14.2497 13.6658C14.2497 13.8737 14.179 14.0754 14.0491 14.2378L15.2204 15.1748C15.563 14.7465 15.7497 14.2143 15.7497 13.6658H14.2497ZM13.4087 12.7501C13.8732 12.7501 14.2497 13.1266 14.2497 13.5911H15.7497C15.7497 12.2982 14.7016 11.2501 13.4087 11.2501V12.7501ZM10.5907 12.7501C10.8138 12.7501 11.0277 12.8387 11.1854 12.9964L12.2461 11.9357C11.807 11.4967 11.2116 11.2501 10.5907 11.2501V12.7501ZM9.74973 13.5911C9.74973 13.1266 10.1263 12.7501 10.5907 12.7501V11.2501C9.29783 11.2501 8.24973 12.2982 8.24973 13.5911H9.74973ZM9.95039 14.2378C9.8205 14.0754 9.74973 13.8737 9.74973 13.6658H8.24973C8.24973 14.2143 8.43642 14.7465 8.77909 15.1748L9.95039 14.2378ZM12.8141 12.9964C12.9718 12.8387 13.1857 12.7501 13.4087 12.7501V11.2501C12.7879 11.2501 12.1924 11.4967 11.7534 11.9357L12.8141 12.9964ZM10.6332 17.4925C11.3338 18.3682 12.6657 18.3682 13.3663 17.4925L12.195 16.5555C12.0949 16.6806 11.9046 16.6806 11.8045 16.5555L10.6332 17.4925ZM19.2497 7V8H20.7497V7H19.2497ZM19.9997 7.25H3.99973V8.75H19.9997V7.25ZM4.74973 8V5H3.24973V8H4.74973ZM14.1972 4.75H16.9997V3.25H14.1972V4.75ZM6.99973 2.75H9.5689V1.25H6.99973V2.75ZM10.9519 3.2252L11.8923 3.958L12.8143 2.7748L11.8738 2.042L10.9519 3.2252ZM14.1972 3.25C13.6962 3.25 13.2095 3.08276 12.8143 2.7748L11.8923 3.958C12.551 4.47127 13.3622 4.75 14.1972 4.75V3.25ZM20.7497 7C20.7497 4.92893 19.0708 3.25 16.9997 3.25V4.75C18.2424 4.75 19.2497 5.75736 19.2497 7H20.7497ZM9.5689 2.75C10.0699 2.75 10.5566 2.91724 10.9519 3.2252L11.8738 2.042C11.2151 1.52873 10.404 1.25 9.5689 1.25V2.75ZM4.74973 5C4.74973 3.75736 5.75709 2.75 6.99973 2.75V1.25C4.92867 1.25 3.24973 2.92893 3.24973 5H4.74973ZM3.47371 8.75H20.5258V7.25H3.47371V8.75ZM21.748 10.2619L19.9439 18.681L21.4106 18.9953L23.2147 10.5762L21.748 10.2619ZM16.7661 21.25H7.2334V22.75H16.7661V21.25ZM4.05554 18.681L2.25146 10.2619L0.78475 10.5762L2.58884 18.9953L4.05554 18.681ZM7.2334 21.25C5.7009 21.25 4.37664 20.1794 4.05554 18.681L2.58884 18.9953C3.05814 21.1853 4.99359 22.75 7.2334 22.75V21.25ZM19.9439 18.681C19.6228 20.1794 18.2986 21.25 16.7661 21.25V22.75C19.0059 22.75 20.9413 21.1853 21.4106 18.9953L19.9439 18.681ZM20.5258 8.75C21.3216 8.75 21.9148 9.48377 21.748 10.2619L23.2147 10.5762C23.5816 8.8643 22.2765 7.25 20.5258 7.25V8.75ZM3.47371 7.25C1.72294 7.25 0.417912 8.8643 0.78475 10.5762L2.25146 10.2619C2.08471 9.48377 2.6779 8.75 3.47371 8.75V7.25Z" fill="#344054"/>
</svg>
