<svg width="24" height="24" viewBox="0 0 24 24" fill="none" xmlns="http://www.w3.org/2000/svg">
<path d="M19.9997 8V8.75C20.4139 8.75 20.7497 8.41421 20.7497 8H19.9997ZM3.99973 8H3.24973C3.24973 8.41421 3.58552 8.75 3.99973 8.75V8ZM8.4694 17.4697C8.17651 17.7626 8.17651 18.2375 8.4694 18.5304C8.7623 18.8233 9.23717 18.8233 9.53006 18.5304L8.4694 17.4697ZM11.0301 17.0304C11.323 16.7375 11.323 16.2626 11.0301 15.9697C10.7372 15.6768 10.2623 15.6768 9.9694 15.9697L11.0301 17.0304ZM14.2497 14.5001C14.2497 15.4666 13.4662 16.2501 12.4997 16.2501V17.7501C14.2947 17.7501 15.7497 16.295 15.7497 14.5001H14.2497ZM12.4997 16.2501C11.5332 16.2501 10.7497 15.4666 10.7497 14.5001H9.24973C9.24973 16.295 10.7048 17.7501 12.4997 17.7501V16.2501ZM10.7497 14.5001C10.7497 13.5336 11.5332 12.7501 12.4997 12.7501V11.2501C10.7048 11.2501 9.24973 12.7051 9.24973 14.5001H10.7497ZM12.4997 12.7501C13.4662 12.7501 14.2497 13.5336 14.2497 14.5001H15.7497C15.7497 12.7051 14.2947 11.2501 12.4997 11.2501V12.7501ZM19.2497 7V8H20.7497V7H19.2497ZM19.9997 7.25H3.99973V8.75H19.9997V7.25ZM4.74973 8V5H3.24973V8H4.74973ZM14.1972 4.75H16.9997V3.25H14.1972V4.75ZM6.99973 2.75H9.5689V1.25H6.99973V2.75ZM10.9519 3.2252L11.8923 3.958L12.8143 2.7748L11.8738 2.042L10.9519 3.2252ZM14.1972 3.25C13.6962 3.25 13.2095 3.08276 12.8143 2.7748L11.8923 3.958C12.551 4.47127 13.3622 4.75 14.1972 4.75V3.25ZM20.7497 7C20.7497 4.92893 19.0708 3.25 16.9997 3.25V4.75C18.2424 4.75 19.2497 5.75736 19.2497 7H20.7497ZM9.5689 2.75C10.0699 2.75 10.5566 2.91724 10.9519 3.2252L11.8738 2.042C11.2151 1.52873 10.404 1.25 9.5689 1.25V2.75ZM4.74973 5C4.74973 3.75736 5.75709 2.75 6.99973 2.75V1.25C4.92867 1.25 3.24973 2.92893 3.24973 5H4.74973ZM3.47371 8.75H20.5258V7.25H3.47371V8.75ZM21.748 10.2619L19.9439 18.681L21.4106 18.9953L23.2147 10.5762L21.748 10.2619ZM16.7661 21.25H7.2334V22.75H16.7661V21.25ZM4.05554 18.681L2.25146 10.2619L0.78475 10.5762L2.58884 18.9953L4.05554 18.681ZM7.2334 21.25C5.7009 21.25 4.37664 20.1794 4.05554 18.681L2.58884 18.9953C3.05814 21.1853 4.99359 22.75 7.2334 22.75V21.25ZM19.9439 18.681C19.6228 20.1794 18.2986 21.25 16.7661 21.25V22.75C19.0059 22.75 20.9413 21.1853 21.4106 18.9953L19.9439 18.681ZM20.5258 8.75C21.3216 8.75 21.9148 9.48377 21.748 10.2619L23.2147 10.5762C23.5816 8.8643 22.2765 7.25 20.5258 7.25V8.75ZM3.47371 7.25C1.72294 7.25 0.417912 8.8643 0.78475 10.5762L2.25146 10.2619C2.08471 9.48377 2.6779 8.75 3.47371 8.75V7.25ZM9.53006 18.5304L11.0301 17.0304L9.9694 15.9697L8.4694 17.4697L9.53006 18.5304Z" fill="#344054"/>
</svg>
