<svg width="24" height="24" viewBox="0 0 24 24" fill="none" xmlns="http://www.w3.org/2000/svg">
<path d="M9 11.25C8.58579 11.25 8.25 11.5858 8.25 12C8.25 12.4142 8.58579 12.75 9 12.75V11.25ZM15 12.75C15.4142 12.75 15.75 12.4142 15.75 12C15.75 11.5858 15.4142 11.25 15 11.25V12.75ZM9 12.75H15V11.25H9V12.75Z" fill="#344054"/>
<path d="M5 19.25C4.58579 19.25 4.25 19.5858 4.25 20C4.25 20.4142 4.58579 20.75 5 20.75V19.25ZM19 20.75C19.4142 20.75 19.75 20.4142 19.75 20C19.75 19.5858 19.4142 19.25 19 19.25V20.75ZM5 20.75H19V19.25H5V20.75Z" fill="#344054"/>
<path d="M12.0002 4L12.6925 3.71154C12.5761 3.43205 12.303 3.25 12.0002 3.25C11.6974 3.25 11.4243 3.43205 11.3079 3.71154L12.0002 4ZM6.30789 15.7115C6.14858 16.0939 6.32939 16.533 6.71174 16.6923C7.09409 16.8516 7.53319 16.6708 7.69251 16.2885L6.30789 15.7115ZM16.3079 16.2885C16.4672 16.6708 16.9063 16.8516 17.2887 16.6923C17.671 16.533 17.8518 16.0939 17.6925 15.7115L16.3079 16.2885ZM11.3079 3.71154L6.30789 15.7115L7.69251 16.2885L12.6925 4.28846L11.3079 3.71154ZM17.6925 15.7115L12.6925 3.71154L11.3079 4.28846L16.3079 16.2885L17.6925 15.7115Z" fill="#344054"/>
</svg>
