<svg width="24" height="24" viewBox="0 0 24 24" fill="none" xmlns="http://www.w3.org/2000/svg">
<path d="M2 6C2 3.79086 3.79086 2 6 2H18C20.2091 2 22 3.79086 22 6V18C22 20.2091 20.2091 22 18 22H6C3.79086 22 2 20.2091 2 18V6Z" stroke="#344054" stroke-width="1.5" stroke-linejoin="round"/>
<path d="M9 13.25C8.58579 13.25 8.25 13.5858 8.25 14C8.25 14.4142 8.58579 14.75 9 14.75V13.25ZM15 14.75C15.4142 14.75 15.75 14.4142 15.75 14C15.75 13.5858 15.4142 13.25 15 13.25V14.75ZM9 14.75H15V13.25H9V14.75Z" fill="#344054"/>
<path d="M12.0002 6L12.6925 5.71154C12.5761 5.43205 12.303 5.25 12.0002 5.25C11.6974 5.25 11.4243 5.43205 11.3079 5.71154L12.0002 6ZM6.30789 17.7115C6.14858 18.0939 6.32939 18.533 6.71174 18.6923C7.09409 18.8516 7.53319 18.6708 7.69251 18.2885L6.30789 17.7115ZM16.3079 18.2885C16.4672 18.6708 16.9063 18.8516 17.2887 18.6923C17.671 18.533 17.8518 18.0939 17.6925 17.7115L16.3079 18.2885ZM11.3079 5.71154L6.30789 17.7115L7.69251 18.2885L12.6925 6.28846L11.3079 5.71154ZM17.6925 17.7115L12.6925 5.71154L11.3079 6.28846L16.3079 18.2885L17.6925 17.7115Z" fill="#344054"/>
</svg>
