<svg width="24" height="24" viewBox="0 0 24 24" fill="none" xmlns="http://www.w3.org/2000/svg">
<path d="M12.767 13.25H11.2322V14.75H12.767V13.25ZM7.98285 2.75H16.0164V1.25H7.98285V2.75ZM18.9353 5.25856L17.6156 2.28926L16.2448 2.89847L17.5645 5.86777L18.9353 5.25856ZM6.38368 2.28926L5.06398 5.25856L6.4347 5.86777L7.75439 2.89847L6.38368 2.28926ZM16.0164 2.75C16.1152 2.75 16.2047 2.80818 16.2448 2.89847L17.6156 2.28926C17.3347 1.65729 16.708 1.25 16.0164 1.25V2.75ZM7.98285 1.25C7.29127 1.25 6.66455 1.65728 6.38368 2.28926L7.75439 2.89847C7.79452 2.80819 7.88405 2.75 7.98285 2.75V1.25ZM11.2322 13.25C7.43301 13.25 4.8917 9.33953 6.4347 5.86777L5.06398 5.25856C3.08012 9.72225 6.34752 14.75 11.2322 14.75V13.25ZM12.767 14.75C17.6517 14.75 20.9191 9.72225 18.9353 5.25856L17.5645 5.86777C19.1075 9.33953 16.5662 13.25 12.767 13.25V14.75Z" fill="#344054"/>
<path d="M12.75 14C12.75 13.5858 12.4142 13.25 12 13.25C11.5858 13.25 11.25 13.5858 11.25 14H12.75ZM15 22.75C15.4142 22.75 15.75 22.4142 15.75 22C15.75 21.5858 15.4142 21.25 15 21.25V22.75ZM9 21.25C8.58579 21.25 8.25 21.5858 8.25 22C8.25 22.4142 8.58579 22.75 9 22.75V21.25ZM12.75 22V14H11.25V22H12.75ZM12 22.75H15V21.25H12V22.75ZM12 21.25H9V22.75H12V21.25Z" fill="#344054"/>
<path d="M13.1708 5.33557C13.3561 4.96509 13.2059 4.51458 12.8354 4.32934C12.4649 4.1441 12.0144 4.29427 11.8292 4.66475L13.1708 5.33557ZM11 8.00016L10.3292 7.66475C10.2129 7.89724 10.2254 8.17335 10.362 8.39446C10.4987 8.61557 10.7401 8.75016 11 8.75016V8.00016ZM13 8.00016L13.6708 8.33557C13.7871 8.10308 13.7746 7.82697 13.638 7.60586C13.5013 7.38475 13.2599 7.25016 13 7.25016V8.00016ZM10.8292 10.6648C10.6439 11.0353 10.7941 11.4858 11.1646 11.671C11.5351 11.8563 11.9856 11.7061 12.1708 11.3356L10.8292 10.6648ZM11.8292 4.66475L10.3292 7.66475L11.6708 8.33557L13.1708 5.33557L11.8292 4.66475ZM11 8.75016H13V7.25016H11V8.75016ZM12.3292 7.66475L10.8292 10.6648L12.1708 11.3356L13.6708 8.33557L12.3292 7.66475Z" fill="#344054"/>
</svg>
