<svg width="24" height="24" viewBox="0 0 24 24" fill="none" xmlns="http://www.w3.org/2000/svg">
<path d="M8.3923 8.15257C8.55318 7.47687 9.15691 7 9.8515 7H14.1486C14.8432 7 15.447 7.47687 15.6079 8.15257L16.5602 12.1526C16.7847 13.0951 16.0699 14 15.101 14H8.89912C7.93021 14 7.21549 13.0951 7.43991 12.1526L8.3923 8.15257Z" stroke="#344054" stroke-width="1.5"/>
<path d="M3.3923 15.1526C3.55318 14.4769 4.15691 14 4.8515 14H9.1486C9.84319 14 10.447 14.4769 10.6079 15.1526L11.5602 19.1526C11.7847 20.0951 11.0699 21 10.101 21H3.89912C2.93021 21 2.21549 20.0951 2.43991 19.1526L3.3923 15.1526Z" stroke="#344054" stroke-width="1.5"/>
<path d="M13.3922 15.1526C13.5531 14.4769 14.1569 14 14.8515 14H19.1485C19.8431 14 20.4469 14.4769 20.6078 15.1526L21.5601 19.1526C21.7846 20.0951 21.0698 21 20.1009 21H13.8991C12.9302 21 12.2154 20.0951 12.4399 19.1526L13.3922 15.1526Z" stroke="#344054" stroke-width="1.5"/>
<path d="M12 3V4" stroke="#344054" stroke-width="1.5" stroke-linecap="round" stroke-linejoin="round"/>
<path d="M18 4L17 5" stroke="#344054" stroke-width="1.5" stroke-linecap="round" stroke-linejoin="round"/>
<path d="M6 4L7 5" stroke="#344054" stroke-width="1.5" stroke-linecap="round" stroke-linejoin="round"/>
</svg>
