<svg width="26" height="26" viewBox="0 0 26 26" fill="none" xmlns="http://www.w3.org/2000/svg">
<path d="M13.0625 4.99994L13.0781 3" stroke="#344054" stroke-width="1.5" stroke-linecap="round"/>
<path d="M12.9219 22.9999L12.9375 21" stroke="#344054" stroke-width="1.5" stroke-linecap="round"/>
<path d="M21 13.0625L23 13.0782" stroke="#344054" stroke-width="1.5" stroke-linecap="round"/>
<path d="M3 12.9219L4.99994 12.9376" stroke="#344054" stroke-width="1.5" stroke-linecap="round"/>
<path d="M4.07129 3.92969L21.9296 22.0702" stroke="#344054" stroke-width="1.5" stroke-linecap="round"/>
<path d="M9.76428 5.68142C10.7721 5.23513 11.8888 4.99105 13.0627 5.00025C17.4808 5.03488 21.0344 8.64457 20.9997 13.0627C20.9905 14.2365 20.729 15.3493 20.2669 16.35M7.38767 7.29898C5.92865 8.7353 5.01757 10.7282 5.00025 12.9373C4.96562 17.3554 8.51915 20.9651 12.9373 20.9997C15.1463 21.017 17.1533 20.1373 18.6123 18.701" stroke="#344054" stroke-width="1.5" stroke-linecap="round"/>
<path d="M15.1 15.142C14.5533 15.6779 13.8026 16.0059 12.9765 15.9994C11.3197 15.9864 9.98715 14.6328 10.0001 12.976C10.0067 12.1449 10.3505 11.3954 10.9008 10.8564" stroke="#344054" stroke-width="1.5"/>
</svg>
