<svg width="24" height="24" viewBox="0 0 24 24" fill="none" xmlns="http://www.w3.org/2000/svg">
<path d="M2 9.99928L1.66459 9.32846C1.4105 9.45551 1.25 9.7152 1.25 9.99928C1.25 10.2834 1.4105 10.543 1.66459 10.6701L2 9.99928ZM22 9.99928L22.3354 10.6701C22.5895 10.543 22.75 10.2834 22.75 9.99928C22.75 9.7152 22.5895 9.45551 22.3354 9.32846L22 9.99928ZM17.25 11.9993V15.9993H18.75V11.9993H17.25ZM15 18.2493H9V19.7493H15V18.2493ZM6.75 15.9993V11.9993H5.25V15.9993H6.75ZM9 18.2493C7.75736 18.2493 6.75 17.2419 6.75 15.9993H5.25C5.25 18.0703 6.92893 19.7493 9 19.7493V18.2493ZM17.25 15.9993C17.25 17.2419 16.2426 18.2493 15 18.2493V19.7493C17.0711 19.7493 18.75 18.0703 18.75 15.9993H17.25ZM10.7702 4.77568L1.66459 9.32846L2.33541 10.6701L11.441 6.11732L10.7702 4.77568ZM13.2298 15.2229L22.3354 10.6701L21.6646 9.32846L12.559 13.8812L13.2298 15.2229ZM12.559 6.11732L21.6646 10.6701L22.3354 9.32846L13.2298 4.77568L12.559 6.11732ZM11.441 13.8812L2.33541 9.32846L1.66459 10.6701L10.7702 15.2229L11.441 13.8812ZM12.559 13.8812C12.2071 14.0572 11.7929 14.0572 11.441 13.8812L10.7702 15.2229C11.5444 15.61 12.4556 15.61 13.2298 15.2229L12.559 13.8812ZM11.441 6.11732C11.7929 5.94136 12.2071 5.94136 12.559 6.11732L13.2298 4.77568C12.4556 4.38857 11.5444 4.38857 10.7702 4.77568L11.441 6.11732Z" fill="#344054"/>
<path d="M22 10V16" stroke="#344054" stroke-width="1.5" stroke-linecap="round" stroke-linejoin="round"/>
</svg>
