<svg width="24" height="24" viewBox="0 0 24 24" fill="none" xmlns="http://www.w3.org/2000/svg">
<path d="M14.4746 3.00002L14.6921 2.28226C14.4274 2.20201 14.1399 2.27405 13.9443 2.46969C13.7486 2.66533 13.6766 2.95279 13.7568 3.21757L14.4746 3.00002ZM3.00002 14.4746L3.21757 13.7568C2.95279 13.6766 2.66533 13.7486 2.46969 13.9443C2.27405 14.1399 2.20201 14.4274 2.28226 14.6921L3.00002 14.4746ZM14.1187 5.67165C14.1187 10.3368 10.3368 14.1187 5.67165 14.1187V15.6187C11.1652 15.6187 15.6187 11.1652 15.6187 5.67165H14.1187ZM20.25 11.803C20.25 16.4681 16.4681 20.25 11.803 20.25V21.75C17.2966 21.75 21.75 17.2966 21.75 11.803H20.25ZM14.2571 3.71778C17.7261 4.76922 20.25 7.99234 20.25 11.803H21.75C21.75 7.31322 18.776 3.52004 14.6921 2.28226L14.2571 3.71778ZM13.7568 3.21757C13.992 3.99328 14.1187 4.81699 14.1187 5.67165H15.6187C15.6187 4.66797 15.4698 3.69772 15.1924 2.78247L13.7568 3.21757ZM11.803 20.25C7.99234 20.25 4.76922 17.7261 3.71778 14.2571L2.28226 14.6921C3.52004 18.776 7.31322 21.75 11.803 21.75V20.25ZM5.67165 14.1187C4.81699 14.1187 3.99328 13.992 3.21757 13.7568L2.78247 15.1924C3.69772 15.4698 4.66797 15.6187 5.67165 15.6187V14.1187Z" fill="#344054"/>
</svg>
