<svg width="24" height="24" viewBox="0 0 24 24" fill="none" xmlns="http://www.w3.org/2000/svg">
<path d="M16 3.40235L15.4711 3.93406C15.7636 4.22511 16.2364 4.22511 16.5289 3.93406L16 3.40235ZM16.5289 3.93406L16.988 3.47743L15.9301 2.414L15.4711 2.87063L16.5289 3.93406ZM15.012 3.47743L15.4711 3.93406L16.5289 2.87063L16.0699 2.414L15.012 3.47743ZM10.4217 8.04375L14.553 12.1534L15.6109 11.09L11.4796 6.98031L10.4217 8.04375ZM17.447 12.1534L21.5783 8.04375L20.5204 6.98031L16.3891 11.09L17.447 12.1534ZM20.5204 3.47743C21.4932 4.44518 21.4932 6.01257 20.5204 6.98031L21.5783 8.04375C23.1406 6.48959 23.1406 3.96816 21.5783 2.414L20.5204 3.47743ZM21.5783 2.414C20.0181 0.862001 17.4902 0.862 15.9301 2.414L16.988 3.47743C17.963 2.50752 19.5454 2.50752 20.5204 3.47743L21.5783 2.414ZM11.4796 3.47743C12.4546 2.50752 14.037 2.50752 15.012 3.47743L16.0699 2.414C14.5098 0.862001 11.9819 0.862 10.4217 2.414L11.4796 3.47743ZM14.553 12.1534C15.3526 12.9489 16.6474 12.9489 17.447 12.1534L16.3891 11.09C16.1747 11.3033 15.8253 11.3033 15.6109 11.09L14.553 12.1534ZM10.4217 2.414C8.85943 3.96816 8.85943 6.48959 10.4217 8.04375L11.4796 6.98031C10.5068 6.01257 10.5068 4.44518 11.4796 3.47743L10.4217 2.414Z" fill="#344054"/>
<path d="M2 9.25C1.58579 9.25 1.25 9.58579 1.25 10C1.25 10.4142 1.58579 10.75 2 10.75V9.25ZM4 10L4.30061 9.31288C4.20582 9.27141 4.10347 9.25 4 9.25V10ZM7.29544 14.8106C6.91472 14.6475 6.47381 14.8238 6.31064 15.2046C6.14747 15.5853 6.32384 16.0262 6.70456 16.1894L7.29544 14.8106ZM2 10.75H4V9.25H2V10.75ZM3.69939 10.6871L9.96163 13.4269L10.5629 12.0526L4.30061 9.31288L3.69939 10.6871ZM9.03886 15.5578L7.29544 14.8106L6.70456 16.1894L8.44798 16.9365L9.03886 15.5578ZM10.5635 14.948C10.3109 15.5374 9.62827 15.8104 9.03886 15.5578L8.44798 16.9365C9.79884 17.5155 11.3632 16.8897 11.9422 15.5389L10.5635 14.948ZM9.96163 13.4269C10.546 13.6825 10.8147 14.3617 10.5635 14.948L11.9422 15.5389C12.518 14.1952 11.9022 12.6386 10.5629 12.0526L9.96163 13.4269Z" fill="#344054"/>
<path d="M2.33557 18.3295C1.96509 18.1442 1.51458 18.2944 1.32934 18.6649C1.1441 19.0354 1.29427 19.4859 1.66475 19.6711L2.33557 18.3295ZM11.3356 15.3295L10.6648 14.9941L9.99393 16.3357L10.6648 16.6711L11.3356 15.3295ZM16.4166 18.7503H18.0002V17.2503H16.4166V18.7503ZM18.0002 21.2503H9.8887V22.7503H18.0002V21.2503ZM6.64641 20.4849L2.33557 18.3295L1.66475 19.6711L5.97558 21.8265L6.64641 20.4849ZM14.0687 16.696L11.3356 15.3295L10.6648 16.6711L13.3979 18.0377L14.0687 16.696ZM9.8887 21.2503C8.76318 21.2503 7.65311 20.9882 6.64641 20.4849L5.97558 21.8265C7.19057 22.434 8.53031 22.7503 9.8887 22.7503V21.2503ZM19.2502 20.0003C19.2502 20.6907 18.6906 21.2503 18.0002 21.2503V22.7503C19.519 22.7503 20.7502 21.5191 20.7502 20.0003H19.2502ZM18.0002 18.7503C18.6906 18.7503 19.2502 19.3099 19.2502 20.0003H20.7502C20.7502 18.4815 19.519 17.2503 18.0002 17.2503V18.7503ZM16.4166 17.2503C15.6016 17.2503 14.7977 17.0605 14.0687 16.696L13.3979 18.0377C14.3352 18.5063 15.3687 18.7503 16.4166 18.7503V17.2503Z" fill="#344054"/>
</svg>
