<svg width="24" height="24" viewBox="0 0 24 24" fill="none" xmlns="http://www.w3.org/2000/svg">
<path d="M10.3355 12.3292C9.96507 12.1439 9.51455 12.2941 9.32932 12.6646C9.14408 13.0351 9.29425 13.4856 9.66473 13.6708L10.3355 12.3292ZM14.3355 13.6708C14.706 13.4856 14.8562 13.0351 14.6709 12.6646C14.4857 12.2941 14.0352 12.1439 13.6647 12.3292L14.3355 13.6708ZM16.1805 21.25H7.81979V22.75H16.1805V21.25ZM3.58027 7.81306L9.969 3.37914L9.11375 2.14685L2.72502 6.58077L3.58027 7.81306ZM14.0312 3.37914L20.42 7.81306L21.2752 6.58077L14.8865 2.14685L14.0312 3.37914ZM19.6108 13.133V18.0108H21.1108V13.133H19.6108ZM4.38944 18.0108V13.133H2.88944V18.0108H4.38944ZM4.38944 13.133C4.38944 12.2143 4.00665 11.3407 3.33761 10.7022L2.30205 11.7874C2.68258 12.1505 2.88944 12.6354 2.88944 13.133H4.38944ZM20.6626 10.7022C19.9936 11.3407 19.6108 12.2143 19.6108 13.133H21.1108C21.1108 12.6354 21.3177 12.1505 21.6982 11.7874L20.6626 10.7022ZM9.969 3.37914C11.1776 2.54029 12.8225 2.54029 14.0312 3.37914L14.8865 2.14685C13.1635 0.95105 10.8367 0.95105 9.11375 2.14685L9.969 3.37914ZM7.81979 21.25C5.8918 21.25 4.38944 19.7671 4.38944 18.0108H2.88944C2.88944 20.6609 5.13029 22.75 7.81979 22.75V21.25ZM16.1805 22.75C18.8699 22.75 21.1108 20.6609 21.1108 18.0108H19.6108C19.6108 19.7671 18.1084 21.25 16.1805 21.25V22.75ZM20.42 7.81306C21.4263 8.51149 21.5301 9.87443 20.6626 10.7022L21.6982 11.7874C23.2625 10.2946 23.0501 7.8126 21.2752 6.58077L20.42 7.81306ZM2.72502 6.58077C0.950092 7.8126 0.737715 10.2946 2.30205 11.7874L3.33761 10.7022C2.47017 9.87443 2.57392 8.51149 3.58027 7.81306L2.72502 6.58077ZM10.0001 10.75H14.0001V9.25H10.0001V10.75ZM16.2501 13V15H17.7501V13H16.2501ZM14.0001 17.25H10.0001V18.75H14.0001V17.25ZM7.75014 15V13H6.25014V15H7.75014ZM10.0001 17.25C8.7575 17.25 7.75014 16.2426 7.75014 15H6.25014C6.25014 17.0711 7.92907 18.75 10.0001 18.75V17.25ZM16.2501 15C16.2501 16.2426 15.2427 17.25 14.0001 17.25V18.75C16.0712 18.75 17.7501 17.0711 17.7501 15H16.2501ZM14.0001 10.75C15.2427 10.75 16.2501 11.7574 16.2501 13H17.7501C17.7501 10.9289 16.0712 9.25 14.0001 9.25V10.75ZM10.0001 9.25C7.92907 9.25 6.25014 10.9289 6.25014 13H7.75014C7.75014 11.7574 8.7575 10.75 10.0001 10.75V9.25ZM9.66473 13.6708L10.7703 14.2236L11.4411 12.882L10.3355 12.3292L9.66473 13.6708ZM13.2299 14.2236L14.3355 13.6708L13.6647 12.3292L12.5591 12.882L13.2299 14.2236ZM10.7703 14.2236C11.5445 14.6107 12.4557 14.6107 13.2299 14.2236L12.5591 12.882C12.2072 13.0579 11.793 13.0579 11.4411 12.882L10.7703 14.2236Z" fill="#344054"/>
</svg>
