<svg width="24" height="24" viewBox="0 0 24 24" fill="none" xmlns="http://www.w3.org/2000/svg">
<path d="M11.0001 18.25C10.5859 18.25 10.2501 18.5858 10.2501 19C10.2501 19.4142 10.5859 19.75 11.0001 19.75V18.25ZM13.0001 19.75C13.4143 19.75 13.7501 19.4142 13.7501 19C13.7501 18.5858 13.4143 18.25 13.0001 18.25V19.75ZM16.1805 21.25H7.81979V22.75H16.1805V21.25ZM3.58027 7.81306L9.969 3.37914L9.11375 2.14685L2.72502 6.58077L3.58027 7.81306ZM14.0312 3.37914L20.42 7.81306L21.2752 6.58077L14.8865 2.14685L14.0312 3.37914ZM19.6108 13.133V18.0108H21.1108V13.133H19.6108ZM4.38944 18.0108V13.133H2.88944V18.0108H4.38944ZM4.38944 13.133C4.38944 12.2143 4.00665 11.3407 3.33761 10.7022L2.30205 11.7874C2.68258 12.1505 2.88944 12.6354 2.88944 13.133H4.38944ZM20.6626 10.7022C19.9936 11.3407 19.6108 12.2143 19.6108 13.133H21.1108C21.1108 12.6354 21.3177 12.1505 21.6982 11.7874L20.6626 10.7022ZM9.969 3.37914C11.1776 2.54029 12.8225 2.54029 14.0312 3.37914L14.8865 2.14685C13.1635 0.95105 10.8367 0.95105 9.11375 2.14685L9.969 3.37914ZM7.81979 21.25C5.8918 21.25 4.38944 19.7671 4.38944 18.0108H2.88944C2.88944 20.6609 5.13029 22.75 7.81979 22.75V21.25ZM16.1805 22.75C18.8699 22.75 21.1108 20.6609 21.1108 18.0108H19.6108C19.6108 19.7671 18.1084 21.25 16.1805 21.25V22.75ZM20.42 7.81306C21.4263 8.51149 21.5301 9.87443 20.6626 10.7022L21.6982 11.7874C23.2625 10.2946 23.0501 7.8126 21.2752 6.58077L20.42 7.81306ZM2.72502 6.58077C0.950092 7.8126 0.737715 10.2946 2.30205 11.7874L3.33761 10.7022C2.47017 9.87443 2.57392 8.51149 3.58027 7.81306L2.72502 6.58077ZM15.2776 16.25H8.7226V17.75H15.2776V16.25ZM14.5834 12.3333V13.5672H16.0834V12.3333H14.5834ZM9.41681 13.5672V12.3333H7.91681V13.5672H9.41681ZM8.49923 15.6852C9.08466 15.1363 9.41681 14.3696 9.41681 13.5672H7.91681C7.91681 13.955 7.75627 14.3256 7.47332 14.5908L8.49923 15.6852ZM14.5834 13.5672C14.5834 14.3696 14.9156 15.1363 15.501 15.6852L16.5269 14.5908C16.244 14.3256 16.0834 13.955 16.0834 13.5672H14.5834ZM8.7226 16.25C8.42653 16.25 8.28324 15.8876 8.49923 15.6852L7.47332 14.5908C6.2653 15.7234 7.06673 17.75 8.7226 17.75V16.25ZM15.2776 17.75C16.9335 17.75 17.7349 15.7234 16.5269 14.5908L15.501 15.6852C15.717 15.8876 15.5737 16.25 15.2776 16.25V17.75ZM16.0834 12.3333C16.0834 10.0782 14.2553 8.25 12.0001 8.25V9.75C13.4268 9.75 14.5834 10.9066 14.5834 12.3333H16.0834ZM9.41681 12.3333C9.41681 10.9066 10.5734 9.75 12.0001 9.75V8.25C9.74498 8.25 7.91681 10.0782 7.91681 12.3333H9.41681ZM11.0001 19.75H13.0001V18.25H11.0001V19.75Z" fill="#344054"/>
</svg>
