<svg width="24" height="24" viewBox="0 0 24 24" fill="none" xmlns="http://www.w3.org/2000/svg">
<path d="M7.00014 14.25C6.58593 14.25 6.25014 14.5858 6.25014 15C6.25014 15.4142 6.58593 15.75 7.00014 15.75V14.25ZM17.0001 14.75C17.4143 14.75 17.7501 14.4142 17.7501 14C17.7501 13.5858 17.4143 13.25 17.0001 13.25V14.75ZM16.1805 21.25H7.81979V22.75H16.1805V21.25ZM3.58027 7.81306L9.969 3.37914L9.11375 2.14685L2.72502 6.58077L3.58027 7.81306ZM14.0312 3.37914L20.42 7.81306L21.2752 6.58077L14.8865 2.14685L14.0312 3.37914ZM19.6108 13.133V18.0108H21.1108V13.133H19.6108ZM4.38944 18.0108V13.133H2.88944V18.0108H4.38944ZM4.38944 13.133C4.38944 12.2143 4.00665 11.3407 3.33761 10.7022L2.30205 11.7874C2.68258 12.1505 2.88944 12.6354 2.88944 13.133H4.38944ZM20.6626 10.7022C19.9936 11.3407 19.6108 12.2143 19.6108 13.133H21.1108C21.1108 12.6354 21.3177 12.1505 21.6982 11.7874L20.6626 10.7022ZM9.969 3.37914C11.1776 2.54029 12.8225 2.54029 14.0312 3.37914L14.8865 2.14685C13.1635 0.95105 10.8367 0.95105 9.11375 2.14685L9.969 3.37914ZM7.81979 21.25C5.8918 21.25 4.38944 19.7671 4.38944 18.0108H2.88944C2.88944 20.6609 5.13029 22.75 7.81979 22.75V21.25ZM16.1805 22.75C18.8699 22.75 21.1108 20.6609 21.1108 18.0108H19.6108C19.6108 19.7671 18.1084 21.25 16.1805 21.25V22.75ZM20.42 7.81306C21.4263 8.51149 21.5301 9.87443 20.6626 10.7022L21.6982 11.7874C23.2625 10.2946 23.0501 7.8126 21.2752 6.58077L20.42 7.81306ZM2.72502 6.58077C0.950092 7.8126 0.737715 10.2946 2.30205 11.7874L3.33761 10.7022C2.47017 9.87443 2.57392 8.51149 3.58027 7.81306L2.72502 6.58077ZM7.00014 15.75H7.50014V14.25H7.00014V15.75ZM9.75014 13.5V12.5H8.25014V13.5H9.75014ZM11.2501 12.5V15.5H12.7501V12.5H11.2501ZM16.5001 14.75H17.0001V13.25H16.5001V14.75ZM15.7501 15.5C15.7501 15.0858 16.0859 14.75 16.5001 14.75V13.25C15.2575 13.25 14.2501 14.2574 14.2501 15.5H15.7501ZM13.5001 17.75C14.7427 17.75 15.7501 16.7426 15.7501 15.5H14.2501C14.2501 15.9142 13.9143 16.25 13.5001 16.25V17.75ZM11.2501 15.5C11.2501 16.7426 12.2575 17.75 13.5001 17.75V16.25C13.0859 16.25 12.7501 15.9142 12.7501 15.5H11.2501ZM10.5001 11.75C10.9143 11.75 11.2501 12.0858 11.2501 12.5H12.7501C12.7501 11.2574 11.7427 10.25 10.5001 10.25V11.75ZM9.75014 12.5C9.75014 12.0858 10.0859 11.75 10.5001 11.75V10.25C9.2575 10.25 8.25014 11.2574 8.25014 12.5H9.75014ZM7.50014 15.75C8.74278 15.75 9.75014 14.7426 9.75014 13.5H8.25014C8.25014 13.9142 7.91435 14.25 7.50014 14.25V15.75Z" fill="#344054"/>
</svg>
