<svg width="24" height="24" viewBox="0 0 24 24" fill="none" xmlns="http://www.w3.org/2000/svg">
<path d="M16.1805 21.25H7.81979V22.75H16.1805V21.25ZM3.58027 7.81306L9.969 3.37914L9.11375 2.14685L2.72502 6.58077L3.58027 7.81306ZM14.0312 3.37914L20.42 7.81306L21.2752 6.58077L14.8865 2.14685L14.0312 3.37914ZM19.6108 13.133V18.0108H21.1108V13.133H19.6108ZM4.38944 18.0108V13.133H2.88944V18.0108H4.38944ZM4.38944 13.133C4.38944 12.2143 4.00665 11.3407 3.33761 10.7022L2.30205 11.7874C2.68258 12.1505 2.88944 12.6354 2.88944 13.133H4.38944ZM20.6626 10.7022C19.9936 11.3407 19.6108 12.2143 19.6108 13.133H21.1108C21.1108 12.6354 21.3177 12.1505 21.6982 11.7874L20.6626 10.7022ZM9.969 3.37914C11.1776 2.54029 12.8225 2.54029 14.0312 3.37914L14.8865 2.14685C13.1635 0.95105 10.8367 0.95105 9.11375 2.14685L9.969 3.37914ZM7.81979 21.25C5.8918 21.25 4.38944 19.7671 4.38944 18.0108H2.88944C2.88944 20.6609 5.13029 22.75 7.81979 22.75V21.25ZM16.1805 22.75C18.8699 22.75 21.1108 20.6609 21.1108 18.0108H19.6108C19.6108 19.7671 18.1084 21.25 16.1805 21.25V22.75ZM20.42 7.81306C21.4263 8.51149 21.5301 9.87443 20.6626 10.7022L21.6982 11.7874C23.2625 10.2946 23.0501 7.8126 21.2752 6.58077L20.42 7.81306ZM2.72502 6.58077C0.950092 7.8126 0.737715 10.2946 2.30205 11.7874L3.33761 10.7022C2.47017 9.87443 2.57392 8.51149 3.58027 7.81306L2.72502 6.58077ZM11.5759 10.75H12.4243V9.25H11.5759V10.75ZM12.4243 17.25H11.5759V18.75H12.4243V17.25ZM11.5759 17.25C11.5344 17.25 11.5059 17.2346 11.4904 17.22C11.4827 17.2128 11.4795 17.207 11.4783 17.2044C11.4775 17.2026 11.4774 17.2017 11.4774 17.2H9.9774C9.9774 18.097 10.7352 18.75 11.5759 18.75V17.25ZM12.5228 17.2C12.5228 17.2017 12.5227 17.2026 12.5218 17.2044C12.5207 17.207 12.5174 17.2128 12.5098 17.22C12.4943 17.2346 12.4658 17.25 12.4243 17.25V18.75C13.265 18.75 14.0228 18.097 14.0228 17.2H12.5228ZM12.4243 10.75C12.4658 10.75 12.4943 10.7654 12.5098 10.78C12.5174 10.7872 12.5207 10.793 12.5218 10.7956C12.5227 10.7974 12.5228 10.7983 12.5228 10.8H14.0228C14.0228 9.90299 13.265 9.25 12.4243 9.25V10.75ZM11.5759 9.25C10.7352 9.25 9.9774 9.90299 9.9774 10.8H11.4774C11.4774 10.7983 11.4775 10.7974 11.4783 10.7956C11.4795 10.793 11.4827 10.7872 11.4904 10.78C11.5059 10.7654 11.5344 10.75 11.5759 10.75V9.25ZM14.8224 12.0453L15.2467 12.7381L16.5259 11.9547L16.1017 11.2619L14.8224 12.0453ZM9.17782 15.9547L8.75358 15.2619L7.47436 16.0453L7.8986 16.7381L9.17782 15.9547ZM8.75358 15.2619C8.75159 15.2587 8.75079 15.2566 8.75051 15.2558C8.75021 15.255 8.75017 15.2546 8.75017 15.2546C8.75014 15.255 8.75016 15.2546 8.75017 15.2546C8.7502 15.2542 8.7503 15.2527 8.75064 15.2516C8.75129 15.2493 8.75296 15.2451 8.75712 15.2399C8.76101 15.2351 8.7686 15.2274 8.78312 15.2195L8.06595 13.902C7.30301 14.3174 7.00428 15.2776 7.47436 16.0453L8.75358 15.2619ZM9.33869 15.9805C9.30993 15.9962 9.27347 16.0012 9.23712 15.992C9.20089 15.9828 9.18413 15.9651 9.17782 15.9547L7.8986 16.7381C8.35145 17.4776 9.3163 17.7005 10.0558 17.298L9.33869 15.9805ZM15.2467 12.7381C15.2487 12.7413 15.2495 12.7434 15.2497 12.7442C15.25 12.745 15.2501 12.7454 15.2501 12.7454C15.2501 12.7458 15.25 12.7473 15.2496 12.7484C15.249 12.7507 15.2473 12.7549 15.2431 12.7601C15.2392 12.7649 15.2317 12.7726 15.2171 12.7805L15.9343 14.098C16.6972 13.6826 16.996 12.7224 16.5259 11.9547L15.2467 12.7381ZM16.1017 11.2619C15.6488 10.5224 14.684 10.2995 13.9444 10.702L14.6616 12.0195C14.6903 12.0038 14.7268 11.9988 14.7631 12.008C14.7994 12.0172 14.8161 12.0349 14.8224 12.0453L16.1017 11.2619ZM8.75357 12.7381L9.17781 12.0453L7.89859 11.2619L7.47435 11.9547L8.75357 12.7381ZM15.2467 15.2619L14.8224 15.9547L16.1016 16.7381L16.5259 16.0453L15.2467 15.2619ZM14.8224 15.9547C14.8161 15.9651 14.7994 15.9828 14.7631 15.992C14.7268 16.0012 14.6903 15.9962 14.6616 15.9805L13.9444 17.298C14.6839 17.7005 15.6488 17.4776 16.1016 16.7381L14.8224 15.9547ZM15.2171 15.2195C15.2316 15.2274 15.2392 15.2351 15.2431 15.2399C15.2473 15.2451 15.2489 15.2493 15.2496 15.2516C15.2499 15.2527 15.25 15.2536 15.2501 15.254C15.2501 15.254 15.25 15.255 15.2497 15.2558C15.2495 15.2566 15.2487 15.2587 15.2467 15.2619L16.5259 16.0453C16.996 15.2776 16.6972 14.3174 15.9343 13.902L15.2171 15.2195ZM9.17781 12.0453C9.18412 12.0349 9.20088 12.0172 9.23711 12.008C9.27346 11.9988 9.30991 12.0038 9.33867 12.0195L10.0558 10.702C9.31629 10.2995 8.35144 10.5224 7.89859 11.2619L9.17781 12.0453ZM7.47435 11.9547C7.00426 12.7224 7.303 13.6826 8.06594 14.098L8.78311 12.7805C8.76859 12.7726 8.761 12.7649 8.75711 12.7601C8.75295 12.7549 8.75128 12.7507 8.75063 12.7484C8.75029 12.7473 8.75019 12.7464 8.75015 12.746C8.75013 12.7456 8.75014 12.746 8.75015 12.746C8.75015 12.746 8.7502 12.745 8.7505 12.7442C8.75078 12.7434 8.75157 12.7413 8.75357 12.7381L7.47435 11.9547ZM14.6165 12.044L14.6616 12.0195L13.9444 10.702L13.8993 10.7266L14.6165 12.044ZM14.6616 15.9805L14.6164 15.9559L13.8993 17.2734L13.9444 17.298L14.6616 15.9805ZM9.38378 15.956L9.33869 15.9805L10.0558 17.298L10.1009 17.2734L9.38378 15.956ZM9.33867 12.0195L9.38378 12.044L10.1009 10.7266L10.0558 10.702L9.33867 12.0195ZM9.9774 10.8C9.9774 10.7896 9.98092 10.773 9.99043 10.7569C9.99884 10.7427 10.009 10.7337 10.0182 10.7282C10.0275 10.7226 10.0403 10.718 10.0568 10.7174C10.0755 10.7168 10.0918 10.7216 10.1009 10.7266L9.38378 12.044C10.3276 12.5578 11.4774 11.8746 11.4774 10.8H9.9774ZM8.06594 14.098C7.98835 14.0557 7.98832 13.9443 8.06595 13.902L8.78312 15.2195C9.74931 14.6935 9.74926 13.3064 8.78311 12.7805L8.06594 14.098ZM10.1009 17.2734C10.0918 17.2784 10.0755 17.2832 10.0568 17.2826C10.0403 17.282 10.0275 17.2774 10.0182 17.2719C10.009 17.2663 9.99884 17.2573 9.99043 17.2431C9.98092 17.227 9.9774 17.2104 9.9774 17.2H11.4774C11.4774 16.1254 10.3276 15.4422 9.38378 15.956L10.1009 17.2734ZM14.0228 17.2C14.0228 17.2104 14.0193 17.227 14.0098 17.2431C14.0014 17.2573 13.9912 17.2663 13.9819 17.2718C13.9727 17.2774 13.9599 17.282 13.9434 17.2826C13.9247 17.2832 13.9084 17.2784 13.8993 17.2734L14.6164 15.9559C13.6725 15.4421 12.5228 16.1254 12.5228 17.2H14.0228ZM15.9343 13.902C16.0119 13.9443 16.0119 14.0557 15.9343 14.098L15.2171 12.7805C14.251 13.3064 14.2509 14.6935 15.2171 15.2195L15.9343 13.902ZM13.8993 10.7266C13.9084 10.7216 13.9247 10.7168 13.9434 10.7174C13.9599 10.718 13.9727 10.7227 13.9819 10.7282C13.9912 10.7337 14.0014 10.7427 14.0098 10.7569C14.0193 10.773 14.0228 10.7896 14.0228 10.8H12.5228C12.5228 11.8746 13.6726 12.5578 14.6165 12.044L13.8993 10.7266Z" fill="#344054"/>
<path d="M12.75 14C12.75 14.4142 12.4142 14.75 12 14.75C11.5858 14.75 11.25 14.4142 11.25 14C11.25 13.5858 11.5858 13.25 12 13.25C12.4142 13.25 12.75 13.5858 12.75 14Z" fill="#344054"/>
</svg>
