<svg width="24" height="24" viewBox="0 0 24 24" fill="none" xmlns="http://www.w3.org/2000/svg">
<path d="M13.5911 16.6517C13.884 16.9446 14.3589 16.9446 14.6518 16.6517C14.9447 16.3588 14.9447 15.8839 14.6518 15.591L13.5911 16.6517ZM10.4091 11.3484C10.1162 11.0555 9.64139 11.0555 9.34851 11.3484C9.0556 11.6413 9.0556 12.1161 9.34851 12.409L10.4091 11.3484ZM9.34846 15.591C9.05557 15.8839 9.05557 16.3588 9.34846 16.6517C9.64137 16.9446 10.1162 16.9446 10.4091 16.6517L9.34846 15.591ZM14.6517 12.409C14.9446 12.1161 14.9446 11.6413 14.6517 11.3484C14.3588 11.0555 13.884 11.0555 13.5911 11.3484L14.6517 12.409ZM16.1805 21.25H7.81979V22.75H16.1805V21.25ZM3.58027 7.81306L9.969 3.37914L9.11375 2.14685L2.72502 6.58077L3.58027 7.81306ZM14.0312 3.37914L20.42 7.81306L21.2752 6.58077L14.8865 2.14685L14.0312 3.37914ZM19.6108 13.133V18.0108H21.1108V13.133H19.6108ZM4.38944 18.0108V13.133H2.88944V18.0108H4.38944ZM4.38944 13.133C4.38944 12.2143 4.00665 11.3407 3.33761 10.7022L2.30205 11.7874C2.68258 12.1505 2.88944 12.6354 2.88944 13.133H4.38944ZM20.6626 10.7022C19.9936 11.3407 19.6108 12.2143 19.6108 13.133H21.1108C21.1108 12.6354 21.3177 12.1505 21.6982 11.7874L20.6626 10.7022ZM9.969 3.37914C11.1776 2.54029 12.8225 2.54029 14.0312 3.37914L14.8865 2.14685C13.1635 0.95105 10.8367 0.95105 9.11375 2.14685L9.969 3.37914ZM7.81979 21.25C5.8918 21.25 4.38944 19.7671 4.38944 18.0108H2.88944C2.88944 20.6609 5.13029 22.75 7.81979 22.75V21.25ZM16.1805 22.75C18.8699 22.75 21.1108 20.6609 21.1108 18.0108H19.6108C19.6108 19.7671 18.1084 21.25 16.1805 21.25V22.75ZM20.42 7.81306C21.4263 8.51149 21.5301 9.87443 20.6626 10.7022L21.6982 11.7874C23.2625 10.2946 23.0501 7.8126 21.2752 6.58077L20.42 7.81306ZM2.72502 6.58077C0.950092 7.8126 0.737715 10.2946 2.30205 11.7874L3.33761 10.7022C2.47017 9.87443 2.57392 8.51149 3.58027 7.81306L2.72502 6.58077ZM14.6518 15.591L10.4091 11.3484L9.34851 12.409L13.5911 16.6517L14.6518 15.591ZM10.4091 16.6517L14.6517 12.409L13.5911 11.3484L9.34846 15.591L10.4091 16.6517Z" fill="#344054"/>
</svg>
