<svg width="24" height="24" viewBox="0 0 24 24" fill="none" xmlns="http://www.w3.org/2000/svg">
<path d="M13.6001 9.45C13.8486 9.11863 13.7815 8.64853 13.4501 8.4C13.1187 8.15147 12.6486 8.21863 12.4001 8.55L13.6001 9.45ZM10.0001 13L9.40014 12.55C9.22968 12.7773 9.20228 13.0813 9.32932 13.3354C9.45636 13.5895 9.71606 13.75 10.0001 13.75V13ZM14.0001 13L14.6001 13.45C14.7705 13.2227 14.798 12.9187 14.6709 12.6646C14.5439 12.4105 14.2842 12.25 14.0001 12.25V13ZM10.4001 16.55C10.1516 16.8814 10.2187 17.3515 10.5501 17.6C10.8815 17.8485 11.3516 17.7814 11.6001 17.45L10.4001 16.55ZM16.1805 21.25H7.81979V22.75H16.1805V21.25ZM3.58027 7.81306L9.969 3.37914L9.11375 2.14685L2.72502 6.58077L3.58027 7.81306ZM14.0312 3.37914L20.42 7.81306L21.2752 6.58077L14.8865 2.14685L14.0312 3.37914ZM19.6108 13.133V18.0108H21.1108V13.133H19.6108ZM4.38944 18.0108V13.133H2.88944V18.0108H4.38944ZM4.38944 13.133C4.38944 12.2143 4.00665 11.3407 3.33761 10.7022L2.30205 11.7874C2.68258 12.1505 2.88944 12.6354 2.88944 13.133H4.38944ZM20.6626 10.7022C19.9936 11.3407 19.6108 12.2143 19.6108 13.133H21.1108C21.1108 12.6354 21.3177 12.1505 21.6982 11.7874L20.6626 10.7022ZM9.969 3.37914C11.1776 2.54029 12.8225 2.54029 14.0312 3.37914L14.8865 2.14685C13.1635 0.95105 10.8367 0.95105 9.11375 2.14685L9.969 3.37914ZM7.81979 21.25C5.8918 21.25 4.38944 19.7671 4.38944 18.0108H2.88944C2.88944 20.6609 5.13029 22.75 7.81979 22.75V21.25ZM16.1805 22.75C18.8699 22.75 21.1108 20.6609 21.1108 18.0108H19.6108C19.6108 19.7671 18.1084 21.25 16.1805 21.25V22.75ZM20.42 7.81306C21.4263 8.51149 21.5301 9.87443 20.6626 10.7022L21.6982 11.7874C23.2625 10.2946 23.0501 7.8126 21.2752 6.58077L20.42 7.81306ZM2.72502 6.58077C0.950092 7.8126 0.737715 10.2946 2.30205 11.7874L3.33761 10.7022C2.47017 9.87443 2.57392 8.51149 3.58027 7.81306L2.72502 6.58077ZM12.4001 8.55L9.40014 12.55L10.6001 13.45L13.6001 9.45L12.4001 8.55ZM10.0001 13.75H14.0001V12.25H10.0001V13.75ZM13.4001 12.55L10.4001 16.55L11.6001 17.45L14.6001 13.45L13.4001 12.55Z" fill="#344054"/>
</svg>
