<svg width="24" height="24" viewBox="0 0 24 24" fill="none" xmlns="http://www.w3.org/2000/svg">
<path d="M16.1805 21.25H7.81979V22.75H16.1805V21.25ZM3.58027 7.81306L9.969 3.37914L9.11375 2.14685L2.72502 6.58077L3.58027 7.81306ZM14.0312 3.37914L20.42 7.81306L21.2752 6.58077L14.8865 2.14685L14.0312 3.37914ZM19.6108 13.133V18.0108H21.1108V13.133H19.6108ZM4.38944 18.0108V13.133H2.88944V18.0108H4.38944ZM4.38944 13.133C4.38944 12.2143 4.00665 11.3407 3.33761 10.7022L2.30205 11.7874C2.68258 12.1505 2.88944 12.6354 2.88944 13.133H4.38944ZM20.6626 10.7022C19.9936 11.3407 19.6108 12.2143 19.6108 13.133H21.1108C21.1108 12.6354 21.3177 12.1505 21.6982 11.7874L20.6626 10.7022ZM9.969 3.37914C11.1776 2.54029 12.8225 2.54029 14.0312 3.37914L14.8865 2.14685C13.1635 0.95105 10.8367 0.95105 9.11375 2.14685L9.969 3.37914ZM7.81979 21.25C5.8918 21.25 4.38944 19.7671 4.38944 18.0108H2.88944C2.88944 20.6609 5.13029 22.75 7.81979 22.75V21.25ZM16.1805 22.75C18.8699 22.75 21.1108 20.6609 21.1108 18.0108H19.6108C19.6108 19.7671 18.1084 21.25 16.1805 21.25V22.75ZM20.42 7.81306C21.4263 8.51149 21.5301 9.87443 20.6626 10.7022L21.6982 11.7874C23.2625 10.2946 23.0501 7.8126 21.2752 6.58077L20.42 7.81306ZM2.72502 6.58077C0.950092 7.8126 0.737715 10.2946 2.30205 11.7874L3.33761 10.7022C2.47017 9.87443 2.57392 8.51149 3.58027 7.81306L2.72502 6.58077ZM15.4782 14.5506C14.5966 15.3781 13.3308 16.25 12.0001 16.25V17.75C13.9304 17.75 15.561 16.5301 16.5048 15.6443L15.4782 14.5506ZM12.0001 16.25C10.6694 16.25 9.40366 15.3781 8.522 14.5506L7.49546 15.6443C8.43928 16.5301 10.0698 17.75 12.0001 17.75V16.25ZM8.522 13.4494C9.40366 12.6219 10.6694 11.75 12.0001 11.75V10.25C10.0698 10.25 8.43928 11.4699 7.49546 12.3557L8.522 13.4494ZM12.0001 11.75C13.3308 11.75 14.5966 12.6219 15.4782 13.4494L16.5048 12.3557C15.561 11.4699 13.9304 10.25 12.0001 10.25V11.75ZM8.522 14.5506C8.19215 14.241 8.19215 13.759 8.522 13.4494L7.49546 12.3557C6.53433 13.2578 6.53433 14.7422 7.49546 15.6443L8.522 14.5506ZM16.5048 15.6443C17.4659 14.7422 17.4659 13.2578 16.5048 12.3557L15.4782 13.4494C15.8081 13.759 15.8081 14.241 15.4782 14.5506L16.5048 15.6443Z" fill="#344054"/>
<path d="M12 15C12.5523 15 13 14.5523 13 14C13 13.4477 12.5523 13 12 13C11.4477 13 11 13.4477 11 14C11 14.5523 11.4477 15 12 15Z" fill="#344054"/>
</svg>
