<svg width="24" height="24" viewBox="0 0 24 24" fill="none" xmlns="http://www.w3.org/2000/svg">
<path d="M6.32932 16.6646C6.14408 17.0351 6.29425 17.4856 6.66473 17.6708C7.03521 17.8561 7.48572 17.7059 7.67096 17.3354L6.32932 16.6646ZM16.0001 11L16.6709 10.6646C16.5439 10.4105 16.2842 10.25 16.0001 10.25V11ZM16.3293 13.3354C16.5145 13.7059 16.965 13.8561 17.3355 13.6708C17.706 13.4856 17.8562 13.0351 17.6709 12.6646L16.3293 13.3354ZM14.0001 10.25C13.5859 10.25 13.2501 10.5858 13.2501 11C13.2501 11.4142 13.5859 11.75 14.0001 11.75V10.25ZM16.1805 21.25H7.81979V22.75H16.1805V21.25ZM3.58027 7.81306L9.969 3.37914L9.11375 2.14685L2.72502 6.58077L3.58027 7.81306ZM14.0312 3.37914L20.42 7.81306L21.2752 6.58077L14.8865 2.14685L14.0312 3.37914ZM19.6108 13.133V18.0108H21.1108V13.133H19.6108ZM4.38944 18.0108V13.133H2.88944V18.0108H4.38944ZM4.38944 13.133C4.38944 12.2143 4.00665 11.3407 3.33761 10.7022L2.30205 11.7874C2.68258 12.1505 2.88944 12.6354 2.88944 13.133H4.38944ZM20.6626 10.7022C19.9936 11.3407 19.6108 12.2143 19.6108 13.133H21.1108C21.1108 12.6354 21.3177 12.1505 21.6982 11.7874L20.6626 10.7022ZM9.969 3.37914C11.1776 2.54029 12.8225 2.54029 14.0312 3.37914L14.8865 2.14685C13.1635 0.95105 10.8367 0.95105 9.11375 2.14685L9.969 3.37914ZM7.81979 21.25C5.8918 21.25 4.38944 19.7671 4.38944 18.0108H2.88944C2.88944 20.6609 5.13029 22.75 7.81979 22.75V21.25ZM16.1805 22.75C18.8699 22.75 21.1108 20.6609 21.1108 18.0108H19.6108C19.6108 19.7671 18.1084 21.25 16.1805 21.25V22.75ZM20.42 7.81306C21.4263 8.51149 21.5301 9.87443 20.6626 10.7022L21.6982 11.7874C23.2625 10.2946 23.0501 7.8126 21.2752 6.58077L20.42 7.81306ZM2.72502 6.58077C0.950092 7.8126 0.737715 10.2946 2.30205 11.7874L3.33761 10.7022C2.47017 9.87443 2.57392 8.51149 3.58027 7.81306L2.72502 6.58077ZM7.67096 17.3354L9.77653 13.1243L8.43489 12.4534L6.32932 16.6646L7.67096 17.3354ZM10.2237 13.1243L11.4349 15.5466L12.7765 14.8757L11.5653 12.4534L10.2237 13.1243ZM14.5653 15.5466L16.6709 11.3354L15.3293 10.6646L13.2237 14.8757L14.5653 15.5466ZM15.3293 11.3354L16.3293 13.3354L17.6709 12.6646L16.6709 10.6646L15.3293 11.3354ZM16.0001 10.25H14.0001V11.75H16.0001V10.25ZM11.4349 15.5466C12.0798 16.8364 13.9204 16.8364 14.5653 15.5466L13.2237 14.8757C13.1316 15.06 12.8686 15.06 12.7765 14.8757L11.4349 15.5466ZM9.77653 13.1243C9.86866 12.94 10.1316 12.94 10.2237 13.1243L11.5653 12.4534C10.9204 11.1636 9.07981 11.1636 8.43489 12.4534L9.77653 13.1243Z" fill="#344054"/>
</svg>
