<svg width="24" height="24" viewBox="0 0 24 24" fill="none" xmlns="http://www.w3.org/2000/svg">
<path d="M14.6518 12.1162C14.3589 12.4091 14.3589 12.8839 14.6518 13.1768C14.9447 13.4697 15.4195 13.4697 15.7124 13.1768L14.6518 12.1162ZM10.7627 14.2375C11.0556 14.5304 11.5304 14.5304 11.8233 14.2375C12.1162 13.9446 12.1162 13.4697 11.8233 13.1768L10.7627 14.2375ZM9.34846 13.8838C9.64137 13.5909 9.64135 13.1161 9.34846 12.8232C9.05557 12.5303 8.5807 12.5303 8.28781 12.8232L9.34846 13.8838ZM13.2375 11.7625C12.9446 11.4696 12.4698 11.4696 12.1769 11.7625C11.884 12.0554 11.884 12.5303 12.1769 12.8232L13.2375 11.7625ZM16.1805 21.25H7.81979V22.75H16.1805V21.25ZM3.58027 7.81306L9.969 3.37914L9.11375 2.14685L2.72502 6.58077L3.58027 7.81306ZM14.0312 3.37914L20.42 7.81306L21.2752 6.58077L14.8865 2.14685L14.0312 3.37914ZM19.6108 13.133V18.0108H21.1108V13.133H19.6108ZM4.38944 18.0108V13.133H2.88944V18.0108H4.38944ZM4.38944 13.133C4.38944 12.2143 4.00665 11.3407 3.33761 10.7022L2.30205 11.7874C2.68258 12.1505 2.88944 12.6354 2.88944 13.133H4.38944ZM20.6626 10.7022C19.9936 11.3407 19.6108 12.2143 19.6108 13.133H21.1108C21.1108 12.6354 21.3177 12.1505 21.6982 11.7874L20.6626 10.7022ZM9.969 3.37914C11.1776 2.54029 12.8225 2.54029 14.0312 3.37914L14.8865 2.14685C13.1635 0.95105 10.8367 0.95105 9.11375 2.14685L9.969 3.37914ZM7.81979 21.25C5.8918 21.25 4.38944 19.7671 4.38944 18.0108H2.88944C2.88944 20.6609 5.13029 22.75 7.81979 22.75V21.25ZM16.1805 22.75C18.8699 22.75 21.1108 20.6609 21.1108 18.0108H19.6108C19.6108 19.7671 18.1084 21.25 16.1805 21.25V22.75ZM20.42 7.81306C21.4263 8.51149 21.5301 9.87443 20.6626 10.7022L21.6982 11.7874C23.2625 10.2946 23.0501 7.8126 21.2752 6.58077L20.42 7.81306ZM2.72502 6.58077C0.950092 7.8126 0.737715 10.2946 2.30205 11.7874L3.33761 10.7022C2.47017 9.87443 2.57392 8.51149 3.58027 7.81306L2.72502 6.58077ZM11.8233 11.409L13.2376 9.99484L12.1769 8.93418L10.7627 10.3484L11.8233 11.409ZM15.0053 11.7626L14.6518 12.1162L15.7124 13.1768L16.066 12.8233L15.0053 11.7626ZM10.7627 10.3484C9.68878 11.4223 9.68878 13.1635 10.7627 14.2375L11.8233 13.1768C11.3352 12.6887 11.3352 11.8972 11.8233 11.409L10.7627 10.3484ZM15.0053 9.99484C15.4935 10.483 15.4935 11.2744 15.0053 11.7626L16.066 12.8233C17.1399 11.7493 17.1399 10.0081 16.066 8.93418L15.0053 9.99484ZM16.066 8.93418C14.992 7.86023 13.2508 7.86023 12.1769 8.93418L13.2376 9.99484C13.7257 9.50668 14.5172 9.50668 15.0053 9.99484L16.066 8.93418ZM12.1769 14.591L10.7626 16.0052L11.8233 17.0658L13.2375 15.6516L12.1769 14.591ZM8.99492 14.2374L9.34846 13.8838L8.28781 12.8232L7.93426 13.1767L8.99492 14.2374ZM13.2375 15.6516C14.3115 14.5777 14.3115 12.8365 13.2375 11.7625L12.1769 12.8232C12.665 13.3113 12.665 14.1028 12.1769 14.591L13.2375 15.6516ZM8.99492 16.0052C8.50676 15.517 8.50676 14.7256 8.99492 14.2374L7.93426 13.1767C6.86032 14.2507 6.86032 15.9919 7.93426 17.0658L8.99492 16.0052ZM7.93426 17.0658C9.0082 18.1398 10.7494 18.1398 11.8233 17.0658L10.7626 16.0052C10.2745 16.4933 9.48307 16.4933 8.99492 16.0052L7.93426 17.0658Z" fill="#344054"/>
</svg>
