<svg width="24" height="24" viewBox="0 0 24 24" fill="none" xmlns="http://www.w3.org/2000/svg">
<path d="M12.75 18C12.75 18.4142 12.4142 18.75 12 18.75C11.5858 18.75 11.25 18.4142 11.25 18C11.25 17.5858 11.5858 17.25 12 17.25C12.4142 17.25 12.75 17.5858 12.75 18Z" fill="#344054"/>
<path d="M15.7123 14.2872C16.0052 14.5801 16.48 14.5801 16.7729 14.2872C17.0658 13.9943 17.0658 13.5194 16.7729 13.2265L15.7123 14.2872ZM9.34831 15.3479C9.05542 15.6408 9.05542 16.1156 9.34831 16.4085C9.64121 16.7014 10.1161 16.7014 10.409 16.4085L9.34831 15.3479ZM7.22699 13.2265C6.9341 13.5194 6.9341 13.9943 7.22699 14.2872C7.51989 14.5801 7.99476 14.5801 8.28765 14.2872L7.22699 13.2265ZM13.591 16.4085C13.8838 16.7014 14.3587 16.7014 14.6516 16.4085C14.9445 16.1156 14.9445 15.6408 14.6516 15.3479L13.591 16.4085ZM12 12.7495C13.4499 12.7495 14.7614 13.3363 15.7123 14.2872L16.7729 13.2265C15.5522 12.0059 13.8637 11.2495 12 11.2495V12.7495ZM10.409 16.4085C10.817 16.0005 11.3784 15.7495 12 15.7495V14.2495C10.9646 14.2495 10.0261 14.6701 9.34831 15.3479L10.409 16.4085ZM8.28765 14.2872C9.23854 13.3363 10.55 12.7495 12 12.7495V11.2495C10.1362 11.2495 8.44768 12.0059 7.22699 13.2265L8.28765 14.2872ZM12 15.7495C12.6215 15.7495 13.183 16.0005 13.591 16.4085L14.6516 15.3479C13.9738 14.6701 13.0353 14.2495 12 14.2495V15.7495ZM20.75 13.9995C20.75 11.673 19.4946 9.29343 18.0544 7.30563C16.597 5.29396 14.8608 3.56326 13.724 2.51476L12.707 3.61736C13.8084 4.63321 15.4645 6.28757 16.8397 8.1857C18.2322 10.1077 19.25 12.1626 19.25 13.9995H20.75ZM10.276 2.51476C9.13918 3.56326 7.40305 5.29396 5.94557 7.30563C4.50539 9.29343 3.25 11.673 3.25 13.9995H4.75C4.75 12.1626 5.76776 10.1077 7.16027 8.1857C8.53548 6.28757 10.1916 4.63321 11.293 3.61736L10.276 2.51476ZM3.25 13.9995C3.25 16.971 4.39225 19.1821 6.09151 20.6398C7.77267 22.082 9.95342 22.7495 12 22.7495V21.2495C10.2595 21.2495 8.44024 20.6784 7.06817 19.5013C5.7142 18.3398 4.75 16.5509 4.75 13.9995H3.25ZM12 22.7495C14.0466 22.7495 16.2273 22.082 17.9085 20.6398C19.6077 19.1821 20.75 16.971 20.75 13.9995H19.25C19.25 16.5509 18.2858 18.3398 16.9318 19.5013C15.5598 20.6784 13.7405 21.2495 12 21.2495V22.7495ZM13.724 2.51476C12.7428 1.60967 11.2572 1.60967 10.276 2.51476L11.293 3.61736C11.6998 3.24214 12.3002 3.24214 12.707 3.61736L13.724 2.51476Z" fill="#344054"/>
</svg>
