<svg width="24" height="24" viewBox="0 0 24 24" fill="none" xmlns="http://www.w3.org/2000/svg">
<path d="M15.0001 2.75C15.4143 2.75 15.7501 2.41421 15.7501 2C15.7501 1.58579 15.4143 1.25 15.0001 1.25V2.75ZM22.7501 9C22.7501 8.58579 22.4143 8.25 22.0001 8.25C21.5859 8.25 21.2501 8.58579 21.2501 9H22.7501ZM21.5619 14.6087C21.898 14.8507 22.3667 14.7744 22.6088 14.4382C22.8508 14.1021 22.7745 13.6334 22.4383 13.3913L21.5619 14.6087ZM2.43829 13.3913C2.10214 13.1493 1.63344 13.2256 1.39141 13.5618C1.14938 13.8979 1.22568 14.3666 1.56183 14.6087L2.43829 13.3913ZM18.0001 21.25H6.00006V22.75H18.0001V21.25ZM2.75006 18V6H1.25006V18H2.75006ZM6.00006 2.75H15.0001V1.25H6.00006V2.75ZM21.2501 9V18H22.7501V9H21.2501ZM6.00006 21.25C4.20513 21.25 2.75006 19.7949 2.75006 18H1.25006C1.25006 20.6234 3.37671 22.75 6.00006 22.75V21.25ZM18.0001 22.75C20.6235 22.75 22.7501 20.6234 22.7501 18H21.2501C21.2501 19.7949 19.795 21.25 18.0001 21.25V22.75ZM2.75006 6C2.75006 4.20507 4.20513 2.75 6.00006 2.75V1.25C3.37671 1.25 1.25006 3.37665 1.25006 6H2.75006ZM22.4383 13.3913L19.4993 11.2753L18.6229 12.4926L21.5619 14.6087L22.4383 13.3913ZM13.5463 11.5994L9.45042 15.2857L10.4539 16.4006L14.5497 12.7143L13.5463 11.5994ZM5.3773 15.5074L2.43829 13.3913L1.56183 14.6087L4.50084 16.7247L5.3773 15.5074ZM9.45042 15.2857C8.31392 16.3085 6.61814 16.4008 5.3773 15.5074L4.50084 16.7247C6.31438 18.0305 8.79283 17.8955 10.4539 16.4006L9.45042 15.2857ZM19.4993 11.2753C17.6858 9.96952 15.2073 10.1045 13.5463 11.5994L14.5497 12.7143C15.6862 11.6915 17.382 11.5992 18.6229 12.4926L19.4993 11.2753ZM10.2501 8.5C10.2501 9.4665 9.46656 10.25 8.50006 10.25V11.75C10.295 11.75 11.7501 10.2949 11.7501 8.5H10.2501ZM8.50006 10.25C7.53356 10.25 6.75006 9.4665 6.75006 8.5H5.25006C5.25006 10.2949 6.70513 11.75 8.50006 11.75V10.25ZM6.75006 8.5C6.75006 7.5335 7.53356 6.75 8.50006 6.75V5.25C6.70513 5.25 5.25006 6.70507 5.25006 8.5H6.75006ZM8.50006 6.75C9.46656 6.75 10.2501 7.5335 10.2501 8.5H11.7501C11.7501 6.70507 10.295 5.25 8.50006 5.25V6.75ZM18.5989 1.90901L15.1778 5.33012L16.2385 6.39078L19.6596 2.96967L18.5989 1.90901ZM18.3598 8.5121L21.7809 5.09099L20.7203 4.03033L17.2992 7.45144L18.3598 8.5121ZM14.7161 6.14874L14.2869 7.89023L15.7433 8.24922L16.1725 6.50772L14.7161 6.14874ZM15.7997 9.40306L17.5412 8.9738L17.1822 7.5174L15.4407 7.94665L15.7997 9.40306ZM14.2869 7.89023C14.0619 8.80293 14.887 9.62803 15.7997 9.40306L15.4407 7.94665C15.6232 7.90166 15.7883 8.06668 15.7433 8.24922L14.2869 7.89023ZM21.7809 5.09099C22.6596 4.21231 22.6596 2.78769 21.7809 1.90901L20.7203 2.96967C21.0132 3.26256 21.0132 3.73744 20.7203 4.03033L21.7809 5.09099ZM17.2992 7.45144C17.2669 7.48368 17.2265 7.50648 17.1822 7.5174L17.5412 8.9738C17.8511 8.89743 18.1341 8.73777 18.3598 8.5121L17.2992 7.45144ZM15.1778 5.33012C14.9522 5.55578 14.7925 5.83887 14.7161 6.14874L16.1725 6.50772C16.1834 6.46346 16.2063 6.42302 16.2385 6.39078L15.1778 5.33012ZM19.6596 2.96967C19.9525 2.67678 20.4274 2.67678 20.7203 2.96967L21.7809 1.90901C20.9022 1.03033 19.4776 1.03033 18.5989 1.90901L19.6596 2.96967Z" fill="#344054"/>
</svg>
