<svg width="24" height="24" viewBox="0 0 24 24" fill="none" xmlns="http://www.w3.org/2000/svg">
<path d="M12 8L16 12M16 12L12 16M16 12H2" stroke="#344054" stroke-width="1.5" stroke-linecap="round" stroke-linejoin="round"/>
<path d="M8.53093 18.8306C8.20774 18.5715 8.15577 18.0995 8.41484 17.7763C8.67392 17.4531 9.14594 17.4011 9.46913 17.6602L8.53093 18.8306ZM9.46913 6.33981C9.14594 6.59889 8.67392 6.54692 8.41484 6.22373C8.15577 5.90054 8.20774 5.42852 8.53093 5.16944L9.46913 6.33981ZM14 19.25C18.0041 19.25 21.25 16.0041 21.25 12H22.75C22.75 16.8325 18.8325 20.75 14 20.75V19.25ZM21.25 12C21.25 7.99593 18.0041 4.75 14 4.75V3.25C18.8325 3.25 22.75 7.16751 22.75 12H21.25ZM9.46913 17.6602C10.7104 18.6553 12.2847 19.25 14 19.25V20.75C11.9315 20.75 10.0288 20.0313 8.53093 18.8306L9.46913 17.6602ZM14 4.75C12.2847 4.75 10.7104 5.34472 9.46913 6.33981L8.53093 5.16944C10.0288 3.96871 11.9315 3.25 14 3.25V4.75Z" fill="#344054"/>
</svg>
