<svg width="24" height="24" viewBox="0 0 24 24" fill="none" xmlns="http://www.w3.org/2000/svg">
<path d="M12 4.25C11.5858 4.25 11.25 4.58579 11.25 5C11.25 5.41421 11.5858 5.75 12 5.75V4.25ZM16 5.75C16.4142 5.75 16.75 5.41421 16.75 5C16.75 4.58579 16.4142 4.25 16 4.25V5.75ZM12 5.75H16V4.25H12V5.75Z" fill="#344054"/>
<path d="M14.7213 5.20623C14.8351 4.80795 14.6045 4.39284 14.2062 4.27905C13.808 4.16525 13.3929 4.39587 13.2791 4.79415L14.7213 5.20623ZM9.27905 18.7942C9.16525 19.1924 9.39587 19.6075 9.79415 19.7213C10.1924 19.8351 10.6075 19.6045 10.7213 19.2062L9.27905 18.7942ZM13.2791 4.79415L9.27905 18.7942L10.7213 19.2062L14.7213 5.20623L13.2791 4.79415Z" fill="#344054"/>
<path d="M8 18.25C7.58579 18.25 7.25 18.5858 7.25 19C7.25 19.4142 7.58579 19.75 8 19.75V18.25ZM12 19.75C12.4142 19.75 12.75 19.4142 12.75 19C12.75 18.5858 12.4142 18.25 12 18.25V19.75ZM8 19.75H12V18.25H8V19.75Z" fill="#344054"/>
</svg>
