<svg width="24" height="24" viewBox="0 0 24 24" fill="none" xmlns="http://www.w3.org/2000/svg">
<path d="M21.3048 18.6856C21.6833 18.5173 21.8538 18.0741 21.6856 17.6956C21.5173 17.3171 21.0741 17.1466 20.6956 17.3149L21.3048 18.6856ZM3.30479 17.3149C2.92628 17.1466 2.48306 17.3171 2.31483 17.6956C2.1466 18.0741 2.31707 18.5173 2.69559 18.6856L3.30479 17.3149ZM21.3048 13.6856C21.6833 13.5173 21.8538 13.0741 21.6856 12.6956C21.5173 12.3171 21.0741 12.1466 20.6956 12.3149L21.3048 13.6856ZM3.30479 12.3149C2.92628 12.1466 2.48306 12.3171 2.31483 12.6956C2.1466 13.0741 2.31707 13.5173 2.69559 13.6856L3.30479 12.3149ZM3.45363 8.5655L10.7704 12.2238L11.4412 10.8822L4.12445 7.22386L3.45363 8.5655ZM13.23 12.2238L20.5468 8.5655L19.8759 7.22386L12.5592 10.8822L13.23 12.2238ZM20.5468 5.43501L13.23 1.77665L12.5592 3.11829L19.8759 6.77665L20.5468 5.43501ZM10.7704 1.77665L3.45364 5.43501L4.12446 6.77665L11.4412 3.11829L10.7704 1.77665ZM13.23 1.77665C12.4558 1.38955 11.5446 1.38955 10.7704 1.77665L11.4412 3.11829C11.7931 2.94234 12.2073 2.94234 12.5592 3.11829L13.23 1.77665ZM20.5468 8.5655C21.8366 7.92059 21.8366 6.07993 20.5468 5.43501L19.8759 6.77665C20.0602 6.86878 20.0602 7.13173 19.8759 7.22386L20.5468 8.5655ZM10.7704 12.2238C11.5446 12.6109 12.4558 12.6109 13.23 12.2238L12.5592 10.8822C12.2073 11.0581 11.7931 11.0581 11.4412 10.8822L10.7704 12.2238ZM4.12445 7.22386C3.9402 7.13173 3.94019 6.86878 4.12446 6.77665L3.45364 5.43501C2.1638 6.07992 2.1638 7.92058 3.45363 8.5655L4.12445 7.22386ZM13.1171 22.3246L21.3048 18.6856L20.6956 17.3149L12.5079 20.9538L13.1171 22.3246ZM2.69559 18.6856L10.8833 22.3246L11.4925 20.9538L3.30479 17.3149L2.69559 18.6856ZM12.5079 20.9538C12.1847 21.0975 11.8157 21.0975 11.4925 20.9538L10.8833 22.3246C11.5944 22.6406 12.406 22.6406 13.1171 22.3246L12.5079 20.9538ZM13.1171 17.3246L21.3048 13.6856L20.6956 12.3149L12.5079 15.9538L13.1171 17.3246ZM2.69559 13.6856L10.8833 17.3246L11.4925 15.9538L3.30479 12.3149L2.69559 13.6856ZM12.5079 15.9538C12.1847 16.0975 11.8157 16.0975 11.4925 15.9538L10.8833 17.3246C11.5944 17.6406 12.406 17.6406 13.1171 17.3246L12.5079 15.9538Z" fill="#344054"/>
</svg>
