<svg width="24" height="24" viewBox="0 0 24 24" fill="none" xmlns="http://www.w3.org/2000/svg">
<path d="M10.9999 8.99983V9.74983C10.5857 9.74983 10.2499 9.41404 10.2499 8.99983H10.9999ZM10.9999 14.9998H10.2499C10.2499 14.5856 10.5857 14.2498 10.9999 14.2498V14.9998ZM10.9999 8.24983H18.9999V9.74983H10.9999V8.24983ZM21.7499 10.9998V12.9998H20.2499V10.9998H21.7499ZM18.9999 15.7498H10.9999V14.2498H18.9999V15.7498ZM11.7499 14.9998V16.796H10.2499V14.9998H11.7499ZM8.84755 18.113L4.22623 14.0694L5.21398 12.9405L9.8353 16.9842L8.84755 18.113ZM4.22623 9.93024L8.84755 5.88659L9.83531 7.01545L5.21398 11.0591L4.22623 9.93024ZM11.7499 7.2036V8.99983H10.2499V7.2036H11.7499ZM4.22623 14.0694C2.97407 12.9738 2.97408 11.0258 4.22623 9.93024L5.21398 11.0591C4.64482 11.5571 4.64482 12.4425 5.21398 12.9405L4.22623 14.0694ZM11.7499 16.796C11.7499 18.2996 9.97907 19.1031 8.84755 18.113L9.8353 16.9842C9.99695 17.1256 10.2499 17.0108 10.2499 16.796H11.7499ZM21.7499 12.9998C21.7499 14.5186 20.5187 15.7498 18.9999 15.7498V14.2498C19.6903 14.2498 20.2499 13.6902 20.2499 12.9998H21.7499ZM8.84755 5.88659C9.97907 4.89651 11.7499 5.70007 11.7499 7.2036H10.2499C10.2499 6.98881 9.99695 6.87401 9.83531 7.01545L8.84755 5.88659ZM18.9999 8.24983C20.5187 8.24983 21.7499 9.48105 21.7499 10.9998H20.2499C20.2499 10.3094 19.6903 9.74983 18.9999 9.74983V8.24983Z" fill="#344054"/>
</svg>
