<svg width="24" height="24" viewBox="0 0 24 24" fill="none" xmlns="http://www.w3.org/2000/svg">
<path d="M16 7H8C5.79086 7 4 8.79086 4 11V17C4 19.2091 5.79086 21 8 21H16C18.2091 21 20 19.2091 20 17V11C20 8.79086 18.2091 7 16 7Z" stroke="#344054" stroke-width="1.5"/>
<path d="M12 16C13.1046 16 14 15.1046 14 14C14 12.8954 13.1046 12 12 12C10.8954 12 10 12.8954 10 14C10 15.1046 10.8954 16 12 16Z" stroke="#344054" stroke-width="1.5"/>
<path d="M16 7C16 4.79086 14.2091 3 12 3C9.79086 3 8 4.79086 8 7" stroke="#344054" stroke-width="1.5"/>
</svg>
