<svg width="24" height="24" viewBox="0 0 24 24" fill="none" xmlns="http://www.w3.org/2000/svg">
<path d="M17.4697 13.4697C17.1768 13.7626 17.1768 14.2374 17.4697 14.5303C17.7626 14.8232 18.2374 14.8232 18.5303 14.5303L17.4697 13.4697ZM18.5303 9.46967C18.2374 9.17678 17.7626 9.17678 17.4697 9.46967C17.1768 9.76256 17.1768 10.2374 17.4697 10.5303L18.5303 9.46967ZM18.5303 14.5303L19.8232 13.2374L18.7626 12.1768L17.4697 13.4697L18.5303 14.5303ZM19.8232 10.7626L18.5303 9.46967L17.4697 10.5303L18.7626 11.8232L19.8232 10.7626ZM19.8232 13.2374C20.5066 12.554 20.5066 11.446 19.8232 10.7626L18.7626 11.8232C18.8602 11.9209 18.8602 12.0791 18.7626 12.1768L19.8232 13.2374Z" fill="#344054"/>
<path d="M19 12.7503C19.4142 12.7503 19.75 12.4145 19.75 12.0003C19.75 11.5861 19.4142 11.2503 19 11.2503V12.7503ZM13 11.2503C12.5858 11.2503 12.25 11.5861 12.25 12.0003C12.25 12.4145 12.5858 12.7503 13 12.7503V11.2503ZM3.25 17.2666C3.25 17.6808 3.58579 18.0166 4 18.0166C4.41421 18.0166 4.75 17.6808 4.75 17.2666H3.25ZM16.75 17.2666C16.75 16.8524 16.4142 16.5166 16 16.5166C15.5858 16.5166 15.25 16.8524 15.25 17.2666H16.75ZM15.25 7.26662C15.25 7.68083 15.5858 8.01662 16 8.01662C16.4142 8.01662 16.75 7.68083 16.75 7.26662H15.25ZM4.75 7.26662C4.75 6.85241 4.41421 6.51662 4 6.51662C3.58579 6.51662 3.25 6.85241 3.25 7.26662H4.75ZM10 4.51662C9.58579 4.51662 9.25 4.85241 9.25 5.26662C9.25 5.68083 9.58579 6.01662 10 6.01662V4.51662ZM10 18.5166C9.58579 18.5166 9.25 18.8524 9.25 19.2666C9.25 19.6808 9.58579 20.0166 10 20.0166V18.5166ZM19 11.2503H13V12.7503H19V11.2503ZM4.75 17.2666V7.26662H3.25V17.2666H4.75ZM15.25 17.2666C15.25 17.957 14.6904 18.5166 14 18.5166V20.0166C15.5188 20.0166 16.75 18.7854 16.75 17.2666H15.25ZM14 6.01662C14.6904 6.01662 15.25 6.57626 15.25 7.26662H16.75C16.75 5.74784 15.5188 4.51662 14 4.51662V6.01662ZM5.30662 5.29692L7.30663 3.96359L6.47458 2.71551L4.47457 4.04885L5.30662 5.29692ZM9.25 5.00365V19.5296H10.75V5.00365H9.25ZM7.30663 20.5697L5.30662 19.2363L4.47457 20.4844L6.47458 21.8177L7.30663 20.5697ZM4.75 18.1963V6.33699H3.25V18.1963H4.75ZM5.30662 19.2363C4.95888 19.0045 4.75 18.6142 4.75 18.1963H3.25C3.25 19.1157 3.70953 19.9744 4.47457 20.4844L5.30662 19.2363ZM9.25 19.5296C9.25 20.528 8.13732 21.1235 7.30663 20.5697L6.47458 21.8177C8.3021 23.0361 10.75 21.726 10.75 19.5296H9.25ZM7.30663 3.96359C8.13732 3.40979 9.25 4.00528 9.25 5.00365H10.75C10.75 2.80724 8.3021 1.49716 6.47458 2.71551L7.30663 3.96359ZM4.47457 4.04885C3.70953 4.55888 3.25 5.41752 3.25 6.33699H4.75C4.75 5.91905 4.95888 5.52876 5.30662 5.29692L4.47457 4.04885ZM10 6.01662H14V4.51662H10V6.01662ZM14 18.5166H10V20.0166H14V18.5166Z" fill="#344054"/>
</svg>
