<svg width="24" height="24" viewBox="0 0 24 24" fill="none" xmlns="http://www.w3.org/2000/svg">
<path d="M7.25273 11.6891C6.92136 11.4406 6.45126 11.5077 6.20273 11.8391C5.95421 12.1705 6.02136 12.6406 6.35273 12.8891L7.25273 11.6891ZM15.2527 12.8891C15.5841 12.6406 15.6513 12.1705 15.4027 11.8391C15.1542 11.5077 14.6841 11.4406 14.3527 11.6891L15.2527 12.8891ZM12.4876 8.03906C12.9018 8.03906 13.2376 7.70327 13.2376 7.28906C13.2376 6.87484 12.9018 6.53906 12.4876 6.53906V8.03906ZM19.5527 9.85491C19.5527 9.44069 19.2169 9.10491 18.8027 9.10491C18.3885 9.10491 18.0527 9.44069 18.0527 9.85491H19.5527ZM18.0527 10.2891V18.2891H19.5527V10.2891H18.0527ZM15.8027 20.5391H5.80273V22.0391H15.8027V20.5391ZM3.55273 18.2891V10.2891H2.05273V18.2891H3.55273ZM5.80273 20.5391C4.56009 20.5391 3.55273 19.5317 3.55273 18.2891H2.05273C2.05273 20.3602 3.73167 22.0391 5.80273 22.0391V20.5391ZM18.0527 18.2891C18.0527 19.5317 17.0454 20.5391 15.8027 20.5391V22.0391C17.8738 22.0391 19.5527 20.3602 19.5527 18.2891H18.0527ZM5.80273 6.53906C3.73167 6.53906 2.05273 8.21799 2.05273 10.2891H3.55273C3.55273 9.04642 4.56009 8.03906 5.80273 8.03906V6.53906ZM6.35273 12.8891L8.55273 14.5391L9.45273 13.3391L7.25273 11.6891L6.35273 12.8891ZM13.0527 14.5391L15.2527 12.8891L14.3527 11.6891L12.1527 13.3391L13.0527 14.5391ZM8.55273 14.5391C9.88607 15.5391 11.7194 15.5391 13.0527 14.5391L12.1527 13.3391C11.3527 13.9391 10.2527 13.9391 9.45273 13.3391L8.55273 14.5391ZM5.80273 8.03906H12.4876V6.53906H5.80273V8.03906ZM18.8027 9.85491C18.0527 9.85491 18.0527 9.85491 18.0527 9.85491C18.0527 9.8549 18.0527 9.85492 18.0527 9.85491C18.0527 9.85494 18.0527 9.85594 18.0527 9.85597C18.0527 9.85601 18.0527 9.85696 18.0527 9.85701C18.0527 9.85707 18.0527 9.858 18.0527 9.85806C18.0527 9.85801 18.0527 9.85811 18.0527 9.85806C18.0527 9.85812 18.0527 9.85905 18.0527 9.85912C18.0527 9.85905 18.0527 9.85918 18.0527 9.85912C18.0527 9.85919 18.0527 9.86025 18.0527 9.86033C18.0527 9.86041 18.0527 9.86137 18.0527 9.86145C18.0527 9.86153 18.0527 9.86259 18.0527 9.86267C18.0527 9.86258 18.0527 9.86276 18.0527 9.86267C18.0527 9.86276 18.0527 9.86363 18.0527 9.86372C18.0527 9.86362 18.0527 9.86381 18.0527 9.86372C18.0527 9.86382 18.0527 9.86474 18.0527 9.86484C18.0527 9.86474 18.0527 9.86493 18.0527 9.86484C18.0527 9.86494 18.0527 9.86592 18.0527 9.86602C18.0527 9.86592 18.0527 9.86612 18.0527 9.86602C18.0527 9.86612 18.0527 9.86716 18.0527 9.86726C18.0527 9.86716 18.0527 9.86737 18.0527 9.86726C18.0527 9.86737 18.0527 9.86846 18.0527 9.86857C18.0527 9.86868 18.0527 9.86947 18.0527 9.86959C18.0527 9.86971 18.0527 9.87053 18.0527 9.87065C18.0527 9.87077 18.0527 9.87161 18.0527 9.87174C18.0527 9.87187 18.0527 9.87274 18.0527 9.87286C18.0527 9.87299 18.0527 9.87389 18.0527 9.87402C18.0527 9.87415 18.0527 9.87508 18.0527 9.87522C18.0527 9.87536 18.0527 9.87631 18.0527 9.87645C18.0527 9.8766 18.0527 9.87757 18.0527 9.87771C18.0527 9.87785 18.0527 9.87886 18.0527 9.87901C18.0527 9.87916 18.0527 9.88019 18.0527 9.88034C18.0527 9.88049 18.0527 9.88155 18.0527 9.8817C18.0527 9.88185 18.0527 9.88294 18.0527 9.8831C18.0527 9.88326 18.0527 9.88437 18.0527 9.88453C18.0527 9.88469 18.0527 9.88583 18.0527 9.88599C18.0527 9.88616 18.0527 9.88732 18.0527 9.88749C18.0527 9.88732 18.0527 9.88765 18.0527 9.88749C18.0527 9.88766 18.0527 9.88833 18.0527 9.8885C18.0527 9.88833 18.0527 9.88867 18.0527 9.8885C18.0527 9.88867 18.0527 9.88936 18.0527 9.88953C18.0527 9.88936 18.0527 9.8897 18.0527 9.88953C18.0527 9.8897 18.0527 9.8904 18.0527 9.89057C18.0527 9.89039 18.0527 9.89075 18.0527 9.89057C18.0527 9.89075 18.0527 9.89145 18.0527 9.89163C18.0527 9.89145 18.0527 9.89181 18.0527 9.89163C18.0527 9.89181 18.0527 9.89252 18.0527 9.8927C18.0527 9.89251 18.0527 9.89288 18.0527 9.8927C18.0527 9.89288 18.0527 9.89361 18.0527 9.89379C18.0527 9.89361 18.0527 9.89397 18.0527 9.89379C18.0527 9.89397 18.0527 9.89471 18.0527 9.89489C18.0527 9.8947 18.0527 9.89508 18.0527 9.89489C18.0527 9.89507 18.0527 9.89582 18.0527 9.89601C18.0527 9.89582 18.0527 9.89619 18.0527 9.89601C18.0527 9.8962 18.0527 9.89695 18.0527 9.89714C18.0527 9.89694 18.0527 9.89732 18.0527 9.89714C18.0527 9.89733 18.0527 9.89809 18.0527 9.89828C18.0527 9.89808 18.0527 9.89847 18.0527 9.89828C18.0527 9.89847 18.0527 9.89924 18.0527 9.89944C18.0527 9.89924 18.0527 9.89963 18.0527 9.89944C18.0527 9.89963 18.0527 9.90041 18.0527 9.90061C18.0527 9.90041 18.0527 9.9008 18.0527 9.90061C18.0527 9.9008 18.0527 9.90159 18.0527 9.90179C18.0527 9.90159 18.0527 9.90199 18.0527 9.90179C18.0527 9.90199 18.0527 9.90279 18.0527 9.90299C18.0527 9.90279 18.0527 9.90319 18.0527 9.90299C18.0527 9.9032 18.0527 9.904 18.0527 9.9042C18.0527 9.904 18.0527 9.9044 18.0527 9.9042C18.0527 9.90441 18.0527 9.90522 18.0527 9.90543C18.0527 9.90523 18.0527 9.90563 18.0527 9.90543C18.0527 9.90564 18.0527 9.90646 18.0527 9.90667C18.0527 9.90646 18.0527 9.90687 18.0527 9.90667C18.0527 9.90688 18.0527 9.90771 18.0527 9.90792C18.0527 9.90771 18.0527 9.90813 18.0527 9.90792C18.0527 9.90813 18.0527 9.90897 18.0527 9.90919C18.0527 9.90898 18.0527 9.9094 18.0527 9.90919C18.0527 9.90941 18.0527 9.91025 18.0527 9.91047C18.0527 9.91025 18.0527 9.91068 18.0527 9.91047C18.0527 9.91069 18.0527 9.91154 18.0527 9.91176C18.0527 9.91154 18.0527 9.91198 18.0527 9.91176C18.0527 9.91198 18.0527 9.91285 18.0527 9.91307C18.0527 9.91285 18.0527 9.91328 18.0527 9.91307C18.0527 9.91329 18.0527 9.91416 18.0527 9.91438C18.0527 9.91416 18.0527 9.91461 18.0527 9.91438C18.0527 9.9146 18.0527 9.91549 18.0527 9.91572C18.0527 9.9155 18.0527 9.91594 18.0527 9.91572C18.0527 9.91594 18.0527 9.91684 18.0527 9.91706C18.0527 9.91684 18.0527 9.91729 18.0527 9.91706C18.0527 9.91729 18.0527 9.9182 18.0527 9.91842C18.0527 9.91819 18.0527 9.91865 18.0527 9.91842C18.0527 9.91865 18.0527 9.91957 18.0527 9.9198C18.0527 9.91957 18.0527 9.92003 18.0527 9.9198C18.0527 9.92003 18.0527 9.92095 18.0527 9.92118C18.0527 9.92095 18.0527 9.92141 18.0527 9.92118C18.0527 9.92141 18.0527 9.92235 18.0527 9.92258C18.0527 9.92235 18.0527 9.92281 18.0527 9.92258C18.0527 9.92282 18.0527 9.92376 18.0527 9.92399C18.0527 9.92376 18.0527 9.92423 18.0527 9.92399C18.0527 9.92423 18.0527 9.92518 18.0527 9.92542C18.0527 9.92518 18.0527 9.92565 18.0527 9.92542C18.0527 9.92566 18.0527 9.92661 18.0527 9.92685C18.0527 9.9266 18.0527 9.92709 18.0527 9.92685C18.0527 9.92709 18.0527 9.92806 18.0527 9.9283C18.0527 9.92806 18.0527 9.92855 18.0527 9.9283C18.0527 9.92855 18.0527 9.92952 18.0527 9.92977C18.0527 9.92953 18.0527 9.93001 18.0527 9.92977C18.0527 9.93002 18.0527 9.93099 18.0527 9.93124C18.0527 9.931 18.0527 9.93149 18.0527 9.93124C18.0527 9.93149 18.0527 9.93248 18.0527 9.93273C18.0527 9.93248 18.0527 9.93298 18.0527 9.93273C18.0527 9.93298 18.0527 9.93398 18.0527 9.93423C18.0527 9.93398 18.0527 9.93448 18.0527 9.93423C18.0527 9.93449 18.0527 9.93549 18.0527 9.93574C18.0527 9.93549 18.0527 9.936 18.0527 9.93574C18.0527 9.936 18.0527 9.93701 18.0527 9.93727C18.0527 9.93702 18.0527 9.93752 18.0527 9.93727C18.0527 9.93753 18.0527 9.93855 18.0527 9.93881C18.0527 9.93855 18.0527 9.93906 18.0527 9.93881C18.0527 9.93907 18.0527 9.9401 18.0527 9.94036C18.0527 9.94009 18.0527 9.94061 18.0527 9.94036C18.0527 9.94062 18.0527 9.94166 18.0527 9.94192C18.0527 9.94166 18.0527 9.94218 18.0527 9.94192C18.0527 9.94219 18.0527 9.94323 18.0527 9.94349C18.0527 9.94323 18.0527 9.94376 18.0527 9.94349C18.0527 9.94376 18.0527 9.94481 18.0527 9.94508C18.0527 9.94481 18.0527 9.94534 18.0527 9.94508C18.0527 9.94534 18.0527 9.94641 18.0527 9.94668C18.0527 9.94641 18.0527 9.94695 18.0527 9.94668C18.0527 9.94695 18.0527 9.94802 18.0527 9.94829C18.0527 9.94802 18.0527 9.94856 18.0527 9.94829C18.0527 9.94856 18.0527 9.94964 18.0527 9.94991C18.0527 9.94964 18.0527 9.95018 18.0527 9.94991C18.0527 9.95018 18.0527 9.95127 18.0527 9.95155C18.0527 9.95127 18.0527 9.95182 18.0527 9.95155C18.0527 9.95182 18.0527 9.95292 18.0527 9.95319C18.0527 9.95291 18.0527 9.95347 18.0527 9.95319C18.0527 9.95347 18.0527 9.95457 18.0527 9.95485C18.0527 9.95457 18.0527 9.95513 18.0527 9.95485C18.0527 9.95512 18.0527 9.95624 18.0527 9.95652C18.0527 9.95624 18.0527 9.9568 18.0527 9.95652C18.0527 9.9568 18.0527 9.95792 18.0527 9.95821C18.0527 9.95793 18.0527 9.95849 18.0527 9.95821C18.0527 9.95849 18.0527 9.95962 18.0527 9.9599C18.0527 9.95962 18.0527 9.96018 18.0527 9.9599C18.0527 9.96018 18.0527 9.96132 18.0527 9.9616C18.0527 9.96132 18.0527 9.96189 18.0527 9.9616C18.0527 9.96189 18.0527 9.96303 18.0527 9.96332C18.0527 9.96304 18.0527 9.96361 18.0527 9.96332C18.0527 9.96361 18.0527 9.96476 18.0527 9.96505C18.0527 9.96476 18.0527 9.96534 18.0527 9.96505C18.0527 9.96534 18.0527 9.9665 18.0527 9.96679C18.0527 9.96649 18.0527 9.96708 18.0527 9.96679C18.0527 9.96708 18.0527 9.96825 18.0527 9.96854C18.0527 9.96825 18.0527 9.96884 18.0527 9.96854C18.0527 9.96884 18.0527 9.97001 18.0527 9.97031C18.0527 9.97002 18.0527 9.9706 18.0527 9.97031C18.0527 9.97061 18.0527 9.97178 18.0527 9.97208C18.0527 9.97178 18.0527 9.97238 18.0527 9.97208C18.0527 9.97238 18.0527 9.97357 18.0527 9.97387C18.0527 9.97357 18.0527 9.97416 18.0527 9.97387C18.0527 9.97417 18.0527 9.97536 18.0527 9.97566C18.0527 9.97536 18.0527 9.97596 18.0527 9.97566C18.0527 9.97597 18.0527 9.97717 18.0527 9.97747C18.0527 9.97717 18.0527 9.97777 18.0527 9.97747C18.0527 9.97777 18.0527 9.97899 18.0527 9.97929C18.0527 9.97899 18.0527 9.97959 18.0527 9.97929C18.0527 9.9796 18.0527 9.98081 18.0527 9.98112C18.0527 9.98081 18.0527 9.98143 18.0527 9.98112C18.0527 9.98143 18.0527 9.98265 18.0527 9.98296C18.0527 9.98265 18.0527 9.98327 18.0527 9.98296C18.0527 9.98326 18.0527 9.9845 18.0527 9.98481C18.0527 9.9845 18.0527 9.98512 18.0527 9.98481C18.0527 9.98512 18.0527 9.98636 18.0527 9.98668C18.0527 9.98637 18.0527 9.98699 18.0527 9.98668C18.0527 9.98699 18.0527 9.98824 18.0527 9.98855C18.0527 9.98824 18.0527 9.98886 18.0527 9.98855C18.0527 9.98886 18.0527 9.99012 18.0527 9.99043C18.0527 9.99011 18.0527 9.99075 18.0527 9.99043C18.0527 9.99075 18.0527 9.99201 18.0527 9.99233C18.0527 9.99201 18.0527 9.99265 18.0527 9.99233C18.0527 9.99265 18.0527 9.99392 18.0527 9.99424C18.0527 9.99392 18.0527 9.99455 18.0527 9.99424C18.0527 9.99456 18.0527 9.99583 18.0527 9.99615C18.0527 9.99583 18.0527 9.99647 18.0527 9.99615C18.0527 9.99648 18.0527 9.99776 18.0527 9.99808C18.0527 9.99775 18.0527 9.9984 18.0527 9.99808C18.0527 9.9984 18.0527 9.99969 18.0527 10.0001C18.0527 9.99975 18.0527 10.0004 18.0527 10.0001C18.0527 10.0005 18.0527 10.0017 18.0527 10.002C18.0527 10.0017 18.0527 10.0023 18.0527 10.002C18.0527 10.0023 18.0527 10.0036 18.0527 10.004C18.0527 10.0043 18.0527 10.0046 18.0527 10.005C18.0527 10.0047 18.0527 10.0053 18.0527 10.005C18.0527 10.0054 18.0527 10.0066 18.0527 10.0069C18.0527 10.0066 18.0527 10.0073 18.0527 10.0069C18.0527 10.0073 18.0527 10.0086 18.0527 10.0089C18.0527 10.0092 18.0527 10.0096 18.0527 10.0099C18.0527 10.0096 18.0527 10.0102 18.0527 10.0099C18.0527 10.0102 18.0527 10.0116 18.0527 10.0119C18.0527 10.0116 18.0527 10.0122 18.0527 10.0119C18.0527 10.0123 18.0527 10.0136 18.0527 10.0139C18.0527 10.0136 18.0527 10.0143 18.0527 10.0139C18.0527 10.0143 18.0527 10.0156 18.0527 10.0159C18.0527 10.0163 18.0527 10.0166 18.0527 10.017C18.0527 10.0166 18.0527 10.0173 18.0527 10.017C18.0527 10.0173 18.0527 10.0187 18.0527 10.019C18.0527 10.0187 18.0527 10.0193 18.0527 10.019C18.0527 10.0194 18.0527 10.0207 18.0527 10.021C18.0527 10.0214 18.0527 10.0217 18.0527 10.0221C18.0527 10.0224 18.0527 10.0227 18.0527 10.0231C18.0527 10.0228 18.0527 10.0234 18.0527 10.0231C18.0527 10.0235 18.0527 10.0248 18.0527 10.0252C18.0527 10.0248 18.0527 10.0255 18.0527 10.0252C18.0527 10.0255 18.0527 10.0269 18.0527 10.0272C18.0527 10.0276 18.0527 10.0279 18.0527 10.0283C18.0527 10.0286 18.0527 10.029 18.0527 10.0293C18.0527 10.0297 18.0527 10.03 18.0527 10.0304C18.0527 10.0307 18.0527 10.0311 18.0527 10.0314C18.0527 10.0318 18.0527 10.0321 18.0527 10.0325C18.0527 10.0328 18.0527 10.0332 18.0527 10.0335C18.0527 10.0339 18.0527 10.0342 18.0527 10.0346C18.0527 10.0349 18.0527 10.0353 18.0527 10.0356C18.0527 10.036 18.0527 10.0363 18.0527 10.0367C18.0527 10.037 18.0527 10.0374 18.0527 10.0378C18.0527 10.0375 18.0527 10.0381 18.0527 10.0378C18.0527 10.0382 18.0527 10.0395 18.0527 10.0399C18.0527 10.0402 18.0527 10.0406 18.0527 10.041C18.0527 10.0413 18.0527 10.0417 18.0527 10.042C18.0527 10.0424 18.0527 10.0427 18.0527 10.0431C18.0527 10.0435 18.0527 10.0438 18.0527 10.0442C18.0527 10.0445 18.0527 10.0449 18.0527 10.0453C18.0527 10.0456 18.0527 10.046 18.0527 10.0463C18.0527 10.0467 18.0527 10.0471 18.0527 10.0474C18.0527 10.0478 18.0527 10.0481 18.0527 10.0485C18.0527 10.0489 18.0527 10.0492 18.0527 10.0496C18.0527 10.05 18.0527 10.0503 18.0527 10.0507C18.0527 10.0511 18.0527 10.0514 18.0527 10.0518C18.0527 10.0521 18.0527 10.0525 18.0527 10.0529C18.0527 10.0532 18.0527 10.0536 18.0527 10.054C18.0527 10.0543 18.0527 10.0547 18.0527 10.0551C18.0527 10.0554 18.0527 10.0558 18.0527 10.0562C18.0527 10.0565 18.0527 10.0569 18.0527 10.0573C18.0527 10.0576 18.0527 10.058 18.0527 10.0584C18.0527 10.0588 18.0527 10.0591 18.0527 10.0595C18.0527 10.0599 18.0527 10.0602 18.0527 10.0606C18.0527 10.061 18.0527 10.0613 18.0527 10.0617C18.0527 10.0621 18.0527 10.0625 18.0527 10.0628C18.0527 10.0632 18.0527 10.0636 18.0527 10.064C18.0527 10.0643 18.0527 10.0647 18.0527 10.0651C18.0527 10.0654 18.0527 10.0658 18.0527 10.0662C18.0527 10.0666 18.0527 10.0669 18.0527 10.0673C18.0527 10.0677 18.0527 10.0681 18.0527 10.0684C18.0527 10.0688 18.0527 10.0692 18.0527 10.0696C18.0527 10.07 18.0527 10.0703 18.0527 10.0707C18.0527 10.0711 18.0527 10.0715 18.0527 10.0718C18.0527 10.0722 18.0527 10.0726 18.0527 10.073C18.0527 10.0734 18.0527 10.0737 18.0527 10.0741C18.0527 10.0745 18.0527 10.0749 18.0527 10.0753C18.0527 10.0756 18.0527 10.076 18.0527 10.0764C18.0527 10.0768 18.0527 10.0772 18.0527 10.0775C18.0527 10.0779 18.0527 10.0783 18.0527 10.0787C18.0527 10.0791 18.0527 10.0794 18.0527 10.0798C18.0527 10.0802 18.0527 10.0806 18.0527 10.081C18.0527 10.0814 18.0527 10.0817 18.0527 10.0821C18.0527 10.0825 18.0527 10.0829 18.0527 10.0833C18.0527 10.0837 18.0527 10.0841 18.0527 10.0844C18.0527 10.0848 18.0527 10.0852 18.0527 10.0856C18.0527 10.086 18.0527 10.0864 18.0527 10.0868C18.0527 10.0872 18.0527 10.0875 18.0527 10.0879C18.0527 10.0883 18.0527 10.0887 18.0527 10.0891C18.0527 10.0895 18.0527 10.0899 18.0527 10.0903C18.0527 10.0906 18.0527 10.091 18.0527 10.0914C18.0527 10.0918 18.0527 10.0922 18.0527 10.0926C18.0527 10.093 18.0527 10.0934 18.0527 10.0938C18.0527 10.0942 18.0527 10.0946 18.0527 10.0949C18.0527 10.0953 18.0527 10.0957 18.0527 10.0961C18.0527 10.0965 18.0527 10.0969 18.0527 10.0973C18.0527 10.0977 18.0527 10.0981 18.0527 10.0985C18.0527 10.0989 18.0527 10.0993 18.0527 10.0997C18.0527 10.1001 18.0527 10.1005 18.0527 10.1009C18.0527 10.1012 18.0527 10.1016 18.0527 10.102C18.0527 10.1024 18.0527 10.1028 18.0527 10.1032C18.0527 10.1036 18.0527 10.104 18.0527 10.1044C18.0527 10.1048 18.0527 10.1052 18.0527 10.1056C18.0527 10.106 18.0527 10.1064 18.0527 10.1068C18.0527 10.1072 18.0527 10.1076 18.0527 10.108C18.0527 10.1084 18.0527 10.1088 18.0527 10.1092C18.0527 10.1096 18.0527 10.11 18.0527 10.1104C18.0527 10.1108 18.0527 10.1112 18.0527 10.1116C18.0527 10.112 18.0527 10.1124 18.0527 10.1128C18.0527 10.1132 18.0527 10.1136 18.0527 10.114C18.0527 10.1144 18.0527 10.1148 18.0527 10.1152C18.0527 10.1156 18.0527 10.116 18.0527 10.1164C18.0527 10.1168 18.0527 10.1172 18.0527 10.1177C18.0527 10.1181 18.0527 10.1185 18.0527 10.1189C18.0527 10.1193 18.0527 10.1197 18.0527 10.1201C18.0527 10.1205 18.0527 10.1209 18.0527 10.1213C18.0527 10.1217 18.0527 10.1221 18.0527 10.1225C18.0527 10.1229 18.0527 10.1233 18.0527 10.1237C18.0527 10.1242 18.0527 10.1246 18.0527 10.125C18.0527 10.1254 18.0527 10.1258 18.0527 10.1262C18.0527 10.1266 18.0527 10.127 18.0527 10.1274C18.0527 10.1278 18.0527 10.1282 18.0527 10.1287C18.0527 10.1291 18.0527 10.1295 18.0527 10.1299C18.0527 10.1303 18.0527 10.1307 18.0527 10.1311C18.0527 10.1315 18.0527 10.1319 18.0527 10.1324C18.0527 10.1328 18.0527 10.1332 18.0527 10.1336C18.0527 10.134 18.0527 10.1344 18.0527 10.1348C18.0527 10.1352 18.0527 10.1357 18.0527 10.1361C18.0527 10.1365 18.0527 10.1369 18.0527 10.1373C18.0527 10.1377 18.0527 10.1381 18.0527 10.1386C18.0527 10.139 18.0527 10.1394 18.0527 10.1398C18.0527 10.1402 18.0527 10.1406 18.0527 10.1411C18.0527 10.1415 18.0527 10.1419 18.0527 10.1423C18.0527 10.1427 18.0527 10.1431 18.0527 10.1436C18.0527 10.144 18.0527 10.1444 18.0527 10.1448C18.0527 10.1452 18.0527 10.1456 18.0527 10.1461C18.0527 10.1465 18.0527 10.1469 18.0527 10.1473C18.0527 10.1477 18.0527 10.1482 18.0527 10.1486C18.0527 10.149 18.0527 10.1494 18.0527 10.1498C18.0527 10.1503 18.0527 10.1507 18.0527 10.1511C18.0527 10.1515 18.0527 10.1519 18.0527 10.1524C18.0527 10.1528 18.0527 10.1532 18.0527 10.1536C18.0527 10.154 18.0527 10.1545 18.0527 10.1549C18.0527 10.1553 18.0527 10.1557 18.0527 10.1562C18.0527 10.1566 18.0527 10.157 18.0527 10.1574C18.0527 10.1579 18.0527 10.1583 18.0527 10.1587C18.0527 10.1591 18.0527 10.1596 18.0527 10.16C18.0527 10.1604 18.0527 10.1608 18.0527 10.1613C18.0527 10.1617 18.0527 10.1621 18.0527 10.1625C18.0527 10.163 18.0527 10.1634 18.0527 10.1638C18.0527 10.1642 18.0527 10.1647 18.0527 10.1651C18.0527 10.1655 18.0527 10.1659 18.0527 10.1664C18.0527 10.1668 18.0527 10.1672 18.0527 10.1677C18.0527 10.1681 18.0527 10.1685 18.0527 10.1689C18.0527 10.1694 18.0527 10.1698 18.0527 10.1702C18.0527 10.1707 18.0527 10.1711 18.0527 10.1715C18.0527 10.1719 18.0527 10.1724 18.0527 10.1728C18.0527 10.1732 18.0527 10.1737 18.0527 10.1741C18.0527 10.1745 18.0527 10.175 18.0527 10.1754C18.0527 10.1758 18.0527 10.1763 18.0527 10.1767C18.0527 10.1771 18.0527 10.1776 18.0527 10.178C18.0527 10.1784 18.0527 10.1788 18.0527 10.1793C18.0527 10.1797 18.0527 10.1801 18.0527 10.1806C18.0527 10.181 18.0527 10.1814 18.0527 10.1819C18.0527 10.1823 18.0527 10.1828 18.0527 10.1832C18.0527 10.1836 18.0527 10.1841 18.0527 10.1845C18.0527 10.1849 18.0527 10.1854 18.0527 10.1858C18.0527 10.1862 18.0527 10.1867 18.0527 10.1871C18.0527 10.1875 18.0527 10.188 18.0527 10.1884C18.0527 10.1889 18.0527 10.1893 18.0527 10.1897C18.0527 10.1902 18.0527 10.1906 18.0527 10.191C18.0527 10.1915 18.0527 10.1919 18.0527 10.1924C18.0527 10.1928 18.0527 10.1932 18.0527 10.1937C18.0527 10.1941 18.0527 10.1945 18.0527 10.195C18.0527 10.1954 18.0527 10.1959 18.0527 10.1963C18.0527 10.1967 18.0527 10.1972 18.0527 10.1976C18.0527 10.1981 18.0527 10.1985 18.0527 10.1989C18.0527 10.1994 18.0527 10.1998 18.0527 10.2003C18.0527 10.2007 18.0527 10.2011 18.0527 10.2016C18.0527 10.202 18.0527 10.2025 18.0527 10.2029C18.0527 10.2034 18.0527 10.2038 18.0527 10.2042C18.0527 10.2047 18.0527 10.2051 18.0527 10.2056C18.0527 10.206 18.0527 10.2065 18.0527 10.2069C18.0527 10.2073 18.0527 10.2078 18.0527 10.2082C18.0527 10.2087 18.0527 10.2091 18.0527 10.2096C18.0527 10.21 18.0527 10.2105 18.0527 10.2109C18.0527 10.2113 18.0527 10.2118 18.0527 10.2122C18.0527 10.2127 18.0527 10.2131 18.0527 10.2136C18.0527 10.214 18.0527 10.2145 18.0527 10.2149C18.0527 10.2154 18.0527 10.2158 18.0527 10.2163C18.0527 10.2167 18.0527 10.2171 18.0527 10.2176C18.0527 10.218 18.0527 10.2185 18.0527 10.2189C18.0527 10.2194 18.0527 10.2198 18.0527 10.2203C18.0527 10.2207 18.0527 10.2212 18.0527 10.2216C18.0527 10.2221 18.0527 10.2225 18.0527 10.223C18.0527 10.2234 18.0527 10.2239 18.0527 10.2243C18.0527 10.2248 18.0527 10.2252 18.0527 10.2257C18.0527 10.2261 18.0527 10.2266 18.0527 10.227C18.0527 10.2275 18.0527 10.2279 18.0527 10.2284C18.0527 10.2288 18.0527 10.2293 18.0527 10.2297C18.0527 10.2302 18.0527 10.2306 18.0527 10.2311C18.0527 10.2315 18.0527 10.232 18.0527 10.2324C18.0527 10.2329 18.0527 10.2333 18.0527 10.2338C18.0527 10.2343 18.0527 10.2347 18.0527 10.2352C18.0527 10.2356 18.0527 10.2361 18.0527 10.2365C18.0527 10.237 18.0527 10.2374 18.0527 10.2379C18.0527 10.2383 18.0527 10.2388 18.0527 10.2392C18.0527 10.2397 18.0527 10.2402 18.0527 10.2406C18.0527 10.2411 18.0527 10.2415 18.0527 10.242C18.0527 10.2424 18.0527 10.2429 18.0527 10.2433C18.0527 10.2438 18.0527 10.2442 18.0527 10.2447C18.0527 10.2452 18.0527 10.2456 18.0527 10.2461C18.0527 10.2465 18.0527 10.247 18.0527 10.2474C18.0527 10.2479 18.0527 10.2484 18.0527 10.2488C18.0527 10.2493 18.0527 10.2497 18.0527 10.2502C18.0527 10.2506 18.0527 10.2511 18.0527 10.2516C18.0527 10.252 18.0527 10.2525 18.0527 10.2529C18.0527 10.2534 18.0527 10.2539 18.0527 10.2543C18.0527 10.2548 18.0527 10.2552 18.0527 10.2557C18.0527 10.2562 18.0527 10.2566 18.0527 10.2571C18.0527 10.2575 18.0527 10.258 18.0527 10.2585C18.0527 10.2589 18.0527 10.2594 18.0527 10.2598C18.0527 10.2603 18.0527 10.2608 18.0527 10.2612C18.0527 10.2617 18.0527 10.2621 18.0527 10.2626C18.0527 10.2631 18.0527 10.2635 18.0527 10.264C18.0527 10.2644 18.0527 10.2649 18.0527 10.2654C18.0527 10.2658 18.0527 10.2663 18.0527 10.2668C18.0527 10.2672 18.0527 10.2677 18.0527 10.2681C18.0527 10.2686 18.0527 10.2691 18.0527 10.2695C18.0527 10.27 18.0527 10.2705 18.0527 10.2709C18.0527 10.2714 18.0527 10.2719 18.0527 10.2723C18.0527 10.2728 18.0527 10.2732 18.0527 10.2737C18.0527 10.2742 18.0527 10.2746 18.0527 10.2751C18.0527 10.2756 18.0527 10.276 18.0527 10.2765C18.0527 10.277 18.0527 10.2774 18.0527 10.2779C18.0527 10.2784 18.0527 10.2788 18.0527 10.2793C18.0527 10.2798 18.0527 10.2802 18.0527 10.2807C18.0527 10.2812 18.0527 10.2816 18.0527 10.2821C18.0527 10.2826 18.0527 10.283 18.0527 10.2835C18.0527 10.284 18.0527 10.2844 18.0527 10.2849C18.0527 10.2854 18.0527 10.2858 18.0527 10.2863C18.0527 10.2868 18.0527 10.2872 18.0527 10.2877C18.0527 10.2882 18.0527 10.2886 18.0527 10.2891H19.5527C19.5527 10.2886 19.5527 10.2882 19.5527 10.2877C19.5527 10.2872 19.5527 10.2868 19.5527 10.2863C19.5527 10.2858 19.5527 10.2854 19.5527 10.2849C19.5527 10.2844 19.5527 10.284 19.5527 10.2835C19.5527 10.283 19.5527 10.2826 19.5527 10.2821C19.5527 10.2816 19.5527 10.2812 19.5527 10.2807C19.5527 10.2802 19.5527 10.2798 19.5527 10.2793C19.5527 10.2788 19.5527 10.2784 19.5527 10.2779C19.5527 10.2774 19.5527 10.277 19.5527 10.2765C19.5527 10.276 19.5527 10.2756 19.5527 10.2751C19.5527 10.2746 19.5527 10.2742 19.5527 10.2737C19.5527 10.2732 19.5527 10.2728 19.5527 10.2723C19.5527 10.2719 19.5527 10.2714 19.5527 10.2709C19.5527 10.2705 19.5527 10.27 19.5527 10.2695C19.5527 10.2691 19.5527 10.2686 19.5527 10.2681C19.5527 10.2677 19.5527 10.2672 19.5527 10.2668C19.5527 10.2663 19.5527 10.2658 19.5527 10.2654C19.5527 10.2649 19.5527 10.2644 19.5527 10.264C19.5527 10.2635 19.5527 10.2631 19.5527 10.2626C19.5527 10.2621 19.5527 10.2617 19.5527 10.2612C19.5527 10.2608 19.5527 10.2603 19.5527 10.2598C19.5527 10.2594 19.5527 10.2589 19.5527 10.2585C19.5527 10.258 19.5527 10.2575 19.5527 10.2571C19.5527 10.2566 19.5527 10.2562 19.5527 10.2557C19.5527 10.2552 19.5527 10.2548 19.5527 10.2543C19.5527 10.2539 19.5527 10.2534 19.5527 10.2529C19.5527 10.2525 19.5527 10.252 19.5527 10.2516C19.5527 10.2511 19.5527 10.2506 19.5527 10.2502C19.5527 10.2497 19.5527 10.2493 19.5527 10.2488C19.5527 10.2484 19.5527 10.2479 19.5527 10.2474C19.5527 10.247 19.5527 10.2465 19.5527 10.2461C19.5527 10.2456 19.5527 10.2452 19.5527 10.2447C19.5527 10.2442 19.5527 10.2438 19.5527 10.2433C19.5527 10.2429 19.5527 10.2424 19.5527 10.242C19.5527 10.2415 19.5527 10.2411 19.5527 10.2406C19.5527 10.2402 19.5527 10.2397 19.5527 10.2392C19.5527 10.2388 19.5527 10.2383 19.5527 10.2379C19.5527 10.2374 19.5527 10.237 19.5527 10.2365C19.5527 10.2361 19.5527 10.2356 19.5527 10.2352C19.5527 10.2347 19.5527 10.2343 19.5527 10.2338C19.5527 10.2333 19.5527 10.2329 19.5527 10.2324C19.5527 10.232 19.5527 10.2315 19.5527 10.2311C19.5527 10.2306 19.5527 10.2302 19.5527 10.2297C19.5527 10.2293 19.5527 10.2288 19.5527 10.2284C19.5527 10.2279 19.5527 10.2275 19.5527 10.227C19.5527 10.2266 19.5527 10.2261 19.5527 10.2257C19.5527 10.2252 19.5527 10.2248 19.5527 10.2243C19.5527 10.2239 19.5527 10.2234 19.5527 10.223C19.5527 10.2225 19.5527 10.2221 19.5527 10.2216C19.5527 10.2212 19.5527 10.2207 19.5527 10.2203C19.5527 10.2198 19.5527 10.2194 19.5527 10.2189C19.5527 10.2185 19.5527 10.218 19.5527 10.2176C19.5527 10.2171 19.5527 10.2167 19.5527 10.2163C19.5527 10.2158 19.5527 10.2154 19.5527 10.2149C19.5527 10.2145 19.5527 10.214 19.5527 10.2136C19.5527 10.2131 19.5527 10.2127 19.5527 10.2122C19.5527 10.2118 19.5527 10.2113 19.5527 10.2109C19.5527 10.2105 19.5527 10.21 19.5527 10.2096C19.5527 10.2091 19.5527 10.2087 19.5527 10.2082C19.5527 10.2078 19.5527 10.2073 19.5527 10.2069C19.5527 10.2065 19.5527 10.206 19.5527 10.2056C19.5527 10.2051 19.5527 10.2047 19.5527 10.2042C19.5527 10.2038 19.5527 10.2034 19.5527 10.2029C19.5527 10.2025 19.5527 10.202 19.5527 10.2016C19.5527 10.2011 19.5527 10.2007 19.5527 10.2003C19.5527 10.1998 19.5527 10.1994 19.5527 10.1989C19.5527 10.1985 19.5527 10.1981 19.5527 10.1976C19.5527 10.1972 19.5527 10.1967 19.5527 10.1963C19.5527 10.1959 19.5527 10.1954 19.5527 10.195C19.5527 10.1945 19.5527 10.1941 19.5527 10.1937C19.5527 10.1932 19.5527 10.1928 19.5527 10.1924C19.5527 10.1919 19.5527 10.1915 19.5527 10.191C19.5527 10.1906 19.5527 10.1902 19.5527 10.1897C19.5527 10.1893 19.5527 10.1889 19.5527 10.1884C19.5527 10.188 19.5527 10.1875 19.5527 10.1871C19.5527 10.1867 19.5527 10.1862 19.5527 10.1858C19.5527 10.1854 19.5527 10.1849 19.5527 10.1845C19.5527 10.1841 19.5527 10.1836 19.5527 10.1832C19.5527 10.1828 19.5527 10.1823 19.5527 10.1819C19.5527 10.1814 19.5527 10.181 19.5527 10.1806C19.5527 10.1801 19.5527 10.1797 19.5527 10.1793C19.5527 10.1788 19.5527 10.1784 19.5527 10.178C19.5527 10.1776 19.5527 10.1771 19.5527 10.1767C19.5527 10.1763 19.5527 10.1758 19.5527 10.1754C19.5527 10.175 19.5527 10.1745 19.5527 10.1741C19.5527 10.1737 19.5527 10.1732 19.5527 10.1728C19.5527 10.1724 19.5527 10.1719 19.5527 10.1715C19.5527 10.1711 19.5527 10.1707 19.5527 10.1702C19.5527 10.1698 19.5527 10.1694 19.5527 10.1689C19.5527 10.1685 19.5527 10.1681 19.5527 10.1677C19.5527 10.1672 19.5527 10.1668 19.5527 10.1664C19.5527 10.1659 19.5527 10.1655 19.5527 10.1651C19.5527 10.1647 19.5527 10.1642 19.5527 10.1638C19.5527 10.1634 19.5527 10.163 19.5527 10.1625C19.5527 10.1621 19.5527 10.1617 19.5527 10.1613C19.5527 10.1608 19.5527 10.1604 19.5527 10.16C19.5527 10.1596 19.5527 10.1591 19.5527 10.1587C19.5527 10.1583 19.5527 10.1579 19.5527 10.1574C19.5527 10.157 19.5527 10.1566 19.5527 10.1562C19.5527 10.1557 19.5527 10.1553 19.5527 10.1549C19.5527 10.1545 19.5527 10.154 19.5527 10.1536C19.5527 10.1532 19.5527 10.1528 19.5527 10.1524C19.5527 10.1519 19.5527 10.1515 19.5527 10.1511C19.5527 10.1507 19.5527 10.1503 19.5527 10.1498C19.5527 10.1494 19.5527 10.149 19.5527 10.1486C19.5527 10.1482 19.5527 10.1477 19.5527 10.1473C19.5527 10.1469 19.5527 10.1465 19.5527 10.1461C19.5527 10.1456 19.5527 10.1452 19.5527 10.1448C19.5527 10.1444 19.5527 10.144 19.5527 10.1436C19.5527 10.1431 19.5527 10.1427 19.5527 10.1423C19.5527 10.1419 19.5527 10.1415 19.5527 10.1411C19.5527 10.1406 19.5527 10.1402 19.5527 10.1398C19.5527 10.1394 19.5527 10.139 19.5527 10.1386C19.5527 10.1381 19.5527 10.1377 19.5527 10.1373C19.5527 10.1369 19.5527 10.1365 19.5527 10.1361C19.5527 10.1357 19.5527 10.1352 19.5527 10.1348C19.5527 10.1344 19.5527 10.134 19.5527 10.1336C19.5527 10.1332 19.5527 10.1328 19.5527 10.1324C19.5527 10.1319 19.5527 10.1315 19.5527 10.1311C19.5527 10.1307 19.5527 10.1303 19.5527 10.1299C19.5527 10.1295 19.5527 10.1291 19.5527 10.1287C19.5527 10.1282 19.5527 10.1278 19.5527 10.1274C19.5527 10.127 19.5527 10.1266 19.5527 10.1262C19.5527 10.1258 19.5527 10.1254 19.5527 10.125C19.5527 10.1246 19.5527 10.1242 19.5527 10.1237C19.5527 10.1233 19.5527 10.1229 19.5527 10.1225C19.5527 10.1221 19.5527 10.1217 19.5527 10.1213C19.5527 10.1209 19.5527 10.1205 19.5527 10.1201C19.5527 10.1197 19.5527 10.1193 19.5527 10.1189C19.5527 10.1185 19.5527 10.1181 19.5527 10.1177C19.5527 10.1172 19.5527 10.1168 19.5527 10.1164C19.5527 10.116 19.5527 10.1156 19.5527 10.1152C19.5527 10.1148 19.5527 10.1144 19.5527 10.114C19.5527 10.1136 19.5527 10.1132 19.5527 10.1128C19.5527 10.1124 19.5527 10.112 19.5527 10.1116C19.5527 10.1112 19.5527 10.1108 19.5527 10.1104C19.5527 10.11 19.5527 10.1096 19.5527 10.1092C19.5527 10.1088 19.5527 10.1084 19.5527 10.108C19.5527 10.1076 19.5527 10.1072 19.5527 10.1068C19.5527 10.1064 19.5527 10.106 19.5527 10.1056C19.5527 10.1052 19.5527 10.1048 19.5527 10.1044C19.5527 10.104 19.5527 10.1036 19.5527 10.1032C19.5527 10.1028 19.5527 10.1024 19.5527 10.102C19.5527 10.1016 19.5527 10.1012 19.5527 10.1009C19.5527 10.1005 19.5527 10.1001 19.5527 10.0997C19.5527 10.0993 19.5527 10.0989 19.5527 10.0985C19.5527 10.0981 19.5527 10.0977 19.5527 10.0973C19.5527 10.0969 19.5527 10.0965 19.5527 10.0961C19.5527 10.0957 19.5527 10.0953 19.5527 10.0949C19.5527 10.0946 19.5527 10.0942 19.5527 10.0938C19.5527 10.0934 19.5527 10.093 19.5527 10.0926C19.5527 10.0922 19.5527 10.0918 19.5527 10.0914C19.5527 10.091 19.5527 10.0906 19.5527 10.0903C19.5527 10.0899 19.5527 10.0895 19.5527 10.0891C19.5527 10.0887 19.5527 10.0883 19.5527 10.0879C19.5527 10.0875 19.5527 10.0872 19.5527 10.0868C19.5527 10.0864 19.5527 10.086 19.5527 10.0856C19.5527 10.0852 19.5527 10.0848 19.5527 10.0844C19.5527 10.0841 19.5527 10.0837 19.5527 10.0833C19.5527 10.0829 19.5527 10.0825 19.5527 10.0821C19.5527 10.0817 19.5527 10.0814 19.5527 10.081C19.5527 10.0806 19.5527 10.0802 19.5527 10.0798C19.5527 10.0794 19.5527 10.0791 19.5527 10.0787C19.5527 10.0783 19.5527 10.0779 19.5527 10.0775C19.5527 10.0772 19.5527 10.0768 19.5527 10.0764C19.5527 10.076 19.5527 10.0756 19.5527 10.0753C19.5527 10.0749 19.5527 10.0745 19.5527 10.0741C19.5527 10.0737 19.5527 10.0734 19.5527 10.073C19.5527 10.0726 19.5527 10.0722 19.5527 10.0718C19.5527 10.0715 19.5527 10.0711 19.5527 10.0707C19.5527 10.0703 19.5527 10.07 19.5527 10.0696C19.5527 10.0692 19.5527 10.0688 19.5527 10.0684C19.5527 10.0681 19.5527 10.0677 19.5527 10.0673C19.5527 10.0669 19.5527 10.0666 19.5527 10.0662C19.5527 10.0658 19.5527 10.0654 19.5527 10.0651C19.5527 10.0647 19.5527 10.0643 19.5527 10.064C19.5527 10.0636 19.5527 10.0632 19.5527 10.0628C19.5527 10.0625 19.5527 10.0621 19.5527 10.0617C19.5527 10.0613 19.5527 10.061 19.5527 10.0606C19.5527 10.0602 19.5527 10.0599 19.5527 10.0595C19.5527 10.0591 19.5527 10.0588 19.5527 10.0584C19.5527 10.058 19.5527 10.0576 19.5527 10.0573C19.5527 10.0569 19.5527 10.0565 19.5527 10.0562C19.5527 10.0558 19.5527 10.0554 19.5527 10.0551C19.5527 10.0547 19.5527 10.0543 19.5527 10.054C19.5527 10.0536 19.5527 10.0532 19.5527 10.0529C19.5527 10.0525 19.5527 10.0521 19.5527 10.0518C19.5527 10.0514 19.5527 10.0511 19.5527 10.0507C19.5527 10.0503 19.5527 10.05 19.5527 10.0496C19.5527 10.0492 19.5527 10.0489 19.5527 10.0485C19.5527 10.0481 19.5527 10.0478 19.5527 10.0474C19.5527 10.0471 19.5527 10.0467 19.5527 10.0463C19.5527 10.046 19.5527 10.0456 19.5527 10.0453C19.5527 10.0449 19.5527 10.0445 19.5527 10.0442C19.5527 10.0438 19.5527 10.0435 19.5527 10.0431C19.5527 10.0427 19.5527 10.0424 19.5527 10.042C19.5527 10.0417 19.5527 10.0413 19.5527 10.041C19.5527 10.0406 19.5527 10.0402 19.5527 10.0399C19.5527 10.0395 19.5527 10.0392 19.5527 10.0388C19.5527 10.0385 19.5527 10.0391 19.5527 10.0388C19.5527 10.0384 19.5527 10.037 19.5527 10.0367C19.5527 10.0363 19.5527 10.036 19.5527 10.0356C19.5527 10.0353 19.5527 10.0349 19.5527 10.0346C19.5527 10.0342 19.5527 10.0339 19.5527 10.0335C19.5527 10.0332 19.5527 10.0328 19.5527 10.0325C19.5527 10.0321 19.5527 10.0318 19.5527 10.0314C19.5527 10.0311 19.5527 10.0307 19.5527 10.0304C19.5527 10.03 19.5527 10.0297 19.5527 10.0293C19.5527 10.029 19.5527 10.0286 19.5527 10.0283C19.5527 10.0279 19.5527 10.0276 19.5527 10.0272C19.5527 10.0269 19.5527 10.0265 19.5527 10.0262C19.5527 10.0258 19.5527 10.0265 19.5527 10.0262C19.5527 10.0258 19.5527 10.0245 19.5527 10.0241C19.5527 10.0238 19.5527 10.0244 19.5527 10.0241C19.5527 10.0237 19.5527 10.0224 19.5527 10.0221C19.5527 10.0217 19.5527 10.0214 19.5527 10.021C19.5527 10.0207 19.5527 10.0204 19.5527 10.02C19.5527 10.0197 19.5527 10.0203 19.5527 10.02C19.5527 10.0197 19.5527 10.0183 19.5527 10.018C19.5527 10.0176 19.5527 10.0183 19.5527 10.018C19.5527 10.0176 19.5527 10.0163 19.5527 10.0159C19.5527 10.0156 19.5527 10.0153 19.5527 10.0149C19.5527 10.0146 19.5527 10.0153 19.5527 10.0149C19.5527 10.0146 19.5527 10.0133 19.5527 10.0129C19.5527 10.0126 19.5527 10.0132 19.5527 10.0129C19.5527 10.0126 19.5527 10.0112 19.5527 10.0109C19.5527 10.0106 19.5527 10.0112 19.5527 10.0109C19.5527 10.0106 19.5527 10.0092 19.5527 10.0089C19.5527 10.0086 19.5527 10.0083 19.5527 10.0079C19.5527 10.0076 19.5527 10.0083 19.5527 10.0079C19.5527 10.0076 19.5527 10.0063 19.5527 10.0059C19.5527 10.0056 19.5527 10.0062 19.5527 10.0059C19.5527 10.0055 19.5527 10.0043 19.5527 10.004C19.5527 10.0036 19.5527 10.0033 19.5527 10.003C19.5527 10.0027 19.5527 10.0033 19.5527 10.003C19.5527 10.0027 19.5527 10.0014 19.5527 10.001C19.5527 10.0007 19.5527 10.0013 19.5527 10.001C19.5527 10.0006 19.5527 9.99937 19.5527 9.99905C19.5527 9.99872 19.5527 9.99937 19.5527 9.99905C19.5527 9.99873 19.5527 9.99744 19.5527 9.99711C19.5527 9.99679 19.5527 9.99743 19.5527 9.99711C19.5527 9.99679 19.5527 9.99551 19.5527 9.99519C19.5527 9.99487 19.5527 9.9955 19.5527 9.99519C19.5527 9.99487 19.5527 9.9936 19.5527 9.99328C19.5527 9.99296 19.5527 9.9936 19.5527 9.99328C19.5527 9.99296 19.5527 9.9917 19.5527 9.99138C19.5527 9.99106 19.5527 9.9917 19.5527 9.99138C19.5527 9.99107 19.5527 9.9898 19.5527 9.98949C19.5527 9.98918 19.5527 9.9898 19.5527 9.98949C19.5527 9.98918 19.5527 9.98792 19.5527 9.98761C19.5527 9.9873 19.5527 9.98792 19.5527 9.98761C19.5527 9.98729 19.5527 9.98605 19.5527 9.98574C19.5527 9.98543 19.5527 9.98605 19.5527 9.98574C19.5527 9.98543 19.5527 9.98419 19.5527 9.98389C19.5527 9.98358 19.5527 9.9842 19.5527 9.98389C19.5527 9.98358 19.5527 9.98235 19.5527 9.98204C19.5527 9.98173 19.5527 9.98235 19.5527 9.98204C19.5527 9.98173 19.5527 9.98051 19.5527 9.9802C19.5527 9.9799 19.5527 9.9805 19.5527 9.9802C19.5527 9.9799 19.5527 9.97868 19.5527 9.97838C19.5527 9.97808 19.5527 9.97868 19.5527 9.97838C19.5527 9.97808 19.5527 9.97687 19.5527 9.97656C19.5527 9.97626 19.5527 9.97686 19.5527 9.97656C19.5527 9.97626 19.5527 9.97506 19.5527 9.97476C19.5527 9.97446 19.5527 9.97505 19.5527 9.97476C19.5527 9.97446 19.5527 9.97327 19.5527 9.97297C19.5527 9.97267 19.5527 9.97327 19.5527 9.97297C19.5527 9.97267 19.5527 9.97149 19.5527 9.97119C19.5527 9.9709 19.5527 9.97148 19.5527 9.97119C19.5527 9.97089 19.5527 9.96972 19.5527 9.96942C19.5527 9.96913 19.5527 9.96972 19.5527 9.96942C19.5527 9.96913 19.5527 9.96796 19.5527 9.96767C19.5527 9.96737 19.5527 9.96796 19.5527 9.96767C19.5527 9.96738 19.5527 9.96621 19.5527 9.96592C19.5527 9.96563 19.5527 9.96621 19.5527 9.96592C19.5527 9.96563 19.5527 9.96447 19.5527 9.96418C19.5527 9.9639 19.5527 9.96447 19.5527 9.96418C19.5527 9.96389 19.5527 9.96275 19.5527 9.96246C19.5527 9.96218 19.5527 9.96275 19.5527 9.96246C19.5527 9.96218 19.5527 9.96103 19.5527 9.96075C19.5527 9.96047 19.5527 9.96103 19.5527 9.96075C19.5527 9.96047 19.5527 9.95933 19.5527 9.95905C19.5527 9.95877 19.5527 9.95933 19.5527 9.95905C19.5527 9.95876 19.5527 9.95764 19.5527 9.95736C19.5527 9.95708 19.5527 9.95764 19.5527 9.95736C19.5527 9.95708 19.5527 9.95596 19.5527 9.95569C19.5527 9.95541 19.5527 9.95597 19.5527 9.95569C19.5527 9.95541 19.5527 9.9543 19.5527 9.95402C19.5527 9.95374 19.5527 9.9543 19.5527 9.95402C19.5527 9.95375 19.5527 9.95264 19.5527 9.95237C19.5527 9.95209 19.5527 9.95264 19.5527 9.95237C19.5527 9.95209 19.5527 9.951 19.5527 9.95073C19.5527 9.95046 19.5527 9.951 19.5527 9.95073C19.5527 9.95046 19.5527 9.94937 19.5527 9.9491C19.5527 9.94883 19.5527 9.94937 19.5527 9.9491C19.5527 9.94883 19.5527 9.94775 19.5527 9.94748C19.5527 9.94721 19.5527 9.94775 19.5527 9.94748C19.5527 9.94721 19.5527 9.94614 19.5527 9.94588C19.5527 9.94561 19.5527 9.94614 19.5527 9.94588C19.5527 9.94561 19.5527 9.94455 19.5527 9.94428C19.5527 9.94402 19.5527 9.94455 19.5527 9.94428C19.5527 9.94402 19.5527 9.94297 19.5527 9.9427C19.5527 9.94244 19.5527 9.94296 19.5527 9.9427C19.5527 9.94244 19.5527 9.9414 19.5527 9.94114C19.5527 9.94087 19.5527 9.94139 19.5527 9.94114C19.5527 9.94088 19.5527 9.93984 19.5527 9.93958C19.5527 9.93932 19.5527 9.93983 19.5527 9.93958C19.5527 9.93932 19.5527 9.93829 19.5527 9.93803C19.5527 9.93778 19.5527 9.93828 19.5527 9.93803C19.5527 9.93777 19.5527 9.93676 19.5527 9.9365C19.5527 9.93625 19.5527 9.93676 19.5527 9.9365C19.5527 9.93625 19.5527 9.93524 19.5527 9.93498C19.5527 9.93473 19.5527 9.93523 19.5527 9.93498C19.5527 9.93473 19.5527 9.93373 19.5527 9.93348C19.5527 9.93323 19.5527 9.93373 19.5527 9.93348C19.5527 9.93323 19.5527 9.93223 19.5527 9.93198C19.5527 9.93174 19.5527 9.93223 19.5527 9.93198C19.5527 9.93173 19.5527 9.93075 19.5527 9.9305C19.5527 9.93026 19.5527 9.93074 19.5527 9.9305C19.5527 9.93025 19.5527 9.92928 19.5527 9.92903C19.5527 9.92879 19.5527 9.92928 19.5527 9.92903C19.5527 9.92879 19.5527 9.92782 19.5527 9.92758C19.5527 9.92733 19.5527 9.92782 19.5527 9.92758C19.5527 9.92734 19.5527 9.92637 19.5527 9.92613C19.5527 9.92589 19.5527 9.92636 19.5527 9.92613C19.5527 9.92589 19.5527 9.92494 19.5527 9.9247C19.5527 9.92447 19.5527 9.92494 19.5527 9.9247C19.5527 9.92447 19.5527 9.92352 19.5527 9.92328C19.5527 9.92305 19.5527 9.92351 19.5527 9.92328C19.5527 9.92305 19.5527 9.92211 19.5527 9.92188C19.5527 9.92165 19.5527 9.92211 19.5527 9.92188C19.5527 9.92165 19.5527 9.92072 19.5527 9.92049C19.5527 9.92026 19.5527 9.92072 19.5527 9.92049C19.5527 9.92026 19.5527 9.91934 19.5527 9.91911C19.5527 9.91888 19.5527 9.91934 19.5527 9.91911C19.5527 9.91889 19.5527 9.91797 19.5527 9.91774C19.5527 9.91752 19.5527 9.91797 19.5527 9.91774C19.5527 9.91752 19.5527 9.91661 19.5527 9.91639C19.5527 9.91617 19.5527 9.91661 19.5527 9.91639C19.5527 9.91616 19.5527 9.91527 19.5527 9.91505C19.5527 9.91483 19.5527 9.91528 19.5527 9.91505C19.5527 9.91483 19.5527 9.91394 19.5527 9.91372C19.5527 9.9135 19.5527 9.91393 19.5527 9.91372C19.5527 9.9135 19.5527 9.91263 19.5527 9.91241C19.5527 9.91219 19.5527 9.91263 19.5527 9.91241C19.5527 9.91219 19.5527 9.91133 19.5527 9.91111C19.5527 9.91089 19.5527 9.91132 19.5527 9.91111C19.5527 9.91089 19.5527 9.91004 19.5527 9.90982C19.5527 9.90961 19.5527 9.91003 19.5527 9.90982C19.5527 9.9096 19.5527 9.90876 19.5527 9.90855C19.5527 9.90834 19.5527 9.90876 19.5527 9.90855C19.5527 9.90834 19.5527 9.9075 19.5527 9.90729C19.5527 9.90708 19.5527 9.90749 19.5527 9.90729C19.5527 9.90708 19.5527 9.90625 19.5527 9.90604C19.5527 9.90584 19.5527 9.90624 19.5527 9.90604C19.5527 9.90583 19.5527 9.90502 19.5527 9.90481C19.5527 9.90461 19.5527 9.90501 19.5527 9.90481C19.5527 9.90461 19.5527 9.9038 19.5527 9.90359C19.5527 9.90339 19.5527 9.90379 19.5527 9.90359C19.5527 9.90339 19.5527 9.90259 19.5527 9.90239C19.5527 9.90219 19.5527 9.90259 19.5527 9.90239C19.5527 9.90219 19.5527 9.90139 19.5527 9.9012C19.5527 9.901 19.5527 9.90139 19.5527 9.9012C19.5527 9.901 19.5527 9.90021 19.5527 9.90002C19.5527 9.89982 19.5527 9.90021 19.5527 9.90002C19.5527 9.89982 19.5527 9.89905 19.5527 9.89886C19.5527 9.89866 19.5527 9.89905 19.5527 9.89886C19.5527 9.89867 19.5527 9.8979 19.5527 9.89771C19.5527 9.89751 19.5527 9.89789 19.5527 9.89771C19.5527 9.89752 19.5527 9.89676 19.5527 9.89657C19.5527 9.89638 19.5527 9.89675 19.5527 9.89657C19.5527 9.89638 19.5527 9.89563 19.5527 9.89545C19.5527 9.89526 19.5527 9.89564 19.5527 9.89545C19.5527 9.89527 19.5527 9.89452 19.5527 9.89434C19.5527 9.89416 19.5527 9.89452 19.5527 9.89434C19.5527 9.89416 19.5527 9.89343 19.5527 9.89325C19.5527 9.89306 19.5527 9.89343 19.5527 9.89325C19.5527 9.89307 19.5527 9.89235 19.5527 9.89217C19.5527 9.89199 19.5527 9.89235 19.5527 9.89217C19.5527 9.89199 19.5527 9.89128 19.5527 9.8911C19.5527 9.89092 19.5527 9.89128 19.5527 9.8911C19.5527 9.89093 19.5527 9.89022 19.5527 9.89005C19.5527 9.88988 19.5527 9.89022 19.5527 9.89005C19.5527 9.88988 19.5527 9.88918 19.5527 9.88901C19.5527 9.88884 19.5527 9.88918 19.5527 9.88901C19.5527 9.88884 19.5527 9.88816 19.5527 9.88799C19.5527 9.88782 19.5527 9.88815 19.5527 9.88799C19.5527 9.88782 19.5527 9.88715 19.5527 9.88698C19.5527 9.88682 19.5527 9.88566 19.5527 9.8855C19.5527 9.88534 19.5527 9.88421 19.5527 9.88405C19.5527 9.88389 19.5527 9.88278 19.5527 9.88263C19.5527 9.88248 19.5527 9.88139 19.5527 9.88124C19.5527 9.88109 19.5527 9.88004 19.5527 9.87989C19.5527 9.87974 19.5527 9.87871 19.5527 9.87857C19.5527 9.87843 19.5527 9.87743 19.5527 9.87728C19.5527 9.87714 19.5527 9.87617 19.5527 9.87603C19.5527 9.87589 19.5527 9.87495 19.5527 9.87482C19.5527 9.87469 19.5527 9.87376 19.5527 9.87363C19.5527 9.87351 19.5527 9.87261 19.5527 9.87248C19.5527 9.87235 19.5527 9.87149 19.5527 9.87137C19.5527 9.87125 19.5527 9.87041 19.5527 9.87029C19.5527 9.87017 19.5527 9.86936 19.5527 9.86925C19.5527 9.86914 19.5527 9.86835 19.5527 9.86824C19.5527 9.86813 19.5527 9.86835 19.5527 9.86824C19.5527 9.86814 19.5527 9.86705 19.5527 9.86695C19.5527 9.86684 19.5527 9.86706 19.5527 9.86695C19.5527 9.86685 19.5527 9.86582 19.5527 9.86572C19.5527 9.86562 19.5527 9.86582 19.5527 9.86572C19.5527 9.86562 19.5527 9.86465 19.5527 9.86455C19.5527 9.86446 19.5527 9.86465 19.5527 9.86455C19.5527 9.86446 19.5527 9.86354 19.5527 9.86345C19.5527 9.86337 19.5527 9.86354 19.5527 9.86345C19.5527 9.86337 19.5527 9.8625 19.5527 9.86242C19.5527 9.86234 19.5527 9.86129 19.5527 9.86121C19.5527 9.86113 19.5527 9.86018 19.5527 9.86011C19.5527 9.86004 19.5527 9.86017 19.5527 9.86011C19.5527 9.86004 19.5527 9.85899 19.5527 9.85893C19.5527 9.85887 19.5527 9.85899 19.5527 9.85893C19.5527 9.85887 19.5527 9.85795 19.5527 9.85789C19.5527 9.85784 19.5527 9.85692 19.5527 9.85688C19.5527 9.85685 19.5527 9.85494 19.5527 9.85491C19.5527 9.85488 19.5527 9.85494 19.5527 9.85491C19.5527 9.85491 19.5527 9.85491 18.8027 9.85491Z" fill="#344054"/>
<path d="M17.209 5.00879C17.209 4.59458 16.8732 4.25879 16.459 4.25879C16.0448 4.25879 15.709 4.59458 15.709 5.00879H17.209ZM16.459 6.50879H15.709C15.709 6.92301 16.0448 7.25879 16.459 7.25879V6.50879ZM17.959 7.25879C18.3732 7.25879 18.709 6.92301 18.709 6.50879C18.709 6.09458 18.3732 5.75879 17.959 5.75879V7.25879ZM19.709 6.50879C19.709 8.30372 18.2539 9.75879 16.459 9.75879V11.2587C19.0823 11.2587 21.209 9.13215 21.209 6.50879H19.709ZM16.459 9.75879C14.6641 9.75879 13.209 8.30372 13.209 6.50879H11.709C11.709 9.13215 13.8356 11.2587 16.459 11.2587V9.75879ZM13.209 6.50879C13.209 4.71387 14.6641 3.25879 16.459 3.25879V1.75879C13.8356 1.75879 11.709 3.88544 11.709 6.50879H13.209ZM16.459 3.25879C18.2539 3.25879 19.709 4.71387 19.709 6.50879H21.209C21.209 3.88544 19.0823 1.75879 16.459 1.75879V3.25879ZM15.709 5.00879V6.50879H17.209V5.00879H15.709ZM16.459 7.25879H17.959V5.75879H16.459V7.25879Z" fill="#344054"/>
</svg>
