<svg width="24" height="24" viewBox="0 0 24 24" fill="none" xmlns="http://www.w3.org/2000/svg">
<path d="M18 10C20.2091 10 22 8.20914 22 6C22 3.79086 20.2091 2 18 2C15.7909 2 14 3.79086 14 6C14 8.20914 15.7909 10 18 10Z" stroke="#344054" stroke-width="1.5"/>
<path d="M15 3L21 9" stroke="#344054" stroke-width="1.5"/>
<path d="M6.20004 12.4C5.86867 12.1515 5.39857 12.2186 5.15004 12.55C4.90151 12.8814 4.96867 13.3515 5.30004 13.6L6.20004 12.4ZM14.2 13.6C14.5314 13.3515 14.5985 12.8814 14.35 12.55C14.1015 12.2186 13.6314 12.1515 13.3 12.4L14.2 13.6ZM5.30004 13.6L7.50004 15.25L8.40004 14.05L6.20004 12.4L5.30004 13.6ZM12 15.25L14.2 13.6L13.3 12.4L11.1 14.05L12 15.25ZM7.50004 15.25C8.83337 16.25 10.6667 16.25 12 15.25L11.1 14.05C10.3 14.65 9.20004 14.65 8.40004 14.05L7.50004 15.25Z" fill="#344054"/>
<path fill-rule="evenodd" clip-rule="evenodd" d="M18.75 11.9536V19C18.75 21.0711 17.0711 22.75 15 22.75H5C2.92893 22.75 1.25 21.0711 1.25 19V11C1.25 8.92893 2.92893 7.25 5 7.25H12.1304C12.2425 7.77911 12.4244 8.28247 12.6659 8.75H5C3.75736 8.75 2.75 9.75736 2.75 11V19C2.75 20.2426 3.75736 21.25 5 21.25H15C16.2426 21.25 17.25 20.2426 17.25 19V11.9536C17.4957 11.9842 17.746 12 18 12C18.254 12 18.5043 11.9842 18.75 11.9536Z" fill="#344054"/>
</svg>
