<svg width="24" height="24" viewBox="0 0 24 24" fill="none" xmlns="http://www.w3.org/2000/svg">
<path d="M3.17449 7.24035C3.72741 6.82228 4.54868 6.24299 5.44982 5.74585C6.3646 5.24117 7.29651 4.85811 8.08343 4.77002L7.91657 3.27933C6.83621 3.40026 5.6981 3.89575 4.72524 4.43246C3.73872 4.9767 2.85471 5.60163 2.26981 6.04388L3.17449 7.24035ZM8.08343 4.77002C9.4033 4.62229 10.3425 5.30116 11.5459 6.21663C12.6833 7.08191 14.085 8.1838 16.0834 7.96011L15.9166 6.46942C14.5967 6.61716 13.6575 5.93829 12.4541 5.02281C11.3167 4.15753 9.91501 3.05564 7.91657 3.27933L8.08343 4.77002ZM16.0834 7.96011C17.6918 7.78008 19.4673 6.75989 20.6821 5.9436L19.8454 4.69859C18.6412 5.50784 17.1308 6.33351 15.9166 6.46942L16.0834 7.96011ZM4.15459 19.3012C5.35883 18.492 6.8692 17.6663 8.08343 17.5304L7.91657 16.0397C6.30818 16.2197 4.53267 17.2399 3.31795 18.0562L4.15459 19.3012ZM8.08343 17.5304C9.4033 17.3826 10.3425 18.0615 11.5459 18.977C12.6833 19.8423 14.085 20.9442 16.0834 20.7205L15.9166 19.2298C14.5967 19.3775 13.6575 18.6986 12.4541 17.7832C11.3167 16.9179 9.91501 15.816 7.91657 16.0397L8.08343 17.5304ZM16.0834 20.7205C17.1638 20.5995 18.3019 20.1041 19.2748 19.5673C20.2613 19.0231 21.1453 18.3982 21.7302 17.9559L20.8255 16.7594C20.2726 17.1775 19.4513 17.7568 18.5502 18.254C17.6354 18.7586 16.7035 19.1417 15.9166 19.2298L16.0834 20.7205ZM21.25 6.19343V15.8628H22.75V6.19343H21.25ZM2.75 17.8064V8.13696H1.25V17.8064H2.75ZM21.7302 17.9559C22.3994 17.4499 22.75 16.6637 22.75 15.8628H21.25C21.25 16.2323 21.0899 16.5595 20.8255 16.7594L21.7302 17.9559ZM3.31795 18.0562C3.21451 18.1257 3.07068 18.1359 2.93501 18.0688C2.80323 18.0036 2.75 17.9039 2.75 17.8064H1.25C1.25 19.3238 3.00174 20.0759 4.15459 19.3012L3.31795 18.0562ZM20.6821 5.9436C20.7855 5.87409 20.9293 5.86386 21.065 5.93097C21.1968 5.99615 21.25 6.09592 21.25 6.19343H22.75C22.75 4.67597 20.9983 3.92388 19.8454 4.69859L20.6821 5.9436ZM2.26981 6.04388C1.60064 6.54986 1.25 7.33609 1.25 8.13696H2.75C2.75 7.76745 2.91011 7.44026 3.17449 7.24035L2.26981 6.04388ZM7.25 4.02468V16.785H8.75V4.02468H7.25ZM15.25 7.21477V19.9751H16.75V7.21477H15.25Z" fill="#344054"/>
</svg>
