<svg width="24" height="24" viewBox="0 0 24 24" fill="none" xmlns="http://www.w3.org/2000/svg">
<path d="M19 16.8621C19.9089 16.3529 20.7266 15.7746 21.2778 15.3578C21.7446 15.0048 22 14.4481 22 13.8629V4.19353C22 3.34007 20.9721 2.84517 20.2637 3.32119C19.0542 4.13397 17.4113 5.0569 16 5.21487C12.6817 5.5863 11.3183 1.65335 8 2.02478C6.13272 2.23379 3.85997 3.78189 2.72215 4.64222C2.25538 4.99516 2 5.55187 2 6.13706V15.8065C2 16.6599 3.0279 17.1548 3.73627 16.6788C4.94575 15.866 6.58869 14.9431 8 14.7851C8.80621 14.6949 9.49702 14.8587 10.1285 15.1532" stroke="#344054" stroke-width="1.5"/>
<path d="M10.5014 17.4311L13.3957 18.3959L13.87 16.9728L10.9757 16.0081L10.5014 17.4311ZM13.6044 18.6046L14.5692 21.4989L15.9922 21.0246L15.0275 18.1303L13.6044 18.6046ZM20.6542 13.661C21.1311 12.2303 19.77 10.8692 18.3393 11.3461L18.8136 12.7691C19.0717 12.6831 19.3172 12.9286 19.2312 13.1867L20.6542 13.661ZM14.5692 21.4989C15.1254 23.1674 17.4854 23.1674 18.0416 21.4989L16.6186 21.0246C16.5182 21.3255 16.0925 21.3255 15.9922 21.0246L14.5692 21.4989ZM13.3957 18.3959C13.4942 18.4287 13.5716 18.5061 13.6044 18.6046L15.0275 18.1303C14.8453 17.5838 14.4165 17.155 13.87 16.9728L13.3957 18.3959ZM18.3393 11.3461L10.5014 13.9587L10.9757 15.3817L18.8136 12.7691L18.3393 11.3461ZM10.9757 16.0081C10.84 15.9628 10.7745 15.8703 10.7553 15.7579C10.7334 15.6297 10.7791 15.5129 10.8557 15.4471L9.87896 14.3087C8.8823 15.1638 9.06235 16.9514 10.5014 17.4311L10.9757 16.0081ZM10.8557 15.4471C10.8829 15.4238 10.921 15.4 10.9757 15.3817L10.5014 13.9587C10.2659 14.0372 10.0564 14.1564 9.87896 14.3087L10.8557 15.4471ZM19.2312 13.1867L17.854 17.3182L19.277 17.7925L20.6542 13.661L19.2312 13.1867ZM17.854 17.3182L16.6186 21.0246L18.0416 21.4989L19.277 17.7925L17.854 17.3182Z" fill="#344054"/>
</svg>
