<svg width="24" height="24" viewBox="0 0 24 24" fill="none" xmlns="http://www.w3.org/2000/svg">
<path d="M3.17449 9.73559C3.72741 9.31751 4.54868 8.73822 5.44982 8.24108C6.3646 7.73641 7.29651 7.35334 8.08343 7.26526L7.91657 5.77457C6.83621 5.8955 5.6981 6.39098 4.72524 6.92769C3.73872 7.47194 2.85471 8.09686 2.26981 8.53911L3.17449 9.73559ZM4.15459 21.7964C5.35883 20.9872 6.8692 20.1615 8.08343 20.0256L7.91657 18.5349C6.30818 18.7149 4.53267 19.7351 3.31795 20.5514L4.15459 21.7964ZM8.08343 20.0256C9.4033 19.8778 10.3425 20.5567 11.5459 21.4722C12.6833 22.3375 14.085 23.4394 16.0834 23.2157L15.9166 21.725C14.5967 21.8727 13.6575 21.1938 12.4541 20.2784C11.3167 19.4131 9.91501 18.3112 7.91657 18.5349L8.08343 20.0256ZM16.0834 23.2157C17.1638 23.0947 18.3019 22.5993 19.2748 22.0625C20.2613 21.5183 21.1453 20.8934 21.7302 20.4511L20.8255 19.2546C20.2726 19.6727 19.4513 20.252 18.5502 20.7492C17.6354 21.2538 16.7035 21.6369 15.9166 21.725L16.0834 23.2157ZM21.25 8.68866V18.358H22.75V8.68866H21.25ZM2.75 20.3016V10.6322H1.25V20.3016H2.75ZM21.7302 20.4511C22.3994 19.9452 22.75 19.1589 22.75 18.358H21.25C21.25 18.7276 21.0899 19.0547 20.8255 19.2546L21.7302 20.4511ZM3.31795 20.5514C3.21451 20.6209 3.07068 20.6311 2.93501 20.564C2.80323 20.4989 2.75 20.3991 2.75 20.3016H1.25C1.25 21.819 3.00174 22.5711 4.15459 21.7964L3.31795 20.5514ZM20.6821 8.43883C20.7855 8.36932 20.9293 8.3591 21.065 8.4262C21.1968 8.49139 21.25 8.59115 21.25 8.68866H22.75C22.75 7.17121 20.9983 6.41912 19.8454 7.19383L20.6821 8.43883ZM2.26981 8.53911C1.60064 9.04509 1.25 9.83133 1.25 10.6322H2.75C2.75 10.2627 2.91011 9.93549 3.17449 9.73559L2.26981 8.53911ZM7.25 6.51991V19.2802H8.75V6.51991H7.25ZM16.0834 10.4553C16.4757 10.4114 16.8705 10.3189 17.256 10.1967L16.8027 8.76685C16.4879 8.86667 16.1906 8.93399 15.9166 8.96466L16.0834 10.4553ZM17.256 10.1967C18.4907 9.80529 19.7374 9.07366 20.6821 8.43883L19.8454 7.19383C18.9421 7.80084 17.8349 8.43963 16.8027 8.76685L17.256 10.1967ZM8.08343 7.26526C9.25575 7.13404 10.1402 7.65875 11.1759 8.43215C12.1489 9.15868 13.3383 10.1976 14.8866 10.4337L15.1127 8.95089C14.0298 8.78571 13.2014 8.07254 12.0734 7.23025C11.0082 6.43483 9.70842 5.574 7.91657 5.77457L8.08343 7.26526ZM14.8866 10.4337C15.2656 10.4915 15.6635 10.5023 16.0834 10.4553L15.9166 8.96466C15.6282 8.99693 15.3624 8.98897 15.1127 8.95089L14.8866 10.4337ZM15.25 9.71V22.4703H16.75V9.71H15.25Z" fill="#344054"/>
<path d="M17.6328 14.4961C17.6328 14.9103 17.9686 15.2461 18.3828 15.2461C18.797 15.2461 19.1328 14.9103 19.1328 14.4961H17.6328ZM19.6328 4.49609C19.6328 5.18644 19.0732 5.74609 18.3828 5.74609V7.24609C19.9016 7.24609 21.1328 6.01487 21.1328 4.49609H19.6328ZM18.3828 5.74609C17.6925 5.74609 17.1328 5.18644 17.1328 4.49609H15.6328C15.6328 6.01487 16.864 7.24609 18.3828 7.24609V5.74609ZM17.1328 4.49609C17.1328 3.80573 17.6925 3.24609 18.3828 3.24609V1.74609C16.864 1.74609 15.6328 2.9773 15.6328 4.49609H17.1328ZM18.3828 3.24609C19.0732 3.24609 19.6328 3.80573 19.6328 4.49609H21.1328C21.1328 2.9773 19.9016 1.74609 18.3828 1.74609V3.24609ZM19.1328 14.4961V6.49609H17.6328V14.4961H19.1328Z" fill="#344054"/>
</svg>
