<svg width="24" height="24" viewBox="0 0 24 24" fill="none" xmlns="http://www.w3.org/2000/svg">
<path d="M13.25 9C13.25 9.69036 12.6904 10.25 12 10.25V11.75C13.5188 11.75 14.75 10.5188 14.75 9H13.25ZM12 10.25C11.3096 10.25 10.75 9.69036 10.75 9H9.25C9.25 10.5188 10.4812 11.75 12 11.75V10.25ZM10.75 9C10.75 8.30964 11.3096 7.75 12 7.75V6.25C10.4812 6.25 9.25 7.48122 9.25 9H10.75ZM12 7.75C12.6904 7.75 13.25 8.30964 13.25 9H14.75C14.75 7.48122 13.5188 6.25 12 6.25V7.75ZM5.75 8.85714C5.75 5.49876 8.53357 2.75 12 2.75V1.25C7.73445 1.25 4.25 4.64133 4.25 8.85714H5.75ZM12 2.75C15.4664 2.75 18.25 5.49876 18.25 8.85714H19.75C19.75 4.64133 16.2656 1.25 12 1.25V2.75ZM18.25 8.85714C18.25 9.82928 17.8829 10.9893 17.2561 12.1702C16.6346 13.3411 15.7885 14.4741 14.9056 15.3791L15.9793 16.4265C16.956 15.4254 17.8887 14.1777 18.581 12.8734C19.2681 11.5791 19.75 10.1694 19.75 8.85714H18.25ZM14.9056 15.3791C14.3243 15.9749 13.7417 16.4568 13.2141 16.7845C12.6695 17.1226 12.2579 17.25 12 17.25V18.75C12.668 18.75 13.3659 18.4558 14.0053 18.0588C14.6615 17.6513 15.3373 17.0846 15.9793 16.4265L14.9056 15.3791ZM12 17.25C11.7421 17.25 11.3305 17.1226 10.7859 16.7845C10.2583 16.4568 9.67574 15.9749 9.09441 15.3791L8.02072 16.4265C8.66269 17.0846 9.33846 17.6513 9.99469 18.0588C10.6341 18.4558 11.332 18.75 12 18.75V17.25ZM9.09441 15.3791C8.21151 14.4741 7.36544 13.3411 6.74388 12.1702C6.11707 10.9893 5.75 9.82928 5.75 8.85714H4.25C4.25 10.1694 4.73191 11.5791 5.41897 12.8734C6.1113 14.1777 7.04401 15.4254 8.02072 16.4265L9.09441 15.3791Z" fill="#344054"/>
<path d="M15.247 15.4453C14.836 15.394 14.4612 15.6857 14.41 16.0967C14.3587 16.5077 14.6503 16.8825 15.0613 16.9338L15.247 15.4453ZM8.93865 16.9338C9.34968 16.8825 9.64132 16.5077 9.59004 16.0967C9.53876 15.6857 9.16399 15.394 8.75297 15.4453L8.93865 16.9338ZM20.25 19.0001C20.25 19.0861 20.1985 19.2873 19.8285 19.5788C19.467 19.8637 18.8975 20.1531 18.1268 20.41C16.5933 20.9211 14.4271 21.2501 12 21.2501V22.7501C14.5435 22.7501 16.8773 22.4076 18.6011 21.833C19.4591 21.547 20.2076 21.1899 20.757 20.7569C21.2979 20.3307 21.75 19.7427 21.75 19.0001H20.25ZM12 21.2501C9.5729 21.2501 7.4067 20.9211 5.87321 20.41C5.10255 20.1531 4.53298 19.8637 4.17149 19.5788C3.80155 19.2873 3.75 19.0861 3.75 19.0001H2.25C2.25 19.7427 2.70213 20.3307 3.24303 20.7569C3.79239 21.1899 4.54085 21.547 5.39887 21.833C7.12274 22.4076 9.45654 22.7501 12 22.7501V21.2501ZM15.0613 16.9338C16.7227 17.141 18.0994 17.5073 19.0374 17.9502C19.5077 18.1723 19.8316 18.3968 20.0279 18.5996C20.2211 18.7991 20.25 18.9319 20.25 19.0001H21.75C21.75 18.4249 21.4751 17.9379 21.1057 17.5563C20.7395 17.178 20.2422 16.8603 19.6779 16.5938C18.5467 16.0597 17.0005 15.6641 15.247 15.4453L15.0613 16.9338ZM3.75 19.0001C3.75 18.9319 3.77893 18.7991 3.97206 18.5996C4.16838 18.3968 4.49226 18.1723 4.96259 17.9502C5.9006 17.5073 7.27729 17.141 8.93865 16.9338L8.75297 15.4453C6.99953 15.6641 5.45331 16.0597 4.32212 16.5938C3.75785 16.8603 3.26055 17.178 2.89434 17.5563C2.52495 17.9379 2.25 18.4249 2.25 19.0001H3.75Z" fill="#344054"/>
</svg>
