<svg width="24" height="24" viewBox="0 0 24 24" fill="none" xmlns="http://www.w3.org/2000/svg">
<path d="M3.17449 7.24052C3.72741 6.82245 4.54868 6.24317 5.44982 5.74603C6.3646 5.24135 7.29651 4.85828 8.08343 4.77019L7.91657 3.2795C6.83621 3.40043 5.6981 3.89592 4.72524 4.43263C3.73872 4.97687 2.85471 5.6018 2.26981 6.04405L3.17449 7.24052ZM4.15459 19.3014C5.35883 18.4922 6.8692 17.6665 8.08343 17.5306L7.91657 16.0399C6.30818 16.2199 4.53267 17.2401 3.31795 18.0564L4.15459 19.3014ZM8.08343 17.5306C9.4033 17.3828 10.3425 18.0617 11.5459 18.9772C12.6833 19.8425 14.085 20.9444 16.0834 20.7207L15.9166 19.23C14.5967 19.3777 13.6575 18.6988 12.4541 17.7834C11.3167 16.9181 9.91501 15.8162 7.91657 16.0399L8.08343 17.5306ZM16.0834 20.7207C17.1638 20.5997 18.3019 20.1043 19.2748 19.5675C20.2613 19.0233 21.1453 18.3984 21.7302 17.9561L20.8255 16.7596C20.2726 17.1777 19.4513 17.757 18.5502 18.2542C17.6354 18.7588 16.7035 19.1419 15.9166 19.23L16.0834 20.7207ZM21.25 6.1936V15.863H22.75V6.1936H21.25ZM2.75 17.8066V8.13714H1.25V17.8066H2.75ZM21.7302 17.9561C22.3994 17.4501 22.75 16.6639 22.75 15.863H21.25C21.25 16.2325 21.0899 16.5597 20.8255 16.7596L21.7302 17.9561ZM3.31795 18.0564C3.21451 18.1259 3.07068 18.1361 2.93501 18.069C2.80323 18.0038 2.75 17.9041 2.75 17.8066H1.25C1.25 19.324 3.00174 20.0761 4.15459 19.3014L3.31795 18.0564ZM20.6821 5.94377C20.7855 5.87426 20.9293 5.86403 21.065 5.93114C21.1968 5.99632 21.25 6.09609 21.25 6.1936H22.75C22.75 4.67614 20.9983 3.92405 19.8454 4.69876L20.6821 5.94377ZM2.26981 6.04405C1.60064 6.55003 1.25 7.33627 1.25 8.13714H2.75C2.75 7.76762 2.91011 7.44043 3.17449 7.24052L2.26981 6.04405ZM7.25 4.02485V16.7852H8.75V4.02485H7.25ZM18.4326 7.23673C19.2504 6.85547 20.0328 6.38009 20.6821 5.94377L19.8454 4.69876C19.2351 5.10887 18.5229 5.53965 17.7988 5.8772L18.4326 7.23673ZM8.08343 4.77019C9.0325 4.66396 9.79654 4.98877 10.6011 5.52696C11.015 5.80387 11.4037 6.11169 11.8479 6.4456C12.2778 6.76886 12.7463 7.10563 13.2589 7.37882L13.9644 6.05509C13.5599 5.83951 13.1684 5.56179 12.7493 5.24666C12.3443 4.94218 11.8948 4.5877 11.4351 4.2802C10.4923 3.64955 9.36762 3.11708 7.91657 3.2795L8.08343 4.77019ZM15.25 16.0591V19.9753H16.75V16.0591H15.25Z" fill="#344054"/>
<path d="M17.25 4C17.25 4.69036 16.6904 5.25 16 5.25V6.75C17.5188 6.75 18.75 5.51878 18.75 4H17.25ZM16 5.25C15.3096 5.25 14.75 4.69036 14.75 4H13.25C13.25 5.51878 14.4812 6.75 16 6.75V5.25ZM14.75 4C14.75 3.30964 15.3096 2.75 16 2.75V1.25C14.4812 1.25 13.25 2.48122 13.25 4H14.75ZM16 2.75C16.6904 2.75 17.25 3.30964 17.25 4H18.75C18.75 2.48122 17.5188 1.25 16 1.25V2.75ZM17.25 12V14H18.75V12H17.25ZM14.75 14V12H13.25V14H14.75ZM16 15.25C15.3096 15.25 14.75 14.6904 14.75 14H13.25C13.25 15.5188 14.4812 16.75 16 16.75V15.25ZM17.25 14C17.25 14.6904 16.6904 15.25 16 15.25V16.75C17.5188 16.75 18.75 15.5188 18.75 14H17.25ZM11.25 10C11.25 10.9665 12.0335 11.75 13 11.75V10.25C12.8619 10.25 12.75 10.1381 12.75 10H11.25ZM14.75 12C14.75 11.0335 13.9665 10.25 13 10.25V11.75C13.1381 11.75 13.25 11.8619 13.25 12H14.75ZM19.25 10C19.25 10.1381 19.1381 10.25 19 10.25V11.75C19.9665 11.75 20.75 10.9665 20.75 10H19.25ZM18.75 12C18.75 11.8923 18.8186 11.7986 18.9168 11.764L18.4178 10.3494C17.7386 10.589 17.25 11.2365 17.25 12H18.75ZM18.9168 11.764C18.9418 11.7551 18.9695 11.75 19 11.75V10.25C18.7972 10.25 18.6009 10.2848 18.4178 10.3494L18.9168 11.764ZM11.8849 7.62627C11.4809 8.32529 11.25 9.13681 11.25 10H12.75C12.75 9.4073 12.908 8.85377 13.1836 8.37679L11.8849 7.62627ZM16 6.75C17.3062 6.75 18.434 7.52061 18.9506 8.63526L20.3116 8.00449C19.5584 6.37956 17.9119 5.25 16 5.25V6.75ZM18.9506 8.63526C19.1425 9.04929 19.25 9.51106 19.25 10H20.75C20.75 9.28879 20.5932 8.61213 20.3116 8.00449L18.9506 8.63526ZM16 5.25C14.4906 5.25 13.1453 5.95491 12.2765 7.05053L13.4518 7.98256C14.0483 7.2303 14.9678 6.75 16 6.75V5.25ZM12.2765 7.05053C12.1325 7.23205 12.0015 7.42442 11.8849 7.62627L13.1836 8.37679C13.2634 8.23873 13.3531 8.10699 13.4518 7.98256L12.2765 7.05053Z" fill="#344054"/>
</svg>
