<svg width="24" height="24" viewBox="0 0 24 24" fill="none" xmlns="http://www.w3.org/2000/svg">
<path d="M7.06961 6.22266C5.4279 6.71635 3.67612 7.92114 2.72215 8.64246C2.25538 8.99539 2 9.55211 2 10.1372V19.8067C2 20.6601 3.0279 21.155 3.73627 20.679C4.94575 19.8662 6.58869 18.9433 8 18.7853C11.3183 18.4139 12.6817 22.3468 16 21.9754C17.8673 21.7664 20.14 20.2183 21.2778 19.358C21.7446 19.005 22 18.4483 22 17.8631V8.19377C22 7.34031 20.9721 6.84541 20.2637 7.32143C19.2185 8.02381 17.8496 8.80846 16.5862 9.1106" stroke="#344054" stroke-width="1.5"/>
<path d="M17 6.8C17 9.45097 14.5 14 12 14C9.5 14 7 9.45097 7 6.8C7 4.14903 9.23858 2 12 2C14.7614 2 17 4.14903 17 6.8Z" stroke="#344054" stroke-width="1.5"/>
<path d="M13.5 6.5C13.5 7.32843 12.8284 8 12 8C11.1716 8 10.5 7.32843 10.5 6.5C10.5 5.67157 11.1716 5 12 5C12.8284 5 13.5 5.67157 13.5 6.5Z" stroke="#344054" stroke-width="1.5"/>
</svg>
