<svg width="24" height="24" viewBox="0 0 24 24" fill="none" xmlns="http://www.w3.org/2000/svg">
<path d="M3.7409 9.24035C4.29382 8.82228 5.11509 8.24299 6.01622 7.74585C6.93101 7.24117 7.86292 6.85811 8.64984 6.77002L8.48298 5.27933C7.40262 5.40026 6.26451 5.89575 5.29165 6.43246C4.30513 6.9767 3.42111 7.60163 2.83622 8.04388L3.7409 9.24035ZM8.64984 6.77002C9.96971 6.62229 10.9089 7.30116 12.1123 8.21663C13.2497 9.08191 14.6514 10.1838 16.6498 9.96011L16.483 8.46942C15.1631 8.61716 14.2239 7.93829 13.0205 7.02281C11.8831 6.15753 10.4814 5.05564 8.48298 5.27933L8.64984 6.77002ZM16.6498 9.96011C18.2582 9.78008 20.0337 8.75989 21.2485 7.9436L20.4118 6.69859C19.2076 7.50784 17.6972 8.33351 16.483 8.46942L16.6498 9.96011ZM4.72099 21.3012C5.92524 20.492 7.43561 19.6663 8.64984 19.5304L8.48298 18.0397C6.87459 18.2197 5.09908 19.2399 3.88435 20.0562L4.72099 21.3012ZM8.64984 19.5304C9.96972 19.3826 10.9089 20.0615 12.1123 20.977C13.2497 21.8423 14.6514 22.9442 16.6498 22.7205L16.483 21.2298C15.1631 21.3775 14.2239 20.6986 13.0205 19.7832C11.8831 18.9179 10.4814 17.816 8.48298 18.0397L8.64984 19.5304ZM16.6498 22.7205C17.7302 22.5995 18.8683 22.1041 19.8412 21.5673C20.8277 21.0231 21.7117 20.3982 22.2966 19.9559L21.3919 18.7594C20.839 19.1775 20.0177 19.7568 19.1166 20.254C18.2018 20.7586 17.2699 21.1417 16.483 21.2298L16.6498 22.7205ZM21.8164 8.19343V17.8628H23.3164V8.19343H21.8164ZM3.31641 19.8064V10.137H1.81641V19.8064H3.31641ZM22.2966 19.9559C22.9658 19.4499 23.3164 18.6637 23.3164 17.8628H21.8164C21.8164 18.2323 21.6563 18.5595 21.3919 18.7594L22.2966 19.9559ZM3.88435 20.0562C3.78092 20.1257 3.63709 20.1359 3.50142 20.0688C3.36963 20.0036 3.31641 19.9039 3.31641 19.8064H1.81641C1.81641 21.3238 3.56815 22.0759 4.72099 21.3012L3.88435 20.0562ZM21.2485 7.9436C21.3519 7.87409 21.4957 7.86386 21.6314 7.93097C21.7632 7.99615 21.8164 8.09592 21.8164 8.19343H23.3164C23.3164 6.67597 21.5647 5.92388 20.4118 6.69859L21.2485 7.9436ZM2.83622 8.04388C2.16704 8.54986 1.81641 9.33609 1.81641 10.137H3.31641C3.31641 9.76745 3.47652 9.44026 3.7409 9.24035L2.83622 8.04388ZM7.81641 6.02468V18.785H9.31641V6.02468H7.81641ZM15.8164 9.21477V21.9751H17.3164V9.21477H15.8164Z" fill="#344054"/>
<path d="M13.1025 13.1076C13.1025 13.5218 13.4383 13.8576 13.8525 13.8576C14.2667 13.8576 14.6025 13.5218 14.6025 13.1076H13.1025ZM13.8525 2.08398V1.33398C13.6536 1.33398 13.4628 1.41299 13.3221 1.55365C13.1815 1.6943 13.1025 1.88506 13.1025 2.08398H13.8525ZM19.8525 2.08398L20.5182 2.42941C20.6388 2.19691 20.6294 1.91831 20.4934 1.69447C20.3574 1.47063 20.1144 1.33398 19.8525 1.33398V2.08398ZM19.8525 5.70711V6.4571C20.1217 6.4571 20.3702 6.31285 20.5037 6.07912C20.6372 5.84539 20.6352 5.55803 20.4985 5.32616L19.8525 5.70711ZM18.8525 4.01117L18.1868 3.66574C18.0678 3.89509 18.0752 4.16954 18.2064 4.39211L18.8525 4.01117ZM14.6025 13.1076V5.70711H13.1025V13.1076H14.6025ZM13.8525 2.83398H19.8525V1.33398H13.8525V2.83398ZM19.8525 4.95711H13.8525V6.4571H19.8525V4.95711ZM14.6025 5.70711V2.08398H13.1025V5.70711H14.6025ZM19.1868 1.73854L18.1868 3.66574L19.5182 4.3566L20.5182 2.42941L19.1868 1.73854ZM18.2064 4.39211L19.2064 6.08805L20.4985 5.32616L19.4985 3.63023L18.2064 4.39211Z" fill="#344054"/>
</svg>
