<svg width="24" height="24" viewBox="0 0 24 24" fill="none" xmlns="http://www.w3.org/2000/svg">
<path d="M3.17449 9.24048C3.72741 8.82241 4.54868 8.24312 5.44982 7.74598C6.3646 7.2413 7.29651 6.85824 8.08343 6.77015L7.91657 5.27946C6.83621 5.40039 5.6981 5.89588 4.72524 6.43259C3.73872 6.97683 2.85471 7.60176 2.26981 8.04401L3.17449 9.24048ZM4.15459 21.3013C5.35883 20.4921 6.8692 19.6664 8.08343 19.5305L7.91657 18.0398C6.30818 18.2198 4.53267 19.24 3.31795 20.0563L4.15459 21.3013ZM8.08343 19.5305C9.4033 19.3827 10.3425 20.0616 11.5459 20.9771C12.6833 21.8424 14.085 22.9443 16.0834 22.7206L15.9166 21.2299C14.5967 21.3776 13.6575 20.6987 12.4541 19.7833C11.3167 18.918 9.91501 17.8161 7.91657 18.0398L8.08343 19.5305ZM16.0834 22.7206C17.1638 22.5996 18.3019 22.1042 19.2748 21.5674C20.2613 21.0232 21.1453 20.3983 21.7302 19.956L20.8255 18.7595C20.2726 19.1776 19.4513 19.7569 18.5502 20.2541C17.6354 20.7587 16.7035 21.1418 15.9166 21.2299L16.0834 22.7206ZM21.25 8.19356V17.8629H22.75V8.19356H21.25ZM2.75 19.8065V10.1371H1.25V19.8065H2.75ZM21.7302 19.956C22.3994 19.45 22.75 18.6638 22.75 17.8629H21.25C21.25 18.2324 21.0899 18.5596 20.8255 18.7595L21.7302 19.956ZM3.31795 20.0563C3.21451 20.1258 3.07068 20.136 2.93501 20.0689C2.80323 20.0037 2.75 19.904 2.75 19.8065H1.25C1.25 21.3239 3.00174 22.076 4.15459 21.3013L3.31795 20.0563ZM2.26981 8.04401C1.60064 8.54999 1.25 9.33622 1.25 10.1371H2.75C2.75 9.76758 2.91011 9.44039 3.17449 9.24048L2.26981 8.04401ZM8.08343 6.77015C9.24814 6.63978 10.1292 7.15698 11.1566 7.92261L12.0529 6.71984C10.9916 5.92893 9.69729 5.08014 7.91657 5.27946L8.08343 6.77015ZM21.105 7.95362C21.2074 8.01892 21.25 8.1038 21.25 8.19356H22.75C22.75 7.52382 22.3856 6.99118 21.9114 6.68883L21.105 7.95362Z" fill="#344054"/>
<path d="M20.8311 6.8C20.8311 7.93874 20.2745 9.59936 19.3864 10.9906C18.9482 11.6771 18.4532 12.2591 17.949 12.6617C17.4404 13.0679 16.9764 13.25 16.5811 13.25V14.75C17.4358 14.75 18.2218 14.3635 18.885 13.8339C19.5528 13.3007 20.1515 12.5798 20.6508 11.7977C21.6377 10.2516 22.3311 8.31222 22.3311 6.8H20.8311ZM16.5811 13.25C16.1858 13.25 15.7218 13.0679 15.2132 12.6617C14.709 12.2591 14.214 11.6771 13.7758 10.9906C12.8877 9.59936 12.3311 7.93874 12.3311 6.8H10.8311C10.8311 8.31222 11.5245 10.2516 12.5114 11.7977C13.0107 12.5798 13.6095 13.3007 14.2772 13.8339C14.9404 14.3635 15.7264 14.75 16.5811 14.75V13.25ZM12.3311 6.8C12.3311 4.59181 14.2048 2.75 16.5811 2.75V1.25C13.4346 1.25 10.8311 3.70626 10.8311 6.8H12.3311ZM16.5811 2.75C18.9575 2.75 20.8311 4.59181 20.8311 6.8H22.3311C22.3311 3.70626 19.7276 1.25 16.5811 1.25V2.75ZM17.3311 6.5C17.3311 6.91421 16.9953 7.25 16.5811 7.25V8.75C17.8238 8.75 18.8311 7.74264 18.8311 6.5H17.3311ZM16.5811 7.25C16.1669 7.25 15.8311 6.91421 15.8311 6.5H14.3311C14.3311 7.74264 15.3385 8.75 16.5811 8.75V7.25ZM15.8311 6.5C15.8311 6.08579 16.1669 5.75 16.5811 5.75V4.25C15.3385 4.25 14.3311 5.25736 14.3311 6.5H15.8311ZM16.5811 5.75C16.9953 5.75 17.3311 6.08579 17.3311 6.5H18.8311C18.8311 5.25736 17.8238 4.25 16.5811 4.25V5.75Z" fill="#344054"/>
</svg>
