<svg width="24" height="24" viewBox="0 0 24 24" fill="none" xmlns="http://www.w3.org/2000/svg">
<path d="M3.17449 5.24035C3.72741 4.82228 4.54868 4.24299 5.44982 3.74585C6.3646 3.24117 7.29651 2.85811 8.08343 2.77002L7.91657 1.27933C6.83621 1.40026 5.6981 1.89575 4.72524 2.43246C3.73872 2.9767 2.85471 3.60163 2.26981 4.04388L3.17449 5.24035ZM8.08343 2.77002C9.4033 2.62229 10.3425 3.30116 11.5459 4.21663C12.6833 5.08191 14.085 6.1838 16.0834 5.96011L15.9166 4.46942C14.5967 4.61716 13.6575 3.93829 12.4541 3.02281C11.3167 2.15753 9.91501 1.05564 7.91657 1.27933L8.08343 2.77002ZM16.0834 5.96011C17.6918 5.78008 19.4673 4.75989 20.6821 3.9436L19.8454 2.69859C18.6412 3.50784 17.1308 4.33351 15.9166 4.46942L16.0834 5.96011ZM4.15459 17.3012C5.35883 16.492 6.8692 15.6663 8.08343 15.5304L7.91657 14.0397C6.30818 14.2197 4.53267 15.2399 3.31795 16.0562L4.15459 17.3012ZM21.25 4.19343V13.8628H22.75V4.19343H21.25ZM2.75 15.8064V6.13696H1.25V15.8064H2.75ZM21.7302 15.9559C22.3994 15.4499 22.75 14.6637 22.75 13.8628H21.25C21.25 14.2323 21.0899 14.5595 20.8255 14.7594L21.7302 15.9559ZM3.31795 16.0562C3.21451 16.1257 3.07068 16.1359 2.93501 16.0688C2.80323 16.0036 2.75 15.9039 2.75 15.8064H1.25C1.25 17.3238 3.00174 18.0759 4.15459 17.3012L3.31795 16.0562ZM20.6821 3.9436C20.7855 3.87409 20.9293 3.86386 21.065 3.93097C21.1968 3.99615 21.25 4.09592 21.25 4.19343H22.75C22.75 2.67597 20.9983 1.92388 19.8454 2.69859L20.6821 3.9436ZM2.26981 4.04388C1.60064 4.54986 1.25 5.33609 1.25 6.13696H2.75C2.75 5.76745 2.91011 5.44026 3.17449 5.24035L2.26981 4.04388ZM7.25 2.02468V14.785H8.75V2.02468H7.25ZM18.9783 17.7267C20.0842 17.1482 21.0886 16.4411 21.7302 15.9559L20.8255 14.7594C20.217 15.2195 19.2864 15.8727 18.283 16.3976L18.9783 17.7267ZM8.08343 15.5304C8.70641 15.4606 9.2418 15.577 9.75334 15.8062L10.3667 14.4373C9.65236 14.1173 8.84789 13.9354 7.91657 14.0397L8.08343 15.5304ZM15.25 5.21477V12.8866H16.75V5.21477H15.25Z" fill="#344054"/>
<path d="M10.396 17.4311L13.2902 18.3959L13.7646 16.9728L10.8703 16.0081L10.396 17.4311ZM13.499 18.6046L14.4638 21.4989L15.8868 21.0246L14.922 18.1303L13.499 18.6046ZM20.5488 13.661C21.0257 12.2303 19.6646 10.8692 18.2339 11.3461L18.7082 12.7691C18.9663 12.6831 19.2118 12.9286 19.1258 13.1867L20.5488 13.661ZM14.4638 21.4989C15.0199 23.1674 17.38 23.1674 17.9362 21.4989L16.5131 21.0246C16.4128 21.3255 15.9871 21.3255 15.8868 21.0246L14.4638 21.4989ZM13.2902 18.3959C13.3888 18.4287 13.4662 18.5061 13.499 18.6046L14.922 18.1303C14.7399 17.5838 14.3111 17.155 13.7646 16.9728L13.2902 18.3959ZM18.2339 11.3461L10.396 13.9587L10.8703 15.3817L18.7082 12.7691L18.2339 11.3461ZM19.1258 13.1867L17.7486 17.3182L19.1716 17.7925L20.5488 13.661L19.1258 13.1867ZM17.7486 17.3182L16.5131 21.0246L17.9362 21.4989L19.1716 17.7925L17.7486 17.3182ZM10.8703 16.0081C10.7345 15.9628 10.6691 15.8703 10.6499 15.7579C10.628 15.6297 10.6737 15.5129 10.7503 15.4471L9.77348 14.3087C8.77683 15.1638 8.95688 16.9514 10.396 17.4311L10.8703 16.0081ZM10.7503 15.4471C10.7775 15.4238 10.8155 15.4 10.8703 15.3817L10.396 13.9587C10.1605 14.0372 9.95098 14.1564 9.77348 14.3087L10.7503 15.4471Z" fill="#344054"/>
</svg>
