<svg width="24" height="24" viewBox="0 0 24 24" fill="none" xmlns="http://www.w3.org/2000/svg">
<path d="M12.25 8.5C12.9404 8.5 13.5 7.94036 13.5 7.25C13.5 6.55964 12.9404 6 12.25 6C11.5596 6 11 6.55964 11 7.25C11 7.94036 11.5596 8.5 12.25 8.5Z" fill="#344054"/>
<path d="M12.25 13.5C12.9404 13.5 13.5 12.9404 13.5 12.25C13.5 11.5596 12.9404 11 12.25 11C11.5596 11 11 11.5596 11 12.25C11 12.9404 11.5596 13.5 12.25 13.5Z" fill="#344054"/>
<path d="M12.25 18.5C12.9404 18.5 13.5 17.9404 13.5 17.25C13.5 16.5596 12.9404 16 12.25 16C11.5596 16 11 16.5596 11 17.25C11 17.9404 11.5596 18.5 12.25 18.5Z" fill="#344054"/>
</svg>
