<svg width="24" height="24" viewBox="0 0 24 24" fill="none" xmlns="http://www.w3.org/2000/svg">
<path d="M14 20.75C14.4142 20.75 14.75 20.4142 14.75 20C14.75 19.5858 14.4142 19.25 14 19.25V20.75ZM21.25 13C21.25 13.4142 21.5858 13.75 22 13.75C22.4142 13.75 22.75 13.4142 22.75 13H21.25ZM6 4.75H18V3.25H6V4.75ZM14 19.25H6V20.75H14V19.25ZM2.75 16V8H1.25V16H2.75ZM21.25 8V13H22.75V8H21.25ZM6 19.25C4.20507 19.25 2.75 17.7949 2.75 16H1.25C1.25 18.6234 3.37665 20.75 6 20.75V19.25ZM18 4.75C19.7949 4.75 21.25 6.20507 21.25 8H22.75C22.75 5.37665 20.6234 3.25 18 3.25V4.75ZM6 3.25C3.37665 3.25 1.25 5.37665 1.25 8H2.75C2.75 6.20507 4.20507 4.75 6 4.75V3.25Z" fill="#344054"/>
<path d="M6 7C6.55228 7 7 7.44772 7 8C7 8.55228 6.55228 9 6 9C5.44772 9 5 8.55228 5 8C5 7.44772 5.44772 7 6 7Z" fill="#344054"/>
<path d="M12 10C13.1046 10 14 10.8954 14 12C14 13.1046 13.1046 14 12 14C10.8954 14 10 13.1046 10 12C10 10.8954 10.8954 10 12 10Z" stroke="#344054" stroke-width="1.5"/>
<path d="M22.0308 16.2882C22.3237 15.9953 22.3237 15.5204 22.0308 15.2275C21.7379 14.9346 21.2631 14.9346 20.9702 15.2275L22.0308 16.2882ZM16.7275 19.4701C16.4346 19.763 16.4346 20.2379 16.7275 20.5308C17.0204 20.8237 17.4953 20.8237 17.7882 20.5308L16.7275 19.4701ZM20.9702 20.5308C21.2631 20.8237 21.7379 20.8237 22.0308 20.5308C22.3237 20.2379 22.3237 19.7631 22.0308 19.4702L20.9702 20.5308ZM17.7882 15.2275C17.4953 14.9346 17.0204 14.9346 16.7275 15.2275C16.4346 15.5204 16.4346 15.9953 16.7275 16.2882L17.7882 15.2275ZM20.9702 15.2275L16.7275 19.4701L17.7882 20.5308L22.0308 16.2882L20.9702 15.2275ZM22.0308 19.4702L17.7882 15.2275L16.7275 16.2882L20.9702 20.5308L22.0308 19.4702Z" fill="#344054"/>
</svg>
