<svg width="24" height="24" viewBox="0 0 24 24" fill="none" xmlns="http://www.w3.org/2000/svg">
<path d="M13 20.75C13.4142 20.75 13.75 20.4142 13.75 20C13.75 19.5858 13.4142 19.25 13 19.25V20.75ZM21.25 13C21.25 13.4142 21.5858 13.75 22 13.75C22.4142 13.75 22.75 13.4142 22.75 13H21.25ZM6 4.75H18V3.25H6V4.75ZM13 19.25H6V20.75H13V19.25ZM2.75 16V8H1.25V16H2.75ZM21.25 8V13H22.75V8H21.25ZM6 19.25C4.20507 19.25 2.75 17.7949 2.75 16H1.25C1.25 18.6234 3.37665 20.75 6 20.75V19.25ZM18 4.75C19.7949 4.75 21.25 6.20507 21.25 8H22.75C22.75 5.37665 20.6234 3.25 18 3.25V4.75ZM6 3.25C3.37665 3.25 1.25 5.37665 1.25 8H2.75C2.75 6.20507 4.20507 4.75 6 4.75V3.25Z" fill="#344054"/>
<path d="M6 7C6.55228 7 7 7.44772 7 8C7 8.55228 6.55228 9 6 9C5.44772 9 5 8.55228 5 8C5 7.44772 5.44772 7 6 7Z" fill="#344054"/>
<path d="M12 10C13.1046 10 14 10.8954 14 12C14 13.1046 13.1046 14 12 14C10.8954 14 10 13.1046 10 12C10 10.8954 10.8954 10 12 10Z" stroke="#344054" stroke-width="1.5"/>
<path d="M20.9445 20.5303C20.6517 20.8232 20.1768 20.8232 19.8839 20.5303C19.591 20.2374 19.591 19.7626 19.8839 19.4697L20.9445 20.5303ZM19.8839 16.5303C19.591 16.2374 19.591 15.7626 19.8839 15.4697C20.1768 15.1768 20.6517 15.1768 20.9445 15.4697L19.8839 16.5303ZM16 18.75C15.5858 18.75 15.25 18.4142 15.25 18C15.25 17.5858 15.5858 17.25 16 17.25V18.75ZM21.4142 17.25C21.8284 17.25 22.1642 17.5858 22.1642 18C22.1642 18.4142 21.8284 18.75 21.4142 18.75V17.25ZM19.8839 19.4697L21.1768 18.1768L22.2374 19.2374L20.9445 20.5303L19.8839 19.4697ZM21.1768 17.8232L19.8839 16.5303L20.9445 15.4697L22.2374 16.7626L21.1768 17.8232ZM21.1768 18.1768C21.2744 18.0791 21.2744 17.9209 21.1768 17.8232L22.2374 16.7626C22.9209 17.446 22.9209 18.554 22.2374 19.2374L21.1768 18.1768ZM16 17.25H21.4142V18.75H16V17.25Z" fill="#344054"/>
</svg>
