<svg width="24" height="24" viewBox="0 0 24 24" fill="none" xmlns="http://www.w3.org/2000/svg">
<path d="M14 20.75C14.4142 20.75 14.75 20.4142 14.75 20C14.75 19.5858 14.4142 19.25 14 19.25V20.75ZM21.25 12.5C21.25 12.9142 21.5858 13.25 22 13.25C22.4142 13.25 22.75 12.9142 22.75 12.5H21.25ZM6 4.75H18V3.25H6V4.75ZM14 19.25H6V20.75H14V19.25ZM2.75 16V8H1.25V16H2.75ZM21.25 8V12.5H22.75V8H21.25ZM6 19.25C4.20507 19.25 2.75 17.7949 2.75 16H1.25C1.25 18.6234 3.37665 20.75 6 20.75V19.25ZM18 4.75C19.7949 4.75 21.25 6.20507 21.25 8H22.75C22.75 5.37665 20.6234 3.25 18 3.25V4.75ZM6 3.25C3.37665 3.25 1.25 5.37665 1.25 8H2.75C2.75 6.20507 4.20507 4.75 6 4.75V3.25Z" fill="#344054"/>
<path d="M6 7C6.55228 7 7 7.44772 7 8C7 8.55228 6.55228 9 6 9C5.44772 9 5 8.55228 5 8C5 7.44772 5.44772 7 6 7Z" fill="#344054"/>
<path d="M12 10C13.1046 10 14 10.8954 14 12C14 13.1046 13.1046 14 12 14C10.8954 14 10 13.1046 10 12C10 10.8954 10.8954 10 12 10Z" stroke="#344054" stroke-width="1.5"/>
<path d="M18.9997 15.9999L18.4694 16.5302C18.6101 16.6709 18.8008 16.7499 18.9997 16.7499C19.1987 16.7499 19.3894 16.6709 19.5301 16.5302L18.9997 15.9999ZM19.5301 16.5302L19.751 16.3093L18.6904 15.2486L18.4694 15.4696L19.5301 16.5302ZM18.2484 16.3093L18.4694 16.5302L19.5301 15.4696L19.3091 15.2486L18.2484 16.3093ZM16.0387 18.519L17.5855 20.0658L18.6462 19.0051L17.0994 17.4583L16.0387 18.519ZM20.414 20.0658L21.9608 18.519L20.9001 17.4583L19.3533 19.0051L20.414 20.0658ZM20.9001 16.3093C21.2174 16.6266 21.2174 17.141 20.9001 17.4583L21.9608 18.519C22.8638 17.6159 22.8638 16.1517 21.9608 15.2486L20.9001 16.3093ZM21.9608 15.2486C21.0577 14.3455 19.5935 14.3455 18.6904 15.2486L19.751 16.3093C20.0683 15.992 20.5828 15.992 20.9001 16.3093L21.9608 15.2486ZM17.0994 16.3093C17.4167 15.992 17.9311 15.992 18.2484 16.3093L19.3091 15.2486C18.406 14.3455 16.9418 14.3455 16.0387 15.2486L17.0994 16.3093ZM17.5855 20.0658C18.3666 20.8468 19.6329 20.8468 20.414 20.0658L19.3533 19.0051C19.158 19.2004 18.8415 19.2004 18.6462 19.0051L17.5855 20.0658ZM16.0387 15.2486C15.1356 16.1517 15.1356 17.6159 16.0387 18.519L17.0994 17.4583C16.7821 17.141 16.7821 16.6266 17.0994 16.3093L16.0387 15.2486Z" fill="#344054"/>
</svg>
