<svg width="24" height="24" viewBox="0 0 24 24" fill="none" xmlns="http://www.w3.org/2000/svg">
<path d="M11.3246 7.75H12.6754V6.25H11.3246V7.75ZM17.6559 11.3398L18.6559 14.3398L20.0791 13.8655L19.079 10.8655L17.6559 11.3398ZM13.6754 21.25H10.3246V22.75H13.6754V21.25ZM5.34392 14.3398L6.34392 11.3398L4.9209 10.8655L3.9209 13.8655L5.34392 14.3398ZM10.3246 21.25C6.74108 21.25 4.21074 17.7393 5.34392 14.3398L3.9209 13.8655C2.46395 18.2363 5.71725 22.75 10.3246 22.75V21.25ZM18.6559 14.3398C19.7892 17.7393 17.2588 21.25 13.6754 21.25V22.75C18.2826 22.75 21.5359 18.2363 20.0791 13.8655L18.6559 14.3398ZM12.6754 7.75C14.9351 7.75 16.9413 9.19601 17.6559 11.3398L19.079 10.8655C18.1602 8.10915 15.5808 6.25 12.6754 6.25V7.75ZM11.3246 6.25C8.41911 6.25 5.83967 8.10915 4.9209 10.8655L6.34392 11.3398C7.05852 9.19601 9.06475 7.75 11.3246 7.75V6.25Z" fill="#344054"/>
<path d="M9.37795 17.3523C9.02014 17.1437 8.56091 17.2646 8.35224 17.6224C8.14357 17.9802 8.26448 18.4394 8.62229 18.6481L9.37795 17.3523ZM15.3641 18.656C15.7262 18.4549 15.8569 17.9984 15.6559 17.6362C15.4548 17.2741 14.9983 17.1434 14.6361 17.3444L15.3641 18.656ZM8.62229 18.6481C9.79383 19.3313 10.8249 19.7429 11.9341 19.7474C13.0396 19.7519 14.111 19.3515 15.3641 18.656L14.6361 17.3444C13.467 17.9934 12.6656 18.2503 11.9402 18.2474C11.2186 18.2445 10.4608 17.9838 9.37795 17.3523L8.62229 18.6481Z" fill="#344054"/>
<path d="M14.0855 6.99965V7.74965C14.3022 7.74965 14.5084 7.65589 14.6508 7.49252L14.0855 6.99965ZM9.91375 6.99965L9.34843 7.49252C9.49087 7.65588 9.69701 7.74965 9.91375 7.74965V6.99965ZM14.0855 6.24965H9.91375V7.74965H14.0855V6.24965ZM10.479 6.50678L9.07798 4.89974L7.94735 5.88547L9.34843 7.49252L10.479 6.50678ZM14.9213 4.89974L13.5202 6.50678L14.6508 7.49252L16.0519 5.88547L14.9213 4.89974ZM10.5164 2.82328L11.4442 3.12257L11.9047 1.69501L10.9769 1.39572L10.5164 2.82328ZM12.555 3.12257L13.4828 2.82328L13.0223 1.39572L12.0945 1.69501L12.555 3.12257ZM11.4442 3.12257C11.8051 3.23901 12.1941 3.23901 12.555 3.12257L12.0945 1.69501C12.033 1.71486 11.9662 1.71486 11.9047 1.69501L11.4442 3.12257ZM16.0519 5.88547C17.9606 3.69616 15.6989 0.532244 13.0223 1.39572L13.4828 2.82328C14.8166 2.39301 15.7594 3.9384 14.9213 4.89974L16.0519 5.88547ZM9.07798 4.89974C8.23985 3.9384 9.18268 2.39301 10.5164 2.82328L10.9769 1.39572C8.3003 0.532244 6.03861 3.69615 7.94735 5.88547L9.07798 4.89974Z" fill="#344054"/>
</svg>
