<svg width="24" height="24" viewBox="0 0 24 24" fill="none" xmlns="http://www.w3.org/2000/svg">
<path d="M18 2H6C4.34315 2 3 3.34315 3 5V13C3 14.6569 4.34315 16 6 16H18C19.6569 16 21 14.6569 21 13V5C21 3.34315 19.6569 2 18 2Z" stroke="#344054" stroke-width="1.5"/>
<path d="M18 12C18.5523 12 19 12.4477 19 13C19 13.5523 18.5523 14 18 14C17.4477 14 17 13.5523 17 13C17 12.4477 17.4477 12 18 12Z" fill="#344054"/>
<path d="M6 4C6.55228 4 7 4.44772 7 5C7 5.55228 6.55228 6 6 6C5.44772 6 5 5.55228 5 5C5 4.44772 5.44772 4 6 4Z" fill="#344054"/>
<path d="M12 7C13.1046 7 14 7.89543 14 9C14 10.1046 13.1046 11 12 11C10.8954 11 10 10.1046 10 9C10 7.89543 10.8954 7 12 7Z" stroke="#344054" stroke-width="1.5"/>
<path d="M14.5303 20.9445C14.8232 20.6517 14.8232 20.1768 14.5303 19.8839C14.2374 19.591 13.7626 19.591 13.4697 19.8839L14.5303 20.9445ZM10.5303 19.8839C10.2374 19.591 9.76256 19.591 9.46967 19.8839C9.17678 20.1768 9.17678 20.6517 9.46967 20.9445L10.5303 19.8839ZM12.75 18.5C12.75 18.0858 12.4142 17.75 12 17.75C11.5858 17.75 11.25 18.0858 11.25 18.5H12.75ZM11.25 21.4142C11.25 21.8284 11.5858 22.1642 12 22.1642C12.4142 22.1642 12.75 21.8284 12.75 21.4142H11.25ZM13.4697 19.8839L12.1768 21.1768L13.2374 22.2374L14.5303 20.9445L13.4697 19.8839ZM11.8232 21.1768L10.5303 19.8839L9.46967 20.9445L10.7626 22.2374L11.8232 21.1768ZM12.1768 21.1768C12.0791 21.2744 11.9209 21.2744 11.8232 21.1768L10.7626 22.2374C11.446 22.9209 12.554 22.9209 13.2374 22.2374L12.1768 21.1768ZM11.25 18.5V21.4142H12.75V18.5H11.25Z" fill="#344054"/>
</svg>
