<svg width="24" height="24" viewBox="0 0 24 24" fill="none" xmlns="http://www.w3.org/2000/svg">
<path d="M6 21C7.65685 21 9 19.6569 9 18C9 16.3431 7.65685 15 6 15C4.34315 15 3 16.3431 3 18C3 19.6569 4.34315 21 6 21Z" stroke="#344054" stroke-width="1.5"/>
<path d="M3 3L21 21" stroke="#344054" stroke-width="1.5" stroke-linecap="round" stroke-linejoin="round"/>
<path d="M18.25 12.0477C18.25 12.4619 18.5858 12.7977 19 12.7977C19.4142 12.7977 19.75 12.4619 19.75 12.0477H18.25ZM8.25 18.0477C8.25 18.4619 8.58579 18.7977 9 18.7977C9.41421 18.7977 9.75 18.4619 9.75 18.0477H8.25ZM18.25 14.9998C18.25 15.414 18.5858 15.7498 19 15.7498C19.4142 15.7498 19.75 15.414 19.75 14.9998H18.25ZM18.6814 18.6693C18.971 18.3731 18.9656 17.8983 18.6695 17.6087C18.3733 17.3191 17.8985 17.3244 17.6089 17.6206L18.6814 18.6693ZM14.4271 14.4388C14.7233 14.1492 14.7286 13.6744 14.439 13.3782C14.1494 13.0821 13.6746 13.0767 13.3784 13.3663L14.4271 14.4388ZM13.0414 8.62333C12.6568 8.77716 12.4697 9.21364 12.6236 9.59823C12.7774 9.98281 13.2139 10.1699 13.5985 10.0161L13.0414 8.62333ZM9.49935 5.54509C9.21943 5.8504 9.24001 6.32483 9.54533 6.60475C9.85064 6.88467 10.3251 6.86408 10.605 6.55877L9.49935 5.54509ZM9.75 8.99976C9.75 8.58554 9.41421 8.24976 9 8.24976C8.58579 8.24976 8.25 8.58554 8.25 8.99976H9.75ZM16 18.2977C14.7574 18.2977 13.75 17.2903 13.75 16.0477H12.25C12.25 18.1188 13.9289 19.7977 16 19.7977V18.2977ZM19.75 10.0018C19.75 8.05621 17.785 6.72587 15.9786 7.44842L16.5357 8.84114C17.3568 8.51271 18.25 9.11741 18.25 10.0018H19.75ZM19.75 12.0477V5.00173H18.25V12.0477H19.75ZM15.9787 2.44842L11.2359 4.34553L11.793 5.73825L16.5358 3.84114L15.9787 2.44842ZM19.75 5.00173C19.75 3.05621 17.7851 1.72587 15.9787 2.44842L16.5358 3.84114C17.3568 3.5127 18.25 4.1174 18.25 5.00173H19.75ZM19.75 14.9998V10.0018H18.25V14.9998H19.75ZM17.6089 17.6206C17.1995 18.0393 16.6306 18.2977 16 18.2977V19.7977C17.0506 19.7977 18.0014 19.3647 18.6814 18.6693L17.6089 17.6206ZM13.75 16.0477C13.75 15.4171 14.0084 14.8482 14.4271 14.4388L13.3784 13.3663C12.683 14.0463 12.25 14.9971 12.25 16.0477H13.75ZM15.9786 7.44842L13.0414 8.62333L13.5985 10.0161L16.5357 8.84114L15.9786 7.44842ZM11.2359 4.34553C10.5603 4.61579 9.97132 5.0303 9.49935 5.54509L10.605 6.55877C10.9278 6.20669 11.3303 5.92332 11.793 5.73825L11.2359 4.34553ZM8.25 8.99976V18.0477H9.75V8.99976H8.25Z" fill="#344054"/>
</svg>
