<svg width="24" height="24" viewBox="0 0 24 24" fill="none" xmlns="http://www.w3.org/2000/svg">
<path d="M17.75 6.99961C17.75 6.5854 17.4142 6.24961 17 6.24961C16.5858 6.24961 16.25 6.5854 16.25 6.99961H17.75ZM16.25 16.9996C16.25 17.4139 16.5858 17.7496 17 17.7496C17.4142 17.7496 17.75 17.4139 17.75 16.9996H16.25ZM10.3856 17.893L16.4164 14.375L15.6606 13.0794L9.62984 16.5973L10.3856 17.893ZM16.4164 9.62422L10.3856 6.10629L9.62984 7.40196L15.6606 10.9199L16.4164 9.62422ZM16.4164 14.375C18.2355 13.3139 18.2355 10.6854 16.4164 9.62422L15.6606 10.9199C16.4875 11.4023 16.4875 12.597 15.6606 13.0794L16.4164 14.375ZM9.62984 16.5973C8.79652 17.0834 7.75 16.4823 7.75 15.5176H6.25C6.25 17.64 8.55234 18.9624 10.3856 17.893L9.62984 16.5973ZM10.3856 6.10629C8.55233 5.03686 6.25 6.35927 6.25 8.48169H7.75C7.75 7.51695 8.79652 6.91586 9.62984 7.40196L10.3856 6.10629ZM16.25 6.99961V16.9996H17.75V6.99961H16.25ZM6.25 8.48169V15.5176H7.75V8.48169H6.25Z" fill="#344054"/>
</svg>
