<svg width="24" height="24" viewBox="0 0 24 24" fill="none" xmlns="http://www.w3.org/2000/svg">
<path d="M14.3856 17.893L20.4164 14.375L19.6606 13.0794L13.6298 16.5973L14.3856 17.893ZM20.4164 9.62422L14.3856 6.10629L13.6298 7.40196L19.6606 10.9199L20.4164 9.62422ZM20.4164 14.375C22.2355 13.3139 22.2355 10.6854 20.4164 9.62422L19.6606 10.9199C20.4875 11.4023 20.4874 12.597 19.6606 13.0794L20.4164 14.375ZM10.25 15.5176C10.25 17.64 12.5523 18.9624 14.3856 17.893L13.6298 16.5973C12.7965 17.0834 11.75 16.4823 11.75 15.5176H10.25ZM11.75 8.48169C11.75 7.51695 12.7965 6.91586 13.6298 7.40196L14.3856 6.10629C12.5523 5.03686 10.25 6.35926 10.25 8.48169H11.75ZM2.25 8.48169V15.5176H3.75V8.48169H2.25ZM2.25 15.5176C2.25 17.64 4.55234 18.9624 6.38565 17.893L5.62984 16.5973C4.79652 17.0834 3.75 16.4823 3.75 15.5176H2.25ZM3.75 8.48169C3.75 7.51695 4.79652 6.91586 5.62984 7.40196L6.38564 6.10629C4.55233 5.03686 2.25 6.35926 2.25 8.48169H3.75ZM11.3779 9.01845L6.38564 6.10629L5.62984 7.40196L10.6221 10.3141L11.3779 9.01845ZM10.25 8.48169V9.66628H11.75V8.48169H10.25ZM10.25 9.66628V14.333H11.75V9.66628H10.25ZM10.25 14.333V15.5176H11.75V14.333H10.25ZM6.38565 17.893L11.3779 14.9808L10.6221 13.6851L5.62984 16.5973L6.38565 17.893Z" fill="#344054"/>
</svg>
