<svg width="24" height="24" viewBox="0 0 24 24" fill="none" xmlns="http://www.w3.org/2000/svg">
<path d="M14.2698 4.37366H13.5198C13.5198 4.69424 13.7236 4.97938 14.0269 5.08322L14.2698 4.37366ZM9.72991 4.37366L9.97286 5.08322C10.2762 4.97938 10.48 4.69424 10.48 4.37366H9.72991ZM15.7022 20.2632C15.8476 19.8753 15.651 19.4431 15.2631 19.2977C14.8752 19.1523 14.443 19.3489 14.2976 19.7368L15.7022 20.2632ZM9.70216 19.7368C9.5568 19.3489 9.12453 19.1523 8.73666 19.2977C8.34879 19.4431 8.1522 19.8753 8.29756 20.2632L9.70216 19.7368ZM17.7771 17.25H6.22267V18.75H17.7771V17.25ZM17.4942 9.05977L17.9414 12.9998L19.4318 12.8307L18.9847 8.89061L17.4942 9.05977ZM6.05835 12.9998L6.50554 9.05977L5.01511 8.89061L4.56792 12.8307L6.05835 12.9998ZM5.01875 15.3583C5.59607 14.6801 5.96014 13.8652 6.05835 12.9998L4.56792 12.8307C4.50505 13.3846 4.27053 13.9231 3.87654 14.386L5.01875 15.3583ZM17.9414 12.9998C18.0396 13.8652 18.4037 14.6801 18.981 15.3583L20.1232 14.386C19.7292 13.9231 19.4947 13.3846 19.4318 12.8307L17.9414 12.9998ZM6.22267 17.25C5.56763 17.25 5.10429 16.926 4.89042 16.5492C4.68395 16.1854 4.687 15.748 5.01875 15.3583L3.87654 14.386C3.11127 15.285 3.08763 16.4116 3.58584 17.2895C4.07665 18.1544 5.04933 18.75 6.22267 18.75V17.25ZM17.7771 18.75C18.9504 18.75 19.9231 18.1544 20.4139 17.2895C20.9121 16.4116 20.8885 15.285 20.1232 14.386L18.981 15.3583C19.3128 15.748 19.3158 16.1854 19.1093 16.5492C18.8955 16.926 18.4321 17.25 17.7771 17.25V18.75ZM15.0198 4.37366V4.26995H13.5198V4.37366H15.0198ZM18.9847 8.89061C18.7054 6.43026 16.8805 4.47476 14.5128 3.6641L14.0269 5.08322C15.944 5.73962 17.2912 7.27101 17.4942 9.05977L18.9847 8.89061ZM10.48 4.37366V4.26995H8.97991V4.37366H10.48ZM6.50554 9.05977C6.70856 7.27101 8.05573 5.73962 9.97286 5.08322L9.48697 3.6641C7.1193 4.47476 5.29435 6.43026 5.01511 8.89061L6.50554 9.05977ZM11.9999 2.75C12.8393 2.75 13.5198 3.4305 13.5198 4.26995H15.0198C15.0198 2.60208 13.6678 1.25 11.9999 1.25V2.75ZM11.9999 1.25C10.332 1.25 8.97991 2.60208 8.97991 4.26995H10.48C10.48 3.4305 11.1605 2.75 11.9999 2.75V1.25ZM14.2976 19.7368C13.9749 20.5979 13.0845 21.25 11.9999 21.25V22.75C13.6854 22.75 15.1515 21.7325 15.7022 20.2632L14.2976 19.7368ZM11.9999 21.25C10.9153 21.25 10.0249 20.5979 9.70216 19.7368L8.29756 20.2632C8.84821 21.7325 10.3144 22.75 11.9999 22.75V21.25Z" fill="#344054"/>
</svg>
