<svg width="24" height="24" viewBox="0 0 24 24" fill="none" xmlns="http://www.w3.org/2000/svg">
<path d="M15.7025 19.2632C15.8479 18.8753 15.6513 18.4431 15.2634 18.2977C14.8755 18.1523 14.4433 18.3489 14.2979 18.7368L15.7025 19.2632ZM9.70253 18.7368C9.55717 18.3489 9.1249 18.1523 8.73703 18.2977C8.34916 18.4431 8.15257 18.8753 8.29793 19.2632L9.70253 18.7368ZM18.1701 16.25H5.83037V17.75H18.1701V16.25ZM17.5753 8.87846L17.9202 11.9229L19.4107 11.7541L19.0658 8.70961L17.5753 8.87846ZM6.08022 11.9229L6.4251 8.87846L4.93463 8.70961L4.58976 11.7541L6.08022 11.9229ZM5.02729 14.3657C5.61196 13.6775 5.97798 12.8255 6.08022 11.9229L4.58976 11.7541C4.52061 12.3645 4.27343 12.9363 3.88416 13.3944L5.02729 14.3657ZM17.9202 11.9229C18.0225 12.8255 18.3885 13.6775 18.9731 14.3657L20.1163 13.3944C19.727 12.9363 19.4798 12.3645 19.4107 11.7541L17.9202 11.9229ZM5.83037 16.25C4.94358 16.25 4.37949 15.1281 5.02729 14.3657L3.88416 13.3944C2.46514 15.0647 3.57851 17.75 5.83037 17.75V16.25ZM18.1701 17.75C20.4219 17.75 21.5353 15.0647 20.1163 13.3944L18.9731 14.3657C19.6209 15.1281 19.0569 16.25 18.1701 16.25V17.75ZM19.0658 8.70961C18.6506 5.04473 15.6281 2.25 12.0002 2.25V3.75C14.8304 3.75 17.2421 5.93698 17.5753 8.87846L19.0658 8.70961ZM6.4251 8.87846C6.75831 5.93698 9.17 3.75 12.0002 3.75V2.25C8.37235 2.25 5.34979 5.04473 4.93463 8.70961L6.4251 8.87846ZM14.2979 18.7368C13.9752 19.5979 13.0848 20.25 12.0002 20.25V21.75C13.6857 21.75 15.1518 20.7325 15.7025 19.2632L14.2979 18.7368ZM12.0002 20.25C10.9156 20.25 10.0252 19.5979 9.70253 18.7368L8.29793 19.2632C8.84858 20.7325 10.3147 21.75 12.0002 21.75V20.25Z" fill="#344054"/>
</svg>
