<svg width="24" height="24" viewBox="0 0 24 24" fill="none" xmlns="http://www.w3.org/2000/svg">
<path d="M20.0359 6.94838L19.5055 6.41805C19.2788 6.64474 19.2213 6.99044 19.3623 7.27833L20.0359 6.94838ZM16.8257 3.73819L16.4957 4.41171C16.7836 4.55275 17.1293 4.49521 17.356 4.26852L16.8257 3.73819ZM11.9344 21.3181C12.3115 21.1467 12.4781 20.702 12.3066 20.3249C12.1351 19.9479 11.6905 19.7812 11.3134 19.9527L11.9344 21.3181ZM8.06402 16.7033C8.2355 16.3262 8.06885 15.8815 7.6918 15.7101C7.31475 15.5386 6.87008 15.7052 6.6986 16.0823L8.06402 16.7033ZM13.4109 18.5333L5.24077 10.3631L4.18011 11.4238L12.3502 19.594L13.4109 18.5333ZM19.0023 12.5419L16.5324 15.6442L17.7059 16.5785L20.1758 13.4762L19.0023 12.5419ZM8.12989 7.24163L11.2321 4.77179L10.2978 3.59828L7.19561 6.06812L8.12989 7.24163ZM5.72713 8.17418C6.61492 8.10284 7.44858 7.78406 8.12989 7.24163L7.19561 6.06812C6.75946 6.41536 6.21285 6.63031 5.60697 6.679L5.72713 8.17418ZM16.5324 15.6442C15.99 16.3255 15.6712 17.1592 15.5999 18.047L17.095 18.1671C17.1437 17.5612 17.3587 17.0146 17.7059 16.5785L16.5324 15.6442ZM5.24077 10.3631C4.77759 9.89996 4.67902 9.34325 4.79428 8.92554C4.90554 8.52229 5.21695 8.21518 5.72713 8.17418L5.60697 6.679C4.43014 6.77358 3.61681 7.55348 3.34831 8.52656C3.0838 9.48518 3.35043 10.5941 4.18011 11.4238L5.24077 10.3631ZM12.3502 19.594C13.1799 20.4237 14.2889 20.6903 15.2475 20.4258C16.2206 20.1573 17.0005 19.3439 17.095 18.1671L15.5999 18.047C15.5589 18.5571 15.2518 18.8685 14.8485 18.9798C14.4308 19.0951 13.8741 18.9965 13.4109 18.5333L12.3502 19.594ZM20.5662 7.47871L20.6395 7.40537L19.5789 6.34471L19.5055 6.41805L20.5662 7.47871ZM20.1758 13.4762C21.718 11.539 21.8104 8.86585 20.7094 6.61843L19.3623 7.27833C20.2538 9.09808 20.1235 11.1335 19.0023 12.5419L20.1758 13.4762ZM17.356 4.26852L17.4293 4.19518L16.3687 3.13452L16.2953 3.20786L17.356 4.26852ZM11.2321 4.77179C12.6405 3.6505 14.676 3.52025 16.4957 4.41171L17.1556 3.06467C14.9082 1.9637 12.235 2.05601 10.2978 3.59828L11.2321 4.77179ZM19.5789 4.19518C20.1724 4.78876 20.1724 5.75113 19.5789 6.34471L20.6395 7.40537C21.8189 6.22601 21.8189 4.31388 20.6395 3.13452L19.5789 4.19518ZM20.6395 3.13452C19.4602 1.95516 17.548 1.95516 16.3687 3.13452L17.4293 4.19518C18.0229 3.60161 18.9853 3.60161 19.5789 4.19518L20.6395 3.13452ZM11.3134 19.9527C10.4763 20.3334 9.38566 20.1649 8.61875 19.398L7.55809 20.4586C8.7499 21.6505 10.5061 21.9677 11.9344 21.3181L11.3134 19.9527ZM8.61875 19.398C7.85183 18.6311 7.68333 17.5403 8.06402 16.7033L6.6986 16.0823C6.04902 17.5106 6.36628 19.2668 7.55809 20.4586L8.61875 19.398Z" fill="#344054"/>
</svg>
