<svg width="24" height="24" viewBox="0 0 24 24" fill="none" xmlns="http://www.w3.org/2000/svg">
<path d="M19.3572 6.29011C19.5174 6.67208 19.957 6.85184 20.339 6.69162C20.7209 6.5314 20.9007 6.09187 20.7405 5.70989L19.3572 6.29011ZM16.7787 1.80364C16.3942 1.64981 15.9577 1.83687 15.8038 2.22146C15.65 2.60604 15.8371 3.04252 16.2217 3.19636L16.7787 1.80364ZM3.30857 5.70989C3.14835 6.09187 3.32811 6.5314 3.71008 6.69162C4.09206 6.85184 4.53159 6.67208 4.69181 6.29011L3.30857 5.70989ZM7.82738 3.19636C8.21198 3.04252 8.39903 2.60604 8.24519 2.22146C8.09136 1.83687 7.65489 1.64981 7.2703 1.80364L7.82738 3.19636ZM14.2701 4.37366H13.5201C13.5201 4.69424 13.7239 4.97938 14.0272 5.08322L14.2701 4.37366ZM9.73025 4.37366L9.97319 5.08322C10.2765 4.97938 10.4803 4.69424 10.4803 4.37366H9.73025ZM15.7025 20.2632C15.8479 19.8753 15.6513 19.4431 15.2634 19.2977C14.8755 19.1523 14.4433 19.3489 14.2979 19.7368L15.7025 20.2632ZM9.7025 19.7368C9.55714 19.3489 9.12487 19.1523 8.737 19.2977C8.34913 19.4431 8.15253 19.8753 8.29789 20.2632L9.7025 19.7368ZM19.2804 6.10701L19.3572 6.29011L20.7405 5.70989L20.6637 5.5268L19.2804 6.10701ZM16.2217 3.19636L16.3889 3.26325L16.946 1.87053L16.7787 1.80364L16.2217 3.19636ZM20.6637 5.5268C19.9642 3.85927 18.6249 2.54211 16.946 1.87053L16.3889 3.26325C17.6947 3.78559 18.7364 4.81004 19.2804 6.10701L20.6637 5.5268ZM3.38537 5.5268L3.30857 5.70989L4.69181 6.29011L4.76862 6.10701L3.38537 5.5268ZM7.2703 1.80364L7.10307 1.87053L7.66015 3.26325L7.82738 3.19636L7.2703 1.80364ZM4.76862 6.10701C5.31263 4.81004 6.3543 3.78559 7.66015 3.26325L7.10307 1.87053C5.42412 2.54211 4.08483 3.85927 3.38537 5.5268L4.76862 6.10701ZM17.7774 17.25H6.223V18.75H17.7774V17.25ZM17.4945 9.05977L17.9417 12.9998L19.4321 12.8307L18.985 8.89061L17.4945 9.05977ZM6.05868 12.9998L6.50587 9.05977L5.01544 8.89061L4.56825 12.8307L6.05868 12.9998ZM5.01908 15.3583C5.5964 14.6801 5.96047 13.8652 6.05868 12.9998L4.56825 12.8307C4.50538 13.3846 4.27086 13.9231 3.87687 14.386L5.01908 15.3583ZM17.9417 12.9998C18.0399 13.8652 18.404 14.6801 18.9813 15.3583L20.1235 14.386C19.7295 13.9231 19.495 13.3846 19.4321 12.8307L17.9417 12.9998ZM6.223 17.25C5.56796 17.25 5.10462 16.926 4.89075 16.5492C4.68428 16.1854 4.68733 15.748 5.01908 15.3583L3.87687 14.386C3.1116 15.285 3.08796 16.4116 3.58617 17.2895C4.07698 18.1544 5.04966 18.75 6.223 18.75V17.25ZM17.7774 18.75C18.9507 18.75 19.9234 18.1544 20.4142 17.2895C20.9124 16.4116 20.8888 15.285 20.1235 14.386L18.9813 15.3583C19.3131 15.748 19.3161 16.1854 19.1096 16.5492C18.8958 16.926 18.4324 17.25 17.7774 17.25V18.75ZM15.0201 4.37366V4.26995H13.5201V4.37366H15.0201ZM18.985 8.89061C18.7057 6.43026 16.8808 4.47476 14.5131 3.6641L14.0272 5.08322C15.9443 5.73962 17.2915 7.27101 17.4945 9.05977L18.985 8.89061ZM10.4803 4.37366V4.26995H8.98025V4.37366H10.4803ZM6.50587 9.05977C6.70889 7.27101 8.05606 5.73962 9.97319 5.08322L9.48731 3.6641C7.11964 4.47476 5.29468 6.43026 5.01544 8.89061L6.50587 9.05977ZM12.0002 2.75C12.8396 2.75 13.5201 3.4305 13.5201 4.26995H15.0201C15.0201 2.60208 13.6681 1.25 12.0002 1.25V2.75ZM12.0002 1.25C10.3323 1.25 8.98025 2.60208 8.98025 4.26995H10.4803C10.4803 3.4305 11.1608 2.75 12.0002 2.75V1.25ZM14.2979 19.7368C13.9752 20.5979 13.0848 21.25 12.0002 21.25V22.75C13.6857 22.75 15.1518 21.7325 15.7025 20.2632L14.2979 19.7368ZM12.0002 21.25C10.9156 21.25 10.0252 20.5979 9.7025 19.7368L8.29789 20.2632C8.84855 21.7325 10.3147 22.75 12.0002 22.75V21.25Z" fill="#344054"/>
</svg>
