<svg width="24" height="24" viewBox="0 0 24 24" fill="none" xmlns="http://www.w3.org/2000/svg">
<path d="M18.1701 16.25H5.83037V17.75H18.1701V16.25ZM17.5753 8.87846L17.9202 11.9229L19.4107 11.7541L19.0658 8.70961L17.5753 8.87846ZM6.08022 11.9229L6.4251 8.87846L4.93463 8.70961L4.58976 11.7541L6.08022 11.9229ZM5.02729 14.3657C5.61195 13.6775 5.97798 12.8255 6.08022 11.9229L4.58976 11.7541C4.52061 12.3645 4.27343 12.9363 3.88416 13.3944L5.02729 14.3657ZM17.9202 11.9229C18.0225 12.8255 18.3885 13.6775 18.9731 14.3657L20.1163 13.3944C19.727 12.9363 19.4798 12.3645 19.4107 11.7541L17.9202 11.9229ZM5.83037 16.25C4.94357 16.25 4.37949 15.1281 5.02729 14.3657L3.88416 13.3944C2.46514 15.0647 3.57851 17.75 5.83037 17.75V16.25ZM18.1701 17.75C20.4219 17.75 21.5353 15.0647 20.1163 13.3944L18.9731 14.3657C19.6209 15.1281 19.0569 16.25 18.1701 16.25V17.75ZM19.0658 8.70961C18.6506 5.04473 15.6281 2.25 12.0002 2.25V3.75C14.8304 3.75 17.2421 5.93698 17.5753 8.87846L19.0658 8.70961ZM6.4251 8.87846C6.75831 5.93698 9.17 3.75 12.0002 3.75V2.25C8.37235 2.25 5.34979 5.04473 4.93463 8.70961L6.4251 8.87846Z" fill="#344054"/>
<path d="M15.7025 19.2634C15.8479 18.8755 15.6513 18.4433 15.2634 18.2979C14.8755 18.1525 14.4433 18.3491 14.2979 18.737L15.7025 19.2634ZM9.7025 18.737C9.55714 18.3491 9.12487 18.1525 8.737 18.2979C8.34913 18.4433 8.15254 18.8755 8.2979 19.2634L9.7025 18.737ZM14.2979 18.737C13.9752 19.5981 13.0848 20.2502 12.0002 20.2502V21.7502C13.6857 21.7502 15.1518 20.7327 15.7025 19.2634L14.2979 18.737ZM12.0002 20.2502C10.9156 20.2502 10.0252 19.5981 9.7025 18.737L8.2979 19.2634C8.84855 20.7327 10.3147 21.7502 12.0002 21.7502V20.2502Z" fill="#344054"/>
</svg>
