<svg width="24" height="24" viewBox="0 0 24 24" fill="none" xmlns="http://www.w3.org/2000/svg">
<path d="M17 8C18.6569 8 20 6.65685 20 5C20 3.34315 18.6569 2 17 2C15.3431 2 14 3.34315 14 5C14 6.65685 15.3431 8 17 8Z" stroke="#344054" stroke-width="1.5"/>
<path d="M11.1839 4.81103C11.5935 4.7492 11.8754 4.36705 11.8135 3.95747C11.7517 3.5479 11.3695 3.26601 10.96 3.32784L11.1839 4.81103ZM19.1828 10.7423C19.1362 10.3307 18.7647 10.0348 18.3531 10.0814C17.9415 10.1281 17.6457 10.4995 17.6923 10.9111L19.1828 10.7423ZM18.1701 17.2499H5.83037V18.7499H18.1701V17.2499ZM6.08022 12.9229L6.4251 9.8784L4.93463 9.70956L4.58976 12.754L6.08022 12.9229ZM5.02729 15.3656C5.61195 14.6774 5.97798 13.8254 6.08022 12.9229L4.58976 12.754C4.52061 13.3644 4.27343 13.9362 3.88416 14.3944L5.02729 15.3656ZM17.9202 12.9229C18.0225 13.8254 18.3885 14.6774 18.9731 15.3656L20.1163 14.3944C19.727 13.9362 19.4798 13.3644 19.4107 12.754L17.9202 12.9229ZM5.83037 17.2499C4.94357 17.2499 4.37949 16.1281 5.02729 15.3656L3.88416 14.3944C2.46514 16.0646 3.57851 18.7499 5.83037 18.7499V17.2499ZM18.1701 18.7499C20.4219 18.7499 21.5353 16.0646 20.1163 14.3944L18.9731 15.3656C19.6209 16.1281 19.0569 17.2499 18.1701 17.2499V18.7499ZM6.4251 9.8784C6.72566 7.22511 8.72007 5.18301 11.1839 4.81103L10.96 3.32784C7.80706 3.80385 5.30947 6.40066 4.93463 9.70956L6.4251 9.8784ZM17.6923 10.9111L17.9202 12.9229L19.4107 12.754L19.1828 10.7423L17.6923 10.9111Z" fill="#344054"/>
<path d="M15.7025 20.2634C15.8479 19.8755 15.6513 19.4433 15.2634 19.2979C14.8755 19.1525 14.4433 19.3491 14.2979 19.737L15.7025 20.2634ZM9.7025 19.737C9.55714 19.3491 9.12487 19.1525 8.737 19.2979C8.34913 19.4433 8.15254 19.8755 8.2979 20.2634L9.7025 19.737ZM14.2979 19.737C13.9752 20.5981 13.0848 21.2502 12.0002 21.2502V22.7502C13.6857 22.7502 15.1518 21.7327 15.7025 20.2634L14.2979 19.737ZM12.0002 21.2502C10.9156 21.2502 10.0252 20.5981 9.7025 19.737L8.2979 20.2634C8.84855 21.7327 10.3147 22.7502 12.0002 22.7502V21.2502Z" fill="#344054"/>
</svg>
