<svg width="24" height="24" viewBox="0 0 24 24" fill="none" xmlns="http://www.w3.org/2000/svg">
<path d="M19.25 10V16.7639H20.75V10H19.25ZM4.75 16.7639V10H3.25V16.7639H4.75ZM18.559 17.882L12.559 20.882L13.2298 22.2236L19.2298 19.2236L18.559 17.882ZM11.441 20.882L5.44098 17.882L4.77016 19.2236L10.7702 22.2236L11.441 20.882ZM12.559 20.882C12.2071 21.0579 11.7929 21.0579 11.441 20.882L10.7702 22.2236C11.5444 22.6107 12.4556 22.6107 13.2298 22.2236L12.559 20.882ZM3.25 16.7639C3.25 17.8056 3.83851 18.7578 4.77016 19.2236L5.44098 17.882C5.0175 17.6702 4.75 17.2374 4.75 16.7639H3.25ZM19.25 16.7639C19.25 17.2374 18.9825 17.6702 18.559 17.882L19.2298 19.2236C20.1615 18.7578 20.75 17.8056 20.75 16.7639H19.25Z" fill="#344054"/>
<path d="M20 6.00026L20.3354 6.67108C20.5895 6.54404 20.75 6.28434 20.75 6.00026C20.75 5.71618 20.5895 5.45648 20.3354 5.32944L20 6.00026ZM12 10.0003L11.6646 10.6711C11.8757 10.7767 12.1243 10.7767 12.3354 10.6711L12 10.0003ZM4 6.00026L3.66459 5.32944C3.4105 5.45648 3.25 5.71618 3.25 6.00026C3.25 6.28434 3.4105 6.54404 3.66459 6.67108L4 6.00026ZM12.559 3.11829L19.6646 6.67108L20.3354 5.32944L13.2298 1.77665L12.559 3.11829ZM19.6646 5.32944L11.6646 9.32944L12.3354 10.6711L20.3354 6.67108L19.6646 5.32944ZM12.3354 9.32944L4.33541 5.32944L3.66459 6.67108L11.6646 10.6711L12.3354 9.32944ZM4.33541 6.67108L11.441 3.11829L10.7702 1.77665L3.66459 5.32944L4.33541 6.67108ZM13.2298 1.77665C12.4556 1.38955 11.5444 1.38955 10.7702 1.77665L11.441 3.11829C11.7929 2.94234 12.2071 2.94234 12.559 3.11829L13.2298 1.77665Z" fill="#344054"/>
<path d="M20 6L12 10L14 13L22 9L20 6Z" stroke="#344054" stroke-width="1.5" stroke-linecap="round" stroke-linejoin="round"/>
<path d="M4 6L12 10L10 13L2 9L4 6Z" stroke="#344054" stroke-width="1.5" stroke-linecap="round" stroke-linejoin="round"/>
</svg>
