<svg width="24" height="24" viewBox="0 0 24 24" fill="none" xmlns="http://www.w3.org/2000/svg">
<path d="M9.34857 15.5912C9.05568 15.8841 9.05568 16.359 9.34857 16.6519C9.64147 16.9448 10.1163 16.9448 10.4092 16.6519L9.34857 15.5912ZM14.6518 12.4092C14.9447 12.1163 14.9447 11.6415 14.6518 11.3486C14.3589 11.0557 13.8841 11.0557 13.5912 11.3486L14.6518 12.4092ZM10.4092 16.6519L14.6518 12.4092L13.5912 11.3486L9.34857 15.5912L10.4092 16.6519Z" fill="#344054"/>
<path d="M10.4092 11.3486C10.1163 11.0557 9.64147 11.0557 9.34857 11.3486C9.05568 11.6415 9.05568 12.1164 9.34857 12.4093L10.4092 11.3486ZM13.5912 16.6519C13.8841 16.9448 14.3589 16.9448 14.6518 16.6519C14.9447 16.359 14.9447 15.8842 14.6518 15.5913L13.5912 16.6519ZM9.34857 12.4093L13.5912 16.6519L14.6518 15.5913L10.4092 11.3486L9.34857 12.4093Z" fill="#344054"/>
<path d="M21.25 8.40312V18H22.75V8.40312H21.25ZM18 21.25H6V22.75H18V21.25ZM2.75 18V8.40312H1.25V18H2.75ZM7.9225 2.75H16.0775V1.25H7.9225V2.75ZM18.6153 3.96974L20.5378 6.37286L21.7091 5.43582L19.7866 3.0327L18.6153 3.96974ZM3.46218 6.37287L5.38468 3.96974L4.21337 3.0327L2.29087 5.43582L3.46218 6.37287ZM16.0775 2.75C17.0648 2.75 17.9986 3.19879 18.6153 3.96974L19.7866 3.0327C18.8852 1.90593 17.5205 1.25 16.0775 1.25V2.75ZM7.9225 1.25C6.47953 1.25 5.11479 1.90593 4.21337 3.0327L5.38468 3.96974C6.00143 3.19879 6.9352 2.75 7.9225 2.75V1.25ZM6 21.25C4.20507 21.25 2.75 19.7949 2.75 18H1.25C1.25 20.6234 3.37665 22.75 6 22.75V21.25ZM21.25 18C21.25 19.7949 19.7949 21.25 18 21.25V22.75C20.6234 22.75 22.75 20.6234 22.75 18H21.25ZM22.75 8.40312C22.75 7.32453 22.3829 6.27806 21.7091 5.43582L20.5378 6.37286C20.9988 6.94913 21.25 7.66514 21.25 8.40312H22.75ZM2.75 8.40312C2.75 7.66514 3.00116 6.94913 3.46218 6.37287L2.29087 5.43582C1.61708 6.27806 1.25 7.32453 1.25 8.40312H2.75Z" fill="#344054"/>
<path d="M3 7H21" stroke="#344054" stroke-width="1.5" stroke-linecap="round" stroke-linejoin="round"/>
</svg>
