<svg width="24" height="24" viewBox="0 0 24 24" fill="none" xmlns="http://www.w3.org/2000/svg">
<path d="M14.8113 14.8113C12.5546 17.068 10.1691 18.7198 8.16026 19.5807C7.15378 20.0121 6.27844 20.2291 5.58228 20.2486C4.88829 20.2679 4.44489 20.0923 4.17632 19.8237L3.11566 20.8844C3.76985 21.5386 4.67305 21.7745 5.62412 21.748C6.573 21.7215 7.64113 21.4352 8.75114 20.9595C10.9753 20.0063 13.5149 18.2291 15.872 15.872L14.8113 14.8113ZM4.17632 19.8237C3.90775 19.5552 3.73213 19.1118 3.75149 18.4178C3.77092 17.7216 3.98796 16.8463 4.41931 15.8398C5.28024 13.8309 6.93203 11.4454 9.18874 9.18868L8.12807 8.12802C5.77098 10.4852 3.9938 13.0247 3.04059 15.2489C2.56487 16.3589 2.27855 17.427 2.25208 18.3759C2.22554 19.327 2.46147 20.2302 3.11566 20.8844L4.17632 19.8237ZM9.18874 9.18868C11.4455 6.93196 13.831 5.28017 15.8398 4.41923C16.8463 3.98788 17.7216 3.77084 18.4178 3.75141C19.1118 3.73205 19.5552 3.90767 19.8237 4.17624L20.8844 3.11558C20.2302 2.46139 19.327 2.22546 18.3759 2.252C17.4271 2.27847 16.3589 2.56479 15.2489 3.04052C13.0248 3.99373 10.4852 5.77091 8.12807 8.12802L9.18874 9.18868ZM19.8237 4.17624C20.0923 4.44481 20.2679 4.88822 20.2486 5.58221C20.2291 6.27837 20.0121 7.15372 19.5807 8.16021C18.7198 10.1691 17.068 12.5546 14.8113 14.8113L15.872 15.872C18.2291 13.5149 20.0063 10.9753 20.9595 8.75108C21.4352 7.64106 21.7215 6.57293 21.748 5.62405C21.7745 4.67298 21.5386 3.76978 20.8844 3.11558L19.8237 4.17624ZM14.8112 9.18867C17.0679 11.4454 18.7197 13.8309 19.5807 15.8398C20.012 16.8462 20.2291 17.7216 20.2485 18.4178C20.2678 19.1117 20.0922 19.5552 19.8237 19.8237L20.8843 20.8844C21.5385 20.2302 21.7744 19.327 21.7479 18.3759C21.7214 17.427 21.4351 16.3589 20.9594 15.2489C20.0062 13.0247 18.229 10.4851 15.8719 8.12801L14.8112 9.18867ZM19.8237 19.8237C19.5551 20.0923 19.1117 20.2679 18.4177 20.2486C17.7215 20.2291 16.8462 20.0121 15.8397 19.5807C13.8309 18.7198 11.4454 17.068 9.18865 14.8113L8.12798 15.8719C10.4851 18.2291 13.0247 20.0062 15.2488 20.9595C16.3588 21.4352 17.427 21.7215 18.3759 21.748C19.3269 21.7745 20.2301 21.5386 20.8843 20.8844L19.8237 19.8237ZM9.18865 14.8113C6.93194 12.5546 5.28015 10.1691 4.41922 8.1602C3.98787 7.15371 3.77083 6.27836 3.7514 5.5822C3.73204 4.88821 3.90766 4.4448 4.17623 4.17623L3.11557 3.11557C2.46138 3.76977 2.22545 4.67297 2.25199 5.62404C2.27846 6.57292 2.56478 7.64105 3.0405 8.75107C3.99371 10.9753 5.77089 13.5148 8.12798 15.8719L9.18865 14.8113ZM4.17623 4.17623C4.4448 3.90766 4.8882 3.73204 5.58219 3.7514C6.27835 3.77083 7.15369 3.98787 8.16017 4.41922C10.169 5.28016 12.5545 6.93195 14.8112 9.18867L15.8719 8.12801C13.5148 5.7709 10.9752 3.99372 8.75105 3.04051C7.64104 2.56478 6.57291 2.27846 5.62403 2.25199C4.67296 2.22545 3.76976 2.46138 3.11557 3.11557L4.17623 4.17623ZM13.25 12C13.25 12.6904 12.6904 13.25 12 13.25V14.75C13.5188 14.75 14.75 13.5188 14.75 12H13.25ZM12 13.25C11.3096 13.25 10.75 12.6904 10.75 12H9.24997C9.24997 13.5188 10.4812 14.75 12 14.75V13.25ZM10.75 12C10.75 11.3096 11.3096 10.75 12 10.75V9.24997C10.4812 9.24997 9.24997 10.4812 9.24997 12H10.75ZM12 10.75C12.6904 10.75 13.25 11.3096 13.25 12H14.75C14.75 10.4812 13.5188 9.24997 12 9.24997V10.75Z" fill="#344054"/>
</svg>
