<svg width="24" height="24" viewBox="0 0 24 24" fill="none" xmlns="http://www.w3.org/2000/svg">
<path d="M21.8025 10.0128C21.0104 6.08418 17.9158 2.98955 13.9872 2.19744C12.9045 1.97913 12 2.89542 12 3.99999V9.99999C12 11.1046 12.8954 12 14 12H20C21.1046 12 22.0209 11.0955 21.8025 10.0128Z" stroke="#344054" stroke-width="1.5" stroke-linejoin="round"/>
<path d="M9.16597 4.95422C9.56991 4.86256 9.82307 4.46079 9.73141 4.05685C9.63975 3.6529 9.23798 3.39975 8.83403 3.49141L9.16597 4.95422ZM20.5084 15.1658C20.6 14.7618 20.3469 14.3601 19.9429 14.2684C19.539 14.1768 19.1372 14.4299 19.0456 14.8339L20.5084 15.1658ZM11 21.2498C6.44365 21.2498 2.75 17.5562 2.75 12.9998H1.25C1.25 18.3846 5.61522 22.7498 11 22.7498V21.2498ZM2.75 12.9998C2.75 9.0745 5.4921 5.78787 9.16597 4.95422L8.83403 3.49141C4.49195 4.47668 1.25 8.35874 1.25 12.9998H2.75ZM19.0456 14.8339C18.2119 18.5077 14.9253 21.2498 11 21.2498V22.7498C15.6411 22.7498 19.5231 19.5079 20.5084 15.1658L19.0456 14.8339Z" fill="#344054"/>
</svg>
