<svg width="24" height="24" viewBox="0 0 24 24" fill="none" xmlns="http://www.w3.org/2000/svg">
<path d="M9 22C12.866 22 16 18.866 16 15C16 11.134 12.866 8 9 8C5.13401 8 2 11.134 2 15C2 18.866 5.13401 22 9 22Z" stroke="#344054" stroke-width="1.5"/>
<path d="M8.06267 8.06221L7.31936 7.96228L7.18848 8.93587L8.16214 8.80558L8.06267 8.06221ZM15.9378 15.9373L15.1944 15.8378L15.0641 16.8115L16.0377 16.6806L15.9378 15.9373ZM8.99994 8.75C12.4517 8.75 15.25 11.5482 15.25 15H16.75C16.75 10.7198 13.2802 7.25 8.99994 7.25V8.75ZM19.4194 4.58058C21.8602 7.02136 21.8602 10.9786 19.4194 13.4194L20.48 14.4801C23.5066 11.4535 23.5066 6.54649 20.48 3.51992L19.4194 4.58058ZM10.5806 4.58058C13.0213 2.13981 16.9786 2.13981 19.4194 4.58058L20.48 3.51992C17.4535 0.49336 12.5465 0.49336 9.51986 3.51992L10.5806 4.58058ZM8.80598 8.16213C8.98211 6.85199 9.57301 5.58809 10.5806 4.58058L9.51986 3.51992C8.27187 4.76792 7.53776 6.33765 7.31936 7.96228L8.80598 8.16213ZM8.16214 8.80558C8.43585 8.76895 8.71548 8.75 8.99994 8.75V7.25C8.64876 7.25 8.30267 7.27341 7.9632 7.31883L8.16214 8.80558ZM19.4194 13.4194C18.4119 14.4269 17.148 15.0178 15.8378 15.194L16.0377 16.6806C17.6623 16.4622 19.2321 15.7281 20.48 14.4801L19.4194 13.4194ZM15.25 15C15.25 15.2845 15.231 15.5641 15.1944 15.8378L16.6811 16.0367C16.7266 15.6973 16.75 15.3512 16.75 15H15.25Z" fill="#344054"/>
<path d="M2 15H16" stroke="#344054" stroke-width="1.5" stroke-linecap="round" stroke-linejoin="round"/>
<path d="M20.4805 4.58013C20.7734 4.28724 20.7734 3.81237 20.4805 3.51947C20.1876 3.22658 19.7128 3.22658 19.4199 3.51947L20.4805 4.58013ZM13.4199 9.51947C13.127 9.81236 13.127 10.2872 13.4199 10.5801C13.7128 10.873 14.1876 10.873 14.4805 10.5801L13.4199 9.51947ZM14.4805 10.5801L20.4805 4.58013L19.4199 3.51947L13.4199 9.51947L14.4805 10.5801Z" fill="#344054"/>
</svg>
