<svg width="24" height="24" viewBox="0 0 24 24" fill="none" xmlns="http://www.w3.org/2000/svg">
<path d="M14.9998 14.25C14.5856 14.25 14.2498 14.5858 14.2498 15C14.2498 15.4142 14.5856 15.75 14.9998 15.75V14.25ZM8.99982 15.75C9.41404 15.75 9.74982 15.4142 9.74982 15C9.74982 14.5858 9.41404 14.25 8.99982 14.25V15.75ZM18.623 16.9194L19.6901 18.1998L20.8424 17.2395L19.7753 15.9591L18.623 16.9194ZM18.7297 20.25H5.26991V21.75H18.7297V20.25ZM4.30963 18.1998L5.37661 16.9194L4.22427 15.9591L3.1573 17.2395L4.30963 18.1998ZM16.1263 14.25H14.9998V15.75H16.1263V14.25ZM7.87332 15.75H8.99982V14.25H7.87332V15.75ZM5.26991 20.25C4.21011 20.25 3.63117 19.0139 4.30963 18.1998L3.1573 17.2395C1.66467 19.0306 2.93835 21.75 5.26991 21.75V20.25ZM19.6901 18.1998C20.3685 19.0139 19.7895 20.25 18.7297 20.25V21.75C21.0612 21.75 22.3349 19.0306 20.8424 17.2395L19.6901 18.1998ZM19.7753 15.9591C18.8729 14.8762 17.536 14.25 16.1263 14.25V15.75C17.0908 15.75 18.0055 16.1784 18.623 16.9194L19.7753 15.9591ZM5.37661 16.9194C5.99409 16.1784 6.90879 15.75 7.87332 15.75V14.25C6.46362 14.25 5.12674 14.8762 4.22427 15.9591L5.37661 16.9194Z" fill="#344054"/>
<path d="M11.25 17C11.25 17.4142 11.5858 17.75 12 17.75C12.4142 17.75 12.75 17.4142 12.75 17H11.25ZM13.25 5C13.25 5.69036 12.6904 6.25 12 6.25V7.75C13.5188 7.75 14.75 6.51878 14.75 5H13.25ZM12 6.25C11.3096 6.25 10.75 5.69036 10.75 5H9.25C9.25 6.51878 10.4812 7.75 12 7.75V6.25ZM10.75 5C10.75 4.30964 11.3096 3.75 12 3.75V2.25C10.4812 2.25 9.25 3.48122 9.25 5H10.75ZM12 3.75C12.6904 3.75 13.25 4.30964 13.25 5H14.75C14.75 3.48122 13.5188 2.25 12 2.25V3.75ZM12.75 17V7H11.25V17H12.75Z" fill="#344054"/>
</svg>
