<svg width="24" height="24" viewBox="0 0 24 24" fill="none" xmlns="http://www.w3.org/2000/svg">
<path d="M9.36438 18.9414L17.3333 14.3877L16.589 13.0854L8.62017 17.639L9.36438 18.9414ZM17.3333 9.61242L9.36438 5.05878L8.62017 6.36114L16.589 10.9148L17.3333 9.61242ZM17.3333 14.3877C19.1807 13.332 19.1807 10.6681 17.3333 9.61242L16.589 10.9148C17.4288 11.3946 17.4288 12.6055 16.589 13.0854L17.3333 14.3877ZM8.62017 17.639C7.78685 18.1152 6.75 17.5135 6.75 16.5537H5.25C5.25 18.6652 7.53108 19.989 9.36438 18.9414L8.62017 17.639ZM9.36438 5.05878C7.53108 4.01117 5.25 5.33493 5.25 7.44644H6.75C6.75 6.48667 7.78685 5.88496 8.62017 6.36114L9.36438 5.05878ZM5.25 7.44644V16.5537H6.75V7.44644H5.25Z" fill="#344054"/>
</svg>
