<svg width="24" height="24" viewBox="0 0 24 24" fill="none" xmlns="http://www.w3.org/2000/svg">
<path d="M7 12H17" stroke="#344054" stroke-width="1.5" stroke-linecap="round" stroke-linejoin="round"/>
<path d="M18.2498 8C18.2498 8.41421 18.5856 8.75 18.9998 8.75C19.414 8.75 19.7498 8.41421 19.7498 8H18.2498ZM18.9998 21.75C19.414 21.75 19.7498 21.4142 19.7498 21C19.7498 20.5858 19.414 20.25 18.9998 20.25V21.75ZM19.7498 8V6.5H18.2498V8H19.7498ZM11.2498 6.5V8.56892H12.7498V6.5H11.2498ZM9.30131 14.2479L6.91836 17.3117L8.10239 18.2326L10.4853 15.1688L9.30131 14.2479ZM9.08908 21.75H18.9998V20.25H9.08908V21.75ZM6.91836 17.3117C5.51341 19.118 6.80067 21.75 9.08908 21.75V20.25C8.04889 20.25 7.46378 19.0536 8.10239 18.2326L6.91836 17.3117ZM11.2498 8.56892C11.2498 10.6259 10.5642 12.6242 9.30131 14.2479L10.4853 15.1688C11.953 13.2818 12.7498 10.9595 12.7498 8.56892H11.2498ZM15.4998 2.25C13.1526 2.25 11.2498 4.15279 11.2498 6.5H12.7498C12.7498 4.98122 13.981 3.75 15.4998 3.75V2.25ZM19.7498 6.5C19.7498 4.15279 17.847 2.25 15.4998 2.25V3.75C17.0186 3.75 18.2498 4.98122 18.2498 6.5H19.7498Z" fill="#344054"/>
</svg>
