<svg width="24" height="24" viewBox="0 0 24 24" fill="none" xmlns="http://www.w3.org/2000/svg">
<path d="M9.99975 13L9.46939 13.5303C9.68388 13.7448 10.0064 13.809 10.2867 13.6929C10.5669 13.5768 10.7497 13.3033 10.7497 13H9.99975ZM13.9997 13H13.2497C13.2497 13.4142 13.5855 13.75 13.9997 13.75V13ZM5.24972 8C5.24972 8.41421 5.5855 8.75 5.99972 8.75C6.41393 8.75 6.74972 8.41421 6.74972 8H5.24972ZM17.2497 8C17.2497 8.41421 17.5855 8.75 17.9997 8.75C18.4139 8.75 18.7497 8.41421 18.7497 8H17.2497ZM10.7497 13V7H9.24972V13H10.7497ZM13.2497 7V13H14.7497V7H13.2497ZM13.9997 13.75H15.9997V12.25H13.9997V13.75ZM15.6784 21.25H11.5753V22.75H15.6784V21.25ZM7.10572 11.75H7.17129V10.25H7.10572V11.75ZM8.05517 12.1161L9.46939 13.5303L10.53 12.4697L9.11583 11.0555L8.05517 12.1161ZM4.60222 14.138L7.25113 19.9656L8.61668 19.3449L5.96777 13.5173L4.60222 14.138ZM19.8025 20.3567L20.1238 19.7944L18.8215 19.0502L18.5002 19.6124L19.8025 20.3567ZM20.7497 17.4377V17H19.2497V17.4377H20.7497ZM20.1238 19.7944C20.5339 19.0767 20.7497 18.2644 20.7497 17.4377H19.2497C19.2497 18.0033 19.1021 18.5591 18.8215 19.0502L20.1238 19.7944ZM7.17129 11.75C7.50281 11.75 7.82075 11.8817 8.05517 12.1161L9.11583 11.0555C8.60011 10.5397 7.90063 10.25 7.17129 10.25V11.75ZM7.10572 10.25C5.10568 10.25 3.77459 12.3172 4.60222 14.138L5.96777 13.5173C5.59157 12.6896 6.19661 11.75 7.10572 11.75V10.25ZM15.6784 22.75C17.3829 22.75 18.9568 21.8366 19.8025 20.3567L18.5002 19.6124C17.9215 20.6251 16.8447 21.25 15.6784 21.25V22.75ZM15.9997 13.75C17.7946 13.75 19.2497 15.2051 19.2497 17H20.7497C20.7497 14.3766 18.623 12.25 15.9997 12.25V13.75ZM11.9997 5.75C12.69 5.75 13.2497 6.30964 13.2497 7H14.7497C14.7497 5.48122 13.5184 4.25 11.9997 4.25V5.75ZM11.5753 21.25C10.3009 21.25 9.14405 20.5051 8.61668 19.3449L7.25113 19.9656C8.02191 21.6613 9.71269 22.75 11.5753 22.75V21.25ZM10.7497 7C10.7497 6.30964 11.3093 5.75 11.9997 5.75V4.25C10.4809 4.25 9.24972 5.48122 9.24972 7H10.7497ZM6.74972 8C6.74972 5.10051 9.10022 2.75 11.9997 2.75V1.25C8.27179 1.25 5.24972 4.27208 5.24972 8H6.74972ZM11.9997 2.75C14.8992 2.75 17.2497 5.10051 17.2497 8H18.7497C18.7497 4.27208 15.7276 1.25 11.9997 1.25V2.75Z" fill="#344054"/>
</svg>
