<svg width="24" height="24" viewBox="0 0 24 24" fill="none" xmlns="http://www.w3.org/2000/svg">
<path d="M9.64509 17.893L3.61435 14.375L4.37016 13.0794L10.4009 16.5973L9.64509 17.893ZM3.61436 9.62422L9.64509 6.10629L10.4009 7.40196L4.37016 10.9199L3.61436 9.62422ZM3.61435 14.375C1.79521 13.3139 1.79522 10.6854 3.61436 9.62422L4.37016 10.9199C3.54328 11.4023 3.54328 12.597 4.37016 13.0794L3.61435 14.375ZM13.7808 15.5176C13.7808 17.64 11.4784 18.9624 9.64509 17.893L10.4009 16.5973C11.2342 17.0834 12.2808 16.4823 12.2808 15.5176H13.7808ZM12.2808 8.48169C12.2808 7.51695 11.2342 6.91586 10.4009 7.40196L9.64509 6.10629C11.4784 5.03686 13.7808 6.35926 13.7808 8.48169H12.2808ZM21.7808 8.48169V15.5176H20.2808V8.48169H21.7808ZM21.7808 15.5176C21.7808 17.64 19.4784 18.9624 17.6451 17.893L18.4009 16.5973C19.2342 17.0834 20.2808 16.4823 20.2808 15.5176H21.7808ZM20.2808 8.48169C20.2808 7.51695 19.2342 6.91586 18.4009 7.40196L17.6451 6.10629C19.4784 5.03686 21.7808 6.35926 21.7808 8.48169H20.2808ZM12.6529 9.01845L17.6451 6.10629L18.4009 7.40196L13.4087 10.3141L12.6529 9.01845ZM13.7808 8.48169V9.66628H12.2808V8.48169H13.7808ZM13.7808 9.66628V14.333H12.2808V9.66628H13.7808ZM13.7808 14.333V15.5176H12.2808V14.333H13.7808ZM17.6451 17.893L12.6529 14.9808L13.4087 13.6851L18.4009 16.5973L17.6451 17.893Z" fill="#344054"/>
</svg>
