<svg width="24" height="24" viewBox="0 0 24 24" fill="none" xmlns="http://www.w3.org/2000/svg">
<path d="M7.75046 6.99961C7.75046 6.5854 7.41467 6.24961 7.00046 6.24961C6.58625 6.24961 6.25046 6.5854 6.25046 6.99961H7.75046ZM6.25046 16.9996C6.25046 17.4139 6.58625 17.7496 7.00046 17.7496C7.41467 17.7496 7.75046 17.4139 7.75046 16.9996H6.25046ZM14.3706 16.5973L8.33989 13.0794L7.58408 14.375L13.6148 17.893L14.3706 16.5973ZM8.33989 10.9199L14.3706 7.40196L13.6148 6.10629L7.58408 9.62422L8.33989 10.9199ZM8.33989 13.0794C7.51301 12.597 7.51301 11.4023 8.33989 10.9199L7.58408 9.62422C5.76495 10.6854 5.76494 13.3139 7.58408 14.375L8.33989 13.0794ZM13.6148 17.893C15.4481 18.9624 17.7505 17.64 17.7505 15.5176H16.2505C16.2505 16.4823 15.204 17.0834 14.3706 16.5973L13.6148 17.893ZM14.3706 7.40196C15.204 6.91586 16.2505 7.51695 16.2505 8.48169H17.7505C17.7505 6.35927 15.4481 5.03686 13.6148 6.10629L14.3706 7.40196ZM6.25046 6.99961V16.9996H7.75046V6.99961H6.25046ZM16.2505 8.48169V15.5176H17.7505V8.48169H16.2505Z" fill="#344054"/>
</svg>
