<svg width="24" height="24" viewBox="0 0 24 24" fill="none" xmlns="http://www.w3.org/2000/svg">
<path d="M14 5.2499C13.5858 5.2499 13.25 5.58569 13.25 5.9999C13.25 6.41412 13.5858 6.7499 14 6.7499V5.2499ZM21 6.7499C21.4142 6.7499 21.75 6.41412 21.75 5.9999C21.75 5.58569 21.4142 5.2499 21 5.2499V6.7499ZM14 10.2499C13.5858 10.2499 13.25 10.5857 13.25 10.9999C13.25 11.4141 13.5858 11.7499 14 11.7499V10.2499ZM21 11.7499C21.4142 11.7499 21.75 11.4141 21.75 10.9999C21.75 10.5857 21.4142 10.2499 21 10.2499V11.7499ZM3 15.2499C2.58579 15.2499 2.25 15.5857 2.25 15.9999C2.25 16.4141 2.58579 16.7499 3 16.7499V15.2499ZM21 16.7499C21.4142 16.7499 21.75 16.4141 21.75 15.9999C21.75 15.5857 21.4142 15.2499 21 15.2499V16.7499ZM3 20.2499C2.58579 20.2499 2.25 20.5857 2.25 20.9999C2.25 21.4141 2.58579 21.7499 3 21.7499V20.2499ZM21 21.7499C21.4142 21.7499 21.75 21.4141 21.75 20.9999C21.75 20.5857 21.4142 20.2499 21 20.2499V21.7499ZM6.22984 12.2235L9.7577 10.4596L9.08688 9.11794L5.55902 10.8819L6.22984 12.2235ZM9.7577 5.54023L6.22984 3.7763L5.55902 5.11794L9.08688 6.88187L9.7577 5.54023ZM9.7577 10.4596C11.7846 9.44614 11.7846 6.55367 9.7577 5.54023L9.08688 6.88187C10.0082 7.34252 10.0082 8.65728 9.08688 9.11794L9.7577 10.4596ZM5.55902 10.8819C4.72789 11.2975 3.75 10.6931 3.75 9.76383H2.25C2.25 11.8082 4.40136 13.1378 6.22984 12.2235L5.55902 10.8819ZM6.22984 3.7763C4.40136 2.86206 2.25 4.19167 2.25 6.23597H3.75C3.75 5.30674 4.72789 4.70237 5.55902 5.11794L6.22984 3.7763ZM14 6.7499H21V5.2499H14V6.7499ZM14 11.7499H21V10.2499H14V11.7499ZM3 16.7499H21V15.2499H3V16.7499ZM3 21.7499H21V20.2499H3V21.7499ZM2.25 6.23597V9.76383H3.75V6.23597H2.25Z" fill="#344054"/>
</svg>
