<svg width="24" height="24" viewBox="0 0 24 24" fill="none" xmlns="http://www.w3.org/2000/svg">
<path d="M15.558 1.73308C15.4104 1.34603 14.9771 1.15186 14.59 1.29939C14.203 1.44692 14.0088 1.88029 14.1563 2.26734L15.558 1.73308ZM8.44204 22.2673C8.58958 22.6544 9.02294 22.8485 9.40999 22.701C9.79704 22.5535 9.9912 22.1201 9.84367 21.7331L8.44204 22.2673ZM16.0352 5.09097L15.6564 5.73825C15.931 5.89898 16.2771 5.86893 16.52 5.66329C16.7628 5.45765 16.8494 5.12117 16.7361 4.82384L16.0352 5.09097ZM7.96473 18.9094L8.34358 18.2621C8.06897 18.1014 7.72282 18.1315 7.48001 18.3371C7.2372 18.5427 7.15058 18.8792 7.26392 19.1766L7.96473 18.9094ZM4.42105 16.3757C4.62846 16.7343 5.08726 16.8568 5.4458 16.6494C5.80435 16.442 5.92687 15.9832 5.71946 15.6247L4.42105 16.3757ZM19.5789 7.62467C19.3715 7.26612 18.9127 7.1436 18.5542 7.35101C18.1957 7.55841 18.0731 8.01721 18.2805 8.37575L19.5789 7.62467ZM19.25 12.0002C19.25 16.0043 16.0041 19.2502 12 19.2502V20.7502C16.8325 20.7502 20.75 16.8327 20.75 12.0002H19.25ZM4.75 12.0002C4.75 7.99615 7.99594 4.75021 12 4.75021V3.25021C7.16751 3.25021 3.25 7.16772 3.25 12.0002H4.75ZM12 4.75021C13.335 4.75021 14.5836 5.11033 15.6564 5.73825L16.4141 4.44369C15.1177 3.6849 13.6085 3.25021 12 3.25021V4.75021ZM16.7361 4.82384L15.558 1.73308L14.1563 2.26734L15.3344 5.3581L16.7361 4.82384ZM12 19.2502C10.665 19.2502 9.41641 18.8901 8.34358 18.2621L7.58588 19.5567C8.88231 20.3155 10.3915 20.7502 12 20.7502V19.2502ZM7.26392 19.1766L8.44204 22.2673L9.84367 21.7331L8.66554 18.6423L7.26392 19.1766ZM5.71946 15.6247C5.10304 14.559 4.75 13.322 4.75 12.0002H3.25C3.25 13.5927 3.67612 15.088 4.42105 16.3757L5.71946 15.6247ZM18.2805 8.37575C18.897 9.44137 19.25 10.6784 19.25 12.0002H20.75C20.75 10.4077 20.3239 8.91244 19.5789 7.62467L18.2805 8.37575Z" fill="#344054"/>
</svg>
