<svg width="24" height="24" viewBox="0 0 24 24" fill="none" xmlns="http://www.w3.org/2000/svg">
<path d="M16.7724 8.28722C17.0653 7.99432 17.0653 7.51945 16.7724 7.22656C16.4795 6.93366 16.0047 6.93366 15.7118 7.22656L16.7724 8.28722ZM7.2265 15.7118C6.93361 16.0047 6.93361 16.4796 7.2265 16.7725C7.5194 17.0654 7.99427 17.0654 8.28716 16.7725L7.2265 15.7118ZM15.7118 16.7724C16.0047 17.0653 16.4795 17.0653 16.7724 16.7724C17.0653 16.4795 17.0653 16.0047 16.7724 15.7118L15.7118 16.7724ZM8.28716 7.2265C7.99427 6.93361 7.5194 6.93361 7.2265 7.2265C6.93361 7.5194 6.93361 7.99427 7.2265 8.28716L8.28716 7.2265ZM15.7118 7.22656L7.2265 15.7118L8.28716 16.7725L16.7724 8.28722L15.7118 7.22656ZM16.7724 15.7118L8.28716 7.2265L7.2265 8.28716L15.7118 16.7724L16.7724 15.7118Z" fill="#344054"/>
</svg>
