<svg width="24" height="24" viewBox="0 0 24 24" fill="none" xmlns="http://www.w3.org/2000/svg">
<path d="M13 8.99983V9.74983C13.4142 9.74983 13.75 9.41404 13.75 8.99983H13ZM13 14.9998H13.75C13.75 14.5856 13.4142 14.2498 13 14.2498V14.9998ZM13 8.24983H5V9.74983H13V8.24983ZM2.25 10.9998V12.9998H3.75V10.9998H2.25ZM5 15.7498H13V14.2498H5V15.7498ZM12.25 14.9998V16.796H13.75V14.9998H12.25ZM15.1524 18.113L19.7737 14.0694L18.7859 12.9405L14.1646 16.9842L15.1524 18.113ZM19.7737 9.93024L15.1524 5.88659L14.1646 7.01545L18.7859 11.0591L19.7737 9.93024ZM12.25 7.2036V8.99983H13.75V7.2036H12.25ZM19.7737 14.0694C21.0259 12.9738 21.0259 11.0258 19.7737 9.93024L18.7859 11.0591C19.3551 11.5571 19.3551 12.4425 18.7859 12.9405L19.7737 14.0694ZM12.25 16.796C12.25 18.2996 14.0209 19.1031 15.1524 18.113L14.1646 16.9842C14.003 17.1256 13.75 17.0108 13.75 16.796H12.25ZM2.25 12.9998C2.25 14.5186 3.48122 15.7498 5 15.7498V14.2498C4.30964 14.2498 3.75 13.6902 3.75 12.9998H2.25ZM15.1524 5.88659C14.0209 4.89651 12.25 5.70007 12.25 7.2036H13.75C13.75 6.98881 14.003 6.87401 14.1646 7.01545L15.1524 5.88659ZM5 8.24983C3.48122 8.24983 2.25 9.48105 2.25 10.9998H3.75C3.75 10.3094 4.30964 9.74983 5 9.74983V8.24983Z" fill="#344054"/>
</svg>
