<svg width="24" height="24" viewBox="0 0 24 24" fill="none" xmlns="http://www.w3.org/2000/svg">
<path d="M12 16V17" stroke="#344054" stroke-width="1.5" stroke-linecap="round"/>
<path d="M12 11.5V12.5" stroke="#344054" stroke-width="1.5" stroke-linecap="round"/>
<path d="M12 7V8" stroke="#344054" stroke-width="1.5" stroke-linecap="round"/>
<path d="M11.1678 4.75C11.582 4.75 11.9178 4.41421 11.9178 4C11.9178 3.58579 11.582 3.25 11.1678 3.25V4.75ZM21.4109 13.6256C21.2655 13.2378 20.8331 13.0413 20.4453 13.1867C20.0575 13.3322 19.861 13.7645 20.0064 14.1523L21.4109 13.6256ZM20.1143 19.25H3.88628V20.75H20.1143V19.25ZM2.71587 17.5611L7.21587 5.56109L5.81137 5.03441L1.31137 17.0344L2.71587 17.5611ZM3.88628 19.25C3.01352 19.25 2.40942 18.3783 2.71587 17.5611L1.31137 17.0344C0.637192 18.8322 1.96621 20.75 3.88628 20.75V19.25ZM21.2847 17.5611C21.5911 18.3783 20.987 19.25 20.1143 19.25V20.75C22.0343 20.75 23.3634 18.8322 22.6892 17.0344L21.2847 17.5611ZM8.38628 3.25C7.23995 3.25 6.21387 3.96107 5.81137 5.03441L7.21587 5.56109C7.39882 5.07322 7.86522 4.75 8.38628 4.75V3.25ZM8.38628 4.75H11.1678V3.25H8.38628V4.75ZM20.0064 14.1523L21.2847 17.5611L22.6892 17.0344L21.4109 13.6256L20.0064 14.1523Z" fill="#344054"/>
<path d="M18.6742 6.31303C18.6742 6.65812 18.3945 6.93788 18.0494 6.93788V8.43788C19.2229 8.43788 20.1742 7.48655 20.1742 6.31303H18.6742ZM18.0494 6.93788C17.7043 6.93788 17.4245 6.65812 17.4245 6.31303H15.9245C15.9245 7.48655 16.8758 8.43788 18.0494 8.43788V6.93788ZM17.4245 6.31303C17.4245 5.96793 17.7043 5.68818 18.0494 5.68818V4.18818C16.8758 4.18818 15.9245 5.13951 15.9245 6.31303H17.4245ZM18.0494 5.68818C18.3945 5.68818 18.6742 5.96793 18.6742 6.31303H20.1742C20.1742 5.13951 19.2229 4.18818 18.0494 4.18818V5.68818ZM21.4239 6.31302C21.4239 7.2023 20.8581 8.41247 20.0382 9.45265C19.6399 9.95789 19.2128 10.3824 18.8245 10.673C18.4066 10.9857 18.142 11.0624 18.0494 11.0624V12.5624C18.6442 12.5624 19.2388 12.2364 19.7232 11.8739C20.2371 11.4893 20.7552 10.9661 21.2162 10.3812C22.1148 9.24119 22.9239 7.70167 22.9239 6.31302H21.4239ZM18.0494 11.0624C17.9567 11.0624 17.6921 10.9857 17.2743 10.673C16.8859 10.3824 16.4588 9.95789 16.0605 9.45265C15.2406 8.41247 14.6748 7.2023 14.6748 6.31302H13.1748C13.1748 7.70167 13.9839 9.24119 14.8825 10.3812C15.3435 10.9661 15.8616 11.4893 16.3755 11.8739C16.8599 12.2364 17.4545 12.5624 18.0494 12.5624V11.0624ZM14.6748 6.31302C14.6748 4.44931 16.1856 2.93848 18.0494 2.93848V1.43848C15.3572 1.43848 13.1748 3.62089 13.1748 6.31302H14.6748ZM18.0494 2.93848C19.9131 2.93848 21.4239 4.44931 21.4239 6.31302H22.9239C22.9239 3.62089 20.7415 1.43848 18.0494 1.43848V2.93848Z" fill="#344054"/>
</svg>
