<svg width="24" height="24" viewBox="0 0 24 24" fill="none" xmlns="http://www.w3.org/2000/svg">
<path d="M12 6C13.1046 6 14 5.10457 14 4C14 2.89543 13.1046 2 12 2C10.8954 2 10 2.89543 10 4C10 5.10457 10.8954 6 12 6Z" stroke="#344054" stroke-width="1.5"/>
<path d="M11.25 12C11.25 12.4142 11.5858 12.75 12 12.75C12.4142 12.75 12.75 12.4142 12.75 12H11.25ZM12.75 6C12.75 5.58579 12.4142 5.25 12 5.25C11.5858 5.25 11.25 5.58579 11.25 6H12.75ZM12.75 12V6H11.25V12H12.75Z" fill="#344054"/>
<path d="M18 8H6C3.79086 8 2 9.79086 2 12V18C2 20.2091 3.79086 22 6 22H18C20.2091 22 22 20.2091 22 18V12C22 9.79086 20.2091 8 18 8Z" stroke="#344054" stroke-width="1.5" stroke-linejoin="round"/>
<path d="M12.5 15H11.5" stroke="#344054" stroke-width="1.5" stroke-linecap="round"/>
<path d="M17 15H16" stroke="#344054" stroke-width="1.5" stroke-linecap="round"/>
<path d="M8 15H7" stroke="#344054" stroke-width="1.5" stroke-linecap="round"/>
</svg>
