<svg width="24" height="24" viewBox="0 0 24 24" fill="none" xmlns="http://www.w3.org/2000/svg">
<path d="M15 22.0003V22.7503H15.75V22.0003H15ZM9 22.0003H8.25V22.7503H9V22.0003ZM14.25 18.0003V22.0003H15.75V18.0003H14.25ZM15 21.2503H9V22.7503H15V21.2503ZM9.75 22.0003V18.0003H8.25V22.0003H9.75ZM12 15.7503C13.2426 15.7503 14.25 16.7576 14.25 18.0003H15.75C15.75 15.9292 14.0711 14.2503 12 14.2503V15.7503ZM12 14.2503C9.92893 14.2503 8.25 15.9292 8.25 18.0003H9.75C9.75 16.7576 10.7574 15.7503 12 15.7503V14.2503ZM21.25 8.00028V20.0003H22.75V8.00028H21.25ZM20 21.2503H4V22.7503H20V21.2503ZM2.75 20.0003V8.00028H1.25V20.0003H2.75ZM12.7809 3.58544L15.9837 6.14766L16.9207 4.97636L13.7179 2.41414L12.7809 3.58544ZM17.7016 6.75028H20V5.25028H17.7016V6.75028ZM4 6.75028H6.29844V5.25028H4V6.75028ZM8.01635 6.14766L11.2191 3.58544L10.2821 2.41414L7.07931 4.97636L8.01635 6.14766ZM6.29844 6.75028C6.92288 6.75028 7.52874 6.53775 8.01635 6.14766L7.07931 4.97636C6.85767 5.15367 6.58228 5.25028 6.29844 5.25028V6.75028ZM15.9837 6.14766C16.4713 6.53775 17.0771 6.75028 17.7016 6.75028V5.25028C17.4177 5.25028 17.1423 5.15367 16.9207 4.97636L15.9837 6.14766ZM13.7179 2.41414C12.7136 1.61065 11.2864 1.61066 10.2821 2.41414L11.2191 3.58544C11.6757 3.22022 12.3243 3.22022 12.7809 3.58544L13.7179 2.41414ZM4 21.2503C3.30964 21.2503 2.75 20.6906 2.75 20.0003H1.25C1.25 21.5191 2.48122 22.7503 4 22.7503V21.2503ZM21.25 20.0003C21.25 20.6906 20.6904 21.2503 20 21.2503V22.7503C21.5188 22.7503 22.75 21.5191 22.75 20.0003H21.25ZM22.75 8.00028C22.75 6.48149 21.5188 5.25028 20 5.25028V6.75028C20.6904 6.75028 21.25 7.30992 21.25 8.00028H22.75ZM2.75 8.00028C2.75 7.30992 3.30964 6.75028 4 6.75028V5.25028C2.48122 5.25028 1.25 6.48149 1.25 8.00028H2.75ZM14.75 10.0003C14.75 8.48149 13.5188 7.25028 12 7.25028V8.75028C12.6904 8.75028 13.25 9.30992 13.25 10.0003H14.75ZM12 7.25028C10.4812 7.25028 9.25 8.48149 9.25 10.0003H10.75C10.75 9.30992 11.3096 8.75028 12 8.75028V7.25028ZM9.25 10.0003C9.25 11.5191 10.4812 12.7503 12 12.7503V11.2503C11.3096 11.2503 10.75 10.6906 10.75 10.0003H9.25ZM12 12.7503C13.5188 12.7503 14.75 11.5191 14.75 10.0003H13.25C13.25 10.6906 12.6904 11.2503 12 11.2503V12.7503Z" fill="#344054"/>
</svg>
