<svg width="24" height="24" viewBox="0 0 24 24" fill="none" xmlns="http://www.w3.org/2000/svg">
<path d="M15 7H9C7.89543 7 7 7.89543 7 9V15C7 16.1046 7.89543 17 9 17H15C16.1046 17 17 16.1046 17 15V9C17 7.89543 16.1046 7 15 7Z" stroke="#344054" stroke-width="1.5"/>
<path d="M9 3.75C9.41421 3.75 9.75 3.41421 9.75 3C9.75 2.58579 9.41421 2.25 9 2.25V3.75ZM2.25 9C2.25 9.41421 2.58579 9.75 3 9.75C3.41421 9.75 3.75 9.41421 3.75 9H2.25ZM5 3.75H9V2.25H5V3.75ZM3.75 9V5H2.25V9H3.75ZM5 2.25C3.48122 2.25 2.25 3.48122 2.25 5H3.75C3.75 4.30964 4.30964 3.75 5 3.75V2.25Z" fill="#344054"/>
<path d="M15 20.25C14.5858 20.25 14.25 20.5858 14.25 21C14.25 21.4142 14.5858 21.75 15 21.75V20.25ZM21.75 15C21.75 14.5858 21.4142 14.25 21 14.25C20.5858 14.25 20.25 14.5858 20.25 15H21.75ZM19 20.25H15V21.75H19V20.25ZM20.25 15V19H21.75V15H20.25ZM19 21.75C20.5188 21.75 21.75 20.5188 21.75 19H20.25C20.25 19.6904 19.6904 20.25 19 20.25V21.75Z" fill="#344054"/>
</svg>
