<svg width="24" height="24" viewBox="0 0 24 24" fill="none" xmlns="http://www.w3.org/2000/svg">
<path d="M4.61067 3.75H19.3891V2.25H4.61067V3.75ZM20.8598 6.63113L10.5529 19.5467L11.7253 20.4824L22.0322 7.56675L20.8598 6.63113ZM7.22646 18.4553V12.247H5.72646V18.4553H7.22646ZM6.32995 10.0087L3.24046 6.74661L2.15139 7.77807L5.24087 11.0401L6.32995 10.0087ZM7.22646 12.247C7.22646 11.4142 6.90443 10.6152 6.32995 10.0087L5.24087 11.0401C5.55503 11.3718 5.72646 11.803 5.72646 12.247H7.22646ZM10.5529 19.5467C9.44557 20.9344 7.22646 20.1217 7.22646 18.4553H5.72646C5.72646 21.6253 9.78618 22.9123 11.7253 20.4824L10.5529 19.5467ZM4.61067 2.25C1.7211 2.25 0.130234 5.64402 2.15139 7.77807L3.24046 6.74661C2.18003 5.62694 2.95702 3.75 4.61067 3.75V2.25ZM19.3891 3.75C20.9671 3.75 21.7754 5.48366 20.8598 6.63113L22.0322 7.56675C23.779 5.37776 22.1478 2.25 19.3891 2.25V3.75Z" fill="#344054"/>
</svg>
