<svg width="24" height="24" viewBox="0 0 24 24" fill="none" xmlns="http://www.w3.org/2000/svg">
<path d="M8.5 11.2498C8.08579 11.2498 7.75 11.5856 7.75 11.9998C7.75 12.414 8.08579 12.7498 8.5 12.7498V11.2498ZM12 12.7498C12.4142 12.7498 12.75 12.414 12.75 11.9998C12.75 11.5856 12.4142 11.2498 12 11.2498V12.7498ZM2 9.24981C1.58579 9.24981 1.25 9.5856 1.25 9.99981C1.25 10.414 1.58579 10.7498 2 10.7498V9.24981ZM4 10.7498C4.41421 10.7498 4.75 10.414 4.75 9.99981C4.75 9.5856 4.41421 9.24981 4 9.24981V10.7498ZM2 13.2498C1.58579 13.2498 1.25 13.5856 1.25 13.9998C1.25 14.414 1.58579 14.7498 2 14.7498V13.2498ZM4 14.7498C4.41421 14.7498 4.75 14.414 4.75 13.9998C4.75 13.5856 4.41421 13.2498 4 13.2498V14.7498ZM9.11828 4.93105L20.3489 10.5429L21.0194 9.20117L9.78877 3.58925L9.11828 4.93105ZM20.3489 13.4567L9.11827 19.0686L9.78877 20.4104L21.0194 14.7985L20.3489 13.4567ZM6.89911 16.9503L8.53547 13.2707L7.16489 12.6612L5.52853 16.3408L6.89911 16.9503ZM8.53547 10.7289L6.89911 7.04931L5.52853 7.65882L7.16489 11.3384L8.53547 10.7289ZM8.53547 13.2707C8.8953 12.4616 8.8953 11.538 8.53547 10.7289L7.16489 11.3384C7.35216 11.7595 7.35216 12.2401 7.16489 12.6612L8.53547 13.2707ZM9.11827 19.0686C7.74883 19.7529 6.27867 18.3454 6.89911 16.9503L5.52853 16.3408C4.33497 19.0247 7.16331 21.7223 9.78877 20.4104L9.11827 19.0686ZM20.3489 10.5429C21.5504 11.1433 21.5504 12.8563 20.3489 13.4567L21.0194 14.7985C23.3269 13.6454 23.3269 10.3542 21.0194 9.20117L20.3489 10.5429ZM9.78877 3.58925C7.16331 2.27731 4.33496 4.97494 5.52853 7.65882L6.89911 7.04931C6.27867 5.65418 7.74883 4.24674 9.11828 4.93105L9.78877 3.58925ZM8.5 12.7498H12V11.2498H8.5V12.7498ZM2 10.7498H4V9.24981H2V10.7498ZM2 14.7498H4V13.2498H2V14.7498Z" fill="#344054"/>
</svg>
