<svg width="24" height="24" viewBox="0 0 24 24" fill="none" xmlns="http://www.w3.org/2000/svg">
<path d="M11.0455 3.75H12.9545V2.25H11.0455V3.75ZM12.9545 20.25H11.0455V21.75H12.9545V20.25ZM11.0455 20.25C10.3631 20.25 9.88633 19.7389 9.88633 19.2H8.38633C8.38633 20.6493 9.61905 21.75 11.0455 21.75V20.25ZM14.1136 19.2C14.1136 19.7389 13.6369 20.25 12.9545 20.25V21.75C14.3809 21.75 15.6136 20.6493 15.6136 19.2H14.1136ZM12.9545 3.75C13.6369 3.75 14.1136 4.26107 14.1136 4.8H15.6136C15.6136 3.35071 14.3809 2.25 12.9545 2.25V3.75ZM11.0455 2.25C9.61905 2.25 8.38633 3.35071 8.38633 4.8H9.88633C9.88633 4.26107 10.3631 3.75 11.0455 3.75V2.25ZM20.1043 15.3289L19.1498 16.8878L20.429 17.6711L21.3835 16.1122L20.1043 15.3289ZM3.89569 8.67108L4.85023 7.11223L3.57102 6.32891L2.61647 7.88775L3.89569 8.67108ZM4.85023 7.11223C5.15887 6.6082 5.88054 6.40506 6.45992 6.72045L7.17709 5.403C5.93026 4.72428 4.31675 5.11109 3.57102 6.32891L4.85023 7.11223ZM4.31344 10.0795C3.75745 9.77688 3.60429 9.14696 3.89569 8.67108L2.61647 7.88775C1.85351 9.13373 2.32605 10.7055 3.59628 11.397L4.31344 10.0795ZM19.1498 16.8878C18.8411 17.3918 18.1195 17.5949 17.5401 17.2795L16.8229 18.597C18.0697 19.2757 19.6832 18.8889 20.429 17.6711L19.1498 16.8878ZM21.3835 16.1122C22.1465 14.8663 21.6739 13.2945 20.4037 12.603L19.6866 13.9204C20.2425 14.223 20.3957 14.853 20.1043 15.3289L21.3835 16.1122ZM4.85023 16.8878L3.89569 15.3289L2.61647 16.1122L3.57102 17.6711L4.85023 16.8878ZM19.1498 7.11225L20.1043 8.67109L21.3835 7.88777L20.429 6.32892L19.1498 7.11225ZM20.1043 8.67109C20.3957 9.14697 20.2425 9.77689 19.6866 10.0795L20.4037 11.397C21.6739 10.7055 22.1465 9.13374 21.3835 7.88777L20.1043 8.67109ZM17.5401 6.72046C18.1195 6.40507 18.8411 6.60822 19.1498 7.11225L20.429 6.32892C19.6832 5.1111 18.0697 4.72429 16.8229 5.40301L17.5401 6.72046ZM3.89569 15.3289C3.60429 14.853 3.75745 14.2231 4.31344 13.9205L3.59628 12.603C2.32605 13.2945 1.85351 14.8663 2.61647 16.1122L3.89569 15.3289ZM3.57102 17.6711C4.31674 18.8889 5.93026 19.2757 7.17709 18.597L6.45993 17.2795C5.88055 17.5949 5.15887 17.3918 4.85023 16.8878L3.57102 17.6711ZM17.4386 6.7757L17.5401 6.72046L16.8229 5.40301L16.7214 5.45825L17.4386 6.7757ZM6.45992 6.72045L6.56141 6.77569L7.27857 5.45824L7.17709 5.403L6.45992 6.72045ZM17.5401 17.2795L17.4386 17.2243L16.7214 18.5417L16.8229 18.597L17.5401 17.2795ZM6.56141 17.2243L6.45993 17.2795L7.17709 18.597L7.27857 18.5418L6.56141 17.2243ZM3.59628 11.397C4.07403 11.6571 4.07403 12.3429 3.59628 12.603L4.31344 13.9205C5.83497 13.0922 5.83497 10.9078 4.31344 10.0795L3.59628 11.397ZM7.27857 18.5418C7.77797 18.2699 8.38633 18.6314 8.38633 19.2H9.88633C9.88633 17.4934 8.06034 16.4084 6.56141 17.2243L7.27857 18.5418ZM15.6136 19.2C15.6136 18.6314 16.222 18.2699 16.7214 18.5417L17.4386 17.2243C15.9397 16.4083 14.1136 17.4934 14.1136 19.2H15.6136ZM20.4037 12.603C19.926 12.3429 19.926 11.6571 20.4037 11.397L19.6866 10.0795C18.165 10.9078 18.165 13.0922 19.6866 13.9204L20.4037 12.603ZM6.56141 6.77569C8.06034 7.59165 9.88633 6.50663 9.88633 4.8H8.38633C8.38633 5.3686 7.77797 5.7301 7.27857 5.45824L6.56141 6.77569ZM16.7214 5.45825C16.222 5.73011 15.6136 5.36861 15.6136 4.8H14.1136C14.1136 6.50663 15.9397 7.59166 17.4386 6.7757L16.7214 5.45825ZM14.25 12C14.25 13.2426 13.2426 14.25 12 14.25V15.75C14.0711 15.75 15.75 14.0711 15.75 12H14.25ZM12 14.25C10.7574 14.25 9.74999 13.2426 9.74999 12H8.24999C8.24999 14.0711 9.92893 15.75 12 15.75V14.25ZM9.74999 12C9.74999 10.7574 10.7574 9.75 12 9.75V8.25C9.92893 8.25 8.24999 9.92893 8.24999 12H9.74999ZM12 9.75C13.2426 9.75 14.25 10.7574 14.25 12H15.75C15.75 9.92893 14.0711 8.25 12 8.25V9.75Z" fill="#344054"/>
</svg>
