<svg width="24" height="24" viewBox="0 0 24 24" fill="none" xmlns="http://www.w3.org/2000/svg">
<path d="M5.68187 5.62833L10.6797 3.40707L10.0705 2.03635L5.07266 4.25761L5.68187 5.62833ZM13.3196 3.40707L18.2976 5.61952L18.9068 4.2488L13.9288 2.03635L13.3196 3.40707ZM2.32091 8.64721C2.50439 11.7972 3.0615 14.1518 4.22864 16.1421C5.39453 18.1302 7.12585 19.6802 9.51498 21.2977L10.3559 20.0556C8.04691 18.4924 6.52515 17.093 5.52257 15.3833C4.52125 13.6758 3.99452 11.5842 3.81837 8.55999L2.32091 8.64721ZM14.4855 21.2979C16.8849 19.6696 18.6027 18.105 19.7571 16.1149C20.9119 14.1243 21.4605 11.7816 21.6599 8.67301L20.163 8.57696C19.9712 11.5661 19.4525 13.6507 18.4596 15.3623C17.4665 17.0744 15.9563 18.487 13.6432 20.0567L14.4855 21.2979ZM9.51498 21.2977C11.0128 22.3117 12.9868 22.315 14.4855 21.2979L13.6432 20.0567C12.6545 20.7276 11.3474 20.7268 10.3559 20.0556L9.51498 21.2977ZM10.6797 3.40707C11.5201 3.03359 12.4793 3.03359 13.3196 3.40707L13.9288 2.03635C12.7007 1.49049 11.2987 1.49049 10.0705 2.03635L10.6797 3.40707ZM18.2976 5.61952C19.4904 6.14966 20.2433 7.32587 20.163 8.57696L21.6599 8.67301C21.7837 6.74464 20.6254 5.01262 18.9068 4.2488L18.2976 5.61952ZM5.07266 4.25761C3.36631 5.01598 2.20924 6.73008 2.32091 8.64721L3.81837 8.55999C3.74606 7.31854 4.49697 6.15495 5.68187 5.62833L5.07266 4.25761ZM14.2497 11.9997C14.2497 13.2423 13.2423 14.2497 11.9997 14.2497V15.7497C14.0707 15.7497 15.7497 14.0708 15.7497 11.9997H14.2497ZM11.9997 14.2497C10.757 14.2497 9.74964 13.2423 9.74964 11.9997H8.24964C8.24964 14.0708 9.92857 15.7497 11.9997 15.7497V14.2497ZM9.74964 11.9997C9.74964 10.757 10.757 9.74969 11.9997 9.74969V8.24969C9.92857 8.24969 8.24964 9.92862 8.24964 11.9997H9.74964ZM11.9997 9.74969C13.2423 9.74969 14.2497 10.757 14.2497 11.9997H15.7497C15.7497 9.92862 14.0707 8.24969 11.9997 8.24969V9.74969Z" fill="#344054"/>
</svg>
