<svg width="24" height="24" viewBox="0 0 24 24" fill="none" xmlns="http://www.w3.org/2000/svg">
<path d="M9.46855 11.4143C9.1451 11.1556 8.67314 11.208 8.41438 11.5315C8.15562 11.8549 8.20806 12.3269 8.53151 12.5857L9.46855 11.4143ZM15.5644 10.4939C15.8372 10.1822 15.8056 9.70834 15.4939 9.43558C15.1822 9.16282 14.7083 9.1944 14.4356 9.50613L15.5644 10.4939ZM8.53151 12.5857L10.2843 13.9879L11.2213 12.8166L9.46855 11.4143L8.53151 12.5857ZM12.6945 13.7738L15.5644 10.4939L14.4356 9.50613L11.5657 12.786L12.6945 13.7738ZM10.2843 13.9879C11.0156 14.5729 12.0778 14.4786 12.6945 13.7738L11.5657 12.786C11.4776 12.8867 11.3258 12.9002 11.2213 12.8166L10.2843 13.9879Z" fill="#344054"/>
<path d="M10.375 2.72171L5.37721 4.94297C3.93159 5.58547 2.9776 7.02431 3.06959 8.6036C3.42922 14.7778 5.23727 17.496 9.93539 20.6767C11.18 21.5193 12.8206 21.5213 14.0642 20.6774C18.7768 17.4794 20.5202 14.7228 20.9114 8.62499C21.0134 7.03526 20.0579 5.58114 18.6022 4.93416L13.6242 2.72171C12.5899 2.26204 11.4093 2.26204 10.375 2.72171Z" stroke="#344054" stroke-width="1.5" stroke-linejoin="round"/>
</svg>
