<svg width="24" height="24" viewBox="0 0 24 24" fill="none" xmlns="http://www.w3.org/2000/svg">
<path d="M2.58692 9.25C2.1727 9.25 1.83692 9.58579 1.83692 10C1.83692 10.4142 2.1727 10.75 2.58692 10.75V9.25ZM21.4133 10.75C21.8275 10.75 22.1633 10.4142 22.1633 10C22.1633 9.58579 21.8275 9.25 21.4133 9.25V10.75ZM16.4003 21.25H7.59987V22.75H16.4003V21.25ZM4.45294 18.6578L2.81802 10.6578L1.3484 10.9582L2.98332 18.9582L4.45294 18.6578ZM5.96495 6.75H18.0352V5.25H5.96495V6.75ZM21.1822 10.6578L19.5473 18.6578L21.0169 18.9582L22.6518 10.9582L21.1822 10.6578ZM2.58692 10.75H21.4133V9.25H2.58692V10.75ZM18.0352 6.75C20.063 6.75 21.596 8.63265 21.1822 10.6578L22.6518 10.9582C23.2523 8.01983 21.0292 5.25 18.0352 5.25V6.75ZM2.81802 10.6578C2.40415 8.63265 3.93721 6.75 5.96495 6.75V5.25C2.97104 5.25 0.74791 8.01983 1.3484 10.9582L2.81802 10.6578ZM7.59987 21.25C6.08047 21.25 4.76236 20.1719 4.45294 18.6578L2.98332 18.9582C3.43356 21.1613 5.35855 22.75 7.59987 22.75V21.25ZM16.4003 22.75C18.6417 22.75 20.5666 21.1613 21.0169 18.9582L19.5473 18.6578C19.2378 20.1719 17.9197 21.25 16.4003 21.25V22.75Z" fill="#344054"/>
<path d="M9.60004 2.45004C9.84857 2.11867 9.78141 1.64857 9.45004 1.40004C9.11867 1.15151 8.64857 1.21867 8.40004 1.55004L9.60004 2.45004ZM5.40004 5.55005C5.15151 5.88141 5.21867 6.35151 5.55004 6.60004C5.88141 6.84857 6.35151 6.78141 6.60004 6.45004L5.40004 5.55005ZM8.40004 1.55004L5.40004 5.55005L6.60004 6.45004L9.60004 2.45004L8.40004 1.55004Z" fill="#344054"/>
<path d="M15.6 1.55004C15.3515 1.21867 14.8814 1.15151 14.55 1.40004C14.2186 1.64857 14.1515 2.11867 14.4 2.45004L15.6 1.55004ZM17.4 6.45004C17.6485 6.78141 18.1186 6.84857 18.45 6.60004C18.7814 6.35151 18.8485 5.88141 18.6 5.55005L17.4 6.45004ZM14.4 2.45004L17.4 6.45004L18.6 5.55005L15.6 1.55004L14.4 2.45004Z" fill="#344054"/>
<path d="M9.75 14C9.75 13.5858 9.41421 13.25 9 13.25C8.58579 13.25 8.25 13.5858 8.25 14H9.75ZM8.25 18C8.25 18.4142 8.58579 18.75 9 18.75C9.41421 18.75 9.75 18.4142 9.75 18H8.25ZM8.25 14V18H9.75V14H8.25Z" fill="#344054"/>
<path d="M15.75 14C15.75 13.5858 15.4142 13.25 15 13.25C14.5858 13.25 14.25 13.5858 14.25 14H15.75ZM14.25 18C14.25 18.4142 14.5858 18.75 15 18.75C15.4142 18.75 15.75 18.4142 15.75 18H14.25ZM14.25 14V18H15.75V14H14.25Z" fill="#344054"/>
</svg>
