<svg width="24" height="24" viewBox="0 0 24 24" fill="none" xmlns="http://www.w3.org/2000/svg">
<path d="M9.75 6C9.75 5.58579 9.41421 5.25 9 5.25C8.58579 5.25 8.25 5.58579 8.25 6H9.75ZM15.75 6C15.75 5.58579 15.4142 5.25 15 5.25C14.5858 5.25 14.25 5.58579 14.25 6H15.75ZM9.75 7V6H8.25V7H9.75ZM14.25 6V7H15.75V6H14.25ZM12 9.25C10.7574 9.25 9.75 8.24264 9.75 7H8.25C8.25 9.07107 9.92893 10.75 12 10.75V9.25ZM12 10.75C14.0711 10.75 15.75 9.07107 15.75 7H14.25C14.25 8.24264 13.2426 9.25 12 9.25V10.75Z" fill="#344054"/>
<path d="M19.9269 13.1233C19.995 13.5319 20.3814 13.8079 20.79 13.7398C21.1985 13.6717 21.4746 13.2853 21.4065 12.8767L19.9269 13.1233ZM13 21.75C13.4142 21.75 13.75 21.4142 13.75 21C13.75 20.5858 13.4142 20.25 13 20.25V21.75ZM8.38855 3.75H15.6115V2.25H8.38855V3.75ZM3.70318 6.2191L2.03651 16.2191L3.51611 16.4657L5.18277 6.4657L3.70318 6.2191ZM18.8173 6.4657L19.9269 13.1233L21.4065 12.8767L20.2969 6.21911L18.8173 6.4657ZM13 20.25H6.72189V21.75H13V20.25ZM8.38855 2.25C6.06657 2.25 4.08491 3.92871 3.70318 6.2191L5.18277 6.4657C5.44396 4.89859 6.79983 3.75 8.38855 3.75V2.25ZM15.6115 3.75C17.2002 3.75 18.5561 4.89859 18.8173 6.4657L20.2969 6.21911C19.9151 3.92872 17.9335 2.25 15.6115 2.25V3.75ZM2.03651 16.2191C1.55397 19.1144 3.78667 21.75 6.72189 21.75V20.25C4.71358 20.25 3.18594 18.4467 3.51611 16.4657L2.03651 16.2191Z" fill="#344054"/>
<path d="M18.257 16.1816L17.7266 16.7119C17.8673 16.8525 18.0581 16.9316 18.257 16.9316C18.4559 16.9316 18.6467 16.8525 18.7873 16.7119L18.257 16.1816ZM18.7873 16.7119L19.0525 16.4467L17.9918 15.3861L17.7266 15.6512L18.7873 16.7119ZM17.4615 16.4467L17.7266 16.7119L18.7873 15.6512L18.5221 15.3861L17.4615 16.4467ZM14.8098 19.0984L16.666 20.9545L17.7266 19.8939L15.8705 18.0377L14.8098 19.0984ZM19.848 20.9545L21.7041 19.0984L20.6435 18.0377L18.7873 19.8939L19.848 20.9545ZM20.6435 16.4467C21.0828 16.8861 21.0828 17.5984 20.6435 18.0377L21.7041 19.0984C22.7292 18.0732 22.7292 16.4112 21.7041 15.3861L20.6435 16.4467ZM21.7041 15.3861C20.679 14.3609 19.0169 14.3609 17.9918 15.3861L19.0525 16.4467C19.4918 16.0074 20.2041 16.0074 20.6435 16.4467L21.7041 15.3861ZM15.8705 16.4467C16.3098 16.0074 17.0221 16.0074 17.4615 16.4467L18.5221 15.3861C17.497 14.3609 15.835 14.3609 14.8098 15.3861L15.8705 16.4467ZM16.666 20.9545C17.5447 21.8332 18.9693 21.8332 19.848 20.9545L18.7873 19.8939C18.4944 20.1868 18.0195 20.1868 17.7266 19.8939L16.666 20.9545ZM14.8098 15.3861C13.7847 16.4112 13.7847 18.0732 14.8098 19.0984L15.8705 18.0377C15.4311 17.5984 15.4311 16.8861 15.8705 16.4467L14.8098 15.3861Z" fill="#344054"/>
</svg>
