<svg width="24" height="24" viewBox="0 0 24 24" fill="none" xmlns="http://www.w3.org/2000/svg">
<path d="M16.3003 2.14496C15.9207 1.97912 15.4786 2.15238 15.3127 2.53194C15.1469 2.91151 15.3202 3.35365 15.6997 3.51949L16.3003 2.14496ZM8.30028 3.51949C8.67984 3.35365 8.8531 2.91151 8.68726 2.53194C8.52143 2.15238 8.07929 1.97912 7.69972 2.14496L8.30028 3.51949ZM21.25 12.0001C21.25 17.1088 17.1086 21.2501 12 21.2501V22.7501C17.9371 22.7501 22.75 17.9372 22.75 12.0001H21.25ZM12 21.2501C6.89137 21.2501 2.75 17.1088 2.75 12.0001H1.25C1.25 17.9372 6.06294 22.7501 12 22.7501V21.2501ZM15.6997 3.51949C18.9682 4.94755 21.25 8.20821 21.25 12.0001H22.75C22.75 7.59078 20.0954 3.80312 16.3003 2.14496L15.6997 3.51949ZM2.75 12.0001C2.75 8.20821 5.03179 4.94755 8.30028 3.51949L7.69972 2.14496C3.90459 3.80312 1.25 7.59078 1.25 12.0001H2.75Z" fill="#344054"/>
<path d="M12 2V6" stroke="#344054" stroke-width="1.5" stroke-linecap="round" stroke-linejoin="round"/>
</svg>
