<svg width="24" height="24" viewBox="0 0 24 24" fill="none" xmlns="http://www.w3.org/2000/svg">
<path d="M18 12V16" stroke="#344054" stroke-width="1.5" stroke-linecap="round"/>
<path d="M18 19V20" stroke="#344054" stroke-width="1.5" stroke-linecap="round"/>
<path d="M14.8557 20.7499C15.2699 20.7499 15.6057 20.4141 15.6057 19.9999C15.6057 19.5857 15.2699 19.2499 14.8557 19.2499V20.7499ZM20.2496 12.9371C20.2496 13.3514 20.5854 13.6871 20.9996 13.6871C21.4138 13.6871 21.7496 13.3514 21.7496 12.9371H20.2496ZM5.14782 20.7499H14.8557V19.2499H5.14782V20.7499ZM21.7496 12.9371V6.06672H20.2496V12.9371H21.7496ZM16.9306 3.96651L3.22269 15.8369L4.20462 16.9709L17.9125 5.10045L16.9306 3.96651ZM21.7496 6.06672C21.7496 3.58154 18.7526 2.38875 16.9306 3.96651L17.9125 5.10045C18.8498 4.28883 20.2496 4.98014 20.2496 6.06672H21.7496ZM5.14782 19.2499C3.81233 19.2499 3.31795 17.7387 4.20462 16.9709L3.22269 15.8369C1.18849 17.5985 2.55369 20.7499 5.14782 20.7499V19.2499Z" fill="#344054"/>
</svg>
