<svg width="24" height="24" viewBox="0 0 24 24" fill="none" xmlns="http://www.w3.org/2000/svg">
<path d="M22.7497 4C22.7497 3.58579 22.414 3.25 21.9997 3.25C21.5855 3.25 21.2497 3.58579 21.2497 4H22.7497ZM21.2497 20C21.2497 20.4142 21.5855 20.75 21.9997 20.75C22.414 20.75 22.7497 20.4142 22.7497 20H21.2497ZM18.7497 7C18.7497 6.58579 18.414 6.25 17.9997 6.25C17.5855 6.25 17.2497 6.58579 17.2497 7H18.7497ZM17.2497 20C17.2497 20.4142 17.5855 20.75 17.9997 20.75C18.414 20.75 18.7497 20.4142 18.7497 20H17.2497ZM14.7497 10C14.7497 9.58579 14.414 9.25 13.9997 9.25C13.5855 9.25 13.2497 9.58579 13.2497 10H14.7497ZM13.2497 20C13.2497 20.4142 13.5855 20.75 13.9997 20.75C14.414 20.75 14.7497 20.4142 14.7497 20H13.2497ZM10.7497 13C10.7497 12.5858 10.414 12.25 9.99978 12.25C9.58556 12.25 9.24978 12.5858 9.24978 13H10.7497ZM9.24978 20C9.24978 20.4142 9.58556 20.75 9.99978 20.75C10.414 20.75 10.7497 20.4142 10.7497 20H9.24978ZM5.24978 20C5.24978 20.4142 5.58556 20.75 5.99978 20.75C6.41399 20.75 6.74978 20.4142 6.74978 20H5.24978ZM21.2497 4V20H22.7497V4H21.2497ZM17.2497 7V20H18.7497V7H17.2497ZM13.2497 10V20H14.7497V10H13.2497ZM9.24978 13V20H10.7497V13H9.24978ZM5.24978 13V20H6.74978V13H5.24978ZM6.58543 12.5315L5.08421 10.655L3.91291 11.592L5.41413 13.4685L6.58543 12.5315ZM6.91535 10.655L5.41413 12.5315L6.58543 13.4685L8.08665 11.592L6.91535 10.655ZM5.99978 8.75C6.98293 8.75 7.52951 9.88724 6.91535 10.655L8.08665 11.592C9.48653 9.84214 8.24069 7.25 5.99978 7.25V8.75ZM5.08421 10.655C4.47004 9.88724 5.01663 8.75 5.99978 8.75V7.25C3.75887 7.25 2.51302 9.84214 3.91291 11.592L5.08421 10.655Z" fill="#344054"/>
</svg>
