<svg width="24" height="24" viewBox="0 0 24 24" fill="none" xmlns="http://www.w3.org/2000/svg">
<path d="M9.49985 12H5.41406C5.14885 12 4.89449 11.8946 4.70696 11.7071L2.70696 9.70711C2.31643 9.31658 2.31643 8.68342 2.70696 8.29289L4.70696 6.29289C4.89449 6.10536 5.14885 6 5.41406 6H9.49985C10.0522 6 10.4999 6.44772 10.4999 7V11C10.4999 11.5523 10.0522 12 9.49985 12Z" stroke="#344054" stroke-width="1.5" stroke-linecap="round" stroke-linejoin="round"/>
<path d="M14.5 12H18.5858C18.851 12 19.1054 12.1054 19.2929 12.2929L21.2929 14.2929C21.6834 14.6834 21.6834 15.3166 21.2929 15.7071L19.2929 17.7071C19.1054 17.8946 18.851 18 18.5858 18H14.5C13.9477 18 13.5 17.5523 13.5 17V13C13.5 12.4477 13.9477 12 14.5 12Z" stroke="#344054" stroke-width="1.5" stroke-linecap="round" stroke-linejoin="round"/>
<path d="M10.5 3C10.5 2.44772 10.9477 2 11.5 2H12.5C13.0523 2 13.5 2.44772 13.5 3V21C13.5 21.5523 13.0523 22 12.5 22H11.5C10.9477 22 10.5 21.5523 10.5 21V3Z" stroke="#344054" stroke-width="1.5"/>
</svg>
