<svg width="24" height="24" viewBox="0 0 24 24" fill="none" xmlns="http://www.w3.org/2000/svg">
<path d="M22 17V17.75C22.3228 17.75 22.6094 17.5434 22.7115 17.2372C22.8136 16.9309 22.7083 16.5937 22.45 16.4L22 17ZM2.00005 17L1.55005 16.4C1.29179 16.5937 1.18645 16.9309 1.28854 17.2372C1.39062 17.5434 1.67723 17.75 2.00005 17.75V17ZM6.00005 8.49999V9.24999C6.41426 9.24999 6.75005 8.9142 6.75005 8.49999H6.00005ZM6.00005 11.5H6.75005C6.75005 11.0858 6.41427 10.75 6.00005 10.75V11.5ZM18 8.49999H17.25C17.25 8.9142 17.5858 9.24999 18 9.24999V8.49999ZM18 11.5V10.75C17.5858 10.75 17.25 11.0858 17.25 11.5H18ZM20.1972 18.0855C20.3211 17.9453 20.4709 17.8613 20.7392 17.8105C21.0435 17.7528 21.4258 17.75 22 17.75V16.25C21.4721 16.25 20.9323 16.2472 20.46 16.3367C19.9516 16.433 19.47 16.6434 19.0735 17.0918L20.1972 18.0855ZM22.45 16.4L20.05 14.6L19.15 15.8L21.55 17.6L22.45 16.4ZM2.45005 17.6L4.85004 15.8L3.95004 14.6L1.55005 16.4L2.45005 17.6ZM17.4384 18.25H16.6667V19.75H17.4384V18.25ZM15.0167 18.8L13.95 19.6L14.85 20.8L15.9167 20L15.0167 18.8ZM10.05 19.6L8.98338 18.8L8.08338 20L9.15006 20.8L10.05 19.6ZM2.00005 17.75C2.57423 17.75 2.95653 17.7528 3.26086 17.8105C3.52914 17.8613 3.67892 17.9453 3.8029 18.0854L4.92655 17.0918C4.53 16.6433 4.04849 16.433 3.54008 16.3367C3.06772 16.2472 2.52795 16.25 2.00005 16.25V17.75ZM7.3334 18.25H6.5616L6.56159 19.75H7.33339L7.3334 18.25ZM6.75005 8.49999V8H5.25005V8.49999H6.75005ZM6.75005 12V11.5H5.25005V12H6.75005ZM5.50006 9.24999H6.00005V7.74999H5.50006V9.24999ZM6.00005 10.75H5.50005L5.50004 12.25H6.00004L6.00005 10.75ZM18.75 8.49999V8H17.25V8.49999H18.75ZM18.75 12V11.5H17.25V12H18.75ZM18.5 7.74999H18V9.24999H18.5V7.74999ZM18 12.25H18.5V10.75H18V12.25ZM18.5 12.25C19.7426 12.25 20.75 11.2426 20.75 9.99999H19.25C19.25 10.4142 18.9142 10.75 18.5 10.75V12.25ZM18.5 9.24999C18.9142 9.24999 19.25 9.58578 19.25 9.99999H20.75C20.75 8.75735 19.7426 7.74999 18.5 7.74999V9.24999ZM5.50005 10.75C5.08584 10.75 4.75005 10.4142 4.75005 9.99999H3.25005C3.25005 11.2426 4.2574 12.25 5.50004 12.25L5.50005 10.75ZM8.98338 18.8C8.50737 18.443 7.92841 18.25 7.3334 18.25L7.33339 19.75C7.60385 19.75 7.86701 19.8377 8.08338 20L8.98338 18.8ZM13.95 19.6C12.7944 20.4667 11.2056 20.4667 10.05 19.6L9.15006 20.8C10.8389 22.0667 13.1611 22.0667 14.85 20.8L13.95 19.6ZM16.6667 18.25C16.0716 18.25 15.4927 18.443 15.0167 18.8L15.9167 20C16.133 19.8377 16.3962 19.75 16.6667 19.75V18.25ZM3.8029 18.0854C4.10226 18.424 4.46958 18.8339 4.89911 19.1537C5.33968 19.4817 5.89088 19.75 6.56159 19.75L6.5616 18.25C6.31457 18.25 6.07132 18.1563 5.79488 17.9505C5.50739 17.7365 5.23514 17.4407 4.92655 17.0918L3.8029 18.0854ZM20.05 14.6C19.2316 13.9862 18.75 13.023 18.75 12H17.25C17.25 13.4951 17.9539 14.903 19.15 15.8L20.05 14.6ZM5.50006 7.74999C4.25741 7.74999 3.25005 8.75735 3.25005 9.99999H4.75005C4.75005 9.58578 5.08584 9.24999 5.50006 9.24999V7.74999ZM19.0735 17.0918C18.7649 17.4407 18.4927 17.7365 18.2052 17.9505C17.9287 18.1564 17.6855 18.25 17.4384 18.25V19.75C18.1092 19.75 18.6604 19.4817 19.1009 19.1537C19.5305 18.8339 19.8978 18.424 20.1972 18.0855L19.0735 17.0918ZM4.85004 15.8C6.04612 14.903 6.75005 13.4951 6.75005 12H5.25005C5.25005 13.023 4.76842 13.9862 3.95004 14.6L4.85004 15.8ZM12 2.75C14.8995 2.75 17.25 5.10051 17.25 8H18.75C18.75 4.27208 15.7279 1.25 12 1.25V2.75ZM12 1.25C8.27213 1.24999 5.25005 4.27207 5.25005 8H6.75005C6.75005 5.1005 9.10056 2.74999 12 2.75V1.25Z" fill="#344054"/>
</svg>
