<svg width="24" height="24" viewBox="0 0 24 24" fill="none" xmlns="http://www.w3.org/2000/svg">
<path d="M10.4587 3.46967C10.1658 3.17678 9.69095 3.17678 9.39806 3.46967C9.10517 3.76256 9.10517 4.23744 9.39806 4.53033L10.4587 3.46967ZM14.4587 4.53033C14.7516 4.23744 14.7516 3.76256 14.4587 3.46967C14.1658 3.17678 13.691 3.17678 13.3981 3.46967L14.4587 4.53033ZM9.39806 19.4697C9.10517 19.7626 9.10517 20.2374 9.39806 20.5303C9.69095 20.8232 10.1658 20.8232 10.4587 20.5303L9.39806 19.4697ZM13.3981 20.5303C13.691 20.8232 14.1658 20.8232 14.4587 20.5303C14.7516 20.2374 14.7516 19.7626 14.4587 19.4697L13.3981 20.5303ZM12.6784 6V5.25H11.1784V6H12.6784ZM11.1784 18V18.75H12.6784V18H11.1784ZM3.80607 9.00761C3.40597 9.11482 3.16854 9.52607 3.27574 9.92617C3.38295 10.3263 3.7942 10.5637 4.1943 10.4565L3.80607 9.00761ZM6.72463 6.07384C6.61742 5.67374 6.20617 5.4363 5.80607 5.54351C5.40597 5.65072 5.16853 6.06197 5.27574 6.46207L6.72463 6.07384ZM17.1322 17.9262C17.2394 18.3263 17.6506 18.5637 18.0507 18.4565C18.4508 18.3493 18.6883 17.938 18.5811 17.5379L17.1322 17.9262ZM20.0507 14.9924C20.4508 14.8852 20.6883 14.4739 20.5811 14.0738C20.4738 13.6737 20.0626 13.4363 19.6625 13.5435L20.0507 14.9924ZM7.10725 8.35048L6.45773 7.97548L5.70773 9.27452L6.35725 9.64952L7.10725 8.35048ZM16.7496 15.6495L17.3991 16.0245L18.1491 14.7255L17.4996 14.3505L16.7496 15.6495ZM18.5811 6.46206C18.6883 6.06196 18.4508 5.65071 18.0507 5.5435C17.6506 5.43629 17.2394 5.67373 17.1322 6.07383L18.5811 6.46206ZM19.6625 10.4565C20.0626 10.5637 20.4738 10.3263 20.5811 9.92616C20.6883 9.52606 20.4508 9.11481 20.0507 9.0076L19.6625 10.4565ZM4.19429 13.5435C3.79419 13.4363 3.38294 13.6737 3.27574 14.0738C3.16853 14.4739 3.40597 14.8852 3.80607 14.9924L4.19429 13.5435ZM5.27574 17.5379C5.16853 17.938 5.40597 18.3493 5.80607 18.4565C6.20617 18.5637 6.61742 18.3263 6.72462 17.9262L5.27574 17.5379ZM17.4996 9.64952L18.1491 9.27452L17.3991 7.97548L16.7496 8.35048L17.4996 9.64952ZM6.35724 14.3505L5.70772 14.7255L6.45772 16.0245L7.10724 15.6495L6.35724 14.3505ZM9.39806 4.53033L9.98385 5.11612L11.0445 4.05546L10.4587 3.46967L9.39806 4.53033ZM13.873 5.11612L14.4587 4.53033L13.3981 3.46967L12.8123 4.05546L13.873 5.11612ZM9.98385 5.11612C11.0578 6.19006 12.799 6.19006 13.873 5.11612L12.8123 4.05546C12.3241 4.54361 11.5327 4.54361 11.0445 4.05546L9.98385 5.11612ZM10.4587 20.5303L11.0445 19.9445L9.98385 18.8839L9.39806 19.4697L10.4587 20.5303ZM12.8123 19.9445L13.3981 20.5303L14.4587 19.4697L13.873 18.8839L12.8123 19.9445ZM11.0445 19.9445C11.5327 19.4564 12.3241 19.4564 12.8123 19.9445L13.873 18.8839C12.799 17.8099 11.0578 17.8099 9.98385 18.8839L11.0445 19.9445ZM11.1784 6V18H12.6784V6H11.1784ZM4.1943 10.4565L4.9945 10.2421L4.60627 8.7932L3.80607 9.00761L4.1943 10.4565ZM6.93904 6.87404L6.72463 6.07384L5.27574 6.46207L5.49015 7.26227L6.93904 6.87404ZM4.9945 10.2421C6.46153 9.849 7.33213 8.34107 6.93904 6.87404L5.49015 7.26227C5.66883 7.9291 5.2731 8.61452 4.60627 8.7932L4.9945 10.2421ZM18.5811 17.5379L18.3666 16.7377L16.9178 17.126L17.1322 17.9262L18.5811 17.5379ZM19.2505 15.2068L20.0507 14.9924L19.6625 13.5435L18.8623 13.7579L19.2505 15.2068ZM18.3666 16.7377C18.188 16.0709 18.5837 15.3855 19.2505 15.2068L18.8623 13.7579C17.3953 14.151 16.5247 15.6589 16.9178 17.126L18.3666 16.7377ZM6.35725 9.64952L16.7496 15.6495L17.4996 14.3505L7.10725 8.35048L6.35725 9.64952ZM17.1322 6.07383L16.9178 6.87403L18.3666 7.26226L18.5811 6.46206L17.1322 6.07383ZM18.8623 10.2421L19.6625 10.4565L20.0507 9.0076L19.2505 8.79319L18.8623 10.2421ZM16.9178 6.87403C16.5247 8.34106 17.3953 9.84899 18.8623 10.2421L19.2505 8.79319C18.5837 8.61451 18.188 7.92909 18.3666 7.26226L16.9178 6.87403ZM3.80607 14.9924L4.60627 15.2068L4.99449 13.7579L4.19429 13.5435L3.80607 14.9924ZM5.49015 16.7377L5.27574 17.5379L6.72462 17.9262L6.93904 17.126L5.49015 16.7377ZM4.60627 15.2068C5.2731 15.3855 5.66883 16.0709 5.49015 16.7377L6.93904 17.126C7.33213 15.6589 6.46153 14.151 4.99449 13.7579L4.60627 15.2068ZM16.7496 8.35048L6.35724 14.3505L7.10724 15.6495L17.4996 9.64952L16.7496 8.35048Z" fill="#344054"/>
</svg>
