<svg width="24" height="24" viewBox="0 0 24 24" fill="none" xmlns="http://www.w3.org/2000/svg">
<path d="M12 5.25C11.5858 5.25 11.25 5.58579 11.25 6C11.25 6.41421 11.5858 6.75 12 6.75V5.25ZM21 6.75C21.4142 6.75 21.75 6.41421 21.75 6C21.75 5.58579 21.4142 5.25 21 5.25V6.75ZM12 11.25C11.5858 11.25 11.25 11.5858 11.25 12C11.25 12.4142 11.5858 12.75 12 12.75V11.25ZM18 12.75C18.4142 12.75 18.75 12.4142 18.75 12C18.75 11.5858 18.4142 11.25 18 11.25V12.75ZM12 17.25C11.5858 17.25 11.25 17.5858 11.25 18C11.25 18.4142 11.5858 18.75 12 18.75V17.25ZM15 18.75C15.4142 18.75 15.75 18.4142 15.75 18C15.75 17.5858 15.4142 17.25 15 17.25V18.75ZM3.56057 15.1267C3.28538 14.8171 2.81132 14.7893 2.50174 15.0644C2.19215 15.3396 2.16426 15.8137 2.43945 16.1233L3.56057 15.1267ZM9.56057 16.1233C9.83576 15.8137 9.80787 15.3396 9.49828 15.0644C9.1887 14.7893 8.71464 14.8171 8.43945 15.1267L9.56057 16.1233ZM5.25001 18C5.25001 18.4142 5.5858 18.75 6.00001 18.75C6.41422 18.75 6.75001 18.4142 6.75001 18H5.25001ZM6.75001 6C6.75001 5.58579 6.41422 5.25 6.00001 5.25C5.5858 5.25 5.25001 5.58579 5.25001 6H6.75001ZM12 6.75H21V5.25H12V6.75ZM12 12.75H18V11.25H12V12.75ZM12 18.75H15V17.25H12V18.75ZM2.43945 16.1233L3.94463 17.8166L5.06575 16.8201L3.56057 15.1267L2.43945 16.1233ZM8.05539 17.8166L9.56057 16.1233L8.43945 15.1267L6.93427 16.8201L8.05539 17.8166ZM3.94463 17.8166C5.03856 19.0473 6.96146 19.0473 8.05539 17.8166L6.93427 16.8201C6.43703 17.3794 5.56299 17.3794 5.06575 16.8201L3.94463 17.8166ZM6.75001 18V6H5.25001V18H6.75001Z" fill="#344054"/>
</svg>
