<svg width="24" height="24" viewBox="0 0 24 24" fill="none" xmlns="http://www.w3.org/2000/svg">
<path d="M12 5.25C11.5858 5.25 11.25 5.58579 11.25 6C11.25 6.41421 11.5858 6.75 12 6.75V5.25ZM21 6.75C21.4142 6.75 21.75 6.41421 21.75 6C21.75 5.58579 21.4142 5.25 21 5.25V6.75ZM12 11.25C11.5858 11.25 11.25 11.5858 11.25 12C11.25 12.4142 11.5858 12.75 12 12.75V11.25ZM18 12.75C18.4142 12.75 18.75 12.4142 18.75 12C18.75 11.5858 18.4142 11.25 18 11.25V12.75ZM12 17.25C11.5858 17.25 11.25 17.5858 11.25 18C11.25 18.4142 11.5858 18.75 12 18.75V17.25ZM15 18.75C15.4142 18.75 15.75 18.4142 15.75 18C15.75 17.5858 15.4142 17.25 15 17.25V18.75ZM2.43945 7.87673C2.16426 8.18631 2.19215 8.66037 2.50174 8.93556C2.81132 9.21075 3.28538 9.18286 3.56057 8.87327L2.43945 7.87673ZM8.43945 8.87327C8.71464 9.18286 9.1887 9.21075 9.49828 8.93556C9.80787 8.66037 9.83576 8.18631 9.56057 7.87673L8.43945 8.87327ZM6.75001 6C6.75001 5.58579 6.41422 5.25 6.00001 5.25C5.5858 5.25 5.25001 5.58579 5.25001 6H6.75001ZM5.25001 18C5.25001 18.4142 5.5858 18.75 6.00001 18.75C6.41422 18.75 6.75001 18.4142 6.75001 18H5.25001ZM12 6.75H21V5.25H12V6.75ZM12 12.75H18V11.25H12V12.75ZM12 18.75H15V17.25H12V18.75ZM3.56057 8.87327L5.06575 7.17994L3.94463 6.1834L2.43945 7.87673L3.56057 8.87327ZM6.93427 7.17994L8.43945 8.87327L9.56057 7.87673L8.05539 6.1834L6.93427 7.17994ZM5.06575 7.17994C5.56299 6.62055 6.43703 6.62055 6.93427 7.17994L8.05539 6.1834C6.96146 4.95273 5.03856 4.95273 3.94463 6.1834L5.06575 7.17994ZM5.25001 6V18H6.75001V6H5.25001Z" fill="#344054"/>
</svg>
