<svg width="24" height="24" viewBox="0 0 24 24" fill="none" xmlns="http://www.w3.org/2000/svg">
<path d="M19.4697 20.5306C19.7626 20.8235 20.2374 20.8235 20.5303 20.5306C20.8232 20.2377 20.8232 19.7629 20.5303 19.47L19.4697 20.5306ZM4.53033 3.46999C4.23744 3.1771 3.76256 3.1771 3.46967 3.46999C3.17678 3.76288 3.17678 4.23776 3.46967 4.53065L4.53033 3.46999ZM10.2658 6.11588C9.93434 6.36433 9.86708 6.83442 10.1155 7.16585C10.364 7.49727 10.8341 7.56453 11.1655 7.31607L10.2658 6.11588ZM16.25 13.0003C16.25 13.4145 16.5858 13.7503 17 13.7503C17.4142 13.7503 17.75 13.4145 17.75 13.0003H16.25ZM14.2499 18.9968L9.9831 15.7981L9.08336 16.9983L13.3501 20.1969L14.2499 18.9968ZM16.25 17.9976C16.25 19.0263 15.0744 19.6149 14.2499 18.9968L13.3501 20.1969C15.1625 21.5556 17.75 20.2635 17.75 17.9976H16.25ZM3.25 10.0012V13.9994H4.75V10.0012H3.25ZM6 16.7485H8.33358V15.2485H6V16.7485ZM3.25 13.9994C3.25 15.518 4.48154 16.7485 6 16.7485V15.2485C5.30932 15.2485 4.75 14.6889 4.75 13.9994H3.25ZM6 7.25213C4.48154 7.25213 3.25 8.48262 3.25 10.0012H4.75C4.75 9.31169 5.30932 8.75213 6 8.75213V7.25213ZM9.9831 15.7981C9.50717 15.4413 8.92839 15.2485 8.33358 15.2485V16.7485C8.60395 16.7485 8.86703 16.8361 9.08336 16.9983L9.9831 15.7981ZM16.25 17.0003V17.9976H17.75V17.0003H16.25ZM16.4697 17.5306L19.4697 20.5306L20.5303 19.47L17.5303 16.47L16.4697 17.5306ZM3.46967 4.53065L7.47148 8.53246L8.53214 7.4718L4.53033 3.46999L3.46967 4.53065ZM7.47148 8.53246L16.4697 17.5306L17.5303 16.47L8.53214 7.4718L7.47148 8.53246ZM8.00181 7.25213H6V8.75213H8.00181V7.25213ZM14.2499 5.00387C15.0744 4.38574 16.25 4.97431 16.25 6.00304H17.75C17.75 3.73709 15.1625 2.44499 13.3501 3.80367L14.2499 5.00387ZM11.1655 7.31607L14.2499 5.00387L13.3501 3.80367L10.2658 6.11588L11.1655 7.31607ZM16.25 6.00304V13.0003H17.75V6.00304H16.25Z" fill="#344054"/>
</svg>
