<svg width="24" height="24" viewBox="0 0 24 24" fill="none" xmlns="http://www.w3.org/2000/svg">
<path d="M12 22C17.5228 22 22 17.5228 22 12C22 6.47715 17.5228 2 12 2C6.47715 2 2 6.47715 2 12C2 17.5228 6.47715 22 12 22Z" stroke="#344054" stroke-width="1.5"/>
<path d="M6.28469 14.2823C5.88794 14.4013 5.66281 14.8194 5.78183 15.2161C5.90085 15.6129 6.31897 15.838 6.71571 15.719L6.28469 14.2823ZM15.636 16.6562C15.9981 16.8574 16.4547 16.7269 16.6558 16.3649C16.857 16.0028 16.7265 15.5462 16.3644 15.345L15.636 16.6562ZM6.28469 11.2822C5.88794 11.4013 5.66281 11.8194 5.78183 12.2161C5.90085 12.6129 6.31897 12.838 6.71571 12.719L6.28469 11.2822ZM16.636 13.6563C16.9981 13.8574 17.4547 13.727 17.6558 13.3649C17.857 13.0028 17.7265 12.5462 17.3644 12.345L16.636 13.6563ZM5.72166 8.3042C5.33707 8.45804 5.15001 8.89451 5.30384 9.2791C5.45767 9.66369 5.89415 9.85076 6.27874 9.69692L5.72166 8.3042ZM17.636 10.6562C17.9981 10.8574 18.4547 10.7269 18.6558 10.3649C18.857 10.0028 18.7265 9.54612 18.3644 9.34496L17.636 10.6562ZM6.71571 15.719C8.26905 15.253 12.2748 14.7889 15.636 16.6562L16.3644 15.345C12.5256 13.2123 8.06468 13.7483 6.28469 14.2823L6.71571 15.719ZM6.71571 12.719C7.45302 12.4978 9.09383 12.2521 11.0014 12.3127C12.9072 12.3733 14.9817 12.7372 16.636 13.6563L17.3644 12.345C15.4187 11.2641 13.0765 10.8779 11.049 10.8135C9.02324 10.7491 7.21405 11.0034 6.28469 11.2822L6.71571 12.719ZM6.27874 9.69692C7.38562 9.25418 9.36206 9.00241 11.5459 9.12441C13.7198 9.24586 15.9708 9.73112 17.636 10.6562L18.3644 9.34496C16.4296 8.27005 13.9306 7.7553 11.6295 7.62675C9.33834 7.49874 7.11478 7.74696 5.72166 8.3042L6.27874 9.69692Z" fill="#344054"/>
</svg>
