<svg width="24" height="24" viewBox="0 0 24 24" fill="none" xmlns="http://www.w3.org/2000/svg">
<path d="M13.2893 3.59303L14.6801 6.52279L16.0351 5.87956L14.6444 2.94979L13.2893 3.59303ZM16.8973 8.19047L20.007 8.66028L20.2311 7.17711L17.1214 6.7073L16.8973 8.19047ZM20.801 11.2823L18.5508 13.5628L19.6185 14.6164L21.8687 12.3359L20.801 11.2823ZM17.7137 16.2305L18.2449 19.4506L19.7249 19.2065L19.1937 15.9863L17.7137 16.2305ZM16.1617 21.0748L13.3803 19.5545L12.6608 20.8707L15.4422 22.391L16.1617 21.0748ZM10.6191 19.5545L7.8377 21.0748L8.55715 22.391L11.3386 20.8707L10.6191 19.5545ZM5.75444 19.4506L6.28565 16.2305L4.80565 15.9864L4.27445 19.2065L5.75444 19.4506ZM5.44861 13.5628L3.1984 11.2823L2.13067 12.3359L4.38088 14.6164L5.44861 13.5628ZM3.99236 8.66028L7.10207 8.19047L6.878 6.7073L3.76828 7.17711L3.99236 8.66028ZM9.31931 6.52279L10.7101 3.59303L9.35493 2.9498L7.96423 5.87956L9.31931 6.52279ZM7.10207 8.19047C8.07227 8.04389 8.89682 7.41285 9.31931 6.52279L7.96423 5.87956C7.74764 6.33585 7.33683 6.63798 6.878 6.7073L7.10207 8.19047ZM3.1984 11.2823C2.29865 10.3704 2.83852 8.8346 3.99236 8.66028L3.76828 7.17711C1.32345 7.54647 0.426408 10.6086 2.13067 12.3359L3.1984 11.2823ZM6.28565 16.2305C6.4459 15.259 6.13791 14.2614 5.44861 13.5628L4.38088 14.6164C4.72564 14.9658 4.8895 15.478 4.80565 15.9864L6.28565 16.2305ZM7.8377 21.0748C6.83625 21.6222 5.53762 20.765 5.75444 19.4506L4.27445 19.2065C3.87654 21.6186 6.33985 23.603 8.55715 22.391L7.8377 21.0748ZM13.3803 19.5545C12.517 19.0826 11.4824 19.0826 10.6191 19.5545L11.3386 20.8707C11.7535 20.6439 12.2459 20.6439 12.6608 20.8707L13.3803 19.5545ZM18.2449 19.4506C18.4617 20.765 17.1631 21.6222 16.1617 21.0748L15.4422 22.391C17.6595 23.603 20.1228 21.6186 19.7249 19.2065L18.2449 19.4506ZM18.5508 13.5628C17.8615 14.2614 17.5535 15.259 17.7137 16.2305L19.1937 15.9863C19.1099 15.478 19.2737 14.9658 19.6185 14.6164L18.5508 13.5628ZM20.007 8.66028C21.1608 8.8346 21.7007 10.3704 20.801 11.2823L21.8687 12.3359C23.573 10.6086 22.6759 7.54647 20.2311 7.17711L20.007 8.66028ZM14.6801 6.52279C15.1025 7.41285 15.9271 8.04389 16.8973 8.19047L17.1214 6.7073C16.6625 6.63798 16.2517 6.33585 16.0351 5.87956L14.6801 6.52279ZM14.6444 2.94979C13.5686 0.683398 10.4308 0.683406 9.35493 2.9498L10.7101 3.59303C11.2436 2.46899 12.7558 2.46899 13.2893 3.59303L14.6444 2.94979Z" fill="#344054"/>
</svg>
