<svg width="24" height="24" viewBox="0 0 24 24" fill="none" xmlns="http://www.w3.org/2000/svg">
<path d="M20.5 13.5C20.5 18.1944 16.6944 22 12 22C7.30558 22 3.5 18.1944 3.5 13.5C3.5 8.80558 7.30558 5 12 5C16.6944 5 20.5 8.80558 20.5 13.5Z" stroke="#344054" stroke-width="1.5"/>
<path d="M14.7961 3.13575C15.1947 3.24849 15.6092 3.01676 15.7219 2.61818C15.8346 2.21961 15.6029 1.80511 15.2043 1.69238L14.7961 3.13575ZM8.79607 1.69238C8.39749 1.80511 8.16577 2.21961 8.2785 2.61818C8.39123 3.01676 8.80573 3.24849 9.20431 3.13575L8.79607 1.69238ZM12.0002 2.75C12.9705 2.75 13.9082 2.88462 14.7961 3.13575L15.2043 1.69238C14.1849 1.40405 13.1099 1.25 12.0002 1.25V2.75ZM9.20431 3.13575C10.0922 2.88462 11.0299 2.75 12.0002 2.75V1.25C10.8905 1.25 9.8155 1.40405 8.79607 1.69238L9.20431 3.13575Z" fill="#344054"/>
<path d="M13.5 14C13.5 14.8284 12.8284 15.5 12 15.5C11.1716 15.5 10.5 14.8284 10.5 14C10.5 13.1716 11.1716 12.5 12 12.5C12.8284 12.5 13.5 13.1716 13.5 14Z" stroke="#344054" stroke-width="1.5"/>
<path d="M12 12V9" stroke="#344054" stroke-width="1.5" stroke-linecap="round" stroke-linejoin="round"/>
</svg>
