<svg width="24" height="24" viewBox="0 0 24 24" fill="none" xmlns="http://www.w3.org/2000/svg">
<path d="M16.0833 8.25C16.0833 7.83579 15.7475 7.5 15.3333 7.5C14.9191 7.5 14.5833 7.83579 14.5833 8.25H16.0833ZM9.41667 8.25C9.41667 7.83579 9.08088 7.5 8.66667 7.5C8.25245 7.5 7.91667 7.83579 7.91667 8.25H9.41667ZM21.25 6V8.25H22.75V6H21.25ZM18.6667 11.25C17.3205 11.25 16.0833 9.99234 16.0833 8.25H14.5833C14.5833 10.6498 16.3309 12.75 18.6667 12.75V11.25ZM21.25 8.25C21.25 9.99234 20.0128 11.25 18.6667 11.25V12.75C21.0024 12.75 22.75 10.6498 22.75 8.25H21.25ZM12 11.25C10.6539 11.25 9.41667 9.99234 9.41667 8.25H7.91667C7.91667 10.6498 9.66423 12.75 12 12.75V11.25ZM14.5833 8.25C14.5833 9.99234 13.3461 11.25 12 11.25V12.75C14.3358 12.75 16.0833 10.6498 16.0833 8.25H14.5833ZM2.75 8.25V6H1.25V8.25H2.75ZM5.33333 11.25C3.9872 11.25 2.75 9.99234 2.75 8.25H1.25C1.25 10.6498 2.99757 12.75 5.33333 12.75V11.25ZM7.91667 8.25C7.91667 9.99234 6.67946 11.25 5.33333 11.25V12.75C7.6691 12.75 9.41667 10.6498 9.41667 8.25H7.91667ZM18 1.25H6V2.75H18V1.25ZM2.75 6C2.75 4.20507 4.20507 2.75 6 2.75V1.25C3.37665 1.25 1.25 3.37665 1.25 6H2.75ZM22.75 6C22.75 3.37665 20.6234 1.25 18 1.25V2.75C19.7949 2.75 21.25 4.20507 21.25 6H22.75Z" fill="#344054"/>
<path d="M9.37098 17.3482C9.01095 17.1434 8.55305 17.2692 8.34823 17.6293C8.14342 17.9893 8.26925 18.4472 8.62928 18.652L9.37098 17.3482ZM15.3684 18.6534C15.7293 18.45 15.8568 17.9926 15.6534 17.6318C15.45 17.2709 14.9926 17.1434 14.6318 17.3468L15.3684 18.6534ZM8.62928 18.652C9.84923 19.346 10.8979 19.7522 12.0029 19.7501C13.1066 19.748 14.1533 19.3385 15.3684 18.6534L14.6318 17.3468C13.4945 17.988 12.7192 18.2487 12 18.2501C11.2822 18.2515 10.5071 17.9946 9.37098 17.3482L8.62928 18.652Z" fill="#344054"/>
<path d="M20.25 11V18H21.75V11H20.25ZM17 21.25H7V22.75H17V21.25ZM3.75 18V11H2.25V18H3.75ZM7 21.25C5.20507 21.25 3.75 19.7949 3.75 18H2.25C2.25 20.6234 4.37665 22.75 7 22.75V21.25ZM20.25 18C20.25 19.7949 18.7949 21.25 17 21.25V22.75C19.6234 22.75 21.75 20.6234 21.75 18H20.25Z" fill="#344054"/>
</svg>
