<svg width="24" height="24" viewBox="0 0 24 24" fill="none" xmlns="http://www.w3.org/2000/svg">
<path d="M19.5581 10.738L19.2416 10.058L20.3081 9.56152V10.738H19.5581ZM15.4385 10.7844H14.6885V9.62471L15.7461 10.1004L15.4385 10.7844ZM16.1885 10.7844V11.828H14.6885V10.7844H16.1885ZM18.8081 11.828V10.738H20.3081V11.828H18.8081ZM15.7461 10.1004L16.9561 10.6445L16.3409 12.0126L15.1309 11.4684L15.7461 10.1004ZM17.9964 10.6377L19.2416 10.058L19.8746 11.4179L18.6294 11.9976L17.9964 10.6377ZM16.9561 10.6445C17.2874 10.7935 17.6671 10.791 17.9964 10.6377L18.6294 11.9976C17.905 12.3348 17.0697 12.3403 16.3409 12.0126L16.9561 10.6445ZM17.4983 13.1378C18.2217 13.1378 18.8081 12.5514 18.8081 11.828H20.3081C20.3081 13.3798 19.0501 14.6378 17.4983 14.6378V13.1378ZM16.1885 11.828C16.1885 12.5514 16.7749 13.1378 17.4983 13.1378V14.6378C15.9465 14.6378 14.6885 13.3798 14.6885 11.828H16.1885Z" fill="#344054"/>
<path d="M18.4049 7.2054L21.8263 8.72605L21.2171 10.0968L17.7957 8.57612L18.4049 7.2054ZM16.5611 12.0804L13.1397 10.5597L13.7489 9.189L17.1704 10.7097L16.5611 12.0804ZM17.1704 8.57612L13.7489 10.0968L13.1397 8.72605L16.5611 7.2054L17.1704 8.57612ZM17.7957 10.7097L21.2171 9.189L21.8263 10.5597L18.4049 12.0804L17.7957 10.7097ZM13.1397 10.5597C12.3453 10.2066 12.3453 9.07913 13.1397 8.72605L13.7489 10.0968C14.1422 9.92197 14.1422 9.36379 13.7489 9.189L13.1397 10.5597ZM17.1704 10.7097C17.3694 10.7981 17.5966 10.7981 17.7957 10.7097L18.4049 12.0804C17.818 12.3412 17.148 12.3412 16.5611 12.0804L17.1704 10.7097ZM21.8263 8.72605C22.6208 9.07913 22.6208 10.2066 21.8263 10.5597L21.2171 9.189C20.8238 9.36379 20.8238 9.92197 21.2171 10.0968L21.8263 8.72605ZM17.7957 8.57612C17.5966 8.48765 17.3694 8.48765 17.1704 8.57612L16.5611 7.2054C17.148 6.94456 17.818 6.94456 18.4049 7.2054L17.7957 8.57612Z" fill="#344054"/>
<path d="M15.7201 16.1597C15.3294 16.2974 14.9011 16.0922 14.7635 15.7016C14.6258 15.3109 14.831 14.8826 15.2216 14.745L15.7201 16.1597ZM16.6632 19.575C16.249 19.575 15.9132 19.2392 15.9132 18.825C15.9132 18.4108 16.249 18.075 16.6632 18.075V19.575ZM16.8035 14.945L17.6354 15.7588L16.5864 16.831L15.7546 16.0172L16.8035 14.945ZM17.6354 15.7588C17.5488 15.6741 17.4176 15.6741 17.3311 15.7588L18.38 16.831C17.8836 17.3167 17.0829 17.3167 16.5864 16.831L17.6354 15.7588ZM17.3311 15.7588L18.1629 14.945L19.2118 16.0172L18.38 16.831L17.3311 15.7588ZM18.1629 14.945C18.4715 14.6431 18.9338 14.5022 19.384 14.6303L18.9735 16.0731C19.0731 16.1014 19.1602 16.0677 19.2118 16.0172L18.1629 14.945ZM19.384 14.6303C20.97 15.0815 22.4224 16.2051 22.4224 17.8118H20.9224C20.9224 17.2226 20.3253 16.4577 18.9735 16.0731L19.384 14.6303ZM22.4224 17.8118C22.4224 18.8087 21.5941 19.575 20.6251 19.575V18.075C20.8128 18.075 20.9224 17.934 20.9224 17.8118H22.4224ZM15.5824 14.6303C16.0327 14.5022 16.4949 14.6431 16.8035 14.945L15.7546 16.0172C15.8062 16.0677 15.8933 16.1014 15.9929 16.0731L15.5824 14.6303ZM15.2216 14.745C15.3395 14.7035 15.4598 14.6652 15.5824 14.6303L15.9929 16.0731C15.8993 16.0997 15.8083 16.1286 15.7201 16.1597L15.2216 14.745ZM20.6251 19.575H16.6632V18.075H20.6251V19.575Z" fill="#344054"/>
<path d="M13.6445 10.3926V12.0589" stroke="#344054" stroke-width="1.5" stroke-linecap="round"/>
<path d="M11.4388 8.20295L11.1769 7.50017L12.1888 7.12305V8.20295H11.4388ZM5.49805 8.20295H4.74805V7.12305L5.75996 7.50017L5.49805 8.20295ZM6.24805 8.20295V9.83904H4.74805V8.20295H6.24805ZM10.6888 9.83904V8.20295H12.1888V9.83904H10.6888ZM5.75996 7.50017L8.03188 8.34686L7.50806 9.75242L5.23614 8.90573L5.75996 7.50017ZM8.90492 8.34686L11.1769 7.50017L11.7007 8.90573L9.42874 9.75242L8.90492 8.34686ZM8.03188 8.34686C8.31344 8.45179 8.62337 8.45179 8.90492 8.34686L9.42874 9.75242C8.80932 9.98327 8.12748 9.98327 7.50806 9.75242L8.03188 8.34686ZM8.4684 12.0594C9.69467 12.0594 10.6888 11.0653 10.6888 9.83904H12.1888C12.1888 11.8937 10.5231 13.5594 8.4684 13.5594V12.0594ZM6.24805 9.83904C6.24805 11.0653 7.24213 12.0594 8.4684 12.0594V13.5594C6.41371 13.5594 4.74805 11.8937 4.74805 9.83904H6.24805Z" fill="#344054"/>
<path d="M9.67692 3.16095L14.692 5.38988L14.0828 6.7606L9.06771 4.53166L9.67692 3.16095ZM7.25815 9.66812L2.24304 7.43919L2.85225 6.06847L7.86736 8.29741L7.25815 9.66812ZM7.86736 4.53166L2.85225 6.7606L2.24304 5.38988L7.25815 3.16095L7.86736 4.53166ZM9.06771 8.29741L14.0828 6.06847L14.692 7.43919L9.67692 9.66812L9.06771 8.29741ZM2.24304 7.43919C1.35518 7.04458 1.35518 5.78449 2.24304 5.38988L2.85225 6.7606C3.15211 6.62733 3.15211 6.20174 2.85225 6.06847L2.24304 7.43919ZM7.86736 8.29741C8.24945 8.46723 8.68561 8.46723 9.06771 8.29741L9.67692 9.66812C8.90697 10.0103 8.02809 10.0103 7.25815 9.66812L7.86736 8.29741ZM14.692 5.38988C15.5799 5.78449 15.5799 7.04458 14.692 7.43919L14.0828 6.06847C13.7829 6.20174 13.7829 6.62733 14.0828 6.7606L14.692 5.38988ZM9.06771 4.53166C8.68561 4.36184 8.24945 4.36184 7.86736 4.53166L7.25815 3.16095C8.02809 2.81875 8.90697 2.81875 9.67692 3.16095L9.06771 4.53166Z" fill="#344054"/>
<path d="M7.227 14.4553L8.44627 15.6481L7.39731 16.7204L6.17803 15.5275L7.227 14.4553ZM8.44627 15.6481C8.44812 15.6499 8.45403 15.6547 8.46753 15.6547C8.48103 15.6547 8.48695 15.6499 8.4888 15.6481L9.53776 16.7204C8.94583 17.2994 7.98924 17.2994 7.39731 16.7204L8.44627 15.6481ZM8.4888 15.6481L9.70807 14.4553L10.757 15.5275L9.53776 16.7204L8.4888 15.6481ZM9.70807 14.4553C10.0765 14.0948 10.6262 13.929 11.1581 14.0804L10.7476 15.5231C10.7561 15.5255 10.7617 15.5243 10.7621 15.5242C10.7622 15.5242 10.7615 15.5244 10.7603 15.5251C10.7591 15.5258 10.758 15.5266 10.757 15.5275L9.70807 14.4553ZM11.1581 14.0804C13.4282 14.7262 15.3579 16.2896 15.3579 18.4076H13.8579C13.8579 17.3071 12.7836 16.1024 10.7476 15.5231L11.1581 14.0804ZM15.3579 18.4076C15.3579 19.6653 14.3113 20.6428 13.0728 20.6428V19.1428C13.53 19.1428 13.8579 18.7905 13.8579 18.4076H15.3579ZM13.0728 20.6428H3.86224V19.1428H13.0728V20.6428ZM3.86224 20.6428C2.62378 20.6428 1.57715 19.6653 1.57715 18.4076H3.07715C3.07715 18.7905 3.40508 19.1428 3.86224 19.1428V20.6428ZM1.57715 18.4076C1.57715 16.2896 3.5068 14.7262 5.77697 14.0804L6.18744 15.5231C4.15146 16.1024 3.07715 17.3071 3.07715 18.4076H1.57715ZM5.77697 14.0804C6.30888 13.929 6.85851 14.0948 7.227 14.4553L6.17803 15.5275C6.17708 15.5266 6.17595 15.5258 6.17478 15.5251C6.17358 15.5244 6.17285 15.5242 6.17293 15.5242C6.17333 15.5243 6.17891 15.5255 6.18744 15.5231L5.77697 14.0804Z" fill="#344054"/>
<path d="M3.2002 7.28125V10.3051" stroke="#344054" stroke-width="1.5" stroke-linecap="round"/>
</svg>
