<svg width="24" height="24" viewBox="0 0 24 24" fill="none" xmlns="http://www.w3.org/2000/svg">
<path d="M18.0121 9.80517C17.7192 9.51229 17.2443 9.51229 16.9514 9.80517C16.6585 10.098 16.6585 10.5729 16.9514 10.8658L18.0121 9.80517ZM18.3656 12.28C18.6585 12.5729 19.1334 12.5729 19.4263 12.28C19.7192 11.9871 19.7192 11.5123 19.4263 11.2194L18.3656 12.28ZM16.1104 12.4568C16.1104 12.0426 15.7746 11.7068 15.3604 11.7068C14.9462 11.7068 14.6104 12.0426 14.6104 12.4568H16.1104ZM14.6104 13.871C14.6104 14.2852 14.9462 14.621 15.3604 14.621C15.7746 14.621 16.1104 14.2852 16.1104 13.871H14.6104ZM19.603 7.46419C19.1888 7.46419 18.853 7.79998 18.853 8.21419C18.853 8.6284 19.1888 8.96419 19.603 8.96419V7.46419ZM21.0172 8.96419C21.4314 8.96419 21.7672 8.6284 21.7672 8.21419C21.7672 7.79998 21.4314 7.46419 21.0172 7.46419V8.96419ZM8.56926 6.48813C8.83883 6.17363 8.80242 5.70016 8.48792 5.43059C8.17343 5.16102 7.69995 5.19745 7.43039 5.51194L8.56926 6.48813ZM14.9998 22.75C15.414 22.75 15.7498 22.4142 15.7498 22C15.7498 21.5858 15.414 21.25 14.9998 21.25V22.75ZM6.99983 21.25C6.58562 21.25 6.24983 21.5858 6.24983 22C6.24983 22.4142 6.58562 22.75 6.99983 22.75V21.25ZM10.9472 2.84423L14.9542 4.49416L15.5253 3.10714L11.5183 1.45722L10.9472 2.84423ZM15.3621 6.53389L12.5337 9.3623L13.5943 10.4229L16.4228 7.59455L15.3621 6.53389ZM10.4939 8.95437L8.84404 4.94743L7.45702 5.51855L9.10694 9.52549L10.4939 8.95437ZM9.11601 3.5876L9.58741 3.11619L8.52675 2.05554L8.05535 2.52695L9.11601 3.5876ZM8.84404 4.94743C8.65191 4.48081 8.75918 3.94443 9.11601 3.5876L8.05535 2.52695C7.27033 3.31195 7.03432 4.492 7.45702 5.51855L8.84404 4.94743ZM12.5337 9.3623C11.903 9.99302 10.8336 9.77916 10.4939 8.95437L9.10694 9.52549C9.85409 11.34 12.2068 11.8105 13.5943 10.4229L12.5337 9.3623ZM14.9542 4.49416C15.7789 4.83378 15.9928 5.90317 15.3621 6.53389L16.4228 7.59455C17.8104 6.20696 17.3398 3.8543 15.5253 3.10714L14.9542 4.49416ZM11.5183 1.45722C10.4918 1.03452 9.31176 1.27053 8.52675 2.05554L9.58741 3.11619C9.94424 2.75937 10.4806 2.65209 10.9472 2.84423L11.5183 1.45722ZM16.9514 10.8658L18.3656 12.28L19.4263 11.2194L18.0121 9.80517L16.9514 10.8658ZM14.6104 12.4568V13.871H16.1104V12.4568H14.6104ZM19.603 8.96419H21.0172V7.46419H19.603V8.96419ZM7.43039 5.51194L2.63569 11.1057L3.77458 12.0819L8.56926 6.48813L7.43039 5.51194ZM2.77911 14.8399L10.4695 22.5303L11.5302 21.4697L3.83977 13.7793L2.77911 14.8399ZM10.9998 22.75H14.9998V21.25H10.9998V22.75ZM10.9998 21.25H6.99983V22.75H10.9998V21.25ZM2.63569 11.1057C1.70052 12.1968 1.76301 13.8238 2.77911 14.8399L3.83977 13.7793C3.37791 13.3174 3.3495 12.5778 3.77458 12.0819L2.63569 11.1057Z" fill="#344054"/>
</svg>
