<svg width="24" height="24" viewBox="0 0 24 24" fill="none" xmlns="http://www.w3.org/2000/svg">
<path d="M1.34298 20.6386C1.14336 21.0015 1.27576 21.4575 1.6387 21.6572C2.00164 21.8568 2.45768 21.7244 2.6573 21.3614L1.34298 20.6386ZM14.6819 15.3125C14.8545 14.9359 14.6891 14.4908 14.3126 14.3182C13.936 14.1456 13.4909 14.311 13.3183 14.6875L14.6819 15.3125ZM7.25014 8C7.25014 8.41421 7.58593 8.75 8.00014 8.75C8.41435 8.75 8.75014 8.41421 8.75014 8H7.25014ZM16.7398 14.25C16.3256 14.25 15.9898 14.5858 15.9898 15C15.9898 15.4142 16.3256 15.75 16.7398 15.75V14.25ZM12.0001 6.25C11.5859 6.25 11.2501 6.58579 11.2501 7C11.2501 7.41421 11.5859 7.75 12.0001 7.75V6.25ZM18.0001 7.75C18.4143 7.75 18.7501 7.41421 18.7501 7C18.7501 6.58579 18.4143 6.25 18.0001 6.25V7.75ZM9.25014 13C9.25014 13.6904 8.6905 14.25 8.00014 14.25V15.75C9.51892 15.75 10.7501 14.5188 10.7501 13H9.25014ZM8.00014 14.25C7.30978 14.25 6.75014 13.6904 6.75014 13H5.25014C5.25014 14.5188 6.48136 15.75 8.00014 15.75V14.25ZM6.75014 13C6.75014 12.3096 7.30978 11.75 8.00014 11.75V10.25C6.48136 10.25 5.25014 11.4812 5.25014 13H6.75014ZM8.00014 11.75C8.6905 11.75 9.25014 12.3096 9.25014 13H10.7501C10.7501 11.4812 9.51892 10.25 8.00014 10.25V11.75ZM2.6573 21.3614C3.01891 20.704 4.65974 19.0227 8.00014 19.0227V17.5227C4.14054 17.5227 1.98137 19.4779 1.34298 20.6386L2.6573 21.3614ZM8.00014 19.0227C11.9324 19.0227 14.0769 16.6326 14.6819 15.3125L13.3183 14.6875C12.9233 15.5493 11.2678 17.5227 8.00014 17.5227V19.0227ZM8.75014 8V5H7.25014V8H8.75014ZM10.0001 3.75H20.0001V2.25H10.0001V3.75ZM21.2501 5V13H22.7501V5H21.2501ZM20.0001 14.25H16.7398V15.75H20.0001V14.25ZM21.2501 13C21.2501 13.6904 20.6905 14.25 20.0001 14.25V15.75C21.5189 15.75 22.7501 14.5188 22.7501 13H21.2501ZM20.0001 3.75C20.6905 3.75 21.2501 4.30964 21.2501 5H22.7501C22.7501 3.48122 21.5189 2.25 20.0001 2.25V3.75ZM8.75014 5C8.75014 4.30964 9.30978 3.75 10.0001 3.75V2.25C8.48136 2.25 7.25014 3.48122 7.25014 5H8.75014ZM12.0001 7.75H18.0001V6.25H12.0001V7.75Z" fill="#344054"/>
<path d="M15 11H18" stroke="#344054" stroke-width="1.5" stroke-linecap="round"/>
</svg>
