<svg width="24" height="24" viewBox="0 0 24 24" fill="none" xmlns="http://www.w3.org/2000/svg">
<path d="M16.3149 3.92101L16.9695 3.55485C16.8706 3.37815 16.7046 3.24892 16.509 3.19654C16.3134 3.14416 16.105 3.17308 15.931 3.27671L16.3149 3.92101ZM19.3884 9.41513L19.7724 10.0595C20.1213 9.85148 20.2413 9.40349 20.043 9.04897L19.3884 9.41513ZM2.65468 13.9158C2.45246 13.5543 1.99547 13.4252 1.63398 13.6275C1.27248 13.8297 1.14337 14.2867 1.3456 14.6482L2.65468 13.9158ZM2.88235 17.3952C3.08458 17.7567 3.54156 17.8858 3.90305 17.6836C4.26455 17.4814 4.39366 17.0244 4.19143 16.6629L2.88235 17.3952ZM7.58864 13.6565C7.94448 13.4444 8.06105 12.9841 7.84903 12.6283C7.637 12.2724 7.17666 12.1559 6.82083 12.3679L7.58864 13.6565ZM13.6899 13.0122L14.3415 12.6408C14.2081 12.4067 13.9594 12.2622 13.6899 12.2622C13.4205 12.2622 13.1718 12.4067 13.0383 12.6408L13.6899 13.0122ZM18.1609 22.371C18.366 22.7308 18.824 22.8563 19.1838 22.6512C19.5437 22.4461 19.6691 21.9881 19.464 21.6282L18.1609 22.371ZM7.91588 21.6282C7.71077 21.9881 7.83623 22.4461 8.19609 22.6512C8.55596 22.8563 9.01396 22.7308 9.21907 22.371L7.91588 21.6282ZM7.82645 9.85202L16.6989 4.5653L15.931 3.27671L7.05864 8.56343L7.82645 9.85202ZM15.6604 4.28717L18.7339 9.78129L20.043 9.04897L16.9695 3.55485L15.6604 4.28717ZM19.0045 8.77083L10.1321 14.0576L10.8999 15.3462L19.7724 10.0595L19.0045 8.77083ZM8.3716 13.5617L7.3471 11.7303L6.03802 12.4626L7.06252 14.294L8.3716 13.5617ZM10.1321 14.0576C9.52479 14.4195 8.73697 14.2148 8.3716 13.5617L7.06252 14.294C7.82878 15.6638 9.54726 16.1522 10.8999 15.3462L10.1321 14.0576ZM7.05864 8.56343C5.72048 9.36079 5.27912 11.1061 6.03802 12.4626L7.3471 11.7303C6.97437 11.064 7.20457 10.2226 7.82645 9.85202L7.05864 8.56343ZM18.5782 3.15899L21.1394 7.73743L22.4485 7.0051L19.8872 2.42667L18.5782 3.15899ZM19.7868 8.59112L17.2255 4.01269L15.9164 4.74501L18.4777 9.32344L19.7868 8.59112ZM20.8476 8.89351C20.4852 9.10942 20.0107 8.99138 19.7868 8.59112L18.4777 9.32344C19.1025 10.4404 20.5077 10.8422 21.6154 10.1821L20.8476 8.89351ZM21.1394 7.73743C21.3707 8.15086 21.2244 8.66894 20.8476 8.89351L21.6154 10.1821C22.7085 9.53073 23.0659 8.10883 22.4485 7.0051L21.1394 7.73743ZM17.5174 2.8566C17.8797 2.6407 18.3543 2.75873 18.5782 3.15899L19.8872 2.42667C19.2624 1.30978 17.8572 0.907994 16.7496 1.56802L17.5174 2.8566ZM16.7496 1.56802C15.6564 2.21938 15.299 3.64128 15.9164 4.74501L17.2255 4.01269C16.9942 3.59925 17.1405 3.08117 17.5174 2.8566L16.7496 1.56802ZM1.3456 14.6482L2.11397 16.0217L3.42306 15.2894L2.65468 13.9158L1.3456 14.6482ZM2.11397 16.0217L2.88235 17.3952L4.19143 16.6629L3.42306 15.2894L2.11397 16.0217ZM3.15242 16.2998L7.58864 13.6565L6.82083 12.3679L2.38461 15.0112L3.15242 16.2998ZM13.0383 13.3836L18.1609 22.371L19.464 21.6282L14.3415 12.6408L13.0383 13.3836ZM13.0383 12.6408L7.91588 21.6282L9.21907 22.371L14.3415 13.3836L13.0383 12.6408Z" fill="#344054"/>
</svg>
