<svg width="24" height="24" viewBox="0 0 24 24" fill="none" xmlns="http://www.w3.org/2000/svg">
<path d="M2.46855 12.4143C2.1451 12.1556 1.67314 12.208 1.41438 12.5315C1.15562 12.8549 1.20806 13.3269 1.53151 13.5857L2.46855 12.4143ZM16.5575 7.50173C16.8346 7.19385 16.8096 6.71963 16.5017 6.44254C16.1938 6.16545 15.7196 6.1904 15.4425 6.49829L16.5575 7.50173ZM8.46855 12.4143C8.1451 12.1556 7.67314 12.208 7.41438 12.5315C7.15562 12.8549 7.20806 13.3269 7.53151 13.5857L8.46855 12.4143ZM22.5575 7.50173C22.8346 7.19385 22.8096 6.71963 22.5017 6.44254C22.1938 6.16545 21.7196 6.1904 21.4425 6.49829L22.5575 7.50173ZM1.53151 13.5857L5.05793 16.4068L5.99497 15.2355L2.46855 12.4143L1.53151 13.5857ZM8.8199 16.0991L16.5575 7.50173L15.4425 6.49829L7.70496 15.0956L8.8199 16.0991ZM5.05793 16.4068C6.19549 17.3168 7.84537 17.1819 8.8199 16.0991L7.70496 15.0956C7.26199 15.5878 6.51205 15.6491 5.99497 15.2355L5.05793 16.4068ZM7.53151 13.5857L11.0579 16.4068L11.9949 15.2355L8.46855 12.4143L7.53151 13.5857ZM14.8199 16.0991L22.5575 7.50173L21.4425 6.49829L13.7049 15.0956L14.8199 16.0991ZM11.0579 16.4068C12.1955 17.3168 13.8453 17.1819 14.8199 16.0991L13.7049 15.0956C13.262 15.5878 12.512 15.6491 11.9949 15.2355L11.0579 16.4068Z" fill="#344054"/>
</svg>
