<svg width="24" height="24" viewBox="0 0 24 24" fill="none" xmlns="http://www.w3.org/2000/svg">
<path d="M5.46855 12.4143C5.1451 12.1556 4.67314 12.208 4.41438 12.5315C4.15562 12.8549 4.20806 13.3269 4.53151 13.5857L5.46855 12.4143ZM19.5575 7.50173C19.8346 7.19385 19.8096 6.71963 19.5017 6.44254C19.1938 6.16545 18.7196 6.1904 18.4425 6.49829L19.5575 7.50173ZM4.53151 13.5857L8.05793 16.4068L8.99497 15.2355L5.46855 12.4143L4.53151 13.5857ZM11.8199 16.0991L19.5575 7.50173L18.4425 6.49829L10.7049 15.0956L11.8199 16.0991ZM8.05793 16.4068C9.19549 17.3168 10.8453 17.1819 11.8199 16.0991L10.7049 15.0956C10.262 15.5878 9.51205 15.6491 8.99497 15.2355L8.05793 16.4068Z" fill="#344054"/>
</svg>
