<svg width="24" height="24" viewBox="0 0 24 24" fill="none" xmlns="http://www.w3.org/2000/svg">
<path d="M21.25 12C21.25 12.4142 21.5858 12.75 22 12.75C22.4142 12.75 22.75 12.4142 22.75 12H21.25ZM9 22.75C9.41421 22.75 9.75 22.4142 9.75 22C9.75 21.5858 9.41421 21.25 9 21.25V22.75ZM6 2.75H18V1.25H6V2.75ZM2.75 18V6H1.25V18H2.75ZM21.25 6V12H22.75V6H21.25ZM9 21.25H6V22.75H9V21.25ZM1.25 18C1.25 20.6234 3.37665 22.75 6 22.75V21.25C4.20507 21.25 2.75 19.7949 2.75 18H1.25ZM18 2.75C19.7949 2.75 21.25 4.20507 21.25 6H22.75C22.75 3.37665 20.6234 1.25 18 1.25V2.75ZM6 1.25C3.37665 1.25 1.25 3.37665 1.25 6H2.75C2.75 4.20507 4.20507 2.75 6 2.75V1.25Z" fill="#344054"/>
<path d="M12 7V12L9 13" stroke="#344054" stroke-width="1.5" stroke-linecap="round" stroke-linejoin="round"/>
<path d="M11.2501 18.5C11.2501 18.9142 11.5859 19.25 12.0001 19.25C12.4143 19.25 12.7501 18.9142 12.7501 18.5H11.2501ZM12.0001 22L11.5501 21.4C11.2918 21.5937 11.1864 21.9309 11.2885 22.2372C11.3906 22.5434 11.6773 22.75 12.0001 22.75V22ZM16.0001 22.75C16.4142 22.75 16.7501 22.4142 16.7501 22C16.7501 21.5858 16.4142 21.25 16.0001 21.25V22.75ZM12.7501 18.5V18H11.2501V18.5H12.7501ZM14.7501 19L11.5501 21.4L12.45 22.6L15.65 20.2L14.7501 19ZM12.0001 22.75H16.0001V21.25H12.0001V22.75ZM15.2501 18C15.2501 18.3934 15.0649 18.7639 14.7501 19L15.65 20.2C16.3425 19.6807 16.7501 18.8656 16.7501 18H15.2501ZM14.0001 16.75C14.6905 16.75 15.2501 17.3096 15.2501 18H16.7501C16.7501 16.4812 15.5189 15.25 14.0001 15.25V16.75ZM12.7501 18C12.7501 17.3096 13.3096 16.75 14.0001 16.75V15.25C12.4813 15.25 11.2501 16.4812 11.2501 18H12.7501Z" fill="#344054"/>
<path d="M18 16V17C18 18.1046 18.8954 19 20 19H22M22 19V16M22 19V22" stroke="#344054" stroke-width="1.5" stroke-linecap="round" stroke-linejoin="round"/>
<path d="M22 12L20 10" stroke="#344054" stroke-width="1.5" stroke-linecap="round" stroke-linejoin="round"/>
</svg>
