<svg width="24" height="24" viewBox="0 0 24 24" fill="none" xmlns="http://www.w3.org/2000/svg">
<path d="M8 6.16041C7.58579 6.16041 7.25 6.4962 7.25 6.91041C7.25 7.32462 7.58579 7.66041 8 7.66041V6.16041ZM12.0239 12.7253C11.6099 12.7121 11.2636 13.037 11.2504 13.451C11.2372 13.865 11.5621 14.2113 11.9761 14.2245L12.0239 12.7253ZM12.4466 5.97281C13.4154 5.10007 14.6257 4.17818 15.9087 3.79432C17.1273 3.4297 18.4288 3.53908 19.7485 4.78463L20.7781 3.69378C19.0313 2.04513 17.1596 1.85434 15.4787 2.35727C13.862 2.84096 12.4462 3.95435 11.4427 4.85833L12.4466 5.97281ZM19.7485 4.78463C20.8013 5.77828 21.2538 7.17935 21.25 8.82349C21.2461 10.474 20.7789 12.3048 20.0651 14.0319C19.3528 15.7554 18.4142 17.3292 17.512 18.4597C17.06 19.0262 16.6323 19.4621 16.2635 19.749C15.8682 20.0564 15.6436 20.1119 15.5799 20.1119V21.6119C16.1587 21.6119 16.7185 21.2953 17.1843 20.933C17.6765 20.5503 18.1868 20.019 18.6845 19.3953C19.6818 18.1456 20.6898 16.4476 21.4514 14.6048C22.2116 12.7654 22.7455 10.7352 22.75 8.827C22.7545 6.91244 22.2226 5.05715 20.7781 3.69378L19.7485 4.78463ZM11.4427 4.85833C10.668 5.55613 9.74148 6.16041 8 6.16041V7.66041C10.2032 7.66041 11.4725 6.85037 12.4466 5.97281L11.4427 4.85833ZM15.5799 20.1119C15.4643 20.1119 15.4036 20.0803 15.3418 20.0184C15.2578 19.9342 15.1564 19.7713 15.0591 19.4817C14.8597 18.8885 14.7691 18.0688 14.657 17.1153C14.5518 16.2204 14.4263 15.1988 14.114 14.396C13.9544 13.9858 13.7263 13.5772 13.3794 13.2629C13.0167 12.9343 12.5604 12.7424 12.0239 12.7253L11.9761 14.2245C12.1595 14.2304 12.2751 14.2865 12.3722 14.3745C12.4851 14.4768 12.6045 14.6532 12.716 14.9398C12.9459 15.5307 13.0567 16.3501 13.1673 17.2905C13.271 18.1722 13.3759 19.1821 13.6372 19.9596C13.7703 20.3553 13.9656 20.763 14.2803 21.0782C14.6171 21.4156 15.0571 21.6119 15.5799 21.6119V20.1119Z" fill="#344054"/>
<path d="M12.5 4.8069C12.8088 5.08305 12.8352 5.55719 12.559 5.86592C12.2829 6.17465 11.8087 6.20105 11.5 5.9249L12.5 4.8069ZM11.9763 12.7253C12.3903 12.7121 12.7366 13.037 12.7498 13.451C12.763 13.865 12.4381 14.2113 12.0241 14.2245L11.9763 12.7253ZM4.25152 4.78465C3.19874 5.7783 2.74617 7.17937 2.75003 8.82351C2.75389 10.474 3.22112 12.3048 3.93486 14.0319C4.64716 15.7554 5.5858 17.3292 6.48797 18.4597C6.94004 19.0262 7.36766 19.4621 7.73655 19.749C8.13184 20.0564 8.35637 20.1119 8.42006 20.1119V21.6119C7.84127 21.6119 7.28151 21.2953 6.8157 20.933C6.32349 20.5503 5.81319 20.019 5.31553 19.3953C4.31824 18.1456 3.3102 16.4476 2.54858 14.6048C1.78841 12.7654 1.2545 10.7352 1.25003 8.82702C1.24555 6.91246 1.77744 5.05717 3.22194 3.6938L4.25152 4.78465ZM11.5 5.9249C10.5297 5.05694 9.32703 4.15398 8.05619 3.78397C6.84907 3.43251 5.55977 3.54987 4.25152 4.78465L3.22194 3.6938C4.95159 2.06129 6.80495 1.85738 8.47551 2.34377C10.0824 2.81161 11.4924 3.90563 12.5 4.8069L11.5 5.9249ZM8.42006 20.1119C8.53569 20.1119 8.59638 20.0803 8.65824 20.0183C8.74224 19.9342 8.8436 19.7712 8.94095 19.4816C9.14033 18.8884 9.23088 18.0688 9.34302 17.1152C9.44827 16.2203 9.57371 15.1987 9.88607 14.3958C10.0457 13.9856 10.2738 13.5771 10.6208 13.2628C10.9835 12.9342 11.4399 12.7424 11.9763 12.7253L12.0241 14.2245C11.8406 14.2304 11.7249 14.2865 11.6278 14.3745C11.515 14.4767 11.3955 14.6531 11.284 14.9397C11.0542 15.5305 10.9434 16.3499 10.8328 17.2904C10.7291 18.1721 10.6241 19.182 10.3628 19.9595C10.2298 20.3553 10.0345 20.763 9.71973 21.0782C9.38289 21.4155 8.94287 21.6119 8.42006 21.6119V20.1119Z" fill="#344054"/>
</svg>
