<svg width="24" height="24" viewBox="0 0 24 24" fill="none" xmlns="http://www.w3.org/2000/svg">
<path d="M8.75 14.9002C8.75 13.0878 9.61092 11.2184 10.7834 9.53016C11.9471 7.85474 13.3595 6.44047 14.3338 5.55459L13.3247 4.44475C12.3066 5.37046 10.8043 6.87052 9.55143 8.67451C8.30746 10.4656 7.25 12.6408 7.25 14.9002H8.75ZM15.6662 5.55459C16.6405 6.44047 18.0529 7.85474 19.2166 9.53016C20.3891 11.2184 21.25 13.0878 21.25 14.9002H22.75C22.75 12.6408 21.6925 10.4656 20.4486 8.67451C19.1957 6.87052 17.6934 5.37046 16.6753 4.44475L15.6662 5.55459ZM21.25 14.9002C21.25 18.0607 18.8641 21.2502 15 21.2502V22.7502C19.8344 22.7502 22.75 18.7397 22.75 14.9002H21.25ZM15 21.2502C11.1359 21.2502 8.75 18.0607 8.75 14.9002H7.25C7.25 18.7397 10.1656 22.7502 15 22.7502V21.2502ZM14.3338 5.55459C14.7203 5.20316 15.2797 5.20316 15.6662 5.55459L16.6753 4.44475C15.7166 3.57311 14.2834 3.57311 13.3247 4.44475L14.3338 5.55459Z" fill="#344054"/>
<path d="M12.1939 6.61313L12.7423 7.1247L13.1455 6.69242L12.8194 6.19937L12.1939 6.61313ZM8.68349 17.9634L8.76518 18.7089L9.80322 18.5952L9.36388 17.6479L8.68349 17.9634ZM2.75 11.6892C2.75 10.1524 3.429 8.56387 4.37708 7.11C5.31839 5.66651 6.47746 4.42788 7.33 3.60684L6.28949 2.5264C5.39264 3.39012 4.14684 4.71696 3.12062 6.29066C2.10117 7.85399 1.25 9.73441 1.25 11.6892H2.75ZM8 17.2503C4.78117 17.2503 2.75 14.4878 2.75 11.6892H1.25C1.25 15.1128 3.76299 18.7503 8 18.7503V17.2503ZM8.67024 3.60707C9.50606 4.41202 10.637 5.61883 11.5683 7.02688L12.8194 6.19937C11.8053 4.66609 10.5905 3.37388 9.71076 2.52664L8.67024 3.60707ZM8.75 14.9003C8.75 13.5184 9.25042 12.0983 10.0192 10.741C10.7855 9.388 11.7926 8.14292 12.7423 7.1247L11.6454 6.10155C10.6476 7.17134 9.55773 8.51202 8.71398 10.0018C7.8727 11.4871 7.25 13.1666 7.25 14.9003H8.75ZM8.60179 17.2179C8.4073 17.2392 8.20668 17.2503 8 17.2503V18.7503C8.26055 18.7503 8.51572 18.7363 8.76518 18.7089L8.60179 17.2179ZM9.36388 17.6479C8.96136 16.7799 8.75 15.8335 8.75 14.9003H7.25C7.25 16.057 7.51119 17.2183 8.00309 18.279L9.36388 17.6479ZM7.33 3.60684C7.7132 3.2378 8.28679 3.23778 8.67024 3.60707L9.71076 2.52664C8.74668 1.59817 7.25384 1.5977 6.28949 2.5264L7.33 3.60684Z" fill="#344054"/>
<path d="M19.7323 16.1632C19.8223 15.7588 19.5675 15.3581 19.1632 15.2681C18.7588 15.1781 18.3581 15.4329 18.2681 15.8372L19.7323 16.1632ZM15.8578 18.2638C15.4512 18.3425 15.1852 18.7359 15.2638 19.1426C15.3425 19.5492 15.7359 19.8152 16.1426 19.7366L15.8578 18.2638ZM18.2681 15.8372C18.0083 17.0044 17.1357 18.0168 15.8578 18.2638L16.1426 19.7366C18.0947 19.3592 19.3633 17.8206 19.7323 16.1632L18.2681 15.8372Z" fill="#344054"/>
</svg>
