<svg width="24" height="24" viewBox="0 0 24 24" fill="none" xmlns="http://www.w3.org/2000/svg">
<path d="M16 7H8C5.79086 7 4 8.79086 4 11V17C4 19.2091 5.79086 21 8 21H16C18.2091 21 20 19.2091 20 17V11C20 8.79086 18.2091 7 16 7Z" stroke="#344054" stroke-width="1.5"/>
<path d="M12 16C13.1046 16 14 15.1046 14 14C14 12.8954 13.1046 12 12 12C10.8954 12 10 12.8954 10 14C10 15.1046 10.8954 16 12 16Z" stroke="#344054" stroke-width="1.5"/>
<path d="M15.2504 7C15.2504 7.41421 15.5862 7.75 16.0004 7.75C16.4146 7.75 16.7504 7.41421 16.7504 7H15.2504ZM8.8582 3.4377C8.54765 3.71179 8.51809 4.18575 8.79219 4.4963C9.06629 4.80685 9.54025 4.8364 9.8508 4.5623L8.8582 3.4377ZM12.0004 3.75C13.7953 3.75 15.2504 5.20507 15.2504 7H16.7504C16.7504 4.37665 14.6237 2.25 12.0004 2.25V3.75ZM9.8508 4.5623C10.4242 4.05623 11.1756 3.75 12.0004 3.75V2.25C10.7962 2.25 9.69509 2.69904 8.8582 3.4377L9.8508 4.5623Z" fill="#344054"/>
</svg>
