<svg width="24" height="24" viewBox="0 0 24 24" fill="none" xmlns="http://www.w3.org/2000/svg">
<path d="M10.1999 3.40033L11.1999 2.067C11.5999 1.53366 12.3999 1.53366 12.7999 2.067L13.7999 3.40033C14.2943 4.05957 13.8239 5.00033 12.9999 5.00033H10.9999C10.1759 5.00033 9.70543 4.05957 10.1999 3.40033Z" fill="#344054"/>
<path d="M12 5V18" stroke="#344054" stroke-width="1.5" stroke-linecap="round" stroke-linejoin="round"/>
<path d="M19.5 6C19.5 6.82843 18.8284 7.5 18 7.5C17.1716 7.5 16.5 6.82843 16.5 6C16.5 5.17157 17.1716 4.5 18 4.5C18.8284 4.5 19.5 5.17157 19.5 6Z" fill="#344054"/>
<path d="M12 22C13.1046 22 14 21.1046 14 20C14 18.8954 13.1046 18 12 18C10.8954 18 10 18.8954 10 20C10 21.1046 10.8954 22 12 22Z" stroke="#344054" stroke-width="1.5"/>
<path d="M4.5 7.5C4.5 6.94772 4.94772 6.5 5.5 6.5H6.5C7.05228 6.5 7.5 6.94772 7.5 7.5V8.5C7.5 9.05228 7.05228 9.5 6.5 9.5H5.5C4.94772 9.5 4.5 9.05228 4.5 8.5V7.5Z" fill="#344054"/>
<path d="M18 7V9.27924C18 9.70967 17.7246 10.0918 17.3162 10.2279L12 12" stroke="#344054" stroke-width="1.5" stroke-linecap="round" stroke-linejoin="round"/>
<path d="M6 9V11.2792C6 11.7097 6.27543 12.0918 6.68377 12.2279L12 14" stroke="#344054" stroke-width="1.5" stroke-linecap="round" stroke-linejoin="round"/>
</svg>
