<svg width="24" height="24" viewBox="0 0 24 24" fill="none" xmlns="http://www.w3.org/2000/svg">
<path d="M6.27802 14.4679C5.91578 14.6687 5.78496 15.1252 5.98584 15.4875C6.18671 15.8497 6.64321 15.9805 7.00546 15.7797L6.27802 14.4679ZM11.9176 14.8004C12.3293 14.8459 12.6999 14.549 12.7454 14.1373C12.7909 13.7256 12.4941 13.355 12.0824 13.3095L11.9176 14.8004ZM7.00546 15.7797C8.18828 15.1238 9.54938 14.75 11 14.75V13.25C9.28843 13.25 7.67773 13.6917 6.27802 14.4679L7.00546 15.7797ZM11 14.75C11.3104 14.75 11.6166 14.7671 11.9176 14.8004L12.0824 13.3095C11.7267 13.2702 11.3656 13.25 11 13.25V14.75Z" fill="#344054"/>
<path d="M11 5C12.6569 5 14 6.34315 14 8C14 9.65685 12.6569 11 11 11C9.34315 11 8 9.65685 8 8C8 6.34315 9.34315 5 11 5Z" stroke="#344054" stroke-width="1.5" stroke-linejoin="round"/>
<path d="M19.3953 14.2501C19.7858 13.242 20 12.146 20 11C20 6.02944 15.9706 2 11 2C6.02944 2 2 6.02944 2 11C2 15.9706 6.02944 20 11 20C12.146 20 13.242 19.7858 14.2501 19.3953M19.3953 14.2501C20.9164 14.8163 22 16.2816 22 18C22 20.2091 20.2091 22 18 22C16.2816 22 14.8163 20.9164 14.2501 19.3953M19.3953 14.2501C18.9609 14.0884 18.4907 14 18 14C15.7909 14 14 15.7909 14 18C14 18.4907 14.0884 18.9609 14.2501 19.3953" stroke="#344054" stroke-width="1.5" stroke-linejoin="round"/>
<path d="M20.5 15.5L15.5 20.5" stroke="#344054" stroke-width="1.5" stroke-linecap="round"/>
</svg>
