<svg width="24" height="24" viewBox="0 0 24 24" fill="none" xmlns="http://www.w3.org/2000/svg">
<path d="M16.5109 18.5686C16.8249 18.8387 17.2984 18.8031 17.5686 18.4891C17.8387 18.1751 17.8031 17.7016 17.4891 17.4314L16.5109 18.5686ZM6.5109 17.4314C6.19689 17.7016 6.16131 18.1751 6.43144 18.4891C6.70157 18.8031 7.17511 18.8387 7.48912 18.5686L6.5109 17.4314ZM12 16.75C13.6028 16.75 15.1395 17.3889 16.5109 18.5686L17.4891 17.4314C15.8977 16.0624 14.025 15.25 12 15.25V16.75ZM7.48912 18.5686C8.86047 17.3889 10.3972 16.75 12 16.75V15.25C9.97499 15.25 8.10233 16.0624 6.5109 17.4314L7.48912 18.5686Z" fill="#344054"/>
<path d="M12 7C13.6569 7 15 8.34315 15 10C15 11.6569 13.6569 13 12 13C10.3431 13 9 11.6569 9 10C9 8.34315 10.3431 7 12 7Z" stroke="#344054" stroke-width="1.5" stroke-linejoin="round"/>
<path d="M18 2H6C3.79086 2 2 3.79086 2 6V18C2 20.2091 3.79086 22 6 22H18C20.2091 22 22 20.2091 22 18V6C22 3.79086 20.2091 2 18 2Z" stroke="#344054" stroke-width="1.5"/>
</svg>
