<svg width="24" height="24" viewBox="0 0 24 24" fill="none" xmlns="http://www.w3.org/2000/svg">
<path d="M10 21C13.866 21 17 19.433 17 17.5C17 15.567 13.866 14 10 14C6.13401 14 3 15.567 3 17.5C3 19.433 6.13401 21 10 21Z" stroke="#344054" stroke-width="1.5" stroke-linejoin="round"/>
<path d="M10 11C12.2091 11 14 9.20914 14 7C14 4.79086 12.2091 3 10 3C7.79086 3 6 4.79086 6 7C6 9.20914 7.79086 11 10 11Z" stroke="#344054" stroke-width="1.5" stroke-linejoin="round"/>
<path fill-rule="evenodd" clip-rule="evenodd" d="M15.0444 10.2498C14.7224 10.7487 14.3283 11.1967 13.877 11.5793C14.2315 11.6903 14.6086 11.7502 14.9997 11.7502C17.0708 11.7502 18.7497 10.0713 18.7497 8.00024C18.7497 6.04447 17.2525 4.43837 15.3417 4.26562C15.6079 4.78458 15.8007 5.34741 15.9064 5.94039C16.6975 6.2891 17.2497 7.08018 17.2497 8.00024C17.2497 9.22795 16.2664 10.226 15.0444 10.2498Z" fill="#344054"/>
<path fill-rule="evenodd" clip-rule="evenodd" d="M18.9992 17.5566C18.9891 18.1708 18.8143 18.7608 18.5004 19.3111C18.8688 19.2098 19.2139 19.0923 19.5307 18.9603C20.1279 18.7115 20.6601 18.3962 21.0545 18.0076C21.4515 17.6165 21.7496 17.1067 21.7496 16.5002C21.7496 15.8938 21.4515 15.3839 21.0545 14.9928C20.6601 14.6043 20.1279 14.289 19.5307 14.0402C18.5081 13.6141 17.1902 13.3397 15.749 13.2686C16.7512 13.7777 17.5697 14.4172 18.1347 15.1445C18.4324 15.2277 18.7067 15.3218 18.9538 15.4248C19.4425 15.6284 19.7889 15.8517 20.0018 16.0614C20.212 16.2685 20.2496 16.4163 20.2496 16.5002C20.2496 16.5842 20.212 16.732 20.0018 16.9391C19.7956 17.1422 19.464 17.3582 18.9992 17.5566Z" fill="#344054"/>
</svg>
