<svg width="24" height="24" viewBox="0 0 24 24" fill="none" xmlns="http://www.w3.org/2000/svg">
<path d="M18.3755 9.61869C18.017 9.41129 17.5582 9.53381 17.3508 9.89235C17.1434 10.2509 17.2659 10.7097 17.6245 10.9171L18.3755 9.61869ZM17.6245 13.0835C17.2659 13.291 17.1434 13.7497 17.3508 14.1083C17.5582 14.4668 18.017 14.5894 18.3755 14.382L17.6245 13.0835ZM18.1492 6.36532C17.7433 6.28292 17.3474 6.54519 17.265 6.95113C17.1826 7.35706 17.4449 7.75294 17.8508 7.83534L18.1492 6.36532ZM17.8508 16.1653C17.4449 16.2477 17.1826 16.6435 17.265 17.0495C17.3474 17.4554 17.7433 17.7177 18.1492 17.6353L17.8508 16.1653ZM17.6245 10.9171C18 11.1343 18.25 11.5386 18.25 12.0003H19.75C19.75 10.9815 19.1956 10.093 18.3755 9.61869L17.6245 10.9171ZM18.25 12.0003C18.25 12.462 18 12.8663 17.6245 13.0835L18.3755 14.382C19.1956 13.9076 19.75 13.0191 19.75 12.0003H18.25ZM17.8508 7.83534C19.7904 8.22905 21.25 9.94507 21.25 12.0003H22.75C22.75 9.21763 20.7741 6.89814 18.1492 6.36532L17.8508 7.83534ZM21.25 12.0003C21.25 14.0555 19.7904 15.7715 17.8508 16.1653L18.1492 17.6353C20.7741 17.1025 22.75 14.783 22.75 12.0003H21.25ZM7.9831 8.20249L12.2499 5.00387L11.3501 3.80367L7.08336 7.0023L7.9831 8.20249ZM14.25 6.00304V17.9976H15.75V6.00304H14.25ZM12.2499 18.9968L7.9831 15.7981L7.08336 16.9983L11.3501 20.1969L12.2499 18.9968ZM14.25 17.9976C14.25 19.0263 13.0744 19.6149 12.2499 18.9968L11.3501 20.1969C13.1625 21.5556 15.75 20.2635 15.75 17.9976H14.25ZM12.2499 5.00387C13.0744 4.38574 14.25 4.97431 14.25 6.00304H15.75C15.75 3.73709 13.1625 2.44499 11.3501 3.80367L12.2499 5.00387ZM6.33358 7.25213H4V8.75213H6.33358V7.25213ZM1.25 10.0012V13.9994H2.75V10.0012H1.25ZM4 16.7485H6.33358V15.2485H4V16.7485ZM1.25 13.9994C1.25 15.518 2.48154 16.7485 4 16.7485V15.2485C3.30932 15.2485 2.75 14.6889 2.75 13.9994H1.25ZM4 7.25213C2.48154 7.25213 1.25 8.48262 1.25 10.0012H2.75C2.75 9.31169 3.30932 8.75213 4 8.75213V7.25213ZM7.9831 15.7981C7.50717 15.4413 6.92839 15.2485 6.33358 15.2485V16.7485C6.60395 16.7485 6.86703 16.8361 7.08336 16.9983L7.9831 15.7981ZM7.08336 7.0023C6.86703 7.16447 6.60395 7.25213 6.33358 7.25213V8.75213C6.92839 8.75213 7.50717 8.55928 7.9831 8.20249L7.08336 7.0023Z" fill="#344054"/>
</svg>
