<svg width="24" height="24" viewBox="0 0 24 24" fill="none" xmlns="http://www.w3.org/2000/svg">
<path d="M19 15C20.1046 15 21 15.8954 21 17C21 18.1046 20.1046 19 19 19C17.8954 19 17 18.1046 17 17C17 15.8954 17.8954 15 19 15Z" stroke="#344054" stroke-width="1.5"/>
<path d="M22.6708 20.6641C22.8563 21.0345 22.7064 21.4851 22.3361 21.6706C21.9657 21.8561 21.5151 21.7062 21.3296 21.3359L22.6708 20.6641ZM16.6708 21.3359C16.4853 21.7062 16.0347 21.8561 15.6643 21.6706C15.294 21.4851 15.1441 21.0345 15.3296 20.6641L16.6708 21.3359ZM21.3296 21.3359C20.8337 20.3457 19.9478 19.75 19.0002 19.75V18.25C20.6164 18.25 21.9691 19.2631 22.6708 20.6641L21.3296 21.3359ZM19.0002 19.75C18.0526 19.75 17.1667 20.3457 16.6708 21.3359L15.3296 20.6641C16.0313 19.2631 17.384 18.25 19.0002 18.25V19.75Z" fill="#344054"/>
<path d="M2 9H1.25C1.25 8.58579 1.58579 8.25 2 8.25V9ZM2 15V15.75C1.58579 15.75 1.25 15.4142 1.25 15H2ZM5 9.75H2V8.25H5V9.75ZM2.75 9V15H1.25V9H2.75ZM2 14.25H5V15.75H2V14.25ZM5 14.25C6.24264 14.25 7.25 13.2426 7.25 12H8.75C8.75 14.0711 7.07107 15.75 5 15.75V14.25ZM5 8.25C7.07107 8.25 8.75 9.92893 8.75 12H7.25C7.25 10.7574 6.24264 9.75 5 9.75V8.25Z" fill="#344054"/>
<path d="M13 20.25C13.4142 20.25 13.75 20.5858 13.75 21C13.75 21.4142 13.4142 21.75 13 21.75V20.25ZM22.75 13C22.75 13.4142 22.4142 13.75 22 13.75C21.5858 13.75 21.25 13.4142 21.25 13H22.75ZM18 3.75H6V2.25H18V3.75ZM2.75 7V17H1.25V7H2.75ZM6 20.25H13V21.75H6V20.25ZM22.75 7V13H21.25V7H22.75ZM2.75 17C2.75 18.7949 4.20507 20.25 6 20.25V21.75C3.37665 21.75 1.25 19.6234 1.25 17H2.75ZM6 3.75C4.20507 3.75 2.75 5.20507 2.75 7H1.25C1.25 4.37665 3.37665 2.25 6 2.25V3.75ZM18 2.25C20.6234 2.25 22.75 4.37665 22.75 7H21.25C21.25 5.20507 19.7949 3.75 18 3.75V2.25Z" fill="#344054"/>
</svg>
