<svg width="24" height="24" viewBox="0 0 24 24" fill="none" xmlns="http://www.w3.org/2000/svg">
<path d="M15 5H9C6.79086 5 5 6.79086 5 9V15C5 17.2091 6.79086 19 9 19H15C17.2091 19 19 17.2091 19 15V9C19 6.79086 17.2091 5 15 5Z" stroke="#344054" stroke-width="1.5"/>
<path d="M12 9V12L10 13" stroke="#344054" stroke-width="1.5" stroke-linecap="round" stroke-linejoin="round"/>
<path d="M17.75 19V18.25H16.25V19H17.75ZM7.75 19V18.25H6.25V19H7.75ZM16.25 19V20H17.75V19H16.25ZM15 21.25H9V22.75H15V21.25ZM7.75 20V19H6.25V20H7.75ZM9 21.25C8.30964 21.25 7.75 20.6904 7.75 20H6.25C6.25 21.5188 7.48122 22.75 9 22.75V21.25ZM16.25 20C16.25 20.6904 15.6904 21.25 15 21.25V22.75C16.5188 22.75 17.75 21.5188 17.75 20H16.25Z" fill="#344054"/>
<path d="M17.75 5V5.75H16.25V5H17.75ZM7.75 5V5.75H6.25V5H7.75ZM16.25 5V4H17.75V5H16.25ZM15 2.75H9V1.25H15V2.75ZM7.75 4V5H6.25V4H7.75ZM9 2.75C8.30964 2.75 7.75 3.30964 7.75 4H6.25C6.25 2.48122 7.48122 1.25 9 1.25V2.75ZM16.25 4C16.25 3.30964 15.6904 2.75 15 2.75V1.25C16.5188 1.25 17.75 2.48122 17.75 4H16.25Z" fill="#344054"/>
</svg>
