<svg width="24" height="24" viewBox="0 0 24 24" fill="none" xmlns="http://www.w3.org/2000/svg">
<path d="M12 19C15.866 19 19 15.866 19 12C19 8.13401 15.866 5 12 5C8.13401 5 5 8.13401 5 12C5 15.866 8.13401 19 12 19Z" stroke="#344054" stroke-width="1.5"/>
<path d="M12 9V12L10 13" stroke="#344054" stroke-width="1.5" stroke-linecap="round" stroke-linejoin="round"/>
<path d="M17.75 17C17.75 16.5858 17.4142 16.25 17 16.25C16.5858 16.25 16.25 16.5858 16.25 17H17.75ZM7.75 17C7.75 16.5858 7.41421 16.25 7 16.25C6.58579 16.25 6.25 16.5858 6.25 17H7.75ZM16.25 17V20H17.75V17H16.25ZM15 21.25H9V22.75H15V21.25ZM7.75 20V17H6.25V20H7.75ZM9 21.25C8.30964 21.25 7.75 20.6904 7.75 20H6.25C6.25 21.5188 7.48122 22.75 9 22.75V21.25ZM16.25 20C16.25 20.6904 15.6904 21.25 15 21.25V22.75C16.5188 22.75 17.75 21.5188 17.75 20H16.25Z" fill="#344054"/>
<path d="M17.75 7C17.75 7.41421 17.4142 7.75 17 7.75C16.5858 7.75 16.25 7.41421 16.25 7H17.75ZM7.75 7C7.75 7.41421 7.41421 7.75 7 7.75C6.58579 7.75 6.25 7.41421 6.25 7H7.75ZM16.25 7V4H17.75V7H16.25ZM15 2.75H9V1.25H15V2.75ZM7.75 4V7H6.25V4H7.75ZM9 2.75C8.30964 2.75 7.75 3.30964 7.75 4H6.25C6.25 2.48122 7.48122 1.25 9 1.25V2.75ZM16.25 4C16.25 3.30964 15.6904 2.75 15 2.75V1.25C16.5188 1.25 17.75 2.48122 17.75 4H16.25Z" fill="#344054"/>
</svg>
