<svg width="24" height="24" viewBox="0 0 24 24" fill="none" xmlns="http://www.w3.org/2000/svg">
<path d="M8 14H4C2.89543 14 2 14.8954 2 16V20C2 21.1046 2.89543 22 4 22H8C9.10457 22 10 21.1046 10 20V16C10 14.8954 9.10457 14 8 14Z" stroke="#344054" stroke-width="1.5"/>
<path d="M8 2H4C2.89543 2 2 2.89543 2 4V8C2 9.10457 2.89543 10 4 10H8C9.10457 10 10 9.10457 10 8V4C10 2.89543 9.10457 2 8 2Z" stroke="#344054" stroke-width="1.5"/>
<path d="M20 14H16C14.8954 14 14 14.8954 14 16V20C14 21.1046 14.8954 22 16 22H20C21.1046 22 22 21.1046 22 20V16C22 14.8954 21.1046 14 20 14Z" stroke="#344054" stroke-width="1.5"/>
<path d="M13.1004 8.07076C12.3194 7.28971 12.3194 6.02338 13.1004 5.24233L15.9288 2.41391C16.7099 1.63286 17.9762 1.63286 18.7573 2.41391L21.5857 5.24233C22.3667 6.02338 22.3667 7.28971 21.5857 8.07076L18.7573 10.8992C17.9762 11.6802 16.7099 11.6802 15.9288 10.8992L13.1004 8.07076Z" stroke="#344054" stroke-width="1.5"/>
</svg>
