<svg width="24" height="24" viewBox="0 0 24 24" fill="none" xmlns="http://www.w3.org/2000/svg">
<path d="M12.4453 20C12.9976 20 13.4453 19.5523 13.4453 19C13.4453 18.4477 12.9976 18 12.4453 18C11.893 18 11.4453 18.4477 11.4453 19C11.4453 19.5523 11.893 20 12.4453 20Z" fill="#344054"/>
<path d="M3 3L21 21" stroke="#344054" stroke-width="1.5" stroke-linecap="round"/>
<path d="M21.384 8.21939C21.6897 8.49892 22.1641 8.47773 22.4436 8.17206C22.7231 7.86638 22.7019 7.39198 22.3963 7.11245L21.384 8.21939ZM18.164 12.0538C18.4625 12.341 18.9373 12.3318 19.2244 12.0333C19.5116 11.7348 19.5024 11.26 19.2039 10.9729L18.164 12.0538ZM8.85955 14.8844C8.58775 15.1969 8.6208 15.6707 8.93337 15.9425C9.24594 16.2143 9.71966 16.1812 9.99146 15.8686L8.85955 14.8844ZM5.68623 10.9729C5.38772 11.26 5.37854 11.7348 5.66571 12.0333C5.95288 12.3318 6.42767 12.341 6.72617 12.0538L5.68623 10.9729ZM2.49387 7.11245C2.1882 7.39198 2.16701 7.86638 2.44654 8.17206C2.72607 8.47773 3.20047 8.49892 3.50615 8.21939L2.49387 7.11245ZM8.3409 3.82872C7.94298 3.94377 7.71367 4.35961 7.82872 4.75752C7.94377 5.15544 8.35961 5.38475 8.75753 5.2697L8.3409 3.82872ZM6.07959 6.3762C6.44271 6.17691 6.57551 5.72098 6.37621 5.35786C6.17691 4.99475 5.72099 4.86195 5.35787 5.06125L6.07959 6.3762ZM9.7405 10.2033C10.1318 10.0676 10.339 9.64031 10.2033 9.24896C10.0676 8.85762 9.64031 8.65041 9.24897 8.78614L9.7405 10.2033ZM14.2657 15.3074C14.6086 15.5398 15.075 15.4502 15.3074 15.1073C15.5398 14.7645 15.4502 14.2981 15.1073 14.0657L14.2657 15.3074ZM13.065 8.26948C12.6516 8.24351 12.2955 8.55758 12.2695 8.97098C12.2435 9.38438 12.5576 9.74056 12.971 9.76653L13.065 8.26948ZM12.4451 4.75C15.8903 4.75 19.027 6.06396 21.384 8.21939L22.3963 7.11245C19.7736 4.7141 16.2795 3.25 12.4451 3.25V4.75ZM9.99146 15.8686C10.5884 15.1821 11.4658 14.75 12.4451 14.75V13.25C11.0135 13.25 9.72929 13.8842 8.85955 14.8844L9.99146 15.8686ZM8.75753 5.2697C9.92725 4.9315 11.1643 4.75 12.4451 4.75V3.25C11.0219 3.25 9.64466 3.45176 8.3409 3.82872L8.75753 5.2697ZM3.50615 8.21939C4.28462 7.50749 5.14817 6.88742 6.07959 6.3762L5.35787 5.06125C4.32081 5.63044 3.35985 6.32054 2.49387 7.11245L3.50615 8.21939ZM6.72617 12.0538C7.57714 11.2352 8.60267 10.598 9.7405 10.2033L9.24897 8.78614C7.90231 9.25321 6.69056 10.0067 5.68623 10.9729L6.72617 12.0538ZM12.4451 14.75C13.121 14.75 13.7466 14.9555 14.2657 15.3074L15.1073 14.0657C14.3477 13.5508 13.4304 13.25 12.4451 13.25V14.75ZM12.971 9.76653C14.9822 9.89289 16.7979 10.7397 18.164 12.0538L19.2039 10.9729C17.5913 9.42148 15.4438 8.41893 13.065 8.26948L12.971 9.76653Z" fill="#344054"/>
</svg>
