<svg width="24" height="24" viewBox="0 0 24 24" fill="none" xmlns="http://www.w3.org/2000/svg">
<path d="M2.43277 9.34481L9.78982 19.2768L10.9952 18.384L3.63811 8.45197L2.43277 9.34481ZM14.2094 19.2768L21.5664 9.34481L20.3611 8.45197L13.004 18.384L14.2094 19.2768ZM3.76981 6.91798C6.3778 4.788 9.20419 3.75 11.9996 3.75C14.795 3.75 17.6214 4.788 20.2294 6.91798L21.1782 5.75621C18.3382 3.43673 15.1844 2.25 11.9996 2.25C8.81482 2.25 5.66101 3.43673 2.82098 5.75621L3.76981 6.91798ZM21.5664 9.34481C22.3719 8.25746 22.2948 6.66816 21.1782 5.75621L20.2294 6.91798C20.6583 7.26829 20.7434 7.93582 20.3611 8.45197L21.5664 9.34481ZM9.78982 19.2768C10.8892 20.761 13.11 20.761 14.2094 19.2768L13.004 18.384C12.5043 19.0586 11.4949 19.0586 10.9952 18.384L9.78982 19.2768ZM3.63811 8.45197C3.25578 7.93582 3.34088 7.26829 3.76981 6.91798L2.82098 5.75621C1.70436 6.66816 1.62733 8.25746 2.43277 9.34481L3.63811 8.45197Z" fill="#344054"/>
</svg>
